<?xml version="1.0" encoding="UTF-8"?><svg id="Calque_2" xmlns="http://www.w3.org/2000/svg" viewBox="0 0 379.88 369.09"><defs><style>.cls-1{fill:#ffcd50;}.cls-2{fill:#ededed;}</style></defs><path id="_22" class="cls-2" d="M183.19,112.47c-.72,0-1.44,.12-2.15,.2-1.89,.21-3.74,.48-5.53,.82-4.88,.92-9.66,2.3-14.28,4.13-.6,.23-1.2,.48-1.79,.73-1.66-6.61-6.87-28.14-10.19-50.93-4.8-32.85-5.68-68.34,13.6-65.55,13.57,2,19.65,19.24,22,39.81,3.07,27.08-.33,59.83-1.66,70.79Z"/><path id="_21" class="cls-2" d="M161.23,117.62c-.6,.23-1.2,.48-1.79,.73-6.6,2.78-12.84,6.34-18.6,10.6-.42,.3-.82,.6-1.21,.9-1.1-1.8-4.67-7.68-9.33-15.92-18-31.82-52.21-98.82-24-103.24,19.55-3.07,33.86,27.36,43,56.77,5,16.46,8.98,33.21,11.93,50.16Z"/><path id="_20" class="cls-2" d="M140.84,129c-.42,.3-.82,.6-1.21,.9-2.98,2.23-5.78,4.68-8.38,7.35-2.22,2.3-4.29,4.75-6.17,7.34-.28,.38-.55,.76-.81,1.15-8.45-6-31.47-22.68-50-40.25-19.7-18.77-34.28-38.44-20.72-47.15,21.37-13.74,58.14,30.31,76.72,55.55,5.18,7.11,8.95,12.61,10.57,15.11Z"/><path id="_19" class="cls-2" d="M125.08,144.54c-.28,.38-.55,.76-.81,1.15-4.11,5.86-7.15,12.4-9,19.32-.15,.54-.28,1.08-.41,1.62-7.29-3-23.77-9.86-40.78-18.52-30-15.25-61.7-36-47.87-50.28,10-10.35,29.09-3.76,48.07,7.6,21.41,12.81,42.7,31.66,50.8,39.11Z"/><path id="_18" class="cls-2" d="M116.89,169.18c-1.77,7.56-2.13,15.38-1.08,23.07-19.75-1.7-120.11-12.05-105.67-40.16,8.39-16.34,38.86-10.59,66-1.43,14.03,4.84,27.77,10.48,41.16,16.89-.15,.55-.28,1.09-.41,1.63Z"/><path id="_17" class="cls-2" d="M124.12,209.59c-2.49,.65-19.75,5.12-40.65,8.92C46,225.33-3.1,230.04,.15,206.92c4.67-33.13,96.63-24,116.19-21.68,1.04,7.61,3.26,15.02,6.59,21.94,.37,.81,.77,1.62,1.19,2.41Z"/><path id="_16" class="cls-2" d="M132.19,226.4s-12,8.41-28.09,18.12c-31,18.68-77,42.12-81.86,19.58-4.22-19.65,28.78-35.57,57.69-45.59,12.95-4.44,26.12-8.22,39.46-11.33,.37,.81,.77,1.62,1.19,2.41,2.68,5.19,5.94,10.05,9.71,14.51l.55,.64c.4,.46,.79,.9,1.2,1.34l.15,.32Z"/><path id="_15" class="cls-2" d="M142.54,234.81c-10.4,15.11-21.57,29.68-33.47,43.64-20.59,23.78-44.65,45.16-54.72,29.76-12-18.31,18.79-48.33,43.59-68.32,12.49-10.07,23.48-17.59,26.71-19.76,.4,.46,.79,.9,1.2,1.34,3.84,4.26,8.21,8.02,13,11.17,1.25,.81,2.45,1.54,3.69,2.17Z"/><path id="_14" class="cls-2" d="M164.63,241.03c-3.48,9.42-20.17,53.35-38.5,80.7-11.68,17.41-24,28.09-34.02,18.86-14.12-13.01-.63-41.65,16-66.63,10.23-15.11,21.44-29.53,33.56-43.17,1.12,.88,2.27,1.71,3.44,2.48,5.54,3.8,11.82,6.38,18.43,7.57,.33,.09,.75,.14,1.08,.19Z"/><path id="_13" class="cls-2" d="M179.28,245.99s2.25,75.43-11.97,103.31c-4.12,8.06-9.61,12.15-16.93,9.32-8.17-3.17-11.87-11.9-12.8-23.17-2.4-28.96,13.36-74.84,17.88-87.28,.37-.05,.75-.05,1.12-.09,.37-.03,.8-.12,1.21-.13l2.23-.33c3.45-.61,6.77-1.3,9.98-2.05l9.27,.42Z"/><path id="_12" class="cls-2" d="M200.03,346.41c-2.74,15.12-8.49,24.92-19.32,22.24-7.5-1.85-12.29-8.08-15.18-16.81-9.7-29.35,2.18-87,5.47-101.65h2.25c3.5-.1,6.89-.29,10.17-.56,4.17-.34,8.15-.83,12-1.46l1.14-.19c1.98,13.69,9.11,67.32,3.47,98.43Z"/><path id="_11" class="cls-2" d="M229.03,356.69c-6.9,.14-12.56-3.89-17.19-10.46-16.95-24-20.22-82.09-20.76-96.13l1.09-.38c7.17-2.43,14.01-5.72,20.39-9.79l.36-.24c1.48,3.36,10.69,24.57,18.26,48.03,10.4,32.18,17.74,68.58-2.16,68.96Z"/><path id="_10" class="cls-2" d="M272.53,340.96c-18.77,4.83-35.55-24.4-46.94-52.16-6.07-14.94-11.23-30.23-15.47-45.79l7.61-4.95,.41-.16c3.37-1.28,6.63-2.84,9.74-4.66,.87-.5,1.7-1.03,2.53-1.59,3.55,4.74,16.67,22.51,28.7,42.42,17.38,28.78,32.49,61.97,13.42,66.89Z"/><path id="_9" class="cls-2" d="M324.08,301.84c-14.68,11.85-41-6.46-62.56-26.38-12.36-11.55-23.97-23.88-34.77-36.9l1.41-2.22c.84-.55,1.64-1.12,2.44-1.72,4.62-3.4,8.67-7.51,12-12.18,.25-.34,.49-.69,.73-1.05,13.64,7.6,56.83,32.57,75.9,54.09,9.22,10.36,12.83,19.92,4.85,26.36Z"/><path id="_8" class="cls-2" d="M342.85,272.05c-5.68,5.67-14,6.13-23.57,3.43-27.74-7.85-65.49-42.41-76.63-53,.25-.34,.49-.69,.73-1.05,3.79-5.63,6.68-11.81,8.57-18.32,.11-.34,.21-.68,.31-1,.2-.7,.4-1.4,.59-2.11,8.32,3.52,31.84,13.8,53.22,26.12,26.38,15.11,49.38,33.36,36.78,45.93Z"/><path id="_7" class="cls-2" d="M361.91,222.57c-7.78,14.15-31.81,11.08-55.82,3.49-22.57-7.16-45.12-18.32-54.12-23,.11-.34,.21-.68,.31-1,.2-.7,.4-1.4,.59-2.11,1.06-3.89,2-7.82,2.63-11.76,.54-3.16,.94-6.32,1.17-9.46,16,1.91,68.6,9.07,93.53,22.68,10.68,5.83,16.25,12.85,11.71,21.16Z"/><path id="_6" class="cls-2" d="M379.22,184.62c-3.17,10.43-14.43,15.25-29,16.77-32.46,3.39-81.42-9.49-94.7-13.22,.54-3.16,.94-6.32,1.17-9.46,.42-5.21,.3-10.44-.37-15.62-.07-.56-.16-1.12-.25-1.68,11.51-1,42.13-3.35,70-2,30.9,1.59,58.47,7.71,53.15,25.21Z"/><path id="_5" class="cls-2" d="M363.45,134.83c-1,13.5-17.37,20.79-37.38,24.62-25.68,4.94-57.27,4.2-69.79,3.64-.07-.56-.16-1.12-.25-1.68-1.09-7.2-3.67-14.1-7.58-20.24-.33-.52-.67-1.03-1-1.53,5.42-1.78,19.45-6.24,36-10.44,35.14-8.92,81.62-16.6,80,5.63Z"/><path id="_4" class="cls-2" d="M285.54,126.24c-15.98,8.48-31.08,14.78-37.2,17.29-.43-.54-.86-1.06-1.28-1.57-3.68-4.22-7.96-7.89-12.69-10.88l-.44-.53-2.94-3.58s10.24-9.76,24.32-21.52c28.02-23.36,71.25-54.58,79.56-32.58,7.04,18.61-22.38,39.1-49.34,53.38Z"/><path id="_3" class="cls-2" d="M258.28,107.74c-10.58,10.77-19.51,18.65-21.55,20.42l-.14,.13c-3.02-2.34-6.24-4.42-9.62-6.2-2.22-1.18-4.56-2.3-7.07-3.34l-3.43-2s18.58-37.21,38.84-64.14c15.28-20.29,31.51-34.76,41.49-23.09,15.2,17.76-15.55,54.81-38.52,78.22Z"/><path id="_2" class="cls-2" d="M255.28,52.56c-8.72,33.2-28.13,69.57-28.13,69.57h-.19c-2.22-1.18-4.56-2.3-7.07-3.34-2.34-1-4.81-1.89-7.41-2.73-2.45-.79-4.85-1.45-7.22-2l-1.65-.35c1.61-14.82,7.64-63.85,19.68-92.45,6.6-15.69,15-25.24,25.5-19.61,13.41,7.19,12.43,28.35,6.49,50.91Z"/><path id="_1" class="cls-2" d="M205.24,114l-1.65-.35c-6.71-1.35-13.57-1.76-20.39-1.22-.72,0-1.44,.12-2.15,.2-.17-10.15-.34-43.26,3.8-71,3.8-25.41,11.26-46.32,25.72-40.71,7.53,2.92,11.32,10.43,12.69,20.32,4.12,29.58-13.49,80.37-18.02,92.76Z"/><path id="centre" class="cls-1" d="M252.26,202c-9.62,33.38-36,46.86-79,48.15-15.39,.46-30.68-8.17-42-21.49-20.25-23.87-27.7-62.79,0-91.5,0,0,17.16-18.63,44.26-23.71,12.33-2.28,25.03-1.41,36.93,2.55,47.52,15.43,49.44,52.66,39.81,86Z"/></svg>