<?xml version="1.0" encoding="UTF-8"?><svg id="Calque_2" xmlns="http://www.w3.org/2000/svg" viewBox="0 0 261.74 252.46"><defs><style>.cls-1{fill:#fff;}.cls-2{fill:rgba(255,0,255,.5);}</style></defs><g id="Encart_Guadeloupe"><g id="Terre_Guadeloupe"><path id="path3779-7-8-0" class="cls-1" d="M59.87,76.5c-1.15,.79,1.67,.57,0,0Zm158.61,47.11c-2.27,.7-3.99,2.06-.32,1.52,.04-.61,1.43-.84,.32-1.52ZM50.05,73.15c-.05,1.77,2.61,.68,0,0Zm27.54-1.76c-.19,1.03-3.03,5.49-.74,2.93,1.39,.32,6.17-.22,2.69-2.26-.93,.12-1.02-.63-1.95-.67h0Zm-25.12,2.68c1.33,1.91-.17,.27,0,0Zm163.84,51.64c-1.66,1.66-4.39-.7-5.39,1.13,1.38,1.3,3.53,1.18,5.56,.66,2.29-.17,1.01-1.08-.16-1.79h0Zm-120.12-53.4c-4.3-.37,2.87,2.21,0,0Zm149.35,.33c-1.79,1.2-3.39,1.59-5.23,3.18-.98,.64-1.74,.13-3.62,1.49-1.78,.73-2.03,1.47-3.68,2.2-1.28,.83-2.83,2.32-4.29,2.47-1.88-1.22-2.22,1.59-3.33,1.97-1.56,.47-3.14-.62-3.68,1.59-1.75,.97-2.02,4.67-.56,5.25,1-2.3,4.18-1.66,5.39-2.86,1.27-1.39,4.36-1,6.56-1.72,4-1.27,6.14-5.71,10.4-6.49,1.61-.35,1.71,.03,3.41-1.16,2.17-.07,1.8-2.56,.56-2.91-.45-1.09-.23-2.75-1.93-3.02h0s0,0,0,0ZM19.69,127.05c-2.38,1.73,3.04,1.23,0,0Zm2.25-60.61c-.02,4.3,3.41,.94,0,0Zm69.24,45.77c-1.86,2.97,5.32,1.59,1.08,1.18-.5,.03-.42-1.22-1.08-1.18Zm-19.65,114.52c-.78,2.34,4.45,2.65,0,0Zm3.22-11.9c-1.46,2.52,4.78,2.53,1.97,.08-.47,.8-1.41,.4-1.97-.08Zm2.5,10.98c-2.9,2.11-1.46,2.64,1.29,3.16,2.54-.02-.53-2.65-1.29-3.16Zm5.07-12.41c-.52,3.84-1.19,2.53-2.33,1.15-1.78,1.26,.14,5.13-2.58,4.59-2.46-.16-3.33,1.07-4.59,2.63,1.82,.26,4.73,1.75,5.68-.32,2.11,.2,3.56,1.23,2.53-1.18-.15-1.78,5.28-3.53,3.22-3.74-2.03,1.76,.52-2.64-1.05-2.88-.65,.65-.4-.47-.89-.25h0Zm-18.03,3.94c-.9,3.16-3.46,2.36-3.62,5.43-1.61,2.47,2.08,2.47,3.47,3.63,2.77,1.19,3.51-2.9,4.89-4.3,1.18,2.99,2.59-2.36-1.22-1.15,1.51-3.12-1.93-1.77-3.12-3.18v-.38l-.4-.04h0s0,0,0,0Zm99.11-38.98c-1.36,1.42-2.18,3.74-3.46,4.43,.98,3.69-5.12,1.32-3.38,4.96,.04,2.88-.28,6.17-3.62,7.04-3.32,.86-.95,4.1-1.21,6.59,.16,2.58,2.29,5.34,1.05,7.45,1.69,1.74,2.38,4.42,4.57,5.91,2.57-.15,4.42,1.99,7.02,2.29,2.44,.95,4.06,2.16,6.83,1.14,2.78-1.38,6.67-.79,9.2-3.22,2.17-1.47,3.97-3.04,5.56-5.06,2.79-.78,4.37-2.35,5.15-5.05,1.15-3.57,1.17-6.92-.68-10.23-1.09-2.16-4.1-2.54-4.88-4.35-1.71-1.88-2.89-1.83-3.38-4.56-.2-1.37-.95-2.85-2.77-3.83-1.14-.03-2.21-1.38-3.17-1.51-2.24-.15-3.51-2.96-6.18-3.19-1.28-1.89-1.62,.16-4.21-.17-1.06-.02-1.64,.51-2.42,1.34ZM88.76,93.24c.69,.99-.11,.14,0,0Zm-1.22,1.68c.6,.14-.04-1.1,0,0Zm-13.1,83.43c-.99,2.1-1.92,2.11-3.6,3.35-.63,2.42-1.18,4.67-2.37,5.45-2.26-.69-1.77,1.73-3.49,1.84-1.72-.9-3.87-1.18-5.19-.46-2.06,2.38-2.12,.91-4.55,1.22-1.65,1.51-2.5,4.07-5.19,3.92-2.04,.13-3.94,1.63-5.8,.34-1.81-.4-.61-4.4-1.29-6.25-.05-4.04-4.56-4.56-6.42-7.74-1.56-2.57-5.46-4.31-4.53-8.11-.43-3.15-1.89-5.48-4.03-7.32-1.83-2.21-3.49-5.08-2.09-8.33-.43-1.84,.72-5.02-.3-4.82-1.59-.96-.62-2.44-.83-3.78-.66-.8-.28-3.38-.4-5.15-.6-2.49,2.63-3.89-.4-5.97-3.09,.02,.5-2.46,0-4.13-.44-2.38,.24-4.98-.89-6.62-3.05,.75-.7-3.27-1.69-4.6-2.51-2.74,1.07-4.7,.4-7.72-.98-1.86-.49-4.23-2.64-5.62-1.95-1.48-3.39-3.62-3.5-5.91-1.09-1.71-.37-4.31-1.35-5.39,.78-1.12,2.31-3.24,1.61-5.64-.6-2.75,.83-4.31,2.46-5.45-3.68-1.08-.98-3.47,1.4-3.97,1.4-2.22-1.06-5.02,2.64-5.59,1.14-1.91,.79-3.68,3.8-3.6,1.61-2.47,4.44,.38,5.46-1.51,.58-2.02,2.19-1.61,3.69-.42,2.48-.09,3.6,1.67,4.63,3.15,2.05,.3-.21,2.87,3.05,3.13,2.45,.56,4.38,.21,6.27,2.18,1.43,3.4,2-1.77,3.64,1.29,1.12,1.44,3.04,1.55,3.46,1.56,2.47,.47,4.45-.91,6.52,1.29-2.69,2.4,1.86,2.01,3.06,3.52,1.81,1.34,3.93,.58,6.4-.03,4.94,.43-1.47,2.37-.84,4.7-1.21,3.24-2.95,1.88-2.25-.82,1.11,.98-4.36,3.9-.79,4.67,4.24-2.3,1.92,1,2.85,2.68,2.54,.04,2.84-4.34,4.35-4.19,.27,1.67-2.33,4.64,1,4.28,1.73,.42,2.72-1.84,3.62-2.93-.03-2.73,1.19-2.45,2.74-1.51,1.76-2.01,2.99-.54,4.32-1.11,3.24,2.91-2.08,.94-.75,2.9,.84,1.07,3.44-2.6,3.24,2.7,1.28,2.69-2.28,4.34-.53,6.53-.11,2.47,.06,3.57,2.25,4.16-1.33,2.18-1.91,2.93-1.88,3.01-2.94,.18-.86-2.85-2.98-3.94-1.26,1.98-2.78-1.21-5.22-.08-2.53-2-2.31,3.2-3.45,4.59,.55,1.76,.31,3.33,1.37,5.03-2.5,1.79-1.8,5.07-.4,6.89,4.02,.62-.85,3.18,.32,5.44,.79,2.47,3.88,3.28,2.09,5.86,.22,2.59,5.71,1.78,4.35,4.38-2.18,.99-3.49,4.71-.85,6.12,1.2,1.39,1.94,4.35,1.4,6.78,.68,3.13-1.27,6.8,1.45,9.37-.44,1.37-3.03,3.27-2.66,5.72-1.06,2.19-1.81,4.21-4.49,5.21-1.33,2.13-2.92,2.68-4.64,4.36-.7,.2-.38,1.03-1.58,1.09h0Zm13.53-86.93c1.41-.42,3.6-1.54,2.01-3.67,.79-2.07,2.03,.58,2.98-3.2,1.15-1.64,.68-3.08,.89-5.11-.44-2.24,1.82-3.2,2.74-4.39,.03-2.33,4.48,1.27,4.91-.64,.95-.96-1.62-2.21,2.05-2.18,2.6-.43,.6-1.63,.13-3.52,.3-.76,1.98-3.09,.88-4.77-.96-2.34-2.7-2.85-3.65-2.19-1.97-2.05-5.99-1.82-5.44-5.53-1.15-2.53-1.66-4.36-1.83-6.96-.66-2.49-2.83-2.83-.82-5.08,.33-2.79,1.54-4.89,4.12-5.81,.45-3.5,5.22-1.36,5.06-4.72,1.14-2.18,3.45-2.43,5.64-3.72,1.93-1.83,2.35-3.76,3.88-5.64,1.29,.47,3.54-2.54,2.18,.84,1.62,.8,.39,3.16,3.45,2.18,1.38,1.05,4.15-.68,3.52,3.44,1.51-1.14,3.25,2.01,4.12,2.59,1.08,1.83,3,1.97,4.07,3.42,1.87,.82,1.04,3.98,1.92,5.38,.17,1.85,2.43,2.72,1.83,5.66,1.31,1.19,.47,4.69,0,5.57-.37,2.11-1.69,3.06-1.21,5.53-1.04,2.07,.71,4.57,1.05,6.68,1.82,2.56,3.42,5.66,5.88,8.07,1.16,1.45,4.19,3.72,4.33,2.85,2.38,1.25,4.9,.12,6.57,1.59,.82,.67,4.58-1.42,6.93,.42,2.32-1.54,4.04,2.35,5.44,1.03,1.47,1.17,3.69,1.53,5.62,3.08,1.27,1.17,4.58,.84,4.06,3.35,2.32-.37,2.85,2.63,3.77,3.7,2.49,3.01,2.99,7.78,7.55,8.54,2.99,.41,4.8,3.7,8.07,3.41,.71-.81,3.68-.2,5.25,1.29,1.31,1.18,3.43,.36,2.4,2.01-1.21,1.15-3.44-1.92-5.25-1.72-2.37,.05-5.32-.09-7.79-1.01-2.17-.08-5.17-.24-7.73-.79-1.98-.11-3.5-.37-5.45,1.01-2.23,1.02-5.02-.36-6.62,1.93-2.98,.58-6.21,.8-9.34,1.68-1.9-2.19-1.43,.57-4.11-.51-1.52,.19-2.5,.64-4.55,1.52-2.26,.93-5.84-.11-6.89,2.77-1.43,2.95-5.18-.43-6.03,2.55-1.34-.57-3.27,1.2-4.89,2.22-1.91-.36-3.17,1.02-3.81,.98-.81-.39-4.01-.92-5.39,.78-.23,2.13-3.85,1.48-4.67,1.61-1.08,1.31-2.91,1.07-4.59,0-2.77-1.17-6.12-1.43-9.42-1.78,.33-2.34-2.06-3.99-4.03-1.95-1.38-.56-4.06-1.45-3.06-2.88-.18,.77-.4-4.14-1.85-3.71-.96-1.72-1.53-3.46-3.42-5.06,1.98-1.73,.39-4.82,.23-7.05,1.25-3.11-1.76-2.39-1.66-4.01l.02-.08h0s0,0,0,0Zm102.07-35.6c.12-.45,.67-.4,1.03-.35,.55,.04,1.11,0,1.67,.01,.18,.46,.75,.46,1.11,.69,.54,.32,1.25,.56,1.48,1.2,.12,.39,.42,.8,.86,.83,.38,.19,.19,.71-.02,.96-.22,.39,.03,.82-.02,1.22-.16,.48-.75,.35-1.14,.31-.4,0-.8,.06-1.2-.01-.16-.41-.72-.57-.74-1.05-.06-.5-.57-.73-.97-.92-.37-.27-.97-.05-1.25-.48-.24-.38,0-.94-.4-1.24-.26-.27-.65-.08-.9,.1-.24,.23-.67,.22-.78-.14-.13-.3,.09-.57,.33-.72,.25-.24,.58-.51,.96-.41h0Z"/></g><g id="_971_Guadeloupe"><path id="path3779-7-8" class="cls-2" d="M59.87,76.5c-1.15,.79,1.67,.57,0,0Zm158.61,47.11c-2.27,.7-3.99,2.06-.32,1.52,.04-.61,1.43-.84,.32-1.52ZM50.05,73.15c-.05,1.77,2.61,.68,0,0Zm27.54-1.76c-.19,1.03-3.03,5.49-.74,2.93,1.39,.32,6.17-.22,2.69-2.26-.93,.12-1.02-.63-1.95-.67h0Zm-25.12,2.68c1.33,1.91-.17,.27,0,0Zm163.84,51.64c-1.66,1.66-4.39-.7-5.39,1.13,1.38,1.3,3.53,1.18,5.56,.66,2.29-.17,1.01-1.08-.16-1.79h0Zm-120.12-53.4c-4.3-.37,2.87,2.21,0,0Zm149.35,.33c-1.79,1.2-3.39,1.59-5.23,3.18-.98,.64-1.74,.13-3.62,1.49-1.78,.73-2.03,1.47-3.68,2.2-1.28,.83-2.83,2.32-4.29,2.47-1.88-1.22-2.22,1.59-3.33,1.97-1.56,.47-3.14-.62-3.68,1.59-1.75,.97-2.02,4.67-.56,5.25,1-2.3,4.18-1.66,5.39-2.86,1.27-1.39,4.36-1,6.56-1.72,4-1.27,6.14-5.71,10.4-6.49,1.61-.35,1.71,.03,3.41-1.16,2.17-.07,1.8-2.56,.56-2.91-.45-1.09-.23-2.75-1.93-3.02h0s0,0,0,0ZM19.69,127.05c-2.38,1.73,3.04,1.23,0,0Zm2.25-60.61c-.02,4.3,3.41,.94,0,0Zm69.24,45.77c-1.86,2.97,5.32,1.59,1.08,1.18-.5,.03-.42-1.22-1.08-1.18Zm-19.65,114.52c-.78,2.34,4.45,2.65,0,0Zm3.22-11.9c-1.46,2.52,4.78,2.53,1.97,.08-.47,.8-1.41,.4-1.97-.08Zm2.5,10.98c-2.9,2.11-1.46,2.64,1.29,3.16,2.54-.02-.53-2.65-1.29-3.16Zm5.07-12.41c-.52,3.84-1.19,2.53-2.33,1.15-1.78,1.26,.14,5.13-2.58,4.59-2.46-.16-3.33,1.07-4.59,2.63,1.82,.26,4.73,1.75,5.68-.32,2.11,.2,3.56,1.23,2.53-1.18-.15-1.78,5.28-3.53,3.22-3.74-2.03,1.76,.52-2.64-1.05-2.88-.65,.65-.4-.47-.89-.25h0Zm-18.03,3.94c-.9,3.16-3.46,2.36-3.62,5.43-1.61,2.47,2.08,2.47,3.47,3.63,2.77,1.19,3.51-2.9,4.89-4.3,1.18,2.99,2.59-2.36-1.22-1.15,1.51-3.12-1.93-1.77-3.12-3.18v-.38l-.4-.04h0s0,0,0,0Zm99.11-38.98c-1.36,1.42-2.18,3.74-3.46,4.43,.98,3.69-5.12,1.32-3.38,4.96,.04,2.88-.28,6.17-3.62,7.04-3.32,.86-.95,4.1-1.21,6.59,.16,2.58,2.29,5.34,1.05,7.45,1.69,1.74,2.38,4.42,4.57,5.91,2.57-.15,4.42,1.99,7.02,2.29,2.44,.95,4.06,2.16,6.83,1.14,2.78-1.38,6.67-.79,9.2-3.22,2.17-1.47,3.97-3.04,5.56-5.06,2.79-.78,4.37-2.35,5.15-5.05,1.15-3.57,1.17-6.92-.68-10.23-1.09-2.16-4.1-2.54-4.88-4.35-1.71-1.88-2.89-1.83-3.38-4.56-.2-1.37-.95-2.85-2.77-3.83-1.14-.03-2.21-1.38-3.17-1.51-2.24-.15-3.51-2.96-6.18-3.19-1.28-1.89-1.62,.16-4.21-.17-1.06-.02-1.64,.51-2.42,1.34h0ZM88.76,93.24c.69,.99-.11,.14,0,0Zm-1.22,1.68c.6,.14-.04-1.1,0,0Zm-13.1,83.43c-.99,2.1-1.92,2.11-3.6,3.35-.63,2.42-1.18,4.67-2.37,5.45-2.26-.69-1.77,1.73-3.49,1.84-1.72-.9-3.87-1.18-5.19-.46-2.06,2.38-2.12,.91-4.55,1.22-1.65,1.51-2.5,4.07-5.19,3.92-2.04,.13-3.94,1.63-5.8,.34-1.81-.4-.61-4.4-1.29-6.25-.05-4.04-4.56-4.56-6.42-7.73-1.56-2.57-5.46-4.31-4.53-8.11-.43-3.15-1.89-5.48-4.03-7.32-1.83-2.21-3.49-5.08-2.09-8.33-.43-1.84,.72-5.02-.3-4.82-1.59-.96-.62-2.44-.83-3.78-.66-.8-.28-3.38-.4-5.15-.6-2.49,2.63-3.89-.4-5.97-3.09,.02,.5-2.46,0-4.13-.44-2.38,.24-4.98-.89-6.62-3.05,.75-.7-3.27-1.69-4.6-2.51-2.74,1.07-4.7,.4-7.72-.98-1.86-.49-4.23-2.64-5.62-1.95-1.48-3.39-3.62-3.5-5.91-1.09-1.71-.37-4.31-1.35-5.39,.78-1.12,2.31-3.24,1.61-5.64-.6-2.75,.83-4.31,2.46-5.45-3.68-1.08-.98-3.47,1.4-3.97,1.4-2.22-1.06-5.02,2.64-5.59,1.14-1.91,.79-3.68,3.8-3.6,1.61-2.47,4.44,.38,5.46-1.51,.58-2.02,2.19-1.61,3.69-.42,2.48-.09,3.6,1.67,4.63,3.15,2.05,.3-.21,2.87,3.05,3.13,2.45,.56,4.38,.21,6.27,2.18,1.43,3.4,2-1.77,3.64,1.29,1.12,1.44,3.04,1.55,3.46,1.56,2.47,.47,4.45-.91,6.52,1.29-2.69,2.4,1.86,2.01,3.06,3.52,1.81,1.34,3.93,.58,6.4-.03,4.94,.43-1.47,2.37-.84,4.7-1.21,3.24-2.95,1.88-2.25-.82,1.11,.98-4.36,3.9-.79,4.67,4.24-2.3,1.92,1,2.85,2.68,2.54,.04,2.84-4.34,4.35-4.19,.27,1.67-2.33,4.64,1,4.28,1.73,.42,2.72-1.84,3.62-2.93-.03-2.73,1.19-2.45,2.74-1.51,1.76-2.01,2.99-.54,4.32-1.11,3.24,2.91-2.08,.94-.75,2.9,.84,1.07,3.44-2.6,3.24,2.7,1.28,2.69-2.28,4.34-.53,6.53-.11,2.47,.06,3.57,2.25,4.16-1.33,2.18-1.91,2.93-1.88,3.01-2.94,.18-.86-2.85-2.98-3.94-1.26,1.98-2.78-1.21-5.22-.08-2.53-2-2.31,3.2-3.45,4.59,.55,1.76,.31,3.33,1.37,5.03-2.5,1.79-1.8,5.07-.4,6.89,4.02,.62-.85,3.18,.32,5.44,.79,2.47,3.88,3.28,2.09,5.86,.22,2.59,5.71,1.78,4.35,4.38-2.18,.99-3.49,4.71-.85,6.12,1.2,1.39,1.94,4.35,1.4,6.78,.68,3.13-1.27,6.8,1.45,9.37-.44,1.37-3.03,3.27-2.66,5.72-1.06,2.19-1.81,4.21-4.49,5.21-1.33,2.13-2.92,2.68-4.64,4.36-.7,.2-.38,1.03-1.58,1.09h0Zm13.53-86.93c1.41-.42,3.6-1.54,2.01-3.67,.79-2.07,2.03,.58,2.98-3.2,1.15-1.64,.68-3.08,.89-5.11-.44-2.24,1.82-3.2,2.74-4.39,.03-2.33,4.48,1.27,4.91-.64,.95-.96-1.62-2.21,2.05-2.18,2.6-.43,.6-1.63,.13-3.52,.3-.76,1.98-3.09,.88-4.77-.96-2.34-2.7-2.85-3.65-2.19-1.97-2.05-5.99-1.82-5.44-5.53-1.15-2.53-1.66-4.36-1.83-6.96-.66-2.49-2.83-2.83-.82-5.08,.33-2.79,1.54-4.89,4.12-5.81,.45-3.5,5.22-1.36,5.06-4.72,1.14-2.18,3.45-2.43,5.64-3.72,1.93-1.83,2.35-3.76,3.88-5.64,1.29,.47,3.54-2.54,2.18,.84,1.62,.8,.39,3.16,3.45,2.18,1.38,1.05,4.15-.68,3.52,3.44,1.51-1.14,3.25,2.01,4.12,2.59,1.08,1.83,3,1.97,4.07,3.42,1.87,.82,1.04,3.98,1.92,5.38,.17,1.85,2.43,2.72,1.83,5.66,1.31,1.19,.47,4.69,0,5.57-.37,2.11-1.69,3.06-1.21,5.53-1.04,2.07,.71,4.57,1.05,6.68,1.82,2.56,3.42,5.66,5.88,8.07,1.16,1.45,4.19,3.72,4.33,2.85,2.38,1.25,4.9,.12,6.57,1.59,.82,.67,4.58-1.42,6.93,.42,2.32-1.54,4.04,2.35,5.44,1.03,1.47,1.17,3.69,1.53,5.62,3.08,1.27,1.17,4.58,.84,4.06,3.35,2.32-.37,2.85,2.63,3.77,3.7,2.49,3.01,2.99,7.78,7.55,8.54,2.99,.41,4.8,3.7,8.07,3.41,.71-.81,3.68-.2,5.25,1.29,1.31,1.18,3.43,.36,2.4,2.01-1.21,1.15-3.44-1.92-5.25-1.72-2.37,.05-5.32-.09-7.79-1.01-2.17-.08-5.17-.24-7.73-.79-1.98-.11-3.5-.37-5.45,1.01-2.23,1.02-5.02-.36-6.62,1.93-2.98,.58-6.21,.8-9.34,1.68-1.9-2.19-1.43,.57-4.11-.51-1.52,.19-2.5,.64-4.55,1.52-2.26,.93-5.84-.11-6.89,2.77-1.43,2.95-5.18-.43-6.03,2.55-1.34-.57-3.27,1.2-4.89,2.22-1.91-.36-3.17,1.02-3.81,.98-.81-.39-4.01-.92-5.39,.78-.23,2.13-3.85,1.48-4.67,1.61-1.08,1.31-2.91,1.07-4.59,0-2.77-1.17-6.12-1.43-9.42-1.78,.33-2.34-2.06-3.99-4.03-1.95-1.38-.56-4.06-1.45-3.06-2.88-.18,.77-.4-4.14-1.85-3.71-.96-1.72-1.53-3.46-3.42-5.06,1.98-1.73,.39-4.82,.23-7.05,1.25-3.11-1.76-2.39-1.66-4.01l.02-.08h0s0,0,0,0Zm102.07-35.6c.12-.45,.67-.4,1.03-.35,.55,.04,1.11,0,1.67,.01,.18,.46,.75,.46,1.11,.69,.54,.32,1.25,.56,1.48,1.2,.12,.39,.42,.8,.86,.83,.38,.19,.19,.71-.02,.96-.22,.39,.03,.82-.02,1.22-.16,.48-.75,.35-1.14,.31-.4,0-.8,.06-1.2-.01-.16-.41-.72-.57-.74-1.05-.06-.5-.57-.73-.97-.92-.37-.27-.97-.05-1.25-.48-.24-.38,0-.94-.4-1.24-.26-.27-.65-.08-.9,.1-.24,.23-.67,.22-.78-.14-.13-.3,.09-.57,.33-.72,.25-.24,.58-.51,.96-.41h0Z"/></g></g></svg>