<?xml version="1.0" encoding="UTF-8"?>
<svg id="Calque_2" xmlns="http://www.w3.org/2000/svg" viewBox="0 0 181.74 243.25">
    <defs>
        <style>.cls-1{fill:#fff;}.cls-2{fill:rgba(255,128,0,.5);}</style>
    </defs>
    <g id="Encart_Mayotte">
        <g id="Terre_Mayotte">
            <path id="path3347-8-8" class="cls-1"
                  d="M13.68,20.43c-.57,2.71-5.18,3.41-4.4,5.81,.02,1.98,4.72-.37,5.78,2.45-.19,2.02-3.18,6.4,.05,2.84,3.07,2.35,2.65-2.94,5.22-3.12,4.37-1.68,.18-2.06-1.07-4.02-1.97-.92-2.46-3.01-4.76-3.5-.31-.12-.59-.35-.83-.46h0Zm11.2,19.43c-2.76,.25,3.57,3.89,2.33,2.16-.67-.75-1-2.43-2.33-2.16Zm35.89,1.09c-4.36,2.27,3.6,3.49,2.98,1.45-.53-.79-2.11-.58-2.98-1.45Zm-29.22,1.07c-1.93-.25-4.03,2.37-.81,1.82,.63,0,2.15-1.78,.81-1.82Zm37.25,7.72c-.78,2.09,4.15,.21,0,0Zm77.03,33.37c-1.98,2.7,2.5,.24,0,0Zm-11.21,4.92c-.15,1.96,4,.57,0,0Zm19.53,.48c-2.71,3.52-5.36,7.43-9.1,10.37-2.56,2.25-2.32-3.51-3.78,1.95-4.03-.37-5.22,1.58-.66,3.6,1.97,1.87,7.6,2.86,7.54,7.38,3.84,1.78,.99,7.79,5.69,8.47,4.57,4.85-2.6-7.33,2.92-8.64,7.6,1.43,.47-9.04,5.42-8.1,1.1-3.44-3.57-5.26-2.87-8.93-1.52-1.99-3.39-4.73-5.16-6.11h0Zm-18.17,6c-2.93,4.52,3.26,.99,0,0Zm-9.1,19.42c-3.05,1.58-2.73,6.65-.11,7.5,3.18-.43,4.58-4.49,1.02-7.04l-.37-.32-.54-.14h0Zm9.52,12.19c-.18,2.27,2.23,1.05,0,0h0Zm-10.14,5.39c-2.5,2.13,4.73,2.91,1.36,.98-.74,.08-.74-1.18-1.36-.98Zm5.14,1.39c-.6,2.12,6.1,.82,2.5,.16-.88,.06-1.37-1.33-2.5-.16Zm-6.99,31.3c-2.45,3.06,3.02,6.29,2.28,1.47-.09-1.02-1.13-2.02-2.28-1.47Zm-48.12,12.3c-2.21,1.5-1.56,4.76,.95,2.16,1.38-.52-.17-1.7-.95-2.16Zm30.4,8.19c-.64,2.62,5.5,2.4,2,.41-.73-.11-.94-1.27-2-.41Zm-25.58,38.08c-2.49-.01-5.45,1.55-5.96-2.02-.81-4.89-4.64-1.7-6.8-.17-3.13-1.18,.95-7.03-3.12-7.05-3.84-2.93-6.32,2.54-6.34,5.72-3.14-.4-2.42-4.99-1.47-7.47-2.43-3.67,2.53-5.78,.97-9.19-1.19-4.28-3.9-.3-5.66,.75-3.61,3.1-5.39-1.08-8.73-1.69-5.24,2.02,1.21-3.35,3.17-3.73,3.5-.58,6.67-4.42,6.73-7.6,.89-2.88,2.82-8.52-2.54-8.56-3.46,2.73-5.53,2.33-4.71-.84-3.03-1.31-3.53-3.82-4.75-6.58,2.14-4.72-6.91-5.4-3.37-8.04,4.97-.15,11.08-1.98,15.37,.23,2.08,2.53,1.38,5.82,.91,9.05,.91,2.37,1.81,5.25,4.58,4.56,2.42,.56,4,2.96,7.53,2.83,1.05,4.33,6.46,4.24,9.78,2.94,4.4-1.14,2.15-5.88,3.24-9.2-1.58-3.37-3.67-7.55-5.58-10.01,.56-4.32-2.78-5.3-4.78-7.64-2.64-1.48-5.33-2.81-6.67-5.73-1.99-2.4-1.66-6.32-5.25-6.62-3.99,.99-5.26-4.6-8.58-6.19,3.69,.72,4.42-6.06,7.49-4.25,4.7,.75,8.68-4.22,1.46-4.2-4.64,.39-4.65-3.09-2.9-6.66-.93-2.71,3.35-4.39,.46-7.43-3.69-.83-3.68-9.76,1.35-8.83,1.81-2.55-4.07-.27-5.37-2.17,.82-2.2-4.18-4.77,.37-5.12,2.61-1.3,2.31-4.96,2.49-6.81-.69-3.08-1.98-1.9-3.59,.35-2.33,.86-3.64-2.94-6.7-3.28-2.9,2.54-5.09,.15-6.67-2.02-2.44-1.33-3.52-3.98-5.85-5.23-1.75-1.01-4.29,5.23-5.26,1.11-1.48-1.24-6.74-3.33-3.23-6.65,2.07-2.22,7.29-3.69,6.92-8.31-1.49-4.27-8.34,.2-9.47-2.94,3.19-.3,4.63-4.19,5.54-6.3,1.05-1.82-1.42-6.57,2.63-5.61,2.5,1.06,7.91,.54,7.22-2.83,2.6-.7,4.08-5.98-1.08-7.15,1.56-1.79,4.26,.99,6.33,.41,4.88-.55,.49-6.22,4.26-7.49,1.05-2.8,5.88-3.91,4.56-6.76,3.66,3.46,5.02-6.52,7.59-2.62-3.66,1.53,.36,6.5-.65,5.8-3.41-.1-6.56,1.63-9.29,3.46,1.79,1.84,5.7,2.73,7.86,3.84,2.36-.13-3.15,5.41,2.71,3.68,2.98,2.35,1.46,3.39,3.12,6.84,2.99,1.38,6.84,3.09,9.12,3.46,.14,1.49-6.2,2.08-2.65,5.91,3.26,1.08,1.75,5.06,4.13,6.59,.32,1.98,4.51,2.69,6.5,1.3,2.74-.19,2.17,5.25,5.83,4.42,1.03-2.81,6.07-4.11,4.17-6.85-.18-5.1,3.66,2.04,5.86,3.19,3.94,.12,7.54-.98,11.2,1.77,3.34-1.91,5.56,.92,8.89,1.88,3.69-3.63-1.77,4.73,3,3.98,2.73,1.73,5.52,.95,7.3,4.11,3.62,1.2,3.87,4.18,5.35,7.3-2.85,1.21-1.42,6.25-4.46,6.7-.67,3.24,4.99,2.63,3.35,6.59-2.55,.04-5.21-.07-7.55,2.02-3.49,1.38-3.92,4.21-4.43,7.57-2.97,1.28-4.65,3.91-6.03,6.94,.52,3.9-4.74,2.67-5.65,6.36,.59,2.49,3.07,2.34-.61,5.36-1.47,3.24,1.96,4.68,1.14,7.5,.89,3.42,3.54,1.57,4.23,5.33,3.79,1.85,5.48,1.25,4.48,6.17,1.68,1.4,8.54-1.46,4.49,2.75-4.21,1.76,1.49,6.18-3.08,6.33-1.63,2.96-5.03,4.18-7.88,4.78-1.76,2.21-1.68,5.8-.37,8.01-1.6,3.2,4.02,4.79,5.04,6.46-2.82-.06-6.07-1.04-8.41-2.32-3.36-1.42-5.46,1.34-4.36,4.33-2.93-.43-4.89,2.46-4.73,5.05,1.73,.79,3.77,7.36,.57,5.09-4.74-2.59-5.89,4.83-1.76,6.07,1.9,2.98,1.5,6.76,5.58,8.25,3.92-.24,5.27,4.82,9.48,2.22,3.25,.95-1.52,4.49-2.64,5.91-1.92,2.47-2.5,2.31-5.39,.95-2.7-2.68-5.48,1.82-4.45,4.06-.36,4.2-4.36-1.61-2.86-4.58-1.34-3.36-3.97-6.99-7.2-3.4-3.88,1.38,.84,6.19-2.9,8.1-.68,1.39-1.34,2.98-2.55,3.77h0Zm-6.2,0c.99,3.02-2.69,4.63-1.2,1.09,.39-.25,.8-2.38,1.2-1.09Z"/>
        </g>
        <g id="Mayotte">
            <path id="path3347-8" class="cls-2"
                  d="M13.68,20.43c-.57,2.71-5.18,3.41-4.4,5.81,.02,1.98,4.72-.37,5.78,2.45-.19,2.02-3.18,6.4,.05,2.84,3.07,2.35,2.65-2.94,5.22-3.12,4.37-1.68,.18-2.06-1.07-4.02-1.97-.92-2.46-3.01-4.76-3.5-.31-.12-.59-.35-.83-.46h0Zm11.2,19.43c-2.76,.25,3.57,3.89,2.33,2.16-.67-.75-1-2.43-2.33-2.16Zm35.89,1.09c-4.36,2.27,3.6,3.49,2.98,1.45-.53-.79-2.11-.58-2.98-1.45Zm-29.22,1.07c-1.93-.25-4.03,2.37-.81,1.82,.63,0,2.15-1.78,.81-1.82Zm37.25,7.72c-.78,2.09,4.15,.21,0,0Zm77.03,33.37c-1.98,2.7,2.5,.24,0,0Zm-11.21,4.92c-.15,1.96,4,.57,0,0Zm19.53,.48c-2.71,3.52-5.36,7.43-9.1,10.37-2.56,2.25-2.32-3.51-3.78,1.95-4.03-.37-5.22,1.58-.66,3.6,1.97,1.87,7.6,2.86,7.54,7.38,3.84,1.78,.99,7.79,5.69,8.47,4.57,4.85-2.6-7.33,2.92-8.64,7.6,1.43,.47-9.04,5.42-8.1,1.1-3.44-3.57-5.26-2.87-8.93-1.52-1.99-3.39-4.73-5.16-6.11h0Zm-18.17,6c-2.93,4.52,3.26,.99,0,0Zm-9.1,19.42c-3.05,1.58-2.73,6.65-.11,7.5,3.18-.43,4.58-4.49,1.02-7.04l-.37-.32-.54-.14h0Zm9.52,12.19c-.18,2.27,2.23,1.05,0,0h0Zm-10.14,5.39c-2.5,2.13,4.73,2.91,1.36,.98-.74,.08-.74-1.18-1.36-.98Zm5.14,1.39c-.6,2.12,6.1,.82,2.5,.16-.88,.06-1.37-1.33-2.5-.16Zm-6.99,31.3c-2.45,3.06,3.02,6.29,2.28,1.47-.09-1.02-1.13-2.02-2.28-1.47Zm-48.12,12.3c-2.21,1.5-1.56,4.76,.95,2.16,1.38-.52-.17-1.7-.95-2.16Zm30.4,8.19c-.64,2.62,5.5,2.4,2,.41-.73-.11-.94-1.27-2-.41Zm-25.58,38.08c-2.49-.01-5.45,1.55-5.96-2.02-.81-4.89-4.64-1.7-6.8-.17-3.13-1.18,.95-7.03-3.12-7.05-3.84-2.93-6.32,2.54-6.34,5.72-3.14-.4-2.42-4.99-1.47-7.47-2.43-3.67,2.53-5.78,.97-9.19-1.19-4.28-3.9-.3-5.66,.75-3.61,3.1-5.39-1.08-8.73-1.69-5.24,2.02,1.21-3.35,3.17-3.73,3.5-.58,6.67-4.42,6.73-7.6,.89-2.88,2.82-8.52-2.54-8.56-3.46,2.73-5.53,2.33-4.71-.84-3.03-1.31-3.53-3.82-4.75-6.58,2.14-4.72-6.91-5.4-3.37-8.04,4.97-.15,11.08-1.98,15.37,.23,2.08,2.53,1.38,5.82,.91,9.05,.91,2.37,1.81,5.25,4.58,4.56,2.42,.56,4,2.96,7.53,2.83,1.05,4.33,6.46,4.24,9.78,2.94,4.4-1.14,2.15-5.88,3.24-9.2-1.58-3.37-3.67-7.55-5.58-10.01,.56-4.32-2.78-5.3-4.78-7.64-2.64-1.48-5.33-2.81-6.67-5.73-1.99-2.4-1.66-6.32-5.25-6.62-3.99,.99-5.26-4.6-8.58-6.19,3.69,.72,4.42-6.06,7.49-4.25,4.7,.75,8.68-4.22,1.46-4.2-4.64,.39-4.65-3.09-2.9-6.66-.93-2.71,3.35-4.39,.46-7.43-3.69-.83-3.68-9.76,1.35-8.83,1.81-2.55-4.07-.27-5.37-2.17,.82-2.2-4.18-4.77,.37-5.12,2.61-1.3,2.31-4.96,2.49-6.81-.69-3.08-1.98-1.9-3.59,.35-2.33,.86-3.64-2.94-6.7-3.28-2.9,2.54-5.09,.15-6.67-2.02-2.44-1.33-3.52-3.98-5.85-5.23-1.75-1.01-4.29,5.23-5.26,1.11-1.48-1.24-6.74-3.33-3.23-6.65,2.07-2.22,7.29-3.69,6.92-8.31-1.49-4.27-8.34,.2-9.47-2.94,3.19-.3,4.63-4.19,5.54-6.3,1.05-1.82-1.42-6.57,2.63-5.61,2.5,1.06,7.91,.54,7.22-2.83,2.6-.7,4.08-5.98-1.08-7.15,1.56-1.79,4.26,.99,6.33,.41,4.88-.55,.49-6.22,4.26-7.49,1.05-2.8,5.88-3.91,4.56-6.76,3.66,3.46,5.02-6.52,7.59-2.62-3.66,1.53,.36,6.5-.65,5.8-3.41-.1-6.56,1.63-9.29,3.46,1.79,1.84,5.7,2.73,7.86,3.84,2.36-.13-3.15,5.41,2.71,3.68,2.98,2.35,1.46,3.39,3.12,6.84,2.99,1.38,6.84,3.09,9.12,3.46,.14,1.49-6.2,2.08-2.65,5.91,3.26,1.08,1.75,5.06,4.13,6.59,.32,1.98,4.51,2.69,6.5,1.3,2.74-.19,2.17,5.25,5.83,4.42,1.03-2.81,6.07-4.11,4.17-6.85-.18-5.1,3.66,2.04,5.86,3.19,3.94,.12,7.54-.98,11.2,1.77,3.34-1.91,5.56,.92,8.89,1.88,3.69-3.63-1.77,4.73,3,3.98,2.73,1.73,5.52,.95,7.3,4.11,3.62,1.2,3.87,4.18,5.35,7.3-2.85,1.21-1.42,6.25-4.46,6.7-.67,3.24,4.99,2.63,3.35,6.59-2.55,.04-5.21-.07-7.55,2.02-3.49,1.38-3.92,4.21-4.43,7.57-2.97,1.28-4.65,3.91-6.03,6.94,.52,3.9-4.74,2.67-5.65,6.36,.59,2.49,3.07,2.34-.61,5.36-1.47,3.24,1.96,4.68,1.14,7.5,.89,3.42,3.54,1.57,4.23,5.33,3.79,1.85,5.48,1.25,4.48,6.17,1.68,1.4,8.54-1.46,4.49,2.75-4.21,1.76,1.49,6.18-3.08,6.33-1.63,2.96-5.03,4.18-7.88,4.78-1.76,2.21-1.68,5.8-.37,8.01-1.6,3.2,4.02,4.79,5.04,6.46-2.82-.06-6.07-1.04-8.41-2.32-3.36-1.42-5.46,1.34-4.36,4.33-2.93-.43-4.89,2.46-4.73,5.05,1.73,.79,3.77,7.36,.57,5.09-4.74-2.59-5.89,4.83-1.76,6.07,1.9,2.98,1.5,6.76,5.58,8.25,3.92-.24,5.27,4.82,9.48,2.22,3.25,.95-1.52,4.49-2.64,5.91-1.92,2.47-2.5,2.31-5.39,.95-2.7-2.68-5.48,1.82-4.45,4.06-.36,4.2-4.36-1.61-2.86-4.58-1.34-3.36-3.97-6.99-7.2-3.4-3.88,1.38,.84,6.19-2.9,8.1-.68,1.39-1.34,2.98-2.55,3.77h0Zm-6.2,0c.99,3.02-2.69,4.63-1.2,1.09,.39-.25,.8-2.38,1.2-1.09Z"/>
        </g>
    </g>
</svg>