<?xml version="1.0" encoding="UTF-8"?><svg id="Calque_2" xmlns="http://www.w3.org/2000/svg" viewBox="0 0 228.16 274.26"><defs><style>.cls-1{fill:#fff;}.cls-2{fill:rgba(255,255,0,.5);}</style></defs><g id="Encart_Guyane"><g id="Terres_françaises_Guyane"><path id="path5957-7" class="cls-1" d="M39.21,178.89s.08-.01,.17-.08c.22-.2,.25-.64,.61-.64,.26-.2,.84-.12,.78-.61-.09-.5,.37-.65,.74-.75,.21-.23,.45-.5,.6-.78,.24,.02,.13,.46,.46,.53,.35,.05,.83-.02,1.25-.03,.63,.07,.23,.66-.16,.77-.21,.33-.71,.31-.9,.64-.26,.47,.62,.68,.34,.12,.1-.19,.37-.48,.5-.51,.36-.12,.63-.59,.91-.87-.29-.15-.36-.57-.29-.93-.11-.57,.77-.5,.61-1.14,.12-.4-.37-.35-.38-.65,.18-.25,.57-.4,.23-.78-.16-.47,.5-.68,.43-1.09,.1-.31,.47-.57,.33-.92-.34-.22-.16-.53,0-.76-.26-.39,.11-.15,.34-.19,.19-.17,.25-.49,.41-.76,.13-.55,.74-.68,1.18-.89,.48-.31,.59-.93,.96-1.33,.12-.31,.59-.36,.66-.7,.22-.35-.33-.58-.21-.11-.51,.03,.14-.34,.03-.58,.22-.21,.11-.49,.01-.75-.08-.3-.47-.49-.36-.84,.02-.3,0-.62-.01-.93-.03-.34,.03-.69,0-1.03-.02-.37,.09-.74,.24-1.07,.11-.23,.37-.48,.32-.76-.18-.2-.43-.28-.6-.58-.14-.31,.54-.39,.28-.75,.13-.38-.14-.81,.04-1.22,.29-.09,.21-.36,.42-.53,.13-.36,.74-.14,.79-.56,.23-.37,.09-.77,.22-1.11-.06-.35,.4-.57,.16-.94-.02-.44-.41-.21-.64-.4-.26-.25,0-.64-.24-.89-.17-.28-.28-.61-.46-.89-.22-.16-.25-.45-.53-.54-.33-.27-.69-.05-1.02,.08-.3,.13-.48,.43-.3,.76-.2,.39-.59,.17-.95,.13-.27,.11-.93,.08-.69-.38,.17-.27,.23-.66,.03-.93-.15-.28-.43-.45-.69-.57-.26-.15-.5-.36-.77-.49-.29-.09-.55-.23-.55-.58-.09-.31-.56-.49-.36-.88,.39-.06,.25-.63,.47-.93,.11-.26,.1-.6-.06-.83-.14-.28-.29-.53-.58-.68-.2-.15-.44-.3-.54-.54-.08-.29-.17-.59-.23-.9-.03-.38-.32-.61-.52-.93-.2-.22-.42-.44-.41-.76-.02-.29-.15-.6-.32-.87,.04-.4-.34-.53-.56-.79-.19-.3-.56-.22-.82-.36-.28-.1-.59-.27-.89-.21-.32,.05-.64-.19-.98-.1-.27,0-.47,.23-.75,.25-.3,.04-.69,.19-.94-.04-.29-.09-.51-.33-.57-.6,0-.27-.08-.62,.27-.71,.02-.32,.24-.56,.37-.87,.12-.29,.06-.62-.17-.84-.19-.22-.51-.38-.82-.31-.27-.14-.51-.37-.72-.59-.3-.13-.68,.1-.99-.11-.22-.18-.41-.44-.33-.72-.14-.35-.67-.06-.71-.55-.1-.32-.34-.48-.31-.81,.12-.31,.05-.65-.25-.69-.33-.08-.15-.24-.34-.35-.11-.22-.13-.39-.47-.33-.32,.11-.52-.46-.76-.03-.39,.27-.14-.27-.1-.46,.29,.05,.11-.52-.01-.32,.06,.47-.18-.13-.33-.11-.07-.29-.46-.29-.56-.58-.13-.22-.02-.45-.17-.65-.22-.06-.2-.45-.27-.74-.04-.32,.19-.7,.28-.94,.07-.27-.05-.55,.09-.76-.15-.33,0-.66,.04-.94,.16-.28-.26-.41-.3-.71-.31-.15-.08,.03,.02,.18,.24,.31,.29,.49,.09,.88,.13,.39-.23,.17-.28-.05,.02-.32-.23-.51-.38-.66-.17-.18-.21-.37-.42-.52,.13-.28-.11-.34-.27-.57-.22-.17-.7,.04-.63-.43,.23-.65-.62-.8-1.03-.98,0-.12-.15-.44-.36-.45-.15-.03-.28-.34-.48-.19,0,.37-.14,.1-.29,0-.18-.19,.02-.46,.11-.65,.04-.23,.02-.42,.19-.62,.2-.22-.28-.57,.14-.59,.29-.11,.16-.37,.37-.51,.21-.18,.03-.58,.06-.8-.05-.21,.05-.46,.24-.61,.11-.32-.04-.52-.3-.61-.04-.38,.38,.09,.35-.3,.1-.28,.59-.21,.55-.45-.14-.35,.21-.47,.36-.68,.34-.13,.13-.46,.21-.69,.03-.3-.09-.61-.36-.77-.19-.17-.44-.01-.63-.21-.12-.17-.26-.46-.06-.64-.25-.19-.08-.63-.43-.62-.12-.32-.41-.11-.59-.35-.25-.05-.47,.2-.66,.34-.28,.06-.57-.32-.91-.22-.25,.02-.53,.07-.74-.12-.05-.22-.18-.47-.29-.65-.14-.27-.32-.56-.31-.86-.09-.26,.14-.53,.12-.79,.18-.16,.09-.45,.36-.48,.1,.19,.16-.06,.32-.13,.12-.24,.28-.48,.23-.74-.04-.27-.27-.44-.42-.66-.03-.21-.02-.4,.03-.6,.08-.26,.29-.52,.25-.78,.04-.27,0-.6-.26-.76-.11-.19-.27-.33-.36-.55-.05-.32-.06-.62-.09-.94,0-.25-.19-.51-.03-.76,.08-.27,.08-.57,.21-.83,.11-.31-.08-.64-.04-.96,.11-.25,.16-.49,.2-.75,.19-.26,.09-.59-.12-.79-.04-.25-.2-.46-.37-.65-.21-.2-.46-.38-.77-.27-.26,.01-.29-.23-.42-.35-.2-.14-.5,.01-.49-.28,.02-.14,.35-.14,.28-.33,.07-.22-.34-.46-.03-.62,.11-.19,.28-.35,.47-.46,.3,.12,.34-.54,.07-.6-.08-.11-.38-.48-.4-.32-.2,.15-.09-.35-.38-.32-.13-.09-.3-.32-.49-.14-.24,.19-.3,.03-.3-.19-.21-.11-.29-.41-.38-.58,.29-.17-.16-.4,.11-.65,.24-.17,.25-.48,.08-.7,.2-.24,.09-.5,.16-.76,.04-.19,0-.37-.07-.58,.03-.27-.17-.47-.27-.62,.3-.19-.09-.31,.03-.54-.14-.28-.1-.61-.18-.92-.12-.2-.36-.41-.32-.66-.04-.23-.36-.31-.3-.62,.07-.23,.24-.41,.27-.6,.02-.23,.35-.32,.19-.05-.15,.41,.04-.02,.16-.06,.1-.12,.35-.16,.31-.35-.08-.27,.65-.03,.3,.05-.36-.15-.17,.12,.04,.13,.09-.36,.44-.03,.56-.19,.04-.21,.46-.18,.44-.41-.01-.17-.06-.43,.19-.58,0-.3,.35-.35,.35-.68,.23-.1,.18-.39,.33-.61,.28-.16,.22-.49,.19-.76-.02-.29-.07-.63-.17-.84-.3-.08-.04-.51-.22-.71-.09-.2-.08-.4-.21-.61-.13-.19-.24-.46-.52-.43-.23,0-.19-.34-.4-.45-.22-.09-.17-.37-.2-.54,.13-.12,.26-.32,.21-.51,.24,.15,.08-.03,.22-.11,.2-.08,.44-.18,.61-.33,.19-.22,0-.36-.15-.5-.1-.21,.45-.27,.11-.46-.22,.1-.39-.06-.61,.08-.33,.06-.27-.34-.13-.46-.16-.17-.52-.14-.38-.42,.01-.28,.14-.57,.12-.87-.04-.28,.29-.42,.4-.65,.27-.34,.25-.78,.25-1.2-.05-.31-.35-.44-.53-.65-.17-.13-.4-.2-.6-.28-.27-.13-.63-.08-.88-.22-.16-.22-.42-.13-.6,.01-.28,.27-.41-.05-.49-.28-.25-.21,.03-.6-.23-.83,.07-.32-.08-.68,.18-.93,.11-.33-.13-.71,.1-1.01,.07-.29,.02-.59-.19-.81-.16-.34-.05-.68,.04-1-.23,.03-.5-.23-.56-.46,.08-.27,.29-.33,.31-.62,.08-.34,0-.71,0-1.06-.12-.33,.03-.69-.04-1.03-.1-.25,.06-.5,.13-.71,.13-.27-.07-.48-.04-.76,.13-.3-.15-.46-.23-.69-.11-.27,.06-.56-.05-.81-.09-.26-.51-.17-.44-.5-.12-.3,.18-.45,.32-.66,.12-.25,.31-.42,.58-.46,.25,0,.42,.25,.57-.05,.02-.3,.39-.36,.4-.64,0-.27,.21-.59,.34-.76,.13-.17-.01-.42,.14-.57,.21-.17,.28-.47,.24-.76,0-.28-.01-.58,.06-.88-.04-.28-.01-.59-.3-.69,.03-.28,.31-.53,.3-.86,.07-.31-.05-.64-.07-.94,0-.25-.04-.49-.01-.74,.08-.19,.18-.33,.31-.49,.16-.12,.34-.25,.4-.44,.09-.21,.29-.39,.32-.64,.06-.18,.21-.33,.2-.53,.07-.2,.2-.39,.13-.6,.15-.16,.02-.41,.2-.56,.1-.18,.3-.33,.41-.56,0-.35-.3,.13-.43,.21-.02-.15-.07-.28-.14-.38-.05-.23,.06-.5,.24-.66,.09-.1,.32-.35,.45-.19-.2,.28,.22,.35,.31,.05,.19-.13,.43-.24,.65-.33,.14-.21,.39-.28,.61-.43,.2-.07,.32-.27,.49-.37,.16-.15,.29-.32,.46-.43-.1-.25,.25-.32,.19-.54-.12-.24,.09-.49,.06-.72-.06-.06,.04-.38,.2-.29,.19-.09,.33-.18,.53-.29,.17-.13,.36-.23,.54-.34,.25-.18,.13-.5,.13-.75-.09-.27,.06-.47,.26-.62,.14-.18,.42-.25,.49-.49,.17-.22,.29-.46,.39-.72,.09-.23,.17-.48,.29-.69,.08-.26,.34-.36,.45-.59,.11-.21,.39-.37,.4-.63,.07-.22,.16-.4,.24-.62,.06-.22,.14-.43,.29-.59,.13-.11,.19-.28,.35-.36,.15-.15,.31-.27,.48-.44,.17-.09,.25-.31,.38-.48,.16-.22,.32-.42,.45-.65,.06-.24,.26-.4,.38-.6,.17-.15,.45-.17,.59-.36,.21-.1,.27-.3,.41-.46,.21-.15,.43-.28,.69-.34,.23-.1,.54-.12,.85-.07,.3-.1,.65-.05,.88-.27,.24-.06,.35-.22,.49-.38,.24-.07,.28-.34,.44-.47,.11-.21,.31-.28,.54-.37,.27-.05,.29-.36,.55-.4,.23-.03,.48-.11,.58-.33,.12-.26,.07-.54,.3-.75,.09-.17,.19-.37,.32-.53,.07-.22,.16-.49,.37-.62,.18-.11,.37-.16,.57-.23,.25-.13,.53-.18,.74-.36,.16-.14,.31-.25,.49-.38,.18-.19,.39-.39,.55-.61,.14-.17,.28-.36,.38-.56,.12-.2,.24-.35,.33-.57,.05-.29,.26-.43,.46-.6,.22-.19,.63-.07,.86-.19,.22-.05,.34-.24,.53-.37,.16-.14,.33-.32,.47-.49,.22-.09,.39-.28,.58-.41,.16-.14,.17-.35,.31-.52,.15-.25,.38-.36,.66-.37,.26-.01,.49-.15,.73-.25,.12-.11,.28-.27,.23-.46,.03-.25,.13-.48,.13-.74,.05-.21-.08-.42-.17-.57-.06-.3-.3-.56-.6-.6-.47-.08,.02-.46,.28-.36,.21-.03,.39-.02,.55-.2,.22-.12,.2-.4,.31-.57,.03-.21,.15-.36,.24-.55,.22-.13,.35-.37,.5-.58,.13-.21,.14-.46,.17-.69,.05-.16,.27-.09,.4-.2,.23,.01,.44-.02,.64-.14,.22-.12,.35-.31,.51-.49,.17-.18,.24-.44,.29-.66,.04-.24,.08-.35,.13-.59,.02-.27,.05-.52,.02-.78,.03-.3,.03-.61,.1-.91,.04-.22,.18-.4,.25-.61,.16-.28,.13-.6,.11-.91-.1-.21-.21-.42-.26-.64,0-.34-.04-.66,0-1.01-.11-.28,.33-.5,.2-.68-.14-.21-.29-.54-.1-.77-.01-.27,.2-.44,.2-.71,.07-.24,0-.52,.02-.78-.03-.31,.11-.57,.2-.86,.1-.24,.22-.49,.36-.72,.07-.25,.18-.42,.41-.55,.19-.11,.43-.19,.56-.39,.17-.22,.51-.03,.72,.01,.17,.07,.2,.32,.36,.41,.06,.13,.21,.39,.41,.45,.21,.2,.74-.12,.76,.32-.03,.21,.03,.41-.06,.6,0,.21-.19,.39-.28,.53-.05,.2,.08,.49,.34,.48,.14-.11,.57-.42,.58-.1-.04,.36,.3,.56,.62,.46,.19-.13,.4-.22,.56-.42-.21-.02-.37,.19-.5,.27-.16,.15-.49,.13-.63-.08,.17-.29-.2-.55-.42-.31-.19,.3-.65-.03-.46-.27,.17-.17,.28-.36,.31-.6,0-.26,.07-.51-.04-.76-.12-.24-.48-.09-.66-.17-.22-.02-.32-.28-.46-.43-.14-.14-.23-.35-.33-.49-.22-.07-.47-.17-.65-.27-.2-.3,.05-.62,.14-.91,.12-.18,.09-.4,.22-.58,.02-.25,.31-.35,.45-.49,.24-.15,.38-.42,.39-.7,.16-.2,.15-.47,.18-.72,.12-.21,.33-.28,.55-.3,.21-.02,.44,.01,.64,.02,.22,.14,.52,.12,.76,.21,.21,.06,.41,.12,.62,.19,.24,.13,.45,.22,.7,.34,.2,.04,.42,.2,.65,.19,.42,0,.82,.07,1.24,.06,.39,.04,.82,0,1.23,0,.26,.01,.54,.08,.77,.21,.2,.1,.42,.19,.63,.31,.27,.15,.55,.21,.84,.33,.26,.09,.53,.17,.77,.33,.19,.14,.41,.24,.6,.4,.17,.12,.37,.24,.56,.34,.22,.09,.44,.23,.64,.37,.14,.12,.28,.26,.42,.37,.12,.22,.22,.45,.25,.71,.03,.4,.07,.82,0,1.24-.01,.27,.03,.51,.17,.75-.11,.22-.2,.64,.24,.47,.1-.27,.43-.14,.44,.11,.03,.25-.22,.35-.31,.54-.17,.23,.1,.37,.14,.57-.04,.32-.47,.14-.57,.4,0,.37,.45,.38,.72,.3,.22-.05,.58,.07,.7-.16,.19-.22,0-.5,.01-.73-.02-.19,.33-.44,.5-.27-.08,.24-.19,.67,.14,.74,.21,.13,.41-.03,.61,0,.27,0,.48,.27,.73,.31,.18,.1,.51,.05,.47,.36,0,.25-.26,.34-.41,.49-.24,.2-.11,.63,.22,.62,.3,.09,.1,.42,.02,.58-.08,.27-.15,.66,.19,.77,.29,.05,.61-.05,.9,.1,.26,.04,.27,.31,.39,.48,.04,.28-.16,.52-.24,.78-.1,.4,.16,.15,.15-.1,.08-.28,.39-.62,.1-.89-.09-.23-.32-.38-.56-.43-.27-.09-.59,0-.84-.16-.29-.26,.22-.57,.15-.88-.02-.3-.34-.3-.5-.48-.07-.34,.32-.41,.47-.59,.16-.14,.03-.44-.12-.57-.22-.15-.5-.14-.69-.36-.24-.19-.55-.14-.84-.1-.37,.07-.31-.42-.26-.64-.03-.22-.29-.26-.44-.12-.31,.03-.31,.4-.19,.62-.02,.33-.2,.69-.57,.51-.22-.01-.47,.12-.66-.04-.25-.27,.13-.19,.29-.27,.3-.17,.13-.47,0-.68,.06-.22,.37-.32,.38-.59,.08-.28-.21-.46-.46-.45-.4,.18-.17-.2-.25-.43-.15-.29,.1-.58,.01-.87,.05-.23-.07-.44-.02-.68,.07-.3-.02-.62-.15-.89-.13-.18-.2-.37-.39-.5-.18-.21-.43-.3-.6-.52-.16-.16-.38-.27-.55-.42-.18-.09-.37-.18-.51-.32-.23-.12-.48-.22-.68-.36-.27-.05-.48-.22-.73-.3-.21-.08-.39-.18-.6-.26-.07-.07-.49-.27-.22-.19,.25,.14,.54,.04,.76,.21,.27-.11,.51,.08,.73,.08,.25,.08,.5,.13,.76,.21,.27,.04,.5,.16,.73,.28,.17,.08,.35,.17,.53,.26,.28,.12,.5,.33,.79,.44,.2,.16,.42,.39,.69,.42,.24,.09,.41,.26,.64,.36,.15,.17,.35,.25,.54,.39,.26,.1,.46,.26,.7,.37,.2,.16,.48,.25,.65,.4,.15,.15,.37,.24,.54,.37,.17,.15,.42,.15,.6,.3,.15,.16,.37,.16,.51,.3,.28,.06,.5,.26,.74,.4,.25,.11,.48,.29,.69,.44,.21,.08,.41,.18,.6,.25,.24,.08,.43,.12,.65,.23,.26,.17,.55,.13,.84,.23,.24,.14,.42,.3,.69,.33,.26-.01,.49,.16,.75,.25,.17,.08,.35,.11,.53,.25,.18,.11,.36,.23,.58,.29,.22,.07,.37,.21,.58,.29,.25,.1,.52,.24,.79,.29,.26,.02,.54,.14,.79,.26,.22,.11,.44,.18,.68,.24,.18,.13,.42,.19,.55,.37,.18,.17,.37,.3,.64,.31,.13,.17,.36,.34,.57,.4,.19,.14,.33,.33,.57,.31,.05,.21,.18,.17,.3,.23,.17,.15,.37,.25,.59,.34,.19,.17,.4,.26,.63,.37,.25,.08,.43,.22,.66,.3,.3,.03,.58,.16,.86,.28,.31,.1,.65,.15,.91,.33,.17,.07,.35,.17,.53,.19,.19,.18,.46,.18,.7,.25,.34-.03,.63,.08,.97,.06,.29-.07,.6-.05,.9,0,.37-.04,.69-.1,1.05-.12,.31-.02,.58,.02,.85-.11,.28,.07,.56,.04,.82,.17,.28,.08,.61,.25,.89,.22,.26,.07,.59,.13,.81,.26,.13,.12,.39,.11,.56,.21,.25,.08,.58,.1,.79,.14,.24,.05,.5,.01,.7,.16,.2,.05,.39,.03,.57,.17,.23,.1,.47,.21,.71,.3,.17,.07,.36,.09,.52,.13,.33-.03,.58,.19,.87,.05,.33-.06,.62-.2,.95-.26,.22-.06,.49-.22,.73-.08,.2,.15,.44,.23,.66,.4,.17,.14,.27,.32,.41,.51,.14,.18,.26,.36,.43,.52,.13,.14,.28,.31,.34,.5,.02-.18,.16-.34,.4-.4,.22-.11,.47,0,.66,.12,.15,.09,.22,.24,.35,.32,.08,.17,.28,.21,.41,.33,.2,.14,.41,.23,.66,.28,.11-.02,.55-.04,.31-.15-.2,.02-.42,.07-.61-.04-.2-.13-.43-.25-.59-.45-.22-.14-.39-.36-.65-.45-.25-.16-.58-.08-.84-.05-.31,.06-.38-.27-.47-.47-.12-.23-.28-.45-.48-.62-.13-.17-.36-.21-.49-.36-.2-.14-.41-.26-.63-.32-.27-.06-.54-.18-.7-.37,.07-.3,.33-.41,.53-.5,.2,.01,.36-.12,.51-.24,.17-.04,.47,.17,.48-.07,.12,.22,.42,.11,.57,.28,.24,.21,.59,.22,.87,.38,.24,.1,.41,.3,.66,.36,.2,.14,.47,.13,.68,.26,.31,.25,.71,.34,1.03,.57,.29,.01,.46,.2,.75,.23,.21,.01,.45,.2,.65,.27,.25,.19,.52,.2,.81,.28,.23,.09,.55,.09,.64,.32,.17,.2,.4,.06,.55,.16,.22,.13,.47,.22,.7,.22,.12,.2,.28,.1,.45,.28,.24-.1,.37,.33,.62,.19,.14,.14,.36,.21,.4,.49,0,.39,.51,.29,.52,.66,.23,.24,.66,.02,.79,.36,.16,.22,.34,.44,.59,.55,.22,.07,.43,.16,.62,.27,.19,.12,.39,.19,.55,.36,.14,.21,.41,.21,.6,.3,.19,.07,.33,.21,.53,.27,.25,.14,.5,.23,.76,.29,.23-.01,.47-.06,.73-.03,.23-.04,.46-.02,.7-.13,.31,.01,.64-.03,.95,.06,.24,.06,.38,.25,.49,.45,.16,.17,.21,.4,.35,.57,.14,.21,.37,.39,.56,.55,.15,.16,.32,.34,.52,.47,.17,.12,.33,.24,.51,.32,.23,.1,.51,.13,.71,.28,.2,.04,.46,.18,.58,.38,.09,.24,.21,.48,.26,.72,.02,.28,.05,.57-.02,.81-.09,.25-.4,.34-.55,.55-.16,.39,.3,.4,.56,.32,.19,.28-.44,.11-.51,.39-.11,.2-.33,.33-.39,.58-.03,.31,.35,.33,.51,.15,.29-.06,.59,.05,.87,.08,.15,.17,.19,.4,.37,.55,.21,.2-.16,.53-.26,.2-.06-.2-.22-.48-.45-.43-.27,.07-.38,.36-.36,.62,.13,.21,.12,.43,.16,.67,.19,.09,.03-.52-.04-.68-.14-.25,.19-.68,.47-.47,.16,.15,.18,.67,.51,.43,.25-.26-.16-.44-.2-.68-.05-.37-.45-.25-.7-.33-.29-.19-.52,.21-.77,.08-.12-.34,.25-.51,.4-.75,.17-.08,.78-.27,.36-.45-.25,.1-.68-.04-.36-.34,.16-.08,.32-.14,.41-.3,.17-.13,.15-.4,.2-.61,0-.19,.07-.49,0-.72-.04-.17-.16-.31-.22-.47-.16-.04-.29-.34-.49-.36-.16-.13-.35-.21-.54-.32-.23-.08-.45-.13-.59-.23-.2-.09-.37-.21-.48-.37-.03-.26-.27-.44-.27-.7,0-.29,.35-.01,.52-.08,.19,.12,.46,.13,.67,.23,.25,.12,.51,.18,.74,.34,.2,.13,.5,.14,.62,.35,.17,.14,.36,.26,.58,.33,.25,.14,.46,.3,.72,.4,.21,.08,.37,.21,.57,.3,.09,.16,.26,.21,.41,.29,.19,.14,.44,.27,.59,.46,.25-.1,.42,.21,.61,.33,.25,.1,.49,.2,.7,.36,.28,.02,.08,.19,.38,.22,.17,.11,.35,.25,.49,.38,.09,.11,.28,.36,.43,.2,.26,.02,.49,0,.65,.3,0,.22,.29,.37,.42,.48,.02-.16-.27-.37-.02-.55,.25-.35,.39,.16,.71,.19,.23,.18,.46,.35,.55,.62,.25,.09-.27,.54,.11,.27,.26,.04,.38,.27,.61,.35,.2,.15,.36,.33,.47,.56,.19,.13,.42,.37,.21,.61-.11,.22-.35,.26-.55,.16,.16,.21,.54,.23,.68,.29,.23-.21,.48,.07,.6,.19,.25,.02,.54,.08,.73,.26,.16,.23,.43,.24,.62,.42,.05,.2,.34,.18,.27,.44,.06,.43,.09-.19,.09-.35,.33-.14,.58,.19,.63,.44,.17,.16,.32,.36,.29,.58,.24-.06,.42,.14,.49,.4,.24,.17,.15,.51,.28,.75,.06,.14,.29,.55,.42,.29,.19,.03,.25,.41,.52,.43,.16,.18,.13,.51,.28,.68,.04,.22-.05,.44-.02,.64,.17,.13,.26,.42,.49,.38,.24,.01,.48,.12,.61,.34,.14,.21,.21,.49,.38,.68,.14,.29,.51,.25,.67,.51,.12,.18,.34,.29,.52,.39,.18,.09,.26,.3,.47,.38,.22,.2,.51,.23,.71,.43,.25,.04,.41,.2,.58,.38,.16,.19,.48,.17,.63,.42,.2,.24,.57-.19,.68,.23,.09,.19,.04,.42,.15,.59,.1,.21,.23,.37,.39,.53,.18,.16,.32,.38,.51,.54,.13,.2,.32,.42,.51,.59,.2,.28,.57,.11,.75,.41,.19,.39-.33-.1-.41,.21-.11,.21-.32,.34-.47,.53-.16,.18-.35,.1-.54,.1-.24-.03-.45-.09-.69-.15-.26-.13-.54-.08-.78-.04-.2,.02-.38,.11-.43,.3-.13,.22-.11,.4-.24,.62-.09,.23-.23,.4-.34,.6-.07,.21,.09,.55,.34,.48,.18-.09,.54-.22,.59,.07-.06,.23-.1,.43-.2,.65,0,.18-.38,.52-.22,.55,.23-.2,.32-.44,.38-.68,.03-.2,.21-.43,.06-.62-.15-.25-.55-.02-.78-.12-.22-.19-.02-.42,.17-.51,.11-.18,.26-.41,.29-.61,.09-.19,.11-.4,.23-.58,.3-.14,.53,.12,.82,.14,.3,.06,.6,.09,.88,.11,.24,.12,.46-.08,.71-.12,.1-.3,.35-.22,.49,.03,.22,.18,.46,.3,.72,.4,.2,.11,.41,.28,.66,.3,.26,.23,.51,.43,.8,.61,.06,.24,.38,.3,.39,.56,.2,.12,.22,.35,.4,.45,.08,.22,.33,.28,.41,.49,.25,.15,.38,.36,.58,.57,.24,.09,.36,.4,.64,.46,.05,.17,.26,.34,.43,.44,.23,.2,.55,.21,.79,.32,.26,.05,.51,.11,.75,.23,.23,.1,.35,.27,.54,.43,0,.25,.25,.36,.38,.53,.15,.26,.48,.28,.73,.38,.15,.14,.32,.26,.47,.39,.14,0,.22,.26,.44,.33,.18,.16,.39,.2,.58,.36,.18-.06,.09-.26,.28-.01,.14,.14,.39,.25,.38,.44-.3,.13,.21,.1,.28,.24,.29,.06,.1,.34,.39,.38,.12,.17,.39,.16,.48,.41-.03,.31,.3,.4,.49,.58,.16,.1,.34,.22,.44,.37,.07,.13,.38,.44,.44,.18,.04,.05,.4,.17,.35,.36-.06,.33,.49,.06,.64,.15,.01,.22-.2,.46,.13,.52,.19,.26,.39-.14,.55,.09,.25,.19,.19,.47,.15,.73,.14,.26,.58,.2,.61,.53,.23-.13,.36,.35,.5,.52,.09,.14,.22,.32,.32,.49,.16,.26,.21,.62,.44,.85,.15,.14,.19,.28,.33,.38,.15,.16,.31,.31,.48,.45,.18,.15,.38,.31,.57,.45,.12,.24,.68,.11,.59,.38-.14,.23-.46,.19-.68,.28-.34,.06-.69,.15-1,.31-.23,.11-.49,.22-.73,.28-.27,.09-.56-.13-.7-.32-.18-.21-.41-.38-.64-.52-.28-.06-.58,0-.82,.17-.18,.09-.28,.33-.35,.54-.06,.32,.05,.7-.18,.99-.2,.07-.43-.09-.58-.2-.26-.14-.56-.19-.86-.13-.26,.12-.53,.01-.79-.02-.3-.11-.63-.06-.92,.06-.15-.2-.45-.45-.67-.17-.1,.15-.48,.19-.23,.31,.19-.04,.43-.35,.57-.2,.12,.21,.37,.25,.59,.19,.31-.03,.61-.01,.89,.11,.22-.11,.39,.39,.35,.02,.25-.18,.59-.06,.85,.06,.16,.19,.49,.2,.73,.21,.25-.08,.43-.24,.46-.5,.08-.25,.08-.52,.15-.79,0-.24,.23-.35,.44-.39,.32-.04,.59,.2,.71,.48,.12,.22,.29,.38,.52,.47,.31,.15,.63,0,.96,.04,.49-.06,.2,.28,.02,.45-.21,.15-.39,.36-.53,.55-.11,.26,.05,.49,.19,.7,.15,.27,.23-.03,.02-.19-.27-.21-.04-.52,.15-.65,.17-.15,.33-.27,.45-.44,.21-.12,.27-.36,.5-.47,.26-.09,.45-.26,.7-.36-.23-.05,.13-.17,.32-.2-.04,.09,.08,.18,.27,.15,.28-.05,.56-.19,.7-.46,.15-.21,.22-.48,.44-.64,.06-.19,.15-.4,.17-.59,.08-.33-.28-.39-.28-.66,.28-.01,.04-.4,.32-.26,.13-.16,.32,0,.5-.09-.07-.32,.19,.14,.3-.12,.13,.16,.37,.02,.5-.17,.25-.14,.38-.25,.67-.17,.36-.24,.23,.33,.47,.46,.21,.09,.46,.41,.68,.21,.15-.21,.28,.05,.37,.18-.2,.24-.03,.48,.21,.64,.27,.11,.44,.26,.67,.44,.13,.16,.28,.34,.46,.44,.15,.14,.52,.23,.36,.49-.26-.15-.37,.06-.38,.31,.08,.16,0,.37,.21,.48,.16,.15,.4,.29,.57,.44,.23,.13,.47,.21,.46,.55,.18,.22,.04,.46-.07,.68-.1,.16-.22,.28-.3,.46-.25,.09-.4,.34-.41,.58-.22,.17-.48,.25-.68,.42-.09-.21-.38-.19-.52-.07-.23-.17-.5-.03-.72,.06-.21,.2-.28,.49-.47,.69-.12,.24-.25,.46-.34,.71-.04,.22-.15,.44-.17,.65,0,.18-.06,.38-.06,.57,0,.24-.09,.51-.12,.75-.1,.23-.16,.49-.27,.71-.07,.22-.2,.38-.28,.6-.08,.24-.17,.48-.21,.72-.15,.27-.33,.5-.53,.75-.18,.17-.27,.34-.36,.58,.06,.23-.04,.15-.13,.35-.08,.29-.45,.18-.6,.4-.24,.22,.02,.73,.33,.75,.24,.11,.35,.47,.24,.71-.14,.17-.22,.38-.32,.55,.11,.2,.24-.33,.34-.41,.18-.24,.06-.55-.08-.78-.12-.18-.37-.24-.47-.45,.02-.28,.47-.26,.66-.41,.21-.17,.38-.41,.36-.66,.11-.22,.25-.45,.46-.59,.22-.2,.4-.45,.49-.74,.12-.2,.11-.46,.17-.68,.03-.16,.17-.27,.24-.44,.15-.2,.21-.39,.31-.57,.08-.27,.12-.55,.22-.81,.07-.32,.05-.65,.11-.95,.03-.23,.13-.43,.2-.66,.1-.2,.23-.4,.32-.62,.1-.13,.15-.32,.29-.4,.19-.12,.26,.31,.51,.32,.22,.19,.55,.12,.81,.19,.25-.01,.55,.07,.75-.13,.19-.1,.43-.15,.6-.33,.18-.19,.39-.32,.6-.47-.01-.24,.3-.3,.48-.2,.26-.03,.55-.07,.84,.04,.28-.05,.45,.14,.63,.3,.35,.06,.42,.32,.59,.58,.16,.24,.42,.33,.39,.66-.09,.28,.15,.32,.35,.48,.05,.16,.48,.42,.4,.08,.04-.3,.18,.29,.35,.29,.26,.12,.59-.31,.62,.06,.24,.14,.49,.27,.71,.46,.04,.3,.25,.49,.2,.8-.03,.17,.13,.35,.26,.48,.13,.23,.44,.15,.61,.33,.17,.16,.28,.39,.28,.65,.18-.07-.1-.43-.09-.59-.06-.25-.31-.39-.4-.6,0-.38,.29,.19,.47,.08,.2,.11,.27,.28,.47,.4,.06,.22,.5,.09,.33,.48-.22,.02,.03,.35,.16,.35-.02-.36,.26-.15,.41-.03,.22,.09,.32,.34,.51,.5-.23-.12-.03,.19,.03,.27,.28-.24,.21,.28,.43,.35,.14,.13,.17,.28,.35,.32-.01-.23-.38-.47-.29-.56,.23-.14,.26,.3,.48,.28,.25,.1,.37,.35,.62,.44,.16,.22,.54,.16,.61,.46,.24-.05,.34,.27,.56,.33,.36-.08,.45,.2,.72,.35,.24,.22,.52,.22,.8,.38,.25,.08,.39,.25,.51,.4,.07-.19,.49-.1,.4,.09,.24,.09-.03,.08,.02,.15,.21,.09,.33,.42,.3,.6-.18-.04-.32-.21-.14,.05,.1,.22,.36,.13,.53,.25,.26,.04,.39,.32,.55,.48,.1-.33,.22,.1,.19,.24,.19,.09,.26,.36,.32,.55,.06,.2,.09,.45,.19,.61,.16,.24,.12,.62,.13,.92-.04,.33,0,.64,.07,.93-.01,.32,.02,.67,.12,.98,.02,.3,.05,.63,.08,.96,.11,.24,.11,.54,.3,.71,.14,.14,.29,.29,.28,.46,.23,.14,.39,.39,.53,.61,.04,.23,.18,.43,.36,.56,.04,.24,.2,.41,.28,.64,.18,.23,.21,.55,.32,.83-.03,.3,.08,.59,.08,.91,0,.3,.16,.57,.28,.83,.1,.26,.19,.54,.24,.82,.04,.24,.08,.56,.13,.74,0,.21,.04,.42-.01,.65-.04,.3-.13,.6-.15,.91-.11,.33,0,.67,.08,1,.05,.41,.25,.79,.27,1.2,.07,.27,.11,.54,.15,.82,.08,.29,.09,.58,.11,.87,.03,.43,.1,.85,.04,1.29-.04,.29-.11,.59-.2,.85-.09,.24-.22,.48-.35,.72-.12,.18-.23,.35-.36,.54-.12,.21-.3,.4-.47,.56-.14,.23-.38,.32-.57,.47-.2,.1-.35,.23-.56,.3-.27,.16-.56,.3-.84,.43-.24,.12-.45,.17-.7,.3-.2,.12-.4,.23-.59,.39-.19,.15-.26,.38-.43,.51-.16,.16-.34,.34-.55,.44-.11,.14-.37,.16-.44,.38-.15,.24-.46,.31-.72,.24-.28,0-.57,.01-.83,.02-.24,.08-.47,.12-.73,.15-.26-.01-.59,.23-.79,0-.24-.18-.55-.05-.81-.18-.2-.08-.47-.11-.59-.29-.22-.2-.49-.21-.75-.07-.2,.12-.39,.26-.53,.46-.1,.17-.3,.27-.4,.46-.15,.27-.08,.62-.24,.87-.2,.17-.24,.45-.27,.7-.17,.27-.1,.54-.17,.85-.03,.21-.17,.39-.34,.53-.2,.18-.48,.13-.73,.2-.27,.02-.55-.02-.81,.04-.21,.19-.52,.22-.62-.09-.28-.09-.41,.25-.68,.25-.25,.17-.57,.2-.87,.25-.28,.08-.5,.1-.75,.26-.16,.16-.27,.32-.33,.55-.13,.2-.25,.43-.42,.6-.12,.21,.11,.56-.08,.77-.13,.14-.34,.27-.51,.26-.22-.01-.37-.18-.59-.22-.26-.14-.48,.14-.73,.17-.22,.28,.2,.02,.31,.13,.26,.27,.49-.21,.72-.03,.26,.16,.57,.03,.8-.11,.28-.17,.13-.6,.2-.87,.11-.2,.29-.34,.38-.54,.14-.19,.17-.53,.43-.62,.25-.13,.52-.2,.8-.22,.35,.01,.61-.33,.96-.28,.27,0,.53,.02,.79,.06,.19-.14,.37-.3,.66-.19,.32,.02,.65,.05,.94-.08,.18-.08,.33-.22,.44-.39,.14-.17,.22-.38,.24-.61,.04-.26,.06-.49,.18-.73,.07-.26,.3-.44,.31-.71,.07-.25,.13-.52,.31-.7,.11-.14,.23-.33,.33-.49,.18-.13,.33-.35,.55-.44,.23,.02,.38,.22,.5,.37,.14,.18,.35,.29,.55,.38,.15,.14,.36,.24,.56,.3,.28,.09,.64,.06,.81-.2,.31-.11,.62,.02,.94,.02,.35-.04,.69,.08,1.02-.06,.25-.07,.44-.24,.68-.36,.21-.13,.42-.33,.62-.51,.18-.16,.38-.35,.63-.43,.3-.1,.62-.1,.92-.21,.26-.06,.53-.16,.77-.29,.3-.19,.65-.34,.86-.65,.21-.16,.43-.3,.7-.4,.16-.17,.41-.22,.58-.4,.19-.11,.3-.32,.51-.38,.17-.24,.35-.49,.44-.78,.05-.24,.31-.3,.4-.52,.14-.12,.21-.37,.41-.43,0-.08,.04-.5,.19-.66,.06-.27,.16-.5,.28-.75,.08-.26,.14-.51,.17-.78,.02-.38,.08-.76,.04-1.15,.04-.45,.02-.94-.05-1.39-.05-.33-.13-.63-.18-.95-.08-.35-.1-.68-.1-1.04-.03-.39,0-.81-.06-1.2-.06-.21,0-.39-.05-.63,.02-.26-.03-.47,.03-.72,.01-.26,.06-.54,.08-.83,.04-.42,.02-.86,.05-1.31-.02-.24-.04-.48,0-.69,.02-.31,.06-.55,0-.87,.02-.34,0-.71,.02-1.07-.03-.44,.05-.87,.08-1.3,.09-.26-.03-.62,.28-.81-.07-.29,.25-.52,.37-.77,.11-.17,.18-.38,.22-.59,0-.25,.05-.55,.35-.6-.15-.06-.08-.28,.12-.37,.22-.02,.68-.19,.76,.08,.32,.09,.63,0,.95,.13,.2,.09,.4,.21,.57,.34,.37-.08,.22,.28,.48,.31,.34-.04,.33,.25,.55,.35,.25,.05,.41,.27,.65,.35,.19,.19,.53,.13,.65,.42,.18,.19,.37,.21,.54,.4,.15,.25,.33,.46,.6,.58,.38,.11-.11,.33,.15,.42,.2,.12,.32,.31,.57,.28,.36,.1,.07,.29,.33,.47,.2,.22,.31,.46,.46,.7,.25,.32,.29,.1,.12-.16,.05-.15,.32,.37,.33,.54,.05,.18,.2,.32,.21,.51,.17,.4-.19-.18-.21,0,0,.28,.32,.4,.34,.58-.08,.34,.46,.25,.38,.61-.05,.23-.12,.49-.15,.71,.14,.2,.15,.46,.28,.66,0,.31,.15,.58,.14,.86-.02,.33,.25,.55,.17,.86,.06,.23,.24,.42,.17,.65,.12,.23,.04,.38,.06,.6-.04,.25,0,.55,.07,.82,.03,.26-.23,.56-.02,.77,.15,.25,.09,.41,.08,.66,.1,.19,.13,.43,.27,.61,.11,.18,.23,.37,.38,.53,.11,.2,.36,.26,.42,.49,.13,.25,.36,.29,.57,.44-.04,.17-.12,.31-.09,.54-.12,.16-.49,.17-.28,.52,.14,.22-.26,.39-.02,.64-.08,.31,.17,.23,.33,.17-.16,.23,.15,.13,.21,.35,.18,.16,.27,.39,.43,.59,.2,.08,.34,.21,.51,.34,.16,.22,.43,.27,.62,.48,.21,.07,.41,.05,.53,.27,.1,.31,.46,.05,.67,.03,.09-.2,.15-.43,.36-.41,.15,.14,.57-.03,.43,.4-.24,.19,.1,.54-.16,.56-.2-.19-.4-.01-.58,.1-.18,.1-.35,.27-.42,.48-.09,.23-.12,.59-.33,.71,.24,.17-.28,.04-.29,.31-.02,.27-.24,.56-.06,.85,.01,.28-.03,.51,.07,.75,.04,.23,.16,.48,.19,.72,.14,.23,.15,.52,.28,.76,.17,.16,.13,.43,.28,.62,.15,.23,.29,.45,.36,.71,.13,.17,.25,.33,.4,.48,.14,.2,.25,.43,.4,.62,.13,.21,.37,.5,.56,.56,.38,.03,.06,.27,.09,.47,.08,.26,.21,.51,.39,.72,.2,.2,.5,.27,.69,.39,.25,.11,.29,.44,.33,.67,.28,.16-.02,.47-.11,.66,.08,.04,.42-.01,.6,.17,.23,.16,.42,.36,.59,.59,.19,.15,.33,.36,.39,.58,.12,.23,.26,.45,.19,.72-.09,.13-.22,.38-.27,.57-.16,.23-.17,.5-.3,.75-.07,.23-.12,.44-.22,.65-.07,.28-.15,.56-.26,.83-.11,.34-.08,.72-.21,1.05-.02,.29-.16,.58-.26,.85-.04,.22-.13,.42-.09,.67-.01,.27-.05,.59-.02,.86,.04,.2-.03,.46-.04,.67-.03,.24-.07,.47-.07,.73-.01,.28-.07,.57-.03,.84,.04,.27,.04,.52,.14,.78,0,.18-.18,.35-.3,.46-.14,.14-.28,.34-.44,.43-.16,.17-.32,.26-.53,.39-.24,.11-.41,.27-.61,.43-.21,.2-.34-.2-.58-.16-.29,.03-.58,.1-.78,.34-.18,.14-.34,.28-.41,.49-.13,.12-.29,.21-.42,.33-.13,.21-.36,.21-.55,.32-.18,.08-.28,.33-.49,.26-.26,.04-.57,.05-.82,.15-.2,.13-.35,.28-.53,.42-.2,.06-.3,.24-.45,.34-.14,.24-.04,.55-.34,.64-.15,.13-.31,.29-.47,.41-.2,.14-.3,.38-.45,.56-.2,.24-.24,.51-.4,.77-.12,.28-.11,.59-.06,.89,.01,.18,0,.38,.09,.61,.08,.2,.02,.43,.06,.63,0,.22,.05,.46-.05,.66-.18,.21-.2,.46-.3,.7-.07,.29-.25,.55-.42,.8-.09,.19-.19,.32-.23,.54-.06,.21-.19,.43-.36,.56-.19,.24-.48,.37-.68,.61-.07,.27-.32,.13-.47,.26-.2,.12-.33,.4-.27,.64,.03,.31-.3,.57-.54,.56-.24-.02-.48,.13-.7,.19-.21,.06-.4,.24-.56,.4-.23,.11-.28,.36-.26,.58-.03,.23-.29,.26-.46,.38-.18,.19-.22,.49-.32,.73-.22,.15-.27,.4-.37,.61-.09,.21-.32,.44-.26,.73-.18,.13-.24-.49-.42-.18-.34-.17-.13,.31-.36,.17-.04,.28-.32,.05-.44,.25-.25-.03-.16-.36-.43-.41-.36-.15-.41,.33-.43,.56,.06,.24,.09,.54-.22,.44-.27-.31-.18,.09-.34,.23-.17,.08-.4,.16-.47,.35-.39,.12-.03,.63-.38,.78-.19,.2,.1,.35,.2,.51,.13,.19,.15,.48,.17,.71-.09,.18,.26,.23,.25,.44-.02,.16-.18,.33-.24,.52,0,.26,.21,.48-.06,.68,.04,.31-.3,.36-.5,.27-.24,.03-.51-.13-.74-.01,.1,.39-.28-.03-.46,0-.1,.23-.2,.01-.4-.03-.08,.24-.21-.03-.33,.19,.06,.2-.16,.37-.32,.17-.22,.14-.19,.27,.13,.19,.33-.07,.22,.39,0,.07-.17,.29-.33-.1-.43,.08,.05,.33-.2,.33-.42,.32-.13-.24-.17,.33-.05,.38-.27,.12-.24,.47-.33,.72,.02,.25,0,.45-.05,.67-.05,.21-.17,.31-.38,.32,.02,.26-.35,.36-.21,.66,.11,.23-.3,.36-.17,.65,.18,.21,.17,.51,.01,.72-.25,.19-.23,.53-.2,.8-.02,.28-.15,.5-.22,.76-.25,.14-.17,.5-.24,.76-.07,.27-.28,.39-.47,.54-.2,.19-.38,.39-.53,.59-.17,.19-.36,.39-.64,.38-.26,.06,.06,.44-.13,.61-.18,.15-.33,.29-.21,.53-.21,.12-.38,.35-.38,.61-.17,.2-.29,.45-.36,.69-.18,.2-.36,.36-.36,.65-.18,.13-.26,.35-.37,.54-.09,.25-.3,.44-.37,.7-.09,.21-.19,.45-.32,.62-.21,.21-.51-.08-.72,.13-.24,.13-.23,.51-.03,.64,.2,.22-.2,.35-.25,.56-.21,.19-.26,.56-.56,.61-.22,.14-.41,.12-.55,.37-.06,.21-.39,.25-.24,.5,.1,.26,.23,.52,.05,.79,.06,.28-.23,.4-.42,.56,.17-.01,.19,.1-.02,.26l-.25,.14s-.03-.03-.14-.03c-.24,.21-.24,.57-.45,.8-.1,.3-.36,.45-.35,.77-.27,.06-.13,.37-.3,.51-.19,.21-.26,.49-.5,.64,.01,.34-.22,.61-.35,.91-.07,.25-.25,.47-.36,.72-.27,.23-.44,.53-.64,.8,.05,.35-.22,.62-.32,.93-.15,.23-.34,.46-.45,.76-.11,.28-.46,.32-.56,.61-.12,.24-.29,.41-.44,.59-.28,.21-.33,.53-.48,.82-.2,.19-.29,.41-.52,.48-.42,.16-.17,.6-.17,.92,.38,.24,0,.42-.18,.61-.15,.2-.45,.23-.52,.48-.42,0-.34,.44-.53,.69-.07,.34-.34,.39-.32,.74-.25,.15-.39,.47-.55,.71-.28,.14-.33,.68-.7,.61-.26-.29-.32,.36-.62,.23-.03-.33-.28-.53-.36-.78-.23-.16-.66-.3-.89-.08-.46,.12,.12,.69-.24,.85,.23-.03,.19,.12-.02,.17-.14,.01-.37-.2-.47,.2-.15,.41-.49-.16-.72,.03-.22,.25-.65-.26-.63,.19,.12,.36-.04,.68-.02,1.04-.08,.38-.29,.69-.54,.97-.55-.2-.45,.53-.36,.85,0,.43,.37,.46,.43,.83,.06,.34-.22,.59-.51,.34-.42-.25-.59,.31-.93,.32-.26,0-.55-.23-.74,.04,.03,.33-.14,.57-.08,.87,0,.25-.2,.55-.46,.7-.27,.31,.23,.43,.19,.61-.24,.35-.45,.19-.75,.11-.17,.26-.45,.61-.23,.94,.18,.28,.53,.23,.8,.18,.28,.13-.18,.51-.26,.69-.26,.25-.15,.68-.07,.98,.06,.29,.34,.32,.48,.54,.3,.07,.44,.37,.66,.55,.23,.24,0,.64-.22,.85-.15,.26-.27,.58-.45,.85-.25,.22-.36,.54-.5,.84-.1,.33-.29,.61-.43,.92-.03,.36-.22,.63-.6,.71-.26,.19-.23,.55-.21,.84-.23,.26-.09,.71-.44,.91-.29,.31,.34,.71-.05,1.05-.09,.27-.25,.55-.39,.83-.18,.3-.32,.66-.5,.98-.23,.18-.71,.01-.7,.43,.42,.13,.23,.66-.06,.85-.24,.3,.08,.46,.32,.59-.06,.39,.23,.51,.57,.42,.22-.3,.46-.21,.24,.15-.17,.21-.33,.42-.52,.6-.2,.29-.28,.78-.76,.59-.25-.09-.6-.47-.79-.07,0,.26-.19,.47-.48,.24-.33,.01-.51,.28-.54,.59-.13,.33-.34,.61-.5,.94-.25,.27-.31,.66-.56,.92-.02,.09-.01,.11,0,.11-.05,.07-.12,.17-.23,.28-.42,.58-.54,1.31-.91,1.93-.35,.73-.74,1.44-1.18,2.12,.01,.44-.32,.73-.4,1.11,.28,.43,.33,1-.23,1.25-.05,.32,.21,.62-.06,.96-.19,.49-.37,1.01-.83,1.31-.39,.45-.48,1.05-.74,1.57-.17,.52-.49,.95-.89,1.32,.12,.63-.49,1.06-.53,1.59,0,.24-.33,.45-.4,.69-.32-.37-1.24-.33-1.27,.23-.2,.39-.38,.79,.07,1.14,.6-.01,.62,1.09,.11,1.14-.19,.52,.78,.29,.91,.77,.43,.45,.57,1.31,.16,1.84-.35,.33-.47,.74-.48,1.16-.34,.12-.67-.71-.91-.05-.24,.41-.65,.82-.2,1.27,.09,.3,.1,.65,.48,.64,.17,.47-.15,1.07-.69,1.19-.57,.35-.98,.93-1.46,1.39-.4,.27-.46,.66-.73,1.08-.13,.64-.87,.02-1.3,.31-.51-.15-.86,.62-.49,.94,.49,.2,.86,.73,.2,.98-.37,0-.7,.11-1,.26-.2-.62-.56,.29-.77,.48-.56,.28,.26,1-.36,1.36-.36,.38-1.03,.89-.52,1.42-.24,.42-.29,1-.53,1.39-.52-.16-.73,.49-1.25,.19-.59,.01-1.04,.44-1.59,.59-.59,.1-.96,.63-.95,1.17-.58,.2-1.12,.43-1.66,.53-.4,.37-.93,.53-1.37,.73-.12,.36-.59,.01-.66,.51-.18,.15-.47-.38-.52,.14-.08,.31-.53,.11-.5,.54-.26,.17-.55,.29-.76,.52-.58-.03-1.07,.51-1.69,.42-.37-.07-.58,.25-.94,.17-.27,.21,.49,.77-.15,.73-.36,.15-.73-.15-1.04,.02-.05,.18,.28,.23,.14,.45,.09,.21,.5,.19,.2,.46-.17,.52-.85,.35-1.24,.49,0,.52-.55,.79-.71,1.16,.23,.02,.64,.2,.17,.32-.3,.16-.99-.21-.65,.37-.06,.47,.09,1.03-.42,1.24,0,.57-.66,.9-.76,1.45,.04,.8-.7-.09-1.14,.06-.48,.38-1.07-.52-1.26,.27,.23,.62-.43,.88-.9,.98-.39,.15-.78-.04-1.18,.23-.51-.17-1.2,.6-1.55-.11-.35-.12-.49-.43-.87-.26-.35-.16-.73-.1-1.15-.31-.43-.08-.76-.44-1.22-.27-.48-.16-.88-.37-1.29-.66-.34-.42-.5-.94-.87-1.32-.3-.34-.64-.74-1.13-.48-.5-.21-.97-.28-1.5-.18-.53-.1-1.08,.14-1.6-.12-.47,.29-.94,.57-1.52,.33-.39,.43-.97,.09-1.42,.42-.45,.37-1.11,.04-1.66,.19-.6-.15-.72,.79-1.23,.55-.63,.44-.8-.73-1.44-.55-.46-.21-.59,.26-.5,.62-.37,.12-.8,.16-.84,.65-.32,.28-.89,.82-1.32,.38,0-.55,.71-.84,.8-1.42,.09-.58,.48-1.01,.75-1.51,.15-.66,.87-.71,1.27-1.15,.71-.32,1.05-1.31,.59-1.96-.33-.47-.91-.64-1.46-.66-.65-.03-1.1-.48-1.58-.85-.54-.31-1.18-.36-1.67-.79-.49-.28-.66-.91-1-1.29,.1-.49-.13-1.18-.7-.74-.72,.34-.41-.96-1.18-.73-.46-.01-1.21-.12-1.35,.46,.13,.53,.05,1.02-.42,1.34-.14,.52-.54,.67-1.02,.61-.53,.26-1.3,.29-1.43,.99-.17,.63-.85,.89-1.45,.74-.73-.32-.99,.82-1.64,.53-.38-.09-1.21-.85-1.28-.09-.12,.68,.94,.59,.91,1.15-.37,.53-1.04,.74-1.63,.4-.69-.18-1.37,.03-2.03,.15-.43,.14-.8-.05-1.13-.22-.46-.01-.83,.98-1.09,.24-.37,.29-.89,.07-1.28-.18-.24-.53-1-.48-1.5-.61-.15,.2-.5,.62-.6,.11-.27-.43-.65-.89-1.16-.89,0-.27-.23-.44-.23-.12-.38,.18-.99,1.09-1.15,.22-.4-.25-.76,.4-1.11-.11-.33-.13-.87,.34-1.09-.11,.15-.38,.63-1,.35-1.28-.21,.05-.54,.42-.65-.04-.16-.53-.99-.43-.74,.19-.28,.08-.64,.29-.65-.16-.27,.33-.63,.13-.55-.26,.16-.44-.79-.87-.97-.36-.5,.11-.92-.58-1.33-.08-.24,.57-.92,.2-1.26,.06,.33-.38-.55-.45-.22-.91,.29-.22,.86,.41,1.05-.06-.12-.29-.63-.49-.14-.77,.47,.04,1.23-.83,.48-.92-.16-.32-.51-.42-.52-.79-.47-.21-.54,.69-.95,.15-.63-.48,1.01-.36,.69-.89,.11-.45-.51,.23-.76,.16-.39,.08-.48-.39-.83-.29-.37-.46-.71,.45-1.19,.13-.37,.02-.23,.54-.7,.46-.62-.04-.62,.75-1.21,.68-.42,.22-.06,.9-.66,1.03-.41,.26-1.22,.22-1.27,.81,.17,.5,.9,.23,1.16,.29-.11,.36,.48,.8-.2,.84-.39,.17-.77-.22-.88,.33-.25,.34-.7-.25-1.06,.12-.39,.25-.13-.93-.64-.48-.19,.21-.3,.57-.59,.17-.32,.01-.63-.02-.93-.02-.45,.38,.09,1.12-.32,1.59-.25,.4,.35,.63-.13,.93-.2,.03-.14-.49-.42-.17,.09,.5-.54,.35-.6,.78-.47,.49-1.02-.11-.68-.62,.17-.67-.52-.45-.76-.16-.27-.07-.42-.16-.5-.38-.63,.09-.21,.75-.48,1.18,.08,.44,.03,.85-.09,1.26,.29,.23,.62,.57,.09,.83-.08,.3,.1,1.02-.49,.78-.37-.14-.52,.46-.9,.09-.49,.1-.69,.78-1.29,.67-.29,.14-.57-.26-.77,.17-.25,.19-.64,.52-.85,.17-.34,.51-.38,1.26-.99,1.55-.44,.45-.57-.61-.91-.14-.42-.46-1.17-.12-1.64-.51-.13-.52-.89-.22-.88,.26-.58,.07-.14,1.05-.8,.93-.47,.19-.26,.98-.56,1.34,.11,.4,.08,.82,.43,1.12-.18,.45-.85-.68-.87,.09,.14,.56-.85,.58-.86,1.11,.25,.2,.53,.76,0,.49-.55-.2-1.05-1.2-1.62-.59-.46-.1-.66,.71-1.01,.16-.34-.07-.54-.35-.82-.14,.14-.62-.48-.96-.93-1.12-.1-.57-.66-.89-.75-1.41-.23-.33-.02-1.38-.61-.93-.26,.25-.68,.11-.75,.45-.49,.4-1.11,.51-1.52,1-.54,.42-.93-.11-1.25-.49-.32,.46-.63-.1-.96,.11-.17,.36-.65,.55-.96,.66-.99-.34-2.02-.54-2.97-.99-.52-.37-.53,.6-1.11,.35-.43,.12-1.21-.11-.68-.63,.44-.32,.14-.55-.23-.68-.31-.22-.43,.3-.8-.03-.45-.11-.43-.73-.55-1.06,.46-.03,.13-.44,.47-.59,.05-.32,.55-.57,.02-.77-.44-.72-.6,.63-1.2,.3-.69-.24-1.2,.34-1.81,.44-.35-.21-1.47,.32-1.1-.44,.07-.38-.08-.79-.55-.62-.62-.12-1.02,.57-1.6,.54-.54-.23-1.2-.29-1.58-.72-.73,.31,.11-.89-.5-.92-.22-.64-1.26,.2-1.14-.65,.14-.41-.34-1.33-.79-.96-.66,.42-1.06-.41-1.57-.66-.29-.06-1.25-.36-.74-.71,.54-.06,1.04-.43,1.58-.35,.63-.15-.04-.91-.49-.8-.49-.16-.91-.96-.51-1.39,.28-.5-.3-1.28-.85-1.23-.43,.11-.81-.21-1.24,.04-.57-.09-1.01,.31-1.57,.33-.48-.18-1.16-1.01-.43-1.33,.29-.25,.51-.52,.92-.42,.44-.43,1.04-.31,1.57-.13,.58,.2,1.11,.53,1.71,.69-.08,.5,.58,.62,.94,.27,.43,.14,1.27,0,.83-.61-.21-.48-.29-1.01-.15-1.52,.23-.55,.31-1.16,.5-1.74,.17-.44,.44-.87,.82-1.14,.2-.55,.82-.7,1.06-1.23,.28-.52,.98-.45,1.43-.24,.54-.19,1.14,.3,1.58-.22,.61,.09,1.09-.31,1.29-.87,.62-.27,.54-1.22,1.23-1.31,.44-.17,.45-.55,.41-.91,.1-.52,1.19-.2,.97-.95-.08-.54,.36-.87,.82-.92-.1-.43,.21-.46,.49-.53,.27-.43,.2-.9,.66-1.21,.11-.45-.09-.92-.03-1.31-.49-.18,.2-.27-.03-.58,.35-.16,.88-.15,.95-.67,.07-.52,.09-1.02,.45-1.44-.06-.38,.17-.75,.38-.95-.39-.34,.84-.35,.21-.73-.25-.32-.2-.84,.2-.95,.24-.45,.37-1.04,.84-1.32,.4-.35,.57-.91,1.15-.99,.17-.42,.66-.65,.44-1.15,.04-.28,1-.1,.58-.49-.61-.09-.06-.89,.01-1.28,.12-.62,.35-1.36,1.08-1.47,.67,.12,.35-.7,.9-.84,.26-.26,.31-.65,.76-.53,.64-.06-.1-.82,.45-.88,.33,.4,.56-.44,.74-.68,.51-.42-.28-1.26,.51-1.47,.39-.32,.35-.74,.05-1.07-.16-.35-.02-.68,.06-.97-.34,.16-.5-.3-.17-.39,.26,.22,.58-.56,.7,.03,.43-.28,.75-.67,.8-1.2-.18-.36,.56-.75-.03-1.02-.63-.16-.58-1.05-.75-1.56,.11-.67,.64-1.17,.58-1.87-.07-.32-.82-.64-.13-.88,.57,.14,1.25-.8,.7-1.13-.28-.1-.22-.55,.05-.24,.62-.02-.26-.58,.09-.96,.02-.6,1.09,0,.77-.71-.54,.05-.97-.28-1.17-.77,.12-.45-.39-.89-.23-1.25,.72-.11,.38-.9,.21-1.34-.18-.63-.32-1.33-.95-1.6-.24-.57,.26-1.3,.87-1.3,.61-.44-.59-.91-.11-1.44,.31-.46,.56-1.02,.2-1.51,.27-.51-.21-.9-.18-1.35-.12-.36-.58,0-.84-.23-.33,.21-.39,1.16-.88,.61-.66-.2-.37-.89,.11-1.13,.03-.35-.52,.18-.54-.32-.43-.27-.15-.6,.2-.71,.24-.44,.27-.96,.36-1.45,.4-.5,.25-1.18,.71-1.66-.02-.31,0-.82,.39-.44,.36-.13,.92,.02,.79-.57,.22-.3,.6-.46,.62-.89,.42-.33,1.09-.6,.85-1.26,.15-.2,.35-.35,.55-.49,.1-.07,.27-.21,.36-.3h0Z"/></g><g id="_973_Guyane"><path id="path5957" class="cls-2" d="M39.21,178.89s.08-.01,.17-.08c.22-.2,.25-.64,.61-.64,.26-.2,.84-.12,.78-.61-.09-.5,.37-.65,.74-.75,.21-.23,.45-.5,.6-.78,.24,.02,.13,.46,.46,.53,.35,.05,.83-.02,1.25-.03,.63,.07,.23,.66-.16,.77-.21,.33-.71,.31-.9,.64-.26,.47,.62,.68,.34,.12,.1-.19,.37-.48,.5-.51,.36-.12,.63-.59,.91-.87-.29-.15-.36-.57-.29-.93-.11-.57,.77-.5,.61-1.14,.12-.4-.37-.35-.38-.65,.18-.25,.57-.4,.23-.78-.16-.47,.5-.68,.43-1.09,.1-.31,.47-.57,.33-.92-.34-.22-.16-.53,0-.76-.26-.39,.11-.15,.34-.19,.19-.17,.25-.49,.41-.76,.13-.55,.74-.68,1.18-.89,.48-.31,.59-.93,.96-1.33,.12-.31,.59-.36,.66-.7,.22-.35-.33-.58-.21-.11-.51,.03,.14-.34,.03-.58,.22-.21,.11-.49,.01-.75-.08-.3-.47-.49-.36-.84,.02-.3,0-.62-.01-.93-.03-.34,.03-.69,0-1.03-.02-.37,.09-.74,.24-1.07,.11-.23,.37-.48,.32-.76-.18-.2-.43-.28-.6-.58-.14-.31,.54-.39,.28-.75,.13-.38-.14-.81,.04-1.22,.29-.09,.21-.36,.42-.53,.13-.36,.74-.14,.79-.56,.23-.37,.09-.77,.22-1.11-.06-.35,.4-.57,.16-.94-.02-.44-.41-.21-.64-.4-.26-.25,0-.64-.24-.89-.17-.28-.28-.61-.46-.89-.22-.16-.25-.45-.53-.54-.33-.27-.69-.05-1.02,.08-.3,.13-.48,.43-.3,.76-.2,.39-.59,.17-.95,.13-.27,.11-.93,.08-.69-.38,.17-.27,.23-.66,.03-.93-.15-.28-.43-.45-.69-.57-.26-.15-.5-.36-.77-.49-.29-.09-.55-.23-.55-.58-.09-.31-.56-.49-.36-.88,.39-.06,.25-.63,.47-.93,.11-.26,.1-.6-.06-.83-.14-.28-.29-.53-.58-.68-.2-.15-.44-.3-.54-.54-.08-.29-.17-.59-.23-.9-.03-.38-.32-.61-.52-.93-.2-.22-.42-.44-.41-.76-.02-.29-.15-.6-.32-.87,.04-.4-.34-.53-.56-.79-.19-.3-.56-.22-.82-.36-.28-.1-.59-.27-.89-.21-.32,.05-.64-.19-.98-.1-.27,0-.47,.23-.75,.25-.3,.04-.69,.19-.94-.04-.29-.09-.51-.33-.57-.6,0-.27-.08-.62,.27-.71,.02-.32,.24-.56,.37-.87,.12-.29,.06-.62-.17-.84-.19-.22-.51-.38-.82-.31-.27-.14-.51-.37-.72-.59-.3-.13-.68,.1-.99-.11-.22-.18-.41-.44-.33-.72-.14-.35-.67-.06-.71-.55-.1-.32-.34-.48-.31-.81,.12-.31,.05-.65-.25-.69-.33-.08-.15-.24-.34-.35-.11-.22-.13-.39-.47-.33-.32,.11-.52-.46-.76-.03-.39,.27-.14-.27-.1-.46,.29,.05,.11-.52-.01-.32,.06,.47-.18-.13-.33-.11-.07-.29-.46-.29-.56-.58-.13-.22-.02-.45-.17-.65-.22-.06-.2-.45-.27-.74-.04-.32,.19-.7,.28-.94,.07-.27-.05-.55,.09-.76-.15-.33,0-.66,.04-.94,.16-.28-.26-.41-.3-.71-.31-.15-.08,.03,.02,.18,.24,.31,.29,.49,.09,.88,.13,.39-.23,.17-.28-.05,.02-.32-.23-.51-.38-.66-.17-.18-.21-.37-.42-.52,.13-.28-.11-.34-.27-.57-.22-.17-.7,.04-.63-.43,.23-.65-.62-.8-1.03-.98,0-.12-.15-.44-.36-.45-.15-.03-.28-.34-.48-.19,0,.37-.14,.1-.29,0-.18-.19,.02-.46,.11-.65,.04-.23,.02-.42,.19-.62,.2-.22-.28-.57,.14-.59,.29-.11,.16-.37,.37-.51,.21-.18,.03-.58,.06-.8-.05-.21,.05-.46,.24-.61,.11-.32-.04-.52-.3-.61-.04-.38,.38,.09,.35-.3,.1-.28,.59-.21,.55-.45-.14-.35,.21-.47,.36-.68,.34-.13,.13-.46,.21-.69,.03-.3-.09-.61-.36-.77-.19-.17-.44-.01-.63-.21-.12-.17-.26-.46-.06-.64-.25-.19-.08-.63-.43-.62-.12-.32-.41-.11-.59-.35-.25-.05-.47,.2-.66,.34-.28,.06-.57-.32-.91-.22-.25,.02-.53,.07-.74-.12-.05-.22-.18-.47-.29-.65-.14-.27-.32-.56-.31-.86-.09-.26,.14-.53,.12-.79,.18-.16,.09-.45,.36-.48,.1,.19,.16-.06,.32-.13,.12-.24,.28-.48,.23-.74-.04-.27-.27-.44-.42-.66-.03-.21-.02-.4,.03-.6,.08-.26,.29-.52,.25-.78,.04-.27,0-.6-.26-.76-.11-.19-.27-.33-.36-.55-.05-.32-.06-.62-.09-.94,0-.25-.19-.51-.03-.76,.08-.27,.08-.57,.21-.83,.11-.31-.08-.64-.04-.96,.11-.25,.16-.49,.2-.75,.19-.26,.09-.59-.12-.79-.04-.25-.2-.46-.37-.65-.21-.2-.46-.38-.77-.27-.26,.01-.29-.23-.42-.35-.2-.14-.5,.01-.49-.28,.02-.14,.35-.14,.28-.33,.07-.22-.34-.46-.03-.62,.11-.19,.28-.35,.47-.46,.3,.12,.34-.54,.07-.6-.08-.11-.38-.48-.4-.32-.2,.15-.09-.35-.38-.32-.13-.09-.3-.32-.49-.14-.24,.19-.3,.03-.3-.19-.21-.11-.29-.41-.38-.58,.29-.17-.16-.4,.11-.65,.24-.17,.25-.48,.08-.7,.2-.24,.09-.5,.16-.76,.04-.19,0-.37-.07-.58,.03-.27-.17-.47-.27-.62,.3-.19-.09-.31,.03-.54-.14-.28-.1-.61-.18-.92-.12-.2-.36-.41-.32-.66-.04-.23-.36-.31-.3-.62,.07-.23,.24-.41,.27-.6,.02-.23,.35-.32,.19-.05-.15,.41,.04-.02,.16-.06,.1-.12,.35-.16,.31-.35-.08-.27,.65-.03,.3,.05-.36-.15-.17,.12,.04,.13,.09-.36,.44-.03,.56-.19,.04-.21,.46-.18,.44-.41-.01-.17-.06-.43,.19-.58,0-.3,.35-.35,.35-.68,.23-.1,.18-.39,.33-.61,.28-.16,.22-.49,.19-.76-.02-.29-.07-.63-.17-.84-.3-.08-.04-.51-.22-.71-.09-.2-.08-.4-.21-.61-.13-.19-.24-.46-.52-.43-.23,0-.19-.34-.4-.45-.22-.09-.17-.37-.2-.54,.13-.12,.26-.32,.21-.51,.24,.15,.08-.03,.22-.11,.2-.08,.44-.18,.61-.33,.19-.22,0-.36-.15-.5-.1-.21,.45-.27,.11-.46-.22,.1-.39-.06-.61,.08-.33,.06-.27-.34-.13-.46-.16-.17-.52-.14-.38-.42,.01-.28,.14-.57,.12-.87-.04-.28,.29-.42,.4-.65,.27-.34,.25-.78,.25-1.2-.05-.31-.35-.44-.53-.65-.17-.13-.4-.2-.6-.28-.27-.13-.63-.08-.88-.22-.16-.22-.42-.13-.6,.01-.28,.27-.41-.05-.49-.28-.25-.21,.03-.6-.23-.83,.07-.32-.08-.68,.18-.93,.11-.33-.13-.71,.1-1.01,.07-.29,.02-.59-.19-.81-.16-.34-.05-.68,.04-1-.23,.03-.5-.23-.56-.46,.08-.27,.29-.33,.31-.62,.08-.34,0-.71,0-1.06-.12-.33,.03-.69-.04-1.03-.1-.25,.06-.5,.13-.71,.13-.27-.07-.48-.04-.76,.13-.3-.15-.46-.23-.69-.11-.27,.06-.56-.05-.81-.09-.26-.51-.17-.44-.5-.12-.3,.18-.45,.32-.66,.12-.25,.31-.42,.58-.46,.25,0,.42,.25,.57-.05,.02-.3,.39-.36,.4-.64,0-.27,.21-.59,.34-.76,.13-.17-.01-.42,.14-.57,.21-.17,.28-.47,.24-.76,0-.28-.01-.58,.06-.88-.04-.28-.01-.59-.3-.69,.03-.28,.31-.53,.3-.86,.07-.31-.05-.64-.07-.94,0-.25-.04-.49-.01-.74,.08-.19,.18-.33,.31-.49,.16-.12,.34-.25,.4-.44,.09-.21,.29-.39,.32-.64,.06-.18,.21-.33,.2-.53,.07-.2,.2-.39,.13-.6,.15-.16,.02-.41,.2-.56,.1-.18,.3-.33,.41-.56,0-.35-.3,.13-.43,.21-.02-.15-.07-.28-.14-.38-.05-.23,.06-.5,.24-.66,.09-.1,.32-.35,.45-.19-.2,.28,.22,.35,.31,.05,.19-.13,.43-.24,.65-.33,.14-.21,.39-.28,.61-.43,.2-.07,.32-.27,.49-.37,.16-.15,.29-.32,.46-.43-.1-.25,.25-.32,.19-.54-.12-.24,.09-.49,.06-.72-.06-.06,.04-.38,.2-.29,.19-.09,.33-.18,.53-.29,.17-.13,.36-.23,.54-.34,.25-.18,.13-.5,.13-.75-.09-.27,.06-.47,.26-.62,.14-.18,.42-.25,.49-.49,.17-.22,.29-.46,.39-.72,.09-.23,.17-.48,.29-.69,.08-.26,.34-.36,.45-.59,.11-.21,.39-.37,.4-.63,.07-.22,.16-.4,.24-.62,.06-.22,.14-.43,.29-.59,.13-.11,.19-.28,.35-.36,.15-.15,.31-.27,.48-.44,.17-.09,.25-.31,.38-.48,.16-.22,.32-.42,.45-.65,.06-.24,.26-.4,.38-.6,.17-.15,.45-.17,.59-.36,.21-.1,.27-.3,.41-.46,.21-.15,.43-.28,.69-.34,.23-.1,.54-.12,.85-.07,.3-.1,.65-.05,.88-.27,.24-.06,.35-.22,.49-.38,.24-.07,.28-.34,.44-.47,.11-.21,.31-.28,.54-.37,.27-.05,.29-.36,.55-.4,.23-.03,.48-.11,.58-.33,.12-.26,.07-.54,.3-.75,.09-.17,.19-.37,.32-.53,.07-.22,.16-.49,.37-.62,.18-.11,.37-.16,.57-.23,.25-.13,.53-.18,.74-.36,.16-.14,.31-.25,.49-.38,.18-.19,.39-.39,.55-.61,.14-.17,.28-.36,.38-.56,.12-.2,.24-.35,.33-.57,.05-.29,.26-.43,.46-.6,.22-.19,.63-.07,.86-.19,.22-.05,.34-.24,.53-.37,.16-.14,.33-.32,.47-.49,.22-.09,.39-.28,.58-.41,.16-.14,.17-.35,.31-.52,.15-.25,.38-.36,.66-.37,.26-.01,.49-.15,.73-.25,.12-.11,.28-.27,.23-.46,.03-.25,.13-.48,.13-.74,.05-.21-.08-.42-.17-.57-.06-.3-.3-.56-.6-.6-.47-.08,.02-.46,.28-.36,.21-.03,.39-.02,.55-.2,.22-.12,.2-.4,.31-.57,.03-.21,.15-.36,.24-.55,.22-.13,.35-.37,.5-.58,.13-.21,.14-.46,.17-.69,.05-.16,.27-.09,.4-.2,.23,.01,.44-.02,.64-.14,.22-.12,.35-.31,.51-.49,.17-.18,.24-.44,.29-.66,.04-.24,.08-.35,.13-.59,.02-.27,.05-.52,.02-.78,.03-.3,.03-.61,.1-.91,.04-.22,.18-.4,.25-.61,.16-.28,.13-.6,.11-.91-.1-.21-.21-.42-.26-.64,0-.34-.04-.66,0-1.01-.11-.28,.33-.5,.2-.68-.14-.21-.29-.54-.1-.77-.01-.27,.2-.44,.2-.71,.07-.24,0-.52,.02-.78-.03-.31,.11-.57,.2-.86,.1-.24,.22-.49,.36-.72,.07-.25,.18-.42,.41-.55,.19-.11,.43-.19,.56-.39,.17-.22,.51-.03,.72,.01,.17,.07,.2,.32,.36,.41,.06,.13,.21,.39,.41,.45,.21,.2,.74-.12,.76,.32-.03,.21,.03,.41-.06,.6,0,.21-.19,.39-.28,.53-.05,.2,.08,.49,.34,.48,.14-.11,.57-.42,.58-.1-.04,.36,.3,.56,.62,.46,.19-.13,.4-.22,.56-.42-.21-.02-.37,.19-.5,.27-.16,.15-.49,.13-.63-.08,.17-.29-.2-.55-.42-.31-.19,.3-.65-.03-.46-.27,.17-.17,.28-.36,.31-.6,0-.26,.07-.51-.04-.76-.12-.24-.48-.09-.66-.17-.22-.02-.32-.28-.46-.43-.14-.14-.23-.35-.33-.49-.22-.07-.47-.17-.65-.27-.2-.3,.05-.62,.14-.91,.12-.18,.09-.4,.22-.58,.02-.25,.31-.35,.45-.49,.24-.15,.38-.42,.39-.7,.16-.2,.15-.47,.18-.72,.12-.21,.33-.28,.55-.3,.21-.02,.44,.01,.64,.02,.22,.14,.52,.12,.76,.21,.21,.06,.41,.12,.62,.19,.24,.13,.45,.22,.7,.34,.2,.04,.42,.2,.65,.19,.42,0,.82,.07,1.24,.06,.39,.04,.82,0,1.23,0,.26,.01,.54,.08,.77,.21,.2,.1,.42,.19,.63,.31,.27,.15,.55,.21,.84,.33,.26,.09,.53,.17,.77,.33,.19,.14,.41,.24,.6,.4,.17,.12,.37,.24,.56,.34,.22,.09,.44,.23,.64,.37,.14,.12,.28,.26,.42,.37,.12,.22,.22,.45,.25,.71,.03,.4,.07,.82,0,1.24-.01,.27,.03,.51,.17,.75-.11,.22-.2,.64,.24,.47,.1-.27,.43-.14,.44,.11,.03,.25-.22,.35-.31,.54-.17,.23,.1,.37,.14,.57-.04,.32-.47,.14-.57,.4,0,.37,.45,.38,.72,.3,.22-.05,.58,.07,.7-.16,.19-.22,0-.5,.01-.73-.02-.19,.33-.44,.5-.27-.08,.24-.19,.67,.14,.74,.21,.13,.41-.03,.61,0,.27,0,.48,.27,.73,.31,.18,.1,.51,.05,.47,.36,0,.25-.26,.34-.41,.49-.24,.2-.11,.63,.22,.62,.3,.09,.1,.42,.02,.58-.08,.27-.15,.66,.19,.77,.29,.05,.61-.05,.9,.1,.26,.04,.27,.31,.39,.48,.04,.28-.16,.52-.24,.78-.1,.4,.16,.15,.15-.1,.08-.28,.39-.62,.1-.89-.09-.23-.32-.38-.56-.43-.27-.09-.59,0-.84-.16-.29-.26,.22-.57,.15-.88-.02-.3-.34-.3-.5-.48-.07-.34,.32-.41,.47-.59,.16-.14,.03-.44-.12-.57-.22-.15-.5-.14-.69-.36-.24-.19-.55-.14-.84-.1-.37,.07-.31-.42-.26-.64-.03-.22-.29-.26-.44-.12-.31,.03-.31,.4-.19,.62-.02,.33-.2,.69-.57,.51-.22-.01-.47,.12-.66-.04-.25-.27,.13-.19,.29-.27,.3-.17,.13-.47,0-.68,.06-.22,.37-.32,.38-.59,.08-.28-.21-.46-.46-.45-.4,.18-.17-.2-.25-.43-.15-.29,.1-.58,.01-.87,.05-.23-.07-.44-.02-.68,.07-.3-.02-.62-.15-.89-.13-.18-.2-.37-.39-.5-.18-.21-.43-.3-.6-.52-.16-.16-.38-.27-.55-.42-.18-.09-.37-.18-.51-.32-.23-.12-.48-.22-.68-.36-.27-.05-.48-.22-.73-.3-.21-.08-.39-.18-.6-.26-.07-.07-.49-.27-.22-.19,.25,.14,.54,.04,.76,.21,.27-.11,.51,.08,.73,.08,.25,.08,.5,.13,.76,.21,.27,.04,.5,.16,.73,.28,.17,.08,.35,.17,.53,.26,.28,.12,.5,.33,.79,.44,.2,.16,.42,.39,.69,.42,.24,.09,.41,.26,.64,.36,.15,.17,.35,.25,.54,.39,.26,.1,.46,.26,.7,.37,.2,.16,.48,.25,.65,.4,.15,.15,.37,.24,.54,.37,.17,.15,.42,.15,.6,.3,.15,.16,.37,.16,.51,.3,.28,.06,.5,.26,.74,.4,.25,.11,.48,.29,.69,.44,.21,.08,.41,.18,.6,.25,.24,.08,.43,.12,.65,.23,.26,.17,.55,.13,.84,.23,.24,.14,.42,.3,.69,.33,.26-.01,.49,.16,.75,.25,.17,.08,.35,.11,.53,.25,.18,.11,.36,.23,.58,.29,.22,.07,.37,.21,.58,.29,.25,.1,.52,.24,.79,.29,.26,.02,.54,.14,.79,.26,.22,.11,.44,.18,.68,.24,.18,.13,.42,.19,.55,.37,.18,.17,.37,.3,.64,.31,.13,.17,.36,.34,.57,.4,.19,.14,.33,.33,.57,.31,.05,.21,.18,.17,.3,.23,.17,.15,.37,.25,.59,.34,.19,.17,.4,.26,.63,.37,.25,.08,.43,.22,.66,.3,.3,.03,.58,.16,.86,.28,.31,.1,.65,.15,.91,.33,.17,.07,.35,.17,.53,.19,.19,.18,.46,.18,.7,.25,.34-.03,.63,.08,.97,.06,.29-.07,.6-.05,.9,0,.37-.04,.69-.1,1.05-.12,.31-.02,.58,.02,.85-.11,.28,.07,.56,.04,.82,.17,.28,.08,.61,.25,.89,.22,.26,.07,.59,.13,.81,.26,.13,.12,.39,.11,.56,.21,.25,.08,.58,.1,.79,.14,.24,.05,.5,.01,.7,.16,.2,.05,.39,.03,.57,.17,.23,.1,.47,.21,.71,.3,.17,.07,.36,.09,.52,.13,.33-.03,.58,.19,.87,.05,.33-.06,.62-.2,.95-.26,.22-.06,.49-.22,.73-.08,.2,.15,.44,.23,.66,.4,.17,.14,.27,.32,.41,.51,.14,.18,.26,.36,.43,.52,.13,.14,.28,.31,.34,.5,.02-.18,.16-.34,.4-.4,.22-.11,.47,0,.66,.12,.15,.09,.22,.24,.35,.32,.08,.17,.28,.21,.41,.33,.2,.14,.41,.23,.66,.28,.11-.02,.55-.04,.31-.15-.2,.02-.42,.07-.61-.04-.2-.13-.43-.25-.59-.45-.22-.14-.39-.36-.65-.45-.25-.16-.58-.08-.84-.05-.31,.06-.38-.27-.47-.47-.12-.23-.28-.45-.48-.62-.13-.17-.36-.21-.49-.36-.2-.14-.41-.26-.63-.32-.27-.06-.54-.18-.7-.37,.07-.3,.33-.41,.53-.5,.2,.01,.36-.12,.51-.24,.17-.04,.47,.17,.48-.07,.12,.22,.42,.11,.57,.28,.24,.21,.59,.22,.87,.38,.24,.1,.41,.3,.66,.36,.2,.14,.47,.13,.68,.26,.31,.25,.71,.34,1.03,.57,.29,.01,.46,.2,.75,.23,.21,.01,.45,.2,.65,.27,.25,.19,.52,.2,.81,.28,.23,.09,.55,.09,.64,.32,.17,.2,.4,.06,.55,.16,.22,.13,.47,.22,.7,.22,.12,.2,.28,.1,.45,.28,.24-.1,.37,.33,.62,.19,.14,.14,.36,.21,.4,.49,0,.39,.51,.29,.52,.66,.23,.24,.66,.02,.79,.36,.16,.22,.34,.44,.59,.55,.22,.07,.43,.16,.62,.27,.19,.12,.39,.19,.55,.36,.14,.21,.41,.21,.6,.3,.19,.07,.33,.21,.53,.27,.25,.14,.5,.23,.76,.29,.23-.01,.47-.06,.73-.03,.23-.04,.46-.02,.7-.13,.31,.01,.64-.03,.95,.06,.24,.06,.38,.25,.49,.45,.16,.17,.21,.4,.35,.57,.14,.21,.37,.39,.56,.55,.15,.16,.32,.34,.52,.47,.17,.12,.33,.24,.51,.32,.23,.1,.51,.13,.71,.28,.2,.04,.46,.18,.58,.38,.09,.24,.21,.48,.26,.72,.02,.28,.05,.57-.02,.81-.09,.25-.4,.34-.55,.55-.16,.39,.3,.4,.56,.32,.19,.28-.44,.11-.51,.39-.11,.2-.33,.33-.39,.58-.03,.31,.35,.33,.51,.15,.29-.06,.59,.05,.87,.08,.15,.17,.19,.4,.37,.55,.21,.2-.16,.53-.26,.2-.06-.2-.22-.48-.45-.43-.27,.07-.38,.36-.36,.62,.13,.21,.12,.43,.16,.67,.19,.09,.03-.52-.04-.68-.14-.25,.19-.68,.47-.47,.16,.15,.18,.67,.51,.43,.25-.26-.16-.44-.2-.68-.05-.37-.45-.25-.7-.33-.29-.19-.52,.21-.77,.08-.12-.34,.25-.51,.4-.75,.17-.08,.78-.27,.36-.45-.25,.1-.68-.04-.36-.34,.16-.08,.32-.14,.41-.3,.17-.13,.15-.4,.2-.61,0-.19,.07-.49,0-.72-.04-.17-.16-.31-.22-.47-.16-.04-.29-.34-.49-.36-.16-.13-.35-.21-.54-.32-.23-.08-.45-.13-.59-.23-.2-.09-.37-.21-.48-.37-.03-.26-.27-.44-.27-.7,0-.29,.35-.01,.52-.08,.19,.12,.46,.13,.67,.23,.25,.12,.51,.18,.74,.34,.2,.13,.5,.14,.62,.35,.17,.14,.36,.26,.58,.33,.25,.14,.46,.3,.72,.4,.21,.08,.37,.21,.57,.3,.09,.16,.26,.21,.41,.29,.19,.14,.44,.27,.59,.46,.25-.1,.42,.21,.61,.33,.25,.1,.49,.2,.7,.36,.28,.02,.08,.19,.38,.22,.17,.11,.35,.25,.49,.38,.09,.11,.28,.36,.43,.2,.26,.02,.49,0,.65,.3,0,.22,.29,.37,.42,.48,.02-.16-.27-.37-.02-.55,.25-.35,.39,.16,.71,.19,.23,.18,.46,.35,.55,.62,.25,.09-.27,.54,.11,.27,.26,.04,.38,.27,.61,.35,.2,.15,.36,.33,.47,.56,.19,.13,.42,.37,.21,.61-.11,.22-.35,.26-.55,.16,.16,.21,.54,.23,.68,.29,.23-.21,.48,.07,.6,.19,.25,.02,.54,.08,.73,.26,.16,.23,.43,.24,.62,.42,.05,.2,.34,.18,.27,.44,.06,.43,.09-.19,.09-.35,.33-.14,.58,.19,.63,.44,.17,.16,.32,.36,.29,.58,.24-.06,.42,.14,.49,.4,.24,.17,.15,.51,.28,.75,.06,.14,.29,.55,.42,.29,.19,.03,.25,.41,.52,.43,.16,.18,.13,.51,.28,.68,.04,.22-.05,.44-.02,.64,.17,.13,.26,.42,.49,.38,.24,.01,.48,.12,.61,.34,.14,.21,.21,.49,.38,.68,.14,.29,.51,.25,.67,.51,.12,.18,.34,.29,.52,.39,.18,.09,.26,.3,.47,.38,.22,.2,.51,.23,.71,.43,.25,.04,.41,.2,.58,.38,.16,.19,.48,.17,.63,.42,.2,.24,.57-.19,.68,.23,.09,.19,.04,.42,.15,.59,.1,.21,.23,.37,.39,.53,.18,.16,.32,.38,.51,.54,.13,.2,.32,.42,.51,.59,.2,.28,.57,.11,.75,.41,.19,.39-.33-.1-.41,.21-.11,.21-.32,.34-.47,.53-.16,.18-.35,.1-.54,.1-.24-.03-.45-.09-.69-.15-.26-.13-.54-.08-.78-.04-.2,.02-.38,.11-.43,.3-.13,.22-.11,.4-.24,.62-.09,.23-.23,.4-.34,.6-.07,.21,.09,.55,.34,.48,.18-.09,.54-.22,.59,.07-.06,.23-.1,.43-.2,.65,0,.18-.38,.52-.22,.55,.23-.2,.32-.44,.38-.68,.03-.2,.21-.43,.06-.62-.15-.25-.55-.02-.78-.12-.22-.19-.02-.42,.17-.51,.11-.18,.26-.41,.29-.61,.09-.19,.11-.4,.23-.58,.3-.14,.53,.12,.82,.14,.3,.06,.6,.09,.88,.11,.24,.12,.46-.08,.71-.12,.1-.3,.35-.22,.49,.03,.22,.18,.46,.3,.72,.4,.2,.11,.41,.28,.66,.3,.26,.23,.51,.43,.8,.61,.06,.24,.38,.3,.39,.56,.2,.12,.22,.35,.4,.45,.08,.22,.33,.28,.41,.49,.25,.15,.38,.36,.58,.57,.24,.09,.36,.4,.64,.46,.05,.17,.26,.34,.43,.44,.23,.2,.55,.21,.79,.32,.26,.05,.51,.11,.75,.23,.23,.1,.35,.27,.54,.43,0,.25,.25,.36,.38,.53,.15,.26,.48,.28,.73,.38,.15,.14,.32,.26,.47,.39,.14,0,.22,.26,.44,.33,.18,.16,.39,.2,.58,.36,.18-.06,.09-.26,.28-.01,.14,.14,.39,.25,.38,.44-.3,.13,.21,.1,.28,.24,.29,.06,.1,.34,.39,.38,.12,.17,.39,.16,.48,.41-.03,.31,.3,.4,.49,.58,.16,.1,.34,.22,.44,.37,.07,.13,.38,.44,.44,.18,.04,.05,.4,.17,.35,.36-.06,.33,.49,.06,.64,.15,.01,.22-.2,.46,.13,.52,.19,.26,.39-.14,.55,.09,.25,.19,.19,.47,.15,.73,.14,.26,.58,.2,.61,.53,.23-.13,.36,.35,.5,.52,.09,.14,.22,.32,.32,.49,.16,.26,.21,.62,.44,.85,.15,.14,.19,.28,.33,.38,.15,.16,.31,.31,.48,.45,.18,.15,.38,.31,.57,.45,.12,.24,.68,.11,.59,.38-.14,.23-.46,.19-.68,.28-.34,.06-.69,.15-1,.31-.23,.11-.49,.22-.73,.28-.27,.09-.56-.13-.7-.32-.18-.21-.41-.38-.64-.52-.28-.06-.58,0-.82,.17-.18,.09-.28,.33-.35,.54-.06,.32,.05,.7-.18,.99-.2,.07-.43-.09-.58-.2-.26-.14-.56-.19-.86-.13-.26,.12-.53,.01-.79-.02-.3-.11-.63-.06-.92,.06-.15-.2-.45-.45-.67-.17-.1,.15-.48,.19-.23,.31,.19-.04,.43-.35,.57-.2,.12,.21,.37,.25,.59,.19,.31-.03,.61-.01,.89,.11,.22-.11,.39,.39,.35,.02,.25-.18,.59-.06,.85,.06,.16,.19,.49,.2,.73,.21,.25-.08,.43-.24,.46-.5,.08-.25,.08-.52,.15-.79,0-.24,.23-.35,.44-.39,.32-.04,.59,.2,.71,.48,.12,.22,.29,.38,.52,.47,.31,.15,.63,0,.96,.04,.49-.06,.2,.28,.02,.45-.21,.15-.39,.36-.53,.55-.11,.26,.05,.49,.19,.7,.15,.27,.23-.03,.02-.19-.27-.21-.04-.52,.15-.65,.17-.15,.33-.27,.45-.44,.21-.12,.27-.36,.5-.47,.26-.09,.45-.26,.7-.36-.23-.05,.13-.17,.32-.2-.04,.09,.08,.18,.27,.15,.28-.05,.56-.19,.7-.46,.15-.21,.22-.48,.44-.64,.06-.19,.15-.4,.17-.59,.08-.33-.28-.39-.28-.66,.28-.01,.04-.4,.32-.26,.13-.16,.32,0,.5-.09-.07-.32,.19,.14,.3-.12,.13,.16,.37,.02,.5-.17,.25-.14,.38-.25,.67-.17,.36-.24,.23,.33,.47,.46,.21,.09,.46,.41,.68,.21,.15-.21,.28,.05,.37,.18-.2,.24-.03,.48,.21,.64,.27,.11,.44,.26,.67,.44,.13,.16,.28,.34,.46,.44,.15,.14,.52,.23,.36,.49-.26-.15-.37,.06-.38,.31,.08,.16,0,.37,.21,.48,.16,.15,.4,.29,.57,.44,.23,.13,.47,.21,.46,.55,.18,.22,.04,.46-.07,.68-.1,.16-.22,.28-.3,.46-.25,.09-.4,.34-.41,.58-.22,.17-.48,.25-.68,.42-.09-.21-.38-.19-.52-.07-.23-.17-.5-.03-.72,.06-.21,.2-.28,.49-.47,.69-.12,.24-.25,.46-.34,.71-.04,.22-.15,.44-.17,.65,0,.18-.06,.38-.06,.57,0,.24-.09,.51-.12,.75-.1,.23-.16,.49-.27,.71-.07,.22-.2,.38-.28,.6-.08,.24-.17,.48-.21,.72-.15,.27-.33,.5-.53,.75-.18,.17-.27,.34-.36,.58,.06,.23-.04,.15-.13,.35-.08,.29-.45,.18-.6,.4-.24,.22,.02,.73,.33,.75,.24,.11,.35,.47,.24,.71-.14,.17-.22,.38-.32,.55,.11,.2,.24-.33,.34-.41,.18-.24,.06-.55-.08-.78-.12-.18-.37-.24-.47-.45,.02-.28,.47-.26,.66-.41,.21-.17,.38-.41,.36-.66,.11-.22,.25-.45,.46-.59,.22-.2,.4-.45,.49-.74,.12-.2,.11-.46,.17-.68,.03-.16,.17-.27,.24-.44,.15-.2,.21-.39,.31-.57,.08-.27,.12-.55,.22-.81,.07-.32,.05-.65,.11-.95,.03-.23,.13-.43,.2-.66,.1-.2,.23-.4,.32-.62,.1-.13,.15-.32,.29-.4,.19-.12,.26,.31,.51,.32,.22,.19,.55,.12,.81,.19,.25-.01,.55,.07,.75-.13,.19-.1,.43-.15,.6-.33,.18-.19,.39-.32,.6-.47-.01-.24,.3-.3,.48-.2,.26-.03,.55-.07,.84,.04,.28-.05,.45,.14,.63,.3,.35,.06,.42,.32,.59,.58,.16,.24,.42,.33,.39,.66-.09,.28,.15,.32,.35,.48,.05,.16,.48,.42,.4,.08,.04-.3,.18,.29,.35,.29,.26,.12,.59-.31,.62,.06,.24,.14,.49,.27,.71,.46,.04,.3,.25,.49,.2,.8-.03,.17,.13,.35,.26,.48,.13,.23,.44,.15,.61,.33,.17,.16,.28,.39,.28,.65,.18-.07-.1-.43-.09-.59-.06-.25-.31-.39-.4-.6,0-.38,.29,.19,.47,.08,.2,.11,.27,.28,.47,.4,.06,.22,.5,.09,.33,.48-.22,.02,.03,.35,.16,.35-.02-.36,.26-.15,.41-.03,.22,.09,.32,.34,.51,.5-.23-.12-.03,.19,.03,.27,.28-.24,.21,.28,.43,.35,.14,.13,.17,.28,.35,.32-.01-.23-.38-.47-.29-.56,.23-.14,.26,.3,.48,.28,.25,.1,.37,.35,.62,.44,.16,.22,.54,.16,.61,.46,.24-.05,.34,.27,.56,.33,.36-.08,.45,.2,.72,.35,.24,.22,.52,.22,.8,.38,.25,.08,.39,.25,.51,.4,.07-.19,.49-.1,.4,.09,.24,.09-.03,.08,.02,.15,.21,.09,.33,.42,.3,.6-.18-.04-.32-.21-.14,.05,.1,.22,.36,.13,.53,.25,.26,.04,.39,.32,.55,.48,.1-.33,.22,.1,.19,.24,.19,.09,.26,.36,.32,.55,.06,.2,.09,.45,.19,.61,.16,.24,.12,.62,.13,.92-.04,.33,0,.64,.07,.93-.01,.32,.02,.67,.12,.98,.02,.3,.05,.63,.08,.96,.11,.24,.11,.54,.3,.71,.14,.14,.29,.29,.28,.46,.23,.14,.39,.39,.53,.61,.04,.23,.18,.43,.36,.56,.04,.24,.2,.41,.28,.64,.18,.23,.21,.55,.32,.83-.03,.3,.08,.59,.08,.91,0,.3,.16,.57,.28,.83,.1,.26,.19,.54,.24,.82,.04,.24,.08,.56,.13,.74,0,.21,.04,.42-.01,.65-.04,.3-.13,.6-.15,.91-.11,.33,0,.67,.08,1,.05,.41,.25,.79,.27,1.2,.07,.27,.11,.54,.15,.82,.08,.29,.09,.58,.11,.87,.03,.43,.1,.85,.04,1.29-.04,.29-.11,.59-.2,.85-.09,.24-.22,.48-.35,.72-.12,.18-.23,.35-.36,.54-.12,.21-.3,.4-.47,.56-.14,.23-.38,.32-.57,.47-.2,.1-.35,.23-.56,.3-.27,.16-.56,.3-.84,.43-.24,.12-.45,.17-.7,.3-.2,.12-.4,.23-.59,.39-.19,.15-.26,.38-.43,.51-.16,.16-.34,.34-.55,.44-.11,.14-.37,.16-.44,.38-.15,.24-.46,.31-.72,.24-.28,0-.57,.01-.83,.02-.24,.08-.47,.12-.73,.15-.26-.01-.59,.23-.79,0-.24-.18-.55-.05-.81-.18-.2-.08-.47-.11-.59-.29-.22-.2-.49-.21-.75-.07-.2,.12-.39,.26-.53,.46-.1,.17-.3,.27-.4,.46-.15,.27-.08,.62-.24,.87-.2,.17-.24,.45-.27,.7-.17,.27-.1,.54-.17,.85-.03,.21-.17,.39-.34,.53-.2,.18-.48,.13-.73,.2-.27,.02-.55-.02-.81,.04-.21,.19-.52,.22-.62-.09-.28-.09-.41,.25-.68,.25-.25,.17-.57,.2-.87,.25-.28,.08-.5,.1-.75,.26-.16,.16-.27,.32-.33,.55-.13,.2-.25,.43-.42,.6-.12,.21,.11,.56-.08,.77-.13,.14-.34,.27-.51,.26-.22-.01-.37-.18-.59-.22-.26-.14-.48,.14-.73,.17-.22,.28,.2,.02,.31,.13,.26,.27,.49-.21,.72-.03,.26,.16,.57,.03,.8-.11,.28-.17,.13-.6,.2-.87,.11-.2,.29-.34,.38-.54,.14-.19,.17-.53,.43-.62,.25-.13,.52-.2,.8-.22,.35,.01,.61-.33,.96-.28,.27,0,.53,.02,.79,.06,.19-.14,.37-.3,.66-.19,.32,.02,.65,.05,.94-.08,.18-.08,.33-.22,.44-.39,.14-.17,.22-.38,.24-.61,.04-.26,.06-.49,.18-.73,.07-.26,.3-.44,.31-.71,.07-.25,.13-.52,.31-.7,.11-.14,.23-.33,.33-.49,.18-.13,.33-.35,.55-.44,.23,.02,.38,.22,.5,.37,.14,.18,.35,.29,.55,.38,.15,.14,.36,.24,.56,.3,.28,.09,.64,.06,.81-.2,.31-.11,.62,.02,.94,.02,.35-.04,.69,.08,1.02-.06,.25-.07,.44-.24,.68-.36,.21-.13,.42-.33,.62-.51,.18-.16,.38-.35,.63-.43,.3-.1,.62-.1,.92-.21,.26-.06,.53-.16,.77-.29,.3-.19,.65-.34,.86-.65,.21-.16,.43-.3,.7-.4,.16-.17,.41-.22,.58-.4,.19-.11,.3-.32,.51-.38,.17-.24,.35-.49,.44-.78,.05-.24,.31-.3,.4-.52,.14-.12,.21-.37,.41-.43,0-.08,.04-.5,.19-.66,.06-.27,.16-.5,.28-.75,.08-.26,.14-.51,.17-.78,.02-.38,.08-.76,.04-1.15,.04-.45,.02-.94-.05-1.39-.05-.33-.13-.63-.18-.95-.08-.35-.1-.68-.1-1.04-.03-.39,0-.81-.06-1.2-.06-.21,0-.39-.05-.63,.02-.26-.03-.47,.03-.72,.01-.26,.06-.54,.08-.83,.04-.42,.02-.86,.05-1.31-.02-.24-.04-.48,0-.69,.02-.31,.06-.55,0-.87,.02-.34,0-.71,.02-1.07-.03-.44,.05-.87,.08-1.3,.09-.26-.03-.62,.28-.81-.07-.29,.25-.52,.37-.77,.11-.17,.18-.38,.22-.59,0-.25,.05-.55,.35-.6-.15-.06-.08-.28,.12-.37,.22-.02,.68-.19,.76,.08,.32,.09,.63,0,.95,.13,.2,.09,.4,.21,.57,.34,.37-.08,.22,.28,.48,.31,.34-.04,.33,.25,.55,.35,.25,.05,.41,.27,.65,.35,.19,.19,.53,.13,.65,.42,.18,.19,.37,.21,.54,.4,.15,.25,.33,.46,.6,.58,.38,.11-.11,.33,.15,.42,.2,.12,.32,.31,.57,.28,.36,.1,.07,.29,.33,.47,.2,.22,.31,.46,.46,.7,.25,.32,.29,.1,.12-.16,.05-.15,.32,.37,.33,.54,.05,.18,.2,.32,.21,.51,.17,.4-.19-.18-.21,0,0,.28,.32,.4,.34,.58-.08,.34,.46,.25,.38,.61-.05,.23-.12,.49-.15,.71,.14,.2,.15,.46,.28,.66,0,.31,.15,.58,.14,.86-.02,.33,.25,.55,.17,.86,.06,.23,.24,.42,.17,.65,.12,.23,.04,.38,.06,.6-.04,.25,0,.55,.07,.82,.03,.26-.23,.56-.02,.77,.15,.25,.09,.41,.08,.66,.1,.19,.13,.43,.27,.61,.11,.18,.23,.37,.38,.53,.11,.2,.36,.26,.42,.49,.13,.25,.36,.29,.57,.44-.04,.17-.12,.31-.09,.54-.12,.16-.49,.17-.28,.52,.14,.22-.26,.39-.02,.64-.08,.31,.17,.23,.33,.17-.16,.23,.15,.13,.21,.35,.18,.16,.27,.39,.43,.59,.2,.08,.34,.21,.51,.34,.16,.22,.43,.27,.62,.48,.21,.07,.41,.05,.53,.27,.1,.31,.46,.05,.67,.03,.09-.2,.15-.43,.36-.41,.15,.14,.57-.03,.43,.4-.24,.19,.1,.54-.16,.56-.2-.19-.4-.01-.58,.1-.18,.1-.35,.27-.42,.48-.09,.23-.12,.59-.33,.71,.24,.17-.28,.04-.29,.31-.02,.27-.24,.56-.06,.85,.01,.28-.03,.51,.07,.75,.04,.23,.16,.48,.19,.72,.14,.23,.15,.52,.28,.76,.17,.16,.13,.43,.28,.62,.15,.23,.29,.45,.36,.71,.13,.17,.25,.33,.4,.48,.14,.2,.25,.43,.4,.62,.13,.21,.37,.5,.56,.56,.38,.03,.06,.27,.09,.47,.08,.26,.21,.51,.39,.72,.2,.2,.5,.27,.69,.39,.25,.11,.29,.44,.33,.67,.28,.16-.02,.47-.11,.66,.08,.04,.42-.01,.6,.17,.23,.16,.42,.36,.59,.59,.19,.15,.33,.36,.39,.58,.12,.23,.26,.45,.19,.72-.09,.13-.22,.38-.27,.57-.16,.23-.17,.5-.3,.75-.07,.23-.12,.44-.22,.65-.07,.28-.15,.56-.26,.83-.11,.34-.08,.72-.21,1.05-.02,.29-.16,.58-.26,.85-.04,.22-.13,.42-.09,.67-.01,.27-.05,.59-.02,.86,.04,.2-.03,.46-.04,.67-.03,.24-.07,.47-.07,.73-.01,.28-.07,.57-.03,.84,.04,.27,.04,.52,.14,.78,0,.18-.18,.35-.3,.46-.14,.14-.28,.34-.44,.43-.16,.17-.32,.26-.53,.39-.24,.11-.41,.27-.61,.43-.21,.2-.34-.2-.58-.16-.29,.03-.58,.1-.78,.34-.18,.14-.34,.28-.41,.49-.13,.12-.29,.21-.42,.33-.13,.21-.36,.21-.55,.32-.18,.08-.28,.33-.49,.26-.26,.04-.57,.05-.82,.15-.2,.13-.35,.28-.53,.42-.2,.06-.3,.24-.45,.34-.14,.24-.04,.55-.34,.64-.15,.13-.31,.29-.47,.41-.2,.14-.3,.38-.45,.56-.2,.24-.24,.51-.4,.77-.12,.28-.11,.59-.06,.89,.01,.18,0,.38,.09,.61,.08,.2,.02,.43,.06,.63,0,.22,.05,.46-.05,.66-.18,.21-.2,.46-.3,.7-.07,.29-.25,.55-.42,.8-.09,.19-.19,.32-.23,.54-.06,.21-.19,.43-.36,.56-.19,.24-.48,.37-.68,.61-.07,.27-.32,.13-.47,.26-.2,.12-.33,.4-.27,.64,.03,.31-.3,.57-.54,.56-.24-.02-.48,.13-.7,.19-.21,.06-.4,.24-.56,.4-.23,.11-.28,.36-.26,.58-.03,.23-.29,.26-.46,.38-.18,.19-.22,.49-.32,.73-.22,.15-.27,.4-.37,.61-.09,.21-.32,.44-.26,.73-.18,.13-.24-.49-.42-.18-.34-.17-.13,.31-.36,.17-.04,.28-.32,.05-.44,.25-.25-.03-.16-.36-.43-.41-.36-.15-.41,.33-.43,.56,.06,.24,.09,.54-.22,.44-.27-.31-.18,.09-.34,.23-.17,.08-.4,.16-.47,.35-.39,.12-.03,.63-.38,.78-.19,.2,.1,.35,.2,.51,.13,.19,.15,.48,.17,.71-.09,.18,.26,.23,.25,.44-.02,.16-.18,.33-.24,.52,0,.26,.21,.48-.06,.68,.04,.31-.3,.36-.5,.27-.24,.03-.51-.13-.74-.01,.1,.39-.28-.03-.46,0-.1,.23-.2,.01-.4-.03-.08,.24-.21-.03-.33,.19,.06,.2-.16,.37-.32,.17-.22,.14-.19,.27,.13,.19,.33-.07,.22,.39,0,.07-.17,.29-.33-.1-.43,.08,.05,.33-.2,.33-.42,.32-.13-.24-.17,.33-.05,.38-.27,.12-.24,.47-.33,.72,.02,.25,0,.45-.05,.67-.05,.21-.17,.31-.38,.32,.02,.26-.35,.36-.21,.66,.11,.23-.3,.36-.17,.65,.18,.21,.17,.51,.01,.72-.25,.19-.23,.53-.2,.8-.02,.28-.15,.5-.22,.76-.25,.14-.17,.5-.24,.76-.07,.27-.28,.39-.47,.54-.2,.19-.38,.39-.53,.59-.17,.19-.36,.39-.64,.38-.26,.06,.06,.44-.13,.61-.18,.15-.33,.29-.21,.53-.21,.12-.38,.35-.38,.61-.17,.2-.29,.45-.36,.69-.18,.2-.36,.36-.36,.65-.18,.13-.26,.35-.37,.54-.09,.25-.3,.44-.37,.7-.09,.21-.19,.45-.32,.62-.21,.21-.51-.08-.72,.13-.24,.13-.23,.51-.03,.64,.2,.22-.2,.35-.25,.56-.21,.19-.26,.56-.56,.61-.22,.14-.41,.12-.55,.37-.06,.21-.39,.25-.24,.5,.1,.26,.23,.52,.05,.79,.06,.28-.23,.4-.42,.56,.17-.01,.19,.1-.02,.26l-.25,.14s-.03-.03-.14-.03c-.24,.21-.24,.57-.45,.8-.1,.3-.36,.45-.35,.77-.27,.06-.13,.37-.3,.51-.19,.21-.26,.49-.5,.64,.01,.34-.22,.61-.35,.91-.07,.25-.25,.47-.36,.72-.27,.23-.44,.53-.64,.8,.05,.35-.22,.62-.32,.93-.15,.23-.34,.46-.45,.76-.11,.28-.46,.32-.56,.61-.12,.24-.29,.41-.44,.59-.28,.21-.33,.53-.48,.82-.2,.19-.29,.41-.52,.48-.42,.16-.17,.6-.17,.92,.38,.24,0,.42-.18,.61-.15,.2-.45,.23-.52,.48-.42,0-.34,.44-.53,.69-.07,.34-.34,.39-.32,.74-.25,.15-.39,.47-.55,.71-.28,.14-.33,.68-.7,.61-.26-.29-.32,.36-.62,.23-.03-.33-.28-.53-.36-.78-.23-.16-.66-.3-.89-.08-.46,.12,.12,.69-.24,.85,.23-.03,.19,.12-.02,.17-.14,.01-.37-.2-.47,.2-.15,.41-.49-.16-.72,.03-.22,.25-.65-.26-.63,.19,.12,.36-.04,.68-.02,1.04-.08,.38-.29,.69-.54,.97-.55-.2-.45,.53-.36,.85,0,.43,.37,.46,.43,.83,.06,.34-.22,.59-.51,.34-.42-.25-.59,.31-.93,.32-.26,0-.55-.23-.74,.04,.03,.33-.14,.57-.08,.87,0,.25-.2,.55-.46,.7-.27,.31,.23,.43,.19,.61-.24,.35-.45,.19-.75,.11-.17,.26-.45,.61-.23,.94,.18,.28,.53,.23,.8,.18,.28,.13-.18,.51-.26,.69-.26,.25-.15,.68-.07,.98,.06,.29,.34,.32,.48,.54,.3,.07,.44,.37,.66,.55,.23,.24,0,.64-.22,.85-.15,.26-.27,.58-.45,.85-.25,.22-.36,.54-.5,.84-.1,.33-.29,.61-.43,.92-.03,.36-.22,.63-.6,.71-.26,.19-.23,.55-.21,.84-.23,.26-.09,.71-.44,.91-.29,.31,.34,.71-.05,1.05-.09,.27-.25,.55-.39,.83-.18,.3-.32,.66-.5,.98-.23,.18-.71,.01-.7,.43,.42,.13,.23,.66-.06,.85-.24,.3,.08,.46,.32,.59-.06,.39,.23,.51,.57,.42,.22-.3,.46-.21,.24,.15-.17,.21-.33,.42-.52,.6-.2,.29-.28,.78-.76,.59-.25-.09-.6-.47-.79-.07,0,.26-.19,.47-.48,.24-.33,.01-.51,.28-.54,.59-.13,.33-.34,.61-.5,.94-.25,.27-.31,.66-.56,.92-.02,.09-.01,.11,0,.11-.05,.07-.12,.17-.23,.28-.42,.58-.54,1.31-.91,1.93-.35,.73-.74,1.44-1.18,2.12,.01,.44-.32,.73-.4,1.11,.28,.43,.33,1-.23,1.25-.05,.32,.21,.62-.06,.96-.19,.49-.37,1.01-.83,1.31-.39,.45-.48,1.05-.74,1.57-.17,.52-.49,.95-.89,1.32,.12,.63-.49,1.06-.53,1.59,0,.24-.33,.45-.4,.69-.32-.37-1.24-.33-1.27,.23-.2,.39-.38,.79,.07,1.14,.6-.01,.62,1.09,.11,1.14-.19,.52,.78,.29,.91,.77,.43,.45,.57,1.31,.16,1.84-.35,.33-.47,.74-.48,1.16-.34,.12-.67-.71-.91-.05-.24,.41-.65,.82-.2,1.27,.09,.3,.1,.65,.48,.64,.17,.47-.15,1.07-.69,1.19-.57,.35-.98,.93-1.46,1.39-.4,.27-.46,.66-.73,1.08-.13,.64-.87,.02-1.3,.31-.51-.15-.86,.62-.49,.94,.49,.2,.86,.73,.2,.98-.37,0-.7,.11-1,.26-.2-.62-.56,.29-.77,.48-.56,.28,.26,1-.36,1.36-.36,.38-1.03,.89-.52,1.42-.24,.42-.29,1-.53,1.39-.52-.16-.73,.49-1.25,.19-.59,.01-1.04,.44-1.59,.59-.59,.1-.96,.63-.95,1.17-.58,.2-1.12,.43-1.66,.53-.4,.37-.93,.53-1.37,.73-.12,.36-.59,.01-.66,.51-.18,.15-.47-.38-.52,.14-.08,.31-.53,.11-.5,.54-.26,.17-.55,.29-.76,.52-.58-.03-1.07,.51-1.69,.42-.37-.07-.58,.25-.94,.17-.27,.21,.49,.77-.15,.73-.36,.15-.73-.15-1.04,.02-.05,.18,.28,.23,.14,.45,.09,.21,.5,.19,.2,.46-.17,.52-.85,.35-1.24,.49,0,.52-.55,.79-.71,1.16,.23,.02,.64,.2,.17,.32-.3,.16-.99-.21-.65,.37-.06,.47,.09,1.03-.42,1.24,0,.57-.66,.9-.76,1.45,.04,.8-.7-.09-1.14,.06-.48,.38-1.07-.52-1.26,.27,.23,.62-.43,.88-.9,.98-.39,.15-.78-.04-1.18,.23-.51-.17-1.2,.6-1.55-.11-.35-.12-.49-.43-.87-.26-.35-.16-.73-.1-1.15-.31-.43-.08-.76-.44-1.22-.27-.48-.16-.88-.37-1.29-.66-.34-.42-.5-.94-.87-1.32-.3-.34-.64-.74-1.13-.48-.5-.21-.97-.28-1.5-.18-.53-.1-1.08,.14-1.6-.12-.47,.29-.94,.57-1.52,.33-.39,.43-.97,.09-1.42,.42-.45,.37-1.11,.04-1.66,.19-.6-.15-.72,.79-1.23,.55-.63,.44-.8-.73-1.44-.55-.46-.21-.59,.26-.5,.62-.37,.12-.8,.16-.84,.65-.32,.28-.89,.82-1.32,.38,0-.55,.71-.84,.8-1.42,.09-.58,.48-1.01,.75-1.51,.15-.66,.87-.71,1.27-1.15,.71-.32,1.05-1.31,.59-1.96-.33-.47-.91-.64-1.46-.66-.65-.03-1.1-.48-1.58-.85-.54-.31-1.18-.36-1.67-.79-.49-.28-.66-.91-1-1.29,.1-.49-.13-1.18-.7-.74-.72,.34-.41-.96-1.18-.73-.46-.01-1.21-.12-1.35,.46,.13,.53,.05,1.02-.42,1.34-.14,.52-.54,.67-1.02,.61-.53,.26-1.3,.29-1.43,.99-.17,.63-.85,.89-1.45,.74-.73-.32-.99,.82-1.64,.53-.38-.09-1.21-.85-1.28-.09-.12,.68,.94,.59,.91,1.15-.37,.53-1.04,.74-1.63,.4-.69-.18-1.37,.03-2.03,.15-.43,.14-.8-.05-1.13-.22-.46-.01-.83,.98-1.09,.24-.37,.29-.89,.07-1.28-.18-.24-.53-1-.48-1.5-.61-.15,.2-.5,.62-.6,.11-.27-.43-.65-.89-1.16-.89,0-.27-.23-.44-.23-.12-.38,.18-.99,1.09-1.15,.22-.4-.25-.76,.4-1.11-.11-.33-.13-.87,.34-1.09-.11,.15-.38,.63-1,.35-1.28-.21,.05-.54,.42-.65-.04-.16-.53-.99-.43-.74,.19-.28,.08-.64,.29-.65-.16-.27,.33-.63,.13-.55-.26,.16-.44-.79-.87-.97-.36-.5,.11-.92-.58-1.33-.08-.24,.57-.92,.2-1.26,.06,.33-.38-.55-.45-.22-.91,.29-.22,.86,.41,1.05-.06-.12-.29-.63-.49-.14-.77,.47,.04,1.23-.83,.48-.92-.16-.32-.51-.42-.52-.79-.47-.21-.54,.69-.95,.15-.63-.48,1.01-.36,.69-.89,.11-.45-.51,.23-.76,.16-.39,.08-.48-.39-.83-.29-.37-.46-.71,.45-1.19,.13-.37,.02-.23,.54-.7,.46-.62-.04-.62,.75-1.21,.68-.42,.22-.06,.9-.66,1.03-.41,.26-1.22,.22-1.27,.81,.17,.5,.9,.23,1.16,.29-.11,.36,.48,.8-.2,.84-.39,.17-.77-.22-.88,.33-.25,.34-.7-.25-1.06,.12-.39,.25-.13-.93-.64-.48-.19,.21-.3,.57-.59,.17-.32,.01-.63-.02-.93-.02-.45,.38,.09,1.12-.32,1.59-.25,.4,.35,.63-.13,.93-.2,.03-.14-.49-.42-.17,.09,.5-.54,.35-.6,.78-.47,.49-1.02-.11-.68-.62,.17-.67-.52-.45-.76-.16-.27-.07-.42-.16-.5-.38-.63,.09-.21,.75-.48,1.18,.08,.44,.03,.85-.09,1.26,.29,.23,.62,.57,.09,.83-.08,.3,.1,1.02-.49,.78-.37-.14-.52,.46-.9,.09-.49,.1-.69,.78-1.29,.67-.29,.14-.57-.26-.77,.17-.25,.19-.64,.52-.85,.17-.34,.51-.38,1.26-.99,1.55-.44,.45-.57-.61-.91-.14-.42-.46-1.17-.12-1.64-.51-.13-.52-.89-.22-.88,.26-.58,.07-.14,1.05-.8,.93-.47,.19-.26,.98-.56,1.34,.11,.4,.08,.82,.43,1.12-.18,.45-.85-.68-.87,.09,.14,.56-.85,.58-.86,1.11,.25,.2,.53,.76,0,.49-.55-.2-1.05-1.2-1.62-.59-.46-.1-.66,.71-1.01,.16-.34-.07-.54-.35-.82-.14,.14-.62-.48-.96-.93-1.12-.1-.57-.66-.89-.75-1.41-.23-.33-.02-1.38-.61-.93-.26,.25-.68,.11-.75,.45-.49,.4-1.11,.51-1.52,1-.54,.42-.93-.11-1.25-.49-.32,.46-.63-.1-.96,.11-.17,.36-.65,.55-.96,.66-.99-.34-2.02-.54-2.97-.99-.52-.37-.53,.6-1.11,.35-.43,.12-1.21-.11-.68-.63,.44-.32,.14-.55-.23-.68-.31-.22-.43,.3-.8-.03-.45-.11-.43-.73-.55-1.06,.46-.03,.13-.44,.47-.59,.05-.32,.55-.57,.02-.77-.44-.72-.6,.63-1.2,.3-.69-.24-1.2,.34-1.81,.44-.35-.21-1.47,.32-1.1-.44,.07-.38-.08-.79-.55-.62-.62-.12-1.02,.57-1.6,.54-.54-.23-1.2-.29-1.58-.72-.73,.31,.11-.89-.5-.92-.22-.64-1.26,.2-1.14-.65,.14-.41-.34-1.33-.79-.96-.66,.42-1.06-.41-1.57-.66-.29-.06-1.25-.36-.74-.71,.54-.06,1.04-.43,1.58-.35,.63-.15-.04-.91-.49-.8-.49-.16-.91-.96-.51-1.39,.28-.5-.3-1.28-.85-1.23-.43,.11-.81-.21-1.24,.04-.57-.09-1.01,.31-1.57,.33-.48-.18-1.16-1.01-.43-1.33,.29-.25,.51-.52,.92-.42,.44-.43,1.04-.31,1.57-.13,.58,.2,1.11,.53,1.71,.69-.08,.5,.58,.62,.94,.27,.43,.14,1.27,0,.83-.61-.21-.48-.29-1.01-.15-1.52,.23-.55,.31-1.16,.5-1.74,.17-.44,.44-.87,.82-1.14,.2-.55,.82-.7,1.06-1.23,.28-.52,.98-.45,1.43-.24,.54-.19,1.14,.3,1.58-.22,.61,.09,1.09-.31,1.29-.87,.62-.27,.54-1.22,1.23-1.31,.44-.17,.45-.55,.41-.91,.1-.52,1.19-.2,.97-.95-.08-.54,.36-.87,.82-.92-.1-.43,.21-.46,.49-.53,.27-.43,.2-.9,.66-1.21,.11-.45-.09-.92-.03-1.31-.49-.18,.2-.27-.03-.58,.35-.16,.88-.15,.95-.67,.07-.52,.09-1.02,.45-1.44-.06-.38,.17-.75,.38-.95-.39-.34,.84-.35,.21-.73-.25-.32-.2-.84,.2-.95,.24-.45,.37-1.04,.84-1.32,.4-.35,.57-.91,1.15-.99,.17-.42,.66-.65,.44-1.15,.04-.28,1-.1,.58-.49-.61-.09-.06-.89,.01-1.28,.12-.62,.35-1.36,1.08-1.47,.67,.12,.35-.7,.9-.84,.26-.26,.31-.65,.76-.53,.64-.06-.1-.82,.45-.88,.33,.4,.56-.44,.74-.68,.51-.42-.28-1.26,.51-1.47,.39-.32,.35-.74,.05-1.07-.16-.35-.02-.68,.06-.97-.34,.16-.5-.3-.17-.39,.26,.22,.58-.56,.7,.03,.43-.28,.75-.67,.8-1.2-.18-.36,.56-.75-.03-1.02-.63-.16-.58-1.05-.75-1.56,.11-.67,.64-1.17,.58-1.87-.07-.32-.82-.64-.13-.88,.57,.14,1.25-.8,.7-1.13-.28-.1-.22-.55,.05-.24,.62-.02-.26-.58,.09-.96,.02-.6,1.09,0,.77-.71-.54,.05-.97-.28-1.17-.77,.12-.45-.39-.89-.23-1.25,.72-.11,.38-.9,.21-1.34-.18-.63-.32-1.33-.95-1.6-.24-.57,.26-1.3,.87-1.3,.61-.44-.59-.91-.11-1.44,.31-.46,.56-1.02,.2-1.51,.27-.51-.21-.9-.18-1.35-.12-.36-.58,0-.84-.23-.33,.21-.39,1.16-.88,.61-.66-.2-.37-.89,.11-1.13,.03-.35-.52,.18-.54-.32-.43-.27-.15-.6,.2-.71,.24-.44,.27-.96,.36-1.45,.4-.5,.25-1.18,.71-1.66-.02-.31,0-.82,.39-.44,.36-.13,.92,.02,.79-.57,.22-.3,.6-.46,.62-.89,.42-.33,1.09-.6,.85-1.26,.15-.2,.35-.35,.55-.49,.1-.07,.27-.21,.36-.3h0Z"/></g></g></svg>