<?xml version="1.0" encoding="UTF-8"?>
<svg id="Calque_2" xmlns="http://www.w3.org/2000/svg" viewBox="0 0 228.87 203.84">
    <defs>
        <style>.cls-1{fill:rgba(0,255,0,.5);}</style>
    </defs>
    <g id="Encart_Réunion">
        <g id="Réunion">
            <path id="path3420-9" class="cls-1"
                  d="M22.3,50.35c-2.64,3.87-7.07,6.9-11.63,7.68-3.57-2.13-4.87,1.03-7.2,2.74-.15,2.76-5.52,3.59-2.59,7.47,3.32,3.7,.26,6.42,.74,11.57,.7,3.03,2.97,5.54,5.02,7.86,3.47,2.68,6.98,5.51,7.98,8.76,1.65,2.79,3.93,4.59,5.36,6.56,.88,2.94-1.36,6.82,2.71,7.58,3.77,1.45,2.87,5.57,3.2,8.71,.78,4.27-.92,8.36-2.16,11.76,2.52,2.17,3.09,6.17,4.21,9.43,1.14,3.72,6.03,2.8,6.98,5.75,3.08,1.83,4.11,4.29,7.15,6.32,2.53,3.26-1.41,7.75,4.1,9,7.13,1.04,14.44,2.02,20.68,5.93,3.04,3.03,4.52,7.11,7.76,9.77,3.47,3.87,10.18,1.26,13.09,4.6-.22,4.06,5.65,4.05,7.56,5.46,2.85-1.83,1.93,4.07,5.57,1.87,4.74-.95,8.47,2.99,12.8,4.21,3.73,.15,6.35,1.97,9.13,3.57,.03,3.11,4.31-.92,6.57,1.48,4.4,.98,7.59-2.06,11.04,1.8,2.07,2.15,4.88,4.24,8.3,2.92,4.32-5.07,8.86,2.56,11.96,.22,3.44-2.77,9.05,.11,10.79-4.5,5.78-.27,12,1.84,17.08-1.87,3.99-.76,8.44-.56,11.39-2.74,4.5,1.76,8.77-.51,11.82-3.75,3.24-1.7,5.94-5.2,7-8.91-2.42-5.1-1.4-10.54-1.13-15.89-1.75-4.61-.86-9.82-1.03-14.6,1.49-4.16,1.21-9.14,3.18-13.18,.3-4.34,7.56-6.97,4.71-11.58,.02-3.61,7.16-2.17,3.28-8.1,2.57-4.58-2.82-6.49-2.34-10.99-2.76-2.34-6.57-1.89-8.72-5.23-2.08-4.52-7.35-.28-9.11-4.56-1.3-5.25-6.67-6.82-8.19-11.78-2.04-2.83-5.33-4.85-7.14-8.22-4.06-2.13-.24-8.08-1.97-8.41-2.78,.13-2.4-5.81-5.73-6.78-5.76-1.53-5.31-8.67-5.73-14.05-.22-4.86,.54-10.23-3.26-14.07-1.94-5.55-7.15-8.79-10.22-13.49-4.61-3.24-10.18-6.57-15.71-5.52-4.25-1.34-7.39-5.69-11.98-6-4.02,1.92-8.1-3.44-12.55-1.43-4.37,2.53-9.62-1.94-14.36-2.42-5.06-3.47-10.24,1.1-15.69-.55-4.38,.3-6.62-7.09-10.81-4.06-5.24,1.13-11.4-.33-16.63,2.61-3.01,1.96-6.38,3.8-9.18,6.29-3.62,1.24-4.72,5.39-8.85,6.48-1.19,3.76-5.22,5.52-8.81,5.82-3.03-1.34,.67,4.17-4.12,1.65,4.65-3.19-5.91,1.24-7.14-1.82-3.1-2.38-6.33,.7-3.74,3.39,1.48,1.53-3.08,.6-2.31,6-2.66,3.89,2.85,8.21,.65,12.79-.67,1.97-.37,4.82-1.77,6.42h0Z"/>
        </g>
    </g>
</svg>