<?xml version="1.0" encoding="UTF-8"?>
<svg id="Calque_2" xmlns="http://www.w3.org/2000/svg" viewBox="0 0 201.07 214.63">
    <defs>
        <style>.cls-1{fill:#fff;}.cls-2{fill:rgba(0,255,0,.5);}</style>
    </defs>
    <g id="Encart_Martinique">
        <g id="Terre_Martinique">
            <path id="path32067-4" class="cls-1"
                  d="M91.77,178.84c-1.27,1.38-.41,.21,0,0Zm82.78,12.73c1.89,.25,0-.75,0,0Zm-20.55-18.59c-.49,.68-.45-.74,0,0Zm-15.45-116.3c-.65-.01,.56-.45,0,0Zm20.58-4.21c-.15,.4-.62-.48,0,0Zm-25.14,16.81c1.67-.25-.26,1.08,0,0Zm21.9,17.76c-.08,.6-.77-.31,0,0Zm-.07,4.05c-.26,.62-.35-.7,0,0Zm.31-50.69c-.84,.49,.34-.75,0,0Zm12.73,47.54c.27,1.12-1.07-.89,0,0ZM14.78,27.08c-.32,.4-.09-.48,0,0Zm66.69-.97l-.1,.06,.1-.06Zm66.63,61.22c.38-.34,.2,.54,0,0Zm-72.97,53.61c-2.02-.3,1.64-1.41,0,0Zm17.67-.26c.6,.07-.04-.42,0,0Zm-.79,.27c-.2,.41-.33-.28,0,0Zm13.73-2.61c.56-.76-1.12,.1,0,0Zm-5.98-.22c-5.45,1.84,3.66,1.87,0,0Zm-34.5-15.78c-.17,1.67,2.32-.37,0,0ZM121.64,52.96c-.25,2.07,2.07,.52,0,0Zm-10.6-5.51c.32,2.27,2.72-.26,0,0Zm43.29,44.6c-.86,1.9,2.9,.32,0,0Zm-.22-6.78c-.46,2.87,2.38,.78,0,0Zm-7.1,.74c-.36,2.43,2.84-.34,0,0Zm-3.27-.21c-2.36,2.87,2.03,1.3,0,0Zm4.74-3.39c.58,3.32,9.25,2.44,6.43,.95-2.32-1.47-4.29,.08-6.43-.95Zm13.75,34c-1.28,2.06,2.33,.35,0,0Zm4.74-2.75c-4.96,3.06-3.04,1.36,.21,1.99,2.26,.97-.33-1.72-.21-1.99Zm2.03-5.08c-3.31,3.13,2.65,1.89,0,0Zm-2.26-.53c-2.63,2.73,2.3,1.05,0,0Zm-2.48,2.75c-4.91,1.86,.73,2.4,0,0Zm-12.06-4.98c-1.76,4.62,5.26,.71,0,0Zm21.76,24.68c-4.97,2.39,2.64,1.88,0,0Zm-13.42,67.79c-1.26,3.83,2.86,.75,0,0Zm15.11-10.06c-2.48,1.78,1.79,1.32,0,0Zm1.13-4.87c-2.86,2.63,5.1,.55,0,0Zm-69.78-14.51c4.24,3.43,4.65-.76,4.28-2.63,2.06,4.51,4.2-5.31,4.34,.91,.72-1.32,1.05,5.49,4.25,.97,3.74,1.43,5.54,2.68,10.04,2.48,2.09,1.19,5.65,1.5,8.7-.53,3.69-1.38,4.53-.23,4.44,2.71,3.22,1.55,5.86,7.75,7.96,1.48,1.27-1.56,9-7.85,6.03-3.9,1.7,.53,4.18-2.71,2.23,1.17,5.34-2.48,1.11,1.23,2.71,2.77-2.75,.2-3.12-1.72-4.43,1.66,2.79,2.4-3.25-.24-3.43,.81,3.95,4.17-2.11,8.79-3.51,11.7,4.23,1.4,1.31,4.39,3.84,5.25,4.33,1.7,1.57,4.93,7.74,2.95,.54-.78,2.34,1.27,4-.64-.73-3.15,4.47-5.62,6.77-5.42-2.28-1.3-2.5-3.25-4.48-3.9,1.55-3.61,4.85,3.48,6.07-1.29,.81-3.3,5.73-5.5,4.85-9.79,1.51-2.67,2.54-2.88,5.35-2.6-2.3-.94-6.15-4.7-4.57-6.19,1.84,3.95,5.03-3.26,2.29-5.05-.98-3.16-4.26-.49-3.93-5.76,3.35-7.16-6.48-.48-4.56-4.73,.75-2.74,1.91-2.31,4.03-2.44,4.8-5.64-8.48-3.27-1.86-4.74,4.01-.01-1.92-4.77-3.43-5.65,.53-2.14,3.3-2.73,3.34-5.66,3.54-5.36-9.68,7.01-4.32-.72-7.04,2.7,2.75-4.13-3.84-.97-5.57-3.23,8.6-3.29-.58-4.21,3.67-1.45,.21-1.76,.02-5.07-1.63,1.55-6.72,2.11-8.29-1.18,2.56-2.34,.27-3.62-2.39-6.04,4.81-1.76,2-4.22-1.07-2.05-2.91,.72-1.9-.53-3.5-1.07-4.67,2.13-3.77-2.86-2.35-3.63,4.26-.34-2.54-3.66,2.8-4.4-1.72-.11-5.62-.59-6.71-2.53,2.03-1.54,3.37,.27,6.02-.7,.37-2.35,2.75-1.08,3.06-4.81-2.13-4.7-5.89,4.69-5.93-.97-3.05-.3-3.75,1.1-6-.31-2.72,1.04-5.46,7.42-8.42,2.75-1.95-3.46-6.03-3.92-1.98-7.57,.5-2.94,8.5,3.36,3.52-2.42,2.84-2.46,6.08-.98,8.25-2.16,1.54-2.13,4.52-3.13,2.39-4.47-5.7,3.67-4.55-4.03-5.23-4.6-1.3,2.39-10.73,3.79-5.16-.92,2.46-2.43-1.14-2.76-2.82,.33-4.89-2.24-3.96-6.46-.97-6.88-5.07-.22-.75-6.93,2.73-5.67,4.58-.88,7.77,2.84,9.1,5.58,3.58-.92,4.97,.39,7.34-.42,1.03-2.63-5.5-3.46-1.92-4.2,2.7-1.19,2.54-3.4-.78-5.51,2.23-2.77,7.45-3.07,6.86,1.28,.27,2.78,4.06-1.59,2.05-3.37,1.1-2.27,.15-3.95-1.62-3.76-3.15-1.4-3.73-1.2-7.27,2.13-3.02,2.9-5.83-.25-6.6,2.35,.6,2.82-4.95,1.69-6.32,.92-3.4,.83-6.46,2.06-8.93,4.56-.09,3.63-4.86,8.16-5,1.66-.8-1.97-3.14-6.2-4.73-8.58-5.86-.31,.87-5.22-5.19-3.66-2.07-3.6-8.32-6.61-5.9-10.74-1.02-2.93-1.98-.65-5.51-.69-1.34-3-3.61-6.29-5.9-6.87,1.81-2.65-4.77-2.27-5.82-3.99-4.16,3.27-6.61-1.29-9.14-2.74-4.2-1.1-7.74-3.49-11.36-5.93-2.46-2.94-7.29-3.67-10.51-4.94-4.04-1.04-8.22-2.86-12.25-2.12-4.24-.18-9.68,.73-12.4,1.72-1.9,2.08-6.38,3.41-10.23,4.53-1.75,1.29-2.64,4.7-5.06,6.04-1.25,3.57-4.53,6.9-3.77,11.24,.08,4.87,3.36,8.39,5.81,12.97,6.23,1.34,7.68,8.36,13.31,11.25,4.58,4.56-.49,9.4-.93,14.46-1.37,3.87,1.9,8.29,4.07,11.56,2.93,3.39,5.53,7.42,7.02,10.57,.45,3.81,6.59,3.17,6.93,7.11,2.81,2.9,6.83,2.54,10.61,4.39,3.49,2.35,5.48,5.66,7.92,8.75,.97,3.93,6.35-.47,8.48,1.07-.49,.75,2.91,.15,3.48,.81,1.1-2.32,1.69,5.2,4.7,.42,1.91,.72,.49,4.77,3.69,.81,6.01,2.89-1.99-5.89,5.5-4.39,2.77-5.17,5.38,2.64,1.99,2.89,6.24,.27-.13,2.56,.2,5.07,2.1,1.64,5.04,1.44,3.34,3.78,4.69-2.23-.48,2.73,2.32,4.89-.13,2.27,7.43-.5,5.85,2.98,5,1.69-4.82,.75,.63,3.15-3.77,2.39-5.76,2.01-8.81,4.56-.85-4.04-3.87,.75-6.12-1.04,1.61-2.6-9.01-.92-2.64-4.23,2.44-5.57-4.05,.14-4.97-1.84,1.36-2.76-.92-3.82-2.53-1.22,3.23,2.3-3.71,2.53-4.26,6.46-3.77-1.97-5.06,.9-8.37,2.28,1.03,3.61-4.58,3.01-3.74,7.52-4.88,5.51,7.02,.06,5.04,6.09-4.47,.27-.58,3.31,2.02,3.78,.79,3.01-3.87,8.15,2.09,7.61,2.4,1.42,7.54,9.79,11.18,2.64-.33-4.9,10.15-9.51,13.55-5.32,3.32,5.03,3.43-5.47,5.14,1.42l.11,.61h0Z"/>
        </g>
        <g id="Martinique">
            <path id="path32067" class="cls-2"
                  d="M91.77,178.84c-1.27,1.38-.41,.21,0,0Zm82.78,12.73c1.89,.25,0-.75,0,0Zm-20.55-18.59c-.49,.68-.45-.74,0,0Zm-15.45-116.3c-.65-.01,.56-.45,0,0Zm20.58-4.21c-.15,.4-.62-.48,0,0Zm-25.14,16.81c1.67-.25-.26,1.08,0,0Zm21.9,17.76c-.08,.6-.77-.31,0,0Zm-.07,4.05c-.26,.62-.35-.7,0,0Zm.31-50.69c-.84,.49,.34-.75,0,0Zm12.73,47.54c.27,1.12-1.07-.89,0,0ZM14.78,27.08c-.32,.4-.09-.48,0,0Zm66.69-.97l-.1,.06,.1-.06Zm66.63,61.22c.38-.34,.2,.54,0,0Zm-72.97,53.61c-2.02-.3,1.64-1.41,0,0Zm17.67-.26c.6,.07-.04-.42,0,0Zm-.79,.27c-.2,.41-.33-.28,0,0Zm13.73-2.61c.56-.76-1.12,.1,0,0Zm-5.98-.22c-5.45,1.84,3.66,1.87,0,0Zm-34.5-15.78c-.17,1.67,2.32-.37,0,0ZM121.64,52.96c-.25,2.07,2.07,.52,0,0Zm-10.6-5.51c.32,2.27,2.72-.26,0,0Zm43.29,44.6c-.86,1.9,2.9,.32,0,0Zm-.22-6.78c-.46,2.87,2.38,.78,0,0Zm-7.1,.74c-.36,2.43,2.84-.34,0,0Zm-3.27-.21c-2.36,2.87,2.03,1.3,0,0Zm4.74-3.39c.58,3.32,9.25,2.44,6.43,.95-2.32-1.47-4.29,.08-6.43-.95Zm13.75,34c-1.28,2.06,2.33,.35,0,0Zm4.74-2.75c-4.96,3.06-3.04,1.36,.21,1.99,2.26,.97-.33-1.72-.21-1.99Zm2.03-5.08c-3.31,3.13,2.65,1.89,0,0Zm-2.26-.53c-2.63,2.73,2.3,1.05,0,0Zm-2.48,2.75c-4.91,1.86,.73,2.4,0,0Zm-12.06-4.98c-1.76,4.62,5.26,.71,0,0Zm21.76,24.68c-4.97,2.39,2.64,1.88,0,0Zm-13.42,67.79c-1.26,3.83,2.86,.75,0,0Zm15.11-10.06c-2.48,1.78,1.79,1.32,0,0Zm1.13-4.87c-2.86,2.63,5.1,.55,0,0Zm-69.78-14.51c4.24,3.43,4.65-.76,4.28-2.63,2.06,4.51,4.2-5.31,4.34,.91,.72-1.32,1.05,5.49,4.25,.97,3.74,1.43,5.54,2.68,10.04,2.48,2.09,1.19,5.65,1.5,8.7-.53,3.69-1.38,4.53-.23,4.44,2.71,3.22,1.55,5.86,7.75,7.96,1.48,1.27-1.56,9-7.85,6.03-3.9,1.7,.53,4.18-2.71,2.23,1.17,5.34-2.48,1.11,1.23,2.71,2.77-2.75,.2-3.12-1.72-4.43,1.66,2.79,2.4-3.25-.24-3.43,.81,3.95,4.17-2.11,8.79-3.51,11.7,4.23,1.4,1.31,4.39,3.84,5.25,4.33,1.7,1.57,4.93,7.74,2.95,.54-.78,2.34,1.27,4-.64-.73-3.15,4.47-5.62,6.77-5.42-2.28-1.3-2.5-3.25-4.48-3.9,1.55-3.61,4.85,3.48,6.07-1.29,.81-3.3,5.73-5.5,4.85-9.79,1.51-2.67,2.54-2.88,5.35-2.6-2.3-.94-6.15-4.7-4.57-6.19,1.84,3.95,5.03-3.26,2.29-5.05-.98-3.16-4.26-.49-3.93-5.76,3.35-7.16-6.48-.48-4.56-4.73,.75-2.74,1.91-2.31,4.03-2.44,4.8-5.64-8.48-3.27-1.86-4.74,4.01-.01-1.92-4.77-3.43-5.65,.53-2.14,3.3-2.73,3.34-5.66,3.54-5.36-9.68,7.01-4.32-.72-7.04,2.7,2.75-4.13-3.84-.97-5.57-3.23,8.6-3.29-.58-4.21,3.67-1.45,.21-1.76,.02-5.07-1.63,1.55-6.72,2.11-8.29-1.18,2.56-2.34,.27-3.62-2.39-6.04,4.81-1.76,2-4.22-1.07-2.05-2.91,.72-1.9-.53-3.5-1.07-4.67,2.13-3.77-2.86-2.35-3.63,4.26-.34-2.54-3.66,2.8-4.4-1.72-.11-5.62-.59-6.71-2.53,2.03-1.54,3.37,.27,6.02-.7,.37-2.35,2.75-1.08,3.06-4.81-2.13-4.7-5.89,4.69-5.93-.97-3.05-.3-3.75,1.1-6-.31-2.72,1.04-5.46,7.42-8.42,2.75-1.95-3.46-6.03-3.92-1.98-7.57,.5-2.94,8.5,3.36,3.52-2.42,2.84-2.46,6.08-.98,8.25-2.16,1.54-2.13,4.52-3.13,2.39-4.47-5.7,3.67-4.55-4.03-5.23-4.6-1.3,2.39-10.73,3.79-5.16-.92,2.46-2.43-1.14-2.76-2.82,.33-4.89-2.24-3.96-6.46-.97-6.88-5.07-.22-.75-6.93,2.73-5.67,4.58-.88,7.77,2.84,9.1,5.58,3.58-.92,4.97,.39,7.34-.42,1.03-2.63-5.5-3.46-1.92-4.2,2.7-1.19,2.54-3.4-.78-5.51,2.23-2.77,7.45-3.07,6.86,1.28,.27,2.78,4.06-1.59,2.05-3.37,1.1-2.27,.15-3.95-1.62-3.76-3.15-1.4-3.73-1.2-7.27,2.13-3.02,2.9-5.83-.25-6.6,2.35,.6,2.82-4.95,1.69-6.32,.92-3.4,.83-6.46,2.06-8.93,4.56-.09,3.63-4.86,8.16-5,1.66-.8-1.97-3.14-6.2-4.73-8.58-5.86-.31,.87-5.22-5.19-3.66-2.07-3.6-8.32-6.61-5.9-10.74-1.02-2.93-1.98-.65-5.51-.69-1.34-3-3.61-6.29-5.9-6.87,1.81-2.65-4.77-2.27-5.82-3.99-4.16,3.27-6.61-1.29-9.14-2.74-4.2-1.1-7.74-3.49-11.36-5.93-2.46-2.94-7.29-3.67-10.51-4.94-4.04-1.04-8.22-2.86-12.25-2.12-4.24-.18-9.68,.73-12.4,1.72-1.9,2.08-6.38,3.41-10.23,4.53-1.75,1.29-2.64,4.7-5.06,6.04-1.25,3.57-4.53,6.9-3.77,11.24,.08,4.87,3.36,8.39,5.81,12.97,6.23,1.34,7.68,8.36,13.31,11.25,4.58,4.56-.49,9.4-.93,14.46-1.37,3.87,1.9,8.29,4.07,11.56,2.93,3.39,5.53,7.42,7.02,10.57,.45,3.81,6.59,3.17,6.93,7.11,2.81,2.9,6.83,2.54,10.61,4.39,3.49,2.35,5.48,5.66,7.92,8.75,.97,3.93,6.35-.47,8.48,1.07-.49,.75,2.91,.15,3.48,.81,1.1-2.32,1.69,5.2,4.7,.42,1.91,.72,.49,4.77,3.69,.81,6.01,2.89-1.99-5.89,5.5-4.39,2.77-5.17,5.38,2.64,1.99,2.89,6.24,.27-.13,2.56,.2,5.07,2.1,1.64,5.04,1.44,3.34,3.78,4.69-2.23-.48,2.73,2.32,4.89-.13,2.27,7.43-.5,5.85,2.98,5,1.69-4.82,.75,.63,3.15-3.77,2.39-5.76,2.01-8.81,4.56-.85-4.04-3.87,.75-6.12-1.04,1.61-2.6-9.01-.92-2.64-4.23,2.44-5.57-4.05,.14-4.97-1.84,1.36-2.76-.92-3.82-2.53-1.22,3.23,2.3-3.71,2.53-4.26,6.46-3.77-1.97-5.06,.9-8.37,2.28,1.03,3.61-4.58,3.01-3.74,7.52-4.88,5.51,7.02,.06,5.04,6.09-4.47,.27-.58,3.31,2.02,3.78,.79,3.01-3.87,8.15,2.09,7.61,2.4,1.42,7.54,9.79,11.18,2.64-.33-4.9,10.15-9.51,13.55-5.32,3.32,5.03,3.43-5.47,5.14,1.42l.11,.61h0Z"/>
        </g>
    </g>
</svg>