<svg width="128" height="274" viewBox="0 0 128 274" fill="none" xmlns="http://www.w3.org/2000/svg">
<circle cx="63.6204" cy="63.6204" r="63.6204" fill="url(#paint0_linear_243_2)"/>
<g clip-path="url(#clip0_243_2)">
<path d="M76.8444 68.0889C74.8442 75.0693 69.3573 77.8885 60.4167 78.158C57.2158 78.2543 54.0369 76.45 51.6822 73.6639C47.4702 68.672 45.9233 60.5336 51.6822 54.5295C51.6822 54.5295 55.2513 50.6322 60.8866 49.5706C63.45 49.092 66.0932 49.2763 68.566 50.1042C78.4463 53.3304 78.8474 61.1167 76.8444 68.0889V68.0889Z" fill="#FFCD50"/>
<path d="M51.6877 73.6724C47.4757 68.6805 45.9288 60.5421 51.6877 54.538C51.6877 54.538 55.2568 50.6407 60.8921 49.5791C54.9381 52.1837 45.8134 58.7709 51.6877 73.6724V73.6724Z" fill="#FFC033"/>
<path d="M62.7577 66.1382C63.2852 66.8671 64.3403 66.9358 65.1288 66.6635C65.4091 66.5645 65.6509 66.3775 65.824 66.1355C65.8432 66.108 65.8707 66.0887 65.9036 66.0832C65.9366 66.0777 65.9696 66.0832 65.997 66.1025C66.0135 66.1135 66.0273 66.13 66.0355 66.1465C66.0438 66.163 66.0493 66.185 66.0493 66.2042C66.041 66.4105 65.9751 66.614 65.8569 66.7846C65.1426 67.7995 63.4116 67.8022 62.6917 66.7846C62.5901 66.6333 62.3345 66.1025 62.634 66.064C62.6588 66.064 62.6835 66.0722 62.7055 66.0832C62.7274 66.097 62.7439 66.1135 62.7577 66.1355V66.141V66.1382Z" fill="#302826"/>
<path d="M67.0302 63.6797C67.1868 62.1725 68.6567 61.0888 70.1267 60.9623C71.2944 60.8413 72.6462 61.3006 73.3798 62.3128C73.6655 62.6593 73.8139 63.0994 73.7947 63.5477C73.7809 63.6907 73.7287 63.8255 73.6408 63.9355C73.5529 64.0482 73.4347 64.1307 73.3001 64.1775C73.1655 64.2243 73.0226 64.227 72.8852 64.1913C72.7478 64.1555 72.6242 64.0812 72.528 63.974C72.3275 63.7595 72.1571 63.5202 72.0252 63.2589C71.8192 62.9233 71.5444 62.64 71.2147 62.4283C70.885 62.2165 70.5141 62.0817 70.1267 62.035C68.9589 61.8782 67.6758 62.5438 67.2582 63.7209C67.2472 63.7484 67.228 63.7704 67.2032 63.7814C67.1785 63.7952 67.1483 63.798 67.1208 63.7925C67.0933 63.787 67.0686 63.7704 67.0521 63.7484C67.0357 63.7264 67.0274 63.6989 67.0274 63.6687V63.6742L67.0302 63.6797Z" fill="#302826"/>
<path d="M61.3207 63.7291C60.9058 62.5547 59.6199 61.8864 58.4522 62.0431C58.0648 62.0899 57.6912 62.2247 57.3642 62.4364C57.0345 62.6482 56.757 62.9315 56.5537 63.2643C56.2597 63.8281 55.7211 64.59 55.026 64.0371C54.5369 63.5613 54.8502 62.7692 55.1964 62.3127C55.9355 61.3005 57.2763 60.8495 58.4495 60.9622C59.9194 61.0832 61.3921 62.1669 61.5487 63.6796C61.5487 63.7071 61.5405 63.7346 61.524 63.7594C61.5075 63.7814 61.4828 63.7979 61.4553 63.8034C61.4278 63.8089 61.3976 63.8034 61.3729 63.7924C61.3482 63.7786 61.3289 63.7566 61.3179 63.7319V63.7264L61.3207 63.7291Z" fill="#302826"/>
<path d="M67.0686 49.6858L66.7251 49.6115C65.3294 49.3282 63.9034 49.2429 62.4857 49.3557C62.3373 49.3557 62.1862 49.3805 62.0378 49.397C62.0021 47.2737 61.9664 40.351 62.8291 34.5504C63.6204 29.2367 65.17 24.8636 68.1786 26.038C69.7447 26.6486 70.5333 28.2191 70.8163 30.2874C71.6735 36.473 68.011 47.0949 67.0686 49.6858V49.6858Z" fill="#F5FFFF"/>
<path d="M78.0974 48.3764C75.8966 50.629 74.0392 52.2764 73.6161 52.6477L73.5859 52.6752C72.9567 52.1857 72.289 51.7511 71.5856 51.3798C71.124 51.1323 70.6377 50.8985 70.1157 50.6812L69.4013 50.2632C69.4013 50.2632 73.2644 42.4823 77.4791 36.8496C80.6553 32.6057 84.0321 29.5803 86.1065 32.0199C89.2662 35.7329 82.8726 43.4807 78.0974 48.3764Z" fill="#F5FFFF"/>
<path d="M77.4736 36.836C75.6602 43.7779 71.6241 51.3854 71.6241 51.3854H71.5856C71.124 51.1379 70.6377 50.9041 70.1157 50.6868C69.6293 50.4778 69.1155 50.2908 68.5743 50.1148C68.066 49.9497 67.5659 49.8122 67.0741 49.6967L66.7307 49.6224C67.0659 46.5228 68.3187 36.2694 70.8218 30.2901C72.1928 27.0089 73.9403 25.0121 76.1246 26.1892C78.9134 27.6937 78.71 32.1191 77.4736 36.836V36.836Z" fill="#F5FFFF"/>
<path d="M83.3177 52.8656C80.1745 54.1418 77.2401 55.0246 76.0504 55.3739C75.9817 55.2639 75.913 55.1594 75.8416 55.0549C75.2371 54.1913 74.5118 53.4212 73.6902 52.7666L73.6188 52.6566L73.1407 51.9277C73.1407 51.9277 75.2399 50.2995 78.0918 48.3715C83.7683 44.5457 92.4314 39.5428 93.5496 43.8279C94.4975 47.4529 88.6178 50.7148 83.3177 52.8629V52.8656Z" fill="#F5FFFF"/>
<path d="M99.968 54.0423C99.7592 56.8642 96.3549 58.3907 92.1951 59.191C86.8539 60.2252 80.2872 60.0684 77.6825 59.9529C77.6687 59.8346 77.6495 59.7191 77.6303 59.6008C77.405 58.0936 76.8665 56.6524 76.0532 55.368C75.9845 55.258 75.9158 55.1535 75.8444 55.049C76.9709 54.6777 79.8888 53.7453 83.3315 52.8652C90.6372 51.0004 100.303 49.3942 99.968 54.0423Z" fill="#F5FFFF"/>
<path d="M99.6465 72.3901C98.0282 75.3495 93.0303 74.706 88.038 73.119C83.3452 71.6228 78.6551 69.2877 76.784 68.3086C76.806 68.2371 76.828 68.1656 76.8472 68.0996C76.8884 67.9538 76.9296 67.808 76.9708 67.6595C77.1906 66.8454 77.3857 66.023 77.5176 65.2007C77.6302 64.5406 77.7127 63.8777 77.7621 63.2231C81.0894 63.6219 92.0275 65.1209 97.2121 67.9648C99.4322 69.1832 100.592 70.6519 99.6465 72.3901V72.3901Z" fill="#F5FFFF"/>
<path d="M103.246 64.4524C102.586 66.6334 100.245 67.6428 97.2149 67.9591C90.4641 68.6687 80.2844 65.9734 77.5231 65.195C77.6357 64.5349 77.7181 63.8721 77.7676 63.2175C77.8555 62.1283 77.8308 61.0337 77.6907 59.95C77.6769 59.8318 77.6577 59.7163 77.6385 59.598C80.0316 59.389 86.4005 58.8966 92.1951 59.1799C98.6216 59.5127 104.353 60.7916 103.246 64.4524V64.4524Z" fill="#F5FFFF"/>
<path d="M95.6818 82.737C94.5003 83.9224 92.7694 84.0186 90.7801 83.4548C85.013 81.8128 77.1605 74.5849 74.8443 72.3708C74.8965 72.2993 74.9459 72.2278 74.9954 72.1508C75.7839 70.9736 76.3829 69.6809 76.7786 68.3195C76.8005 68.248 76.8225 68.1765 76.8417 68.1105C76.883 67.9647 76.9242 67.8189 76.9654 67.6704C78.6964 68.4075 83.587 70.5555 88.0326 73.1327C93.5195 76.2928 98.3002 80.1104 95.6818 82.737V82.737Z" fill="#F5FFFF"/>
<path d="M82.2901 97.2617C78.4463 98.4802 74.6409 92.5613 71.9675 86.8901C70.5443 83.8372 69.3024 80.7017 68.2528 77.4975L69.7805 76.3781L69.8629 76.3396C70.5498 76.0343 71.2092 75.674 71.8329 75.2587C72.0088 75.1432 72.1736 75.025 72.3412 74.8984C73.1325 75.8501 76.0504 79.4146 78.7678 83.4384C82.694 89.2554 86.1972 96.0186 82.2901 97.259V97.2617Z" fill="#F5FFFF"/>
<path d="M91.7802 88.9664C88.7276 91.4445 83.2545 87.616 78.7705 83.4492C76.2015 81.0316 73.7864 78.4545 71.5389 75.7316L71.8329 75.2668C72.0087 75.1513 72.1736 75.033 72.3412 74.9065C73.3001 74.1942 74.1436 73.3361 74.836 72.3597C74.8882 72.2882 74.9376 72.2167 74.9871 72.1396C77.8226 73.7294 86.8043 78.9496 90.7691 83.4519C92.6869 85.6192 93.437 87.6188 91.7774 88.9637L91.7802 88.9664Z" fill="#F5FFFF"/>
<path d="M69.1512 101.038C67.7307 100.829 66.7087 99.8035 65.9833 98.2881C63.3291 92.7516 64.6535 80.6582 65.0216 77.7428L65.2579 77.7043C66.8103 77.4512 68.3297 77.0084 69.7777 76.3896L69.8601 76.3511C70.0497 77.0964 71.2092 81.7886 71.9592 86.8878C72.9896 93.8847 73.2451 101.646 69.1512 101.038V101.038Z" fill="#F5FFFF"/>
<path d="M65.9833 98.2874C65.4146 101.45 64.2166 103.499 61.9664 102.938C60.4058 102.55 59.4112 101.25 58.8094 99.4233C56.7927 93.2845 59.2628 81.2296 59.9469 78.1657H60.414C61.1421 78.1437 61.8455 78.1052 62.5296 78.0474C63.3979 77.9759 64.2249 77.8741 65.0244 77.7421L65.2607 77.7036C65.6729 80.5668 67.1538 91.7828 65.9833 98.2874Z" fill="#F5FFFF"/>
<path d="M59.6941 78.1546C59.1364 80.1789 56.441 89.6237 53.1192 95.6443C51.0036 99.4755 48.6352 101.918 46.3987 100.169C43.2472 97.7043 45.5442 91.4994 48.5583 86.0042C50.4156 82.6762 52.49 79.4748 54.7623 76.4219C55.0095 76.5841 55.2623 76.7382 55.5178 76.8784C56.7323 77.5743 58.0786 78.0006 59.4688 78.1326C59.5403 78.1464 59.6282 78.1491 59.6969 78.1546H59.6941Z" fill="#F5FFFF"/>
<path d="M64.4254 78.4219C64.4254 78.4219 62.5873 94.0935 58.8122 99.4238C57.7186 100.964 56.4657 101.643 55.0453 100.832C53.4599 99.9243 52.9654 98.0073 53.1192 95.6448C53.5094 89.5802 58.1528 80.5727 59.4606 78.1386C59.5375 78.1386 59.6172 78.1524 59.6941 78.1551C59.7711 78.1606 59.8617 78.1551 59.9469 78.1661H60.414C61.1421 78.1441 61.8455 78.1056 62.5296 78.0479L64.4227 78.4191L64.4254 78.4219Z" fill="#F5FFFF"/>
<path d="M55.5151 76.8702C53.3527 80.0304 51.031 83.0778 48.5555 85.9959C44.2748 90.9686 39.2715 95.4407 37.1778 92.22C34.683 88.3915 41.0848 82.1124 46.242 77.9318C48.8385 75.8251 51.1245 74.2546 51.7976 73.8008C51.88 73.897 51.9625 73.9878 52.0476 74.0813C52.8444 74.9724 53.7539 75.759 54.7512 76.4164C55.0123 76.5869 55.2595 76.7382 55.5178 76.8702H55.5151Z" fill="#F5FFFF"/>
<path d="M48.2725 60.6894C47.9044 62.2709 47.8302 63.9046 48.0472 65.5136C43.9396 65.1588 23.0719 62.9942 26.0722 57.1139C27.8169 53.698 34.1528 54.8999 39.7963 56.8141C42.7142 57.8263 45.5717 59.0062 48.355 60.3456C48.3247 60.4611 48.2973 60.5739 48.2698 60.6867L48.2725 60.6894Z" fill="#F5FFFF"/>
<path d="M50.3991 56.0725C50.3414 56.1522 50.2837 56.232 50.2315 56.3118C49.377 57.5384 48.7451 58.9054 48.3604 60.3521C48.3302 60.4648 48.3027 60.5776 48.2753 60.6904C46.7586 60.0633 43.3324 58.6276 39.7963 56.8178C33.5565 53.6274 26.9651 49.29 29.8418 46.3031C31.9217 44.1386 35.892 45.5165 39.8375 47.8929C44.2885 50.5717 48.7176 54.513 50.4019 56.0725H50.3991Z" fill="#F5FFFF"/>
<path d="M53.677 52.821C53.5891 52.8843 53.5067 52.9475 53.4242 53.0081C52.8033 53.4729 52.2208 53.9872 51.6823 54.5455C51.2207 55.0268 50.7921 55.5384 50.3992 56.0802C50.3415 56.16 50.2838 56.2397 50.2316 56.3195C48.4731 55.0653 43.6869 51.5779 39.8348 47.9034C35.7382 43.9786 32.7076 39.864 35.5266 38.0433C39.9694 35.1691 47.6159 44.3829 51.479 49.6608C52.556 51.1488 53.3391 52.2985 53.677 52.821V52.821Z" fill="#F5FFFF"/>
<path d="M57.9164 50.4429C57.7928 50.4896 57.6664 50.5446 57.5455 50.5969C56.1745 51.18 54.8749 51.9226 53.6769 52.8137C53.589 52.8769 53.5066 52.9402 53.4242 53.0007C53.1961 52.6239 52.4543 51.3945 51.4844 49.6727C47.7422 43.0168 40.626 29.0064 46.4921 28.0823C50.5585 27.4415 53.5341 33.8031 55.4326 39.9529C56.4712 43.3964 57.301 46.8976 57.9137 50.4429H57.9164Z" fill="#F5FFFF"/>
<path d="M52.0889 74.1537C52.0889 74.1537 49.5941 75.9112 46.2476 77.9438C39.8018 81.8493 30.2348 86.7532 29.2264 82.0391C28.3499 77.93 35.2106 74.5993 41.2223 72.5063C43.9149 71.5794 46.6542 70.7873 49.4265 70.1382C49.5034 70.3087 49.5859 70.4765 49.6738 70.6415C50.2315 71.7252 50.9074 72.7455 51.6932 73.6752L51.8086 73.8099C51.8911 73.9062 51.9735 73.997 52.0587 74.0905L52.0889 74.1565V74.1537Z" fill="#F5FFFF"/>
<path d="M49.6683 70.6382C49.1517 70.7729 45.5607 71.7081 41.214 72.5029C33.4247 73.9304 23.2147 74.915 23.8906 70.0799C24.8605 63.1517 43.9836 65.0604 48.0527 65.5472C48.267 67.1397 48.7314 68.6882 49.4237 70.1349C49.5007 70.3054 49.5831 70.4732 49.671 70.6382H49.6683Z" fill="#F5FFFF"/>
<path opacity="0.35" d="M56.125 67.6569C56.9026 67.6569 57.5345 67.3242 57.5345 66.9171C57.5345 66.51 56.9026 66.1772 56.125 66.1772C55.3475 66.1772 54.7155 66.51 54.7155 66.9171C54.7155 67.3242 55.3475 67.6569 56.125 67.6569Z" fill="#FF6E79"/>
<path opacity="0.35" d="M73.0006 67.6569C73.7782 67.6569 74.4101 67.3242 74.4101 66.9171C74.4101 66.51 73.7782 66.1772 73.0006 66.1772C72.223 66.1772 71.5911 66.51 71.5911 66.9171C71.5911 67.3242 72.223 67.6569 73.0006 67.6569Z" fill="#FF6E79"/>
<path d="M62.483 49.3638C62.3346 49.3638 62.1835 49.3886 62.0351 49.4051C61.6422 49.4491 61.2575 49.5041 60.8839 49.5756C59.87 49.7681 58.8754 50.0569 57.9137 50.4392C57.7901 50.486 57.6637 50.5382 57.5428 50.5932C57.1966 49.2098 56.1141 44.7074 55.4245 39.9438C54.4271 33.0733 54.243 25.6528 58.2517 26.2359C61.0734 26.654 62.3373 30.2597 62.8264 34.5613C63.4638 40.2243 62.7577 47.0727 62.4802 49.3666L62.483 49.3638Z" fill="#F5FFFF"/>
<path d="M62.8264 34.5616L62.9912 33.5439C62.9912 33.5439 64.7991 37.5512 62.9912 49.3339L62.4829 49.3641C62.4829 49.3641 64.1535 43.8166 62.8264 34.5588V34.5616Z" fill="#E9F4F4"/>
<path d="M57.5455 50.5959L57.1856 50.7527C57.1856 50.7527 55.8393 47.5347 55.059 38.8105L55.5233 40.6148C55.5233 40.6148 56.7322 47.6172 57.5455 50.5932V50.5959Z" fill="#E9F4F4"/>
<path d="M78.0369 36.1094C78.0369 36.1094 76.4021 42.4985 72.1021 51.6737C71.8027 51.4977 71.6076 51.3877 71.6076 51.3877C71.6076 51.3877 73.4594 49.0141 77.4681 36.8382L78.0369 36.1094V36.1094Z" fill="#E9F4F4"/>
<path d="M70.8135 30.2868L71.0718 29.6982C71.0718 29.6982 69.8134 42.7488 67.6896 49.8667L67.0659 49.6962C67.0659 49.6962 68.7721 45.1664 70.8135 30.2896V30.2868Z" fill="#E9F4F4"/>
<path d="M51.4789 49.6614L51.0641 49.0811C51.0641 49.0811 51.6328 50.6653 53.2621 53.1571L53.5836 52.8876C52.7456 51.9084 52.0367 50.8248 51.4789 49.6614Z" fill="#E9F4F4"/>
<path d="M39.8375 47.8952L39.2 47.2681C39.2 47.2681 44.0605 49.9689 50.4623 55.9373L50.2315 56.3058C50.2315 56.3058 44.1594 50.8463 39.8375 47.8979V47.8952Z" fill="#E9F4F4"/>
<path d="M39.7908 56.8176L38.7302 56.4683C38.7302 56.4683 39.9776 57.6674 48.2121 60.9569L48.2698 60.6901C48.2698 60.6901 42.695 58.3825 39.7908 56.8176V56.8176Z" fill="#E9F4F4"/>
<path d="M44.305 65.1843C44.305 65.1843 47.1927 65.4318 48.0472 65.5171L48.0829 65.7619C46.5525 65.7151 45.0304 65.5033 43.5439 65.1348L44.305 65.1843Z" fill="#E9F4F4"/>
<path d="M41.0711 72.5304C43.9726 72.0794 46.8438 71.4468 49.6683 70.6382L49.8221 70.9215C49.8221 70.9215 46.1569 72.5469 40.1122 72.899L41.0739 72.5304H41.0711Z" fill="#E9F4F4"/>
<path d="M52.0532 74.0869C49.987 75.1651 48.039 76.4577 46.2421 77.9402L45.1046 78.6223C45.1046 78.6223 47.3686 76.532 51.7454 73.7349L52.0559 74.0869H52.0532Z" fill="#E9F4F4"/>
<path d="M48.5555 86.0047C48.5555 86.0047 54.7952 78.4604 55.5151 76.8789L56.0207 77.1457C56.0207 77.1457 51.0146 83.9281 48.0802 86.8903L48.5555 86.0074V86.0047Z" fill="#E9F4F4"/>
<path d="M59.6941 78.1549C59.6941 78.1549 54.1056 88.0123 53.1192 95.6446C52.784 96.2414 52.7043 96.3872 52.7043 96.3872C52.7043 96.3872 53.7429 87.795 59.3452 78.1274L59.6969 78.1577L59.6941 78.1549Z" fill="#E9F4F4"/>
<path d="M58.8094 99.4237C58.8094 99.4237 63.9007 90.9305 63.9364 77.902L64.1452 77.8745C64.1452 77.8745 64.5106 89.4673 58.8863 99.6685C58.8534 99.5887 58.8287 99.5062 58.8094 99.421V99.4237Z" fill="#E9F4F4"/>
<path d="M65.9833 98.287C65.9833 98.287 63.3676 91.1251 63.4556 85.9956L63.3292 86.7217C63.3292 86.7217 63.0956 89.7141 65.9174 98.6281L65.9806 98.2843L65.9833 98.287Z" fill="#E9F4F4"/>
<path d="M69.8629 76.3505C69.8629 76.3505 70.9866 80.6989 71.962 86.8872L72.1076 87.1898C71.6296 83.5098 70.9454 79.8628 70.0552 76.2598L69.8629 76.3478V76.3505Z" fill="#E9F4F4"/>
<path d="M78.7705 83.4491C78.7705 83.4491 73.5364 78.361 71.8329 75.2695L71.6241 75.4043C71.6241 75.4043 73.3386 78.4022 79.5068 84.5796L78.7678 83.4491H78.7705Z" fill="#E9F4F4"/>
<path d="M74.9981 72.1426C74.9981 72.1426 86.5571 78.4162 90.7801 83.4549C91.173 83.5594 87.8897 79.2248 75.1849 71.873L74.9981 72.1426Z" fill="#E9F4F4"/>
<path d="M88.038 73.1188C84.2189 71.5731 80.5179 69.7468 76.9681 67.6538L76.8857 67.9536C80.6855 70.1567 84.664 72.0297 88.7799 73.5506L88.0408 73.1161L88.038 73.1188Z" fill="#E9F4F4"/>
<path d="M77.7566 63.2174C77.7566 63.2174 90.89 64.3341 97.2066 67.9591L97.6984 67.9013C97.6984 67.9013 91.1373 64.2983 77.7813 62.8599L77.7566 63.2174Z" fill="#E9F4F4"/>
<path d="M78.0973 48.3762C76.9434 50.12 75.4762 51.6272 73.7672 52.8209C74.02 53.0299 73.9183 52.9446 73.9183 52.9446C73.9183 52.9446 77.023 50.5463 78.732 47.9609L78.0973 48.3762V48.3762Z" fill="#E9F4F4"/>
<path d="M84.3013 52.4551C84.3013 52.4551 79.353 53.7395 76.3252 55.8215L76.4186 55.9866C76.4186 55.9866 80.3586 53.635 83.3177 52.8649L84.3013 52.4551V52.4551Z" fill="#E9F4F4"/>
<path d="M77.6797 59.9503C77.6797 59.9503 81.9384 60.2199 92.1923 59.1885L92.7776 59.2215C92.7776 59.2215 88.6177 60.1126 77.7264 60.3271L77.6797 59.9476V59.9503Z" fill="#E9F4F4"/>
</g>
<circle cx="63.6204" cy="209.62" r="63.6204" fill="url(#paint1_linear_243_2)"/>
<g clip-path="url(#clip1_243_2)">
<path d="M76.8444 214.046C74.8442 221.019 69.3573 223.835 60.4167 224.105C57.2158 224.201 54.0369 222.398 51.6822 219.615C47.4702 214.628 45.9233 206.498 51.6822 200.5C51.6822 200.5 55.2513 196.607 60.8866 195.546C63.45 195.068 66.0932 195.252 68.566 196.079C78.4463 199.302 78.8474 207.081 76.8444 214.046Z" fill="#593636"/>
<path d="M51.6877 219.623C47.4757 214.636 45.9289 206.506 51.6877 200.508C51.6877 200.508 55.2568 196.615 60.8921 195.554C54.9381 198.156 45.8135 204.737 51.6877 219.623Z" fill="#593636"/>
<path d="M65.7855 213.425C65.258 212.697 64.2029 212.628 63.4144 212.9C63.1341 212.999 62.8924 213.186 62.7193 213.427C62.7 213.455 62.6725 213.474 62.6396 213.48C62.6066 213.485 62.5736 213.48 62.5462 213.46C62.5297 213.449 62.5159 213.433 62.5077 213.416C62.4995 213.4 62.494 213.378 62.494 213.359C62.5022 213.153 62.5681 212.949 62.6863 212.779C63.4007 211.765 65.1316 211.762 65.8515 212.779C65.9531 212.93 66.2087 213.46 65.9092 213.499C65.8845 213.499 65.8597 213.491 65.8377 213.48C65.8158 213.466 65.7993 213.449 65.7855 213.427V213.422V213.425Z" fill="#593636"/>
<path d="M67.0687 195.661L66.7252 195.587C65.3294 195.304 63.9035 195.219 62.4857 195.332C62.3373 195.332 62.1862 195.356 62.0379 195.373C62.0021 193.252 61.9664 186.336 62.8292 180.542C63.6205 175.233 65.1701 170.865 68.1787 172.038C69.7448 172.648 70.5333 174.217 70.8163 176.283C71.6736 182.462 68.0111 193.073 67.0687 195.661Z" fill="#593636"/>
<path d="M78.0974 194.353C75.8966 196.604 74.0392 198.249 73.6161 198.62L73.5859 198.648C72.9567 198.159 72.289 197.725 71.5856 197.354C71.124 197.106 70.6377 196.873 70.1157 196.656L69.4013 196.238C69.4013 196.238 73.2644 188.465 77.4791 182.838C80.6553 178.599 84.0321 175.577 86.1065 178.014C89.2662 181.723 82.8726 189.463 78.0974 194.353Z" fill="#593636"/>
<path d="M77.4736 182.824C75.6602 189.759 71.6241 197.359 71.6241 197.359H71.5856C71.124 197.112 70.6377 196.878 70.1157 196.661C69.6293 196.452 69.1155 196.265 68.5743 196.089C68.066 195.925 67.5659 195.787 67.0741 195.672L66.7307 195.598C67.0659 192.501 68.3187 182.258 70.8218 176.285C72.1928 173.007 73.9403 171.012 76.1246 172.188C78.9134 173.691 78.71 178.112 77.4736 182.824Z" fill="#593636"/>
<path d="M83.3177 198.838C80.1745 200.112 77.2401 200.994 76.0504 201.343C75.9817 201.233 75.913 201.129 75.8416 201.025C75.2371 200.162 74.5118 199.393 73.6902 198.739L73.6188 198.629L73.1407 197.901C73.1407 197.901 75.2399 196.274 78.0918 194.348C83.7683 190.526 92.4314 185.528 93.5496 189.809C94.4975 193.43 88.6178 196.689 83.3177 198.835V198.838Z" fill="#593636"/>
<path d="M99.968 200.014C99.7592 202.833 96.3549 204.358 92.1951 205.157C86.8539 206.19 80.2872 206.034 77.6825 205.918C77.6687 205.8 77.6495 205.685 77.6303 205.567C77.405 204.061 76.8665 202.621 76.0532 201.338C75.9845 201.228 75.9158 201.124 75.8444 201.019C76.9709 200.649 79.8888 199.717 83.3315 198.838C90.6372 196.975 100.303 195.37 99.968 200.014Z" fill="#593636"/>
<path d="M99.6465 218.342C98.0282 221.298 93.0303 220.655 88.038 219.07C83.3452 217.575 78.6551 215.242 76.784 214.264C76.806 214.193 76.828 214.121 76.8472 214.056C76.8884 213.91 76.9296 213.764 76.9708 213.616C77.1906 212.803 77.3857 211.981 77.5176 211.16C77.6302 210.5 77.7127 209.838 77.7621 209.184C81.0894 209.582 92.0275 211.08 97.2121 213.921C99.4322 215.138 100.592 216.605 99.6465 218.342Z" fill="#593636"/>
<path d="M103.246 210.413C102.586 212.592 100.245 213.6 97.2149 213.916C90.4641 214.625 80.2844 211.933 77.5231 211.155C77.6357 210.496 77.7181 209.833 77.7676 209.18C77.8555 208.092 77.8308 206.998 77.6907 205.915C77.6769 205.797 77.6577 205.682 77.6385 205.564C80.0316 205.355 86.4005 204.863 92.1951 205.146C98.6216 205.479 104.353 206.756 103.246 210.413Z" fill="#593636"/>
<path d="M95.6818 228.679C94.5003 229.863 92.7694 229.959 90.7801 229.396C85.013 227.756 77.1605 220.535 74.8443 218.324C74.8965 218.252 74.9459 218.181 74.9954 218.104C75.7839 216.928 76.3829 215.636 76.7786 214.276C76.8005 214.205 76.8225 214.133 76.8417 214.068C76.883 213.922 76.9242 213.776 76.9654 213.628C78.6964 214.364 83.587 216.51 88.0326 219.085C93.5195 222.242 98.3002 226.055 95.6818 228.679Z" fill="#593636"/>
<path d="M82.2901 243.189C78.4463 244.406 74.6409 238.493 71.9675 232.828C70.5443 229.778 69.3024 226.646 68.2528 223.445L69.7805 222.327L69.8629 222.288C70.5498 221.983 71.2092 221.623 71.8329 221.209C72.0088 221.093 72.1736 220.975 72.3412 220.849C73.1325 221.799 76.0504 225.36 78.7678 229.38C82.694 235.191 86.1972 241.947 82.2901 243.186V243.189Z" fill="#593636"/>
<path d="M91.7802 234.902C88.7276 237.377 83.2545 233.553 78.7705 229.39C76.2015 226.975 73.7864 224.401 71.5389 221.681L71.8329 221.216C72.0087 221.101 72.1736 220.983 72.3412 220.856C73.3001 220.145 74.1436 219.287 74.836 218.312C74.8882 218.241 74.9376 218.169 74.9871 218.092C77.8226 219.68 86.8044 224.895 90.7691 229.393C92.6869 231.558 93.437 233.556 91.7774 234.899L91.7802 234.902Z" fill="#593636"/>
<path d="M69.1513 246.961C67.7308 246.752 66.7087 245.727 65.9833 244.213C63.3292 238.683 64.6535 226.602 65.0217 223.689L65.258 223.651C66.8103 223.398 68.3297 222.955 69.7777 222.337L69.8601 222.299C70.0497 223.043 71.2092 227.731 71.9593 232.825C72.9896 239.815 73.2451 247.568 69.1513 246.961Z" fill="#593636"/>
<path d="M65.9833 244.214C65.4146 247.373 64.2166 249.42 61.9664 248.86C60.4058 248.472 59.4112 247.173 58.8094 245.348C56.7927 239.216 59.2628 227.173 59.9469 224.112H60.414C61.1421 224.09 61.8455 224.052 62.5296 223.994C63.3979 223.923 64.2249 223.821 65.0244 223.689L65.2607 223.651C65.6729 226.511 67.1538 237.716 65.9833 244.214Z" fill="#593636"/>
<path d="M59.6941 224.102C59.1364 226.124 56.441 235.559 53.1192 241.573C51.0036 245.401 48.6352 247.841 46.3987 246.093C43.2472 243.631 45.5442 237.433 48.5583 231.943C50.4156 228.619 52.49 225.42 54.7623 222.371C55.0095 222.533 55.2623 222.687 55.5178 222.827C56.7323 223.522 58.0786 223.948 59.4688 224.08C59.5403 224.093 59.6282 224.096 59.6969 224.102H59.6941Z" fill="#593636"/>
<path d="M64.4254 224.368C64.4254 224.368 62.5873 240.024 58.8122 245.349C57.7186 246.887 56.4657 247.566 55.0453 246.755C53.4599 245.849 52.9654 243.934 53.1192 241.574C53.5094 235.515 58.1528 226.517 59.4606 224.085C59.5375 224.085 59.6172 224.099 59.6941 224.102C59.7711 224.107 59.8617 224.102 59.9469 224.113H60.414C61.1421 224.091 61.8455 224.052 62.5296 223.995L64.4227 224.366L64.4254 224.368Z" fill="#593636"/>
<path d="M55.5151 222.818C53.3528 225.975 51.0311 229.019 48.5555 231.934C44.2748 236.902 39.2715 241.369 37.1779 238.152C34.6831 234.327 41.0849 228.055 46.2421 223.878C48.8385 221.774 51.1245 220.205 51.7977 219.751C51.8801 219.848 51.9625 219.938 52.0477 220.032C52.8445 220.922 53.7539 221.708 54.7513 222.364C55.0123 222.535 55.2596 222.686 55.5179 222.818H55.5151Z" fill="#593636"/>
<path d="M48.2725 206.655C47.9044 208.235 47.8302 209.867 48.0472 211.474C43.9396 211.12 23.0719 208.957 26.0722 203.083C27.8169 199.67 34.1528 200.871 39.7963 202.783C42.7142 203.795 45.5717 204.973 48.355 206.311C48.3247 206.427 48.2973 206.539 48.2698 206.652L48.2725 206.655Z" fill="#593636"/>
<path d="M50.3992 202.042C50.3415 202.122 50.2838 202.201 50.2316 202.281C49.3771 203.506 48.7451 204.872 48.3605 206.317C48.3303 206.43 48.3028 206.542 48.2753 206.655C46.7587 206.029 43.3324 204.594 39.7963 202.786C33.5566 199.599 26.9652 195.266 29.8419 192.283C31.9218 190.12 35.892 191.497 39.8375 193.871C44.2886 196.547 48.7177 200.484 50.4019 202.042H50.3992Z" fill="#593636"/>
<path d="M53.677 198.794C53.5891 198.857 53.5067 198.92 53.4242 198.98C52.8033 199.445 52.2208 199.959 51.6823 200.516C51.2207 200.997 50.7921 201.508 50.3992 202.05C50.3415 202.129 50.2838 202.209 50.2316 202.289C48.4731 201.036 43.6869 197.552 39.8348 193.881C35.7382 189.96 32.7076 185.85 35.5266 184.031C39.9694 181.16 47.6159 190.364 51.479 195.637C52.556 197.123 53.3391 198.272 53.677 198.794Z" fill="#593636"/>
<path d="M57.9165 196.418C57.7929 196.464 57.6665 196.519 57.5456 196.571C56.1746 197.154 54.875 197.896 53.677 198.786C53.5891 198.849 53.5067 198.912 53.4243 198.973C53.1962 198.596 52.4544 197.368 51.4845 195.648C47.7423 188.999 40.6261 175.003 46.4921 174.08C50.5585 173.44 53.5342 179.795 55.4327 185.938C56.4713 189.378 57.3011 192.876 57.9138 196.418H57.9165Z" fill="#593636"/>
<path d="M52.0889 220.103C52.0889 220.103 49.5941 221.859 46.2476 223.889C39.8018 227.791 30.2348 232.69 29.2264 227.981C28.3499 223.876 35.2106 220.548 41.2223 218.457C43.9149 217.532 46.6542 216.74 49.4265 216.092C49.5034 216.262 49.5859 216.43 49.6738 216.595C50.2315 217.677 50.9074 218.696 51.6932 219.625L51.8086 219.76C51.8911 219.856 51.9735 219.947 52.0587 220.04L52.0889 220.106V220.103Z" fill="#593636"/>
<path d="M49.6683 216.593C49.1517 216.727 45.5607 217.662 41.214 218.456C33.4247 219.882 23.2147 220.865 23.8906 216.035C24.8605 209.114 43.9836 211.021 48.0527 211.507C48.267 213.098 48.7314 214.645 49.4237 216.09C49.5007 216.26 49.5831 216.428 49.671 216.593H49.6683Z" fill="#593636"/>
<path d="M56.125 213.614C56.9026 213.614 57.5345 213.281 57.5345 212.875C57.5345 212.468 56.9026 212.136 56.125 212.136C55.3475 212.136 54.7155 212.468 54.7155 212.875C54.7155 213.281 55.3475 213.614 56.125 213.614Z" fill="#593636"/>
<path d="M73.0006 213.614C73.7782 213.614 74.4101 213.281 74.4101 212.875C74.4101 212.468 73.7782 212.136 73.0006 212.136C72.223 212.136 71.5911 212.468 71.5911 212.875C71.5911 213.281 72.223 213.614 73.0006 213.614Z" fill="#593636"/>
<path d="M62.483 195.34C62.3346 195.34 62.1835 195.365 62.0351 195.381C61.6422 195.425 61.2575 195.48 60.8839 195.552C59.87 195.744 58.8754 196.033 57.9137 196.414C57.7901 196.461 57.6637 196.513 57.5428 196.568C57.1966 195.186 56.1141 190.689 55.4245 185.93C54.4271 179.066 54.243 171.653 58.2517 172.236C61.0734 172.653 62.3373 176.256 62.8264 180.553C63.4638 186.21 62.7577 193.051 62.4802 195.343L62.483 195.34Z" fill="#593636"/>
<path d="M62.8264 180.553L62.9912 179.536C62.9912 179.536 64.7991 183.539 62.9912 195.31L62.4829 195.34C62.4829 195.34 64.1535 189.798 62.8264 180.55V180.553Z" fill="#593636"/>
<path d="M57.5456 196.572L57.1857 196.728C57.1857 196.728 55.8394 193.514 55.0591 184.798L55.5234 186.601C55.5234 186.601 56.7323 193.596 57.5456 196.569V196.572Z" fill="#593636"/>
<path d="M78.0369 182.1C78.0369 182.1 76.4021 188.483 72.1022 197.649C71.8027 197.473 71.6076 197.363 71.6076 197.363C71.6076 197.363 73.4595 194.992 77.4682 182.828L78.0369 182.1Z" fill="#593636"/>
<path d="M70.8135 176.283L71.0718 175.695C71.0718 175.695 69.8134 188.733 67.6896 195.843L67.0659 195.673C67.0659 195.673 68.7721 191.148 70.8135 176.286V176.283Z" fill="#593636"/>
<path d="M51.4789 195.637L51.0641 195.057C51.0641 195.057 51.6328 196.64 53.2621 199.129L53.5836 198.86C52.7456 197.882 52.0367 196.799 51.4789 195.637Z" fill="#593636"/>
<path d="M39.8375 193.873L39.2 193.247C39.2 193.247 44.0605 195.945 50.4623 201.907L50.2315 202.275C50.2315 202.275 44.1594 196.821 39.8375 193.876V193.873Z" fill="#593636"/>
<path d="M39.7908 202.785L38.7303 202.437C38.7303 202.437 39.9776 203.634 48.2121 206.921L48.2698 206.654C48.2698 206.654 42.695 204.349 39.7908 202.785Z" fill="#593636"/>
<path d="M44.3051 211.144C44.3051 211.144 47.1927 211.391 48.0472 211.476L48.083 211.721C46.5526 211.674 45.0304 211.462 43.544 211.094L44.3051 211.144Z" fill="#593636"/>
<path d="M41.0711 218.483C43.9726 218.032 46.8438 217.4 49.6683 216.592L49.8221 216.875C49.8221 216.875 46.1569 218.499 40.1122 218.851L41.0739 218.483H41.0711Z" fill="#593636"/>
<path d="M52.0532 220.038C49.987 221.115 48.039 222.407 46.2421 223.888L45.1046 224.569C45.1046 224.569 47.3686 222.481 51.7454 219.687L52.0559 220.038H52.0532Z" fill="#593636"/>
<path d="M48.5556 231.943C48.5556 231.943 54.7953 224.406 55.5151 222.826L56.0207 223.093C56.0207 223.093 51.0146 229.868 48.0802 232.827L48.5556 231.945V231.943Z" fill="#593636"/>
<path d="M59.6941 224.101C59.6941 224.101 54.1056 233.948 53.1192 241.573C52.784 242.169 52.7043 242.315 52.7043 242.315C52.7043 242.315 53.7429 233.731 59.3452 224.074L59.6969 224.104L59.6941 224.101Z" fill="#593636"/>
<path d="M58.8094 245.348C58.8094 245.348 63.9007 236.864 63.9364 223.849L64.1452 223.821C64.1452 223.821 64.5106 235.402 58.8864 245.593C58.8534 245.513 58.8287 245.431 58.8094 245.346V245.348Z" fill="#593636"/>
<path d="M65.9833 244.214C65.9833 244.214 63.3676 237.06 63.4556 231.936L63.3292 232.661C63.3292 232.661 63.0956 235.65 65.9174 244.555L65.9806 244.212L65.9833 244.214Z" fill="#593636"/>
<path d="M69.8629 222.299C69.8629 222.299 70.9867 226.643 71.9621 232.825L72.1077 233.127C71.6296 229.451 70.9455 225.808 70.0552 222.208L69.8629 222.296V222.299Z" fill="#593636"/>
<path d="M78.7705 229.391C78.7705 229.391 73.5364 224.308 71.8329 221.22L71.6241 221.354C71.6241 221.354 73.3386 224.349 79.5068 230.52L78.7678 229.391H78.7705Z" fill="#593636"/>
<path d="M74.9981 218.095C74.9981 218.095 86.5571 224.362 90.7801 229.396C91.173 229.5 87.8897 225.17 75.1849 217.826L74.9981 218.095Z" fill="#593636"/>
<path d="M88.038 219.071C84.2189 217.527 80.5179 215.702 76.9681 213.611L76.8857 213.911C80.6855 216.112 84.664 217.983 88.7799 219.502L88.0408 219.068L88.038 219.071Z" fill="#593636"/>
<path d="M77.7567 209.179C77.7567 209.179 90.89 210.295 97.2067 213.916L97.6985 213.859C97.6985 213.859 91.1373 210.259 77.7814 208.822L77.7567 209.179Z" fill="#593636"/>
<path d="M78.0973 194.354C76.9434 196.096 75.4762 197.601 73.7672 198.794C74.02 199.003 73.9183 198.918 73.9183 198.918C73.9183 198.918 77.023 196.522 78.732 193.939L78.0973 194.354Z" fill="#593636"/>
<path d="M84.3013 198.428C84.3013 198.428 79.353 199.711 76.3252 201.791L76.4186 201.956C76.4186 201.956 80.3586 199.607 83.3177 198.838L84.3013 198.428Z" fill="#593636"/>
<path d="M77.6797 205.915C77.6797 205.915 81.9385 206.185 92.1924 205.154L92.7776 205.187C92.7776 205.187 88.6178 206.077 77.7265 206.292L77.6797 205.913V205.915Z" fill="#593636"/>
<path d="M76.8444 214.046C74.8442 221.019 69.3573 223.835 60.4167 224.105C57.2158 224.201 54.0369 222.398 51.6822 219.615C47.4702 214.628 45.9233 206.498 51.6822 200.5C51.6822 200.5 55.2513 196.607 60.8866 195.546C63.45 195.068 66.0932 195.252 68.566 196.079C78.4463 199.302 78.8474 207.081 76.8444 214.046Z" fill="#FFCD50"/>
<path d="M51.6877 219.623C47.4757 214.636 45.9289 206.506 51.6877 200.508C51.6877 200.508 55.2568 196.615 60.8921 195.554C54.9381 198.156 45.8135 204.737 51.6877 219.623Z" fill="#FFC033"/>
<path d="M65.7855 213.425C65.258 212.697 64.2029 212.628 63.4144 212.9C63.1341 212.999 62.8924 213.186 62.7193 213.427C62.7 213.455 62.6725 213.474 62.6396 213.48C62.6066 213.485 62.5736 213.48 62.5462 213.46C62.5297 213.449 62.5159 213.433 62.5077 213.416C62.4995 213.4 62.494 213.378 62.494 213.359C62.5022 213.153 62.5681 212.949 62.6863 212.779C63.4007 211.765 65.1316 211.762 65.8515 212.779C65.9531 212.93 66.2087 213.46 65.9092 213.499C65.8845 213.499 65.8597 213.491 65.8377 213.48C65.8158 213.466 65.7993 213.449 65.7855 213.427V213.422V213.425Z" fill="#302826"/>
<path d="M67.0687 195.661L66.7252 195.587C65.3294 195.304 63.9035 195.219 62.4857 195.332C62.3373 195.332 62.1862 195.356 62.0379 195.373C62.0021 193.252 61.9664 186.336 62.8292 180.542C63.6205 175.233 65.1701 170.865 68.1787 172.038C69.7448 172.648 70.5333 174.217 70.8163 176.283C71.6736 182.462 68.0111 193.073 67.0687 195.661Z" fill="#FFEEEE"/>
<path d="M78.0974 194.353C75.8966 196.604 74.0392 198.249 73.6161 198.62L73.5859 198.648C72.9567 198.159 72.289 197.725 71.5856 197.354C71.124 197.106 70.6377 196.873 70.1157 196.656L69.4013 196.238C69.4013 196.238 73.2644 188.465 77.4791 182.838C80.6553 178.599 84.0321 175.577 86.1065 178.014C89.2662 181.723 82.8726 189.463 78.0974 194.353Z" fill="#FFEEEE"/>
<path d="M77.4736 182.824C75.6602 189.759 71.6241 197.359 71.6241 197.359H71.5856C71.124 197.112 70.6377 196.878 70.1157 196.661C69.6293 196.452 69.1155 196.265 68.5743 196.089C68.066 195.925 67.5659 195.787 67.0741 195.672L66.7307 195.598C67.0659 192.501 68.3187 182.258 70.8218 176.285C72.1928 173.007 73.9403 171.012 76.1246 172.188C78.9134 173.691 78.71 178.112 77.4736 182.824Z" fill="#FFEEEE"/>
<path d="M83.3177 198.838C80.1745 200.112 77.2401 200.994 76.0504 201.343C75.9817 201.233 75.913 201.129 75.8416 201.025C75.2371 200.162 74.5118 199.393 73.6902 198.739L73.6188 198.629L73.1407 197.901C73.1407 197.901 75.2399 196.274 78.0918 194.348C83.7683 190.526 92.4314 185.528 93.5496 189.809C94.4975 193.43 88.6178 196.689 83.3177 198.835V198.838Z" fill="#FFEEEE"/>
<path d="M99.968 200.014C99.7592 202.833 96.3549 204.358 92.1951 205.157C86.8539 206.19 80.2872 206.034 77.6825 205.918C77.6687 205.8 77.6495 205.685 77.6303 205.567C77.405 204.061 76.8665 202.621 76.0532 201.338C75.9845 201.228 75.9158 201.124 75.8444 201.019C76.9709 200.649 79.8888 199.717 83.3315 198.838C90.6372 196.975 100.303 195.37 99.968 200.014Z" fill="#FFEEEE"/>
<path d="M99.6465 218.342C98.0282 221.298 93.0303 220.655 88.038 219.07C83.3452 217.575 78.6551 215.242 76.784 214.264C76.806 214.193 76.828 214.121 76.8472 214.056C76.8884 213.91 76.9296 213.764 76.9708 213.616C77.1906 212.803 77.3857 211.981 77.5176 211.16C77.6302 210.5 77.7127 209.838 77.7621 209.184C81.0894 209.582 92.0275 211.08 97.2121 213.921C99.4322 215.138 100.592 216.605 99.6465 218.342Z" fill="#FFEEEE"/>
<path d="M103.246 210.413C102.586 212.592 100.245 213.6 97.2149 213.916C90.4641 214.625 80.2844 211.933 77.5231 211.155C77.6357 210.496 77.7181 209.833 77.7676 209.18C77.8555 208.092 77.8308 206.998 77.6907 205.915C77.6769 205.797 77.6577 205.682 77.6385 205.564C80.0316 205.355 86.4005 204.863 92.1951 205.146C98.6216 205.479 104.353 206.756 103.246 210.413Z" fill="#FFEEEE"/>
<path d="M95.6818 228.679C94.5003 229.863 92.7694 229.959 90.7801 229.396C85.013 227.756 77.1605 220.535 74.8443 218.324C74.8965 218.252 74.9459 218.181 74.9954 218.104C75.7839 216.928 76.3829 215.636 76.7786 214.276C76.8005 214.205 76.8225 214.133 76.8417 214.068C76.883 213.922 76.9242 213.776 76.9654 213.628C78.6964 214.364 83.587 216.51 88.0326 219.085C93.5195 222.242 98.3002 226.055 95.6818 228.679Z" fill="#FFEEEE"/>
<path d="M82.2901 243.189C78.4463 244.406 74.6409 238.493 71.9675 232.828C70.5443 229.778 69.3024 226.646 68.2528 223.445L69.7805 222.327L69.8629 222.288C70.5498 221.983 71.2092 221.623 71.8329 221.209C72.0088 221.093 72.1736 220.975 72.3412 220.849C73.1325 221.799 76.0504 225.36 78.7678 229.38C82.694 235.191 86.1972 241.947 82.2901 243.186V243.189Z" fill="#FFEEEE"/>
<path d="M91.7802 234.902C88.7276 237.377 83.2545 233.553 78.7705 229.39C76.2015 226.975 73.7864 224.401 71.5389 221.681L71.8329 221.216C72.0087 221.101 72.1736 220.983 72.3412 220.856C73.3001 220.145 74.1436 219.287 74.836 218.312C74.8882 218.241 74.9376 218.169 74.9871 218.092C77.8226 219.68 86.8044 224.895 90.7691 229.393C92.6869 231.558 93.437 233.556 91.7774 234.899L91.7802 234.902Z" fill="#FFEEEE"/>
<path d="M69.1513 246.961C67.7308 246.752 66.7087 245.727 65.9833 244.213C63.3292 238.683 64.6535 226.602 65.0217 223.689L65.258 223.651C66.8103 223.398 68.3297 222.955 69.7777 222.337L69.8601 222.299C70.0497 223.043 71.2092 227.731 71.9593 232.825C72.9896 239.815 73.2451 247.568 69.1513 246.961Z" fill="#FFEEEE"/>
<path d="M65.9833 244.214C65.4146 247.373 64.2166 249.42 61.9664 248.86C60.4058 248.472 59.4112 247.173 58.8094 245.348C56.7927 239.216 59.2628 227.173 59.9469 224.112H60.414C61.1421 224.09 61.8455 224.052 62.5296 223.994C63.3979 223.923 64.2249 223.821 65.0244 223.689L65.2607 223.651C65.6729 226.511 67.1538 237.716 65.9833 244.214Z" fill="#FFEEEE"/>
<path d="M59.6941 224.102C59.1364 226.124 56.441 235.559 53.1192 241.573C51.0036 245.401 48.6352 247.841 46.3987 246.093C43.2472 243.631 45.5442 237.433 48.5583 231.943C50.4156 228.619 52.49 225.42 54.7623 222.371C55.0095 222.533 55.2623 222.687 55.5178 222.827C56.7323 223.522 58.0786 223.948 59.4688 224.08C59.5403 224.093 59.6282 224.096 59.6969 224.102H59.6941Z" fill="#FFEEEE"/>
<path d="M64.4254 224.368C64.4254 224.368 62.5873 240.024 58.8122 245.349C57.7186 246.887 56.4657 247.566 55.0453 246.755C53.4599 245.849 52.9654 243.934 53.1192 241.574C53.5094 235.515 58.1528 226.517 59.4606 224.085C59.5375 224.085 59.6172 224.099 59.6941 224.102C59.7711 224.107 59.8617 224.102 59.9469 224.113H60.414C61.1421 224.091 61.8455 224.052 62.5296 223.995L64.4227 224.366L64.4254 224.368Z" fill="#FFEEEE"/>
<path d="M55.5151 222.818C53.3528 225.975 51.0311 229.019 48.5555 231.934C44.2748 236.902 39.2715 241.369 37.1779 238.152C34.6831 234.327 41.0849 228.055 46.2421 223.878C48.8385 221.774 51.1245 220.205 51.7977 219.751C51.8801 219.848 51.9625 219.938 52.0477 220.032C52.8445 220.922 53.7539 221.708 54.7513 222.364C55.0123 222.535 55.2596 222.686 55.5179 222.818H55.5151Z" fill="#FFEEEE"/>
<path d="M48.2725 206.655C47.9044 208.235 47.8302 209.867 48.0472 211.474C43.9396 211.12 23.0719 208.957 26.0722 203.083C27.8169 199.67 34.1528 200.871 39.7963 202.783C42.7142 203.795 45.5717 204.973 48.355 206.311C48.3247 206.427 48.2973 206.539 48.2698 206.652L48.2725 206.655Z" fill="#FFEEEE"/>
<path d="M50.3992 202.042C50.3415 202.122 50.2838 202.201 50.2316 202.281C49.3771 203.506 48.7451 204.872 48.3605 206.317C48.3303 206.43 48.3028 206.542 48.2753 206.655C46.7587 206.029 43.3324 204.594 39.7963 202.786C33.5566 199.599 26.9652 195.266 29.8419 192.283C31.9218 190.12 35.892 191.497 39.8375 193.871C44.2886 196.547 48.7177 200.484 50.4019 202.042H50.3992Z" fill="#FFEEEE"/>
<path d="M53.677 198.794C53.5891 198.857 53.5067 198.92 53.4242 198.98C52.8033 199.445 52.2208 199.959 51.6823 200.516C51.2207 200.997 50.7921 201.508 50.3992 202.05C50.3415 202.129 50.2838 202.209 50.2316 202.289C48.4731 201.036 43.6869 197.552 39.8348 193.881C35.7382 189.96 32.7076 185.85 35.5266 184.031C39.9694 181.16 47.6159 190.364 51.479 195.637C52.556 197.123 53.3391 198.272 53.677 198.794Z" fill="#FFEEEE"/>
<path d="M57.9165 196.418C57.7929 196.464 57.6665 196.519 57.5456 196.571C56.1746 197.154 54.875 197.896 53.677 198.786C53.5891 198.849 53.5067 198.912 53.4243 198.973C53.1962 198.596 52.4544 197.368 51.4845 195.648C47.7423 188.999 40.6261 175.003 46.4921 174.08C50.5585 173.44 53.5342 179.795 55.4327 185.938C56.4713 189.378 57.3011 192.876 57.9138 196.418H57.9165Z" fill="#FFEEEE"/>
<path d="M52.0889 220.103C52.0889 220.103 49.5941 221.859 46.2476 223.889C39.8018 227.791 30.2348 232.69 29.2264 227.981C28.3499 223.876 35.2106 220.548 41.2223 218.457C43.9149 217.532 46.6542 216.74 49.4265 216.092C49.5034 216.262 49.5859 216.43 49.6738 216.595C50.2315 217.677 50.9074 218.696 51.6932 219.625L51.8086 219.76C51.8911 219.856 51.9735 219.947 52.0587 220.04L52.0889 220.106V220.103Z" fill="#FFEEEE"/>
<path d="M49.6683 216.593C49.1517 216.727 45.5607 217.662 41.214 218.456C33.4247 219.882 23.2147 220.865 23.8906 216.035C24.8605 209.114 43.9836 211.021 48.0527 211.507C48.267 213.098 48.7314 214.645 49.4237 216.09C49.5007 216.26 49.5831 216.428 49.671 216.593H49.6683Z" fill="#FFEEEE"/>
<path opacity="0.35" d="M56.125 213.614C56.9026 213.614 57.5345 213.281 57.5345 212.875C57.5345 212.468 56.9026 212.136 56.125 212.136C55.3475 212.136 54.7155 212.468 54.7155 212.875C54.7155 213.281 55.3475 213.614 56.125 213.614Z" fill="#FF6E79"/>
<path opacity="0.35" d="M73.0006 213.614C73.7782 213.614 74.4101 213.281 74.4101 212.875C74.4101 212.468 73.7782 212.136 73.0006 212.136C72.223 212.136 71.5911 212.468 71.5911 212.875C71.5911 213.281 72.223 213.614 73.0006 213.614Z" fill="#FF6E79"/>
<path d="M62.483 195.34C62.3346 195.34 62.1835 195.365 62.0351 195.381C61.6422 195.425 61.2575 195.48 60.8839 195.552C59.87 195.744 58.8754 196.033 57.9137 196.414C57.7901 196.461 57.6637 196.513 57.5428 196.568C57.1966 195.186 56.1141 190.689 55.4245 185.93C54.4271 179.066 54.243 171.653 58.2517 172.236C61.0734 172.653 62.3373 176.256 62.8264 180.553C63.4638 186.21 62.7577 193.051 62.4802 195.343L62.483 195.34Z" fill="#FFEEEE"/>
<path opacity="0.03" d="M62.8264 180.553L62.9912 179.536C62.9912 179.536 64.7991 183.539 62.9912 195.31L62.4829 195.34C62.4829 195.34 64.1535 189.798 62.8264 180.55V180.553Z" fill="black"/>
<path opacity="0.03" d="M57.5456 196.572L57.1857 196.728C57.1857 196.728 55.8394 193.514 55.0591 184.798L55.5234 186.601C55.5234 186.601 56.7323 193.596 57.5456 196.569V196.572Z" fill="black"/>
<path opacity="0.03" d="M78.0369 182.1C78.0369 182.1 76.4021 188.483 72.1022 197.649C71.8027 197.473 71.6076 197.363 71.6076 197.363C71.6076 197.363 73.4595 194.992 77.4682 182.828L78.0369 182.1Z" fill="black"/>
<path opacity="0.03" d="M70.8135 176.283L71.0718 175.695C71.0718 175.695 69.8134 188.733 67.6896 195.843L67.0659 195.673C67.0659 195.673 68.7721 191.148 70.8135 176.286V176.283Z" fill="black"/>
<path opacity="0.03" d="M51.4789 195.637L51.0641 195.057C51.0641 195.057 51.6328 196.64 53.2621 199.129L53.5836 198.86C52.7456 197.882 52.0367 196.799 51.4789 195.637Z" fill="black"/>
<path opacity="0.03" d="M39.8375 193.873L39.2 193.247C39.2 193.247 44.0605 195.945 50.4623 201.907L50.2315 202.275C50.2315 202.275 44.1594 196.821 39.8375 193.876V193.873Z" fill="black"/>
<path opacity="0.03" d="M39.7908 202.785L38.7303 202.437C38.7303 202.437 39.9776 203.634 48.2121 206.921L48.2698 206.654C48.2698 206.654 42.695 204.349 39.7908 202.785Z" fill="black"/>
<path opacity="0.03" d="M44.3051 211.144C44.3051 211.144 47.1927 211.391 48.0472 211.476L48.083 211.721C46.5526 211.674 45.0304 211.462 43.544 211.094L44.3051 211.144Z" fill="black"/>
<path opacity="0.03" d="M41.0711 218.483C43.9726 218.032 46.8438 217.4 49.6683 216.592L49.8221 216.875C49.8221 216.875 46.1569 218.499 40.1122 218.851L41.0739 218.483H41.0711Z" fill="black"/>
<path opacity="0.03" d="M52.0532 220.038C49.987 221.115 48.039 222.407 46.2421 223.888L45.1046 224.569C45.1046 224.569 47.3686 222.481 51.7454 219.687L52.0559 220.038H52.0532Z" fill="black"/>
<path opacity="0.03" d="M48.5556 231.943C48.5556 231.943 54.7953 224.406 55.5151 222.826L56.0207 223.093C56.0207 223.093 51.0146 229.868 48.0802 232.827L48.5556 231.945V231.943Z" fill="black"/>
<path opacity="0.03" d="M59.6941 224.101C59.6941 224.101 54.1056 233.948 53.1192 241.573C52.784 242.169 52.7043 242.315 52.7043 242.315C52.7043 242.315 53.7429 233.731 59.3452 224.074L59.6969 224.104L59.6941 224.101Z" fill="black"/>
<path opacity="0.03" d="M58.8094 245.348C58.8094 245.348 63.9007 236.864 63.9364 223.849L64.1452 223.821C64.1452 223.821 64.5106 235.402 58.8864 245.593C58.8534 245.513 58.8287 245.431 58.8094 245.346V245.348Z" fill="black"/>
<path opacity="0.03" d="M65.9833 244.214C65.9833 244.214 63.3676 237.06 63.4556 231.936L63.3292 232.661C63.3292 232.661 63.0956 235.65 65.9174 244.555L65.9806 244.212L65.9833 244.214Z" fill="black"/>
<path opacity="0.03" d="M69.8629 222.299C69.8629 222.299 70.9867 226.643 71.9621 232.825L72.1077 233.127C71.6296 229.451 70.9455 225.808 70.0552 222.208L69.8629 222.296V222.299Z" fill="black"/>
<path opacity="0.03" d="M78.7705 229.391C78.7705 229.391 73.5364 224.308 71.8329 221.22L71.6241 221.354C71.6241 221.354 73.3386 224.349 79.5068 230.52L78.7678 229.391H78.7705Z" fill="black"/>
<path opacity="0.03" d="M74.9981 218.095C74.9981 218.095 86.5571 224.362 90.7801 229.396C91.173 229.5 87.8897 225.17 75.1849 217.826L74.9981 218.095Z" fill="black"/>
<path opacity="0.03" d="M88.038 219.071C84.2189 217.527 80.5179 215.702 76.9681 213.611L76.8857 213.911C80.6855 216.112 84.664 217.983 88.7799 219.502L88.0408 219.068L88.038 219.071Z" fill="black"/>
<path opacity="0.03" d="M77.7567 209.179C77.7567 209.179 90.89 210.295 97.2067 213.916L97.6985 213.859C97.6985 213.859 91.1373 210.259 77.7814 208.822L77.7567 209.179Z" fill="black"/>
<path opacity="0.03" d="M78.0973 194.354C76.9434 196.096 75.4762 197.601 73.7672 198.794C74.02 199.003 73.9183 198.918 73.9183 198.918C73.9183 198.918 77.023 196.522 78.732 193.939L78.0973 194.354Z" fill="black"/>
<path opacity="0.03" d="M84.3013 198.428C84.3013 198.428 79.353 199.711 76.3252 201.791L76.4186 201.956C76.4186 201.956 80.3586 199.607 83.3177 198.838L84.3013 198.428Z" fill="black"/>
<path opacity="0.03" d="M77.6797 205.915C77.6797 205.915 81.9385 206.185 92.1924 205.154L92.7776 205.187C92.7776 205.187 88.6178 206.077 77.7265 206.292L77.6797 205.913V205.915Z" fill="black"/>
<path d="M57.2433 206.144L61.8318 209.034" stroke="#302826" stroke-width="0.883617" stroke-miterlimit="10" stroke-linecap="round"/>
<path d="M71.4867 206.144L66.8983 209.034" stroke="#302826" stroke-width="0.883617" stroke-miterlimit="10" stroke-linecap="round"/>
</g>
<defs>
<linearGradient id="paint0_linear_243_2" x1="63.6204" y1="0" x2="63.6204" y2="127.241" gradientUnits="userSpaceOnUse">
<stop stop-color="#CDDDA7"/>
<stop offset="1" stop-color="#A2DAAF"/>
</linearGradient>
<linearGradient id="paint1_linear_243_2" x1="63.6204" y1="146" x2="63.6204" y2="273.241" gradientUnits="userSpaceOnUse">
<stop stop-color="#CDDDA7"/>
<stop offset="1" stop-color="#A2DAAF"/>
</linearGradient>
<clipPath id="clip0_243_2">
<rect width="79.5255" height="77.1865" fill="white" transform="translate(23.8577 25.8457)"/>
</clipPath>
<clipPath id="clip1_243_2">
<rect width="79.5255" height="77.1077" fill="white" transform="translate(23.8577 171.846)"/>
</clipPath>
</defs>
</svg>
