<svg width="349" height="161" viewBox="0 0 349 161" fill="none" xmlns="http://www.w3.org/2000/svg">
<path d="M147.072 35.5465C142.049 35.9078 135.038 36.205 126.926 36.2808C81.2602 36.712 1.16504 34.381 1.16504 34.381L2.33254 30.1153C2.33254 30.1153 15.7101 11.8868 22.9036 12.9416C30.0971 13.9964 34.2441 6.40898 38.9202 7.60945C42.8179 8.60595 51.6897 3.35537 53.6234 4.18287C54.7301 4.66073 57.4056 2.1549 61.8749 1.50805C65.2071 1.00688 69.2873 3.73416 72.5222 4.0605C73.2844 4.13431 74.008 4.18676 74.6931 4.21784C79.959 4.43346 83.3824 3.30875 87.4626 1.98007C99.624 -2.01177 110.569 8.16889 114.996 6.75863C120.268 5.08031 133.974 21.8519 139.83 23.5302C146.245 25.3659 148.519 30.8204 155.177 34.3286C155.81 34.6724 152.684 35.1503 147.072 35.5465Z" fill="#4F2F2F"/>
<path d="M147.072 35.5465C144.98 32.592 142.207 29.3402 139.97 29.0256C135.78 28.4428 126.592 23.5244 123.509 21.5896C120.426 19.6549 94.4797 2.99406 91.6886 8.50106C88.8976 14.0081 84.0695 5.34255 74.6018 4.83556C74.6018 4.62576 74.6687 4.4218 74.693 4.21784C79.9589 4.43346 83.3824 3.30875 87.4625 1.98007C99.624 -2.01177 110.569 8.16889 114.996 6.75863C120.268 5.08031 133.974 21.8519 139.83 23.5302C146.245 25.3659 148.519 30.8204 155.177 34.3286C155.81 34.6724 152.684 35.1503 147.072 35.5465Z" fill="#593636"/>
<path d="M52.9058 14.8411C52.6182 14.8471 52.3324 14.8863 52.0545 14.9577C49.9688 15.3365 44.8184 16.4495 43.4138 15.5404C41.699 14.439 38.5492 15.6395 37.5459 14.34C37.5459 14.34 40.9754 11.2397 41.8815 11.1407C42.4895 11.0707 45.0677 10.4064 46.515 10.2083C47.196 10.1092 47.6277 10.115 47.4818 10.3481C47.0318 11.0416 51.8173 12.3411 51.7383 12.2421C51.6592 12.143 53.3679 14.9402 52.9058 14.8411Z" fill="#7C7976"/>
<path d="M52.9056 14.8421C52.618 14.8481 52.3322 14.8873 52.0543 14.9587C51.7619 14.3429 51.5574 13.6921 51.4463 13.024C51.4463 12.2081 47.2627 11.5554 47.0621 10.757C47.0129 10.6327 46.9365 10.5199 46.8378 10.4264C46.7392 10.3329 46.6207 10.2608 46.4905 10.2151C47.1715 10.116 47.6033 10.1219 47.4573 10.355C47.0073 11.0484 51.7929 12.348 51.7138 12.2489C51.6348 12.1498 53.3678 14.9412 52.9056 14.8421Z" fill="#898683"/>
<path d="M21.7726 35.2384C21.5001 35.2439 21.229 35.2771 20.9639 35.3375C18.9998 35.6463 14.1413 36.5496 12.8218 35.8153C11.2043 34.9121 8.22476 35.8969 7.28833 34.8305C7.28833 34.8305 10.5172 32.3013 11.3746 32.2198C11.9826 32.1615 14.3784 31.637 15.7405 31.4563C16.3851 31.3748 16.7925 31.3864 16.6587 31.5729C16.2331 32.1557 20.745 33.1988 20.6598 33.123C20.5747 33.0473 22.1922 35.32 21.7726 35.2384Z" fill="#7C7976"/>
<path d="M21.7725 35.2384C21.5001 35.2439 21.229 35.2771 20.9638 35.3375C20.7037 34.8367 20.5194 34.303 20.4165 33.7524C20.4165 33.0881 16.4702 32.5519 16.2877 31.9051C16.2346 31.7976 16.1584 31.702 16.0641 31.6247C15.9698 31.5474 15.8595 31.49 15.7405 31.4563C16.385 31.3748 16.7924 31.3864 16.6587 31.5729C16.233 32.1557 20.7449 33.1988 20.6598 33.123C20.5746 33.0473 22.1921 35.32 21.7725 35.2384Z" fill="#898683"/>
<path d="M70.3757 3.78685C70.1076 3.79223 69.8407 3.82347 69.5792 3.88009C67.6394 4.18895 62.8296 5.08638 61.5222 4.35794C59.923 3.46634 56.9799 4.4337 56.0496 3.38475C56.0496 3.38475 59.248 0.884748 60.0932 0.803163C60.7013 0.744888 63.0667 0.220412 64.4166 0.0455869C65.0247 -0.0301707 65.4504 -0.0243432 65.3166 0.162137C64.897 0.744888 69.3602 1.77053 69.2812 1.69477C69.2022 1.61901 70.7953 3.86843 70.3757 3.78685Z" fill="#7C7976"/>
<path d="M70.3756 3.78691C70.1075 3.79229 69.8406 3.82353 69.579 3.88015C69.3186 3.39236 69.1362 2.86982 69.0378 2.33003C69.0378 1.67153 65.134 1.16453 64.9516 0.500196C64.8969 0.313716 64.6901 0.173856 64.4165 0.0573056C65.0246 -0.018452 65.4502 -0.0126245 65.3165 0.173856C64.8969 0.756607 69.3601 1.78225 69.2811 1.70649C69.202 1.63073 70.7952 3.8685 70.3756 3.78691Z" fill="#898683"/>
<path d="M97.1005 6.61928C96.5819 6.74802 96.0531 6.83573 95.5195 6.88152C92.4123 7.25448 85.8755 7.79643 85.5836 7.65075C85.2918 7.50506 78.2442 7.068 76.6997 6.39783C76.6997 6.39783 79.4604 1.02487 81.0353 1.96892C82.6102 2.91298 83.0905 0.17405 84.2276 0.348875C84.7294 0.422462 85.2347 0.47109 85.7417 0.494563C86.6393 0.529485 87.5344 0.609236 88.4233 0.733491C89.4875 0.943281 90.5941 1.40948 91.3603 1.61927C92.1265 1.82906 94.2243 1.96892 94.5466 2.24282C94.8689 2.51671 95.0635 5.0983 95.7992 5.30809C96.535 5.51788 97.6539 6.34538 97.1005 6.61928Z" fill="#7C7976"/>
<path d="M97.1005 6.61885C96.5819 6.7476 96.0531 6.83531 95.5195 6.88109C95.1972 6.35079 94.8384 5.75638 94.5283 5.71559C93.975 5.61652 94.3459 3.0058 93.6223 2.80184C92.8987 2.59787 92.2177 2.70277 91.7981 2.21908C91.7981 2.21908 88.9402 1.23423 87.797 1.29251C87.0514 1.20113 86.3433 0.926056 85.7417 0.494141C86.6393 0.529062 87.5344 0.608813 88.4233 0.733069C89.4874 0.942859 90.5941 1.40906 91.3603 1.61885C92.1265 1.82864 94.2243 1.9685 94.5466 2.24239C94.8689 2.51629 95.0634 5.09787 95.7992 5.30766C96.535 5.51745 97.6538 6.34496 97.1005 6.61885Z" fill="#898683"/>
<path d="M78.1165 8.6927C77.3359 8.80552 76.5459 8.8465 75.7572 8.81508C75.0252 8.79127 74.3047 8.63301 73.635 8.34887C74.0318 7.95834 74.5637 7.72004 75.1309 7.67871C75.4471 7.72533 75.7815 7.7603 76.0673 7.78943C76.2694 7.8108 76.4733 7.8108 76.6754 7.78943C77.2794 7.83505 77.8495 8.07538 78.2928 8.47125C78.3962 8.57615 78.305 8.64608 78.1165 8.6927Z" fill="#877D74"/>
<path d="M78.1164 8.69428C77.9844 8.5058 77.812 8.34646 77.6107 8.22688C77.4094 8.1073 77.1837 8.03023 76.9489 8.00081C76.6534 7.95437 76.3625 7.88419 76.0793 7.79102C76.2814 7.81238 76.4853 7.81238 76.6874 7.79102C77.2915 7.83663 77.8616 8.07696 78.3049 8.47283C78.3961 8.57773 78.3049 8.64766 78.1164 8.69428Z" fill="#8E857C"/>
<path d="M116.328 14.4103C115.797 14.4874 115.259 14.5147 114.722 14.4919C114.223 14.4782 113.732 14.3714 113.275 14.1772C113.548 13.9133 113.91 13.752 114.297 13.7227L114.905 13.7984C115.048 13.8158 115.193 13.8158 115.337 13.7984C115.748 13.83 116.136 13.9944 116.437 14.2646C116.516 14.3287 116.449 14.3812 116.328 14.4103Z" fill="#877D74"/>
<path d="M116.327 14.4097C116.236 14.2826 116.118 14.1751 115.981 14.0938C115.844 14.0126 115.691 13.9594 115.531 13.9377C115.324 13.9076 115.121 13.8608 114.923 13.7979C115.066 13.8152 115.211 13.8152 115.355 13.7979C115.766 13.8295 116.154 13.9938 116.455 14.2641C116.516 14.3282 116.449 14.3806 116.327 14.4097Z" fill="#8E857C"/>
<path d="M124.701 38.0527C124.011 38.1529 123.312 38.188 122.615 38.1576C121.969 38.1373 121.333 37.9968 120.742 37.7439C121.093 37.4022 121.563 37.1949 122.062 37.1611C122.341 37.2019 122.67 37.2311 122.889 37.2544C123.072 37.2763 123.258 37.2763 123.442 37.2544C123.975 37.2877 124.481 37.4931 124.877 37.8371C124.95 37.9478 124.865 38.012 124.701 38.0527Z" fill="#877D74"/>
<path d="M124.701 38.0524C124.582 37.8904 124.428 37.7546 124.25 37.6541C124.071 37.5536 123.873 37.4907 123.667 37.4697C123.407 37.4258 123.15 37.3614 122.901 37.2773C123.085 37.2992 123.27 37.2992 123.454 37.2773C123.988 37.3106 124.493 37.5161 124.889 37.8601C124.95 37.9475 124.865 38.0116 124.701 38.0524Z" fill="#8E857C"/>
<path d="M139.611 36.6543C138.921 36.7557 138.223 36.7928 137.525 36.7651C136.879 36.7453 136.243 36.6047 135.652 36.3513C136.002 36.0073 136.472 35.7997 136.972 35.7686C137.252 35.8093 137.543 35.8385 137.799 35.8676C137.985 35.8873 138.172 35.8873 138.358 35.8676C138.889 35.9031 139.392 36.1083 139.787 36.4504C139.86 36.5494 139.775 36.6135 139.611 36.6543Z" fill="#877D74"/>
<path d="M139.611 36.653C139.491 36.4918 139.337 36.3565 139.159 36.2561C138.98 36.1557 138.782 36.0924 138.577 36.0703C138.315 36.0247 138.057 35.9624 137.805 35.8838C137.991 35.9034 138.178 35.9034 138.364 35.8838C138.895 35.9193 139.398 36.1245 139.793 36.4665C139.86 36.5481 139.775 36.6122 139.611 36.653Z" fill="#8E857C"/>
<path d="M133.627 36.9567C132.42 37.1295 131.198 37.1919 129.979 37.1431C129.851 37.1431 127.547 36.9975 126.677 36.4147C126.61 36.3681 128.027 35.2492 129 35.3774C129.499 35.4415 130.015 35.4998 130.465 35.5406C130.788 35.5798 131.115 35.5798 131.438 35.5406C132.379 35.6162 133.267 35.9893 133.962 36.6012C134.065 36.7644 133.913 36.8751 133.627 36.9567Z" fill="#877D74"/>
<path d="M133.627 36.9571C133.421 36.6625 133.152 36.4134 132.837 36.2265C132.523 36.0396 132.17 35.9191 131.803 35.8732C131.342 35.8013 130.888 35.6901 130.447 35.541C130.77 35.5803 131.097 35.5803 131.42 35.541C132.361 35.6166 133.248 35.9897 133.943 36.6016C134.065 36.7648 133.913 36.8755 133.627 36.9571Z" fill="#8E857C"/>
<path d="M54.8212 17.4814C54.1028 17.6014 53.3726 17.6444 52.6443 17.6096C51.963 17.5832 51.2963 17.412 50.6924 17.1084C51.0352 16.7086 51.5293 16.4551 52.0666 16.4033L52.9301 16.514C53.1318 16.5416 53.3365 16.5416 53.5382 16.514C54.1114 16.5685 54.6427 16.8262 55.0279 17.2367C55.0766 17.3532 54.9915 17.429 54.8212 17.4814Z" fill="#877D74"/>
<path d="M54.8213 17.481C54.7108 17.2886 54.5568 17.1223 54.3706 16.9943C54.1843 16.8662 53.9706 16.7797 53.745 16.7409C53.4702 16.6913 53.2013 16.6151 52.9424 16.5137C53.1441 16.5412 53.3488 16.5412 53.5505 16.5137C54.1237 16.5682 54.655 16.8259 55.0402 17.2363C55.0767 17.3528 54.9916 17.4286 54.8213 17.481Z" fill="#8E857C"/>
<path d="M23.5359 14.8946C22.846 14.9947 22.1474 15.0299 21.4503 14.9995C20.8046 14.9789 20.1689 14.8405 19.5774 14.5915C19.9262 14.2466 20.3967 14.0388 20.8969 14.0088L21.7239 14.102C21.9098 14.1217 22.0974 14.1217 22.2833 14.102C22.8143 14.1375 23.3174 14.3427 23.7123 14.6848C23.7853 14.7897 23.7184 14.8538 23.5359 14.8946Z" fill="#877D74"/>
<path d="M23.5357 14.8942C23.4158 14.733 23.2617 14.5978 23.0836 14.4974C22.9055 14.3969 22.7073 14.3336 22.502 14.3115C22.2399 14.2687 21.9817 14.2063 21.7297 14.125C21.9156 14.1446 22.1033 14.1446 22.2892 14.125C22.8201 14.1605 23.3233 14.3657 23.7181 14.7078C23.785 14.7893 23.7181 14.8534 23.5357 14.8942Z" fill="#8E857C"/>
<path d="M27.3668 13.8329C26.375 13.9757 25.3711 14.0265 24.369 13.9844C24.2657 13.9844 22.405 13.8678 21.6692 13.4016C22.1754 12.9077 22.852 12.6074 23.5725 12.5566C23.9738 12.6091 24.3994 12.6557 24.7886 12.6907C25.0552 12.7216 25.3247 12.7216 25.5913 12.6907C26.3583 12.7521 27.0818 13.0578 27.6465 13.559C27.7073 13.6814 27.5857 13.7688 27.3668 13.8329Z" fill="#877D74"/>
<path d="M27.3667 13.8335C27.1986 13.5945 26.9794 13.3924 26.7236 13.2407C26.4678 13.089 26.1813 12.9911 25.883 12.9536C25.5045 12.8935 25.1322 12.8018 24.7703 12.6797C25.0368 12.7106 25.3063 12.7106 25.5729 12.6797C26.3399 12.7411 27.0634 13.0468 27.6282 13.548C27.7073 13.682 27.5856 13.7694 27.3667 13.8335Z" fill="#8E857C"/>
<path d="M26.3818 14.9177C26.064 14.9636 25.7421 14.9792 25.4211 14.9643C25.1214 14.9563 24.8261 14.893 24.5515 14.7778C24.7122 14.618 24.9287 14.5205 25.1596 14.5039L25.5427 14.568C25.6274 14.5793 25.7133 14.5793 25.7981 14.568C26.0451 14.5887 26.2781 14.687 26.4609 14.8477C26.4973 14.8652 26.4548 14.8944 26.3818 14.9177Z" fill="#877D74"/>
<path d="M26.3816 14.917C26.3276 14.8404 26.2576 14.7755 26.1759 14.7263C26.0942 14.6771 26.0028 14.6448 25.9073 14.6315C25.7838 14.6221 25.6615 14.6006 25.5425 14.5674C25.6272 14.5787 25.7131 14.5787 25.7979 14.5674C26.0449 14.5881 26.2779 14.6864 26.4607 14.8471C26.4972 14.8646 26.4546 14.8937 26.3816 14.917Z" fill="#8E857C"/>
<path d="M57.1623 16.2748C56.7384 16.3716 56.3019 16.4069 55.8671 16.3797C55.4569 16.3475 55.0636 16.2085 54.73 15.9776C54.73 15.9484 55.2104 15.3424 55.557 15.3948L56.0738 15.4881C56.1884 15.5077 56.3058 15.5077 56.4204 15.4881C56.6042 15.5185 56.779 15.5862 56.9331 15.6867C57.0873 15.7872 57.2173 15.9182 57.3143 16.0708C57.3264 16.1699 57.2717 16.234 57.1623 16.2748Z" fill="#877D74"/>
<path d="M57.1623 16.2751C57.1078 16.1376 57.0215 16.0137 56.9098 15.9128C56.7982 15.8119 56.6641 15.7365 56.5177 15.6924C56.3513 15.6489 56.1902 15.5883 56.0374 15.5117C56.152 15.5314 56.2693 15.5314 56.384 15.5117C56.5677 15.5421 56.7425 15.6099 56.8967 15.7104C57.0509 15.8109 57.1808 15.9419 57.2778 16.0945C57.3265 16.1702 57.2717 16.2343 57.1623 16.2751Z" fill="#8E857C"/>
<path d="M58.5608 4.95808C57.8968 5.05289 57.2248 5.08606 56.5542 5.05715C55.9249 5.04104 55.305 4.90639 54.73 4.66088C55.0696 4.32371 55.5257 4.11656 56.013 4.07812L56.8217 4.17137C57.0016 4.191 57.1831 4.191 57.3629 4.17137C57.8814 4.21314 58.371 4.41802 58.7554 4.75412C58.8041 4.85318 58.7189 4.91146 58.5608 4.95808Z" fill="#877D74"/>
<path d="M58.5608 4.95774C58.4467 4.79757 58.2981 4.66268 58.1251 4.56216C57.952 4.46164 57.7585 4.39782 57.5575 4.37499C57.3034 4.33482 57.0532 4.2744 56.8096 4.19434C56.9894 4.21397 57.1709 4.21397 57.3508 4.19434C57.8693 4.23611 58.3588 4.44099 58.7432 4.77709C58.804 4.85284 58.7189 4.91112 58.5608 4.95774Z" fill="#8E857C"/>
<path d="M60.5067 6.33975C60.1067 6.41678 59.698 6.4442 59.2906 6.42134C58.9047 6.40292 58.5302 6.29061 58.2021 6.095C58.2021 6.095 58.646 5.58218 58.9683 5.63462L59.4548 5.70455C59.5612 5.72422 59.6706 5.72422 59.7771 5.70455C59.9427 5.72511 60.1022 5.77814 60.2455 5.86036C60.3888 5.94257 60.5129 6.0522 60.6101 6.18241C60.6466 6.25817 60.598 6.30479 60.5067 6.33975Z" fill="#877D74"/>
<path d="M60.5068 6.33832C60.4505 6.21868 60.3665 6.11292 60.2611 6.0291C60.1557 5.94528 60.0318 5.88561 59.8987 5.85464C59.7428 5.82184 59.5917 5.77096 59.4487 5.70312C59.5552 5.72279 59.6646 5.72279 59.771 5.70312C59.9367 5.72368 60.0961 5.77671 60.2395 5.85893C60.3828 5.94114 60.5069 6.05077 60.6041 6.18098C60.6466 6.25674 60.598 6.30336 60.5068 6.33832Z" fill="#8E857C"/>
<path d="M104.513 8.15717C104.277 8.15903 104.043 8.1864 103.813 8.23876C102.099 8.51265 97.8544 9.30519 96.699 8.65834C95.2883 7.87162 92.6858 8.72827 91.8345 7.8017C91.8345 7.8017 94.6559 5.59307 95.4039 5.51731C95.9146 5.47069 98.0307 4.99866 99.2165 4.85297C99.782 4.78304 100.135 4.78887 100.019 4.95204C99.6482 5.44738 103.588 6.37978 103.516 6.30402C103.443 6.22827 104.884 8.25041 104.513 8.15717Z" fill="#878584"/>
<path d="M104.513 8.15717C104.277 8.15903 104.043 8.1864 103.814 8.23876C103.581 7.80467 103.419 7.33887 103.333 6.85764C103.333 6.27489 99.8855 5.80869 99.7214 5.24342C99.6788 5.08025 99.4964 4.95204 99.2471 4.85297C99.8126 4.78304 100.165 4.78887 100.05 4.95204C99.6788 5.44738 103.619 6.37978 103.546 6.30402C103.473 6.22827 104.884 8.25041 104.513 8.15717Z" fill="#939190"/>
<path d="M83.9173 36.1294C82.9729 36.3686 82.0085 36.5285 81.0351 36.6072C75.4043 37.2949 63.5104 38.2972 62.9875 38.035C62.3186 37.6737 49.6099 36.9744 46.825 35.7506C46.825 35.7506 51.8415 25.972 54.7299 27.697C57.6182 29.4219 58.4756 24.4277 60.543 24.7482C61.4437 24.8806 62.351 24.9682 63.2611 25.0105C64.8898 25.0735 66.5138 25.2213 68.1257 25.4534C70.0715 25.8322 72.0782 26.6713 73.4767 27.0559C74.8753 27.4406 78.6879 27.697 79.2717 28.2214C79.8554 28.7459 80.2142 33.4079 81.5519 33.7925C82.8897 34.1772 84.9389 35.6515 83.9173 36.1294Z" fill="#7C7976"/>
<path d="M83.9173 36.1305C82.9729 36.3697 82.0085 36.5296 81.0351 36.6083C80.427 35.6468 79.8189 34.5687 79.2109 34.4463C78.2076 34.2657 78.8764 29.5163 77.5569 29.1375C76.2374 28.7587 75.0091 28.9568 74.2125 28.1118C74.2125 28.1118 69.0074 26.3286 66.9157 26.4335C65.8941 26.4743 64.4287 25.7517 63.176 24.9883C64.8047 25.0513 66.4286 25.1991 68.0406 25.4312C69.9864 25.81 71.9931 26.6491 73.3916 27.0337C74.7902 27.4184 78.6028 27.6748 79.1866 28.1992C79.7703 28.7237 80.1291 33.3857 81.4668 33.7703C82.8046 34.155 84.9389 35.6526 83.9173 36.1305Z" fill="#898683"/>
<path d="M97.4167 37.8778C96.9867 37.8911 96.5592 37.9438 96.1397 38.0351C93.0203 38.5246 85.2978 39.9698 83.1999 38.7985C80.6339 37.3649 75.9031 38.9267 74.4072 37.2367C74.4072 37.2367 79.5454 33.2158 80.9014 33.0875C81.8318 32.9943 85.6748 32.1318 87.8395 31.8754C88.8672 31.7472 89.5117 31.7589 89.2928 32.0561C88.6239 32.9593 95.7931 34.6435 95.6593 34.5153C95.5256 34.3871 98.0916 37.9827 97.4167 37.8778Z" fill="#878584"/>
<path d="M97.4167 37.8779C96.9868 37.8913 96.5592 37.944 96.1398 38.0353C95.7242 37.2424 95.4293 36.3966 95.2642 35.5236C95.2277 34.463 89.001 33.6122 88.7031 32.6099C88.624 32.3185 88.2835 32.0854 87.8396 31.9047C88.8672 31.7765 89.5118 31.7882 89.2929 32.0854C88.624 32.9886 95.7932 34.6728 95.6594 34.5446C95.5256 34.4164 98.0917 37.9828 97.4167 37.8779Z" fill="#939190"/>
<path d="M126.592 13.4317C126.366 13.4068 126.137 13.4068 125.911 13.4317C124.239 13.5017 120.08 13.8047 119.052 13.0646C117.793 12.1613 115.203 12.7033 114.522 11.7243C114.522 11.7243 117.489 9.91191 118.213 9.92356C118.705 9.92356 120.785 9.70794 121.94 9.69629C122.487 9.69629 122.828 9.73708 122.694 9.87694C122.281 10.314 125.947 11.6252 125.881 11.5494C125.814 11.4737 126.939 13.5366 126.592 13.4317Z" fill="#878584"/>
<path d="M126.592 13.4317C126.366 13.4068 126.137 13.4068 125.911 13.4317C125.741 12.9899 125.641 12.5264 125.613 12.0564C125.662 11.4737 122.439 10.6811 122.348 10.1217C122.348 9.95853 122.159 9.81867 121.94 9.69629C122.487 9.69629 122.828 9.73708 122.694 9.87694C122.281 10.314 125.947 11.6252 125.88 11.5494C125.814 11.4737 126.939 13.5366 126.592 13.4317Z" fill="#939190"/>
<path d="M9.56244 36.0712C8.23684 36.4383 4.66138 36.3334 4.53369 36.3334C4.40599 36.3334 1.2197 36.1294 0.00355358 35.3311C-0.0937379 35.2728 1.82777 33.7635 3.18377 33.915C3.86481 34.0024 4.57625 34.0782 5.1904 34.1364C5.63543 34.1978 6.08639 34.2096 6.53424 34.1714C7.0207 34.0781 9.30705 34.7541 9.98809 35.6224C10.1644 35.8147 9.95769 35.9663 9.56244 36.0712Z" fill="#877D74"/>
<path d="M9.56229 36.0715C9.2804 35.6691 8.91222 35.3289 8.48232 35.0737C8.05241 34.8184 7.57066 34.654 7.06919 34.5913C6.43626 34.4923 5.81364 34.3402 5.2085 34.1367C5.65352 34.1981 6.10448 34.2099 6.55233 34.1717C7.03879 34.0784 9.32514 34.7544 10.0062 35.6227C10.1643 35.815 9.95754 35.9666 9.56229 36.0715Z" fill="#8E857C"/>
<path d="M311.478 33.4441C267.955 33.8677 187 31.5771 187 31.5771L192.732 27.5646C192.732 27.5646 209.022 6.20304 215.901 7.21734C222.781 8.23163 224.16 0.875203 227.139 3.20474C230.117 5.53427 239.738 1.9508 241.592 2.74775C242.641 3.19359 246.715 1.48267 250.969 0.864057C254.151 0.384775 257.443 0.518528 259.627 2.62514C264.756 7.54615 270.088 -1.93919 273.849 0.635562C277.61 3.21031 299.627 1.19287 300.085 5.20546C300.543 9.21806 320.502 19.2217 323.707 23.8975C326.912 28.5733 336.561 27.2413 338.392 31.5771C338.891 32.7642 327.827 33.2881 311.478 33.4441Z" fill="#4F2F2F"/>
<path d="M311.479 33.4438C311.479 33.4438 305.104 25.558 304.246 25.0843C303.388 24.6105 293.154 8.06415 291.432 11.0625C289.711 14.0608 273.797 5.68446 272.592 3.26018C271.386 0.835906 264.339 10.2878 261.494 5.66217C258.648 1.03654 250.975 0.858198 250.975 0.858198C254.157 0.378915 257.449 0.512668 259.633 2.61928C264.762 7.54029 270.094 -1.94505 273.855 0.629703C277.616 3.20445 299.633 1.18701 300.091 5.1996C300.549 9.2122 320.508 19.2158 323.713 23.8916C326.917 28.5674 336.567 27.2355 338.398 31.5713C338.891 32.7639 327.827 33.2878 311.479 33.4438Z" fill="#593636"/>
<path d="M222.485 8.27637C221.593 9.54703 222.393 10.7229 221.326 10.9347C221.055 10.9728 220.78 10.9728 220.509 10.9347C218.284 10.7174 218.318 13.2698 217.31 12.9076C216.302 12.5453 215.398 12.2667 214.053 11.8153C212.709 11.3638 210.715 11.0963 212.054 10.0932C213.392 9.09004 213.485 9.53588 212.054 9.30181C210.622 9.06775 210.211 8.3321 211.613 8.1872C213.016 8.0423 214.354 6.51529 215.589 7.18963C216.267 7.5463 217.159 7.35125 217.907 7.18963C218.655 7.02801 219.425 6.87196 219.547 7.49614C219.796 8.6832 223.546 6.76607 222.485 8.27637Z" fill="#408269"/>
<path d="M293.635 5.57822C293.495 7.25013 294.04 7.00492 292.985 6.64267L292.748 6.57022C291.38 6.18011 292.006 7.12753 291.415 8.98893C290.824 10.8503 291.264 5.36087 290.563 5.86245C289.862 6.36402 288.9 4.5472 288.309 5.71755C287.717 6.88789 288.309 7.10524 286.605 7.81859C284.901 8.53194 278.839 5.03206 277.912 6.70398C276.984 8.37589 274.51 8.16969 272.771 6.35287C271.033 4.53606 265.817 8.74371 265.515 9.74129C264.293 13.5421 262.989 9.41805 262.508 7.39503C262.027 5.37202 262.015 6.19683 260.954 4.45246C260.323 3.42145 264.513 1.80526 266.75 1.9836C268.987 2.16194 268.546 0.963733 271.421 0.055326C272.47 -0.273484 275.53 1.08634 277.008 0.980452C278.485 0.874564 283.701 2.79169 285.278 1.5712C287.057 0.200225 292.713 2.60221 294.475 2.88086C294.637 2.88086 294.77 2.93102 294.881 2.95889C296.289 3.349 293.779 3.9063 293.635 5.57822Z" fill="#408269"/>
<path d="M256.081 4.68123C254.452 4.99332 253.983 4.79827 254.342 7.34515C254.702 9.89204 252.273 13.2359 251.908 11.7089C251.578 10.2431 248.002 22.8995 247.538 21.7013C247.501 21.5745 247.486 21.4428 247.492 21.3112C247.428 18.1123 246.153 18.9092 245.609 19.8567C245.064 20.8041 243.012 26.026 242.207 21.9911C241.401 17.9562 240.561 14.8576 239.471 16.1116C238.382 17.3655 235.548 18.6529 235.467 17.8336C235.386 17.0144 235.2 13.5089 234.134 12.1436C233.067 10.7782 231.236 8.4932 232.801 7.50677C234.366 6.52034 235.577 4.83728 234.673 3.90658C233.769 2.97588 235.223 2.23466 237.147 2.33498C237.727 2.33498 238.092 0.172634 240.178 0.702074C242.265 1.23151 243.551 -0.0948728 244.374 0.0054421C245.197 0.105757 247.99 0.607332 248.674 0.417848C249.055 0.320516 249.442 0.247902 249.833 0.200499C250.459 0.128049 251.05 0.155915 251.068 0.495871C251.045 1.06432 257.704 4.36914 256.081 4.68123Z" fill="#408269"/>
<path d="M256.081 4.68063C254.452 4.99272 253.983 4.79766 254.342 7.34455C254.701 9.89143 252.273 13.2353 251.908 11.7082C251.578 10.2425 248.002 22.8989 247.538 21.7007C248.158 20.5861 248.506 17.3426 248.773 17.3147C249.039 17.2869 250.842 12.678 251.016 11.4797C251.189 10.2815 251.804 10.8333 252.383 11.2903C252.963 11.7473 252.679 10.2983 252.963 10.2147C253.247 10.1311 253.71 7.98545 253.542 7.20522C253.397 6.19163 253.6 5.16015 254.122 4.26822C254.62 3.43784 252.638 3.51586 251.502 1.97212C251.016 1.31149 250.439 0.717204 249.787 0.205467C250.413 0.133017 251.004 0.160882 251.021 0.500839C251.045 1.06372 257.703 4.36854 256.081 4.68063Z" fill="#458C6F"/>
<path d="M293.635 5.57958C293.496 7.2515 294.04 7.00628 292.986 6.64403C293.112 6.55875 293.21 6.44089 293.27 6.30408C293.274 5.84726 293.309 5.39117 293.374 4.93868C293.62 4.29081 294.102 3.75045 294.73 3.41724C294.973 3.28348 294.979 3.12187 294.875 2.96582C296.289 3.35036 293.78 3.90767 293.635 5.57958Z" fill="#458C6F"/>
<path d="M222.485 8.27637C221.593 9.54702 222.392 10.7229 221.326 10.9347C221.326 10.6616 221.842 10.1712 221.709 10.0542C221.575 9.93713 222.288 8.27079 222.392 7.99214C222.497 7.71349 220.903 8.1872 219.657 8.09803C219.46 8.09803 218.996 7.13389 218.77 7.19519C218.544 7.2565 218.191 7.30108 218.191 7.2342C218.191 7.16733 218.023 7.2342 217.93 7.16733C218.764 6.99456 219.448 6.84966 219.57 7.47385C219.796 8.6832 223.546 6.76607 222.485 8.27637Z" fill="#458C6F"/>
<path d="M348.065 31.1308C347.763 31.3147 346.326 31.5599 344.246 31.8664C336.77 32.8863 321.099 34.1625 320.328 34.0009C319.129 33.7668 302.733 34.5248 298.781 33.8226C298.781 33.8226 305.573 15.5095 309.369 18.1511C313.165 20.7928 314.324 13.1354 317.065 13.637C318.256 13.8351 319.458 13.969 320.664 14.0382C322.982 14.2221 325.503 14.3448 327.109 14.7126C329.688 15.2699 332.325 16.5851 334.196 17.1703C336.068 17.7555 341.087 18.1511 341.864 18.9202C342.64 19.6893 343.11 26.873 344.883 27.4581C346.656 28.0433 349.392 30.3617 348.065 31.1308Z" fill="#7C7976"/>
<path d="M348.065 31.1309C347.763 31.3148 346.326 31.56 344.246 31.8665C343.469 30.3897 342.611 28.7345 341.864 28.5227C340.537 28.244 341.423 20.9656 339.679 20.3805C337.934 19.7953 336.3 20.1074 335.251 18.8144C335.251 18.8144 328.355 16.0836 325.614 16.2341C324.257 16.2954 322.322 15.1919 320.664 14.0049C322.982 14.1888 325.503 14.3114 327.109 14.6792C329.688 15.2365 332.325 16.5518 334.196 17.1369C336.068 17.7221 341.087 18.1178 341.864 18.8869C342.64 19.656 343.11 26.8396 344.883 27.4248C346.656 28.01 349.392 30.3618 348.065 31.1309Z" fill="#898683"/>
<path d="M302.954 34.324C301.737 34.6583 298.439 34.558 298.317 34.558C298.196 34.558 295.281 34.3797 294.145 33.6385C294.058 33.5827 295.848 32.1839 297.083 32.3232C297.709 32.4068 298.358 32.4793 298.926 32.535C299.335 32.5897 299.749 32.5991 300.16 32.5629C300.606 32.4793 302.716 33.1202 303.342 33.906C303.487 34.0843 303.319 34.2236 302.954 34.324Z" fill="#877D74"/>
<path d="M302.954 34.3241C302.692 33.9494 302.349 33.633 301.949 33.3965C301.55 33.16 301.101 33.0088 300.636 32.9531C300.044 32.863 299.463 32.7232 298.897 32.5352C299.306 32.5899 299.72 32.5992 300.131 32.563C300.578 32.4794 302.687 33.1203 303.313 33.9061C303.487 34.0845 303.319 34.2238 302.954 34.3241Z" fill="#8E857C"/>
<path d="M336.274 160.167C331.24 160.531 324.206 160.831 316.082 160.907C270.28 161.353 190 159.01 190 159.01L191.17 154.711C191.17 154.711 204.579 136.339 211.789 137.402C218.999 138.465 223.149 130.801 227.818 132.005C231.725 133.009 240.617 127.717 242.555 128.551C243.658 129.027 246.37 126.507 250.85 125.855C254.19 125.35 258.28 128.099 261.522 128.428C262.286 128.506 263.011 128.559 263.698 128.586C268.976 128.804 272.407 127.67 276.497 126.331C288.686 122.308 299.657 132.569 304.094 131.147C309.384 129.456 323.115 146.359 328.991 148.05C335.421 149.901 337.7 155.398 344.374 158.934C345.002 159.28 341.869 159.762 336.274 160.167Z" fill="#3D755D"/>
<path d="M336.274 160.167C334.178 157.189 331.398 153.912 329.156 153.595C324.95 153.008 315.747 148.05 312.657 146.101C309.567 144.151 283.561 127.353 280.757 132.903C277.954 138.454 273.126 129.72 263.637 129.209L263.728 128.586C269.006 128.804 272.438 127.67 276.527 126.331C288.717 122.308 299.687 132.569 304.124 131.147C309.415 129.456 323.146 146.359 329.021 148.05C335.451 149.901 337.731 155.398 344.405 158.934C345.002 159.28 341.869 159.762 336.274 160.167Z" fill="#457F65"/>
<path d="M211.819 158.111C210.852 158.26 209.872 158.319 208.894 158.288C208.796 158.288 206.974 158.176 206.255 157.7C206.748 157.213 207.409 156.916 208.114 156.866C208.51 156.919 208.924 156.96 209.284 156.995C209.545 157.027 209.809 157.027 210.07 156.995C210.82 157.054 211.529 157.354 212.081 157.847C212.173 157.959 212.051 158.047 211.819 158.111Z" fill="#877D74"/>
<path d="M211.819 158.111C211.657 157.874 211.443 157.674 211.193 157.524C210.942 157.374 210.661 157.278 210.369 157.242C209.998 157.18 209.633 157.089 209.278 156.972C209.539 157.003 209.803 157.003 210.064 156.972C210.815 157.03 211.523 157.33 212.075 157.823C212.173 157.958 212.051 158.046 211.819 158.111Z" fill="#8E857C"/>
<path d="M213.343 153.882C212.371 154.026 211.387 154.077 210.405 154.035C210.302 154.035 208.479 153.917 207.76 153.447C208.246 152.966 208.895 152.67 209.588 152.613C209.985 152.672 210.399 152.713 210.759 152.748C211.018 152.78 211.28 152.78 211.539 152.748C212.291 152.807 213.001 153.107 213.556 153.6C213.69 153.735 213.568 153.823 213.343 153.882Z" fill="#877D74"/>
<path d="M213.343 153.883C213.178 153.645 212.963 153.444 212.712 153.292C212.461 153.14 212.18 153.041 211.886 153.002C211.517 152.944 211.154 152.856 210.802 152.737C211.061 152.769 211.323 152.769 211.582 152.737C212.334 152.796 213.044 153.096 213.599 153.589C213.69 153.736 213.569 153.824 213.343 153.883Z" fill="#8E857C"/>
<path d="M216.208 150.358C215.238 150.502 214.256 150.554 213.276 150.511C213.172 150.511 211.35 150.394 210.631 149.924C211.116 149.443 211.766 149.147 212.459 149.09C212.855 149.149 213.27 149.19 213.629 149.225C213.891 149.256 214.155 149.256 214.416 149.225C215.168 149.284 215.878 149.583 216.433 150.077C216.543 150.212 216.421 150.3 216.208 150.358Z" fill="#877D74"/>
<path d="M216.207 150.358C216.043 150.118 215.826 149.915 215.573 149.763C215.319 149.611 215.035 149.513 214.738 149.477C214.368 149.42 214.002 149.331 213.647 149.213C213.909 149.244 214.173 149.244 214.434 149.213C215.186 149.271 215.896 149.571 216.451 150.065C216.542 150.211 216.421 150.299 216.207 150.358Z" fill="#8E857C"/>
<path d="M223.997 149.066C223.025 149.207 222.041 149.258 221.059 149.218C220.961 149.218 219.139 149.101 218.42 148.631C218.905 148.15 219.555 147.854 220.248 147.797C220.645 147.85 221.059 147.897 221.419 147.932C221.68 147.96 221.944 147.96 222.205 147.932C222.955 147.991 223.664 148.29 224.216 148.784C224.35 148.889 224.228 149.001 223.997 149.066Z" fill="#877D74"/>
<path d="M223.997 149.066C223.832 148.831 223.618 148.632 223.368 148.482C223.118 148.332 222.838 148.235 222.546 148.197C222.176 148.137 221.811 148.048 221.455 147.933C221.716 147.961 221.98 147.961 222.241 147.933C222.992 147.991 223.7 148.291 224.253 148.784C224.35 148.89 224.228 149.002 223.997 149.066Z" fill="#8E857C"/>
<path d="M223.521 142.394C222.549 142.535 221.566 142.586 220.584 142.546C220.486 142.546 218.658 142.429 217.945 141.959C218.429 141.477 219.079 141.181 219.773 141.125C220.169 141.178 220.584 141.225 220.943 141.26C221.202 141.288 221.464 141.288 221.723 141.26C222.476 141.316 223.188 141.616 223.741 142.112C223.887 142.241 223.771 142.329 223.521 142.394Z" fill="#877D74"/>
<path d="M223.521 142.393C223.356 142.158 223.14 141.958 222.889 141.808C222.638 141.658 222.357 141.562 222.064 141.524C221.702 141.461 221.345 141.371 220.998 141.254C221.257 141.282 221.519 141.282 221.778 141.254C222.531 141.31 223.242 141.61 223.795 142.106C223.887 142.241 223.771 142.329 223.521 142.393Z" fill="#8E857C"/>
<path d="M227.233 140.573C226.263 140.717 225.281 140.769 224.301 140.726C224.198 140.726 222.375 140.609 221.656 140.139C222.151 139.65 222.815 139.353 223.521 139.305C223.917 139.358 224.332 139.405 224.691 139.44C224.95 139.471 225.213 139.471 225.472 139.44C226.224 139.498 226.934 139.798 227.489 140.291C227.586 140.426 227.465 140.515 227.233 140.573Z" fill="#877D74"/>
<path d="M227.233 140.574C227.069 140.338 226.855 140.139 226.605 139.989C226.355 139.839 226.074 139.742 225.782 139.705C225.413 139.648 225.05 139.56 224.698 139.44C224.957 139.472 225.219 139.472 225.478 139.44C226.23 139.499 226.94 139.799 227.495 140.292C227.586 140.427 227.465 140.515 227.233 140.574Z" fill="#8E857C"/>
<path d="M228.635 136.057C227.663 136.198 226.679 136.249 225.697 136.209C225.6 136.209 223.777 136.092 223.058 135.622C223.544 135.141 224.193 134.845 224.887 134.788C225.283 134.841 225.697 134.888 226.057 134.923C226.318 134.951 226.582 134.951 226.843 134.923C227.594 134.981 228.302 135.281 228.854 135.775C229.007 135.904 228.866 135.998 228.635 136.057Z" fill="#877D74"/>
<path d="M228.635 136.057C228.47 135.821 228.255 135.621 228.004 135.471C227.753 135.321 227.471 135.225 227.178 135.188C226.807 135.131 226.442 135.042 226.087 134.924C226.348 134.952 226.612 134.952 226.873 134.924C227.624 134.981 228.333 135.282 228.885 135.775C229.007 135.905 228.866 135.999 228.635 136.057Z" fill="#8E857C"/>
<path d="M217.201 156.608C216.086 156.913 213.081 156.825 212.977 156.825C212.874 156.825 210.21 156.655 209.18 155.979C209.101 155.926 210.728 154.652 211.85 154.805C212.423 154.881 213.014 154.946 213.532 154.999C213.907 155.038 214.285 155.038 214.659 154.999C215.068 154.922 216.988 155.498 217.554 156.22C217.701 156.39 217.53 156.526 217.201 156.608Z" fill="#877D74"/>
<path d="M217.201 156.607C216.965 156.265 216.656 155.976 216.295 155.759C215.933 155.542 215.527 155.403 215.104 155.35C214.574 155.266 214.052 155.138 213.544 154.969C213.919 155.008 214.297 155.008 214.671 154.969C215.08 154.892 217 155.468 217.566 156.19C217.701 156.39 217.53 156.525 217.201 156.607Z" fill="#8E857C"/>
<path d="M221.766 152.807C220.651 153.112 217.646 153.024 217.542 153.024C217.439 153.024 214.775 152.854 213.77 152.179C213.69 152.132 215.324 150.857 216.445 151.004C217.018 151.08 217.609 151.145 218.127 151.198C218.502 151.24 218.88 151.24 219.255 151.198C219.663 151.121 221.583 151.697 222.15 152.425C222.266 152.59 222.095 152.719 221.766 152.807Z" fill="#877D74"/>
<path d="M221.766 152.808C221.529 152.467 221.22 152.18 220.858 151.964C220.496 151.748 220.091 151.609 219.669 151.557C219.139 151.472 218.617 151.344 218.109 151.175C218.484 151.217 218.862 151.217 219.237 151.175C219.645 151.098 221.565 151.674 222.132 152.402C222.266 152.59 222.095 152.719 221.766 152.808Z" fill="#8E857C"/>
<path d="M222.223 146.811C221.108 147.116 218.103 147.022 217.999 147.022C217.896 147.022 215.232 146.858 214.202 146.182C214.123 146.13 215.75 144.855 216.872 145.008C217.445 145.084 218.042 145.149 218.554 145.202C218.929 145.241 219.307 145.241 219.681 145.202C220.09 145.125 222.01 145.701 222.583 146.423C222.723 146.594 222.552 146.717 222.223 146.811Z" fill="#877D74"/>
<path d="M222.223 146.81C221.988 146.47 221.679 146.182 221.319 145.966C220.958 145.751 220.554 145.612 220.133 145.559C219.601 145.473 219.077 145.345 218.566 145.178C218.941 145.217 219.319 145.217 219.694 145.178C220.102 145.101 222.022 145.677 222.595 146.399C222.723 146.593 222.552 146.717 222.223 146.81Z" fill="#8E857C"/>
<path d="M228.397 145.014C227.282 145.319 224.277 145.231 224.173 145.231C224.07 145.231 221.406 145.061 220.37 144.386C220.291 144.339 221.924 143.058 223.046 143.211C223.619 143.287 224.21 143.352 224.728 143.405C225.103 143.444 225.481 143.444 225.855 143.405C226.264 143.328 228.184 143.904 228.75 144.626C228.897 144.779 228.726 144.92 228.397 145.014Z" fill="#877D74"/>
<path d="M228.397 145.014C228.161 144.672 227.851 144.384 227.49 144.168C227.128 143.953 226.722 143.814 226.3 143.763C225.77 143.678 225.248 143.55 224.74 143.381C225.115 143.42 225.493 143.42 225.868 143.381C226.276 143.304 228.196 143.88 228.763 144.602C228.897 144.779 228.726 144.92 228.397 145.014Z" fill="#8E857C"/>
<path d="M232.615 138.677C231.499 138.983 228.494 138.894 228.391 138.894C228.287 138.894 225.624 138.73 224.594 138.049C224.515 138.002 226.142 136.727 227.269 136.874C227.836 136.95 228.434 137.015 228.946 137.068C229.318 137.114 229.695 137.114 230.067 137.068C230.475 136.992 232.395 137.567 232.968 138.295C233.114 138.46 232.944 138.589 232.615 138.677Z" fill="#877D74"/>
<path d="M232.615 138.677C232.378 138.337 232.07 138.05 231.709 137.834C231.349 137.618 230.945 137.479 230.524 137.426C229.994 137.342 229.472 137.214 228.964 137.044C229.336 137.09 229.713 137.09 230.085 137.044C230.494 136.968 232.413 137.543 232.986 138.271C233.114 138.459 232.944 138.589 232.615 138.677Z" fill="#8E857C"/>
<path d="M215.83 158.141C215.38 158.207 214.925 158.231 214.47 158.212C214.05 158.198 213.636 158.106 213.251 157.941C213.479 157.715 213.785 157.577 214.111 157.554L214.653 157.618C214.775 157.63 214.897 157.63 215.019 157.618C215.365 157.646 215.691 157.785 215.945 158.012C215.988 158.071 215.933 158.112 215.83 158.141Z" fill="#877D74"/>
<path d="M215.83 158.141C215.754 158.032 215.655 157.94 215.539 157.871C215.424 157.802 215.294 157.758 215.159 157.742C214.988 157.712 214.819 157.671 214.653 157.618C214.775 157.63 214.897 157.63 215.019 157.618C215.365 157.646 215.691 157.785 215.945 158.012C215.988 158.07 215.933 158.112 215.83 158.141Z" fill="#8E857C"/>
<path d="M206.261 158.728C205.811 158.794 205.356 158.818 204.902 158.798C204.481 158.785 204.067 158.693 203.683 158.528C203.91 158.302 204.216 158.164 204.542 158.141C204.725 158.141 204.914 158.188 205.078 158.205C205.198 158.22 205.319 158.22 205.438 158.205C205.786 158.232 206.114 158.37 206.37 158.599C206.419 158.657 206.364 158.699 206.261 158.728Z" fill="#877D74"/>
<path d="M206.261 158.728C206.184 158.618 206.084 158.526 205.968 158.457C205.851 158.388 205.72 158.344 205.584 158.328C205.415 158.298 205.248 158.257 205.085 158.205C205.204 158.22 205.325 158.22 205.444 158.205C205.792 158.232 206.121 158.37 206.377 158.599C206.419 158.657 206.365 158.698 206.261 158.728Z" fill="#8E857C"/>
<path d="M207.614 155.562C207.166 155.628 206.713 155.652 206.261 155.632C205.84 155.619 205.426 155.527 205.042 155.362C205.269 155.136 205.575 154.998 205.901 154.975L206.444 155.039C206.563 155.051 206.684 155.051 206.803 155.039C207.151 155.066 207.479 155.204 207.736 155.433C207.778 155.491 207.723 155.533 207.614 155.562Z" fill="#877D74"/>
<path d="M207.614 155.562C207.538 155.453 207.439 155.36 207.323 155.291C207.208 155.221 207.078 155.175 206.943 155.157C206.773 155.133 206.606 155.093 206.444 155.039C206.563 155.05 206.684 155.05 206.803 155.039C207.151 155.066 207.48 155.204 207.736 155.433C207.778 155.491 207.724 155.532 207.614 155.562Z" fill="#8E857C"/>
<path d="M217.384 154.634C216.936 154.7 216.483 154.724 216.031 154.705C215.61 154.691 215.197 154.599 214.812 154.435C215.04 154.208 215.345 154.07 215.671 154.047L216.214 154.111C216.333 154.123 216.454 154.123 216.573 154.111C216.921 154.138 217.25 154.277 217.506 154.505C217.549 154.564 217.494 154.605 217.384 154.634Z" fill="#877D74"/>
<path d="M217.384 154.634C217.309 154.524 217.21 154.431 217.094 154.361C216.978 154.292 216.849 154.246 216.713 154.229C216.543 154.205 216.376 154.166 216.214 154.111C216.333 154.123 216.454 154.123 216.573 154.111C216.921 154.138 217.25 154.277 217.506 154.505C217.548 154.564 217.494 154.605 217.384 154.634Z" fill="#8E857C"/>
<path d="M212.148 151.763C211.699 151.829 211.244 151.853 210.789 151.834C210.369 151.821 209.954 151.729 209.57 151.563C209.798 151.337 210.104 151.199 210.43 151.176L210.966 151.24C211.087 151.255 211.21 151.255 211.332 151.24C211.68 151.267 212.008 151.406 212.264 151.634C212.307 151.693 212.252 151.734 212.148 151.763Z" fill="#877D74"/>
<path d="M212.148 151.762C212.072 151.653 211.972 151.56 211.855 151.492C211.738 151.423 211.608 151.379 211.472 151.363C211.302 151.333 211.135 151.292 210.972 151.239C211.092 151.254 211.212 151.254 211.332 151.239C211.68 151.266 212.008 151.404 212.264 151.633C212.307 151.691 212.252 151.733 212.148 151.762Z" fill="#8E857C"/>
<path d="M220.419 150.447C219.971 150.513 219.518 150.537 219.066 150.517C218.645 150.503 218.231 150.412 217.847 150.247C218.074 150.021 218.38 149.883 218.706 149.859L219.249 149.924C219.368 149.938 219.489 149.938 219.608 149.924C219.956 149.951 220.285 150.089 220.541 150.317C220.583 150.376 220.529 150.417 220.419 150.447Z" fill="#877D74"/>
<path d="M220.419 150.447C220.343 150.338 220.244 150.246 220.129 150.177C220.013 150.108 219.883 150.064 219.749 150.047C219.579 150.019 219.412 149.977 219.249 149.924C219.368 149.938 219.489 149.938 219.608 149.924C219.956 149.95 220.285 150.089 220.541 150.317C220.584 150.376 220.529 150.417 220.419 150.447Z" fill="#8E857C"/>
<path d="M226.569 147.064C226.119 147.13 225.664 147.154 225.209 147.134C224.789 147.122 224.375 147.03 223.99 146.864C224.218 146.639 224.524 146.503 224.85 146.482L225.35 146.541C225.469 146.558 225.59 146.558 225.709 146.541C226.056 146.57 226.384 146.709 226.642 146.935C226.703 146.999 226.648 147.035 226.569 147.064Z" fill="#877D74"/>
<path d="M226.569 147.064C226.491 146.955 226.391 146.863 226.275 146.794C226.158 146.725 226.028 146.681 225.892 146.664C225.708 146.638 225.527 146.597 225.35 146.541C225.469 146.558 225.59 146.558 225.709 146.541C226.056 146.57 226.384 146.708 226.642 146.935C226.703 146.999 226.648 147.034 226.569 147.064Z" fill="#8E857C"/>
<path d="M227.672 142.318C227.222 142.384 226.767 142.408 226.312 142.388C225.892 142.376 225.478 142.284 225.094 142.118C225.324 141.893 225.632 141.757 225.959 141.736L226.495 141.795C226.615 141.812 226.736 141.812 226.855 141.795C227.203 141.826 227.531 141.966 227.787 142.194C227.83 142.247 227.787 142.288 227.672 142.318Z" fill="#877D74"/>
<path d="M227.672 142.318C227.595 142.208 227.495 142.116 227.378 142.047C227.262 141.978 227.131 141.934 226.995 141.918C226.826 141.889 226.659 141.848 226.495 141.795C226.615 141.812 226.736 141.812 226.855 141.795C227.203 141.826 227.531 141.966 227.787 142.194C227.83 142.247 227.787 142.288 227.672 142.318Z" fill="#8E857C"/>
<path d="M223.576 137.801C223.126 137.867 222.671 137.891 222.217 137.872C221.796 137.858 221.382 137.766 220.998 137.602C221.225 137.375 221.531 137.237 221.857 137.214L222.4 137.278C222.521 137.29 222.644 137.29 222.765 137.278C223.113 137.306 223.441 137.444 223.698 137.672C223.734 137.731 223.679 137.772 223.576 137.801Z" fill="#877D74"/>
<path d="M223.576 137.801C223.5 137.692 223.401 137.6 223.285 137.53C223.17 137.46 223.04 137.414 222.906 137.396C222.734 137.371 222.564 137.332 222.4 137.278C222.521 137.29 222.644 137.29 222.765 137.278C223.113 137.306 223.441 137.444 223.698 137.672C223.734 137.731 223.68 137.772 223.576 137.801Z" fill="#8E857C"/>
<path d="M232.7 136.086C232.25 136.153 231.795 136.176 231.341 136.157C230.92 136.144 230.506 136.052 230.122 135.887C230.35 135.663 230.656 135.527 230.981 135.505L231.524 135.564C231.645 135.577 231.768 135.577 231.889 135.564C232.235 135.589 232.561 135.725 232.816 135.951C232.858 136.022 232.804 136.063 232.7 136.086Z" fill="#877D74"/>
<path d="M232.7 136.086C232.623 135.978 232.524 135.887 232.408 135.818C232.293 135.75 232.164 135.705 232.03 135.687C231.858 135.658 231.689 135.616 231.524 135.563C231.645 135.577 231.768 135.577 231.889 135.563C232.235 135.589 232.561 135.725 232.816 135.951C232.858 136.022 232.804 136.063 232.7 136.086Z" fill="#8E857C"/>
<path d="M232.243 132.997C231.793 133.064 231.338 133.087 230.884 133.068C230.463 133.055 230.049 132.964 229.665 132.798C229.891 132.57 230.197 132.432 230.524 132.41L231.06 132.475C231.18 132.486 231.3 132.486 231.42 132.475C231.768 132.501 232.096 132.64 232.352 132.868C232.401 132.927 232.346 132.968 232.243 132.997Z" fill="#877D74"/>
<path d="M232.243 132.997C232.165 132.888 232.065 132.796 231.948 132.726C231.832 132.657 231.702 132.611 231.566 132.592C231.396 132.568 231.229 132.529 231.066 132.475C231.186 132.486 231.306 132.486 231.426 132.475C231.774 132.501 232.102 132.64 232.358 132.868C232.401 132.927 232.346 132.968 232.243 132.997Z" fill="#8E857C"/>
<path d="M228.397 133.913C227.948 133.98 227.492 134.003 227.038 133.984C226.618 133.97 226.204 133.878 225.819 133.714C226.047 133.488 226.352 133.35 226.678 133.326C226.861 133.326 227.05 133.373 227.221 133.391C227.342 133.405 227.465 133.405 227.587 133.391C227.932 133.421 228.257 133.559 228.513 133.784C228.531 133.843 228.476 133.884 228.397 133.913Z" fill="#877D74"/>
<path d="M228.397 133.913C228.321 133.804 228.222 133.712 228.107 133.644C227.991 133.575 227.861 133.53 227.727 133.514C227.555 133.485 227.386 133.443 227.221 133.391C227.342 133.405 227.465 133.405 227.586 133.391C227.931 133.421 228.257 133.559 228.513 133.784C228.531 133.843 228.476 133.884 228.397 133.913Z" fill="#8E857C"/>
<path d="M231.536 140.609C231.088 140.671 230.635 140.692 230.183 140.673C229.762 140.661 229.348 140.569 228.964 140.403C229.192 140.179 229.498 140.043 229.823 140.021L230.36 140.08C230.479 140.094 230.6 140.094 230.719 140.08C231.068 140.104 231.397 140.243 231.652 140.474C231.7 140.538 231.646 140.579 231.536 140.609Z" fill="#877D74"/>
<path d="M231.536 140.609C231.461 140.498 231.363 140.405 231.247 140.335C231.131 140.265 231.001 140.22 230.865 140.203C230.695 140.178 230.528 140.136 230.365 140.08C230.485 140.094 230.606 140.094 230.725 140.08C231.074 140.104 231.403 140.243 231.658 140.474C231.7 140.538 231.645 140.579 231.536 140.609Z" fill="#8E857C"/>
<path d="M218.859 144.121C218.411 144.187 217.958 144.21 217.506 144.191C217.085 144.177 216.671 144.085 216.287 143.921C216.514 143.695 216.82 143.557 217.146 143.533C217.329 143.533 217.524 143.58 217.688 143.598C217.804 143.613 217.92 143.615 218.036 143.604C218.383 143.631 218.712 143.77 218.968 143.997C219.023 144.05 218.968 144.091 218.859 144.121Z" fill="#877D74"/>
<path d="M218.859 144.121C218.783 144.012 218.684 143.92 218.568 143.852C218.453 143.783 218.323 143.738 218.188 143.722C218.019 143.693 217.851 143.652 217.688 143.599C217.804 143.614 217.92 143.616 218.036 143.605C218.384 143.632 218.712 143.77 218.968 143.998C219.023 144.051 218.968 144.092 218.859 144.121Z" fill="#8E857C"/>
<path d="M220.535 140.275C220.087 140.341 219.634 140.365 219.182 140.345C218.761 140.333 218.347 140.241 217.963 140.075C218.187 139.847 218.491 139.709 218.816 139.688C218.999 139.717 219.194 139.734 219.359 139.752C219.478 139.767 219.599 139.767 219.718 139.752C220.066 139.779 220.395 139.917 220.651 140.146C220.699 140.204 220.645 140.245 220.535 140.275Z" fill="#877D74"/>
<path d="M220.535 140.274C220.46 140.164 220.361 140.072 220.245 140.003C220.129 139.934 219.999 139.89 219.864 139.874C219.695 139.846 219.528 139.805 219.365 139.751C219.484 139.765 219.605 139.765 219.724 139.751C220.072 139.778 220.4 139.916 220.657 140.144C220.699 140.203 220.644 140.244 220.535 140.274Z" fill="#8E857C"/>
<path d="M216.817 148.52C216.368 148.586 215.912 148.61 215.458 148.59C215.037 148.578 214.623 148.486 214.239 148.32C214.466 148.093 214.772 147.954 215.098 147.933L215.635 147.997C215.754 148.009 215.875 148.009 215.994 147.997C216.342 148.024 216.671 148.162 216.927 148.391C216.963 148.449 216.909 148.491 216.817 148.52Z" fill="#877D74"/>
<path d="M216.817 148.52C216.74 148.411 216.64 148.319 216.523 148.25C216.406 148.181 216.276 148.137 216.14 148.12C215.971 148.092 215.804 148.051 215.641 147.997C215.76 148.008 215.881 148.008 216 147.997C216.348 148.024 216.677 148.162 216.933 148.391C216.963 148.449 216.908 148.49 216.817 148.52Z" fill="#8E857C"/>
<path d="M336.024 132.075C337.438 137.772 336.67 147.346 332.148 151.657C333.781 145.196 333.976 138.412 336.024 132.075Z" fill="#51A585"/>
<path d="M333.58 127.493C334.897 134.265 334.598 145.97 331.039 152.008C331.539 143.786 331.447 135.563 333.58 127.493Z" fill="#51A585"/>
<path d="M329.856 151.468C328.253 146.088 328.174 137.649 330.892 132.621C331.417 138.952 331.612 145.29 329.856 151.468Z" fill="#51A585"/>
<path d="M328.272 150.223C325.968 144.197 325.492 135.863 328.052 129.86C328.838 136.673 329.271 143.422 328.272 150.223Z" fill="#5DAF8C"/>
<path d="M327.559 151.281C322.445 148.579 319.898 141.437 323 136.504C323.249 139.066 323.768 141.596 324.548 144.057C325.423 146.513 326.428 148.924 327.559 151.281Z" fill="#51A585"/>
<path d="M248.309 112.84C250.259 118.56 250.314 128.263 245.871 132.926C247.291 126.237 246.803 119.524 248.309 112.84Z" fill="#51A585"/>
<path d="M245.127 108.418C247.065 115.072 247.87 127.107 244.694 133.379C244.646 125.016 243.731 116.735 245.127 108.418Z" fill="#51A585"/>
<path d="M243.317 132.927C241.196 127.641 240.269 119.072 242.628 113.815C243.628 120.176 244.457 126.531 243.317 132.927Z" fill="#51A585"/>
<path d="M241.422 131.804C238.466 125.961 237.113 117.532 239.185 111.248C240.526 118.073 241.684 124.821 241.422 131.804Z" fill="#51A585"/>
<path d="M240.733 132.927C235.479 130.942 231.865 124.704 233.748 119.418C233.877 119.076 234.026 118.741 234.193 118.414C234.534 119.859 234.699 121.157 235.138 122.402C236.296 126.284 238.514 129.509 240.733 132.974V132.927Z" fill="#4D997A"/>
<path d="M325.797 124.869C327.053 130.872 326.035 140.627 321.287 145.056C323.195 138.448 323.542 131.4 325.797 124.869Z" fill="#4D997A"/>
<path d="M323.378 120.07C324.517 127.118 323.908 139.241 320.129 145.402C320.915 136.885 321.025 128.369 323.378 120.07Z" fill="#51A585"/>
<path d="M318.916 144.809C317.447 139.194 317.582 130.478 320.47 125.315C320.787 131.882 320.83 138.442 318.916 144.809Z" fill="#51A585"/>
<path d="M317.307 143.487C315.131 137.179 314.869 128.558 317.6 122.396C318.173 129.444 318.465 136.457 317.307 143.487Z" fill="#51A585"/>
<path d="M316.546 144.562C311.365 141.625 308.921 134.207 312.2 129.156C312.389 130.625 312.419 131.946 312.681 133.268C313.291 137.267 314.906 140.832 316.546 144.585V144.562Z" fill="#51A585"/>
<path d="M197.234 125.273C199.837 131.693 200.562 138.735 202.829 145.243C197.844 141.049 196.302 131.346 197.234 125.273Z" fill="#51A585"/>
<path d="M199.398 120.353C202.19 128.54 202.756 137.056 204.018 145.531C199.916 139.558 198.649 127.442 199.41 120.353H199.398Z" fill="#51A585"/>
<path d="M205.188 144.879C202.933 138.606 202.622 132.04 202.586 125.456C205.743 130.454 206.352 139.199 205.188 144.879Z" fill="#51A585"/>
<path d="M206.73 143.476C205.194 136.504 205.109 129.509 205.304 122.391C208.351 128.417 208.558 137.074 206.73 143.476Z" fill="#4D997A"/>
<path d="M207.547 144.515C208.552 142.001 209.409 139.434 210.113 136.826C210.721 134.218 211.038 131.554 211.057 128.88C211.942 130.088 212.509 131.484 212.709 132.95C213.319 137.279 211.356 142.071 207.535 144.515H207.547Z" fill="#51A585"/>
<path d="M293.556 110.762C294.891 116.594 293.806 126.443 288.759 130.443C291.081 123.982 291.325 117.258 293.556 110.762Z" fill="#4D997A"/>
<path d="M290.673 106.016C291.892 112.782 291.374 124.945 287.431 130.76C288.424 122.49 288.388 114.109 290.673 106.016Z" fill="#51A585"/>
<path d="M286.023 130.16C284.469 124.751 284.469 116.029 287.425 111.096C287.662 117.521 287.845 123.911 286.023 130.16Z" fill="#51A585"/>
<path d="M284.14 128.833C281.769 122.737 281.275 114.203 284.06 108.188C284.603 115.113 285.084 121.92 284.14 128.833Z" fill="#51A585"/>
<path d="M283.28 129.872C278.148 127.47 274.894 120.845 277.405 115.67C278.386 113.556 277.892 115.947 278.167 116.845C278.606 121.614 280.97 125.655 283.28 129.884V129.872Z" fill="#51A585"/>
<path d="M300.815 154.658C301.662 148.961 302.54 143.005 303.716 137.379C304.411 134.348 304.326 134.289 304.935 137.42C305.264 139.982 305.215 142.577 304.789 145.126C304.179 148.503 303.107 151.933 300.833 154.658H300.815Z" fill="#5DAF8C"/>
<path d="M294.488 153.73C289.04 150.43 287.65 143.023 289.003 137.326C289.923 134.39 289.881 134.284 290.222 137.403C290.832 143.047 291.685 148.626 294.488 153.73Z" fill="#51A585"/>
<path d="M298.657 154.657C298.188 149.084 299.834 143.88 300.815 138.447C303.253 142.799 301.315 150.64 298.657 154.657Z" fill="#51A585"/>
<path d="M296.805 153.73C295.863 150.481 295.408 147.119 295.452 143.745C295.365 140.37 295.821 137.002 296.805 133.761C297.563 137.038 297.927 140.388 297.889 143.745C297.96 147.104 297.596 150.458 296.805 153.73Z" fill="#4D997A"/>
<path d="M295.439 154.658C292.044 150.106 290.167 142.911 292.032 137.496C293.605 143.205 295.153 148.738 295.439 154.658Z" fill="#51A585"/>
<path d="M262.229 150.706C263.399 144.427 264.575 136.751 265.727 130.484C266.428 126.96 266.373 126.866 266.946 130.531C267.251 133.518 267.15 136.531 266.648 139.493C265.929 143.434 264.746 147.428 262.229 150.688V150.706Z" fill="#51A585"/>
<path d="M254.824 149.613C247.9 145.084 246.59 134.671 249.406 127.553C249.576 128.557 249.619 129.532 249.704 130.489C250.314 137.114 251.277 143.745 254.824 149.601V149.613Z" fill="#51A585"/>
<path d="M259.7 150.705C259.425 144.244 261.37 138.066 262.229 131.729C264.813 136.78 262.528 145.989 259.7 150.705Z" fill="#51A585"/>
<path d="M257.536 149.613C256.58 145.79 256.117 141.869 256.159 137.937C256.159 134.002 256.415 130.073 257.536 126.249C258.275 130.1 258.63 134.009 258.596 137.925C258.67 141.846 258.315 145.764 257.536 149.613Z" fill="#4D997A"/>
<path d="M255.909 150.705C252.203 145.29 250.021 136.955 251.923 130.618C253.483 137.343 255.293 143.821 255.909 150.705Z" fill="#51A585"/>
<path d="M232.663 151.857C230.439 149.237 229.403 145.919 228.805 142.647C228.209 139.353 228.354 135.974 229.232 132.739C229.518 133.556 229.683 134.36 229.878 135.159C231.048 140.592 231.895 146.318 232.663 151.857Z" fill="#51A585"/>
<path d="M238.758 150.958C241.44 146.007 242.232 140.639 242.878 135.183C242.976 134.384 243.043 133.579 243.232 132.739C245.871 138.571 244.713 147.422 238.758 150.946V150.958Z" fill="#51A585"/>
<path d="M234.754 151.856C232.127 147.992 230.225 140.404 232.663 136.192C233.669 141.437 235.26 146.465 234.754 151.856Z" fill="#51A585"/>
<path d="M236.539 150.958C235.748 147.8 235.383 144.556 235.455 141.308C235.414 138.063 235.778 134.825 236.539 131.664C237.522 134.79 237.979 138.048 237.892 141.314C237.933 144.575 237.478 147.824 236.539 150.958Z" fill="#51A585"/>
<path d="M237.886 151.856C238.106 146.129 239.599 140.779 241.178 135.275C243.006 140.52 241.22 147.468 237.886 151.856Z" fill="#51A585"/>
<path d="M144.404 159.207L135.042 159.459C114.322 159.987 64.0246 161.158 33.9223 160.867C19.4011 160.753 9.58645 160.259 10.0134 159.207C11.6389 155.358 20.1932 156.539 23.043 152.404C25.8927 148.269 43.6186 139.387 44.0147 135.834C44.4108 132.282 63.9628 134.061 67.3013 131.784C69.6623 130.168 72.7281 133.908 75.9276 134.683C76.6368 134.874 77.3878 134.869 78.094 134.668C78.8003 134.467 79.433 134.078 79.9193 133.547C81.8637 131.68 84.7854 131.571 87.6043 131.986C91.3851 132.529 95.0013 134.051 95.9323 133.651C97.5578 132.949 106.112 136.121 108.761 134.061C111.41 132.001 112.624 138.507 118.735 137.613C124.846 136.719 139.311 155.655 139.311 155.655L144.404 159.207Z" fill="#4F2F2F"/>
<path d="M144.404 159.207L135.042 159.459C129.79 154.662 112.779 139.782 106.236 142.168C98.4426 145.028 94.0086 138.423 90.629 139.421C87.2495 140.419 78.942 134.743 77.3423 135.103C77.0911 135.146 76.8328 135.131 76.5893 135.057C76.3457 134.984 76.1241 134.856 75.9431 134.683C76.6523 134.874 77.4033 134.869 78.1095 134.668C78.8158 134.467 79.4485 134.078 79.9348 133.547C81.8792 131.68 84.8009 131.571 87.6198 131.986C91.4006 132.529 95.0168 134.051 95.9478 133.651C97.5733 132.949 106.128 136.121 108.777 134.061C111.426 132.001 112.64 138.507 118.751 137.613C124.862 136.719 139.327 155.655 139.327 155.655L144.404 159.207Z" fill="#593636"/>
<path d="M143.493 136.911C145.165 143.057 145.257 153.387 141.132 158.648C142.742 151.465 142.233 144.173 143.493 136.911Z" fill="#51A585"/>
<path d="M140.371 132.129C142.048 139.282 142.835 152.334 139.949 159.112C140.139 150.106 139.234 141.115 140.371 132.129Z" fill="#51A585"/>
<path d="M138.612 158.628C136.76 152.932 135.86 143.629 137.933 137.963C138.679 144.746 139.512 151.825 138.612 158.628Z" fill="#51A585"/>
<path d="M136.744 157.413C134.059 150.956 132.747 141.995 134.548 135.207C135.633 142.617 136.77 149.919 136.744 157.413Z" fill="#5DAF8C"/>
<path d="M136.065 158.628C130.515 155.782 127.202 148.634 129.656 142.908C129.874 144.691 130.23 146.457 130.721 148.189C131.827 151.978 133.848 155.293 136.065 158.628Z" fill="#51A585"/>
<path d="M98.3757 108.149C100.176 115.491 100.258 128.33 95.0476 134.372C96.5908 130.158 96.8634 125.811 97.2801 121.419C97.5938 117.467 97.9025 112.032 98.3757 108.149Z" fill="#4D997A"/>
<path d="M93.9778 102.374C95.7782 110.772 96.8635 127.115 93.3862 134.979C93.9521 130.296 93.5714 123.503 93.5817 118.736C93.5457 113.302 93.52 107.868 93.9778 102.394V102.374Z" fill="#4D997A"/>
<path d="M91.4829 134.372C89.4511 127.653 88.2011 116.049 90.5313 109.419C91.0046 117.723 92.1774 126.038 91.4829 134.372Z" fill="#4D997A"/>
<path d="M88.8699 132.905C85.6703 125.164 83.8185 114.271 85.7835 106.095C86.7094 114.809 88.3555 124.171 88.8699 132.905Z" fill="#4D997A"/>
<path d="M87.9182 134.372C80.9996 131.111 75.938 122.654 78.8906 115.392C79.0655 122.832 83.0058 128.873 87.9182 134.372Z" fill="#4D997A"/>
<path d="M78.7312 136.911C80.403 143.057 80.4955 153.387 76.3701 158.648C77.9802 151.465 77.4658 144.173 78.7312 136.911Z" fill="#4D997A"/>
<path d="M75.6087 132.129C77.2856 139.282 78.0727 152.334 75.1869 159.112C75.3772 150.106 74.4719 141.115 75.6087 132.129Z" fill="#4D997A"/>
<path d="M73.8344 158.628C71.9877 152.932 71.0875 143.629 73.1605 137.963C73.9064 144.746 74.7397 151.825 73.8344 158.628Z" fill="#4D997A"/>
<path d="M71.9821 157.413C69.297 150.956 67.9853 141.995 69.7857 135.207C70.871 142.617 72.0078 149.919 71.9821 157.413Z" fill="#4D997A"/>
<path d="M71.3034 158.628C65.7531 155.782 62.4404 148.634 64.8941 142.908C65.1126 144.691 65.4685 146.457 65.9589 148.189C67.0597 151.978 69.0864 155.293 71.3034 158.628Z" fill="#4D997A"/>
<path d="M29.4216 127.006C31.0934 133.151 31.1911 143.486 27.0605 148.743C28.6706 141.56 28.1613 134.268 29.4216 127.006Z" fill="#4D997A"/>
<path d="M26.2991 122.22C27.9761 129.373 28.7682 142.425 25.8773 149.203C26.0677 140.197 25.1623 131.211 26.2991 122.22Z" fill="#4D997A"/>
<path d="M24.9926 148.724C23.1408 143.027 22.2458 133.725 24.3188 128.059C25.0595 134.846 25.8979 141.921 24.9926 148.724Z" fill="#4D997A"/>
<path d="M24.0616 153.041C21.3816 146.584 20.0699 137.623 21.8703 130.835C22.9557 138.245 24.0925 145.547 24.0616 153.066V153.041Z" fill="#4D997A"/>
<path d="M23.6912 154.01C18.1357 151.169 14.8282 144.016 17.2767 138.29C17.4654 139.726 17.7298 141.153 18.0689 142.563C19.0977 146.743 21.2787 150.389 23.6912 154.01Z" fill="#4D997A"/>
<path d="M132.264 119.522C132.557 126.932 130.679 136.758 125.962 142.741C125.571 143.151 125.181 143.546 124.774 143.921C125.001 143.427 125.237 142.933 125.474 142.439C128.401 135.138 129.738 126.942 132.264 119.502V119.522Z" fill="#4D997A"/>
<path d="M129.743 113.41C129.882 121.809 127.861 137.123 123.313 144.237C124.034 141.688 124.43 139.129 124.898 136.54C126.266 128.779 127.521 121.013 129.743 113.41Z" fill="#51A585"/>
<path d="M121.873 143.409C121.23 136.601 122.274 125.624 125.654 119.597C124.764 127.61 124.203 135.628 121.873 143.409Z" fill="#51A585"/>
<path d="M120.016 141.64C118.596 133.706 119.065 123.208 122.398 115.758C121.77 124.438 121.472 133.049 120.016 141.64Z" fill="#51A585"/>
<path d="M118.977 142.894C113.442 138.354 111.261 129.724 115.093 123.578C114.873 125.663 114.842 127.762 115.001 129.852C115.381 134.432 117.012 138.69 118.977 142.894Z" fill="#51A585"/>
<path d="M71.612 114.75C73.6696 121.819 73.9885 129.121 76.3959 136.097C71.7046 131.315 70.6347 121.044 71.612 114.75Z" fill="#4D997A"/>
<path d="M74.1788 109.672C76.3187 118.49 76.4267 127.521 77.6252 136.458C73.9936 130.035 73.3146 116.974 74.1788 109.672Z" fill="#4D997A"/>
<path d="M78.9112 135.834C77.2497 129.17 77.2857 122.036 77.2651 115.219C79.9606 120.653 80.1149 129.97 78.9112 135.834Z" fill="#5DAF8C"/>
<path d="M80.619 134.431C79.7497 126.986 80.0635 119.61 80.3104 112.131C82.8824 118.687 82.5686 127.732 80.619 134.431Z" fill="#5DAF8C"/>
<path d="M81.4266 135.557C83.2578 132.01 84.9039 128.508 85.5726 124.625C85.864 122.851 86.0205 121.06 86.0407 119.265C89.127 124.699 86.6322 132.154 81.4111 135.567L81.4266 135.557Z" fill="#4D997A"/>
<path d="M97.779 122.253C99.8366 129.322 100.161 136.629 102.568 143.6C97.8767 138.822 96.8068 128.547 97.779 122.253Z" fill="#4D997A"/>
<path d="M100.346 117.18C102.486 125.998 102.604 135.024 103.798 143.956C100.166 137.533 99.4818 124.476 100.346 117.175V117.18Z" fill="#4D997A"/>
<path d="M105.084 143.339C103.422 136.68 103.458 129.546 103.438 122.729C106.133 128.163 106.287 137.48 105.084 143.339Z" fill="#4D997A"/>
<path d="M106.791 141.941C105.922 134.496 106.236 127.12 106.483 119.641C109.055 126.196 108.736 135.242 106.791 141.941Z" fill="#5DAF8C"/>
<path d="M107.599 143.076C109.43 139.534 111.071 136.031 111.745 132.148C112.034 130.373 112.189 128.58 112.208 126.783C115.294 132.217 112.799 139.677 107.578 143.086L107.599 143.076Z" fill="#4D997A"/>
<path d="M23.727 137.835C25.7846 144.904 26.1086 152.206 28.516 159.182C23.8247 154.4 22.7548 144.129 23.727 137.835Z" fill="#4D997A"/>
<path d="M26.294 132.757C28.439 141.575 28.5419 150.606 29.7455 159.543C26.1139 153.12 25.4298 140.058 26.294 132.757Z" fill="#4D997A"/>
<path d="M31.0316 158.919C29.3701 152.255 29.4061 145.121 29.3855 138.304C32.0809 143.738 32.2352 153.055 31.0316 158.919Z" fill="#4D997A"/>
<path d="M32.7392 157.518C31.8698 150.073 32.1836 142.697 32.4305 135.218C35.0025 141.773 34.6836 150.819 32.7392 157.518Z" fill="#4D997A"/>
<path d="M33.5469 158.658C35.3782 155.111 37.0191 151.608 37.6929 147.725C37.9846 145.95 38.141 144.157 38.161 142.36C41.2474 147.795 38.7474 155.254 33.5315 158.663L33.5469 158.658Z" fill="#4D997A"/>
<path d="M66.6996 123.814C68.7571 130.884 69.0761 138.186 71.4834 145.161C66.7922 140.379 65.7274 130.108 66.6996 123.814Z" fill="#4D997A"/>
<path d="M69.2663 118.761C71.4061 127.579 71.5142 136.61 72.7127 145.547C69.112 139.124 68.4021 126.062 69.2663 118.761Z" fill="#4D997A"/>
<path d="M74.004 144.9C72.3374 138.235 72.3785 131.102 72.3528 124.284C75.0482 129.718 75.2025 139.036 74.004 144.9Z" fill="#4D997A"/>
<path d="M75.7117 143.496C74.8424 136.052 75.1562 128.676 75.398 121.196C77.9699 127.752 77.6561 136.798 75.7117 143.496Z" fill="#4D997A"/>
<path d="M76.5194 144.638C78.3506 141.091 79.9915 137.588 80.6602 133.705C80.9544 131.93 81.1109 130.137 81.1283 128.34C84.2147 133.774 81.7199 141.234 76.4988 144.643L76.5194 144.638Z" fill="#4D997A"/>
<path d="M120.397 105.882C121.169 114.399 119.883 125.993 115.253 133.394C114.862 133.888 114.461 134.421 114.049 134.906C114.271 134.303 114.507 133.725 114.744 133.157C117.537 124.437 118.344 114.779 120.402 105.882H120.397Z" fill="#4D997A"/>
<path d="M117.084 99C117.768 108.658 116.745 126.794 112.424 135.404C113.602 129.387 113.859 123.291 114.584 117.22C115.31 111.148 115.911 105.047 117.084 99Z" fill="#4D997A"/>
<path d="M110.752 134.571C110.125 129.889 109.98 125.16 110.32 120.452C110.701 115.763 111.122 110.951 113.031 106.555C112.516 115.941 112.552 125.298 110.752 134.566V134.571Z" fill="#4D997A"/>
<path d="M108.535 132.672C106.477 123.538 106.143 111.326 109.08 102.374C108.957 111.336 109.25 123.854 108.535 132.672Z" fill="#4D997A"/>
<path d="M107.475 134.224C100.978 129.135 98.0207 119.571 101.575 112.116C101.539 114.641 101.467 116.972 101.874 119.393C102.619 124.674 104.785 129.555 107.48 134.214L107.475 134.224Z" fill="#4D997A"/>
<path d="M129.481 147.414C130.263 143.091 131.271 137.173 131.981 132.84C132.29 131.2 132.536 129.565 133.01 127.93C133.748 131.242 133.823 134.659 133.231 137.998C132.624 141.313 131.621 144.672 129.502 147.414H129.481Z" fill="#51A585"/>
<path d="M123.226 146.5C117.388 142.686 116.272 133.922 118.653 127.93C118.792 128.779 118.833 129.599 118.9 130.4C119.415 135.977 120.232 141.555 123.226 146.485V146.5Z" fill="#51A585"/>
<path d="M127.346 147.414C127.115 141.98 128.756 136.778 129.481 131.447C131.657 135.696 129.733 143.447 127.346 147.414Z" fill="#51A585"/>
<path d="M125.515 146.501C124.708 143.282 124.318 139.98 124.352 136.67C124.352 133.36 124.574 130.055 125.515 126.834C126.138 130.076 126.438 133.368 126.41 136.665C126.474 139.965 126.174 143.262 125.515 146.501Z" fill="#4D997A"/>
<path d="M124.142 147.414C121.014 142.859 119.173 135.844 120.773 130.514C122.095 136.17 123.622 141.624 124.142 147.414Z" fill="#51A585"/>
<path d="M103.345 147.325C104.127 143.002 105.14 137.084 105.85 132.751C106.154 131.106 106.406 129.476 106.853 127.841C107.595 131.151 107.67 134.567 107.074 137.904C106.472 141.219 105.469 144.578 103.345 147.325Z" fill="#4D997A"/>
<path d="M97.0948 146.426C91.2513 142.617 90.1402 133.848 92.5167 127.86C92.6608 128.705 92.6968 129.525 92.7688 130.33C93.2832 135.908 94.1011 141.485 97.0948 146.416V146.426Z" fill="#4D997A"/>
<path d="M101.21 147.325C100.978 141.891 102.619 136.689 103.345 131.358C105.526 135.607 103.597 143.353 101.21 147.325Z" fill="#4D997A"/>
<path d="M99.3788 146.427C98.5709 143.21 98.1822 139.909 98.2215 136.601C98.2215 133.291 98.4375 129.981 99.3788 126.765C100.007 130.005 100.308 133.295 100.279 136.591C100.342 139.891 100.04 143.188 99.3788 146.427Z" fill="#4D997A"/>
<path d="M98.0055 147.325C94.8831 142.765 93.0416 135.75 94.6414 130.425C95.9582 136.081 97.486 141.535 98.0055 147.325Z" fill="#4D997A"/>
<path d="M65.8611 135.924C67.3322 129.16 68.3765 121.854 69.4618 115.022C69.6367 114.034 69.7756 113.006 70.0277 111.988C71.4422 119.616 70.2437 129.309 65.8714 135.924H65.8611Z" fill="#4D997A"/>
<path d="M58.464 134.797C51.7204 129.857 50.5321 119.325 53.0475 111.988C53.2224 113.47 53.2224 115.046 53.3716 116.514C53.8088 122.832 54.9765 129.314 58.464 134.792V134.797Z" fill="#4D997A"/>
<path d="M63.3354 135.923C63.3766 130.929 64.3642 126.083 65.2078 121.197C65.5287 119.576 65.7469 117.937 65.8611 116.291C68.1913 121.473 65.9074 130.968 63.3354 135.904V135.923Z" fill="#4D997A"/>
<path d="M61.1698 134.797C60.3466 130.819 59.9502 126.77 59.9867 122.714C59.9867 118.658 60.2027 114.607 61.1698 110.63C61.7745 114.631 62.0668 118.67 62.0442 122.714C62.1079 126.758 61.8154 130.8 61.1698 134.797Z" fill="#4D997A"/>
<path d="M59.5442 135.923C56.0772 130.187 53.927 121.695 55.5577 115.174C56.8128 121.932 58.7212 129.12 59.5442 135.923Z" fill="#4D997A"/>
<path d="M39.4366 149.958C40.8769 143.511 41.9056 136.546 42.9807 130.049C43.1556 129.091 43.2945 128.128 43.5414 127.154C44.9611 134.421 43.7575 143.729 39.4263 149.958H39.4366Z" fill="#4D997A"/>
<path d="M32.1324 148.896C25.4968 144.282 24.2571 134.209 26.7776 127.159C26.9525 128.577 26.9525 130.084 27.1017 131.487C27.5286 137.534 28.7117 143.64 32.1324 148.896Z" fill="#4D997A"/>
<path d="M36.9368 149.958C36.9676 145.196 37.9295 140.572 38.7783 135.928C39.0974 134.39 39.3173 132.834 39.4367 131.27C41.7515 136.21 39.4933 145.285 36.9368 149.958Z" fill="#5DAF8C"/>
<path d="M34.7969 148.896C33.9745 145.113 33.5779 141.255 33.6138 137.391C33.6138 133.527 33.8299 129.664 34.7969 125.88C35.401 129.687 35.6934 133.534 35.6714 137.386C35.7347 141.24 35.4421 145.092 34.7969 148.896Z" fill="#4D997A"/>
<path d="M33.1868 149.958C29.7558 144.524 27.6159 136.417 29.2465 130.197C30.5017 136.62 32.3946 143.472 33.1868 149.958Z" fill="#4D997A"/>
<path d="M83.8391 151.154C81.7198 148.407 80.7168 145.048 80.1098 141.733C79.6909 139.234 79.613 136.693 79.8783 134.175C80.3413 131.136 80.2795 131.082 80.9071 134.14C81.8793 139.406 82.8772 145.873 83.8597 151.154H83.8391Z" fill="#4D997A"/>
<path d="M90.0942 150.235C93.088 145.295 93.9265 139.727 94.4203 134.15C94.4871 133.335 94.5283 132.515 94.6723 131.68C97.0488 137.667 95.9377 146.436 90.0942 150.245V150.235Z" fill="#4D997A"/>
<path d="M85.9738 151.153C83.587 147.201 81.658 139.455 83.839 135.187C84.5643 140.517 86.2052 145.709 85.9738 151.153Z" fill="#4D997A"/>
<path d="M87.8049 150.234C87.1455 146.995 86.8455 143.698 86.9099 140.398C86.8818 137.103 87.1815 133.813 87.8049 130.572C88.7463 133.788 88.952 137.098 88.9675 140.408C89.0025 143.717 88.612 147.017 87.8049 150.234Z" fill="#4D997A"/>
<path d="M89.1785 151.154C89.6929 145.364 91.236 139.91 92.5477 134.254C94.1475 139.579 92.306 146.604 89.1785 151.154Z" fill="#4D997A"/>
<path d="M43.799 155.19C41.6745 152.443 40.6715 149.084 40.0696 145.769C39.6516 143.27 39.5773 140.729 39.8484 138.211C40.3165 135.172 40.2548 135.118 40.8772 138.176C41.8494 143.442 42.8422 149.909 43.8298 155.19H43.799Z" fill="#4D997A"/>
<path d="M50.0486 154.271C53.0423 149.331 53.8859 143.763 54.3746 138.186C54.4466 137.371 54.4826 136.551 54.6267 135.716C57.0032 141.703 55.8921 150.472 50.0486 154.281V154.271Z" fill="#4D997A"/>
<path d="M45.9332 155.19C43.5464 151.209 41.6175 143.492 43.7985 139.224C44.5238 144.554 46.1647 149.741 45.9332 155.19Z" fill="#4D997A"/>
<path d="M47.7645 154.272C47.1045 151.038 46.8027 147.746 46.8643 144.451C46.8352 141.156 47.1366 137.865 47.7645 134.625C48.7058 137.841 48.9116 141.151 48.9218 144.461C48.9611 147.77 48.5724 151.07 47.7645 154.287V154.272Z" fill="#5DAF8C"/>
<path d="M49.1382 155.191C49.6577 149.391 51.1649 143.956 52.5023 138.29C54.1021 143.616 52.2657 150.641 49.1382 155.191Z" fill="#4D997A"/>
<path d="M57.1834 148.116C55.0641 145.369 54.061 142.01 53.454 138.695C53.0354 136.196 52.9576 133.655 53.2225 131.137C53.6855 128.098 53.6289 128.044 54.2513 131.102C55.2235 136.368 56.2214 142.835 57.2039 148.116H57.1834Z" fill="#4D997A"/>
<path d="M63.4382 147.197C66.432 142.257 67.2705 136.689 67.7643 131.112C67.8311 130.297 67.8723 129.476 68.0163 128.642C70.3928 134.629 69.2817 143.398 63.4382 147.207V147.197Z" fill="#4D997A"/>
<path d="M59.318 148.115C56.9312 144.133 55.0022 136.417 57.1833 132.144C57.9086 137.474 59.5495 142.666 59.318 148.115Z" fill="#4D997A"/>
<path d="M61.1494 147.196C60.49 143.957 60.19 140.66 60.2544 137.36C60.2263 134.063 60.526 130.771 61.1494 127.529C62.0908 130.75 62.2965 134.06 62.312 137.365C62.3472 140.676 61.9568 143.978 61.1494 147.196Z" fill="#4D997A"/>
<path d="M62.5227 148.115C63.0371 142.321 64.5803 136.871 65.892 131.21C67.4917 136.54 65.6502 143.561 62.5227 148.115Z" fill="#4D997A"/>
<path d="M44.2823 141.027C41.7515 138.626 40.2289 135.449 39.1024 132.263C38.2884 129.853 37.8076 127.352 37.6724 124.823C37.6724 121.755 37.5798 121.705 38.6652 124.64C40.4604 129.708 42.4717 135.953 44.2823 141.027Z" fill="#4D997A"/>
<path d="M50.3162 139.204C52.4972 133.893 52.4406 128.257 52.0394 122.674C51.9776 121.859 51.8851 121.044 51.8953 120.204C55.1926 125.791 55.4961 134.585 50.3162 139.224V139.204Z" fill="#4D997A"/>
<path d="M46.3912 140.71C43.4078 137.148 40.27 129.762 41.7617 125.242C43.3049 130.405 45.7688 135.296 46.3912 140.71Z" fill="#4D997A"/>
<path d="M48.0786 139.54C46.9075 136.436 46.0799 133.222 45.6095 129.951C45.0582 126.698 44.8325 123.401 44.9357 120.105C46.3811 123.149 47.1064 126.384 47.6465 129.655C48.2048 132.92 48.343 136.238 48.058 139.535L48.0786 139.54Z" fill="#4D997A"/>
<path d="M49.5599 140.246C49.1535 134.446 49.8016 128.834 50.2029 123.049C52.6359 128.098 51.9312 135.266 49.5599 140.246Z" fill="#4D997A"/>
<path d="M93.9983 140.112C94.7802 135.789 95.7935 129.871 96.5034 125.539C96.8069 123.893 97.0538 122.263 97.5322 120.628C98.2708 123.94 98.3458 127.357 97.7534 130.696C97.1464 134.011 96.1485 137.37 94.024 140.112H93.9983Z" fill="#4D997A"/>
<path d="M87.7433 139.198C81.9049 135.384 80.7887 126.62 83.1703 120.628C83.3143 121.473 83.3503 122.298 83.4172 123.098C83.9316 128.671 84.7495 134.253 87.7433 139.183V139.198Z" fill="#4D997A"/>
<path d="M91.8635 140.112C91.632 134.678 93.2729 129.476 93.9982 124.146C96.1792 128.394 94.2503 136.14 91.8635 140.112Z" fill="#4D997A"/>
<path d="M90.0323 139.198C89.2255 135.98 88.8351 132.678 88.8698 129.367C88.8698 126.057 89.091 122.752 90.0323 119.531C90.6581 122.771 90.9578 126.062 90.9274 129.357C90.9918 132.659 90.6917 135.958 90.0323 139.198Z" fill="#4D997A"/>
<path d="M88.6588 140.112C85.5313 135.558 83.6898 128.542 85.2947 123.207C86.6115 128.864 88.1393 134.318 88.6588 140.108V140.112Z" fill="#4D997A"/>
</svg>
