<svg xmlns="http://www.w3.org/2000/svg" viewBox="0 0 671.87 755.41"><defs><style>.cls-1{fill:#5aba97;}.cls-2{fill:#63c6a0;}.cls-3{fill:#82d16f;}.cls-4{fill:#ffcd50;}.cls-5{fill:#ffc033;}.cls-6{fill:#302826;}.cls-7{fill:#f5ffff;}.cls-8{fill:#ff6e79;opacity:0.35;}.cls-9{fill:#e9f4f4;}.cls-10{fill:#4f2f2f;}.cls-11{fill:#593636;}</style></defs><g id="Calque_2" data-name="Calque 2"><g id="Calque_1-2" data-name="Calque 1"><path class="cls-1" d="M338.26,483.74c-14.74,56.17-8,166.74-4.37,212.63,1,12.93,1.82,20.73,1.82,20.73h-23s-3.58-146,9.19-199.15,19.4-164.42,19.4-164.42l8.74-4.73,3.52-1.91S357.15,411.74,338.26,483.74Z"/><path class="cls-2" d="M338.26,483.74c-14.74,56.17-8,166.74-4.37,212.63l-5.48,3.11s-10.83-155.4,4.65-207.31c20.07-78.15,18.48-126.83,17-143.37l3.52-1.91S357.15,411.74,338.26,483.74Z"/><path class="cls-1" d="M377.85,571.07c-22.25,19.16-50.92,25.62-50.92,25.62l.06-26.54S354.1,524.39,376,503.79c13.95-13.08,25.8-16,27.3,9.41C404.89,539.52,392.83,558.17,377.85,571.07Z"/><path class="cls-1" d="M336.39,464.7s-2-.83-5.16-2.47c-11.78-6.17-39.21-23.82-32.89-51.92,1.19-5.3,2.84-8.17,4.79-9.22,11.15-6,32,47.35,32,47.35Z"/><path class="cls-3" d="M371.07,580.12l1.94-2A27.27,27.27,0,0,1,371.07,580.12Z"/><path class="cls-2" d="M377.85,571.07c15.3-20.56,27.81-47.5,19.9-71.12C394.27,489.56,376,503.8,376,503.8h0c13.95-13.08,25.8-16,27.3,9.41C404.89,539.52,392.83,558.17,377.85,571.07Z"/><path class="cls-4" d="M434.73,202c-9.62,33.38-36,46.86-79,48.15-15.39.46-30.68-8.17-42-21.49-20.25-23.87-27.7-62.79,0-91.5,0,0,17.16-18.63,44.26-23.71A74.18,74.18,0,0,1,394.93,116C442.44,131.43,444.36,168.66,434.73,202Z"/><path class="cls-5" d="M313.75,228.7c-20.25-23.87-27.7-62.79,0-91.5,0,0,17.16-18.63,44.26-23.71C329.38,125.94,285.5,157.44,313.75,228.7Z"/><path class="cls-6" d="M367,192.68c2.55,3.49,7.61,3.82,11.4,2.51a6.88,6.88,0,0,0,3.34-2.53.6.6,0,0,1,.83-.16.61.61,0,0,1,.26.49,5.1,5.1,0,0,1-.92,2.77c-3.43,4.85-11.75,4.86-15.21,0-.49-.72-1.73-3.26-.29-3.45a.68.68,0,0,1,.59.34Z"/><path class="cls-6" d="M387.52,180.92c.75-7.21,7.83-12.39,14.9-13,5.61-.58,12.1,1.62,15.65,6.46a8.63,8.63,0,0,1,2,5.91,3.51,3.51,0,0,1-6.09,2.05,14.59,14.59,0,0,1-2.41-3.42,12.52,12.52,0,0,0-9.14-5.85c-5.61-.75-11.79,2.44-13.79,8.06a.57.57,0,0,1-1.1-.24Z"/><path class="cls-6" d="M360.07,181.16c-2-5.62-8.17-8.81-13.79-8.06a12.5,12.5,0,0,0-9.13,5.85c-1.41,2.7-4,6.34-7.35,3.7-2.34-2.27-.84-6.06.83-8.24,3.55-4.84,10-7,15.65-6.46,7.07.58,14.15,5.76,14.89,13a.57.57,0,0,1-1.1.24Z"/><path class="cls-7" d="M387.71,114h0l-1.65-.35a73.59,73.59,0,0,0-20.39-1.22c-.72,0-1.44.12-2.15.2-.17-10.15-.34-43.26,3.8-71h0C371.12,16.22,378.58-4.69,393,.92c7.53,2.92,11.32,10.43,12.69,20.32C409.85,50.82,392.24,101.61,387.71,114Z"/><path class="cls-7" d="M440.75,107.74h0c-10.58,10.77-19.51,18.65-21.55,20.42l-.14.13a65.78,65.78,0,0,0-9.62-6.2h0c-2.22-1.18-4.56-2.3-7.07-3.34l-3.43-2s18.58-37.21,38.84-64.14C453,32.27,469.26,17.8,479.24,29.47,494.47,47.28,463.72,84.33,440.75,107.74Z"/><path class="cls-7" d="M437.75,52.56c-8.72,33.2-28.13,69.57-28.13,69.57l-.19,0h0c-2.22-1.18-4.56-2.3-7.07-3.34-2.34-1-4.81-1.89-7.41-2.73s-4.85-1.45-7.22-2h0l-1.65-.35c1.61-14.82,7.64-63.85,19.68-92.45,6.6-15.69,15-25.24,25.5-19.61C444.67,8.84,443.69,30,437.75,52.56Z"/><path class="cls-7" d="M465.86,129.2c-15.11,6.1-29.23,10.33-34.95,12q-.5-.78-1-1.53a52.32,52.32,0,0,0-10.35-10.94h0l-.34-.52-2.26-3.44s10.09-7.78,23.81-17h0C468,89.43,509.69,65.51,515.07,86,519.63,103.33,491.35,118.93,465.86,129.2Z"/><path class="cls-7" d="M545.94,134.83c-1,13.5-17.37,20.79-37.38,24.62h0c-25.68,4.94-57.27,4.2-69.79,3.64-.07-.56-.16-1.12-.25-1.68a52.3,52.3,0,0,0-7.59-20.24q-.5-.78-1-1.53c5.42-1.78,19.45-6.24,36-10.44C501.06,120.28,547.54,112.6,545.94,134.83Z"/><path class="cls-7" d="M544.38,222.57c-7.78,14.15-31.81,11.08-55.82,3.49h0c-22.57-7.16-45.12-18.32-54.12-23,.11-.34.21-.68.31-1,.2-.7.4-1.4.59-2.11,1.06-3.89,1.95-7.82,2.63-11.76.54-3.16.94-6.32,1.17-9.46,16,1.91,68.6,9.07,93.53,22.68C543.35,207.24,549,214.26,544.38,222.57Z"/><path class="cls-7" d="M561.69,184.62c-3.17,10.43-14.43,15.25-29,16.77-32.46,3.39-81.42-9.49-94.7-13.22.54-3.16.94-6.32,1.17-9.46a74.55,74.55,0,0,0-.37-15.62c-.07-.56-.16-1.12-.25-1.68,11.51-1,42.13-3.35,70-2h0C539.44,161,567,167.12,561.69,184.62Z"/><path class="cls-7" d="M525.32,272.05c-5.68,5.67-14,6.13-23.57,3.43-27.74-7.85-65.49-42.41-76.63-53,.25-.34.49-.69.73-1.05a65.62,65.62,0,0,0,8.57-18.32c.11-.34.21-.68.31-1,.2-.7.4-1.4.59-2.11,8.32,3.52,31.84,13.8,53.22,26.12h0C514.87,241.23,537.92,259.48,525.32,272.05Z"/><path class="cls-7" d="M460.89,341.51c-18.49,5.82-36.79-22.48-49.64-49.6a0,0,0,0,0,0,0A402.77,402.77,0,0,1,393.41,247l7.34-5.35.4-.18a64.18,64.18,0,0,0,9.48-5.17h0c.84-.55,1.64-1.12,2.44-1.72,3.8,4.55,17.84,21.6,30.91,40.84C462.86,303.24,479.71,335.58,460.89,341.51Z"/><path class="cls-7" d="M506.55,301.84c-14.68,11.85-41-6.46-62.56-26.38a401,401,0,0,1-34.77-36.9l1.41-2.22h0c.84-.55,1.64-1.12,2.44-1.72a54.36,54.36,0,0,0,12-12.18c.25-.34.49-.69.73-1.05,13.64,7.6,56.83,32.57,75.9,54.09C510.93,285.84,514.53,295.4,506.55,301.84Z"/><path class="cls-7" d="M397.73,359.56c-6.83-1-11.75-5.91-15.23-13.15-12.76-26.47-6.4-84.3-4.62-98.24L379,248a94.22,94.22,0,0,0,21.73-6.29l.4-.18c.91,3.56,6.49,26,10.09,50.39a0,0,0,0,1,0,0C416.19,325.36,417.42,362.47,397.73,359.56Z"/><path class="cls-7" d="M382.5,346.41c-2.74,15.12-8.49,24.92-19.32,22.24-7.5-1.85-12.29-8.08-15.18-16.81-9.7-29.35,2.18-87,5.47-101.65h0q1.13,0,2.25,0,5.25-.15,10.17-.56h0c4.17-.34,8.15-.83,12-1.46L379,248C381,261.67,388.14,315.3,382.5,346.41Z"/><path class="cls-7" d="M352.25,250.14c-2.68,9.68-15.64,54.85-31.62,83.63-10.18,18.32-21.57,30-32.32,21.64-15.16-11.78-4.11-41.45,10.38-67.73a417.08,417.08,0,0,1,29.84-45.82c1.19.78,2.4,1.51,3.63,2.18a47.49,47.49,0,0,0,19,6C351.5,250.1,351.88,250.12,352.25,250.14Z"/><path class="cls-7" d="M375,251.41s-8.84,74.94-27,100.43c-5.26,7.37-11.29,10.61-18.11,6.73-7.62-4.34-10-13.51-9.26-24.8,1.88-29,24.2-72.07,30.5-83.71.37,0,.75.06,1.12.08s.81,0,1.22.05h0q1.13,0,2.25,0,5.25-.15,10.17-.56h0Z"/><path class="cls-7" d="M332.16,244a531.33,531.33,0,0,1-33.47,43.64C278.1,311.46,254,332.84,244,317.44c-12-18.31,18.79-48.33,43.59-68.32l0,0c12.49-10.07,23.48-17.59,26.71-19.76.4.46.79.9,1.2,1.34h0a67,67,0,0,0,13,11.17C329.72,242.64,330.93,243.37,332.16,244Z"/><path class="cls-7" d="M297.32,166.63a63.5,63.5,0,0,0-1.08,23.07c-19.75-1.74-120.11-12-105.67-40.16,8.39-16.34,38.86-10.59,66-1.43A390.19,390.19,0,0,1,297.73,165C297.58,165.55,297.45,166.09,297.32,166.63Z"/><path class="cls-7" d="M307.55,144.54c-.28.38-.55.76-.81,1.15a61.2,61.2,0,0,0-9,19.32c-.15.54-.28,1.08-.41,1.62-7.29-3-23.77-9.86-40.78-18.52-30-15.25-61.7-36-47.87-50.28,10-10.35,29.09-3.76,48.07,7.6h0C278.16,118.24,299.45,137.09,307.55,144.54Z"/><path class="cls-7" d="M323.31,129c-.42.3-.82.6-1.21.9a71,71,0,0,0-8.38,7.35,69.18,69.18,0,0,0-6.17,7.34c-.28.38-.55.76-.81,1.15-8.45-6-31.47-22.68-50-40.25h0C237,86.72,222.46,67.05,236,58.34c21.37-13.74,58.14,30.31,76.72,55.55l0,0C317.93,121,321.69,126.5,323.31,129Z"/><path class="cls-7" d="M343.7,117.62c-.6.23-1.2.48-1.79.73a90.32,90.32,0,0,0-18.6,10.6c-.42.3-.82.6-1.21.9-1.1-1.8-4.67-7.68-9.33-15.92l0,0c-18-31.82-52.21-98.82-24-103.24,19.55-3.07,33.86,27.36,43,56.77A420.49,420.49,0,0,1,343.7,117.62Z"/><path class="cls-7" d="M315.68,231s-12,8.41-28.09,18.12l0,0c-31,18.68-77,42.12-81.86,19.58-4.22-19.65,28.78-35.57,57.69-45.59a406.74,406.74,0,0,1,39.46-11.33c.37.81.77,1.62,1.19,2.41a77.35,77.35,0,0,0,9.71,14.51l.55.64c.4.46.79.9,1.2,1.34h0Z"/><path class="cls-7" d="M304,214.19c-2.49.65-19.75,5.12-40.65,8.92-37.45,6.82-86.57,11.53-83.32-11.59,4.67-33.13,96.63-24,116.19-21.68a73.36,73.36,0,0,0,6.59,21.94C303.22,212.59,303.62,213.4,304,214.19Z"/><ellipse class="cls-8" cx="335.09" cy="196.39" rx="6.78" ry="3.54"/><ellipse class="cls-8" cx="416.24" cy="196.39" rx="6.78" ry="3.54"/><path class="cls-7" d="M365.66,112.47c-.72,0-1.44.12-2.15.2q-2.83.31-5.53.82a78.38,78.38,0,0,0-14.28,4.13c-.6.23-1.2.48-1.79.73-1.66-6.61-6.87-28.14-10.19-50.93C326.93,34.57,326-.92,345.32,1.87c13.57,2,19.65,19.24,22,39.81h0C370.39,68.76,367,101.51,365.66,112.47Z"/><path class="cls-9" d="M367.31,41.68l.78-4.86s8.69,19.16,0,75.5l-2.43.15S373.68,85.94,367.31,41.68Z"/><path class="cls-9" d="M341.91,118.35l-1.74.75S333.72,103.71,330,62l2.24,8.63S338,104.12,341.91,118.35Z"/><path class="cls-9" d="M440.45,49.08S432.59,79.63,412,123.5c-1.44-.84-2.38-1.37-2.38-1.37s8.9-11.35,28.18-69.57Z"/><path class="cls-9" d="M405.73,21.24,407,18.42s-6,62.4-16.26,96.44l-3-.82S395.9,92.38,405.73,21.24Z"/><path class="cls-9" d="M312.74,113.89l-2.06-2.77s2.74,7.57,10.57,19.49l1.55-1.29A70.55,70.55,0,0,1,312.74,113.89Z"/><path class="cls-9" d="M256.76,105.44l-3.08-3s23.38,12.91,54.17,41.45l-1.11,1.76S277.54,119.55,256.76,105.44Z"/><path class="cls-9" d="M256.54,148.11l-5.11-1.67s6.06,5.74,45.6,21.47l.29-1.28S270.51,155.59,256.54,148.11Z"/><path class="cls-9" d="M278.24,188.11s13.9,1.19,18,1.59l.16,1.17a104.75,104.75,0,0,1-21.82-3Z"/><path class="cls-9" d="M262.69,223.24A343.47,343.47,0,0,0,304,214.19l.73,1.36s-17.63,7.77-46.7,9.45Z"/><path class="cls-9" d="M315.51,230.69a160.35,160.35,0,0,0-27.95,18.43l-5.48,3.26S293,242.42,314,229C315.77,231,315.51,230.69,315.51,230.69Z"/><path class="cls-9" d="M298.69,287.68S328.64,251.6,332.16,244l2.43,1.27s-24.09,32.43-38.18,46.59Z"/><path class="cls-9" d="M352.25,250.14s-26.89,47.13-31.62,83.63c-1.61,2.86-2,3.55-2,3.55s5-41.09,31.93-87.32Z"/><path class="cls-9" d="M348,351.84s24.49-40.62,24.66-102.91l1-.13S375.4,304.24,348.35,353A6.24,6.24,0,0,1,348,351.84Z"/><path class="cls-9" d="M382.5,346.41s-12.6-34.25-12.16-58.77l-.6,3.47s-1.13,14.31,12.44,56.94Z"/><path class="cls-9" d="M401.15,241.51s5.39,20.79,10.09,50.39l.7,1.45a468.84,468.84,0,0,0-9.87-52.26Z"/><path class="cls-9" d="M444,275.46s-25.18-24.33-33.36-39.12l-.95.65s8.24,14.33,37.91,43.87Z"/><path class="cls-9" d="M425.85,221.39s55.58,30,75.9,54.09c1.89.5-13.9-20.23-75.05-55.38Z"/><path class="cls-9" d="M488.56,226.06a402.37,402.37,0,0,1-53.24-26.13l-.4,1.44a370.1,370.1,0,0,0,57.19,26.77Z"/><path class="cls-9" d="M439.12,178.71s63.15,5.34,93.53,22.68l2.36-.28S503.47,183.88,439.23,177Z"/><path class="cls-9" d="M440.75,107.74A79.71,79.71,0,0,1,419.87,129c1.21,1,.73.59.73.59s14.93-11.47,23.15-23.83Z"/><path class="cls-9" d="M470.59,127.24s-23.8,6.14-38.36,16.1c.46.81.44.79.44.79s18.95-11.24,33.19-14.93Z"/><path class="cls-9" d="M438.75,163.09s20.48,1.29,69.79-3.64l2.8.16s-20,4.26-72.37,5.29Z"/><path class="cls-1" d="M145.29,596.06c-7.32,27.88-4,82.76-2.17,105.54.51,6.41.91,10.29.91,10.29H132.62s-1.78-72.49,4.56-98.85,9.63-81.61,9.63-81.61l4.34-2.35,1.75-1A246,246,0,0,1,145.29,596.06Z"/><path class="cls-2" d="M145.29,596.06c-7.32,27.88-4,82.76-2.17,105.54l-2.72,1.54S135,626,142.71,600.24c10-38.79,9.17-63,8.44-71.16l1.75-1A246,246,0,0,1,145.29,596.06Z"/><path class="cls-1" d="M164.94,639.4c-11,9.51-25.27,12.72-25.27,12.72l0-13.17S153.15,616.23,164,606c6.93-6.49,12.81-8,13.55,4.67C178.36,623.74,172.38,633,164.94,639.4Z"/><path class="cls-1" d="M144.36,586.61s-1-.41-2.56-1.23c-5.85-3.06-19.46-11.82-16.32-25.77.59-2.63,1.41-4.05,2.37-4.58,5.54-3,15.88,23.51,15.88,23.51Z"/><path class="cls-3" d="M161.58,643.9l1-1C162.23,643.25,161.9,643.58,161.58,643.9Z"/><path class="cls-2" d="M164.94,639.4c7.6-10.2,13.81-23.57,9.88-35.3C173.09,599,164,606,164,606h0c6.93-6.49,12.81-8,13.55,4.67C178.36,623.74,172.38,633,164.94,639.4Z"/><path class="cls-4" d="M193.17,456.24c-4.77,16.56-17.88,23.26-39.21,23.9-7.64.22-15.23-4.06-20.83-10.67-10.06-11.85-13.75-31.17,0-45.42a43.54,43.54,0,0,1,22-11.77,36.9,36.9,0,0,1,18.34,1.26C197,421.19,198,439.67,193.17,456.24Z"/><path class="cls-5" d="M133.13,469.47c-10.06-11.85-13.75-31.17,0-45.42a43.54,43.54,0,0,1,22-11.77C140.88,418.46,119.1,434.1,133.13,469.47Z"/><path class="cls-6" d="M159.54,451.59c1.27,1.73,3.78,1.9,5.66,1.25a3.51,3.51,0,0,0,1.66-1.26.29.29,0,0,1,.41-.08.31.31,0,0,1,.13.25,2.63,2.63,0,0,1-.45,1.37,4.87,4.87,0,0,1-7.56,0c-.24-.36-.85-1.62-.14-1.72a.33.33,0,0,1,.29.17Z"/><path class="cls-6" d="M169.74,445.75c.38-3.57,3.89-6.15,7.4-6.43a8.73,8.73,0,0,1,7.77,3.2,4.32,4.32,0,0,1,1,2.93,1.75,1.75,0,0,1-3,1,7.32,7.32,0,0,1-1.2-1.7,6.23,6.23,0,0,0-4.54-2.91,6.44,6.44,0,0,0-6.84,4,.28.28,0,0,1-.55-.12Z"/><path class="cls-6" d="M156.12,445.87a6.44,6.44,0,0,0-6.84-4,6.21,6.21,0,0,0-4.54,2.91c-.7,1.34-2,3.15-3.65,1.83-1.16-1.12-.41-3,.41-4.09a8.72,8.72,0,0,1,7.77-3.2c3.51.28,7,2.86,7.39,6.43a.28.28,0,0,1-.54.12Z"/><path class="cls-7" d="M169.84,412.56h0l-.82-.18a36.81,36.81,0,0,0-10.12-.6c-.36,0-.71.06-1.07.1-.08-5-.16-21.47,1.89-35.23h0c1.89-12.64,5.59-23,12.77-20.23,3.74,1.45,5.62,5.18,6.3,10.09C180.82,381.18,172.08,406.39,169.84,412.56Z"/><path class="cls-7" d="M196.16,409.43h0c-5.25,5.34-9.69,9.25-10.7,10.13a.46.46,0,0,1-.07.07,31.82,31.82,0,0,0-4.77-3.08h0c-1.11-.58-2.27-1.14-3.51-1.65l-1.71-1s9.23-18.47,19.28-31.84c7.59-10.07,15.64-17.25,20.6-11.46C222.83,379.42,207.56,397.81,196.16,409.43Z"/><path class="cls-7" d="M194.67,382c-4.33,16.48-14,34.53-14,34.53h-.1c-1.11-.58-2.27-1.14-3.51-1.65s-2.39-.94-3.68-1.36-2.41-.72-3.58-1h0l-.82-.18c.8-7.35,3.79-31.69,9.77-45.88,3.28-7.79,7.45-12.53,12.66-9.74C198.11,360.34,197.62,370.83,194.67,382Z"/><path class="cls-7" d="M208.63,420.08A181.49,181.49,0,0,1,191.28,426c-.17-.25-.33-.51-.51-.76a25.92,25.92,0,0,0-5.14-5.43h0l-.17-.26-1.12-1.71s5-3.86,11.82-8.42h0c13.54-9.09,34.22-21,36.89-10.8C235.31,407.24,221.28,415,208.63,420.08Z"/><path class="cls-7" d="M248.37,422.88c-.48,6.7-8.62,10.32-18.55,12.22h0c-12.75,2.45-28.43,2.08-34.64,1.8l-.12-.83A26.1,26.1,0,0,0,191.28,426c-.17-.25-.33-.51-.51-.76,2.69-.88,9.66-3.09,17.86-5.18C226.1,415.65,249.17,411.84,248.37,422.88Z"/><path class="cls-7" d="M247.6,466.43c-3.86,7-15.79,5.5-27.71,1.73h0A185.42,185.42,0,0,1,193,456.75l.15-.51.3-1.05c.52-1.93,1-3.88,1.3-5.84.27-1.57.47-3.13.58-4.69,7.93.94,34.05,4.5,46.43,11.25C247.09,458.82,249.87,462.3,247.6,466.43Z"/><path class="cls-7" d="M256.19,447.59c-1.57,5.18-7.16,7.57-14.41,8.32-16.12,1.69-40.42-4.71-47-6.56.27-1.57.47-3.13.58-4.69a37.14,37.14,0,0,0-.18-7.76l-.12-.83a274.19,274.19,0,0,1,34.76-1h0C245.15,435.87,258.83,438.9,256.19,447.59Z"/><path class="cls-7" d="M238.14,491c-2.82,2.81-7,3-11.7,1.7-13.77-3.9-32.51-21.05-38-26.33.13-.17.25-.34.37-.52a32.58,32.58,0,0,0,4.25-9.09l.15-.51.3-1.05a261.92,261.92,0,0,1,26.41,13h0C233,475.69,244.39,484.75,238.14,491Z"/><path class="cls-7" d="M206.16,525.46c-9.18,2.89-18.26-11.16-24.64-24.62h0a199.78,199.78,0,0,1-8.85-22.27l3.65-2.65.2-.09a31.58,31.58,0,0,0,4.7-2.57h0c.41-.27.81-.55,1.21-.85,1.88,2.26,8.85,10.72,15.34,20.27C207.14,506.47,215.5,522.52,206.16,525.46Z"/><path class="cls-7" d="M228.82,505.77c-7.28,5.88-20.34-3.2-31-13.09a198.88,198.88,0,0,1-17.26-18.32l.7-1.1h0c.41-.27.81-.55,1.21-.85a27.2,27.2,0,0,0,6-6.05c.13-.17.25-.34.37-.52,6.77,3.77,28.2,16.17,37.67,26.85C231,497.83,232.78,502.58,228.82,505.77Z"/><path class="cls-7" d="M174.81,534.42c-3.39-.5-5.83-2.93-7.56-6.53-6.33-13.13-3.18-41.84-2.29-48.76l.56-.09a47,47,0,0,0,10.79-3.12l.2-.09c.45,1.76,3.22,12.9,5,25h0C184,517.45,184.58,535.87,174.81,534.42Z"/><path class="cls-7" d="M167.25,527.89c-1.36,7.51-4.21,12.37-9.59,11-3.72-.92-6.1-4-7.53-8.34-4.82-14.57,1.08-43.17,2.71-50.45H154c1.74-.05,3.42-.15,5-.28h0q3.09-.25,5.94-.73l.56-.09C166.51,485.83,170.05,512.45,167.25,527.89Z"/><path class="cls-7" d="M152.23,480.11c-1.33,4.81-7.76,27.23-15.69,41.51-5,9.09-10.71,14.89-16,10.74-7.53-5.85-2-20.57,5.15-33.62A208.11,208.11,0,0,1,140.46,476q.89.58,1.8,1.08a23.45,23.45,0,0,0,9.42,3Z"/><path class="cls-7" d="M163.53,480.74s-4.39,37.2-13.4,49.85c-2.62,3.66-5.61,5.27-9,3.34-3.79-2.15-5-6.71-4.6-12.31.93-14.39,12-35.77,15.14-41.55l.55,0c.2,0,.41,0,.61,0H154c1.74-.05,3.42-.15,5-.28h0Z"/><path class="cls-7" d="M142.26,477.08a259.92,259.92,0,0,1-16.61,21.66c-10.22,11.81-22.16,22.42-27.16,14.77-5.94-9.08,9.33-24,21.64-33.91a0,0,0,0,0,0,0c6.2-5,11.66-8.73,13.26-9.8l.59.66h0a33.3,33.3,0,0,0,6.46,5.54Q141.35,476.59,142.26,477.08Z"/><path class="cls-7" d="M125,438.66a31.62,31.62,0,0,0-.54,11.45c-9.8-.86-59.61-6-52.44-19.93,4.16-8.11,19.28-5.26,32.74-.71a192.52,192.52,0,0,1,20.44,8.39C125.1,438.12,125,438.39,125,438.66Z"/><path class="cls-7" d="M130.05,427.7c-.14.18-.27.37-.4.57a30.46,30.46,0,0,0-4.48,9.59c-.07.26-.13.53-.2.8-3.62-1.47-11.8-4.89-20.24-9.19C89.84,421.9,74.1,411.6,81,404.51c5-5.14,14.44-1.86,23.86,3.77a0,0,0,0,0,0,0C115.46,414.64,126,424,130.05,427.7Z"/><path class="cls-7" d="M137.87,420l-.6.44a34.7,34.7,0,0,0-4.16,3.65,33.07,33.07,0,0,0-3.06,3.65c-.14.18-.27.37-.4.57a243.29,243.29,0,0,1-24.81-20,0,0,0,0,1,0,0c-9.78-9.28-17-19-10.29-23.37,10.61-6.82,28.86,15,38.08,27.57l0,0C135.2,416,137.07,418.74,137.87,420Z"/><path class="cls-7" d="M148,414.33l-.89.37a44.65,44.65,0,0,0-9.23,5.26l-.6.44c-.55-.89-2.32-3.81-4.63-7.9l0,0c-8.93-15.79-25.91-49.05-11.92-51.24,9.7-1.52,16.8,13.58,21.34,28.18A208.85,208.85,0,0,1,148,414.33Z"/><path class="cls-7" d="M134.08,470.6s-6,4.17-13.94,9a0,0,0,0,1,0,0c-15.37,9.28-38.24,20.91-40.63,9.72-2.1-9.75,14.28-17.65,28.63-22.63a202.78,202.78,0,0,1,19.59-5.62c.18.4.38.8.59,1.2a38.18,38.18,0,0,0,4.82,7.2l.27.32.59.66h0Z"/><path class="cls-7" d="M128.31,462.27c-1.24.32-9.81,2.54-20.18,4.42-18.59,3.39-43,5.73-41.36-5.75,2.32-16.44,48-11.91,57.67-10.76a36.41,36.41,0,0,0,3.28,10.89C127.9,461.47,128.1,461.87,128.31,462.27Z"/><ellipse class="cls-8" cx="143.72" cy="453.43" rx="3.36" ry="1.76"/><ellipse class="cls-8" cx="184" cy="453.43" rx="3.36" ry="1.76"/><path class="cls-7" d="M158.89,411.78c-.36,0-.71.06-1.07.1-.93.1-1.85.24-2.74.4a39.45,39.45,0,0,0-7.09,2.05l-.89.37c-.82-3.28-3.41-14-5.06-25.28-2.37-16.31-2.81-33.92,6.76-32.54,6.73,1,9.75,9.55,10.91,19.76h0C161.24,390.08,159.55,406.34,158.89,411.78Z"/><path class="cls-9" d="M159.71,376.64l.39-2.41s4.31,9.51,0,37.47l-1.21.08S162.87,398.61,159.71,376.64Z"/><path class="cls-9" d="M147.1,414.7l-.86.37s-3.2-7.64-5.07-28.36l1.11,4.29S145.17,407.64,147.1,414.7Z"/><path class="cls-9" d="M196,380.32s-3.91,15.16-14.15,36.93l-1.18-.68s4.41-5.63,14-34.53Z"/><path class="cls-9" d="M178.78,366.5l.61-1.4s-3,31-8.07,47.87l-1.49-.41S173.9,401.81,178.78,366.5Z"/><path class="cls-9" d="M132.62,412.48l-1-1.37a52,52,0,0,0,5.25,9.67l.77-.64A34.83,34.83,0,0,1,132.62,412.48Z"/><path class="cls-9" d="M104.84,408.29l-1.53-1.47s11.61,6.41,26.89,20.57l-.55.88S115.15,415.29,104.84,408.29Z"/><path class="cls-9" d="M104.73,429.47l-2.54-.83s3,2.85,22.64,10.65l.14-.63S111.66,433.18,104.73,429.47Z"/><path class="cls-9" d="M115.5,449.32s6.9.59,8.93.79l.09.58a52.29,52.29,0,0,1-10.84-1.5Z"/><path class="cls-9" d="M107.78,466.76a171.34,171.34,0,0,0,20.53-4.49l.36.67s-8.75,3.86-23.18,4.7Z"/><path class="cls-9" d="M134,470.46a79.56,79.56,0,0,0-13.87,9.14l-2.72,1.62a125.57,125.57,0,0,1,15.85-11.6Z"/><path class="cls-9" d="M125.65,498.74s14.87-17.91,16.61-21.66l1.21.63s-12,16.1-19,23.13Z"/><path class="cls-9" d="M152.23,480.11s-13.34,23.39-15.69,41.51c-.8,1.42-1,1.76-1,1.76S138,503,151.38,480Z"/><path class="cls-9" d="M150.13,530.59s12.15-20.16,12.24-51.08l.48-.06s.88,27.52-12.55,51.73A3.38,3.38,0,0,1,150.13,530.59Z"/><path class="cls-9" d="M167.25,527.89s-6.25-17-6-29.17l-.31,1.73s-.55,7.1,6.18,28.26Z"/><path class="cls-9" d="M176.51,475.83s2.67,10.32,5,25l.35.72a232.36,232.36,0,0,0-4.9-25.94Z"/><path class="cls-9" d="M197.77,492.68s-12.5-12.08-16.56-19.42l-.47.32s4.09,7.12,18.82,21.78Z"/><path class="cls-9" d="M188.77,465.84s27.59,14.9,37.67,26.85c.94.24-6.9-10-37.25-27.49Z"/><path class="cls-9" d="M219.89,468.16a199.28,199.28,0,0,1-26.42-13l-.2.71a182.78,182.78,0,0,0,28.39,13.29Z"/><path class="cls-9" d="M195.35,444.66s31.35,2.65,46.43,11.25l1.17-.14s-15.66-8.54-47.54-12Z"/><path class="cls-9" d="M196.16,409.43A39.35,39.35,0,0,1,185.8,420c.6.51.36.3.36.3s7.41-5.7,11.49-11.83Z"/><path class="cls-9" d="M211,419.11s-11.81,3.05-19,8l.22.39s9.41-5.58,16.48-7.41Z"/><path class="cls-9" d="M195.17,436.9s10.16.64,34.64-1.8l1.39.08s-9.94,2.11-35.92,2.62Z"/><path class="cls-1" d="M560.65,618.41c-7.32,27.88-4,82.76-2.17,105.54.51,6.42.9,10.29.9,10.29H548s-1.77-72.49,4.57-98.85,9.63-81.61,9.63-81.61l4.33-2.34,1.75-1A246.1,246.1,0,0,1,560.65,618.41Z"/><path class="cls-2" d="M560.65,618.41c-7.32,27.88-4,82.76-2.17,105.54l-2.72,1.54s-5.38-77.13,2.31-102.89c10-38.79,9.17-63,8.43-71.16l1.75-1A246.1,246.1,0,0,1,560.65,618.41Z"/><path class="cls-1" d="M580.3,661.76c-11,9.51-25.28,12.72-25.28,12.72l0-13.18s13.46-22.71,24.35-32.94c6.92-6.49,12.8-7.94,13.55,4.68C593.72,646.1,587.73,655.36,580.3,661.76Z"/><path class="cls-1" d="M559.72,609s-1-.41-2.56-1.22c-5.85-3.07-19.46-11.83-16.33-25.77.59-2.63,1.41-4.06,2.38-4.58,5.53-3,15.87,23.5,15.87,23.5Z"/><path class="cls-3" d="M576.93,666.25q.5-.51,1-1A11.75,11.75,0,0,1,576.93,666.25Z"/><path class="cls-2" d="M580.3,661.76c7.59-10.21,13.8-23.58,9.87-35.3-1.72-5.16-10.77,1.91-10.77,1.91h0c6.92-6.49,12.8-7.94,13.55,4.68C593.72,646.1,587.73,655.36,580.3,661.76Z"/><path class="cls-4" d="M608.53,478.59c-4.78,16.57-17.89,23.26-39.21,23.9-7.64.23-15.23-4.05-20.84-10.67-10.05-11.84-13.75-31.16,0-45.41a43.4,43.4,0,0,1,22-11.77,36.78,36.78,0,0,1,18.34,1.26C612.36,443.54,613.31,462,608.53,478.59Z"/><path class="cls-5" d="M548.48,491.82c-10.05-11.84-13.75-31.16,0-45.41a43.4,43.4,0,0,1,22-11.77C556.24,440.82,534.46,456.45,548.48,491.82Z"/><path class="cls-6" d="M574.9,474c1.26,1.73,3.78,1.89,5.66,1.24a3.32,3.32,0,0,0,1.65-1.26.3.3,0,0,1,.42-.07.29.29,0,0,1,.13.24,2.53,2.53,0,0,1-.46,1.37,4.85,4.85,0,0,1-7.55,0c-.24-.36-.86-1.62-.14-1.71a.34.34,0,0,1,.29.17Z"/><path class="cls-6" d="M585.1,468.11c.37-3.58,3.88-6.15,7.39-6.44a8.75,8.75,0,0,1,7.77,3.21,4.36,4.36,0,0,1,1,2.93,1.75,1.75,0,0,1-3,1,7.64,7.64,0,0,1-1.2-1.7,6.2,6.2,0,0,0-4.53-2.9,6.44,6.44,0,0,0-6.85,4,.28.28,0,0,1-.54-.12Z"/><path class="cls-6" d="M571.48,468.23a6.44,6.44,0,0,0-6.85-4,6.2,6.2,0,0,0-4.53,2.9c-.7,1.34-2,3.15-3.65,1.84-1.16-1.13-.42-3,.41-4.09a8.75,8.75,0,0,1,7.77-3.21c3.51.29,7,2.86,7.39,6.44a.28.28,0,0,1-.54.12Z"/><path class="cls-7" d="M585.19,434.91h0l-.82-.17a36.47,36.47,0,0,0-10.12-.61l-1.07.1c-.09-5-.17-21.47,1.89-35.23h0c1.89-12.64,5.59-23,12.77-20.23,3.73,1.45,5.62,5.17,6.3,10.08C596.18,403.53,587.44,428.74,585.19,434.91Z"/><path class="cls-7" d="M611.52,431.79h0c-5.25,5.35-9.68,9.26-10.69,10.14l-.07.06a33.6,33.6,0,0,0-4.78-3.08h0c-1.1-.59-2.26-1.14-3.51-1.66l-1.7-1S600,417.76,610,404.4c7.58-10.07,15.64-17.26,20.59-11.46C638.18,401.78,622.92,420.17,611.52,431.79Z"/><path class="cls-7" d="M610,404.4c-4.33,16.48-14,34.53-14,34.53l-.1,0h0c-1.1-.59-2.26-1.14-3.51-1.66s-2.38-.94-3.68-1.35-2.4-.72-3.58-1h0l-.82-.17c.8-7.36,3.79-31.69,9.77-45.89,3.27-7.79,7.45-12.53,12.65-9.73C613.46,382.7,613,393.18,610,404.4Z"/><path class="cls-7" d="M624,442.44c-7.5,3-14.51,5.12-17.35,5.94-.16-.26-.33-.51-.5-.76a26.18,26.18,0,0,0-5.14-5.43h0l-.16-.25-1.13-1.71s5-3.86,11.82-8.43h0c13.54-9.09,34.22-21,36.89-10.81C650.67,429.6,636.63,437.34,624,442.44Z"/><path class="cls-7" d="M663.73,445.23c-.48,6.7-8.62,10.32-18.56,12.22h0c-12.74,2.45-28.42,2.09-34.64,1.81q0-.42-.12-.84a26.05,26.05,0,0,0-3.77-10c-.16-.26-.33-.51-.5-.76,2.69-.88,9.65-3.1,17.85-5.18C641.45,438,664.52,434.2,663.73,445.23Z"/><path class="cls-7" d="M663,488.78c-3.86,7-15.79,5.5-27.7,1.73h0a184.71,184.71,0,0,1-26.86-11.41c0-.17.1-.33.15-.51.1-.35.2-.69.29-1,.53-1.93,1-3.88,1.31-5.83.27-1.57.46-3.14.58-4.7,7.93.95,34,4.5,46.42,11.26C662.44,481.17,665.22,484.66,663,488.78Z"/><path class="cls-7" d="M671.55,470c-1.58,5.17-7.17,7.56-14.42,8.32-16.11,1.68-40.41-4.71-47-6.56.27-1.57.46-3.14.58-4.7a36.39,36.39,0,0,0-.19-7.75q0-.42-.12-.84a276.12,276.12,0,0,1,34.76-1h0C660.5,458.23,674.19,461.26,671.55,470Z"/><path class="cls-7" d="M653.49,513.34c-2.82,2.82-7,3-11.7,1.7-13.76-3.89-32.5-21-38-26.32l.36-.52a33,33,0,0,0,4.26-9.1c0-.17.1-.33.15-.51.1-.35.2-.69.29-1a260.25,260.25,0,0,1,26.42,13h0C648.31,498,659.75,507.1,653.49,513.34Z"/><path class="cls-7" d="M621.51,547.82c-9.17,2.89-18.26-11.16-24.63-24.62h0A200.07,200.07,0,0,1,588,500.93l3.64-2.66.2-.09a33.13,33.13,0,0,0,4.71-2.56h0c.42-.28.82-.56,1.21-.86,1.89,2.26,8.86,10.72,15.35,20.27C622.49,528.82,630.85,544.87,621.51,547.82Z"/><path class="cls-7" d="M644.18,528.13c-7.29,5.88-20.35-3.21-31-13.1a199.53,199.53,0,0,1-17.26-18.31l.7-1.1h0c.42-.28.82-.56,1.21-.86a26.78,26.78,0,0,0,6-6l.36-.52c6.77,3.77,28.21,16.16,37.67,26.84C646.35,520.19,648.14,524.93,644.18,528.13Z"/><path class="cls-7" d="M590.16,556.78c-3.39-.51-5.83-2.94-7.56-6.53-6.33-13.14-3.17-41.84-2.29-48.76l.57-.1a46.52,46.52,0,0,0,10.78-3.12l.2-.09c.45,1.77,3.22,12.91,5,25h0C599.33,539.8,599.94,558.22,590.16,556.78Z"/><path class="cls-7" d="M582.6,550.25c-1.36,7.5-4.21,12.37-9.58,11-3.73-.92-6.1-4-7.54-8.35-4.81-14.56,1.08-43.17,2.72-50.45h1.12c1.73-.05,3.42-.14,5-.28h0q3.11-.25,5.94-.72l.57-.1C581.87,508.19,585.4,534.81,582.6,550.25Z"/><path class="cls-7" d="M567.59,502.47c-1.33,4.8-7.76,27.22-15.69,41.51-5.06,9.09-10.71,14.88-16,10.74-7.52-5.85-2-20.58,5.16-33.62a205.56,205.56,0,0,1,14.81-22.74c.59.38,1.19.75,1.8,1.08a23.72,23.72,0,0,0,9.41,3Z"/><path class="cls-7" d="M578.89,503.1s-4.39,37.19-13.41,49.84c-2.61,3.66-5.6,5.27-9,3.34-3.78-2.15-5-6.7-4.59-12.3.93-14.4,12-35.78,15.13-41.55l.56,0,.61,0h1.12c1.73-.05,3.42-.14,5-.28h0Z"/><path class="cls-7" d="M557.62,499.44A266.44,266.44,0,0,1,541,521.1c-10.22,11.8-22.17,22.41-27.16,14.77-5.94-9.09,9.32-24,21.63-33.91h0c6.2-5,11.65-8.73,13.25-9.81l.6.67h0a33.41,33.41,0,0,0,6.47,5.55C556.41,498.74,557,499.11,557.62,499.44Z"/><path class="cls-7" d="M540.33,461a31.39,31.39,0,0,0-.54,11.45c-9.8-.87-59.62-6-52.45-19.94,4.17-8.11,19.29-5.25,32.74-.71a195.05,195.05,0,0,1,20.45,8.39C540.46,460.48,540.39,460.75,540.33,461Z"/><path class="cls-7" d="M545.4,450.05l-.4.57a30.31,30.31,0,0,0-4.47,9.59c-.07.27-.14.54-.2.81-3.62-1.47-11.8-4.9-20.25-9.2-14.89-7.57-30.62-17.86-23.76-24.95,5-5.14,14.44-1.87,23.86,3.77h0C530.82,437,541.38,446.35,545.4,450.05Z"/><path class="cls-7" d="M553.23,442.31l-.6.45a34.7,34.7,0,0,0-4.16,3.65,35.27,35.27,0,0,0-3.07,3.64l-.4.57a241.58,241.58,0,0,1-24.81-20h0c-9.77-9.29-17-19.05-10.28-23.37,10.61-6.82,28.86,15,38.08,27.57v0C550.56,438.34,552.42,441.1,553.23,442.31Z"/><path class="cls-7" d="M563.35,436.69c-.3.11-.6.24-.89.36a45.31,45.31,0,0,0-9.23,5.26l-.6.45c-.55-.89-2.32-3.81-4.64-7.9v0c-8.93-15.8-25.91-49-11.93-51.24,9.71-1.53,16.81,13.58,21.35,28.17A211,211,0,0,1,563.35,436.69Z"/><path class="cls-7" d="M549.44,493s-6,4.17-13.94,9h0c-15.37,9.27-38.23,20.91-40.63,9.72-2.09-9.76,14.29-17.66,28.63-22.63a200.56,200.56,0,0,1,19.59-5.62c.18.4.38.8.59,1.19a38.34,38.34,0,0,0,4.82,7.2l.27.32.6.67h0Z"/><path class="cls-7" d="M543.66,484.62c-1.23.32-9.8,2.54-20.18,4.43-18.58,3.38-43,5.72-41.35-5.75,2.32-16.45,48-11.92,57.67-10.76a36.57,36.57,0,0,0,3.27,10.89C543.25,483.83,543.45,484.23,543.66,484.62Z"/><ellipse class="cls-8" cx="559.07" cy="475.79" rx="3.36" ry="1.76"/><ellipse class="cls-8" cx="599.35" cy="475.79" rx="3.36" ry="1.76"/><path class="cls-7" d="M574.25,434.13l-1.07.1c-.94.11-1.85.24-2.75.41a39.57,39.57,0,0,0-7.08,2.05c-.3.11-.6.24-.89.36-.83-3.28-3.41-14-5.06-25.28-2.38-16.3-2.82-33.92,6.75-32.53,6.74,1,9.75,9.55,10.92,19.76h0C576.59,412.44,574.91,428.69,574.25,434.13Z"/><path class="cls-9" d="M575.07,399l.38-2.42s4.32,9.52,0,37.48l-1.2.07S578.23,421,575.07,399Z"/><path class="cls-9" d="M562.46,437.05l-.86.37s-3.21-7.63-5.07-28.35l1.11,4.28S560.53,430,562.46,437.05Z"/><path class="cls-9" d="M611.37,402.67s-3.9,15.16-14.15,36.94c-.71-.42-1.18-.68-1.18-.68s4.42-5.64,14-34.53Z"/><path class="cls-9" d="M594.14,388.85l.61-1.4s-3,31-8.07,47.87l-1.49-.41S589.26,424.16,594.14,388.85Z"/><path class="cls-9" d="M548,434.84l-1-1.38a52.23,52.23,0,0,0,5.25,9.68l.77-.64A35.16,35.16,0,0,1,548,434.84Z"/><path class="cls-9" d="M520.19,430.64l-1.52-1.47s11.6,6.42,26.88,20.58l-.55.87S530.51,437.65,520.19,430.64Z"/><path class="cls-9" d="M520.08,451.82l-2.53-.83s3,2.86,22.63,10.66l.15-.63S527,455.54,520.08,451.82Z"/><path class="cls-9" d="M530.86,471.68s6.89.59,8.93.79l.08.58a52.23,52.23,0,0,1-10.83-1.5Z"/><path class="cls-9" d="M523.14,489.11a168.76,168.76,0,0,0,20.52-4.49l.36.68s-8.75,3.85-23.17,4.69Z"/><path class="cls-9" d="M549.35,492.81A80.36,80.36,0,0,0,535.48,502l-2.72,1.62A125.31,125.31,0,0,1,548.61,492Z"/><path class="cls-9" d="M541,521.1s14.86-17.91,16.61-21.66l1.2.63s-12,16.09-18.94,23.12Z"/><path class="cls-9" d="M567.59,502.47S554.25,525.86,551.9,544c-.8,1.41-1,1.76-1,1.76s2.47-20.4,15.85-43.34Z"/><path class="cls-9" d="M565.48,552.94s12.16-20.15,12.24-51.08l.49-.06s.87,27.52-12.55,51.73A2.9,2.9,0,0,1,565.48,552.94Z"/><path class="cls-9" d="M582.6,550.25s-6.25-17-6-29.17l-.3,1.72s-.56,7.1,6.18,28.26Z"/><path class="cls-9" d="M591.86,498.18s2.68,10.32,5,25l.35.72a232.44,232.44,0,0,0-4.9-25.93Z"/><path class="cls-9" d="M613.13,515s-12.5-12.07-16.56-19.41l-.47.32s4.09,7.11,18.81,21.77Z"/><path class="cls-9" d="M604.12,488.2s27.59,14.9,37.67,26.84c.94.25-6.89-10-37.24-27.49Z"/><path class="cls-9" d="M635.25,490.51a199.73,199.73,0,0,1-26.43-13l-.2.72A184.45,184.45,0,0,0,637,491.55Z"/><path class="cls-9" d="M610.71,467s31.35,2.66,46.42,11.26l1.17-.14s-15.65-8.55-47.54-12Z"/><path class="cls-9" d="M611.52,431.79a39.69,39.69,0,0,1-10.36,10.54c.6.51.36.29.36.29s7.41-5.69,11.49-11.83Z"/><path class="cls-9" d="M626.33,441.47s-11.82,3-19,8l.22.4s9.4-5.58,16.47-7.41Z"/><path class="cls-9" d="M610.52,459.26s10.17.64,34.64-1.81l1.4.08s-9.94,2.12-35.93,2.63Z"/><path class="cls-10" d="M544.06,755.3h0c-190.19.86-544-3.81-544-3.81l25.06-8.18s71.18-43.57,101.25-41.51,36.11-12.93,49.12-8.17,55.16-2.56,63.17-.94c4.6.92,22.38-2.58,41-3.84,13.9-1,28.27-.7,37.84,3.6,22.41,10,45.71-9.32,62.14-4.06s112.67,1.16,114.68,9.31,89.23,28.59,103.25,38.13,56.16,6.8,64.17,15.66C663.86,753.91,615.53,755,544.06,755.3Z"/><path class="cls-11" d="M544.06,755.3h0s-27.83-16.07-31.6-17.09-48.51-34.71-56-28.59-77.07-11-82.34-15.87-36.07,14.33-48.5,4.89-46-9.79-46-9.79c13.9-1,28.27-.7,37.84,3.6,22.41,10,45.71-9.32,62.14-4.06s112.67,1.16,114.68,9.31,89.23,28.59,103.25,38.13,56.16,6.8,64.17,15.66C663.86,753.91,615.53,755,544.06,755.3Z"/></g></g></svg>