<?xml version="1.0" encoding="UTF-8"?><svg id="Calque_2" xmlns="http://www.w3.org/2000/svg" viewBox="0 0 669.01 755.41"><defs><style>.cls-1{fill:#82d16f;}.cls-2{fill:#593636;}.cls-3{opacity:.05;}.cls-4{fill:#ffc82c;}.cls-5{fill:#63c6a0;}.cls-6{fill:#302826;}.cls-7{fill:#ff6e79;opacity:.35;}.cls-8{fill:#5aba97;}.cls-9{fill:#ffc033;}.cls-10{fill:#efefef;}.cls-11{fill:#ffd655;}.cls-12{fill:#ff2c50;}.cls-13{fill:#4f2f2f;}.cls-14{fill:#e9f4f4;}.cls-15{fill:#ffcd50;}.cls-16{fill:#f5ffff;}</style></defs><g id="Calque_1-2"><g><g><path class="cls-8" d="M338.26,483.74c-14.74,56.17-8.03,166.74-4.37,212.63,1.03,12.93,1.82,20.73,1.82,20.73h-22.98s-3.58-146.04,9.19-199.15c12.77-53.1,19.4-164.42,19.4-164.42l8.74-4.73,3.52-1.91s3.57,64.85-15.32,136.85Z"/><path class="cls-5" d="M338.26,483.74c-14.74,56.17-8.03,166.74-4.37,212.63l-5.48,3.11s-10.83-155.4,4.65-207.31c20.07-78.15,18.48-126.83,17-143.37l3.52-1.91s3.57,64.85-15.32,136.85Z"/><path class="cls-8" d="M377.85,571.07c-22.25,19.16-50.92,25.62-50.92,25.62l.06-26.54s27.11-45.76,49.05-66.36c13.95-13.08,25.8-16.01,27.3,9.41,1.55,26.32-10.51,44.97-25.49,57.87Z"/><path class="cls-8" d="M336.39,464.7s-2.03-.83-5.16-2.47c-11.78-6.17-39.21-23.82-32.89-51.92,1.19-5.3,2.84-8.17,4.79-9.22,11.15-6,31.98,47.35,31.98,47.35l1.28,16.26Z"/><path class="cls-1" d="M371.07,580.12c.66-.69,1.31-1.38,1.94-2.05-.63,.74-1.28,1.42-1.94,2.05Z"/><path class="cls-5" d="M377.85,571.07c15.3-20.56,27.81-47.5,19.9-71.12-3.48-10.39-21.71,3.85-21.71,3.85h0c13.95-13.09,25.8-16.02,27.3,9.4,1.55,26.32-10.51,44.97-25.49,57.87Z"/><g><path class="cls-15" d="M434.73,202.04c-9.62,33.38-36.04,46.86-79,48.15-15.39,.46-30.68-8.17-41.98-21.49-20.25-23.87-27.7-62.79-.03-91.5,0,0,17.16-18.63,44.26-23.71,10.87-2.03,23.34-1.88,36.95,2.53,47.51,15.41,49.43,52.64,39.8,86.02Z"/><path class="cls-9" d="M313.75,228.7c-20.25-23.87-27.7-62.79-.03-91.5,0,0,17.16-18.63,44.26-23.71-28.6,12.45-72.48,43.95-44.23,115.21Z"/></g><path class="cls-6" d="M366.97,192.68c2.55,3.49,7.61,3.82,11.4,2.51,1.29-.51,2.48-1.26,3.34-2.53,.19-.27,.56-.34,.83-.16,.17,.11,.26,.3,.26,.49,0,.97-.38,1.94-.92,2.77-3.44,4.85-11.76,4.86-15.22,.03-.49-.72-1.72-3.26-.28-3.45,.25,0,.47,.14,.59,.34h0Z"/><path class="cls-6" d="M387.52,180.92c.75-7.21,7.82-12.39,14.89-12.97,5.62-.58,12.1,1.62,15.65,6.46,1.28,1.64,2.16,3.74,1.99,5.9-.17,3.02-4.16,4.33-6.09,2.06-1.02-1.05-1.79-2.26-2.41-3.42-1.94-3.16-5.2-5.33-9.14-5.85-5.61-.75-11.79,2.44-13.79,8.06-.19,.62-1.17,.4-1.1-.24h0Z"/><path class="cls-6" d="M360.07,181.16c-2-5.62-8.18-8.81-13.79-8.06-3.93,.52-7.19,2.69-9.14,5.85-1.41,2.7-4.02,6.34-7.35,3.7-2.35-2.27-.84-6.06,.83-8.24,3.55-4.84,10.03-7.04,15.65-6.46,7.07,.58,14.15,5.76,14.89,12.97,.05,.65-.88,.85-1.1,.24h0Z"/><path class="cls-16" d="M387.71,114.04h-.01c-.55-.12-1.1-.24-1.65-.35-7.2-1.44-14.02-1.73-20.39-1.22-.72,.05-1.44,.12-2.15,.2-.17-10.15-.34-43.26,3.8-70.98h0c3.81-25.47,11.27-46.38,25.73-40.77,7.53,2.92,11.32,10.43,12.69,20.32,4.12,29.58-13.49,80.37-18.02,92.8Z"/><path class="cls-16" d="M440.75,107.74h-.01c-10.58,10.78-19.51,18.66-21.55,20.43-.05,.05-.1,.1-.14,.13-2.85-2.22-6.04-4.3-9.62-6.2h-.02c-2.22-1.19-4.56-2.31-7.07-3.35l-3.43-2.05s18.58-37.21,38.84-64.14c15.28-20.29,31.51-34.76,41.49-23.09,15.23,17.81-15.52,54.86-38.49,78.27Z"/><path class="cls-16" d="M437.75,52.56c-8.72,33.2-28.13,69.57-28.13,69.57l-.19-.03h-.02c-2.22-1.19-4.56-2.31-7.07-3.35-2.34-.97-4.81-1.89-7.41-2.73-2.45-.79-4.85-1.45-7.22-1.98h-.01c-.55-.12-1.1-.24-1.65-.35,1.61-14.82,7.64-63.85,19.68-92.45,6.6-15.69,15.02-25.24,25.5-19.61,13.44,7.21,12.46,28.34,6.52,50.93Z"/><path class="cls-16" d="M465.86,129.2c-15.11,6.1-29.23,10.33-34.95,11.97-.33-.52-.67-1.03-1.02-1.53-2.75-3.93-6.16-7.6-10.35-10.94h-.01s-.34-.53-.34-.53l-2.26-3.44s10.09-7.78,23.81-16.98h.01c27.28-18.32,68.94-42.24,74.32-21.78,4.56,17.36-23.72,32.96-49.21,43.23Z"/><path class="cls-16" d="M545.94,134.83c-.97,13.5-17.37,20.79-37.38,24.62h-.02c-25.68,4.94-57.27,4.2-69.79,3.64-.07-.56-.16-1.12-.25-1.68-1.16-7.16-3.56-14-7.59-20.24-.33-.52-.67-1.03-1.02-1.53,5.42-1.78,19.45-6.24,35.97-10.44,35.2-8.92,81.68-16.6,80.08,5.63Z"/><path class="cls-16" d="M544.38,222.57c-7.78,14.15-31.81,11.08-55.82,3.49-.01,0-.02-.01-.02-.01-22.57-7.16-45.12-18.32-54.12-22.98,.11-.34,.21-.68,.31-1.03,.2-.7,.4-1.4,.59-2.11,1.06-3.89,1.95-7.82,2.63-11.76,.54-3.16,.94-6.32,1.17-9.46,15.98,1.91,68.6,9.07,93.53,22.68,10.7,5.85,16.3,12.87,11.73,21.18Z"/><path class="cls-16" d="M561.69,184.62c-3.17,10.43-14.43,15.25-29.04,16.77-32.46,3.39-81.42-9.49-94.7-13.22,.54-3.16,.94-6.32,1.17-9.46,.4-5.29,.32-10.53-.37-15.62-.07-.56-.16-1.12-.25-1.68,11.51-1.02,42.13-3.35,70.04-1.96h.02c30.88,1.56,58.45,7.67,53.13,25.17Z"/><path class="cls-16" d="M525.32,272.05c-5.68,5.67-14.04,6.13-23.57,3.43-27.74-7.85-65.49-42.41-76.63-53.04,.25-.34,.49-.69,.73-1.05,3.61-5.27,6.47-11.35,8.57-18.32,.11-.34,.21-.68,.31-1.03,.2-.7,.4-1.4,.59-2.11,8.32,3.52,31.84,13.8,53.22,26.12,0,0,.01,.01,.02,.01,26.31,15.17,49.36,33.42,36.76,45.99Z"/><path class="cls-16" d="M460.89,341.51c-18.49,5.82-36.79-22.48-49.64-49.6,0-.01-.01-.01-.01-.01-10.84-22.85-17.83-44.86-17.83-44.86l7.34-5.35c.13-.06,.27-.12,.4-.18,3.39-1.51,6.55-3.22,9.48-5.17h.01c.84-.55,1.64-1.12,2.44-1.72,3.8,4.55,17.84,21.6,30.91,40.84,18.87,27.78,35.72,60.12,16.9,66.05Z"/><path class="cls-16" d="M506.55,301.84c-14.68,11.85-40.99-6.46-62.56-26.38-19.28-17.81-34.77-36.9-34.77-36.9l1.41-2.22h.01c.84-.55,1.64-1.12,2.44-1.72,4.64-3.41,8.65-7.46,12.04-12.18,.25-.34,.49-.69,.73-1.05,13.64,7.6,56.83,32.57,75.9,54.09,9.18,10.36,12.78,19.92,4.8,26.36Z"/><path class="cls-16" d="M397.73,359.56c-6.83-1.01-11.75-5.91-15.23-13.15-12.76-26.47-6.4-84.3-4.62-98.24,.38-.06,.76-.12,1.14-.19,8.05-1.4,15.3-3.47,21.73-6.29,.13-.06,.27-.12,.4-.18,.91,3.56,6.49,26,10.09,50.39,0,0,.01,0,.01,.01,4.94,33.45,6.17,70.56-13.52,67.65Z"/><path class="cls-16" d="M382.5,346.41c-2.74,15.12-8.49,24.92-19.32,22.24-7.5-1.85-12.29-8.08-15.18-16.81-9.7-29.35,2.18-86.98,5.47-101.65h.01c.75,.02,1.5,.02,2.25,0,3.5-.1,6.89-.29,10.17-.56h.01c4.17-.34,8.15-.83,11.97-1.46,.38-.06,.76-.12,1.14-.19,1.99,13.69,9.12,67.32,3.48,98.43Z"/><path class="cls-16" d="M352.25,250.14c-2.68,9.68-15.64,54.85-31.62,83.63-10.18,18.32-21.57,29.99-32.32,21.64-15.16-11.78-4.11-41.45,10.38-67.73,11.71-21.26,25.68-40.29,29.84-45.82,1.19,.78,2.4,1.51,3.63,2.18,6.04,3.35,12.46,5.47,18.97,6.02,.37,.04,.75,.06,1.12,.08Z"/><path class="cls-16" d="M375.01,251.41s-8.84,74.94-27.01,100.43c-5.26,7.37-11.29,10.61-18.11,6.73-7.62-4.34-9.99-13.51-9.26-24.8,1.88-29,24.2-72.07,30.5-83.71,.37,.04,.75,.06,1.12,.08,.4,.03,.81,.04,1.22,.05h.01c.75,.02,1.5,.02,2.25,0,3.5-.1,6.89-.29,10.17-.56h.01l9.1,1.78Z"/><path class="cls-16" d="M332.16,244.04c-3.58,5.23-17.48,25.16-33.47,43.64-20.59,23.78-44.65,45.16-54.72,29.76-11.96-18.31,18.79-48.33,43.59-68.32,0-.01,.02-.01,.03-.02,12.49-10.07,23.48-17.59,26.71-19.76,.4,.46,.79,.9,1.2,1.34h0c3.95,4.36,8.34,8.14,13.02,11.18,1.19,.78,2.4,1.51,3.63,2.18Z"/><path class="cls-16" d="M297.32,166.63c-1.82,7.68-2.09,15.47-1.08,23.07-19.75-1.74-120.11-12.05-105.67-40.16,8.39-16.34,38.86-10.59,65.97-1.43,17.33,5.86,33.28,13.12,41.19,16.9-.15,.54-.28,1.08-.41,1.62Z"/><path class="cls-16" d="M307.55,144.54c-.28,.38-.55,.76-.81,1.15-4.31,6.19-7.25,12.7-9.01,19.32-.15,.54-.28,1.08-.41,1.62-7.29-2.96-23.77-9.86-40.78-18.52-30-15.25-61.7-35.99-47.87-50.28,10.02-10.35,29.09-3.76,48.07,7.6,0,0,.01,.01,.02,.01,21.4,12.8,42.69,31.65,50.79,39.1Z"/><path class="cls-16" d="M323.31,128.95c-.42,.3-.82,.6-1.21,.9-5.41,4.13-8.38,7.35-8.38,7.35-2.29,2.38-4.35,4.83-6.17,7.34-.28,.38-.55,.76-.81,1.15-8.45-5.97-31.47-22.68-49.98-40.25,0,0-.02-.01-.02-.01-19.7-18.71-34.28-38.38-20.72-47.09,21.37-13.74,58.14,30.31,76.72,55.55,.01,0,.02,.03,.03,.04,5.16,7.02,8.92,12.57,10.54,15.02Z"/><path class="cls-16" d="M343.7,117.62c-.6,.23-1.2,.48-1.79,.73-7.62,3.19-13.91,7.14-18.6,10.6-.42,.3-.82,.6-1.21,.9-1.1-1.8-4.67-7.68-9.33-15.92-.01-.01-.02-.03-.03-.04-17.99-31.82-52.21-98.82-24.03-103.24,19.55-3.07,33.86,27.36,43.01,56.77,6.98,22.41,10.96,44.24,11.98,50.2Z"/><path class="cls-16" d="M315.68,230.98s-11.99,8.41-28.09,18.12c-.01,.01-.02,.01-.03,.02-30.96,18.68-77.03,42.12-81.86,19.58-4.22-19.65,28.78-35.57,57.69-45.59,18.24-6.31,34.85-10.27,39.46-11.33,.37,.81,.77,1.62,1.19,2.41,2.71,5.24,5.99,10.13,9.71,14.51,.18,.21,.37,.43,.55,.64,.4,.46,.79,.9,1.2,1.34h0s.17,.3,.17,.3Z"/><path class="cls-16" d="M304.04,214.19c-2.49,.65-19.75,5.12-40.65,8.92-37.45,6.82-86.57,11.53-83.32-11.59,4.67-33.13,96.63-24,116.19-21.68,1.01,7.63,3.3,15.06,6.59,21.94,.37,.81,.77,1.62,1.19,2.41Z"/><ellipse class="cls-7" cx="335.09" cy="196.39" rx="6.78" ry="3.54"/><ellipse class="cls-7" cx="416.24" cy="196.39" rx="6.78" ry="3.54"/><path class="cls-16" d="M365.66,112.47c-.72,.05-1.44,.12-2.15,.2-1.89,.21-3.73,.48-5.53,.82-5.13,.96-9.91,2.41-14.28,4.13-.6,.23-1.2,.48-1.79,.73-1.66-6.61-6.87-28.14-10.19-50.93-4.79-32.85-5.68-68.34,13.6-65.55,13.57,1.96,19.65,19.24,21.99,39.81h0c3.08,27.08-.32,59.83-1.65,70.79Z"/><path class="cls-14" d="M367.31,41.68l.78-4.86s8.69,19.17,0,75.5l-2.43,.15s8.02-26.53,1.65-70.79Z"/><path class="cls-14" d="M341.91,118.35l-1.73,.75s-6.46-15.39-10.21-57.13l2.23,8.64s5.82,33.52,9.71,47.74Z"/><path class="cls-14" d="M440.45,49.08s-7.86,30.55-28.51,74.42c-1.44-.85-2.38-1.37-2.38-1.37,0,0,8.9-11.35,28.18-69.57l2.71-3.48Z"/><path class="cls-14" d="M405.73,21.24l1.24-2.82s-6.05,62.4-16.26,96.44l-3-.82s8.21-21.66,18.03-92.8Z"/><path class="cls-14" d="M312.74,113.89l-2.05-2.77s2.74,7.57,10.57,19.49l1.55-1.29s-5.14-5.51-10.07-15.43Z"/><path class="cls-14" d="M256.76,105.44l-3.07-2.96s23.38,12.92,54.17,41.45l-1.11,1.76s-29.2-26.14-49.98-40.25Z"/><path class="cls-14" d="M256.54,148.11l-5.11-1.67s6.06,5.74,45.6,21.47l.29-1.28s-26.81-11.04-40.78-18.52Z"/><path class="cls-14" d="M278.24,188.11s13.9,1.19,18,1.59l.16,1.17s-11.73-.26-21.82-3.03l3.66,.26Z"/><path class="cls-14" d="M262.69,223.24s22-3.25,41.35-9.05l.73,1.36s-17.63,7.77-46.7,9.46l4.62-1.77Z"/><path class="cls-14" d="M315.51,230.69s-15.15,7.58-27.95,18.43l-5.48,3.26s10.89-9.96,31.93-23.37c1.76,1.99,1.5,1.68,1.5,1.68Z"/><path class="cls-14" d="M298.69,287.68s29.95-36.08,33.47-43.64l2.43,1.27s-24.08,32.43-38.18,46.59l2.28-4.22Z"/><path class="cls-14" d="M352.25,250.14s-26.88,47.13-31.62,83.63c-1.61,2.86-2.04,3.55-2.04,3.55,0,0,4.96-41.09,31.93-87.31l1.73,.14Z"/><path class="cls-14" d="M348,351.84s24.49-40.61,24.66-102.91c1.28-.17,.98-.13,.98-.13,0,0,1.76,55.45-25.29,104.22-.33-.94-.35-1.18-.35-1.18Z"/><path class="cls-14" d="M382.5,346.41s-12.59-34.25-12.15-58.77l-.61,3.47s-1.12,14.3,12.45,56.94l.31-1.64Z"/><path class="cls-14" d="M401.15,241.51s5.39,20.79,10.09,50.39l.7,1.45s-2.72-23.34-9.87-52.26l-.92,.42Z"/><path class="cls-14" d="M443.99,275.46s-25.18-24.33-33.36-39.12l-.95,.65s8.24,14.33,37.91,43.87l-3.6-5.4Z"/><path class="cls-14" d="M425.85,221.39s55.59,30.02,75.9,54.09c1.89,.5-13.9-20.23-75.04-55.38l-.86,1.29Z"/><path class="cls-14" d="M488.56,226.06s-27.52-10.72-53.24-26.13l-.4,1.44s23.92,14.47,57.19,26.77l-3.55-2.08Z"/><path class="cls-14" d="M439.12,178.71s63.16,5.35,93.53,22.68l2.36-.28s-31.55-17.22-95.78-24.12l-.11,1.72Z"/><path class="cls-14" d="M440.75,107.74s-7.89,12.58-20.87,21.24c1.21,1.02,.73,.59,.73,.59,0,0,14.93-11.47,23.15-23.83l-3.01,2Z"/><path class="cls-14" d="M470.59,127.24s-23.8,6.14-38.36,16.09c.46,.81,.45,.79,.45,.79,0,0,18.95-11.25,33.18-14.93l4.73-1.96Z"/><path class="cls-14" d="M438.75,163.09s20.48,1.29,69.79-3.64l2.81,.16s-20.03,4.26-72.38,5.29l-.22-1.81Z"/></g><g><path class="cls-8" d="M146.28,592.09c-7.06,26.91-3.85,79.89-2.09,101.87,.49,6.19,.87,9.93,.87,9.93h-11.01s-1.72-69.97,4.4-95.41c6.12-25.44,9.29-78.77,9.29-78.77l4.19-2.27,1.69-.92s1.71,31.07-7.34,65.57Z"/><path class="cls-5" d="M146.28,592.09c-7.06,26.91-3.85,79.89-2.09,101.87l-2.63,1.49s-5.19-74.45,2.23-99.32c9.62-37.44,8.85-60.76,8.14-68.69l1.69-.92s1.71,31.07-7.34,65.57Z"/><path class="cls-8" d="M136.67,637.78s-1.49-.61-3.79-1.82c-8.66-4.54-28.84-17.52-24.19-38.18,.88-3.9,2.09-6.01,3.52-6.78,8.2-4.41,23.52,34.82,23.52,34.82l.94,11.96Z"/><path class="cls-1" d="M162,638.27c.32-.33,.63-.66,.93-.98-.3,.35-.61,.68-.93,.98Z"/><g><path class="cls-8" d="M166.62,550.95c-6.47,5.12-14.6,6.6-14.6,6.6l.33-7.45s8.15-12.53,14.56-18.06c4.07-3.51,7.43-4.19,7.56,2.96,.13,7.41-3.48,12.51-7.84,15.95Z"/><path class="cls-5" d="M166.62,550.95c4.54-5.6,8.37-13.01,6.43-19.74-.86-2.96-6.14,.83-6.14,.83h0c4.07-3.51,7.43-4.2,7.56,2.96,.13,7.41-3.48,12.51-7.84,15.95Z"/></g><g><path class="cls-11" d="M192.5,457.13c-4.61,15.99-17.27,22.45-37.85,23.07-7.37,.22-14.7-3.91-20.11-10.3-9.7-11.44-13.27-30.08-.01-43.84,0,0,8.22-8.93,21.21-11.36,5.21-.97,11.18-.9,17.7,1.21,22.76,7.38,23.68,25.22,19.07,41.21Z"/><path class="cls-4" d="M134.54,469.9c-9.7-11.44-13.27-30.08-.01-43.84,0,0,8.22-8.93,21.21-11.36-13.7,5.96-34.73,21.06-21.19,55.2Z"/></g><g><path class="cls-12" d="M169.97,414.97h0c-.26-.06-.53-.11-.79-.17-3.45-.69-6.72-.83-9.77-.58-.34,.02-.69,.06-1.03,.1-.08-4.86-.16-20.73,1.82-34.01h0c1.83-12.2,5.4-22.22,12.33-19.53,3.61,1.4,5.42,5,6.08,9.74,1.97,14.17-6.46,38.51-8.63,44.46Z"/><path class="cls-12" d="M195.38,411.95h0c-5.07,5.16-9.35,8.94-10.32,9.79-.02,.02-.05,.05-.07,.06-1.37-1.06-2.89-2.06-4.61-2.97h0c-1.06-.57-2.18-1.11-3.39-1.6l-1.64-.98s8.9-17.83,18.61-30.73c7.32-9.72,15.1-16.65,19.88-11.06,7.3,8.53-7.44,26.28-18.44,37.5Z"/><path class="cls-12" d="M193.94,385.51c-4.18,15.91-13.48,33.33-13.48,33.33h-.09s0-.02,0-.02c-1.06-.57-2.18-1.1-3.39-1.6-1.12-.46-2.3-.91-3.55-1.31-1.17-.38-2.32-.69-3.46-.95h0c-.26-.06-.53-.11-.79-.17,.77-7.1,3.66-30.59,9.43-44.29,3.16-7.52,7.2-12.09,12.22-9.4,6.44,3.45,5.97,13.58,3.12,24.4Z"/><path class="cls-12" d="M207.41,422.23c-7.24,2.92-14,4.95-16.74,5.73-.16-.25-.32-.49-.49-.73-1.32-1.88-2.95-3.64-4.96-5.24h0s-.16-.25-.16-.25l-1.08-1.65s4.83-3.73,11.41-8.14h0c13.07-8.78,33.03-20.24,35.61-10.43,2.18,8.32-11.36,15.79-23.58,20.71Z"/><path class="cls-12" d="M245.78,424.93c-.46,6.47-8.32,9.96-17.91,11.8h0c-12.3,2.37-27.44,2.01-33.44,1.74-.03-.27-.08-.54-.12-.8-.56-3.43-1.71-6.71-3.64-9.7-.16-.25-.32-.49-.49-.73,2.6-.85,9.32-2.99,17.23-5,16.86-4.27,39.13-7.95,38.37,2.7Z"/><path class="cls-12" d="M245.03,466.96c-3.73,6.78-15.24,5.31-26.74,1.67,0,0,0,0,0,0-10.81-3.43-21.62-8.78-25.93-11.01,.05-.16,.1-.33,.15-.49,.1-.34,.19-.67,.28-1.01,.51-1.86,.93-3.75,1.26-5.63,.26-1.51,.45-3.03,.56-4.53,7.66,.92,32.87,4.35,44.81,10.87,5.13,2.8,7.81,6.17,5.62,10.15Z"/><path class="cls-12" d="M253.32,448.78c-1.52,5-6.91,7.31-13.91,8.03-15.55,1.62-39.01-4.55-45.37-6.33,.26-1.51,.45-3.03,.56-4.53,.19-2.53,.15-5.04-.18-7.48-.03-.27-.08-.54-.12-.8,5.51-.49,20.18-1.6,33.56-.94h0c14.79,.75,28,3.67,25.45,12.06Z"/><path class="cls-12" d="M235.9,490.67c-2.72,2.72-6.73,2.94-11.29,1.64-13.29-3.76-31.38-20.32-36.71-25.41,.12-.16,.23-.33,.35-.5,1.73-2.52,3.1-5.44,4.11-8.78,.05-.16,.1-.33,.15-.49,.1-.34,.19-.67,.28-1.01,3.99,1.69,15.25,6.61,25.5,12.51,0,0,0,0,0,0,12.61,7.27,23.65,16.01,17.61,22.03Z"/><path class="cls-12" d="M205.03,523.95c-8.86,2.79-17.63-10.77-23.78-23.76,0,0,0,0,0,0-5.19-10.95-8.54-21.49-8.54-21.49l3.52-2.56c.06-.03,.13-.06,.19-.09,1.62-.72,3.14-1.54,4.54-2.48h0c.4-.26,.79-.54,1.17-.82,1.82,2.18,8.55,10.35,14.81,19.57,9.04,13.31,17.11,28.8,8.1,31.64Z"/><path class="cls-12" d="M226.91,504.94c-7.03,5.68-19.64-3.09-29.97-12.64-9.24-8.53-16.66-17.68-16.66-17.68l.68-1.06h0c.4-.26,.79-.54,1.17-.82,2.22-1.63,4.14-3.57,5.77-5.84,.12-.16,.23-.33,.35-.5,6.54,3.64,27.23,15.6,36.36,25.91,4.4,4.96,6.12,9.54,2.3,12.63Z"/><path class="cls-12" d="M174.77,532.6c-3.27-.48-5.63-2.83-7.3-6.3-6.11-12.68-3.07-40.39-2.21-47.07,.18-.03,.36-.06,.55-.09,3.86-.67,7.33-1.66,10.41-3.01,.06-.03,.13-.06,.19-.09,.44,1.71,3.11,12.46,4.83,24.14,0,0,0,0,0,0,2.37,16.03,2.96,33.81-6.48,32.41Z"/><path class="cls-12" d="M167.47,526.3c-1.31,7.24-4.07,11.94-9.26,10.66-3.59-.89-5.89-3.87-7.27-8.05-4.65-14.06,1.04-41.67,2.62-48.7h0c.36,0,.72,0,1.08,0,1.68-.05,3.3-.14,4.87-.27h0c2-.16,3.9-.4,5.73-.7,.18-.03,.36-.06,.55-.09,.95,6.56,4.37,32.25,1.67,47.16Z"/><path class="cls-12" d="M152.98,480.17c-1.28,4.64-7.49,26.28-15.15,40.07-4.88,8.78-10.33,14.37-15.48,10.37-7.26-5.64-1.97-19.86,4.97-32.45,5.61-10.19,12.3-19.3,14.3-21.95,.57,.37,1.15,.72,1.74,1.04,2.89,1.61,5.97,2.62,9.09,2.88,.18,.02,.36,.03,.54,.04Z"/><path class="cls-12" d="M163.89,480.78s-4.24,35.9-12.94,48.12c-2.52,3.53-5.41,5.08-8.68,3.22-3.65-2.08-4.79-6.47-4.44-11.88,.9-13.89,11.59-34.53,14.61-40.11,.18,.02,.36,.03,.54,.04,.19,.01,.39,.02,.58,.02h0c.36,0,.72,0,1.08,0,1.68-.05,3.3-.14,4.87-.27h0l4.36,.85Z"/><path class="cls-12" d="M143.36,477.25c-1.72,2.51-8.37,12.05-16.04,20.91-9.86,11.39-21.39,21.64-26.22,14.26-5.73-8.77,9-23.16,20.88-32.73,0,0,0,0,.01,0,5.98-4.82,11.25-8.43,12.8-9.47,.19,.22,.38,.43,.57,.64h0c1.89,2.09,4,3.9,6.24,5.36,.57,.37,1.15,.72,1.74,1.04Z"/><path class="cls-12" d="M126.66,440.16c-.87,3.68-1,7.41-.52,11.05-9.46-.83-57.55-5.77-50.63-19.24,4.02-7.83,18.62-5.07,31.61-.69,8.3,2.81,15.94,6.29,19.73,8.1-.07,.26-.13,.52-.2,.78Z"/><path class="cls-12" d="M131.57,429.58c-.13,.18-.26,.36-.39,.55-2.06,2.97-3.47,6.08-4.32,9.26-.07,.26-.13,.52-.2,.78-3.49-1.42-11.39-4.72-19.54-8.87-14.37-7.31-29.56-17.24-22.93-24.09,4.8-4.96,13.94-1.8,23.03,3.64,0,0,0,0,0,0,10.25,6.13,20.45,15.16,24.33,18.73Z"/><path class="cls-12" d="M139.12,422.11c-.2,.14-.39,.29-.58,.43-2.59,1.98-4.01,3.52-4.01,3.52-1.1,1.14-2.08,2.31-2.96,3.52-.13,.18-.26,.36-.39,.55-4.05-2.86-15.08-10.87-23.95-19.28,0,0,0,0,0,0-9.44-8.96-16.42-18.39-9.93-22.56,10.24-6.58,27.86,14.52,36.76,26.61,0,0,0,.01,.01,.02,2.47,3.36,4.27,6.02,5.05,7.2Z"/><path class="cls-12" d="M148.89,416.68c-.29,.11-.57,.23-.86,.35-3.65,1.53-6.66,3.42-8.91,5.08-.2,.14-.39,.29-.58,.43-.53-.86-2.24-3.68-4.47-7.63,0,0,0-.01-.01-.02-4.19-7.4-10.2-18.77-13.74-28.76-3.75-10.59-4.72-19.62,2.23-20.71,6.36-1,11.56,5.4,15.61,14.02,1.92,4.08,3.58,8.65,4.99,13.18,3.34,10.74,5.25,21.2,5.74,24.05Z"/><path class="cls-12" d="M135.46,470.99s-5.74,4.03-13.46,8.68c0,0,0,0-.01,0-14.83,8.95-36.91,20.18-39.22,9.38-2.02-9.41,13.79-17.04,27.64-21.84,8.74-3.02,16.7-4.92,18.91-5.43,.18,.39,.37,.78,.57,1.15,1.3,2.51,2.87,4.85,4.65,6.95,.09,.1,.18,.21,.26,.31,.19,.22,.38,.43,.57,.64h0s.08,.14,.08,.14Z"/><path class="cls-12" d="M129.88,462.95c-1.19,.31-9.46,2.45-19.48,4.27-17.94,3.27-41.48,5.52-39.92-5.55,2.24-15.87,46.3-11.5,55.67-10.39,.48,3.66,1.58,7.22,3.16,10.51,.18,.39,.37,.78,.57,1.15Z"/><path class="cls-12" d="M159.41,414.21c-.34,.02-.69,.06-1.03,.1-.91,.1-1.79,.23-2.65,.39-2.46,.46-4.75,1.15-6.84,1.98-.29,.11-.57,.23-.86,.35-.8-3.17-3.29-13.48-4.88-24.4-2.29-15.74-2.72-32.74,6.52-31.41,6.5,.94,9.41,9.22,10.54,19.07h0c1.48,12.97-.15,28.66-.79,33.92Z"/></g><ellipse class="cls-7" cx="146.95" cy="453.92" rx="3.78" ry="1.97"/><ellipse class="cls-7" cx="186.4" cy="453.92" rx="3.78" ry="1.97"/><path class="cls-3" d="M160.2,380.3l.38-2.33s4.16,9.18,0,36.17l-1.17,.07s3.84-12.71,.79-33.92Z"/><path class="cls-3" d="M148.03,417.03l-.83,.36s-3.09-7.37-4.89-27.37l1.07,4.14s2.79,16.06,4.65,22.87Z"/><path class="cls-3" d="M195.24,383.85s-3.77,14.63-13.66,35.65c-.69-.41-1.14-.66-1.14-.66,0,0,4.26-5.44,13.5-33.33l1.3-1.67Z"/><path class="cls-3" d="M178.6,370.51l.59-1.35s-2.9,29.9-7.79,46.21l-1.44-.39s3.93-10.38,8.64-44.46Z"/><path class="cls-3" d="M134.05,414.9l-.98-1.33s1.31,3.63,5.06,9.34l.74-.62s-2.46-2.64-4.82-7.39Z"/><path class="cls-3" d="M107.23,410.85l-1.47-1.42s11.2,6.19,25.95,19.86l-.53,.84s-13.99-12.52-23.95-19.28Z"/><path class="cls-3" d="M107.13,431.29l-2.45-.8s2.9,2.75,21.85,10.29l.14-.61s-12.84-5.29-19.54-8.87Z"/><path class="cls-3" d="M117.52,450.45s6.66,.57,8.62,.76l.08,.56s-5.62-.12-10.46-1.45l1.75,.13Z"/><path class="cls-3" d="M110.07,467.28s10.54-1.56,19.81-4.33l.35,.65s-8.45,3.72-22.37,4.53l2.21-.85Z"/><path class="cls-3" d="M135.38,470.85s-7.26,3.63-13.39,8.83l-2.62,1.56s5.22-4.77,15.3-11.2c.84,.95,.72,.81,.72,.81Z"/><path class="cls-3" d="M127.32,498.16s14.35-17.29,16.04-20.91l1.16,.61s-11.54,15.54-18.29,22.32l1.09-2.02Z"/><path class="cls-3" d="M152.98,480.17s-12.88,22.58-15.15,40.07c-.77,1.37-.98,1.7-.98,1.7,0,0,2.38-19.69,15.3-41.83l.83,.07Z"/><path class="cls-3" d="M150.94,528.9s11.73-19.46,11.81-49.31c.62-.08,.47-.06,.47-.06,0,0,.84,26.56-12.12,49.93-.16-.45-.17-.57-.17-.57Z"/><path class="cls-3" d="M167.47,526.3s-6.03-16.41-5.82-28.16l-.29,1.66s-.54,6.85,5.96,27.28l.15-.79Z"/><path class="cls-3" d="M176.41,476.04s2.58,9.96,4.83,24.14l.33,.7s-1.3-11.18-4.73-25.04l-.44,.2Z"/><path class="cls-3" d="M196.93,492.3s-12.06-11.65-15.98-18.74l-.45,.31s3.95,6.87,18.16,21.02l-1.73-2.59Z"/><path class="cls-3" d="M188.24,466.4s26.63,14.38,36.36,25.91c.91,.24-6.66-9.69-35.95-26.53l-.41,.62Z"/><path class="cls-3" d="M218.29,468.64s-13.18-5.14-25.51-12.52l-.19,.69s11.46,6.93,27.4,12.83l-1.7-1Z"/><path class="cls-3" d="M194.6,445.95s30.26,2.56,44.81,10.87l1.13-.13s-15.11-8.25-45.89-11.55l-.05,.82Z"/><path class="cls-3" d="M195.38,411.95s-3.78,6.03-10,10.18c.58,.49,.35,.28,.35,.28,0,0,7.15-5.49,11.09-11.42l-1.44,.96Z"/><path class="cls-3" d="M209.68,421.29s-11.4,2.94-18.38,7.71c.22,.39,.21,.38,.21,.38,0,0,9.08-5.39,15.9-7.15l2.27-.94Z"/><path class="cls-3" d="M194.42,438.47s9.81,.62,33.44-1.74l1.34,.08s-9.59,2.04-34.68,2.53l-.1-.87Z"/><g><path class="cls-6" d="M157.52,446.49c-1.69-3.81-8.41-3.51-10.15,.11-.31,.62-1.26,.38-1.23-.31,.08-1.41,1.2-2.52,2.33-3.2,2.26-1.33,5.23-1.22,7.35,.27,1.02,.73,1.88,1.8,2.05,3.04,.03,.21-.28,.28-.35,.09h0Z"/><ellipse class="cls-6" cx="154.14" cy="446.38" rx="3.77" ry="2.33"/><circle class="cls-10" cx="151.42" cy="445.06" r="1.05"/><circle class="cls-10" cx="152.7" cy="446.77" r=".39"/></g><g><path class="cls-6" d="M172.93,446.4c.79-3.98,6.18-5.31,9.4-3.31,1.13,.68,2.25,1.79,2.33,3.2,.03,.7-.93,.93-1.23,.31-1.74-3.62-8.46-3.92-10.15-.11-.06,.2-.38,.12-.35-.09h0Z"/><ellipse class="cls-6" cx="176.65" cy="446.38" rx="3.77" ry="2.33"/><circle class="cls-10" cx="179.37" cy="445.06" r="1.05"/><circle class="cls-10" cx="178.1" cy="446.77" r=".39"/></g><path class="cls-6" d="M163.08,455.22c2.65,1.64,6.1,.86,7.68-1.87,.75-1.07,2.36,0,1.65,1.1-1.89,2.76-5.76,3.84-8.82,2.49-.56-.29-1.93-.65-1.44-1.55,.2-.31,.63-.39,.93-.17h0Z"/><path class="cls-12" d="M151.82,438.42c2.33,2.69,5.29,5.02,8.66,6.26,.65,.23,.35,1.21-.32,1.02-3.73-1.1-6.99-3.34-9.71-6.09-.85-.92,.57-2.16,1.37-1.19h0Z"/><path class="cls-12" d="M169.47,443.25c1.89-3.43,5.64-5.45,9.48-5.69,0,0,.89-.05,.89-.05,1,.07,2.79-.34,2.83,1.14,0,.69-.68,1.19-1.35,1.03-.73-.12-1.56-.27-2.31-.27-.23-.02-.55-.02-.78,0-3.08,.06-6.21,1.65-7.79,4.33-.32,.65-1.3,.18-.96-.48h0Z"/></g><g><path class="cls-8" d="M561.65,610.92c-7.06,26.91-3.85,79.89-2.09,101.87,.49,6.19,.87,9.93,.87,9.93h-11.01s-1.72-69.97,4.4-95.41c6.12-25.44,9.29-78.77,9.29-78.77l4.19-2.27,1.69-.92s1.71,31.07-7.34,65.57Z"/><path class="cls-5" d="M561.65,610.92c-7.06,26.91-3.85,79.89-2.09,101.87l-2.63,1.49s-5.19-74.45,2.23-99.32c9.62-37.44,8.85-60.76,8.14-68.69l1.69-.92s1.71,31.07-7.34,65.57Z"/><path class="cls-8" d="M552.04,656.61s-1.49-.61-3.79-1.82c-8.66-4.54-28.84-17.52-24.19-38.18,.88-3.9,2.09-6.01,3.52-6.78,8.2-4.41,23.52,34.82,23.52,34.82l.94,11.96Z"/><path class="cls-1" d="M577.37,657.1c.32-.33,.63-.66,.93-.98-.3,.35-.61,.68-.93,.98Z"/><g><path class="cls-8" d="M581.99,569.78c-6.47,5.12-14.6,6.6-14.6,6.6l.33-7.45s8.15-12.53,14.56-18.06c4.07-3.51,7.43-4.19,7.56,2.96,.13,7.41-3.48,12.51-7.84,15.95Z"/><path class="cls-5" d="M581.99,569.78c4.54-5.6,8.37-13.01,6.43-19.74-.86-2.96-6.14,.83-6.14,.83h0c4.07-3.51,7.43-4.2,7.56,2.96,.13,7.41-3.48,12.51-7.84,15.95Z"/></g><g><path class="cls-11" d="M607.87,475.96c-4.61,15.99-17.27,22.45-37.85,23.07-7.37,.22-14.7-3.91-20.11-10.3-9.7-11.44-13.27-30.08-.01-43.84,0,0,8.22-8.93,21.21-11.36,5.21-.97,11.18-.9,17.7,1.21,22.76,7.38,23.68,25.22,19.07,41.21Z"/><path class="cls-4" d="M549.9,488.73c-9.7-11.44-13.27-30.08-.01-43.84,0,0,8.22-8.93,21.21-11.36-13.7,5.96-34.73,21.06-21.19,55.2Z"/></g><g><path class="cls-12" d="M585.34,433.8h0c-.26-.06-.53-.11-.79-.17-3.45-.69-6.72-.83-9.77-.58-.34,.02-.69,.06-1.03,.1-.08-4.86-.16-20.73,1.82-34.01h0c1.83-12.2,5.4-22.22,12.33-19.53,3.61,1.4,5.42,5,6.08,9.74,1.97,14.17-6.46,38.51-8.63,44.46Z"/><path class="cls-12" d="M610.75,430.78h0c-5.07,5.16-9.35,8.94-10.32,9.79-.02,.02-.05,.05-.07,.06-1.37-1.06-2.89-2.06-4.61-2.97h0c-1.06-.57-2.18-1.11-3.39-1.6l-1.64-.98s8.9-17.83,18.61-30.73c7.32-9.72,15.1-16.65,19.88-11.06,7.3,8.53-7.44,26.28-18.44,37.5Z"/><path class="cls-12" d="M609.31,404.34c-4.18,15.91-13.48,33.33-13.48,33.33h-.09s0-.02,0-.02c-1.06-.57-2.18-1.1-3.39-1.6-1.12-.46-2.3-.91-3.55-1.31-1.17-.38-2.32-.69-3.46-.95h0c-.26-.06-.53-.11-.79-.17,.77-7.1,3.66-30.59,9.43-44.29,3.16-7.52,7.2-12.09,12.22-9.4,6.44,3.45,5.97,13.58,3.12,24.4Z"/><path class="cls-12" d="M622.78,441.06c-7.24,2.92-14,4.95-16.74,5.73-.16-.25-.32-.49-.49-.73-1.32-1.88-2.95-3.64-4.96-5.24h0s-.16-.25-.16-.25l-1.08-1.65s4.83-3.73,11.41-8.14h0c13.07-8.78,33.03-20.24,35.61-10.43,2.18,8.32-11.36,15.79-23.58,20.71Z"/><path class="cls-12" d="M661.15,443.76c-.46,6.47-8.32,9.96-17.91,11.8h0c-12.3,2.37-27.44,2.01-33.44,1.74-.03-.27-.08-.54-.12-.8-.56-3.43-1.71-6.71-3.64-9.7-.16-.25-.32-.49-.49-.73,2.6-.85,9.32-2.99,17.23-5,16.86-4.27,39.13-7.95,38.37,2.7Z"/><path class="cls-12" d="M660.4,485.8c-3.73,6.78-15.24,5.31-26.74,1.67,0,0,0,0,0,0-10.81-3.43-21.62-8.78-25.93-11.01,.05-.16,.1-.33,.15-.49,.1-.34,.19-.67,.28-1.01,.51-1.86,.93-3.75,1.26-5.63,.26-1.51,.45-3.03,.56-4.53,7.66,.92,32.87,4.35,44.81,10.87,5.13,2.8,7.81,6.17,5.62,10.15Z"/><path class="cls-12" d="M668.69,467.61c-1.52,5-6.91,7.31-13.91,8.03-15.55,1.62-39.01-4.55-45.37-6.33,.26-1.51,.45-3.03,.56-4.53,.19-2.53,.15-5.04-.18-7.48-.03-.27-.08-.54-.12-.8,5.51-.49,20.18-1.6,33.56-.94h0c14.79,.75,28,3.67,25.45,12.06Z"/><path class="cls-12" d="M651.27,509.5c-2.72,2.72-6.73,2.94-11.29,1.64-13.29-3.76-31.38-20.32-36.71-25.41,.12-.16,.23-.33,.35-.5,1.73-2.52,3.1-5.44,4.11-8.78,.05-.16,.1-.33,.15-.49,.1-.34,.19-.67,.28-1.01,3.99,1.69,15.25,6.61,25.5,12.51,0,0,0,0,0,0,12.61,7.27,23.65,16.01,17.61,22.03Z"/><path class="cls-12" d="M620.4,542.78c-8.86,2.79-17.63-10.77-23.78-23.76,0,0,0,0,0,0-5.19-10.95-8.54-21.49-8.54-21.49l3.52-2.56c.06-.03,.13-.06,.19-.09,1.62-.72,3.14-1.54,4.54-2.48h0c.4-.26,.79-.54,1.17-.82,1.82,2.18,8.55,10.35,14.81,19.57,9.04,13.31,17.11,28.8,8.1,31.64Z"/><path class="cls-12" d="M642.27,523.78c-7.03,5.68-19.64-3.09-29.97-12.64-9.24-8.53-16.66-17.68-16.66-17.68l.68-1.06h0c.4-.26,.79-.54,1.17-.82,2.22-1.63,4.14-3.57,5.77-5.84,.12-.16,.23-.33,.35-.5,6.54,3.64,27.23,15.6,36.36,25.91,4.4,4.96,6.12,9.54,2.3,12.63Z"/><path class="cls-12" d="M590.14,551.43c-3.27-.48-5.63-2.83-7.3-6.3-6.11-12.68-3.07-40.39-2.21-47.07,.18-.03,.36-.06,.55-.09,3.86-.67,7.33-1.66,10.41-3.01,.06-.03,.13-.06,.19-.09,.44,1.71,3.11,12.46,4.83,24.14,0,0,0,0,0,0,2.37,16.03,2.96,33.81-6.48,32.41Z"/><path class="cls-12" d="M582.84,545.13c-1.31,7.24-4.07,11.94-9.26,10.66-3.59-.89-5.89-3.87-7.27-8.05-4.65-14.06,1.04-41.67,2.62-48.7h0c.36,0,.72,0,1.08,0,1.68-.05,3.3-.14,4.87-.27h0c2-.16,3.9-.4,5.73-.7,.18-.03,.36-.06,.55-.09,.95,6.56,4.37,32.25,1.67,47.16Z"/><path class="cls-12" d="M568.35,499.01c-1.28,4.64-7.49,26.28-15.15,40.07-4.88,8.78-10.33,14.37-15.48,10.37-7.26-5.64-1.97-19.86,4.97-32.45,5.61-10.19,12.3-19.3,14.3-21.95,.57,.37,1.15,.72,1.74,1.04,2.89,1.61,5.97,2.62,9.09,2.88,.18,.02,.36,.03,.54,.04Z"/><path class="cls-12" d="M579.25,499.61s-4.24,35.9-12.94,48.12c-2.52,3.53-5.41,5.08-8.68,3.22-3.65-2.08-4.79-6.47-4.44-11.88,.9-13.89,11.59-34.53,14.61-40.11,.18,.02,.36,.03,.54,.04,.19,.01,.39,.02,.58,.02h0c.36,0,.72,0,1.08,0,1.68-.05,3.3-.14,4.87-.27h0l4.36,.85Z"/><path class="cls-12" d="M558.72,496.08c-1.72,2.51-8.37,12.05-16.04,20.91-9.86,11.39-21.39,21.64-26.22,14.26-5.73-8.77,9-23.16,20.88-32.73,0,0,0,0,.01,0,5.98-4.82,11.25-8.43,12.8-9.47,.19,.22,.38,.43,.57,.64h0c1.89,2.09,4,3.9,6.24,5.36,.57,.37,1.15,.72,1.74,1.04Z"/><path class="cls-12" d="M542.03,459c-.87,3.68-1,7.41-.52,11.05-9.46-.83-57.55-5.77-50.63-19.24,4.02-7.83,18.62-5.07,31.61-.69,8.3,2.81,15.94,6.29,19.73,8.1-.07,.26-.13,.52-.2,.78Z"/><path class="cls-12" d="M546.93,448.41c-.13,.18-.26,.36-.39,.55-2.06,2.97-3.47,6.08-4.32,9.26-.07,.26-.13,.52-.2,.78-3.49-1.42-11.39-4.72-19.54-8.87-14.37-7.31-29.56-17.24-22.93-24.09,4.8-4.96,13.94-1.8,23.03,3.64,0,0,0,0,0,0,10.25,6.13,20.45,15.16,24.33,18.73Z"/><path class="cls-12" d="M554.48,440.94c-.2,.14-.39,.29-.58,.43-2.59,1.98-4.01,3.52-4.01,3.52-1.1,1.14-2.08,2.31-2.96,3.52-.13,.18-.26,.36-.39,.55-4.05-2.86-15.08-10.87-23.95-19.28,0,0,0,0,0,0-9.44-8.96-16.42-18.39-9.93-22.56,10.24-6.58,27.86,14.52,36.76,26.61,0,0,0,.01,.01,.02,2.47,3.36,4.27,6.02,5.05,7.2Z"/><path class="cls-12" d="M564.25,435.51c-.29,.11-.57,.23-.86,.35-3.65,1.53-6.66,3.42-8.91,5.08-.2,.14-.39,.29-.58,.43-.53-.86-2.24-3.68-4.47-7.63,0,0,0-.01-.01-.02-4.19-7.4-10.2-18.77-13.74-28.76-3.75-10.59-4.72-19.62,2.23-20.71,6.36-1,11.56,5.4,15.61,14.02,1.92,4.08,3.58,8.65,4.99,13.18,3.34,10.74,5.25,21.2,5.74,24.05Z"/><path class="cls-12" d="M550.83,489.83s-5.74,4.03-13.46,8.68c0,0,0,0-.01,0-14.83,8.95-36.91,20.18-39.22,9.38-2.02-9.41,13.79-17.04,27.64-21.84,8.74-3.02,16.7-4.92,18.91-5.43,.18,.39,.37,.78,.57,1.15,1.3,2.51,2.87,4.85,4.65,6.95,.09,.1,.18,.21,.26,.31,.19,.22,.38,.43,.57,.64h0s.08,.14,.08,.14Z"/><path class="cls-12" d="M545.25,481.78c-1.19,.31-9.46,2.45-19.48,4.27-17.94,3.27-41.48,5.52-39.92-5.55,2.24-15.87,46.3-11.5,55.67-10.39,.48,3.66,1.58,7.22,3.16,10.51,.18,.39,.37,.78,.57,1.15Z"/><path class="cls-12" d="M574.77,433.05c-.34,.02-.69,.06-1.03,.1-.91,.1-1.79,.23-2.65,.39-2.46,.46-4.75,1.15-6.84,1.98-.29,.11-.57,.23-.86,.35-.8-3.17-3.29-13.48-4.88-24.4-2.29-15.74-2.72-32.74,6.52-31.41,6.5,.94,9.41,9.22,10.54,19.07h0c1.48,12.97-.15,28.66-.79,33.92Z"/></g><ellipse class="cls-7" cx="562.32" cy="472.76" rx="3.78" ry="1.97"/><ellipse class="cls-7" cx="601.77" cy="472.76" rx="3.78" ry="1.97"/><path class="cls-3" d="M575.56,399.13l.38-2.33s4.16,9.18,0,36.17l-1.17,.07s3.84-12.71,.79-33.92Z"/><path class="cls-3" d="M563.4,435.86l-.83,.36s-3.09-7.37-4.89-27.37l1.07,4.14s2.79,16.06,4.65,22.87Z"/><path class="cls-3" d="M610.61,402.68s-3.77,14.63-13.66,35.65c-.69-.41-1.14-.66-1.14-.66,0,0,4.26-5.44,13.5-33.33l1.3-1.67Z"/><path class="cls-3" d="M593.97,389.34l.59-1.35s-2.9,29.9-7.79,46.21l-1.44-.39s3.93-10.38,8.64-44.46Z"/><path class="cls-3" d="M549.42,433.73l-.98-1.33s1.31,3.63,5.06,9.34l.74-.62s-2.46-2.64-4.82-7.39Z"/><path class="cls-3" d="M522.6,429.68l-1.47-1.42s11.2,6.19,25.95,19.86l-.53,.84s-13.99-12.52-23.95-19.28Z"/><path class="cls-3" d="M522.49,450.12l-2.45-.8s2.9,2.75,21.85,10.29l.14-.61s-12.84-5.29-19.54-8.87Z"/><path class="cls-3" d="M532.89,469.29s6.66,.57,8.62,.76l.08,.56s-5.62-.12-10.46-1.45l1.75,.13Z"/><path class="cls-3" d="M525.44,486.12s10.54-1.56,19.81-4.33l.35,.65s-8.45,3.72-22.37,4.53l2.21-.85Z"/><path class="cls-3" d="M550.75,489.69s-7.26,3.63-13.39,8.83l-2.62,1.56s5.22-4.77,15.3-11.2c.84,.95,.72,.81,.72,.81Z"/><path class="cls-3" d="M542.69,516.99s14.35-17.29,16.04-20.91l1.16,.61s-11.54,15.54-18.29,22.32l1.09-2.02Z"/><path class="cls-3" d="M568.35,499.01s-12.88,22.58-15.15,40.07c-.77,1.37-.98,1.7-.98,1.7,0,0,2.38-19.69,15.3-41.83l.83,.07Z"/><path class="cls-3" d="M566.31,547.73s11.73-19.46,11.81-49.31c.62-.08,.47-.06,.47-.06,0,0,.84,26.56-12.12,49.93-.16-.45-.17-.57-.17-.57Z"/><path class="cls-3" d="M582.84,545.13s-6.03-16.41-5.82-28.16l-.29,1.66s-.54,6.85,5.96,27.28l.15-.79Z"/><path class="cls-3" d="M591.78,494.87s2.58,9.96,4.83,24.14l.33,.7s-1.3-11.18-4.73-25.04l-.44,.2Z"/><path class="cls-3" d="M612.3,511.14s-12.06-11.65-15.98-18.74l-.45,.31s3.95,6.87,18.16,21.02l-1.73-2.59Z"/><path class="cls-3" d="M603.61,485.23s26.63,14.38,36.36,25.91c.91,.24-6.66-9.69-35.95-26.53l-.41,.62Z"/><path class="cls-3" d="M633.66,487.47s-13.18-5.14-25.51-12.52l-.19,.69s11.46,6.93,27.4,12.83l-1.7-1Z"/><path class="cls-3" d="M609.97,464.78s30.26,2.56,44.81,10.87l1.13-.13s-15.11-8.25-45.89-11.55l-.05,.82Z"/><path class="cls-3" d="M610.75,430.78s-3.78,6.03-10,10.18c.58,.49,.35,.28,.35,.28,0,0,7.15-5.49,11.09-11.42l-1.44,.96Z"/><path class="cls-3" d="M625.05,440.13s-11.4,2.94-18.38,7.71c.22,.39,.21,.38,.21,.38,0,0,9.08-5.39,15.9-7.15l2.27-.94Z"/><path class="cls-3" d="M609.79,457.3s9.81,.62,33.44-1.74l1.34,.08s-9.59,2.04-34.68,2.53l-.1-.87Z"/><g><path class="cls-6" d="M572.88,465.32c-1.69-3.81-8.41-3.51-10.15,.11-.31,.62-1.26,.38-1.23-.31,.08-1.41,1.2-2.52,2.33-3.2,2.26-1.33,5.23-1.22,7.35,.27,1.02,.73,1.88,1.8,2.05,3.04,.03,.21-.28,.28-.35,.09h0Z"/><ellipse class="cls-6" cx="569.51" cy="465.21" rx="3.77" ry="2.33"/><circle class="cls-10" cx="566.79" cy="463.89" r="1.05"/><circle class="cls-10" cx="568.06" cy="465.6" r=".39"/></g><g><path class="cls-6" d="M588.3,465.24c.79-3.98,6.18-5.31,9.4-3.31,1.13,.68,2.25,1.79,2.33,3.2,.03,.7-.93,.93-1.23,.31-1.74-3.62-8.46-3.92-10.15-.11-.06,.2-.38,.12-.35-.09h0Z"/><ellipse class="cls-6" cx="592.02" cy="465.21" rx="3.77" ry="2.33"/><circle class="cls-10" cx="594.74" cy="463.89" r="1.05"/><circle class="cls-10" cx="593.46" cy="465.6" r=".39"/></g><path class="cls-6" d="M578.45,474.05c2.65,1.64,6.1,.86,7.68-1.87,.75-1.07,2.36,0,1.65,1.1-1.89,2.76-5.76,3.84-8.82,2.49-.56-.29-1.93-.65-1.44-1.55,.2-.31,.63-.39,.93-.17h0Z"/><path class="cls-12" d="M567.19,457.25c2.33,2.69,5.29,5.02,8.66,6.26,.65,.23,.35,1.21-.32,1.02-3.73-1.1-6.99-3.34-9.71-6.09-.85-.92,.57-2.16,1.37-1.19h0Z"/><path class="cls-12" d="M584.84,462.08c1.89-3.43,5.64-5.45,9.48-5.69,0,0,.89-.05,.89-.05,1,.07,2.79-.34,2.83,1.14,0,.69-.68,1.19-1.35,1.03-.73-.12-1.56-.27-2.31-.27-.23-.02-.55-.02-.78,0-3.08,.06-6.21,1.65-7.79,4.33-.32,.65-1.3,.18-.96-.48h0Z"/></g><g><path class="cls-13" d="M544.06,755.3h-.03c-190.19,.86-544.03-3.82-544.03-3.82l25.06-8.18s71.18-43.56,101.25-41.51c30.1,2.04,36.11-12.94,49.12-8.18,13.05,4.76,55.16-2.56,63.17-.94,4.59,.92,22.38-2.58,40.99-3.84,13.9-.98,28.27-.7,37.84,3.6,22.41,10.04,45.71-9.32,62.14-4.06,16.43,5.24,112.67,1.16,114.68,9.32,2,8.18,89.23,28.59,103.25,38.13,14.05,9.52,56.16,6.8,64.17,15.65,2.18,2.42-46.15,3.5-117.62,3.82Z"/><path class="cls-2" d="M544.06,755.3h-.03s-27.83-16.07-31.6-17.09c-3.77-1.02-48.5-34.71-56.01-28.59-7.51,6.12-77.07-10.98-82.34-15.87-5.27-4.9-36.08,14.34-48.5,4.9-12.4-9.44-45.97-9.8-45.97-9.8,13.9-.98,28.27-.7,37.84,3.6,22.41,10.04,45.71-9.32,62.14-4.06,16.43,5.24,112.67,1.16,114.68,9.32,2,8.18,89.23,28.59,103.25,38.13,14.05,9.52,56.16,6.8,64.17,15.65,2.18,2.42-46.15,3.5-117.62,3.82Z"/></g></g></g></svg>