<svg xmlns="http://www.w3.org/2000/svg" xmlns:xlink="http://www.w3.org/1999/xlink" viewBox="0 0 679.21 755.41"><defs><style>.cls-1{fill:#5aba97;}.cls-2{fill:#63c6a0;}.cls-3{fill:#82d16f;}.cls-4{fill:#ffcd50;}.cls-5{fill:#ffc033;}.cls-6{fill:#302826;}.cls-7{fill:#f5ffff;}.cls-8{fill:#ff6e79;opacity:0.35;}.cls-9{fill:#e9f4f4;}.cls-10{fill:url(#Dégradé_sans_nom_19);}.cls-11{fill:url(#Dégradé_sans_nom_19-2);}.cls-12{fill:url(#Dégradé_sans_nom_19-3);}.cls-13{fill:url(#Dégradé_sans_nom_19-4);}.cls-14{fill:url(#Dégradé_sans_nom_19-5);}.cls-15{fill:url(#Dégradé_sans_nom_19-6);}.cls-16{fill:url(#Dégradé_sans_nom_19-7);}.cls-17{fill:url(#Dégradé_sans_nom_19-8);}.cls-18{fill:url(#Dégradé_sans_nom_19-9);}.cls-19{fill:url(#Dégradé_sans_nom_19-10);}.cls-20{fill:url(#Dégradé_sans_nom_19-11);}.cls-21{fill:url(#Dégradé_sans_nom_19-12);}.cls-22{fill:url(#Dégradé_sans_nom_19-13);}.cls-23{fill:url(#Dégradé_sans_nom_19-14);}.cls-24{fill:url(#Dégradé_sans_nom_19-15);}.cls-25{fill:url(#Dégradé_sans_nom_19-16);}.cls-26{fill:url(#Dégradé_sans_nom_19-17);}.cls-27{fill:url(#Dégradé_sans_nom_19-18);}.cls-28{fill:url(#Dégradé_sans_nom_19-19);}.cls-29{fill:url(#Dégradé_sans_nom_19-20);}.cls-30{fill:url(#Dégradé_sans_nom_19-21);}.cls-31{fill:url(#Dégradé_sans_nom_19-22);}.cls-32{opacity:0.03;}.cls-33{fill:#efefef;}.cls-34{fill:url(#Dégradé_sans_nom_19-23);}.cls-35{fill:url(#Dégradé_sans_nom_19-24);}.cls-36{fill:url(#Dégradé_sans_nom_19-25);}.cls-37{fill:url(#Dégradé_sans_nom_19-26);}.cls-38{fill:url(#Dégradé_sans_nom_19-27);}.cls-39{fill:url(#Dégradé_sans_nom_19-28);}.cls-40{fill:url(#Dégradé_sans_nom_19-29);}.cls-41{fill:url(#Dégradé_sans_nom_19-30);}.cls-42{fill:url(#Dégradé_sans_nom_19-31);}.cls-43{fill:url(#Dégradé_sans_nom_19-32);}.cls-44{fill:url(#Dégradé_sans_nom_19-33);}.cls-45{fill:url(#Dégradé_sans_nom_19-34);}.cls-46{fill:url(#Dégradé_sans_nom_19-35);}.cls-47{fill:url(#Dégradé_sans_nom_19-36);}.cls-48{fill:url(#Dégradé_sans_nom_19-37);}.cls-49{fill:url(#Dégradé_sans_nom_19-38);}.cls-50{fill:url(#Dégradé_sans_nom_19-39);}.cls-51{fill:url(#Dégradé_sans_nom_19-40);}.cls-52{fill:url(#Dégradé_sans_nom_19-41);}.cls-53{fill:url(#Dégradé_sans_nom_19-42);}.cls-54{fill:url(#Dégradé_sans_nom_19-43);}.cls-55{fill:url(#Dégradé_sans_nom_19-44);}.cls-56{fill:#4f2f2f;}.cls-57{fill:#593636;}</style><linearGradient id="Dégradé_sans_nom_19" x1="173.21" y1="346.09" x2="164.04" y2="409.73" gradientUnits="userSpaceOnUse"><stop offset="0" stop-color="#cc275a"/><stop offset="0.02" stop-color="#cf3968"/><stop offset="0.06" stop-color="#d76287"/><stop offset="0.11" stop-color="#de88a4"/><stop offset="0.17" stop-color="#e5a8bd"/><stop offset="0.23" stop-color="#eac4d2"/><stop offset="0.3" stop-color="#eedae2"/><stop offset="0.38" stop-color="#f1ebef"/><stop offset="0.48" stop-color="#f3f6f8"/><stop offset="0.61" stop-color="#f5fdfe"/><stop offset="1" stop-color="#f5ffff"/></linearGradient><linearGradient id="Dégradé_sans_nom_19-2" x1="223.38" y1="357.5" x2="178.34" y2="416.56" xlink:href="#Dégradé_sans_nom_19"/><linearGradient id="Dégradé_sans_nom_19-3" x1="196.03" y1="343.63" x2="172.57" y2="415.63" xlink:href="#Dégradé_sans_nom_19"/><linearGradient id="Dégradé_sans_nom_19-4" x1="239.8" y1="391.97" x2="193.41" y2="416.24" xlink:href="#Dégradé_sans_nom_19"/><linearGradient id="Dégradé_sans_nom_19-5" x1="263.19" y1="418.63" x2="182.28" y2="428.34" xlink:href="#Dégradé_sans_nom_19"/><linearGradient id="Dégradé_sans_nom_19-6" x1="258.23" y1="468.82" x2="191.35" y2="444.82" xlink:href="#Dégradé_sans_nom_19"/><linearGradient id="Dégradé_sans_nom_19-7" x1="276.03" y1="446.78" x2="184.34" y2="438.96" xlink:href="#Dégradé_sans_nom_19"/><linearGradient id="Dégradé_sans_nom_19-8" x1="249.68" y1="494.74" x2="191.16" y2="459.68" xlink:href="#Dégradé_sans_nom_19"/><linearGradient id="Dégradé_sans_nom_19-9" x1="211.42" y1="532.89" x2="177.98" y2="473.84" xlink:href="#Dégradé_sans_nom_19"/><linearGradient id="Dégradé_sans_nom_19-10" x1="238.55" y1="513.11" x2="187.04" y2="468.89" xlink:href="#Dégradé_sans_nom_19"/><linearGradient id="Dégradé_sans_nom_19-11" x1="176.66" y1="544" x2="170.73" y2="477.66" xlink:href="#Dégradé_sans_nom_19"/><linearGradient id="Dégradé_sans_nom_19-12" x1="156.71" y1="549.51" x2="159.68" y2="477.24" xlink:href="#Dégradé_sans_nom_19"/><linearGradient id="Dégradé_sans_nom_19-13" x1="113.58" y1="543.8" x2="147.29" y2="474.76" xlink:href="#Dégradé_sans_nom_19"/><linearGradient id="Dégradé_sans_nom_19-14" x1="138.24" y1="542.23" x2="157.66" y2="479.93" xlink:href="#Dégradé_sans_nom_19"/><linearGradient id="Dégradé_sans_nom_19-15" x1="89.17" y1="520.05" x2="139.06" y2="471.23" xlink:href="#Dégradé_sans_nom_19"/><linearGradient id="Dégradé_sans_nom_19-16" x1="61.73" y1="423.58" x2="126.46" y2="445.69" xlink:href="#Dégradé_sans_nom_19"/><linearGradient id="Dégradé_sans_nom_19-17" x1="73.26" y1="397.76" x2="125.04" y2="430.39" xlink:href="#Dégradé_sans_nom_19"/><linearGradient id="Dégradé_sans_nom_19-18" x1="87.89" y1="375.57" x2="133.73" y2="423.3" xlink:href="#Dégradé_sans_nom_19"/><linearGradient id="Dégradé_sans_nom_19-19" x1="116.73" y1="351.21" x2="141.72" y2="412.88" xlink:href="#Dégradé_sans_nom_19"/><linearGradient id="Dégradé_sans_nom_19-20" x1="68.92" y1="493.58" x2="129.87" y2="462.83" xlink:href="#Dégradé_sans_nom_19"/><linearGradient id="Dégradé_sans_nom_19-21" x1="56" y1="461.94" x2="123.69" y2="452.5" xlink:href="#Dégradé_sans_nom_19"/><linearGradient id="Dégradé_sans_nom_19-22" x1="146.85" y1="344.34" x2="153.5" y2="411.4" xlink:href="#Dégradé_sans_nom_19"/><linearGradient id="Dégradé_sans_nom_19-23" x1="589.86" y1="370.3" x2="580.69" y2="433.94" xlink:href="#Dégradé_sans_nom_19"/><linearGradient id="Dégradé_sans_nom_19-24" x1="640.02" y1="381.71" x2="594.99" y2="440.77" xlink:href="#Dégradé_sans_nom_19"/><linearGradient id="Dégradé_sans_nom_19-25" x1="612.68" y1="367.84" x2="589.22" y2="439.84" xlink:href="#Dégradé_sans_nom_19"/><linearGradient id="Dégradé_sans_nom_19-26" x1="656.45" y1="416.18" x2="610.06" y2="440.45" xlink:href="#Dégradé_sans_nom_19"/><linearGradient id="Dégradé_sans_nom_19-27" x1="679.83" y1="442.84" x2="598.93" y2="452.55" xlink:href="#Dégradé_sans_nom_19"/><linearGradient id="Dégradé_sans_nom_19-28" x1="674.87" y1="493.03" x2="608" y2="469.03" xlink:href="#Dégradé_sans_nom_19"/><linearGradient id="Dégradé_sans_nom_19-29" x1="692.68" y1="470.99" x2="600.99" y2="463.17" xlink:href="#Dégradé_sans_nom_19"/><linearGradient id="Dégradé_sans_nom_19-30" x1="666.33" y1="518.95" x2="607.81" y2="483.89" xlink:href="#Dégradé_sans_nom_19"/><linearGradient id="Dégradé_sans_nom_19-31" x1="628.06" y1="557.11" x2="594.62" y2="498.05" xlink:href="#Dégradé_sans_nom_19"/><linearGradient id="Dégradé_sans_nom_19-32" x1="655.2" y1="537.32" x2="603.69" y2="493.1" xlink:href="#Dégradé_sans_nom_19"/><linearGradient id="Dégradé_sans_nom_19-33" x1="593.31" y1="568.22" x2="587.38" y2="501.88" xlink:href="#Dégradé_sans_nom_19"/><linearGradient id="Dégradé_sans_nom_19-34" x1="573.36" y1="573.72" x2="576.33" y2="501.45" xlink:href="#Dégradé_sans_nom_19"/><linearGradient id="Dégradé_sans_nom_19-35" x1="530.23" y1="568.01" x2="563.93" y2="498.97" xlink:href="#Dégradé_sans_nom_19"/><linearGradient id="Dégradé_sans_nom_19-36" x1="554.89" y1="566.44" x2="574.31" y2="504.15" xlink:href="#Dégradé_sans_nom_19"/><linearGradient id="Dégradé_sans_nom_19-37" x1="505.82" y1="544.26" x2="555.71" y2="495.45" xlink:href="#Dégradé_sans_nom_19"/><linearGradient id="Dégradé_sans_nom_19-38" x1="478.38" y1="447.79" x2="543.1" y2="469.91" xlink:href="#Dégradé_sans_nom_19"/><linearGradient id="Dégradé_sans_nom_19-39" x1="489.91" y1="421.97" x2="541.69" y2="454.6" xlink:href="#Dégradé_sans_nom_19"/><linearGradient id="Dégradé_sans_nom_19-40" x1="504.53" y1="399.78" x2="550.38" y2="447.51" xlink:href="#Dégradé_sans_nom_19"/><linearGradient id="Dégradé_sans_nom_19-41" x1="533.37" y1="375.42" x2="558.36" y2="437.09" xlink:href="#Dégradé_sans_nom_19"/><linearGradient id="Dégradé_sans_nom_19-42" x1="485.57" y1="517.79" x2="546.52" y2="487.05" xlink:href="#Dégradé_sans_nom_19"/><linearGradient id="Dégradé_sans_nom_19-43" x1="472.65" y1="486.15" x2="540.34" y2="476.71" xlink:href="#Dégradé_sans_nom_19"/><linearGradient id="Dégradé_sans_nom_19-44" x1="563.5" y1="368.55" x2="570.15" y2="435.61" xlink:href="#Dégradé_sans_nom_19"/></defs><g id="Calque_2" data-name="Calque 2"><g id="Calque_1-2" data-name="Calque 1"><path class="cls-1" d="M338.26,483.74c-14.74,56.17-8,166.74-4.37,212.63,1,12.93,1.82,20.73,1.82,20.73h-23s-3.58-146,9.19-199.15,19.4-164.42,19.4-164.42l8.74-4.73,3.52-1.91S357.15,411.74,338.26,483.74Z"/><path class="cls-2" d="M338.26,483.74c-14.74,56.17-8,166.74-4.37,212.63l-5.48,3.11s-10.83-155.4,4.65-207.31c20.07-78.15,18.48-126.83,17-143.37l3.52-1.91S357.15,411.74,338.26,483.74Z"/><path class="cls-1" d="M377.85,571.07c-22.25,19.16-50.92,25.62-50.92,25.62l.06-26.54S354.1,524.39,376,503.79c13.95-13.08,25.8-16,27.3,9.41C404.89,539.52,392.83,558.17,377.85,571.07Z"/><path class="cls-1" d="M336.39,464.7s-2-.83-5.16-2.47c-11.78-6.17-39.21-23.82-32.89-51.92,1.19-5.3,2.84-8.17,4.79-9.22,11.15-6,32,47.35,32,47.35Z"/><path class="cls-3" d="M371.07,580.12l1.94-2A27.27,27.27,0,0,1,371.07,580.12Z"/><path class="cls-2" d="M377.85,571.07c15.3-20.56,27.81-47.5,19.9-71.12C394.27,489.56,376,503.8,376,503.8h0c13.95-13.08,25.8-16,27.3,9.41C404.89,539.52,392.83,558.17,377.85,571.07Z"/><path class="cls-4" d="M434.73,202c-9.62,33.38-36,46.86-79,48.15-15.39.46-30.68-8.17-42-21.49-20.25-23.87-27.7-62.79,0-91.5,0,0,17.16-18.63,44.26-23.71A74.18,74.18,0,0,1,394.93,116C442.44,131.43,444.36,168.66,434.73,202Z"/><path class="cls-5" d="M313.75,228.7c-20.25-23.87-27.7-62.79,0-91.5,0,0,17.16-18.63,44.26-23.71C329.38,125.94,285.5,157.44,313.75,228.7Z"/><path class="cls-6" d="M367,192.68c2.55,3.49,7.61,3.82,11.4,2.51a6.88,6.88,0,0,0,3.34-2.53.6.6,0,0,1,.83-.16.61.61,0,0,1,.26.49,5.1,5.1,0,0,1-.92,2.77c-3.43,4.85-11.75,4.86-15.21,0-.49-.72-1.73-3.26-.29-3.45a.68.68,0,0,1,.59.34Z"/><path class="cls-6" d="M387.52,180.92c.75-7.21,7.83-12.39,14.9-13,5.61-.58,12.1,1.62,15.65,6.46a8.63,8.63,0,0,1,2,5.91,3.51,3.51,0,0,1-6.09,2.05,14.59,14.59,0,0,1-2.41-3.42,12.52,12.52,0,0,0-9.14-5.85c-5.61-.75-11.79,2.44-13.79,8.06a.57.57,0,0,1-1.1-.24Z"/><path class="cls-6" d="M360.07,181.16c-2-5.62-8.17-8.81-13.79-8.06a12.5,12.5,0,0,0-9.13,5.85c-1.41,2.7-4,6.34-7.35,3.7-2.34-2.27-.84-6.06.83-8.24,3.55-4.84,10-7,15.65-6.46,7.07.58,14.15,5.76,14.89,13a.57.57,0,0,1-1.1.24Z"/><path class="cls-7" d="M387.71,114h0l-1.65-.35a73.59,73.59,0,0,0-20.39-1.22c-.72,0-1.44.12-2.15.2-.17-10.15-.34-43.26,3.8-71h0C371.12,16.22,378.58-4.69,393,.92c7.53,2.92,11.32,10.43,12.69,20.32C409.85,50.82,392.24,101.61,387.71,114Z"/><path class="cls-7" d="M440.75,107.74h0c-10.58,10.77-19.51,18.65-21.55,20.42l-.14.13a65.78,65.78,0,0,0-9.62-6.2h0c-2.22-1.18-4.56-2.3-7.07-3.34l-3.43-2s18.58-37.21,38.84-64.14C453,32.27,469.26,17.8,479.24,29.47,494.47,47.28,463.72,84.33,440.75,107.74Z"/><path class="cls-7" d="M437.75,52.56c-8.72,33.2-28.13,69.57-28.13,69.57l-.19,0h0c-2.22-1.18-4.56-2.3-7.07-3.34-2.34-1-4.81-1.89-7.41-2.73s-4.85-1.45-7.22-2h0l-1.65-.35c1.61-14.82,7.64-63.85,19.68-92.45,6.6-15.69,15-25.24,25.5-19.61C444.67,8.84,443.69,30,437.75,52.56Z"/><path class="cls-7" d="M465.86,129.2c-15.11,6.1-29.23,10.33-34.95,12q-.5-.78-1-1.53a52.32,52.32,0,0,0-10.35-10.94h0l-.34-.52-2.26-3.44s10.09-7.78,23.81-17h0C468,89.43,509.69,65.51,515.07,86,519.63,103.33,491.35,118.93,465.86,129.2Z"/><path class="cls-7" d="M545.94,134.83c-1,13.5-17.37,20.79-37.38,24.62h0c-25.68,4.94-57.27,4.2-69.79,3.64-.07-.56-.16-1.12-.25-1.68a52.3,52.3,0,0,0-7.59-20.24q-.5-.78-1-1.53c5.42-1.78,19.45-6.24,36-10.44C501.06,120.28,547.54,112.6,545.94,134.83Z"/><path class="cls-7" d="M544.38,222.57c-7.78,14.15-31.81,11.08-55.82,3.49h0c-22.57-7.16-45.12-18.32-54.12-23,.11-.34.21-.68.31-1,.2-.7.4-1.4.59-2.11,1.06-3.89,1.95-7.82,2.63-11.76.54-3.16.94-6.32,1.17-9.46,16,1.91,68.6,9.07,93.53,22.68C543.35,207.24,549,214.26,544.38,222.57Z"/><path class="cls-7" d="M561.69,184.62c-3.17,10.43-14.43,15.25-29,16.77-32.46,3.39-81.42-9.49-94.7-13.22.54-3.16.94-6.32,1.17-9.46a74.55,74.55,0,0,0-.37-15.62c-.07-.56-.16-1.12-.25-1.68,11.51-1,42.13-3.35,70-2h0C539.44,161,567,167.12,561.69,184.62Z"/><path class="cls-7" d="M525.32,272.05c-5.68,5.67-14,6.13-23.57,3.43-27.74-7.85-65.49-42.41-76.63-53,.25-.34.49-.69.73-1.05a65.62,65.62,0,0,0,8.57-18.32c.11-.34.21-.68.31-1,.2-.7.4-1.4.59-2.11,8.32,3.52,31.84,13.8,53.22,26.12h0C514.87,241.23,537.92,259.48,525.32,272.05Z"/><path class="cls-7" d="M460.89,341.51c-18.49,5.82-36.79-22.48-49.64-49.6a0,0,0,0,0,0,0A402.77,402.77,0,0,1,393.41,247l7.34-5.35.4-.18a64.18,64.18,0,0,0,9.48-5.17h0c.84-.55,1.64-1.12,2.44-1.72,3.8,4.55,17.84,21.6,30.91,40.84C462.86,303.24,479.71,335.58,460.89,341.51Z"/><path class="cls-7" d="M506.55,301.84c-14.68,11.85-41-6.46-62.56-26.38a401,401,0,0,1-34.77-36.9l1.41-2.22h0c.84-.55,1.64-1.12,2.44-1.72a54.36,54.36,0,0,0,12-12.18c.25-.34.49-.69.73-1.05,13.64,7.6,56.83,32.57,75.9,54.09C510.93,285.84,514.53,295.4,506.55,301.84Z"/><path class="cls-7" d="M397.73,359.56c-6.83-1-11.75-5.91-15.23-13.15-12.76-26.47-6.4-84.3-4.62-98.24L379,248a94.22,94.22,0,0,0,21.73-6.29l.4-.18c.91,3.56,6.49,26,10.09,50.39a0,0,0,0,1,0,0C416.19,325.36,417.42,362.47,397.73,359.56Z"/><path class="cls-7" d="M382.5,346.41c-2.74,15.12-8.49,24.92-19.32,22.24-7.5-1.85-12.29-8.08-15.18-16.81-9.7-29.35,2.18-87,5.47-101.65h0q1.13,0,2.25,0,5.25-.15,10.17-.56h0c4.17-.34,8.15-.83,12-1.46L379,248C381,261.67,388.14,315.3,382.5,346.41Z"/><path class="cls-7" d="M352.25,250.14c-2.68,9.68-15.64,54.85-31.62,83.63-10.18,18.32-21.57,30-32.32,21.64-15.16-11.78-4.11-41.45,10.38-67.73a417.08,417.08,0,0,1,29.84-45.82c1.19.78,2.4,1.51,3.63,2.18a47.49,47.49,0,0,0,19,6C351.5,250.1,351.88,250.12,352.25,250.14Z"/><path class="cls-7" d="M375,251.41s-8.84,74.94-27,100.43c-5.26,7.37-11.29,10.61-18.11,6.73-7.62-4.34-10-13.51-9.26-24.8,1.88-29,24.2-72.07,30.5-83.71.37,0,.75.06,1.12.08s.81,0,1.22.05h0q1.13,0,2.25,0,5.25-.15,10.17-.56h0Z"/><path class="cls-7" d="M332.16,244a531.33,531.33,0,0,1-33.47,43.64C278.1,311.46,254,332.84,244,317.44c-12-18.31,18.79-48.33,43.59-68.32l0,0c12.49-10.07,23.48-17.59,26.71-19.76.4.46.79.9,1.2,1.34h0a67,67,0,0,0,13,11.17C329.72,242.64,330.93,243.37,332.16,244Z"/><path class="cls-7" d="M297.32,166.63a63.5,63.5,0,0,0-1.08,23.07c-19.75-1.74-120.11-12-105.67-40.16,8.39-16.34,38.86-10.59,66-1.43A390.19,390.19,0,0,1,297.73,165C297.58,165.55,297.45,166.09,297.32,166.63Z"/><path class="cls-7" d="M307.55,144.54c-.28.38-.55.76-.81,1.15a61.2,61.2,0,0,0-9,19.32c-.15.54-.28,1.08-.41,1.62-7.29-3-23.77-9.86-40.78-18.52-30-15.25-61.7-36-47.87-50.28,10-10.35,29.09-3.76,48.07,7.6h0C278.16,118.24,299.45,137.09,307.55,144.54Z"/><path class="cls-7" d="M323.31,129c-.42.3-.82.6-1.21.9a71,71,0,0,0-8.38,7.35,69.18,69.18,0,0,0-6.17,7.34c-.28.38-.55.76-.81,1.15-8.45-6-31.47-22.68-50-40.25h0C237,86.72,222.46,67.05,236,58.34c21.37-13.74,58.14,30.31,76.72,55.55l0,0C317.93,121,321.69,126.5,323.31,129Z"/><path class="cls-7" d="M343.7,117.62c-.6.23-1.2.48-1.79.73a90.32,90.32,0,0,0-18.6,10.6c-.42.3-.82.6-1.21.9-1.1-1.8-4.67-7.68-9.33-15.92l0,0c-18-31.82-52.21-98.82-24-103.24,19.55-3.07,33.86,27.36,43,56.77A420.49,420.49,0,0,1,343.7,117.62Z"/><path class="cls-7" d="M315.68,231s-12,8.41-28.09,18.12l0,0c-31,18.68-77,42.12-81.86,19.58-4.22-19.65,28.78-35.57,57.69-45.59a406.74,406.74,0,0,1,39.46-11.33c.37.81.77,1.62,1.19,2.41a77.35,77.35,0,0,0,9.71,14.51l.55.64c.4.46.79.9,1.2,1.34h0Z"/><path class="cls-7" d="M304,214.19c-2.49.65-19.75,5.12-40.65,8.92-37.45,6.82-86.57,11.53-83.32-11.59,4.67-33.13,96.63-24,116.19-21.68a73.36,73.36,0,0,0,6.59,21.94C303.22,212.59,303.62,213.4,304,214.19Z"/><ellipse class="cls-8" cx="335.09" cy="196.39" rx="6.78" ry="3.54"/><ellipse class="cls-8" cx="416.24" cy="196.39" rx="6.78" ry="3.54"/><path class="cls-7" d="M365.66,112.47c-.72,0-1.44.12-2.15.2q-2.83.31-5.53.82a78.38,78.38,0,0,0-14.28,4.13c-.6.23-1.2.48-1.79.73-1.66-6.61-6.87-28.14-10.19-50.93C326.93,34.57,326-.92,345.32,1.87c13.57,2,19.65,19.24,22,39.81h0C370.39,68.76,367,101.51,365.66,112.47Z"/><path class="cls-9" d="M367.31,41.68l.78-4.86s8.69,19.16,0,75.5l-2.43.15S373.68,85.94,367.31,41.68Z"/><path class="cls-9" d="M341.91,118.35l-1.74.75S333.72,103.71,330,62l2.24,8.63S338,104.12,341.91,118.35Z"/><path class="cls-9" d="M440.45,49.08S432.59,79.63,412,123.5c-1.44-.84-2.38-1.37-2.38-1.37s8.9-11.35,28.18-69.57Z"/><path class="cls-9" d="M405.73,21.24,407,18.42s-6,62.4-16.26,96.44l-3-.82S395.9,92.38,405.73,21.24Z"/><path class="cls-9" d="M312.74,113.89l-2.06-2.77s2.74,7.57,10.57,19.49l1.55-1.29A70.55,70.55,0,0,1,312.74,113.89Z"/><path class="cls-9" d="M256.76,105.44l-3.08-3s23.38,12.91,54.17,41.45l-1.11,1.76S277.54,119.55,256.76,105.44Z"/><path class="cls-9" d="M256.54,148.11l-5.11-1.67s6.06,5.74,45.6,21.47l.29-1.28S270.51,155.59,256.54,148.11Z"/><path class="cls-9" d="M278.24,188.11s13.9,1.19,18,1.59l.16,1.17a104.75,104.75,0,0,1-21.82-3Z"/><path class="cls-9" d="M262.69,223.24A343.47,343.47,0,0,0,304,214.19l.73,1.36s-17.63,7.77-46.7,9.45Z"/><path class="cls-9" d="M315.51,230.69a160.35,160.35,0,0,0-27.95,18.43l-5.48,3.26S293,242.42,314,229C315.77,231,315.51,230.69,315.51,230.69Z"/><path class="cls-9" d="M298.69,287.68S328.64,251.6,332.16,244l2.43,1.27s-24.09,32.43-38.18,46.59Z"/><path class="cls-9" d="M352.25,250.14s-26.89,47.13-31.62,83.63c-1.61,2.86-2,3.55-2,3.55s5-41.09,31.93-87.32Z"/><path class="cls-9" d="M348,351.84s24.49-40.62,24.66-102.91l1-.13S375.4,304.24,348.35,353A6.24,6.24,0,0,1,348,351.84Z"/><path class="cls-9" d="M382.5,346.41s-12.6-34.25-12.16-58.77l-.6,3.47s-1.13,14.31,12.44,56.94Z"/><path class="cls-9" d="M401.15,241.51s5.39,20.79,10.09,50.39l.7,1.45a468.84,468.84,0,0,0-9.87-52.26Z"/><path class="cls-9" d="M444,275.46s-25.18-24.33-33.36-39.12l-.95.65s8.24,14.33,37.91,43.87Z"/><path class="cls-9" d="M425.85,221.39s55.58,30,75.9,54.09c1.89.5-13.9-20.23-75.05-55.38Z"/><path class="cls-9" d="M488.56,226.06a402.37,402.37,0,0,1-53.24-26.13l-.4,1.44a370.1,370.1,0,0,0,57.19,26.77Z"/><path class="cls-9" d="M439.12,178.71s63.15,5.34,93.53,22.68l2.36-.28S503.47,183.88,439.23,177Z"/><path class="cls-9" d="M440.75,107.74A79.71,79.71,0,0,1,419.87,129c1.21,1,.73.59.73.59s14.93-11.47,23.15-23.83Z"/><path class="cls-9" d="M470.59,127.24s-23.8,6.14-38.36,16.1c.46.81.44.79.44.79s18.95-11.24,33.19-14.93Z"/><path class="cls-9" d="M438.75,163.09s20.48,1.29,69.79-3.64l2.8.16s-20,4.26-72.37,5.29Z"/><path class="cls-1" d="M144.21,603.41c-7.78,29.66-4.24,88.06-2.3,112.29.54,6.83,1,10.95,1,10.95H130.73s-1.89-77.12,4.86-105.17,10.24-86.84,10.24-86.84l4.62-2.49,1.86-1A261.75,261.75,0,0,1,144.21,603.41Z"/><path class="cls-2" d="M144.21,603.41c-7.78,29.66-4.24,88.06-2.3,112.29l-2.9,1.65s-5.72-82.07,2.46-109.49c10.6-41.27,9.76-67,9-75.71l1.86-1A261.75,261.75,0,0,1,144.21,603.41Z"/><path class="cls-1" d="M145.15,570.28s-1.41-.57-3.57-1.7c-8.15-4.27-27.12-16.48-22.75-35.91.83-3.67,2-5.65,3.32-6.38,7.71-4.15,22.11,32.75,22.11,32.75Z"/><path class="cls-1" d="M154.82,629.7A40.39,40.39,0,0,1,139,636.85l.35-8.07s8.84-13.58,15.77-19.57c4.42-3.8,8.06-4.54,8.19,3.21C163.45,620.45,159.54,626,154.82,629.7Z"/><path class="cls-2" d="M154.82,629.7c4.92-6.06,9.07-14.09,7-21.38-.93-3.21-6.66.89-6.66.89h0c4.42-3.8,8.06-4.54,8.19,3.21C163.45,620.45,159.54,626,154.82,629.7Z"/><path class="cls-4" d="M195.16,454.64c-5.08,17.63-19,24.75-41.72,25.43-8.13.24-16.2-4.32-22.17-11.35-10.69-12.61-14.63-33.16,0-48.32a46.32,46.32,0,0,1,23.38-12.53,39.17,39.17,0,0,1,19.51,1.34C199.23,417.35,200.25,437,195.16,454.64Z"/><path class="cls-5" d="M131.27,468.72c-10.69-12.61-14.63-33.16,0-48.32a46.32,46.32,0,0,1,23.38-12.53C139.53,414.45,116.35,431.09,131.27,468.72Z"/><path class="cls-6" d="M159.38,449.7c1.34,1.84,4,2,6,1.32a3.59,3.59,0,0,0,1.76-1.34.32.32,0,0,1,.44-.08.31.31,0,0,1,.14.26,2.73,2.73,0,0,1-.48,1.46,5.17,5.17,0,0,1-8,0c-.26-.38-.91-1.72-.15-1.82a.37.37,0,0,1,.31.18Z"/><path class="cls-10" d="M170.33,408.17h0l-.87-.19a38.79,38.79,0,0,0-10.76-.64c-.39,0-.77.06-1.14.1-.09-5.36-.18-22.84,2-37.48h0c2-13.45,5.95-24.49,13.58-21.53,4,1.55,6,5.51,6.71,10.74C182,374.78,172.72,401.6,170.33,408.17Z"/><path class="cls-11" d="M198.34,404.84h0c-5.59,5.69-10.31,9.85-11.38,10.79l-.08.07a34.43,34.43,0,0,0-5.08-3.28h0c-1.17-.63-2.41-1.22-3.73-1.77l-1.81-1.08s9.81-19.65,20.51-33.87c8.07-10.72,16.64-18.36,21.91-12.2C226.71,372.91,210.47,392.47,198.34,404.84Z"/><path class="cls-12" d="M196.76,375.7c-4.61,17.53-14.86,36.74-14.86,36.74l-.1,0h0c-1.17-.63-2.41-1.22-3.73-1.77s-2.54-1-3.92-1.44-2.56-.76-3.81-1h0l-.87-.19c.85-7.83,4-33.72,10.4-48.82,3.48-8.29,7.93-13.33,13.46-10.36C200.41,352.61,199.89,363.77,196.76,375.7Z"/><path class="cls-13" d="M211.6,416.17a192.9,192.9,0,0,1-18.46,6.32c-.17-.27-.35-.54-.53-.81a27.94,27.94,0,0,0-5.47-5.77h0l-.17-.27-1.2-1.82s5.33-4.11,12.58-9h0c14.41-9.67,36.41-22.3,39.25-11.5C240,402.51,225.06,410.75,211.6,416.17Z"/><path class="cls-14" d="M253.89,419.14c-.51,7.13-9.17,11-19.74,13h0c-13.56,2.61-30.24,2.21-36.85,1.92,0-.3-.09-.59-.14-.89a27.6,27.6,0,0,0-4-10.69c-.17-.27-.35-.54-.53-.81,2.86-.94,10.27-3.29,19-5.51C230.19,411.46,254.74,407.4,253.89,419.14Z"/><path class="cls-15" d="M253.07,465.48c-4.11,7.47-16.8,5.85-29.48,1.84h0A196.7,196.7,0,0,1,195,455.18c.06-.18.11-.36.16-.54.11-.37.21-.74.31-1.11.56-2.06,1-4.13,1.39-6.22a50,50,0,0,0,.62-5c8.44,1,36.23,4.79,49.4,12C252.53,457.39,255.48,461.09,253.07,465.48Z"/><path class="cls-16" d="M262.21,445.44c-1.67,5.51-7.62,8.05-15.33,8.86-17.15,1.79-43-5-50-7a50,50,0,0,0,.62-5,39.76,39.76,0,0,0-.19-8.25c0-.3-.09-.59-.14-.89a291.32,291.32,0,0,1,37-1h0C250.46,433,265,436.2,262.21,445.44Z"/><path class="cls-17" d="M243,491.61c-3,3-7.41,3.24-12.44,1.81-14.65-4.14-34.59-22.39-40.47-28,.13-.18.26-.36.38-.55a34.59,34.59,0,0,0,4.53-9.68c.06-.18.11-.36.16-.54.11-.37.21-.74.31-1.11a273.53,273.53,0,0,1,28.11,13.79h0C237.49,475.34,249.66,485,243,491.61Z"/><path class="cls-18" d="M209,528.3c-9.77,3.07-19.43-11.88-26.22-26.2h0a211.94,211.94,0,0,1-9.42-23.7l3.88-2.82.21-.1a32.79,32.79,0,0,0,5-2.73h0q.66-.44,1.29-.9c2,2.4,9.42,11.4,16.32,21.56C210,508.08,218.92,525.16,209,528.3Z"/><path class="cls-19" d="M233.09,507.35c-7.75,6.25-21.65-3.42-33-13.94a211.53,211.53,0,0,1-18.36-19.48l.74-1.18h0q.66-.44,1.29-.9a28.79,28.79,0,0,0,6.36-6.44c.13-.18.26-.36.38-.55,7.21,4,30,17.2,40.09,28.56C235.4,498.9,237.31,503.94,233.09,507.35Z"/><path class="cls-20" d="M175.62,537.83c-3.61-.53-6.2-3.12-8-7-6.74-14-3.38-44.52-2.44-51.88l.6-.1a49.87,49.87,0,0,0,11.48-3.32l.21-.1c.48,1.88,3.43,13.74,5.33,26.62h0C185.37,519.77,186,539.37,175.62,537.83Z"/><path class="cls-21" d="M167.58,530.88c-1.45,8-4.49,13.16-10.2,11.75-4-1-6.5-4.27-8-8.88-5.12-15.5,1.15-45.93,2.89-53.68h1.19q2.77-.07,5.37-.3h0c2.2-.18,4.3-.44,6.32-.77l.6-.1C166.79,486.13,170.56,514.45,167.58,530.88Z"/><path class="cls-22" d="M151.6,480c-1.41,5.11-8.26,29-16.7,44.17-5.37,9.67-11.39,15.84-17.06,11.43-8-6.22-2.18-21.89,5.48-35.77a218.92,218.92,0,0,1,15.76-24.2c.62.41,1.26.8,1.91,1.15A25.06,25.06,0,0,0,151,480Z"/><path class="cls-23" d="M163.62,480.71s-4.67,39.58-14.26,53c-2.78,3.89-6,5.6-9.57,3.56-4-2.3-5.27-7.14-4.89-13.1,1-15.32,12.78-38.06,16.11-44.21l.59,0c.21,0,.43,0,.65,0h1.19q2.77-.07,5.37-.3h0Z"/><path class="cls-24" d="M141,476.82a281.31,281.31,0,0,1-17.67,23.05c-10.88,12.56-23.58,23.85-28.9,15.71-6.32-9.67,9.92-25.52,23-36.08h0c6.59-5.32,12.4-9.29,14.1-10.43l.63.7h0a35.35,35.35,0,0,0,6.88,5.9C139.7,476.08,140.34,476.47,141,476.82Z"/><path class="cls-25" d="M122.59,435.94a33.62,33.62,0,0,0-.57,12.18c-10.43-.92-63.43-6.36-55.8-21.21,4.43-8.63,20.52-5.59,34.84-.75a206.94,206.94,0,0,1,21.75,8.92C122.73,435.37,122.66,435.65,122.59,435.94Z"/><path class="cls-26" d="M128,424.27c-.15.2-.29.4-.43.61a32.31,32.31,0,0,0-4.76,10.2c-.08.29-.15.57-.22.86-3.85-1.56-12.55-5.21-21.53-9.78-15.85-8.06-32.59-19-25.28-26.56,5.29-5.46,15.36-2,25.38,4h0C112.47,410.38,123.72,420.34,128,424.27Z"/><path class="cls-27" d="M136.32,416l-.64.47a38,38,0,0,0-4.43,3.89,37.24,37.24,0,0,0-3.25,3.87c-.15.2-.29.4-.43.61a258.37,258.37,0,0,1-26.4-21.26h0c-10.4-9.88-18.1-20.27-10.94-24.87,11.29-7.26,30.7,16,40.52,29.34v0C133.48,411.81,135.46,414.75,136.32,416Z"/><path class="cls-28" d="M147.09,410.05l-1,.39a47.53,47.53,0,0,0-9.82,5.6l-.64.47c-.58-.95-2.47-4.05-4.93-8.41v0c-4.62-8.15-11.25-20.69-15.15-31.69-4.13-11.68-5.2-21.63,2.46-22.83,7-1.1,12.74,5.95,17.21,15.45a114,114,0,0,1,5.5,14.53A222.37,222.37,0,0,1,147.09,410.05Z"/><path class="cls-29" d="M132.29,469.92s-6.33,4.44-14.83,9.57h0c-16.35,9.87-40.68,22.25-43.23,10.34-2.23-10.37,15.2-18.78,30.46-24.07a214.26,214.26,0,0,1,20.84-6c.2.43.41.86.63,1.28a41.14,41.14,0,0,0,5.13,7.66l.29.34.63.7h0Z"/><path class="cls-30" d="M126.14,461.06c-1.31.34-10.43,2.7-21.47,4.71-19.77,3.6-45.71,6.09-44-6.12,2.47-17.5,51-12.68,61.36-11.45a39.08,39.08,0,0,0,3.48,11.58C125.71,460.21,125.92,460.64,126.14,461.06Z"/><ellipse class="cls-8" cx="142.54" cy="451.65" rx="3.58" ry="1.87"/><ellipse class="cls-8" cx="185.4" cy="451.65" rx="3.58" ry="1.87"/><path class="cls-31" d="M158.69,407.34c-.39,0-.77.06-1.14.1-1,.11-2,.26-2.92.43a41.52,41.52,0,0,0-7.54,2.19l-1,.38c-.87-3.49-3.63-14.86-5.38-26.9-2.53-17.34-3-36.09,7.18-34.61,7.17,1,10.38,10.16,11.62,21h0C161.18,384.25,159.39,401.55,158.69,407.34Z"/><path class="cls-32" d="M159.56,370l.41-2.57s4.59,10.12,0,39.88l-1.28.08S162.92,393.33,159.56,370Z"/><path class="cls-32" d="M146.14,410.44l-.91.4s-3.41-8.13-5.4-30.17l1.18,4.56S144.09,402.93,146.14,410.44Z"/><path class="cls-32" d="M198.19,373.86S194,390,183.13,413.16l-1.26-.72s4.7-6,14.89-36.74Z"/><path class="cls-32" d="M179.85,359.16l.65-1.49s-3.2,32.95-8.59,50.93l-1.59-.43S174.66,396.73,179.85,359.16Z"/><path class="cls-32" d="M130.74,408.09l-1.09-1.47a56,56,0,0,0,5.58,10.3l.82-.69A37.22,37.22,0,0,1,130.74,408.09Z"/><path class="cls-32" d="M101.17,403.62l-1.62-1.56s12.35,6.82,28.61,21.89l-.59.93S112.15,411.07,101.17,403.62Z"/><path class="cls-32" d="M101.06,426.16l-2.7-.88s3.2,3,24.08,11.33l.15-.67S108.43,430.11,101.06,426.16Z"/><path class="cls-32" d="M112.52,447.28s7.34.63,9.5.84l.09.62a55.58,55.58,0,0,1-11.53-1.6Z"/><path class="cls-32" d="M104.31,465.83a179.54,179.54,0,0,0,21.83-4.77l.39.71s-9.31,4.11-24.66,5Z"/><path class="cls-32" d="M132.2,469.77a84.58,84.58,0,0,0-14.76,9.73l-2.89,1.72a133.55,133.55,0,0,1,16.86-12.34Z"/><path class="cls-32" d="M123.32,499.87s15.81-19.06,17.67-23.05l1.29.67s-12.72,17.13-20.17,24.6Z"/><path class="cls-32" d="M151.6,480s-14.19,24.89-16.7,44.17c-.85,1.51-1.07,1.87-1.07,1.87s2.62-21.7,16.86-46.11Z"/><path class="cls-32" d="M149.36,533.75s12.93-21.45,13-54.35l.52-.07s.93,29.29-13.35,55.05A3.28,3.28,0,0,1,149.36,533.75Z"/><path class="cls-32" d="M167.58,530.88s-6.65-18.08-6.42-31l-.32,1.83s-.59,7.55,6.57,30.07Z"/><path class="cls-32" d="M177.43,475.48s2.85,11,5.33,26.62l.37.76a248,248,0,0,0-5.22-27.6Z"/><path class="cls-32" d="M200.05,493.41s-13.29-12.84-17.62-20.66l-.5.35s4.36,7.57,20,23.17Z"/><path class="cls-32" d="M190.47,464.86s29.36,15.86,40.09,28.56c1,.27-7.34-10.68-39.64-29.24Z"/><path class="cls-32" d="M223.59,467.32a213.33,213.33,0,0,1-28.12-13.79l-.21.76a195.57,195.57,0,0,0,30.21,14.13Z"/><path class="cls-32" d="M197.48,442.32s33.35,2.82,49.4,12l1.24-.15s-16.66-9.1-50.58-12.74Z"/><path class="cls-32" d="M198.34,404.84a42.1,42.1,0,0,1-11,11.22c.64.54.38.31.38.31s7.89-6.06,12.23-12.59Z"/><path class="cls-32" d="M214.1,415.14s-12.57,3.24-20.26,8.5l.24.42s10-5.94,17.52-7.89Z"/><path class="cls-32" d="M197.29,434.07s10.81.68,36.85-1.92l1.48.08s-10.57,2.25-38.22,2.79Z"/><path class="cls-6" d="M152.49,440.87c-1.18-3-5.26-3.5-7.7-1.95A5.48,5.48,0,0,0,143,441a.72.72,0,0,1-1,.29c-.77-.57-.08-1.9.33-2.52a6.1,6.1,0,0,1,5.19-2.44c2.51.07,5.09,1.93,5.39,4.47a.2.2,0,0,1-.39.09Z"/><circle class="cls-6" cx="149.36" cy="441.3" r="3.58"/><circle class="cls-33" cx="146.78" cy="439.45" r="1"/><circle class="cls-33" cx="147.99" cy="441.07" r="0.37"/><path class="cls-6" d="M173.36,440.78c.3-2.54,2.88-4.4,5.39-4.47s5.69,1.58,5.86,4.36a.72.72,0,0,1-1.36.31c-1.65-3.7-7.87-4-9.5-.11a.2.2,0,0,1-.39-.09Z"/><circle class="cls-6" cx="176.88" cy="441.3" r="3.58"/><circle class="cls-33" cx="179.47" cy="439.45" r="1"/><circle class="cls-33" cx="178.25" cy="441.07" r="0.37"/><path class="cls-1" d="M560.86,627.62c-7.78,29.67-4.24,88.06-2.31,112.3.55,6.82,1,10.94,1,10.94H547.38s-1.89-77.12,4.85-105.17,10.25-86.83,10.25-86.83l4.61-2.5,1.86-1A261.5,261.5,0,0,1,560.86,627.62Z"/><path class="cls-2" d="M560.86,627.62c-7.78,29.67-4.24,88.06-2.31,112.3l-2.89,1.64s-5.72-82.07,2.46-109.49c10.6-41.27,9.76-67,9-75.71l1.86-1A261.5,261.5,0,0,1,560.86,627.62Z"/><path class="cls-1" d="M561.79,594.5s-1.4-.58-3.56-1.71c-8.15-4.27-27.12-16.48-22.75-35.91.82-3.67,2-5.65,3.31-6.38,7.71-4.15,22.12,32.75,22.12,32.75Z"/><path class="cls-1" d="M571.47,653.92a40.46,40.46,0,0,1-15.82,7.14L556,653s8.83-13.58,15.77-19.57c4.41-3.8,8.06-4.54,8.19,3.21C580.1,644.66,576.19,650.18,571.47,653.92Z"/><path class="cls-2" d="M571.47,653.92c4.91-6.07,9.06-14.1,7-21.39-.93-3.21-6.66.89-6.66.89h0c4.41-3.8,8.06-4.54,8.19,3.21C580.1,644.66,576.19,650.18,571.47,653.92Z"/><path class="cls-4" d="M611.81,478.85c-5.08,17.63-19,24.75-41.72,25.43-8.13.24-16.2-4.31-22.17-11.35-10.7-12.61-14.63-33.16,0-48.32a46.21,46.21,0,0,1,23.38-12.52,39.05,39.05,0,0,1,19.51,1.33C615.88,441.56,616.9,461.22,611.81,478.85Z"/><path class="cls-5" d="M547.92,492.93c-10.7-12.61-14.63-33.16,0-48.32a46.21,46.21,0,0,1,23.38-12.52C556.17,438.66,533,455.3,547.92,492.93Z"/><path class="cls-6" d="M576,473.91c1.34,1.84,4,2,6,1.32a3.63,3.63,0,0,0,1.76-1.33.32.32,0,0,1,.44-.09.31.31,0,0,1,.14.26,2.66,2.66,0,0,1-.49,1.46,5.16,5.16,0,0,1-8,0c-.26-.38-.91-1.72-.15-1.82a.37.37,0,0,1,.31.18Z"/><path class="cls-34" d="M587,432.38h0l-.87-.19a38.84,38.84,0,0,0-10.77-.64c-.38,0-.76.06-1.13.1-.09-5.36-.18-22.84,2-37.48h0c2-13.44,6-24.49,13.59-21.52,4,1.54,6,5.5,6.7,10.73C598.67,399,589.37,425.81,587,432.38Z"/><path class="cls-35" d="M615,429.05h0c-5.58,5.69-10.3,9.85-11.38,10.79a.46.46,0,0,1-.07.07,35.83,35.83,0,0,0-5.08-3.28h0a40.55,40.55,0,0,0-3.74-1.77l-1.81-1.08s9.81-19.65,20.51-33.87c8.07-10.72,16.65-18.36,21.92-12.2C643.36,397.12,627.12,416.69,615,429.05Z"/><path class="cls-36" d="M613.4,399.91c-4.6,17.53-14.85,36.74-14.85,36.74l-.1,0h0a40.55,40.55,0,0,0-3.74-1.77c-1.23-.51-2.54-1-3.91-1.44s-2.56-.76-3.81-1h0l-.87-.19c.85-7.82,4-33.72,10.39-48.82C600,375.08,604.43,370,610,373,617.06,376.82,616.54,388,613.4,399.91Z"/><path class="cls-37" d="M628.25,440.38a193.87,193.87,0,0,1-18.46,6.32c-.17-.27-.35-.54-.54-.8a27.41,27.41,0,0,0-5.46-5.78h0l-.18-.27L602.41,438s5.33-4.11,12.57-9h0c14.41-9.67,36.41-22.3,39.25-11.5C656.65,426.72,641.71,435,628.25,440.38Z"/><path class="cls-38" d="M670.54,443.36c-.51,7.13-9.17,11-19.74,13h0c-13.56,2.61-30.25,2.22-36.86,1.92,0-.29-.08-.59-.13-.89a27.6,27.6,0,0,0-4-10.69c-.17-.27-.35-.54-.54-.8,2.87-.94,10.28-3.3,19-5.52C646.84,435.67,671.39,431.62,670.54,443.36Z"/><path class="cls-39" d="M669.72,489.69c-4.11,7.48-16.8,5.85-29.48,1.85a0,0,0,0,1,0,0,195.57,195.57,0,0,1-28.58-12.14c.05-.17.11-.35.16-.54.11-.37.21-.74.31-1.11.56-2.06,1-4.13,1.39-6.21.29-1.67.5-3.34.62-5,8.44,1,36.23,4.79,49.39,12C669.17,481.6,672.13,485.3,669.72,489.69Z"/><path class="cls-40" d="M678.86,469.65c-1.67,5.51-7.62,8.05-15.34,8.86-17.14,1.79-43-5-50-7,.29-1.67.5-3.34.62-5a39.09,39.09,0,0,0-.2-8.25c0-.29-.08-.59-.13-.89a291.32,291.32,0,0,1,37-1h0C667.11,457.18,681.67,460.41,678.86,469.65Z"/><path class="cls-41" d="M659.65,515.82c-3,3-7.41,3.24-12.45,1.82-14.65-4.15-34.58-22.4-40.47-28,.14-.17.26-.36.39-.55a34.46,34.46,0,0,0,4.53-9.68c.05-.17.11-.35.16-.54.11-.37.21-.74.31-1.11a275.69,275.69,0,0,1,28.11,13.79,0,0,0,0,0,0,0C654.13,499.55,666.31,509.19,659.65,515.82Z"/><path class="cls-42" d="M625.63,552.51c-9.77,3.07-19.43-11.87-26.22-26.2h0A213.27,213.27,0,0,1,590,502.62l3.87-2.83.22-.09a34.19,34.19,0,0,0,5-2.73h0c.44-.3.86-.6,1.29-.91,2,2.4,9.42,11.4,16.32,21.57C626.67,532.3,635.56,549.38,625.63,552.51Z"/><path class="cls-43" d="M649.74,531.56c-7.75,6.26-21.65-3.41-33-13.93a212.36,212.36,0,0,1-18.36-19.49l.74-1.17h0c.44-.3.86-.6,1.29-.91a28.54,28.54,0,0,0,6.35-6.44c.14-.17.26-.36.39-.55,7.2,4,30,17.2,40.08,28.57C652.05,523.11,654,528.16,649.74,531.56Z"/><path class="cls-44" d="M592.27,562c-3.61-.53-6.21-3.12-8-6.94-6.74-14-3.38-44.53-2.44-51.89l.6-.1a49.64,49.64,0,0,0,11.47-3.32l.22-.09c.48,1.88,3.42,13.73,5.32,26.61h0C602,544,602.67,563.58,592.27,562Z"/><path class="cls-45" d="M584.23,555.1c-1.45,8-4.49,13.16-10.21,11.74-4-1-6.49-4.27-8-8.88-5.13-15.5,1.15-45.93,2.88-53.68h0c.4,0,.79,0,1.19,0q2.77-.07,5.37-.3h0c2.21-.18,4.31-.43,6.33-.77l.6-.1C583.44,510.34,587.2,538.67,584.23,555.1Z"/><path class="cls-46" d="M568.25,504.25c-1.41,5.12-8.26,29-16.7,44.17-5.37,9.67-11.39,15.84-17.07,11.43-8-6.22-2.17-21.89,5.48-35.77a222,222,0,0,1,15.76-24.2c.63.41,1.27.8,1.92,1.15a25.06,25.06,0,0,0,10,3.18Z"/><path class="cls-47" d="M580.27,504.92S575.6,544.5,566,558c-2.78,3.9-6,5.61-9.57,3.56-4-2.29-5.27-7.14-4.89-13.1,1-15.32,12.78-38.06,16.11-44.21l.59,0c.21,0,.43,0,.64,0h0c.4,0,.79,0,1.19,0q2.77-.07,5.37-.3h0Z"/><path class="cls-48" d="M557.64,501A279.82,279.82,0,0,1,540,524.08c-10.87,12.56-23.58,23.85-28.89,15.72-6.32-9.67,9.92-25.53,23-36.09h0c6.6-5.31,12.4-9.29,14.11-10.43l.63.71h0a35,35,0,0,0,6.87,5.9C556.35,500.29,557,500.68,557.64,501Z"/><path class="cls-49" d="M539.24,460.15a33.63,33.63,0,0,0-.57,12.18c-10.43-.91-63.43-6.36-55.81-21.21,4.44-8.62,20.53-5.59,34.84-.75a206.37,206.37,0,0,1,21.76,8.92C539.38,459.58,539.31,459.87,539.24,460.15Z"/><path class="cls-50" d="M544.64,448.48c-.14.2-.29.41-.42.61a32.31,32.31,0,0,0-4.76,10.2c-.08.29-.15.58-.22.86-3.85-1.56-12.55-5.21-21.54-9.78-15.84-8.05-32.58-19-25.28-26.55,5.3-5.47,15.37-2,25.39,4h0C529.12,434.59,540.37,444.55,544.64,448.48Z"/><path class="cls-51" d="M553,440.25c-.23.16-.44.32-.64.48a37.49,37.49,0,0,0-4.43,3.88,36.15,36.15,0,0,0-3.26,3.87c-.14.2-.29.41-.42.61a257.27,257.27,0,0,1-26.4-21.26h0c-10.4-9.88-18.1-20.27-10.94-24.87,11.28-7.26,30.7,16,40.51,29.34l0,0C550.13,436,552.11,439,553,440.25Z"/><path class="cls-52" d="M563.74,434.27l-1,.38a47.72,47.72,0,0,0-9.82,5.6l-.64.47c-.58-1-2.47-4.05-4.93-8.4v0c-4.62-8.16-11.25-20.7-15.15-31.7-4.14-11.67-5.2-21.63,2.45-22.83,7-1.1,12.75,6,17.22,15.46a114.78,114.78,0,0,1,5.5,14.52A221.91,221.91,0,0,1,563.74,434.27Z"/><path class="cls-53" d="M548.94,494.13s-6.33,4.45-14.84,9.57h0c-16.35,9.87-40.68,22.25-43.24,10.35-2.22-10.38,15.2-18.79,30.47-24.08a216.49,216.49,0,0,1,20.84-6c.2.43.41.86.63,1.28a40.66,40.66,0,0,0,5.13,7.66l.29.34.63.71h0Z"/><path class="cls-54" d="M542.79,485.27c-1.32.34-10.43,2.7-21.47,4.71-19.78,3.6-45.72,6.09-44-6.12,2.47-17.5,51-12.68,61.36-11.45A38.49,38.49,0,0,0,542.16,484C542.36,484.42,542.57,484.85,542.79,485.27Z"/><ellipse class="cls-8" cx="559.19" cy="475.87" rx="3.58" ry="1.87"/><ellipse class="cls-8" cx="602.04" cy="475.87" rx="3.58" ry="1.87"/><path class="cls-55" d="M575.33,431.55c-.38,0-.76.06-1.13.1-1,.11-2,.26-2.92.44a40.51,40.51,0,0,0-7.54,2.18l-1,.38c-.88-3.49-3.63-14.86-5.38-26.89-2.53-17.35-3-36.1,7.18-34.62,7.17,1,10.38,10.16,11.61,21h0C577.83,408.46,576,425.76,575.33,431.55Z"/><path class="cls-32" d="M576.2,394.16l.42-2.57s4.59,10.13,0,39.88l-1.29.08S579.57,417.54,576.2,394.16Z"/><path class="cls-32" d="M562.79,434.65l-.92.4s-3.41-8.13-5.39-30.17l1.18,4.56S560.73,427.14,562.79,434.65Z"/><path class="cls-32" d="M614.83,398.07s-4.15,16.13-15.05,39.3l-1.26-.72s4.7-6,14.88-36.74Z"/><path class="cls-32" d="M596.49,383.37l.66-1.49s-3.2,32.95-8.59,50.93l-1.59-.43S591.31,420.94,596.49,383.37Z"/><path class="cls-32" d="M547.38,432.3l-1.08-1.46a56.15,56.15,0,0,0,5.58,10.29l.82-.68A37.37,37.37,0,0,1,547.38,432.3Z"/><path class="cls-32" d="M517.82,427.83l-1.62-1.56s12.34,6.82,28.6,21.89l-.58.93S528.8,435.29,517.82,427.83Z"/><path class="cls-32" d="M517.7,450.37l-2.69-.88s3.2,3,24.08,11.34l.15-.68S525.08,454.32,517.7,450.37Z"/><path class="cls-32" d="M529.17,471.49s7.33.63,9.5.84l.09.62a54.82,54.82,0,0,1-11.53-1.6Z"/><path class="cls-32" d="M521,490.05a181,181,0,0,0,21.84-4.78l.39.72s-9.31,4.1-24.67,5Z"/><path class="cls-32" d="M548.85,494a85.26,85.26,0,0,0-14.76,9.73l-2.9,1.73a133.56,133.56,0,0,1,16.87-12.35Z"/><path class="cls-32" d="M540,524.08S555.78,505,557.64,501l1.28.67s-12.72,17.13-20.16,24.61Z"/><path class="cls-32" d="M568.25,504.25s-14.2,24.89-16.7,44.17c-.85,1.51-1.07,1.87-1.07,1.87s2.62-21.7,16.86-46.11Z"/><path class="cls-32" d="M566,558s12.93-21.45,13-54.35l.52-.06s.93,29.28-13.36,55A3.49,3.49,0,0,1,566,558Z"/><path class="cls-32" d="M584.23,555.1s-6.65-18.09-6.42-31l-.32,1.83s-.6,7.56,6.57,30.07Z"/><path class="cls-32" d="M594.08,499.7s2.84,11,5.32,26.61l.37.76a246,246,0,0,0-5.21-27.59Z"/><path class="cls-32" d="M616.7,517.63S603.4,504.78,599.08,497l-.5.34s4.36,7.57,20,23.17Z"/><path class="cls-32" d="M607.12,489.07s29.36,15.86,40.08,28.57c1,.26-7.34-10.69-39.63-29.25Z"/><path class="cls-32" d="M640.24,491.54a214.14,214.14,0,0,1-28.12-13.8l-.21.76a195.68,195.68,0,0,0,30.2,14.14Z"/><path class="cls-32" d="M614.13,466.53s33.35,2.82,49.39,12l1.25-.15s-16.66-9.1-50.58-12.74Z"/><path class="cls-32" d="M615,429.05a42.23,42.23,0,0,1-11,11.22c.64.54.39.31.39.31s7.88-6.06,12.23-12.59Z"/><path class="cls-32" d="M630.75,439.35s-12.57,3.24-20.26,8.5l.23.42s10-5.94,17.53-7.89Z"/><path class="cls-32" d="M613.93,458.28s10.82.68,36.86-1.92l1.48.08s-10.57,2.25-38.22,2.8Z"/><path class="cls-6" d="M569.14,465.08c-1.18-3-5.26-3.5-7.71-1.95a5.66,5.66,0,0,0-1.79,2.06.72.72,0,0,1-1,.29c-.76-.57-.08-1.9.34-2.51a6.06,6.06,0,0,1,5.19-2.44c2.51.06,5.09,1.92,5.38,4.46a.2.2,0,0,1-.38.09Z"/><circle class="cls-6" cx="566" cy="465.51" r="3.58"/><circle class="cls-33" cx="563.42" cy="463.66" r="1"/><circle class="cls-33" cx="564.64" cy="465.29" r="0.37"/><path class="cls-6" d="M590,465c.29-2.54,2.88-4.4,5.38-4.46s5.7,1.57,5.87,4.35a.72.72,0,0,1-1.37.31c-1.64-3.7-7.86-4-9.49-.11A.2.2,0,0,1,590,465Z"/><circle class="cls-6" cx="593.53" cy="465.51" r="3.58"/><circle class="cls-33" cx="596.11" cy="463.66" r="1"/><circle class="cls-33" cx="594.9" cy="465.29" r="0.37"/><path class="cls-56" d="M544.06,755.3h0c-190.19.86-544-3.81-544-3.81l25.06-8.18s71.18-43.57,101.25-41.51,36.11-12.93,49.12-8.17,55.16-2.56,63.17-.94c4.6.92,22.38-2.58,41-3.84,13.9-1,28.27-.7,37.84,3.6,22.41,10,45.71-9.32,62.14-4.06s112.67,1.16,114.68,9.31,89.23,28.59,103.25,38.13,56.16,6.8,64.17,15.66C663.86,753.91,615.53,755,544.06,755.3Z"/><path class="cls-57" d="M544.06,755.3h0s-27.83-16.07-31.6-17.09-48.51-34.71-56-28.59-77.07-11-82.34-15.87-36.07,14.33-48.5,4.89-46-9.79-46-9.79c13.9-1,28.27-.7,37.84,3.6,22.41,10,45.71-9.32,62.14-4.06s112.67,1.16,114.68,9.31,89.23,28.59,103.25,38.13,56.16,6.8,64.17,15.66C663.86,753.91,615.53,755,544.06,755.3Z"/></g></g></svg>