<svg xmlns="http://www.w3.org/2000/svg" viewBox="0 0 661.75 755.41"><defs><style>.cls-1{fill:#5aba97;}.cls-2{fill:#63c6a0;}.cls-3{fill:#82d16f;}.cls-4{fill:#ffcd50;}.cls-5{fill:#ffc033;}.cls-6{fill:#302826;}.cls-7{fill:#f5ffff;}.cls-8{fill:#ff6e79;opacity:0.35;}.cls-9{fill:#e9f4f4;}.cls-10{fill:#efedee;}.cls-11{fill:#efefef;}.cls-12{fill:#4f2f2f;}.cls-13{fill:#593636;}</style></defs><g id="Calque_2" data-name="Calque 2"><g id="Calque_1-2" data-name="Calque 1"><path class="cls-1" d="M338.26,483.74c-14.74,56.17-8,166.74-4.37,212.63,1,12.93,1.82,20.73,1.82,20.73h-23s-3.58-146,9.19-199.15,19.4-164.42,19.4-164.42l8.74-4.73,3.52-1.91S357.15,411.74,338.26,483.74Z"/><path class="cls-2" d="M338.26,483.74c-14.74,56.17-8,166.74-4.37,212.63l-5.48,3.11s-10.83-155.4,4.65-207.31c20.07-78.15,18.48-126.83,17-143.37l3.52-1.91S357.15,411.74,338.26,483.74Z"/><path class="cls-1" d="M377.85,571.07c-22.25,19.16-50.92,25.62-50.92,25.62l.06-26.54S354.1,524.39,376,503.79c13.95-13.08,25.8-16,27.3,9.41C404.89,539.52,392.83,558.17,377.85,571.07Z"/><path class="cls-1" d="M336.39,464.7s-2-.83-5.16-2.47c-11.78-6.17-39.21-23.82-32.89-51.92,1.19-5.3,2.84-8.17,4.79-9.22,11.15-6,32,47.35,32,47.35Z"/><path class="cls-3" d="M371.07,580.12l1.94-2A27.27,27.27,0,0,1,371.07,580.12Z"/><path class="cls-2" d="M377.85,571.07c15.3-20.56,27.81-47.5,19.9-71.12C394.27,489.56,376,503.8,376,503.8h0c13.95-13.08,25.8-16,27.3,9.41C404.89,539.52,392.83,558.17,377.85,571.07Z"/><path class="cls-4" d="M434.73,202c-9.62,33.38-36,46.86-79,48.15-15.39.46-30.68-8.17-42-21.49-20.25-23.87-27.7-62.79,0-91.5,0,0,17.16-18.63,44.26-23.71A74.18,74.18,0,0,1,394.93,116C442.44,131.43,444.36,168.66,434.73,202Z"/><path class="cls-5" d="M313.75,228.7c-20.25-23.87-27.7-62.79,0-91.5,0,0,17.16-18.63,44.26-23.71C329.38,125.94,285.5,157.44,313.75,228.7Z"/><path class="cls-6" d="M367,192.68c2.55,3.49,7.61,3.82,11.4,2.51a6.88,6.88,0,0,0,3.34-2.53.6.6,0,0,1,.83-.16.61.61,0,0,1,.26.49,5.1,5.1,0,0,1-.92,2.77c-3.43,4.85-11.75,4.86-15.21,0-.49-.72-1.73-3.26-.29-3.45a.68.68,0,0,1,.59.34Z"/><path class="cls-6" d="M387.52,180.92c.75-7.21,7.83-12.39,14.9-13,5.61-.58,12.1,1.62,15.65,6.46a8.63,8.63,0,0,1,2,5.91,3.51,3.51,0,0,1-6.09,2.05,14.59,14.59,0,0,1-2.41-3.42,12.52,12.52,0,0,0-9.14-5.85c-5.61-.75-11.79,2.44-13.79,8.06a.57.57,0,0,1-1.1-.24Z"/><path class="cls-6" d="M360.07,181.16c-2-5.62-8.17-8.81-13.79-8.06a12.5,12.5,0,0,0-9.13,5.85c-1.41,2.7-4,6.34-7.35,3.7-2.34-2.27-.84-6.06.83-8.24,3.55-4.84,10-7,15.65-6.46,7.07.58,14.15,5.76,14.89,13a.57.57,0,0,1-1.1.24Z"/><path class="cls-7" d="M387.71,114h0l-1.65-.35a73.59,73.59,0,0,0-20.39-1.22c-.72,0-1.44.12-2.15.2-.17-10.15-.34-43.26,3.8-71h0C371.12,16.22,378.58-4.69,393,.92c7.53,2.92,11.32,10.43,12.69,20.32C409.85,50.82,392.24,101.61,387.71,114Z"/><path class="cls-7" d="M440.75,107.74h0c-10.58,10.77-19.51,18.65-21.55,20.42l-.14.13a65.78,65.78,0,0,0-9.62-6.2h0c-2.22-1.18-4.56-2.3-7.07-3.34l-3.43-2s18.58-37.21,38.84-64.14C453,32.27,469.26,17.8,479.24,29.47,494.47,47.28,463.72,84.33,440.75,107.74Z"/><path class="cls-7" d="M437.75,52.56c-8.72,33.2-28.13,69.57-28.13,69.57l-.19,0h0c-2.22-1.18-4.56-2.3-7.07-3.34-2.34-1-4.81-1.89-7.41-2.73s-4.85-1.45-7.22-2h0l-1.65-.35c1.61-14.82,7.64-63.85,19.68-92.45,6.6-15.69,15-25.24,25.5-19.61C444.67,8.84,443.69,30,437.75,52.56Z"/><path class="cls-7" d="M465.86,129.2c-15.11,6.1-29.23,10.33-34.95,12q-.5-.78-1-1.53a52.32,52.32,0,0,0-10.35-10.94h0l-.34-.52-2.26-3.44s10.09-7.78,23.81-17h0C468,89.43,509.69,65.51,515.07,86,519.63,103.33,491.35,118.93,465.86,129.2Z"/><path class="cls-7" d="M545.94,134.83c-1,13.5-17.37,20.79-37.38,24.62h0c-25.68,4.94-57.27,4.2-69.79,3.64-.07-.56-.16-1.12-.25-1.68a52.3,52.3,0,0,0-7.59-20.24q-.5-.78-1-1.53c5.42-1.78,19.45-6.24,36-10.44C501.06,120.28,547.54,112.6,545.94,134.83Z"/><path class="cls-7" d="M544.38,222.57c-7.78,14.15-31.81,11.08-55.82,3.49h0c-22.57-7.16-45.12-18.32-54.12-23,.11-.34.21-.68.31-1,.2-.7.4-1.4.59-2.11,1.06-3.89,1.95-7.82,2.63-11.76.54-3.16.94-6.32,1.17-9.46,16,1.91,68.6,9.07,93.53,22.68C543.35,207.24,549,214.26,544.38,222.57Z"/><path class="cls-7" d="M561.69,184.62c-3.17,10.43-14.43,15.25-29,16.77-32.46,3.39-81.42-9.49-94.7-13.22.54-3.16.94-6.32,1.17-9.46a74.55,74.55,0,0,0-.37-15.62c-.07-.56-.16-1.12-.25-1.68,11.51-1,42.13-3.35,70-2h0C539.44,161,567,167.12,561.69,184.62Z"/><path class="cls-7" d="M525.32,272.05c-5.68,5.67-14,6.13-23.57,3.43-27.74-7.85-65.49-42.41-76.63-53,.25-.34.49-.69.73-1.05a65.62,65.62,0,0,0,8.57-18.32c.11-.34.21-.68.31-1,.2-.7.4-1.4.59-2.11,8.32,3.52,31.84,13.8,53.22,26.12h0C514.87,241.23,537.92,259.48,525.32,272.05Z"/><path class="cls-7" d="M460.89,341.51c-18.49,5.82-36.79-22.48-49.64-49.6a0,0,0,0,0,0,0A402.77,402.77,0,0,1,393.41,247l7.34-5.35.4-.18a64.18,64.18,0,0,0,9.48-5.17h0c.84-.55,1.64-1.12,2.44-1.72,3.8,4.55,17.84,21.6,30.91,40.84C462.86,303.24,479.71,335.58,460.89,341.51Z"/><path class="cls-7" d="M506.55,301.84c-14.68,11.85-41-6.46-62.56-26.38a401,401,0,0,1-34.77-36.9l1.41-2.22h0c.84-.55,1.64-1.12,2.44-1.72a54.36,54.36,0,0,0,12-12.18c.25-.34.49-.69.73-1.05,13.64,7.6,56.83,32.57,75.9,54.09C510.93,285.84,514.53,295.4,506.55,301.84Z"/><path class="cls-7" d="M397.73,359.56c-6.83-1-11.75-5.91-15.23-13.15-12.76-26.47-6.4-84.3-4.62-98.24L379,248a94.22,94.22,0,0,0,21.73-6.29l.4-.18c.91,3.56,6.49,26,10.09,50.39a0,0,0,0,1,0,0C416.19,325.36,417.42,362.47,397.73,359.56Z"/><path class="cls-7" d="M382.5,346.41c-2.74,15.12-8.49,24.92-19.32,22.24-7.5-1.85-12.29-8.08-15.18-16.81-9.7-29.35,2.18-87,5.47-101.65h0q1.13,0,2.25,0,5.25-.15,10.17-.56h0c4.17-.34,8.15-.83,12-1.46L379,248C381,261.67,388.14,315.3,382.5,346.41Z"/><path class="cls-7" d="M352.25,250.14c-2.68,9.68-15.64,54.85-31.62,83.63-10.18,18.32-21.57,30-32.32,21.64-15.16-11.78-4.11-41.45,10.38-67.73a417.08,417.08,0,0,1,29.84-45.82c1.19.78,2.4,1.51,3.63,2.18a47.49,47.49,0,0,0,19,6C351.5,250.1,351.88,250.12,352.25,250.14Z"/><path class="cls-7" d="M375,251.41s-8.84,74.94-27,100.43c-5.26,7.37-11.29,10.61-18.11,6.73-7.62-4.34-10-13.51-9.26-24.8,1.88-29,24.2-72.07,30.5-83.71.37,0,.75.06,1.12.08s.81,0,1.22.05h0q1.13,0,2.25,0,5.25-.15,10.17-.56h0Z"/><path class="cls-7" d="M332.16,244a531.33,531.33,0,0,1-33.47,43.64C278.1,311.46,254,332.84,244,317.44c-12-18.31,18.79-48.33,43.59-68.32l0,0c12.49-10.07,23.48-17.59,26.71-19.76.4.46.79.9,1.2,1.34h0a67,67,0,0,0,13,11.17C329.72,242.64,330.93,243.37,332.16,244Z"/><path class="cls-7" d="M297.32,166.63a63.5,63.5,0,0,0-1.08,23.07c-19.75-1.74-120.11-12-105.67-40.16,8.39-16.34,38.86-10.59,66-1.43A390.19,390.19,0,0,1,297.73,165C297.58,165.55,297.45,166.09,297.32,166.63Z"/><path class="cls-7" d="M307.55,144.54c-.28.38-.55.76-.81,1.15a61.2,61.2,0,0,0-9,19.32c-.15.54-.28,1.08-.41,1.62-7.29-3-23.77-9.86-40.78-18.52-30-15.25-61.7-36-47.87-50.28,10-10.35,29.09-3.76,48.07,7.6h0C278.16,118.24,299.45,137.09,307.55,144.54Z"/><path class="cls-7" d="M323.31,129c-.42.3-.82.6-1.21.9a71,71,0,0,0-8.38,7.35,69.18,69.18,0,0,0-6.17,7.34c-.28.38-.55.76-.81,1.15-8.45-6-31.47-22.68-50-40.25h0C237,86.72,222.46,67.05,236,58.34c21.37-13.74,58.14,30.31,76.72,55.55l0,0C317.93,121,321.69,126.5,323.31,129Z"/><path class="cls-7" d="M343.7,117.62c-.6.23-1.2.48-1.79.73a90.32,90.32,0,0,0-18.6,10.6c-.42.3-.82.6-1.21.9-1.1-1.8-4.67-7.68-9.33-15.92l0,0c-18-31.82-52.21-98.82-24-103.24,19.55-3.07,33.86,27.36,43,56.77A420.49,420.49,0,0,1,343.7,117.62Z"/><path class="cls-7" d="M315.68,231s-12,8.41-28.09,18.12l0,0c-31,18.68-77,42.12-81.86,19.58-4.22-19.65,28.78-35.57,57.69-45.59a406.74,406.74,0,0,1,39.46-11.33c.37.81.77,1.62,1.19,2.41a77.35,77.35,0,0,0,9.71,14.51l.55.64c.4.46.79.9,1.2,1.34h0Z"/><path class="cls-7" d="M304,214.19c-2.49.65-19.75,5.12-40.65,8.92-37.45,6.82-86.57,11.53-83.32-11.59,4.67-33.13,96.63-24,116.19-21.68a73.36,73.36,0,0,0,6.59,21.94C303.22,212.59,303.62,213.4,304,214.19Z"/><ellipse class="cls-8" cx="335.09" cy="196.39" rx="6.78" ry="3.54"/><ellipse class="cls-8" cx="416.24" cy="196.39" rx="6.78" ry="3.54"/><path class="cls-7" d="M365.66,112.47c-.72,0-1.44.12-2.15.2q-2.83.31-5.53.82a78.38,78.38,0,0,0-14.28,4.13c-.6.23-1.2.48-1.79.73-1.66-6.61-6.87-28.14-10.19-50.93C326.93,34.57,326-.92,345.32,1.87c13.57,2,19.65,19.24,22,39.81h0C370.39,68.76,367,101.51,365.66,112.47Z"/><path class="cls-9" d="M367.31,41.68l.78-4.86s8.69,19.16,0,75.5l-2.43.15S373.68,85.94,367.31,41.68Z"/><path class="cls-9" d="M341.91,118.35l-1.74.75S333.72,103.71,330,62l2.24,8.63S338,104.12,341.91,118.35Z"/><path class="cls-9" d="M440.45,49.08S432.59,79.63,412,123.5c-1.44-.84-2.38-1.37-2.38-1.37s8.9-11.35,28.18-69.57Z"/><path class="cls-9" d="M405.73,21.24,407,18.42s-6,62.4-16.26,96.44l-3-.82S395.9,92.38,405.73,21.24Z"/><path class="cls-9" d="M312.74,113.89l-2.06-2.77s2.74,7.57,10.57,19.49l1.55-1.29A70.55,70.55,0,0,1,312.74,113.89Z"/><path class="cls-9" d="M256.76,105.44l-3.08-3s23.38,12.91,54.17,41.45l-1.11,1.76S277.54,119.55,256.76,105.44Z"/><path class="cls-9" d="M256.54,148.11l-5.11-1.67s6.06,5.74,45.6,21.47l.29-1.28S270.51,155.59,256.54,148.11Z"/><path class="cls-9" d="M278.24,188.11s13.9,1.19,18,1.59l.16,1.17a104.75,104.75,0,0,1-21.82-3Z"/><path class="cls-9" d="M262.69,223.24A343.47,343.47,0,0,0,304,214.19l.73,1.36s-17.63,7.77-46.7,9.45Z"/><path class="cls-9" d="M315.51,230.69a160.35,160.35,0,0,0-27.95,18.43l-5.48,3.26S293,242.42,314,229C315.77,231,315.51,230.69,315.51,230.69Z"/><path class="cls-9" d="M298.69,287.68S328.64,251.6,332.16,244l2.43,1.27s-24.09,32.43-38.18,46.59Z"/><path class="cls-9" d="M352.25,250.14s-26.89,47.13-31.62,83.63c-1.61,2.86-2,3.55-2,3.55s5-41.09,31.93-87.32Z"/><path class="cls-9" d="M348,351.84s24.49-40.62,24.66-102.91l1-.13S375.4,304.24,348.35,353A6.24,6.24,0,0,1,348,351.84Z"/><path class="cls-9" d="M382.5,346.41s-12.6-34.25-12.16-58.77l-.6,3.47s-1.13,14.31,12.44,56.94Z"/><path class="cls-9" d="M401.15,241.51s5.39,20.79,10.09,50.39l.7,1.45a468.84,468.84,0,0,0-9.87-52.26Z"/><path class="cls-9" d="M444,275.46s-25.18-24.33-33.36-39.12l-.95.65s8.24,14.33,37.91,43.87Z"/><path class="cls-9" d="M425.85,221.39s55.58,30,75.9,54.09c1.89.5-13.9-20.23-75.05-55.38Z"/><path class="cls-9" d="M488.56,226.06a402.37,402.37,0,0,1-53.24-26.13l-.4,1.44a370.1,370.1,0,0,0,57.19,26.77Z"/><path class="cls-9" d="M439.12,178.71s63.15,5.34,93.53,22.68l2.36-.28S503.47,183.88,439.23,177Z"/><path class="cls-9" d="M440.75,107.74A79.71,79.71,0,0,1,419.87,129c1.21,1,.73.59.73.59s14.93-11.47,23.15-23.83Z"/><path class="cls-9" d="M470.59,127.24s-23.8,6.14-38.36,16.1c.46.81.44.79.44.79s18.95-11.24,33.19-14.93Z"/><path class="cls-9" d="M438.75,163.09s20.48,1.29,69.79-3.64l2.8.16s-20,4.26-72.37,5.29Z"/><path class="cls-1" d="M144.34,589c-8,30.34-4.34,90.07-2.36,114.86.55,7,1,11.2,1,11.2H130.54s-1.93-78.89,5-107.58S147.9,503.84,147.9,503.84l4.72-2.56,1.9-1S154.54,550.07,144.34,589Z"/><path class="cls-2" d="M144.34,589c-8,30.34-4.34,90.07-2.36,114.86l-3,1.68s-5.86-84,2.51-112c10.84-42.22,11.89-79.92,11.09-88.86l1.9-1S154.54,550.07,144.34,589Z"/><path class="cls-1" d="M142.41,574.39s-1-.41-2.55-1.22c-5.83-3-19.39-11.78-16.26-25.67.58-2.62,1.4-4,2.36-4.56,5.52-3,15.82,23.41,15.82,23.41Z"/><path class="cls-3" d="M162.06,641q.54-.56,1.05-1.11A14,14,0,0,1,162.06,641Z"/><path class="cls-1" d="M163.14,573.43a41.28,41.28,0,0,1-17.37,3.72l2.11-8s11.76-11.67,20-16.15c5.23-2.85,9-2.8,7.49,5C173.77,566,168.67,570.72,163.14,573.43Z"/><path class="cls-2" d="M163.14,573.43c6.23-5,12.11-12.13,11.58-19.87-.23-3.41-6.84-.55-6.84-.55h0c5.23-2.85,9-2.8,7.49,5C173.77,566,168.67,570.72,163.14,573.43Z"/><path class="cls-7" d="M240.7,435.41c-1.43,1.67-4.36,2.79-3.36,3.61s2.95,3.43,2,4.05-3.55,3.15-3.64,3.15a14.36,14.36,0,0,0-1,1.6s4.39,5.29,2.86,5.79-1,3.68-1.83,4.08.95,4.37-1.72,3.65,1.41,3.1-.1,4-2.19,6.34-3.27,5.63c-.53-.37-1.69-.12-2.7.2a2.11,2.11,0,0,0-1.38,2.44c.47,2.27,1,6-.35,6.16a22.91,22.91,0,0,1-2.8.1,2.1,2.1,0,0,0-2.13,2.29c.18,1.93.21,4.29-.7,4a11.28,11.28,0,0,0-3.43-.13,2.08,2.08,0,0,0-1.89,1.56c-.37,1.43-1,3.46-1.45,3.75a15,15,0,0,1-3.28.82,2.1,2.1,0,0,0-1.72,1.72,6.38,6.38,0,0,1-1,2.87,5.86,5.86,0,0,1-2.6,2,8.88,8.88,0,0,1-3.2.18,2.12,2.12,0,0,0-2.15,1.46c-.15.47-.36.86-.67.86-.76,0-3.72,3.89-4.79,3.51s-5.63,2.12-6.39,1.6a8.9,8.9,0,0,0-2-.91s-5.89,6.94-8,6c-1.51-.64-3.76-1.7-5-2.27a2.06,2.06,0,0,0-1.7,0c-2.42,1-9.12,3.78-8.94,3.12s-1.74.09-2.75-.41a5.64,5.64,0,0,1-1.83-2.33s-5.68,3.64-7.11,2.83-2.53-2.74-3.34-2.83S146,507.9,146,507.9s-1.48,2.15-3.1,1.65-4,.81-5.08,0-3.24-2.34-3.77-3.56-4.15,1.79-5.27.26-8.11-2.6-6.75-4.5.86-3.27.86-3.27-3.39,2-5.42.93c-1.15-.63-1.61-2.42-1.79-3.87a2.08,2.08,0,0,0-2.13-1.8,4.05,4.05,0,0,1-2.32-.49c-1.27-.9-4.46-1.62-4.82-2.52s-2.29-3.06-2.1-4.06a24.57,24.57,0,0,0-.36-4.65s-1.55,2.65-3.08,1.26c-1-.92-1.45-4.24-1.62-6.27a2.1,2.1,0,0,0-1.6-1.86c-.56-.14-1-.34-.81-.62.46-.6-.12-3.22-.12-3.22s-6.2,2.46-6.13-1.33-2.21-6.87-1.74-6.87.22-4.42.84-5a3.66,3.66,0,0,0,.52-2.15s-5.7-2.19-5.17-3.72c.33-1,1.72-3.85,2.66-5.77a2.11,2.11,0,0,0-.83-2.75c-1.37-.8-3-2-2.9-3.08S85.71,438,87,437a2.09,2.09,0,0,0,.49-2.73,24.19,24.19,0,0,0-2.82-4.11c-1.88-1.47.55-5.3.74-5.74.83-2,4-2.29,4-2.29s-2.88-2.46-2.21-3.9c.54-1.14.58-5.63,1.72-5.63a6.59,6.59,0,0,0,2.78-1.11s-2.18-3.59-1.51-4.12,1.14-6.53,2.74-7.15,4.6-2.4,5.08-2.54.91-1,.91-1l.25-1.88s-8.31-7.05-2.68-8a29.28,29.28,0,0,1,5.61-.39,2.09,2.09,0,0,0,2-2.75c-.46-1.44-.56-3,.73-3.54a21.39,21.39,0,0,1,6.71-1.09,2.09,2.09,0,0,0,2-1.91c.19-2.29.76-5.85,2.41-5.85a10.66,10.66,0,0,1,2.89.51,2.11,2.11,0,0,0,2.69-2.08c0-2.92.27-6.63,2.17-5.58,1,.57,2.12,1.24,3.09,1.86a2.1,2.1,0,0,0,3.23-1.7c.09-3.1.63-6.7,2.82-5.34,3.64,2.29,5.79,1.69,7.15,2.29a19.22,19.22,0,0,1,2,1.12,2.11,2.11,0,0,0,2.78-.49c1.25-1.61,3.27-3.79,4.65-3.21a9.32,9.32,0,0,1,2.65,1.85,2.08,2.08,0,0,0,2.57.21c1.68-1.1,4.38-2.73,5.89-2.82a3.66,3.66,0,0,1,2.91,1.74,2.13,2.13,0,0,0,2.81.51c2.11-1.32,5.54-3.18,6.76-2.25a11.8,11.8,0,0,1,2.34,2.67,2,2,0,0,0,2.43.81,4,4,0,0,1,2.38-.14,7.43,7.43,0,0,1,4.46,3,2.07,2.07,0,0,0,1.78.8,47.34,47.34,0,0,1,6.86-.11c1.83.31,4.72-.45,4.89.62.06.51.2,1.8.32,3a2.11,2.11,0,0,0,2.75,1.79c1.8-.58,3.91-1.11,3.91-.41,0,1.22-.45,4,1.08,4s7.15-.62,6.08.31-1.86,4.87.14,4.87,5.34-.62,5,1.07a34.59,34.59,0,0,0,0,5.42,2.11,2.11,0,0,0,1,1.68c1.19.73,3.11,2,3.32,2.63a13,13,0,0,1,.42,1.82,2.11,2.11,0,0,0,1.34,1.6c1.78.65,5.05,2.06,5.33,3.67a13.29,13.29,0,0,1-.32,4.42,2.1,2.1,0,0,0,.83,2.14c1.58,1.15,4.21,3.28,4,4.62a5.58,5.58,0,0,1-.59,1.9,2.15,2.15,0,0,0,.46,2.61c1.11,1,2.45,2.3,2.5,3.17a10.85,10.85,0,0,1-.89,3.46,2,2,0,0,0,.41,2.2,11.29,11.29,0,0,1,2.6,4.43,3.9,3.9,0,0,1,0,3,2,2,0,0,0,1.14,2.72c.73.32,1.25.69,1.14,1.09C239.77,433.84,242.11,433.72,240.7,435.41Z"/><path class="cls-10" d="M151.18,513a1.62,1.62,0,0,1-.79-.18,9.11,9.11,0,0,1-2-1.74c-.38-.4-.94-1-1.16-1a2.11,2.11,0,0,1-1.43-1.19,3.2,3.2,0,0,1-3.13,1.17,5.41,5.41,0,0,0-2.31.1c-1.06.19-2.15.39-2.93-.18-1.63-1.18-3.38-2.52-3.93-3.75a5.29,5.29,0,0,0-1.46.42c-1.3.48-2.92,1.08-3.77-.08a9.22,9.22,0,0,0-3-1.51c-2-.76-3.63-1.41-4-2.48a1.29,1.29,0,0,1,.22-1.15,4.13,4.13,0,0,0,.84-2.1c-1.18.57-3.54,1.46-5.21.55-1.1-.6-1.8-2-2.08-4.27a1.53,1.53,0,0,0-1.55-1.33h0a4.49,4.49,0,0,1-2.65-.59,12.16,12.16,0,0,0-2.15-1c-1.38-.54-2.56-1-2.86-1.76a9.43,9.43,0,0,0-.74-1.21c-.76-1.12-1.55-2.27-1.38-3.14a15.7,15.7,0,0,0-.19-3.22,2.82,2.82,0,0,1-1.5.85,1.85,1.85,0,0,1-1.58-.52c-.9-.8-1.51-3-1.8-6.62a1.54,1.54,0,0,0-1.19-1.38c-.73-.18-1.09-.41-1.22-.77a.72.72,0,0,1,.11-.7,5.42,5.42,0,0,0-.1-2.18c-1.21.4-3.84,1.09-5.28.08A2.36,2.36,0,0,1,90,470a13.17,13.17,0,0,0-1.42-5.67c-.35-.8-.5-1.13-.28-1.46a.46.46,0,0,1,.15-.16,14.45,14.45,0,0,0,.15-1.67c.13-1.93.23-2.89.66-3.3a2.53,2.53,0,0,0,.36-1.39c-2-.8-5.73-2.55-5.14-4.27.33-1,1.65-3.71,2.69-5.83a1.55,1.55,0,0,0-.63-2c-2.25-1.32-3.29-2.5-3.16-3.61s1.23-2.37,3.24-4a1.54,1.54,0,0,0,.37-2c-2-3.25-2.55-3.86-2.69-4-2-1.57-.17-5,.44-6.12.06-.12.11-.2.13-.25a4.8,4.8,0,0,1,3.32-2.41c-.91-.95-2.15-2.54-1.56-3.8a10.69,10.69,0,0,0,.42-2c.31-2,.6-3.92,1.79-3.92a4.87,4.87,0,0,0,2-.75c-2.08-3.59-1.35-4.17-1.1-4.36a13,13,0,0,0,.57-2.12c.62-2.71,1.14-4.66,2.31-5.12A34.43,34.43,0,0,0,96.18,398a13.2,13.2,0,0,1,1.6-.81,2.08,2.08,0,0,0,.55-.67l.2-1.49c-1.11-1-5.18-4.74-4.53-7.08.24-.88,1-1.43,2.33-1.64a30.51,30.51,0,0,1,5.71-.4,1.46,1.46,0,0,0,1.27-.62,1.54,1.54,0,0,0,.24-1.42c-.87-2.71.07-3.78,1-4.2a21.57,21.57,0,0,1,6.91-1.14A1.54,1.54,0,0,0,113,377.1c.36-4.21,1.35-6.34,3-6.34a10.67,10.67,0,0,1,3,.54,1.49,1.49,0,0,0,1.35-.25,1.6,1.6,0,0,0,.65-1.32c-.06-5.23,1-5.9,1.41-6.11a1.49,1.49,0,0,1,1.56.05c.93.52,2,1.15,3.12,1.89a1.54,1.54,0,0,0,1.58.06,1.51,1.51,0,0,0,.82-1.32c.1-3.44.67-5.4,1.75-6a1.81,1.81,0,0,1,1.89.19,11.76,11.76,0,0,0,5.34,1.87,6.74,6.74,0,0,1,1.75.38,20,20,0,0,1,2.09,1.16,1.55,1.55,0,0,0,2.06-.37c2.18-2.8,4-3.93,5.29-3.36a9.35,9.35,0,0,1,2.81,1.95,1.55,1.55,0,0,0,1.91.15c1.93-1.27,4.57-2.81,6.15-2.91,1.13-.09,2.31.59,3.37,1.94a1.58,1.58,0,0,0,2.09.39c5.66-3.53,6.95-2.54,7.37-2.22a12.08,12.08,0,0,1,2.47,2.79,1.46,1.46,0,0,0,1.76.62,4.61,4.61,0,0,1,2.7-.17,8.06,8.06,0,0,1,4.79,3.16,1.52,1.52,0,0,0,1.31.59,49.13,49.13,0,0,1,7-.11,11.3,11.3,0,0,0,2.2.05c1.52-.06,3-.12,3.14,1,.06.43.17,1.43.33,3.06a1.56,1.56,0,0,0,.7,1.15,1.6,1.6,0,0,0,1.35.18c3.08-1,3.89-.84,4.28-.56a.78.78,0,0,1,.33.66c0,.21,0,.47,0,.76,0,.8-.12,2.15.27,2.55a.33.33,0,0,0,.29.11c.36,0,1,0,1.67-.08,3.72-.22,4.77-.19,5,.48a.74.74,0,0,1-.28.86,4.23,4.23,0,0,0-.79,3.47.56.56,0,0,0,.58.45c.4,0,.85,0,1.33-.06,1.68-.09,3.26-.18,3.95.61a1.32,1.32,0,0,1,.29,1.16,29,29,0,0,0,0,5.29,1.57,1.57,0,0,0,.74,1.25c3.24,2,3.46,2.67,3.55,2.92a15.52,15.52,0,0,1,.44,1.9,1.53,1.53,0,0,0,1,1.18c2.42.89,5.37,2.32,5.67,4.08a13.77,13.77,0,0,1-.32,4.63,1.57,1.57,0,0,0,.61,1.6c3,2.16,4.42,3.89,4.27,5.12a6,6,0,0,1-.65,2.07,1.6,1.6,0,0,0,.33,2c2.62,2.28,2.67,3.24,2.69,3.56a10.52,10.52,0,0,1-.93,3.68,1.53,1.53,0,0,0,.3,1.63,11.72,11.72,0,0,1,2.72,4.64,4.38,4.38,0,0,1-.07,3.39,1.28,1.28,0,0,0,0,1,1.73,1.73,0,0,0,.92,1c.42.18,1.71.74,1.44,1.72,0,.08,0,.12.33.4a1.64,1.64,0,0,1,.76,1.09,2,2,0,0,1-.57,1.41h0a11.93,11.93,0,0,1-2.15,1.81,8,8,0,0,0-1.26,1c.91.75,2.5,2.73,2.45,4a1.12,1.12,0,0,1-.49.91c-.52.35-1.77,1.48-2.6,2.24-.57.52-.85.77-1,.89s-.42.64-.7,1.12c1.2,1.47,3.39,4.41,3,5.69a1,1,0,0,1-.65.67c-.58.19-.75,1.21-.9,2.1s-.27,1.58-.78,1.9a5.3,5.3,0,0,0,0,1c.07.93.14,2-.54,2.56a1.78,1.78,0,0,1-1.65.2l-.18,0c.09.23.25.55.37.79.54,1.06,1.28,2.51.13,3.2-.58.35-1.13,1.9-1.54,3-.56,1.57-.9,2.48-1.55,2.69a.87.87,0,0,1-.75-.11c-.08-.06-.54-.28-2.24.27a1.55,1.55,0,0,0-1,1.81c1,5,.3,6,.06,6.28a1.23,1.23,0,0,1-.88.53,23.39,23.39,0,0,1-2.86.1,1.54,1.54,0,0,0-1.18.5,1.52,1.52,0,0,0-.41,1.2c.3,3.29-.12,4.09-.52,4.41a.92.92,0,0,1-.88.16,10.58,10.58,0,0,0-3.24-.11,1.56,1.56,0,0,0-1.4,1.16c-.93,3.61-1.45,3.92-1.7,4.07s-.62.39-3.46.89a1.57,1.57,0,0,0-1.28,1.28,6.25,6.25,0,0,1-1.15,3.14l-.22.24a5.79,5.79,0,0,1-2.57,1.88,8.82,8.82,0,0,1-3.44.22,1.57,1.57,0,0,0-1.59,1.08c-.26.8-.64,1.22-1.14,1.24a11.52,11.52,0,0,0-1.49,1.3c-1.61,1.56-2.65,2.49-3.53,2.18a9.94,9.94,0,0,0-2.91.84c-2,.73-3,1.1-3.61.69a7.62,7.62,0,0,0-1.52-.72c-1.43,1.65-6.18,6.85-8.4,5.9-1.51-.63-3.78-1.7-5-2.28a1.5,1.5,0,0,0-1.26,0c-8.8,3.7-9.17,3.38-9.49,3.1a.59.59,0,0,1-.18-.29,3.57,3.57,0,0,0-.46,0,3.73,3.73,0,0,1-2-.15,5,5,0,0,1-1.81-2.05C156,511.26,153,513,151.18,513Zm11.7-.65v0Zm-16.76-5.65.35,1c.21.58.64,1.26.91,1.29.62.07,1.15.64,1.83,1.37a8.85,8.85,0,0,0,1.72,1.54c.68.38,3.94-1.15,6.55-2.83l.53-.34.25.58a5,5,0,0,0,1.58,2.07,3,3,0,0,0,1.41,0c.61-.06,1.15-.12,1.47.24a1.05,1.05,0,0,1,.08.13,71.52,71.52,0,0,0,8.28-3.14,2.58,2.58,0,0,1,2.14.05c1.21.57,3.47,1.63,5,2.26,1.09.46,4.68-2.7,7.39-5.89l.23-.27.34.11a9.06,9.06,0,0,1,2.12.95,10.85,10.85,0,0,0,2.65-.79c1.82-.69,3-1.09,3.65-.85h0c.41,0,1.76-1.3,2.41-1.94,1.07-1,1.62-1.55,2.12-1.59a1.51,1.51,0,0,0,.23-.5,2.62,2.62,0,0,1,2.69-1.82,7.53,7.53,0,0,0,3-.15,4.8,4.8,0,0,0,2.19-1.62l.22-.23a5.76,5.76,0,0,0,.88-2.59,2.62,2.62,0,0,1,2.15-2.16,12.21,12.21,0,0,0,3.09-.75s.44-.41,1.21-3.42a2.64,2.64,0,0,1,2.38-2,11.65,11.65,0,0,1,3.54.13c.1-.2.32-.95.09-3.41a2.66,2.66,0,0,1,2.68-2.88,20.91,20.91,0,0,0,2.72-.1s.08,0,.14-.09c.32-.45.43-2.11-.25-5.43a2.64,2.64,0,0,1,1.75-3.05c1.42-.46,2.42-.54,3-.22a10.64,10.64,0,0,0,.83-2c.53-1.51,1.08-3.06,2-3.61.28-.17-.25-1.22-.54-1.78-.44-.87-.8-1.56-.38-2.07s1.14-.29,1.43-.21a.87.87,0,0,0,.69,0c.25-.2.19-1.07.15-1.65-.06-.85-.12-1.65.49-2a4.06,4.06,0,0,0,.29-1.16c.18-1.12.42-2.51,1.58-2.93.07-.59-1.33-2.86-3.07-5l-.24-.29.19-.32c.83-1.42,1.07-1.76,1.28-1.84l.83-.75a34.07,34.07,0,0,1,2.74-2.34c.19-.37-1-2.35-2.07-3.18a1,1,0,0,1-.41-.81c0-.69.74-1.21,1.74-1.93a11.17,11.17,0,0,0,2-1.63c.33-.4.33-.57.32-.6s-.2-.24-.35-.36a1.41,1.41,0,0,1-.71-1.48,2.12,2.12,0,0,0-.82-.5,2.82,2.82,0,0,1-1.5-1.57,2.4,2.4,0,0,1,.08-1.88,3.39,3.39,0,0,0,0-2.59,10.67,10.67,0,0,0-2.46-4.22,2.6,2.6,0,0,1-.53-2.77,10.23,10.23,0,0,0,.85-3.24c0-.4-.64-1.34-2.31-2.79a2.7,2.7,0,0,1-.59-3.27,5.22,5.22,0,0,0,.54-1.71c.07-.57-.89-2-3.83-4.12a2.65,2.65,0,0,1-1-2.69,12.54,12.54,0,0,0,.32-4.22c-.17-.94-2.07-2.19-5-3.26a2.61,2.61,0,0,1-1.68-2,11.93,11.93,0,0,0-.4-1.74c-.08-.21-.83-.95-3.09-2.36a2.63,2.63,0,0,1-1.25-2.1,33.23,33.23,0,0,1,0-5.55c0-.18,0-.23,0-.25-.34-.39-2-.3-3.08-.24-.49,0-1,.06-1.39.06a1.63,1.63,0,0,1-1.6-1.16,5.44,5.44,0,0,1,.71-4.21c-.9-.05-2.65.05-3.59.11-.73,0-1.35.08-1.74.08a1.42,1.42,0,0,1-1.07-.44c-.71-.74-.63-2.19-.57-3.36,0-.17,0-.34,0-.49a10.3,10.3,0,0,0-3.2.71,2.64,2.64,0,0,1-3.45-2.24c-.17-1.6-.28-2.61-.33-3a5.71,5.71,0,0,0-2-.1,12,12,0,0,1-2.41-.06,44.37,44.37,0,0,0-6.74.12,2.59,2.59,0,0,1-2.24-1,7,7,0,0,0-4.13-2.75,3.67,3.67,0,0,0-2.06.1,2.54,2.54,0,0,1-3.1-1,10.77,10.77,0,0,0-2.22-2.54c-.55-.42-2.44,0-6.15,2.28A2.67,2.67,0,0,1,163,360c-.58-.74-1.48-1.61-2.45-1.53s-3.09,1.06-5.63,2.73a2.61,2.61,0,0,1-3.24-.27,8.61,8.61,0,0,0-2.5-1.74c-.76-.33-2.3.84-4,3a2.65,2.65,0,0,1-3.49.62,20.67,20.67,0,0,0-2-1.09,5.71,5.71,0,0,0-1.45-.3,12.67,12.67,0,0,1-5.77-2c-.51-.32-.73-.2-.8-.16-.25.13-1.07.89-1.19,5.06a2.59,2.59,0,0,1-1.4,2.25,2.61,2.61,0,0,1-2.66-.11c-1.12-.72-2.15-1.35-3.06-1.85-.32-.18-.44-.1-.49-.08s-.93.79-.88,5.18a2.72,2.72,0,0,1-1.08,2.2,2.59,2.59,0,0,1-2.31.41,9.93,9.93,0,0,0-2.73-.49c-.86,0-1.6,2.1-1.87,5.35a2.63,2.63,0,0,1-2.52,2.41,20,20,0,0,0-6.51,1c-.79.35-.94,1.33-.43,2.89a2.65,2.65,0,0,1-.41,2.4A2.59,2.59,0,0,1,102,387a29.83,29.83,0,0,0-5.5.38c-.86.14-1.35.43-1.47.86-.4,1.44,2.5,4.55,4.41,6.18l.23.19-.31,2.27,0,.08a3,3,0,0,1-1.21,1.27c-.18.06-.84.42-1.43.73a33.82,33.82,0,0,1-3.64,1.8c-.71.28-1.31,2.92-1.63,4.35a6.59,6.59,0,0,1-.89,2.66,11.07,11.07,0,0,0,1.56,3.49l.26.43-.42.29a6.88,6.88,0,0,1-3.08,1.2c-.3.21-.59,2.1-.73,3a10.46,10.46,0,0,1-.5,2.32c-.34.72,1,2.37,2.07,3.26l1,.82-1.25.13s-2.81.31-3.51,2l-.18.35c-1.34,2.48-1.58,4.08-.73,4.75.19.15.76.59,3,4.26a2.65,2.65,0,0,1-.62,3.43c-1.72,1.36-2.75,2.55-2.84,3.26-.06.45.61,1.36,2.63,2.54a2.63,2.63,0,0,1,1.05,3.46c-1.45,2.95-2.39,5-2.64,5.71-.16.46,2,1.92,4.86,3l.33.12v.36a4,4,0,0,1-.67,2.54,10.37,10.37,0,0,0-.35,2.61,6.07,6.07,0,0,1-.34,2.26c.06.15.15.34.23.52A14.28,14.28,0,0,1,91.09,470a1.37,1.37,0,0,0,.51,1.24c1.14.79,4-.06,4.89-.42l.59-.24.13.63a8,8,0,0,1,.19,3.33l.34.1a2.63,2.63,0,0,1,2,2.34c.25,3.12.79,5.33,1.44,5.91a.8.8,0,0,0,.69.26c.67-.11,1.37-1.07,1.56-1.39l.77-1.3.23,1.49a22.77,22.77,0,0,1,.36,4.84c-.08.42.73,1.61,1.21,2.33a8.76,8.76,0,0,1,.86,1.42,6.93,6.93,0,0,0,2.25,1.15,12.3,12.3,0,0,1,2.38,1.14,3.64,3.64,0,0,0,2,.38h0a2.63,2.63,0,0,1,2.63,2.28c.22,1.81.76,3,1.51,3.45,1.44.78,4-.4,4.88-.92l.56-.33.22.61c0,.06.59,1.63-.92,3.77-.09.13-.08.19-.07.21.17.56,2.06,1.29,3.31,1.78,1.59.61,3,1.14,3.51,1.88.36.5,1.55.06,2.51-.3,1.12-.41,2.39-.89,2.82.16s2.55,2.56,3.55,3.29c.44.32,1.27.18,2.14,0A6.25,6.25,0,0,1,143,509c1.2.37,2.48-1.42,2.5-1.44Zm53.06-5h0Zm-108.72-94h0Z"/><path class="cls-10" d="M119.75,399.66a4.65,4.65,0,0,1-3.31-1.37l-2-2a.54.54,0,1,1,.77-.77l2,2a3.61,3.61,0,0,0,4.11.69l1.61-.78a.55.55,0,0,1,.73.25.55.55,0,0,1-.26.72l-1.61.78A4.57,4.57,0,0,1,119.75,399.66Z"/><path class="cls-10" d="M115.7,425.43h-.19l-2.88-.11a.54.54,0,0,1-.51-.56.52.52,0,0,1,.56-.52l2.87.12a3.59,3.59,0,0,0,3.49-2.27l.66-1.67a.54.54,0,0,1,1,.39l-.66,1.67A4.69,4.69,0,0,1,115.7,425.43Z"/><path class="cls-10" d="M106.3,461.5a.52.52,0,0,1-.49-.31.54.54,0,0,1,.26-.72l2.62-1.19a3.61,3.61,0,0,0,2.09-3.61l-.17-1.78a.55.55,0,0,1,.49-.59.54.54,0,0,1,.59.49l.17,1.79a4.68,4.68,0,0,1-2.72,4.68l-2.62,1.19A.44.44,0,0,1,106.3,461.5Z"/><path class="cls-10" d="M144.44,383.33a.54.54,0,0,1-.1-1.07l2.83-.53a3.61,3.61,0,0,0,2.9-3l.27-1.78a.53.53,0,0,1,.61-.45.55.55,0,0,1,.46.62l-.28,1.77a4.66,4.66,0,0,1-3.76,3.89l-2.83.53Z"/><path class="cls-10" d="M179.06,372.08a4.63,4.63,0,0,1-2.07-.49l-2.58-1.28a.53.53,0,0,1-.24-.72.54.54,0,0,1,.72-.25l2.58,1.28a3.61,3.61,0,0,0,4.11-.64l1.29-1.26a.54.54,0,1,1,.75.77l-1.29,1.26A4.67,4.67,0,0,1,179.06,372.08Z"/><path class="cls-10" d="M194.48,393.35a4.7,4.7,0,0,1-3.58-1.65l-1.85-2.2a.54.54,0,1,1,.82-.7l1.86,2.2a3.6,3.6,0,0,0,4,1l1.68-.64a.53.53,0,1,1,.38,1l-1.67.65A4.87,4.87,0,0,1,194.48,393.35Z"/><path class="cls-10" d="M219.09,422a.48.48,0,0,1-.28-.08l-1.54-.92a4.68,4.68,0,0,1-2.17-5l.58-2.82a.55.55,0,0,1,.64-.42.54.54,0,0,1,.42.64l-.58,2.82a3.58,3.58,0,0,0,1.67,3.81l1.53.93a.54.54,0,0,1,.19.74A.53.53,0,0,1,219.09,422Z"/><path class="cls-10" d="M196.47,435.62a4.71,4.71,0,0,1-3.31-1.36l-2-2a.54.54,0,0,1,.76-.76l2,2a3.62,3.62,0,0,0,4.11.7l1.62-.78a.54.54,0,1,1,.47,1l-1.62.78A4.7,4.7,0,0,1,196.47,435.62Z"/><path class="cls-10" d="M163.62,412.25a4.61,4.61,0,0,1-1.7-.32l-2.67-1a.54.54,0,1,1,.39-1l2.68,1.05a3.61,3.61,0,0,0,4-1l1.17-1.37a.54.54,0,0,1,.76-.05.55.55,0,0,1,.06.76l-1.17,1.36A4.69,4.69,0,0,1,163.62,412.25Z"/><path class="cls-10" d="M136.58,441.21a.55.55,0,0,1-.35-.12.54.54,0,0,1-.06-.77l1.86-2.19a3.6,3.6,0,0,0,.36-4.15l-.91-1.54a.55.55,0,0,1,.19-.74.53.53,0,0,1,.74.19l.91,1.55a4.66,4.66,0,0,1-.47,5.39L137,441A.53.53,0,0,1,136.58,441.21Z"/><path class="cls-10" d="M158.36,450.44a4.69,4.69,0,0,1-4.28-2.78L152.92,445a.54.54,0,0,1,1-.44l1.17,2.63a3.59,3.59,0,0,0,3.58,2.13l1.79-.15a.54.54,0,0,1,.58.5.53.53,0,0,1-.49.58l-1.79.15Z"/><path class="cls-10" d="M152.06,481.44a.52.52,0,0,1-.48-.31l-.78-1.61a4.68,4.68,0,0,1,.9-5.34l2-2a.54.54,0,0,1,.76,0,.55.55,0,0,1,0,.77l-2,2a3.61,3.61,0,0,0-.7,4.11l.78,1.61a.55.55,0,0,1-.49.78Z"/><path class="cls-10" d="M149.19,504.17a.63.63,0,0,1-.19,0,.55.55,0,0,1-.32-.7l.62-1.68a4.68,4.68,0,0,1,4.39-3.07h.07l2.88.05a.53.53,0,0,1,.53.55.55.55,0,0,1-.55.53l-2.87-.05a3.57,3.57,0,0,0-3.44,2.36l-.62,1.68A.53.53,0,0,1,149.19,504.17Z"/><path class="cls-10" d="M191.39,497.12a.53.53,0,0,1-.53-.47l-.24-1.78a4.66,4.66,0,0,1,2.54-4.78l2.57-1.3a.54.54,0,0,1,.72.24.54.54,0,0,1-.24.73l-2.57,1.29a3.63,3.63,0,0,0-1.95,3.68l.24,1.78a.54.54,0,0,1-.47.61Z"/><path class="cls-10" d="M184.5,468.15a4.67,4.67,0,0,1-2.41-.67L179.63,466a.54.54,0,1,1,.55-.92l2.47,1.48a3.62,3.62,0,0,0,4.15-.32l1.38-1.15a.54.54,0,1,1,.69.83l-1.38,1.15A4.7,4.7,0,0,1,184.5,468.15Z"/><path class="cls-10" d="M215.6,455a4.68,4.68,0,0,1-4.38-3.05l-1-2.7a.54.54,0,0,1,.32-.69.54.54,0,0,1,.7.32l1,2.69a3.6,3.6,0,0,0,3.44,2.35l1.79,0h0a.54.54,0,0,1,.54.53.56.56,0,0,1-.53.55l-1.8,0Z"/><path class="cls-10" d="M212.29,475.29l-.14,0a.54.54,0,0,1-.39-.65l.43-1.75a4.7,4.7,0,0,1,4.11-3.53l2.86-.26a.54.54,0,0,1,.59.49.53.53,0,0,1-.49.58l-2.86.27a3.6,3.6,0,0,0-3.16,2.72l-.43,1.74A.54.54,0,0,1,212.29,475.29Z"/><path class="cls-10" d="M121.63,481.44a.53.53,0,0,1-.35-.13.54.54,0,0,1-.06-.76l1.16-1.37a4.7,4.7,0,0,1,5.25-1.34l2.68,1a.54.54,0,0,1-.39,1l-2.68-1a3.6,3.6,0,0,0-4,1L122,481.25A.55.55,0,0,1,121.63,481.44Z"/><path class="cls-10" d="M95.75,437.91h-.06a.55.55,0,0,1-.48-.6l.31-2.86a3.58,3.58,0,0,0-2-3.63L91.87,430a.55.55,0,0,1-.26-.72.54.54,0,0,1,.72-.25l1.63.77a4.69,4.69,0,0,1,2.64,4.73l-.31,2.86A.55.55,0,0,1,95.75,437.91Z"/><path class="cls-6" d="M159.82,448a15.94,15.94,0,0,0,8,0c.26-.21.63-.06.55.29-1.1,2.79-8.05,2.8-9.17,0a.35.35,0,0,1,.49-.4l.13.07Z"/><circle class="cls-6" cx="149.6" cy="437.04" r="4.9"/><circle class="cls-11" cx="146.06" cy="434.52" r="1.36"/><circle class="cls-11" cx="147.72" cy="436.74" r="0.51"/><circle class="cls-6" cx="177.9" cy="437.04" r="4.9"/><circle class="cls-11" cx="181.44" cy="434.52" r="1.36"/><circle class="cls-11" cx="179.77" cy="436.74" r="0.51"/><ellipse class="cls-8" cx="142.62" cy="448.8" rx="3.66" ry="1.91"/><ellipse class="cls-8" cx="186.46" cy="448.8" rx="3.66" ry="1.91"/><path class="cls-1" d="M558.06,620.46c-8,30.34-4.34,90.07-2.36,114.86.55,7,1,11.2,1,11.2H544.26s-1.93-78.89,5-107.58,12.39-103.61,12.39-103.61l4.72-2.56,1.9-1S568.26,581.56,558.06,620.46Z"/><path class="cls-2" d="M558.06,620.46c-8,30.34-4.34,90.07-2.36,114.86l-3,1.68s-5.86-84,2.51-112c10.84-42.21,11.89-79.92,11.09-88.86l1.9-1S568.26,581.56,558.06,620.46Z"/><path class="cls-1" d="M556.13,605.88s-1-.41-2.55-1.22c-5.83-3-19.39-11.77-16.26-25.67.58-2.62,1.4-4,2.36-4.56,5.52-3,15.82,23.41,15.82,23.41Z"/><path class="cls-3" d="M575.78,672.52l1.05-1.1A13.8,13.8,0,0,1,575.78,672.52Z"/><path class="cls-1" d="M576.86,604.92a41.38,41.38,0,0,1-17.37,3.73l2.11-8s11.76-11.66,20-16.15c5.23-2.85,9-2.8,7.49,5C587.49,597.54,582.39,602.21,576.86,604.92Z"/><path class="cls-2" d="M576.86,604.92c6.23-5,12.11-12.13,11.58-19.87-.23-3.41-6.84-.55-6.84-.55h0c5.23-2.85,9-2.8,7.49,5C587.49,597.54,582.39,602.21,576.86,604.92Z"/><path class="cls-7" d="M654.42,466.91c-1.43,1.67-4.36,2.79-3.36,3.6s3,3.43,2,4.05-3.55,3.15-3.64,3.15a14.36,14.36,0,0,0-1,1.6s4.39,5.3,2.86,5.8-1,3.67-1.83,4.07.95,4.37-1.72,3.65,1.41,3.1-.1,4-2.19,6.35-3.27,5.63c-.53-.37-1.69-.12-2.7.21a2.09,2.09,0,0,0-1.38,2.43c.47,2.28,1,6-.35,6.16a21.07,21.07,0,0,1-2.8.1,2.1,2.1,0,0,0-2.13,2.29c.18,1.94.21,4.29-.7,4a11.59,11.59,0,0,0-3.43-.13A2.09,2.09,0,0,0,629,519.1c-.37,1.42-1,3.45-1.45,3.74a15,15,0,0,1-3.28.82,2.12,2.12,0,0,0-1.72,1.72,6.34,6.34,0,0,1-1,2.87,5.79,5.79,0,0,1-2.6,2,9.09,9.09,0,0,1-3.2.19,2.1,2.1,0,0,0-2.15,1.45c-.15.47-.36.87-.67.87-.76,0-3.72,3.89-4.79,3.5s-5.63,2.13-6.39,1.6a9.16,9.16,0,0,0-2-.9s-5.89,6.94-8,6c-1.51-.64-3.76-1.69-5-2.27a2.06,2.06,0,0,0-1.7,0c-2.42,1-9.12,3.79-8.94,3.12s-1.74.1-2.75-.4a5.71,5.71,0,0,1-1.83-2.34s-5.68,3.65-7.11,2.84-2.53-2.75-3.34-2.84-1.36-1.65-1.36-1.65-1.48,2.15-3.1,1.65-4,.81-5.08,0-3.24-2.34-3.77-3.56-4.15,1.79-5.27.27-8.11-2.6-6.75-4.51.86-3.27.86-3.27-3.39,2-5.42.93c-1.15-.63-1.61-2.42-1.79-3.86a2.09,2.09,0,0,0-2.13-1.81,4.05,4.05,0,0,1-2.32-.48c-1.27-.91-4.46-1.62-4.82-2.53s-2.29-3.05-2.1-4.06a24.57,24.57,0,0,0-.36-4.65s-1.55,2.65-3.08,1.27c-1-.93-1.45-4.24-1.62-6.27a2.1,2.1,0,0,0-1.6-1.87c-.56-.13-1-.34-.81-.62.46-.59-.12-3.22-.12-3.22s-6.2,2.46-6.13-1.33-2.21-6.87-1.74-6.87.22-4.41.84-5a3.66,3.66,0,0,0,.52-2.15s-5.7-2.19-5.17-3.72c.33-1,1.72-3.85,2.66-5.77a2.11,2.11,0,0,0-.83-2.75c-1.37-.8-3-2-2.9-3.07s1.78-2.62,3-3.62a2.09,2.09,0,0,0,.49-2.73,24.62,24.62,0,0,0-2.82-4.11c-1.88-1.47.55-5.3.74-5.73.83-2,4-2.29,4-2.29s-2.88-2.47-2.21-3.9c.54-1.15.58-5.64,1.72-5.64a6.63,6.63,0,0,0,2.78-1.1s-2.18-3.6-1.51-4.12,1.14-6.54,2.74-7.16,4.6-2.39,5.08-2.54.91-1,.91-1l.25-1.88s-8.31-7.05-2.68-8a30.12,30.12,0,0,1,5.61-.39,2.09,2.09,0,0,0,2-2.74c-.46-1.45-.56-3,.73-3.55a21.68,21.68,0,0,1,6.71-1.09,2.09,2.09,0,0,0,2-1.91c.19-2.28.76-5.85,2.41-5.85a10.31,10.31,0,0,1,2.89.52,2.12,2.12,0,0,0,2.69-2.09c0-2.92.27-6.63,2.17-5.58,1,.58,2.12,1.24,3.09,1.87a2.1,2.1,0,0,0,3.23-1.7c.09-3.11.63-6.7,2.82-5.35,3.64,2.29,5.79,1.7,7.15,2.29a19.42,19.42,0,0,1,2,1.13,2.12,2.12,0,0,0,2.78-.5c1.25-1.61,3.27-3.79,4.65-3.2a9.1,9.1,0,0,1,2.65,1.84,2.07,2.07,0,0,0,2.57.21c1.68-1.1,4.38-2.72,5.89-2.82a3.69,3.69,0,0,1,2.91,1.74,2.13,2.13,0,0,0,2.81.51c2.11-1.32,5.54-3.18,6.76-2.25a11.8,11.8,0,0,1,2.34,2.67,2,2,0,0,0,2.43.81,4,4,0,0,1,2.38-.14,7.43,7.43,0,0,1,4.46,3,2,2,0,0,0,1.78.8,48.81,48.81,0,0,1,6.86-.11c1.83.31,4.72-.45,4.89.62.06.51.2,1.8.32,3a2.11,2.11,0,0,0,2.75,1.79c1.8-.57,3.91-1.1,3.91-.41,0,1.22-.45,4,1.08,4s7.15-.62,6.08.31-1.86,4.87.14,4.87,5.35-.62,5,1.07a34.6,34.6,0,0,0,0,5.42,2.11,2.11,0,0,0,1,1.68c1.19.74,3.11,2,3.32,2.63a13,13,0,0,1,.42,1.82,2.11,2.11,0,0,0,1.34,1.6c1.78.65,5,2.06,5.33,3.67a13.25,13.25,0,0,1-.32,4.42A2.11,2.11,0,0,0,643,435c1.58,1.15,4.21,3.27,4,4.61a5.58,5.58,0,0,1-.59,1.9,2.14,2.14,0,0,0,.46,2.61c1.11,1,2.45,2.31,2.5,3.18a10.65,10.65,0,0,1-.89,3.46A2,2,0,0,0,649,453a11.23,11.23,0,0,1,2.6,4.42,3.93,3.93,0,0,1,0,3,2,2,0,0,0,1.14,2.71c.73.32,1.25.69,1.14,1.09C653.49,465.33,655.83,465.21,654.42,466.91Z"/><path class="cls-10" d="M564.9,544.52a1.62,1.62,0,0,1-.79-.17,9.39,9.39,0,0,1-2-1.74c-.38-.4-.94-1-1.16-1a2.12,2.12,0,0,1-1.43-1.18,3.21,3.21,0,0,1-3.13,1.16,5.42,5.42,0,0,0-2.31.11,3.88,3.88,0,0,1-2.93-.18c-1.63-1.19-3.38-2.52-3.93-3.75a4.89,4.89,0,0,0-1.46.41c-1.3.48-2.92,1.08-3.76-.07a9.18,9.18,0,0,0-3-1.52c-2-.76-3.63-1.41-4-2.47a1.28,1.28,0,0,1,.22-1.15,4.12,4.12,0,0,0,.84-2.11c-1.18.57-3.54,1.46-5.21.56-1.1-.6-1.8-2-2.08-4.28a1.54,1.54,0,0,0-1.55-1.33h0a4.5,4.5,0,0,1-2.65-.58,11.49,11.49,0,0,0-2.15-1c-1.38-.55-2.56-1-2.86-1.76a8.22,8.22,0,0,0-.74-1.21c-.76-1.12-1.55-2.28-1.38-3.15a15.7,15.7,0,0,0-.19-3.22,2.84,2.84,0,0,1-1.5.86,1.92,1.92,0,0,1-1.58-.52c-.9-.81-1.51-3-1.8-6.63a1.55,1.55,0,0,0-1.19-1.38c-.73-.18-1.09-.41-1.22-.77a.7.7,0,0,1,.11-.69,5.42,5.42,0,0,0-.1-2.18c-1.21.4-3.84,1.08-5.28.08a2.4,2.4,0,0,1-1-2.15,13.21,13.21,0,0,0-1.42-5.67c-.35-.79-.5-1.12-.28-1.46a.57.57,0,0,1,.15-.16,14.24,14.24,0,0,0,.15-1.67c.13-1.93.23-2.88.66-3.3a2.53,2.53,0,0,0,.36-1.39c-2-.79-5.73-2.55-5.14-4.26.33-1,1.65-3.72,2.69-5.84a1.55,1.55,0,0,0-.63-2c-2.25-1.32-3.29-2.5-3.16-3.61s1.23-2.37,3.24-4a1.54,1.54,0,0,0,.37-2c-2-3.24-2.55-3.85-2.69-4-2-1.58-.17-5,.44-6.12l.13-.26a4.82,4.82,0,0,1,3.32-2.4c-.91-.95-2.15-2.55-1.56-3.8a11,11,0,0,0,.42-2c.31-2,.6-3.92,1.79-3.92a5,5,0,0,0,2-.74c-2.08-3.6-1.35-4.17-1.1-4.37a13,13,0,0,0,.57-2.12c.62-2.71,1.14-4.66,2.31-5.11a36.64,36.64,0,0,0,3.51-1.74,13.2,13.2,0,0,1,1.6-.81,2.29,2.29,0,0,0,.55-.68l.2-1.48c-1.11-1-5.18-4.75-4.53-7.09.24-.87,1-1.43,2.33-1.64a30.51,30.51,0,0,1,5.71-.4,1.47,1.47,0,0,0,1.27-.61,1.56,1.56,0,0,0,.24-1.43c-.87-2.71.07-3.78,1-4.2A21.85,21.85,0,0,1,525.2,410a1.54,1.54,0,0,0,1.48-1.41c.36-4.21,1.35-6.35,3-6.35a10.67,10.67,0,0,1,3,.54,1.49,1.49,0,0,0,1.35-.25,1.59,1.59,0,0,0,.65-1.31c-.06-5.24,1-5.9,1.41-6.12a1.47,1.47,0,0,1,1.56.06c.93.51,2,1.15,3.12,1.88a1.57,1.57,0,0,0,1.58.07,1.52,1.52,0,0,0,.82-1.33c.1-3.44.67-5.39,1.75-6a1.83,1.83,0,0,1,1.89.19,11.76,11.76,0,0,0,5.34,1.87,6.35,6.35,0,0,1,1.75.39,18.32,18.32,0,0,1,2.09,1.16,1.57,1.57,0,0,0,2.06-.37c2.18-2.8,4-3.94,5.29-3.37a9.53,9.53,0,0,1,2.81,1.95,1.54,1.54,0,0,0,1.91.15c1.93-1.27,4.57-2.81,6.15-2.91a4.13,4.13,0,0,1,3.37,1.95,1.59,1.59,0,0,0,2.09.38c5.66-3.52,7-2.54,7.37-2.22a12,12,0,0,1,2.47,2.8,1.49,1.49,0,0,0,1.76.62,4.61,4.61,0,0,1,2.7-.18,8,8,0,0,1,4.79,3.17,1.51,1.51,0,0,0,1.31.58,49,49,0,0,1,7-.1,11.34,11.34,0,0,0,2.2,0c1.52-.06,3-.12,3.14,1,.06.44.17,1.43.33,3.06a1.57,1.57,0,0,0,2,1.33c3.08-1,3.89-.84,4.28-.55a.77.77,0,0,1,.33.65c0,.22,0,.48,0,.76-.05.8-.12,2.15.27,2.56a.36.36,0,0,0,.29.1c.36,0,1,0,1.67-.08,3.72-.22,4.77-.19,5,.48a.74.74,0,0,1-.28.86,4.23,4.23,0,0,0-.79,3.47c.14.4.36.45.58.45.4,0,.85,0,1.33,0,1.68-.1,3.26-.19,3.95.6a1.33,1.33,0,0,1,.29,1.16,29,29,0,0,0,0,5.29,1.57,1.57,0,0,0,.74,1.25c3.24,2,3.46,2.67,3.55,2.92a15.52,15.52,0,0,1,.44,1.9,1.53,1.53,0,0,0,1,1.18c2.42.89,5.37,2.32,5.67,4.09a13.79,13.79,0,0,1-.32,4.63,1.56,1.56,0,0,0,.61,1.59c3,2.17,4.42,3.89,4.27,5.12a6,6,0,0,1-.65,2.07,1.6,1.6,0,0,0,.33,2C649.91,446,650,447,650,447.3a10.48,10.48,0,0,1-.93,3.68,1.53,1.53,0,0,0,.3,1.63,11.79,11.79,0,0,1,2.72,4.64,4.38,4.38,0,0,1-.07,3.39,1.31,1.31,0,0,0,0,1,1.74,1.74,0,0,0,.92.95c.42.18,1.71.74,1.44,1.73,0,.07,0,.11.33.39a1.66,1.66,0,0,1,.76,1.1,1.94,1.94,0,0,1-.57,1.4h0a11.93,11.93,0,0,1-2.15,1.81,7.47,7.47,0,0,0-1.26,1c.91.74,2.5,2.73,2.45,4a1.11,1.11,0,0,1-.49.91c-.52.35-1.77,1.49-2.6,2.24-.57.52-.85.77-1,.89s-.42.64-.7,1.12c1.2,1.48,3.39,4.41,3,5.69a1,1,0,0,1-.65.67c-.58.2-.75,1.21-.9,2.1s-.27,1.58-.78,1.9a5.3,5.3,0,0,0,0,1c.07.94.15,2-.54,2.56a1.78,1.78,0,0,1-1.65.21l-.18-.05c.09.23.25.55.37.79.54,1.06,1.28,2.51.13,3.2-.58.35-1.13,1.91-1.54,3-.56,1.58-.9,2.48-1.55,2.69a.81.81,0,0,1-.75-.11c-.08-.05-.54-.28-2.24.27a1.55,1.55,0,0,0-1,1.81c1,5,.3,6,.06,6.28a1.23,1.23,0,0,1-.88.53,21.53,21.53,0,0,1-2.86.1,1.56,1.56,0,0,0-1.59,1.7c.3,3.3-.12,4.09-.52,4.41a.92.92,0,0,1-.88.16,10.58,10.58,0,0,0-3.24-.11,1.57,1.57,0,0,0-1.4,1.16c-.93,3.62-1.45,3.93-1.7,4.07s-.62.39-3.46.89a1.57,1.57,0,0,0-1.28,1.28,6.3,6.3,0,0,1-1.15,3.15l-.21.23a5.9,5.9,0,0,1-2.58,1.89,9,9,0,0,1-3.44.22,1.55,1.55,0,0,0-1.59,1.07c-.26.81-.64,1.22-1.14,1.25a10,10,0,0,0-1.48,1.29c-1.62,1.57-2.66,2.49-3.54,2.18a10.27,10.27,0,0,0-2.91.84c-2,.74-3,1.1-3.61.7a7.7,7.7,0,0,0-1.52-.73c-1.43,1.65-6.18,6.85-8.4,5.91-1.51-.64-3.78-1.7-5-2.28a1.54,1.54,0,0,0-1.26,0c-8.8,3.7-9.17,3.38-9.49,3.1a.59.59,0,0,1-.18-.29l-.46,0a3.73,3.73,0,0,1-2-.15,5,5,0,0,1-1.81-2.05C569.75,542.76,566.67,544.52,564.9,544.52Zm11.7-.64v0Zm-16.76-5.66.35,1c.21.58.64,1.26.91,1.29.62.07,1.15.65,1.83,1.37a8.85,8.85,0,0,0,1.72,1.54c.68.39,3.94-1.15,6.55-2.83l.53-.34.25.58a5,5,0,0,0,1.58,2.07,3.11,3.11,0,0,0,1.41.05c.61-.07,1.15-.13,1.47.23l.08.13a71.52,71.52,0,0,0,8.28-3.14,2.62,2.62,0,0,1,2.14.05c1.21.58,3.47,1.63,5,2.26,1.09.46,4.68-2.69,7.39-5.88l.23-.27.34.1a9.55,9.55,0,0,1,2.12,1,10.85,10.85,0,0,0,2.65-.79c1.82-.68,3-1.09,3.65-.84h0c.41,0,1.76-1.31,2.41-1.94,1.07-1,1.62-1.55,2.12-1.6a1.53,1.53,0,0,0,.23-.49,2.64,2.64,0,0,1,2.69-1.83,7.53,7.53,0,0,0,3-.15,4.78,4.78,0,0,0,2.19-1.61l.22-.24a5.65,5.65,0,0,0,.88-2.58,2.65,2.65,0,0,1,2.15-2.17,11.62,11.62,0,0,0,3.09-.75s.44-.4,1.21-3.42a2.66,2.66,0,0,1,2.38-2,11.65,11.65,0,0,1,3.54.13c.1-.2.32-.94.09-3.41a2.66,2.66,0,0,1,2.68-2.88,19.26,19.26,0,0,0,2.72-.1s.08,0,.14-.08c.32-.45.43-2.12-.25-5.43a2.65,2.65,0,0,1,1.75-3.06,4.29,4.29,0,0,1,3-.22,10.64,10.64,0,0,0,.83-2c.53-1.5,1.08-3.06,2-3.6.28-.18-.25-1.22-.54-1.79-.44-.87-.8-1.56-.38-2.07s1.14-.28,1.43-.21a.93.93,0,0,0,.69,0c.25-.21.19-1.08.15-1.65-.06-.85-.12-1.66.49-2a4.06,4.06,0,0,0,.29-1.16c.18-1.12.42-2.51,1.58-2.93.07-.59-1.33-2.86-3.07-5l-.24-.29.19-.32c.83-1.41,1.07-1.76,1.28-1.84l.83-.75a34.07,34.07,0,0,1,2.74-2.34c.19-.37-1-2.34-2.07-3.18a1,1,0,0,1-.41-.81c0-.69.74-1.2,1.74-1.92a11.67,11.67,0,0,0,2-1.64c.33-.4.33-.57.32-.6s-.2-.24-.35-.36a1.4,1.4,0,0,1-.71-1.48,2.27,2.27,0,0,0-.82-.5,2.78,2.78,0,0,1-1.5-1.57,2.4,2.4,0,0,1,.08-1.88,3.43,3.43,0,0,0,0-2.59,10.79,10.79,0,0,0-2.47-4.22,2.6,2.6,0,0,1-.53-2.77,10.23,10.23,0,0,0,.85-3.24c0-.39-.64-1.33-2.31-2.79a2.7,2.7,0,0,1-.59-3.27,5.22,5.22,0,0,0,.54-1.71c.07-.57-.89-2-3.83-4.11a2.68,2.68,0,0,1-1-2.7,12.54,12.54,0,0,0,.32-4.22c-.17-.94-2.07-2.18-5-3.25a2.64,2.64,0,0,1-1.68-2,12.27,12.27,0,0,0-.4-1.74c-.08-.21-.83-.94-3.09-2.35a2.66,2.66,0,0,1-1.25-2.11,33.23,33.23,0,0,1,0-5.55c0-.17,0-.22,0-.25-.34-.39-2-.29-3.08-.23-.49,0-1,.05-1.39.05a1.63,1.63,0,0,1-1.6-1.16,5.41,5.41,0,0,1,.71-4.2c-.9-.06-2.65.05-3.59.1-.73,0-1.35.08-1.74.08a1.42,1.42,0,0,1-1.07-.44c-.71-.74-.63-2.19-.57-3.36,0-.17,0-.34,0-.49a10.52,10.52,0,0,0-3.2.72,2.65,2.65,0,0,1-3.45-2.25c-.17-1.59-.28-2.61-.33-3a6,6,0,0,0-2-.1,12,12,0,0,1-2.41-.06,44.37,44.37,0,0,0-6.74.12,2.55,2.55,0,0,1-2.24-1,7,7,0,0,0-4.13-2.76,3.67,3.67,0,0,0-2.06.1,2.54,2.54,0,0,1-3.1-1,10.68,10.68,0,0,0-2.22-2.53c-.55-.42-2.44,0-6.15,2.27a2.66,2.66,0,0,1-3.51-.64,3.28,3.28,0,0,0-2.45-1.53c-1,.07-3.09,1.06-5.63,2.73a2.59,2.59,0,0,1-3.24-.27,8.8,8.8,0,0,0-2.5-1.74c-.76-.33-2.29.84-4,3a2.65,2.65,0,0,1-3.49.62,18.19,18.19,0,0,0-2-1.08A5,5,0,0,0,552,393a12.84,12.84,0,0,1-5.77-2c-.51-.31-.73-.19-.8-.16-.25.14-1.07.9-1.19,5.06a2.59,2.59,0,0,1-1.4,2.25,2.61,2.61,0,0,1-2.66-.11c-1.12-.72-2.15-1.34-3.06-1.85-.32-.17-.44-.1-.49-.07s-.93.78-.88,5.17a2.72,2.72,0,0,1-1.08,2.2,2.56,2.56,0,0,1-2.31.41,9.93,9.93,0,0,0-2.73-.49c-.86,0-1.6,2.11-1.87,5.36a2.62,2.62,0,0,1-2.52,2.4,19.68,19.68,0,0,0-6.51,1.05c-.79.35-.94,1.32-.43,2.88a2.64,2.64,0,0,1-.41,2.4,2.59,2.59,0,0,1-2.16,1.05,29.83,29.83,0,0,0-5.5.38q-1.29.22-1.47.87c-.4,1.43,2.5,4.54,4.41,6.17l.23.19-.31,2.27,0,.09a3,3,0,0,1-1.21,1.26c-.18.06-.84.42-1.43.74a36.89,36.89,0,0,1-3.64,1.8c-.71.27-1.31,2.92-1.63,4.34a6.53,6.53,0,0,1-.89,2.66,11,11,0,0,0,1.56,3.49l.27.44-.43.28a6.76,6.76,0,0,1-3.08,1.2c-.3.22-.59,2.1-.73,3a10.74,10.74,0,0,1-.5,2.32c-.34.72,1,2.37,2.07,3.26l.95.81-1.25.13s-2.81.31-3.51,2l-.18.34c-1.34,2.48-1.58,4.09-.73,4.76.19.14.76.59,3,4.26a2.64,2.64,0,0,1-.62,3.42c-1.72,1.37-2.75,2.55-2.84,3.27-.06.44.61,1.35,2.63,2.54a2.62,2.62,0,0,1,1.05,3.45c-1.45,2.95-2.39,5-2.64,5.71-.16.47,2,1.93,4.86,3l.33.13v.35a4,4,0,0,1-.67,2.55,10.21,10.21,0,0,0-.35,2.6,6.13,6.13,0,0,1-.34,2.27l.23.51a14.28,14.28,0,0,1,1.51,6.13,1.37,1.37,0,0,0,.51,1.24c1.14.79,4-.06,4.89-.42l.59-.23.13.62a8,8,0,0,1,.19,3.33l.34.1a2.64,2.64,0,0,1,2,2.34c.25,3.12.79,5.33,1.44,5.91a.8.8,0,0,0,.69.26c.67-.1,1.37-1.06,1.57-1.39l.76-1.3.23,1.49a22.82,22.82,0,0,1,.36,4.85c-.08.41.73,1.61,1.21,2.32a9.21,9.21,0,0,1,.86,1.42,6.93,6.93,0,0,0,2.25,1.15,12.92,12.92,0,0,1,2.38,1.14,3.64,3.64,0,0,0,2,.38h0A2.63,2.63,0,0,1,529.9,527c.22,1.82.76,3,1.51,3.46,1.44.77,4-.4,4.88-.92l.56-.33.23.6c0,.07.58,1.63-.93,3.77-.09.13-.08.19-.07.22.17.56,2.06,1.29,3.31,1.77,1.59.62,3,1.15,3.51,1.89.36.49,1.55.05,2.51-.3,1.12-.42,2.39-.89,2.82.15s2.55,2.57,3.55,3.29c.44.33,1.27.18,2.14,0a6.25,6.25,0,0,1,2.82-.07c1.2.38,2.48-1.42,2.5-1.43Zm53.06-4.94h0Zm-108.72-94Z"/><path class="cls-10" d="M533.47,431.15a4.65,4.65,0,0,1-3.31-1.37l-2-2a.54.54,0,0,1,.77-.77l2,2a3.59,3.59,0,0,0,4.11.69l1.61-.77a.54.54,0,1,1,.47,1l-1.61.78A4.7,4.7,0,0,1,533.47,431.15Z"/><path class="cls-10" d="M529.42,456.92h-.19l-2.88-.12a.54.54,0,0,1,0-1.08l2.87.12a3.59,3.59,0,0,0,3.49-2.27l.66-1.67a.54.54,0,0,1,1,.4l-.66,1.67A4.69,4.69,0,0,1,529.42,456.92Z"/><path class="cls-10" d="M520,493a.53.53,0,0,1-.49-.32.54.54,0,0,1,.26-.72l2.62-1.19a3.6,3.6,0,0,0,2.09-3.6l-.17-1.79a.55.55,0,0,1,.49-.59.54.54,0,0,1,.59.49l.17,1.79a4.67,4.67,0,0,1-2.72,4.68l-2.62,1.2A.59.59,0,0,1,520,493Z"/><path class="cls-10" d="M558.16,414.82a.54.54,0,0,1-.53-.44.55.55,0,0,1,.43-.63l2.83-.53a3.6,3.6,0,0,0,2.9-3l.27-1.77a.53.53,0,0,1,.61-.46.56.56,0,0,1,.46.62l-.28,1.78a4.69,4.69,0,0,1-3.76,3.89l-2.83.52Z"/><path class="cls-10" d="M592.78,403.57a4.63,4.63,0,0,1-2.07-.49l-2.58-1.28a.54.54,0,1,1,.48-1l2.58,1.28a3.61,3.61,0,0,0,4.11-.65l1.29-1.26a.54.54,0,0,1,.75.78l-1.29,1.25A4.67,4.67,0,0,1,592.78,403.57Z"/><path class="cls-10" d="M608.2,424.85a4.71,4.71,0,0,1-3.58-1.66l-1.85-2.2a.53.53,0,0,1,.06-.76.55.55,0,0,1,.76.06l1.86,2.2a3.6,3.6,0,0,0,4,1l1.68-.64a.54.54,0,0,1,.7.31.55.55,0,0,1-.32.7l-1.67.64A4.66,4.66,0,0,1,608.2,424.85Z"/><path class="cls-10" d="M632.81,453.53a.55.55,0,0,1-.28-.07l-1.54-.93a4.67,4.67,0,0,1-2.17-5l.58-2.81a.54.54,0,1,1,1.06.22l-.58,2.81a3.61,3.61,0,0,0,1.67,3.82l1.53.92a.54.54,0,0,1,.19.74A.53.53,0,0,1,632.81,453.53Z"/><path class="cls-10" d="M610.19,467.12a4.68,4.68,0,0,1-3.31-1.37l-2-2a.54.54,0,0,1,.76-.76l2,2a3.6,3.6,0,0,0,4.1.7l1.62-.78a.54.54,0,1,1,.47,1l-1.62.78A4.57,4.57,0,0,1,610.19,467.12Z"/><path class="cls-10" d="M577.34,443.75a4.83,4.83,0,0,1-1.7-.32L573,442.38a.54.54,0,0,1-.31-.7.55.55,0,0,1,.7-.31l2.68,1.05a3.6,3.6,0,0,0,4-1l1.17-1.36A.54.54,0,0,1,582,440a.55.55,0,0,1,.06.76l-1.17,1.36A4.7,4.7,0,0,1,577.34,443.75Z"/><path class="cls-10" d="M550.3,472.71a.54.54,0,0,1-.41-.89l1.86-2.19a3.61,3.61,0,0,0,.36-4.15l-.91-1.55a.55.55,0,0,1,.19-.74.54.54,0,0,1,.74.19l.91,1.55a4.68,4.68,0,0,1-.47,5.4l-1.86,2.19A.56.56,0,0,1,550.3,472.71Z"/><path class="cls-10" d="M572.08,481.93a4.69,4.69,0,0,1-4.28-2.78l-1.16-2.63a.54.54,0,0,1,.27-.71.55.55,0,0,1,.72.28l1.16,2.63a3.6,3.6,0,0,0,3.58,2.12l1.79-.14a.54.54,0,1,1,.09,1.07l-1.79.15Z"/><path class="cls-10" d="M565.78,512.93a.53.53,0,0,1-.48-.3l-.78-1.62a4.68,4.68,0,0,1,.9-5.34l2-2a.54.54,0,0,1,.76.76l-2,2a3.61,3.61,0,0,0-.7,4.11l.78,1.62a.54.54,0,0,1-.25.72A.69.69,0,0,1,565.78,512.93Z"/><path class="cls-10" d="M562.91,535.66a.63.63,0,0,1-.19,0,.54.54,0,0,1-.32-.7l.62-1.68a4.68,4.68,0,0,1,4.39-3.07h.07l2.88.05a.53.53,0,0,1,.53.55.54.54,0,0,1-.55.53l-2.87,0a3.6,3.6,0,0,0-3.44,2.36l-.62,1.69A.53.53,0,0,1,562.91,535.66Z"/><path class="cls-10" d="M605.11,528.62a.53.53,0,0,1-.53-.47l-.24-1.78a4.68,4.68,0,0,1,2.54-4.79l2.57-1.29a.54.54,0,1,1,.48,1l-2.57,1.3a3.61,3.61,0,0,0-2,3.68l.24,1.78a.54.54,0,0,1-.47.6Z"/><path class="cls-10" d="M598.22,499.64a4.75,4.75,0,0,1-2.41-.66l-2.46-1.48a.54.54,0,0,1,.55-.93l2.47,1.48a3.59,3.59,0,0,0,4.15-.32l1.38-1.15a.54.54,0,0,1,.69.83l-1.38,1.15A4.64,4.64,0,0,1,598.22,499.64Z"/><path class="cls-10" d="M629.32,486.53a4.67,4.67,0,0,1-4.38-3l-1-2.69a.54.54,0,0,1,.31-.7.55.55,0,0,1,.7.32l1,2.7a3.59,3.59,0,0,0,3.44,2.34l1.79,0h0a.54.54,0,0,1,.54.53.55.55,0,0,1-.53.55l-1.8,0Z"/><path class="cls-10" d="M626,506.78a.34.34,0,0,1-.14,0,.54.54,0,0,1-.39-.65l.43-1.74a4.68,4.68,0,0,1,4.11-3.53l2.86-.27a.54.54,0,1,1,.1,1.08l-2.86.26a3.61,3.61,0,0,0-3.16,2.72l-.43,1.74A.53.53,0,0,1,626,506.78Z"/><path class="cls-10" d="M535.35,512.93a.53.53,0,0,1-.35-.13.54.54,0,0,1-.06-.76l1.16-1.37a4.7,4.7,0,0,1,5.25-1.34l2.68,1a.53.53,0,0,1,.31.69.54.54,0,0,1-.7.31l-2.68-1a3.61,3.61,0,0,0-4,1l-1.16,1.37A.52.52,0,0,1,535.35,512.93Z"/><path class="cls-10" d="M509.47,469.4h-.06a.54.54,0,0,1-.48-.6l.31-2.86a3.59,3.59,0,0,0-2-3.63l-1.62-.77a.55.55,0,0,1-.26-.72.54.54,0,0,1,.72-.26l1.63.77a4.7,4.7,0,0,1,2.64,4.73l-.31,2.86A.54.54,0,0,1,509.47,469.4Z"/><path class="cls-6" d="M573.54,479.52a11.12,11.12,0,0,0,4,.51,10.88,10.88,0,0,0,4-.5c.26-.21.63-.06.55.29-1.1,2.79-8.05,2.81-9.17,0a.35.35,0,0,1,.49-.4l.13.08Z"/><circle class="cls-6" cx="563.32" cy="468.54" r="4.9"/><circle class="cls-11" cx="559.78" cy="466.01" r="1.36"/><circle class="cls-11" cx="561.44" cy="468.24" r="0.51"/><circle class="cls-6" cx="591.62" cy="468.54" r="4.9"/><circle class="cls-11" cx="595.16" cy="466.01" r="1.36"/><circle class="cls-11" cx="593.49" cy="468.24" r="0.51"/><ellipse class="cls-8" cx="556.34" cy="480.29" rx="3.66" ry="1.91"/><ellipse class="cls-8" cx="600.18" cy="480.29" rx="3.66" ry="1.91"/><path class="cls-12" d="M544.06,755.3h0c-190.19.86-544-3.81-544-3.81l25.06-8.18s71.18-43.57,101.25-41.51,36.11-12.93,49.12-8.17,55.16-2.56,63.17-.94c4.6.92,22.38-2.58,41-3.84,13.9-1,28.27-.7,37.84,3.6,22.41,10,45.71-9.32,62.14-4.06s112.67,1.16,114.68,9.31,89.23,28.59,103.25,38.13,56.16,6.8,64.17,15.66C663.86,753.91,615.53,755,544.06,755.3Z"/><path class="cls-13" d="M544.06,755.3h0s-27.83-16.07-31.6-17.09-48.51-34.71-56-28.59-77.07-11-82.34-15.87-36.07,14.33-48.5,4.89-46-9.79-46-9.79c13.9-1,28.27-.7,37.84,3.6,22.41,10,45.71-9.32,62.14-4.06s112.67,1.16,114.68,9.31,89.23,28.59,103.25,38.13,56.16,6.8,64.17,15.66C663.86,753.91,615.53,755,544.06,755.3Z"/></g></g></svg>