<svg width="525" height="513" viewBox="0 0 525 513" fill="none" xmlns="http://www.w3.org/2000/svg">
<g clip-path="url(#clip0_154_158)">
<path d="M375.993 436.242C373.84 436.196 371.797 436.072 369.875 435.892C355.197 434.525 347.42 429.792 347.42 429.792C347.42 429.792 337.427 426.001 327.363 426.311C265.69 445.132 212.094 414.605 192.596 402.139C189.752 400.332 187.645 398.892 186.329 398.053C185.793 397.711 185.391 397.456 185.12 397.325C184.662 397.442 184.166 397.561 183.627 397.687C181.19 398.223 177.962 398.734 174.467 399.206C163.552 400.711 150.078 401.813 150.078 401.813C122.16 399.832 130.423 371.035 131.721 368.588C133.781 364.642 143.708 371.847 146.615 370.398C160.742 367.889 184.912 373.299 184.912 373.299C184.912 373.299 199.795 368.574 208.346 368.987C171.245 347.912 133.053 286.283 121.742 272.554C110.413 258.831 83.2795 252.33 65.5564 240.146C47.8451 227.968 60.2015 224.155 64.354 220.876C68.506 217.611 65.5451 215.938 64.1398 207.385C62.7696 199.148 73.5066 208.495 74.6959 197.961C75.394 191.658 71.224 189.075 80.4189 187.211C94.1731 184.395 187.232 228.058 205.179 236.716C223.054 245.326 258.56 298.44 267.584 322.952C267.274 323.597 266.952 324.265 266.626 324.953L265.662 326.965C260.985 336.733 254.846 349.549 246.789 366.356L256.049 380.003C256.049 380.003 266.358 387.823 291.401 393.318C320.89 401.825 336.859 386.04 336.859 386.04C336.859 386.04 357.134 380.084 371.083 395.76C380.92 406.805 377.927 426.944 376.541 433.862C376.222 435.381 375.989 436.263 375.989 436.263L375.993 436.242Z" fill="#E8EFEF"/>
<path opacity="0.03" d="M365.495 428.154C365.495 428.154 364.583 428.465 366.807 431.349C369.032 434.232 369.438 434.352 369.261 435.834L371.355 436.637L370.823 434.091L367.048 430.341L365.498 428.148L365.495 428.154Z" fill="black"/>
<path d="M380.773 454.001C380.736 454.042 380.708 454.08 380.671 454.12C380.52 454.289 380.26 454.361 380.06 454.253C380.037 454.241 380.01 454.234 379.996 454.218C377.588 452.844 370.933 441.611 370.446 439.658C370.418 439.529 370.409 439.501 370.37 439.336C370.37 439.336 370.324 439.167 370.325 439.152C370.271 439.055 369.273 437.402 369.885 435.83C369.815 432.653 366.194 430.305 365.638 429.224C365.08 428.135 365.602 427.87 366.163 428.097C370.687 432.486 372.603 433.141 373.357 433.123C373.632 433.119 373.751 433.025 373.776 432.993C373.78 432.987 373.783 432.981 373.783 432.981C375.172 432.684 376.393 433.714 376.599 433.894C376.62 433.912 376.628 433.924 376.628 433.924L376.634 433.928C376.634 433.928 376.648 433.958 376.673 434.024C376.778 434.308 376.895 434.584 377.03 434.854C377.221 435.275 377.438 435.673 377.681 436.054C379.74 439.272 384.617 449.296 380.768 453.998L380.773 454.001Z" fill="#FFC033"/>
<path d="M373.356 425.441C372.392 426.089 370.971 425.671 370.034 424.537C369.988 424.481 369.945 424.42 369.899 424.365C369.862 424.322 369.827 424.273 369.799 424.227C368.876 422.858 368.969 421.179 370.015 420.477C371.062 419.776 372.656 420.325 373.57 421.697C373.67 421.85 373.76 422.005 373.833 422.165C373.898 422.299 373.954 422.435 374.003 422.568C374.41 423.713 374.177 424.891 373.353 425.447L373.356 425.441Z" fill="#F2F9F9"/>
<path d="M373.356 425.441C372.347 426.117 370.832 425.634 369.893 424.362C370.085 423.654 370.744 422.925 371.681 422.483C372.442 422.128 373.219 422.024 373.836 422.159C374.452 423.424 374.275 424.822 373.347 425.444L373.356 425.441Z" fill="#63C6A0"/>
<path d="M373.356 425.442C372.392 426.089 370.971 425.671 370.034 424.537C370.255 423.86 370.898 423.175 371.795 422.75C372.556 422.394 373.333 422.29 373.951 422.426C373.973 422.469 373.993 422.517 374.012 422.566C374.419 423.71 374.186 424.889 373.362 425.445L373.356 425.442Z" fill="#5ABA97"/>
<path d="M372.76 423.077C372.999 422.917 372.969 422.454 372.694 422.044C372.418 421.634 372.001 421.431 371.762 421.591C371.523 421.751 371.553 422.213 371.829 422.624C372.104 423.034 372.521 423.237 372.76 423.077Z" fill="white"/>
<path d="M370.912 422.516C371.065 422.598 371.255 422.541 371.337 422.389C371.42 422.236 371.363 422.046 371.21 421.964C371.057 421.881 370.867 421.938 370.785 422.09C370.702 422.243 370.759 422.433 370.912 422.516Z" fill="white"/>
<path opacity="0.03" d="M207.448 388.352C207.448 388.352 204.344 390.082 203.304 393.403C203.916 393.324 203.741 391.13 207.448 388.352Z" fill="black"/>
<path opacity="0.03" d="M204.405 398.145C204.405 398.145 203.06 398.64 202.433 399.901C202.68 399.906 202.746 399.024 204.405 398.145Z" fill="black"/>
<path opacity="0.03" d="M208.322 399.704C208.322 399.704 204.817 399.11 202.721 396.326C203.323 396.196 203.891 398.322 208.322 399.704Z" fill="black"/>
<path opacity="0.03" d="M208.065 405.471C208.065 405.471 204.56 404.877 202.464 402.094C203.065 401.963 203.634 404.09 208.065 405.471Z" fill="black"/>
<path opacity="0.03" d="M203.1 396.061L192.595 395.315L190.77 396.166L190.536 397.98L197.126 399.594L203.61 399.126L204.342 398.035C204.342 398.035 203.3 398.588 202.569 398.451C201.839 398.315 194.724 398.882 193.199 397.475C192.887 397.012 199.454 396.952 202.651 396.668L203.1 396.061Z" fill="black"/>
<path opacity="0.03" d="M203.627 392.524C203.627 392.524 195.812 393.305 193.384 391.7C190.956 390.094 187.892 388.487 182.536 386.977C177.179 385.468 166.326 379.712 165.54 382.07C164.753 384.429 167.586 387.086 167.586 387.086C167.586 387.086 165.677 386.671 165.88 388.812C166.083 390.954 173.887 399.281 173.887 399.281L181.525 397.251L188.298 395.924C188.298 395.924 201.875 394.195 201.987 394.255C202.099 394.315 203.47 392.955 203.47 392.955L203.632 392.527L203.627 392.524Z" fill="black"/>
<path d="M204.241 392.863C204.241 392.863 195.607 393.968 192.808 392.36C190.01 390.751 188.628 388.543 183.259 387.845C177.89 387.148 165.513 379.94 166.114 382.737C166.725 385.53 172.541 392.898 175.963 394.843C179.384 396.787 187.81 399.656 190.396 396.972C192.374 395.332 203.766 396.473 203.766 396.473L204.266 392.52L204.241 392.863Z" fill="#FFC033"/>
<path d="M204.699 398.303L204.649 398.648L204.667 398.657L204.693 398.3L204.699 398.303Z" fill="#FFC033"/>
<path d="M169.031 387.881L169.253 388.357C173.092 389.64 180.036 393.158 183.691 393.629C187.522 394.125 189.327 395.395 191.063 396.665L192.034 396.37C192.034 396.37 186.918 393.375 183.699 393.094C181.107 392.553 169.034 387.875 169.034 387.875L169.031 387.881Z" fill="#FFB624"/>
<path d="M204.679 398.649C204.679 398.649 196.045 399.754 193.247 398.146C190.448 396.538 189.067 394.329 183.697 393.631C178.328 392.934 165.951 385.726 166.552 388.523C167.154 391.319 172.979 398.685 176.401 400.629C179.823 402.573 188.248 405.442 190.834 402.758C192.812 401.118 204.204 402.259 204.204 402.259L204.704 398.306L204.679 398.649Z" fill="#FFC033"/>
<path opacity="0.03" d="M204.932 369.041C204.932 369.041 213.273 373.866 231.026 377.202C241.522 379.172 249.173 380.13 251.939 380.447C252.669 380.529 253.336 380.882 253.818 381.438L255.212 383.046L261.518 379.799L256.338 377.005L233.669 369.431L211.245 365.948L204.932 369.041Z" fill="black"/>
<path opacity="0.03" d="M240.374 378.826C240.374 378.826 251.044 400.482 244.971 426.162L255.572 428.84C255.572 428.84 258.471 399.673 249.944 380.205L240.374 378.826Z" fill="black"/>
<path d="M249.558 366.978C249.558 366.978 225.321 362.662 208.349 368.981C171.248 347.906 133.056 286.278 121.745 272.549C110.416 258.825 83.2825 252.324 65.5594 240.14C47.8481 227.963 60.2045 224.15 64.357 220.87C68.509 217.605 65.5481 215.932 64.1428 207.38C62.7726 199.142 73.5096 208.49 74.6989 197.955C75.397 191.652 71.227 189.069 80.4219 187.205C94.1761 184.389 187.235 228.052 205.182 236.71C223.057 245.321 260.069 300.483 269.093 324.995C268.783 325.64 266.955 324.259 266.629 324.948L265.665 326.96C260.988 336.728 257.614 350.186 249.56 366.987L249.558 366.978Z" fill="#B2B2B2"/>
<path opacity="0.03" d="M202.137 365.076C201.73 364.804 201.493 364.342 201.505 363.856C201.541 362.692 201.441 360.569 200.363 360.078C198.857 359.395 192.917 355.675 195.458 353.369C198 351.063 206.641 341.432 228.725 344.125C229.41 344.206 230.065 343.808 230.27 343.146C234.255 330.51 243.862 311.604 245.809 307.825C246.025 307.411 246.022 306.924 245.799 306.508C244.571 304.17 240.831 296.102 245.799 292.761C246.427 292.342 247.285 292.524 247.726 293.142C248.282 293.927 248.803 295.155 249.23 296.349C249.656 297.542 251.354 297.631 251.883 296.453C252.36 295.399 253.818 295.313 254.416 296.303L255.379 297.907C255.652 298.357 255.659 298.922 255.382 299.379C253.896 301.853 249.096 309.977 247.554 313.975C247.132 315.067 246.681 316.143 246.238 317.147C245.644 318.487 247.198 319.758 248.387 318.89C252.44 315.921 257.784 312.965 259.825 316.076C263.202 321.226 254.312 331.784 241.88 331.909C241.252 331.919 240.71 332.347 240.542 332.954C239.654 336.19 238.368 340.319 237.6 342.77C237.292 343.734 238.055 344.699 239.064 344.629C242.633 344.386 249.916 344.66 255.058 350.042C255.182 350.177 255.285 350.339 255.36 350.508C260.223 362.276 255.906 367.309 254.554 368.521C254.336 368.714 254.067 368.834 253.776 368.867L231.062 371.619C230.909 371.635 230.76 371.63 230.608 371.602L204.076 366.251C203.892 366.213 203.718 366.142 203.557 366.032L202.149 365.083L202.137 365.076Z" fill="black"/>
<path d="M200.263 358.66C200.405 358.706 200.546 358.767 200.675 358.852C201.001 359.05 201.261 359.342 201.423 359.688C202.672 362.34 203.228 367.402 206.436 369.405C209.863 371.549 242.795 380.739 264.664 380.2C267.361 380.138 270.027 379.559 272.464 378.417C279.631 375.065 284.461 368.982 285.937 366.949C286.202 366.584 286.58 366.319 287.017 366.213C287.047 366.199 287.089 366.191 287.122 366.186C287.546 366.104 288.122 365.937 288.715 365.612C289.818 365.002 290.055 363.522 289.211 362.582C286.873 359.994 280.839 355.041 269.134 355.535C257.103 356.044 250.764 356.173 248.429 356.21C247.739 356.224 247.052 356.104 246.399 355.865C241.054 353.899 214.914 344.711 205.385 349.39C196.655 353.627 196.536 357.491 200.257 358.656L200.263 358.66Z" fill="#A5853D"/>
<path d="M200.263 358.659C200.405 358.705 200.546 358.767 200.675 358.851C230.061 365.089 235.647 361.263 243.26 360.502C251.107 359.716 268.785 357.196 275.909 359.129C283.049 361.524 285.935 364.575 287.023 366.216C287.053 366.202 287.095 366.194 287.128 366.189C287.552 366.107 288.128 365.94 288.721 365.615C289.824 365.005 290.061 363.525 289.217 362.585C286.879 359.996 280.845 355.043 269.14 355.538C257.109 356.046 250.77 356.175 248.435 356.212C248.289 356.217 248.145 356.215 247.999 356.205C247.457 356.17 246.916 356.06 246.411 355.871C241.065 353.905 214.926 344.717 205.396 349.396C201.902 351.089 199.79 352.725 198.748 354.15C197.192 356.29 198.043 357.962 200.269 358.662L200.263 358.659Z" fill="#C49B4B"/>
<path d="M244.943 357.059L235.112 352.954L221.17 349.618L211.451 348.599L202.655 351.201L199.185 353.666L198.646 354.285C222.495 365.004 247.898 356.196 247.898 356.196L244.943 357.059Z" fill="#846934"/>
<path d="M198.646 354.284L198.885 354.39C202.723 351.593 209.144 349.961 214.914 349.973C228.24 350.595 244.943 357.058 244.943 357.058L247.994 356.201C247.451 356.166 246.91 356.057 246.405 355.868C241.06 353.902 214.92 344.714 205.391 349.392C201.896 351.086 199.693 352.862 198.652 354.287L198.646 354.284Z" fill="#A5853D"/>
<path d="M247.42 310.65C241.212 320.047 235.569 340.765 233.389 349.422C232.773 351.858 232.435 353.343 232.435 353.343L228.211 351.914C228.211 351.914 236.642 324.875 242.292 315.921C247.942 306.966 256.089 286.939 256.089 286.939L257.987 286.613L258.756 286.482C258.756 286.482 255.379 298.611 247.422 310.659L247.42 310.65Z" fill="#5ABA97"/>
<path d="M247.42 310.65C241.212 320.047 235.569 340.765 233.389 349.423L232.186 349.653C232.186 349.653 239.868 320.443 245.939 311.875C254.492 298.778 257.228 289.737 257.982 286.61L258.751 286.479C258.751 286.479 255.373 298.608 247.417 310.656L247.42 310.65Z" fill="#63C6A0"/>
<path d="M251.645 299.244C251.645 299.244 251.226 298.881 250.607 298.228C248.276 295.781 243.111 289.302 246.921 283.055C247.638 281.88 248.274 281.321 248.823 281.23C251.995 280.697 252.665 295.229 252.665 295.229L251.645 299.244Z" fill="#5ABA97"/>
<path d="M248.013 321.046C244.922 322.146 241.668 321.665 241.668 321.665L242.742 318.9C242.742 318.9 247.414 315.219 250.537 313.961C252.519 313.157 253.873 313.334 253.01 316.046C252.111 318.852 250.1 320.314 248.015 321.055L248.013 321.046Z" fill="#5ABA97"/>
<path d="M248.013 321.046C250.438 319.519 252.828 317.214 252.955 314.432C253.007 313.209 250.531 313.958 250.531 313.958C252.513 313.154 253.87 313.326 253.004 316.043C252.105 318.849 250.094 320.311 248.01 321.052L248.013 321.046Z" fill="#63C6A0"/>
<path d="M282.677 264.933C278.829 270.462 273.138 271.29 265.162 268.853C262.303 267.977 260.029 265.439 258.783 262.288C256.545 256.645 257.6 249.033 264.471 245.483C264.471 245.483 268.783 243.131 274.082 243.889C276.209 244.195 278.485 244.999 280.717 246.658C288.491 252.451 286.524 259.404 282.682 264.936L282.677 264.933Z" fill="#FFCD50"/>
<path d="M258.783 262.288C256.545 256.645 257.6 249.033 264.471 245.484C264.471 245.484 268.783 243.132 274.082 243.89C268.051 244.39 258.025 247.443 258.783 262.288Z" fill="#FFC033"/>
<path d="M270.807 258.993C271.061 259.79 271.973 260.168 272.75 260.163C273.022 260.15 273.284 260.087 273.52 259.903C273.572 259.863 273.643 259.871 273.68 259.929C273.703 259.957 273.711 259.999 273.698 260.037C273.638 260.217 273.511 260.369 273.355 260.489C272.42 261.168 270.894 260.648 270.554 259.547C270.511 259.387 270.441 258.842 270.715 258.898C270.759 258.914 270.791 258.954 270.798 258.996L270.807 258.993Z" fill="#302826"/>
<path d="M279.508 245.846C279.414 245.795 279.317 245.736 279.227 245.679C277.993 244.968 276.759 244.484 275.555 244.184C275.422 244.15 275.282 244.112 275.146 244.084C275.747 242.21 277.774 236.116 280.259 231.284C282.547 226.847 285.217 223.473 287.524 225.4C288.728 226.405 288.956 228.022 288.593 229.919C287.514 235.607 281.115 243.839 279.506 245.837L279.508 245.846Z" fill="url(#paint0_linear_154_158)"/>
<path d="M289.65 247.996C287.034 249.314 284.906 250.206 284.419 250.405C284.407 250.414 284.397 250.417 284.388 250.419C284.006 249.834 283.546 249.252 283.004 248.679C282.672 248.326 282.309 247.971 281.913 247.621L281.411 247.032C281.411 247.032 287.143 241.359 292.539 237.673C296.607 234.901 300.495 233.253 301.599 236.017C303.293 240.236 295.335 245.126 289.653 247.99L289.65 247.996Z" fill="url(#paint1_linear_154_158)"/>
<path d="M292.53 237.676C288.861 243.226 283.034 248.696 283.034 248.696L282.998 248.677C282.666 248.323 282.303 247.968 281.904 247.624C281.531 247.302 281.138 246.976 280.708 246.661C280.308 246.361 279.907 246.092 279.508 245.846C279.414 245.796 279.317 245.736 279.227 245.679C280.442 243.06 284.603 234.431 288.596 229.928C290.784 227.462 292.929 226.23 294.499 227.919C296.522 230.079 295.024 233.896 292.53 237.676Z" fill="url(#paint2_linear_154_158)"/>
<path d="M292.927 253.502C289.772 253.68 286.912 253.578 285.757 253.524C285.728 253.41 285.699 253.295 285.663 253.178C285.401 252.285 285.007 251.398 284.439 250.523L284.41 250.409L284.212 249.635C284.212 249.635 286.55 248.833 289.647 248.002C295.803 246.341 304.948 244.542 304.661 248.633C304.42 252.105 298.249 253.203 292.927 253.502Z" fill="url(#paint3_linear_154_158)"/>
<path d="M307.301 259.527C306.285 261.944 302.812 262.261 298.899 261.72C293.871 261.024 288.114 258.92 285.843 258.036C285.865 257.926 285.883 257.822 285.904 257.712C286.135 256.328 286.121 254.918 285.766 253.521C285.737 253.407 285.708 253.292 285.672 253.175C286.781 253.189 289.636 253.243 292.936 253.499C299.959 254.057 308.979 255.542 307.301 259.527Z" fill="url(#paint4_linear_154_158)"/>
<path d="M301.554 275.541C299.245 277.655 295.02 275.595 291.077 272.703C287.378 269.979 283.928 266.526 282.561 265.106C282.604 265.054 282.642 264.998 282.683 264.937C282.761 264.82 282.845 264.706 282.923 264.589C283.359 263.937 283.767 263.278 284.138 262.591C284.433 262.044 284.704 261.486 284.945 260.926C287.763 262.272 296.988 266.868 300.721 270.922C302.323 272.666 302.912 274.303 301.56 275.544L301.554 275.541Z" fill="url(#paint5_linear_154_158)"/>
<path d="M307.092 269.649C305.862 271.366 303.493 271.552 300.715 270.918C294.54 269.52 286.345 264.099 284.132 262.586C284.427 262.04 284.698 261.481 284.939 260.922C285.341 259.979 285.652 259.009 285.846 258.029C285.868 257.92 285.886 257.816 285.907 257.706C288.087 258.237 293.86 259.721 298.902 261.713C304.479 263.926 309.17 266.767 307.101 269.646L307.092 269.649Z" fill="url(#paint6_linear_154_158)"/>
<path d="M294.971 283.439C293.575 284.126 292.011 283.692 290.422 282.6C285.809 279.429 281.023 270.729 279.634 268.084C279.704 268.038 279.768 267.989 279.836 267.935C280.826 267.195 281.731 266.25 282.552 265.109C282.595 265.056 282.633 265.001 282.674 264.939C282.752 264.822 282.836 264.708 282.914 264.591C284.223 265.752 287.906 269.112 291.068 272.705C294.958 277.131 298.059 281.92 294.962 283.441L294.971 283.439Z" fill="url(#paint7_linear_154_158)"/>
<path d="M278.803 292.178C275.046 292.093 273.439 285.759 272.764 279.974C272.196 275.103 272.283 270.623 272.283 270.623L273.963 270.097C273.963 270.097 274.02 270.09 274.05 270.091C274.769 270.024 275.454 269.908 276.111 269.731C276.298 269.681 276.485 269.63 276.669 269.57C277.084 270.643 278.605 274.648 279.81 278.998C281.549 285.274 282.634 292.266 278.809 292.181L278.803 292.178Z" fill="url(#paint8_linear_154_158)"/>
<path d="M289.666 287.742C286.23 289.005 282.532 284 279.81 278.998C277.375 274.523 275.716 270.057 275.716 270.057L276.114 269.741C276.301 269.69 276.487 269.639 276.672 269.579C277.734 269.242 278.729 268.748 279.642 268.096C279.713 268.05 279.777 268.001 279.844 267.947C281.879 270.197 288.263 277.47 290.43 282.612C291.472 285.084 291.54 287.069 289.669 287.751L289.666 287.742Z" fill="url(#paint9_linear_154_158)"/>
<path d="M266.077 291.554C264.883 290.94 264.286 289.739 264.098 288.189C263.399 282.534 268.17 272.31 269.363 269.86C269.44 269.871 269.508 269.885 269.586 269.897C271.153 270.143 272.612 270.21 273.972 270.094C273.996 270.092 274.029 270.087 274.059 270.088C274.002 270.8 273.635 275.265 272.782 279.969C271.611 286.418 269.526 293.308 266.09 291.545L266.077 291.554Z" fill="url(#paint10_linear_154_158)"/>
<path d="M264.098 288.189C262.656 290.792 260.989 292.236 259.16 291.067C257.897 290.257 257.406 288.817 257.419 287.035C257.465 281.04 263.229 271.199 264.745 268.711C264.884 268.763 265.02 268.806 265.157 268.849C265.808 269.049 266.442 269.224 267.062 269.384C267.85 269.582 268.608 269.74 269.354 269.862C269.431 269.874 269.499 269.888 269.577 269.899C269.087 272.539 267.065 282.829 264.089 288.191L264.098 288.189Z" fill="url(#paint11_linear_154_158)"/>
<path d="M264.527 268.623C263.432 270.231 258.239 277.719 253.512 282.008C250.5 284.735 247.683 286.173 246.223 283.968C244.173 280.86 248.045 276.102 252.349 272.176C255.823 269 259.576 266.377 260.68 265.623C260.85 265.844 261.026 266.052 261.214 266.252C262.113 267.245 263.162 268.031 264.329 268.54C264.394 268.574 264.465 268.598 264.527 268.623Z" fill="url(#paint12_linear_154_158)"/>
<path d="M268.63 270.276C268.63 270.276 262.338 283.486 257.419 287.035C255.992 288.062 254.682 288.28 253.671 287.144C252.542 285.875 252.676 284.036 253.509 282.014C255.658 276.805 262.438 270.287 264.32 268.542C264.385 268.577 264.456 268.6 264.518 268.626C264.592 268.658 264.663 268.681 264.736 268.714C264.875 268.766 265.011 268.809 265.147 268.852C265.799 269.052 266.433 269.227 267.052 269.387L268.612 270.281L268.63 270.276Z" fill="url(#paint13_linear_154_158)"/>
<path d="M261.214 266.252C260.232 266.989 256.432 269.784 252.346 272.182C247.085 275.266 241.33 277.689 240.438 274.235C239.38 270.131 246.901 266.531 252.7 264.405C255.623 263.335 258.109 262.637 258.839 262.439C258.886 262.548 258.928 262.653 258.975 262.762C259.427 263.81 259.998 264.778 260.671 265.626C260.841 265.846 261.017 266.055 261.205 266.255L261.214 266.252Z" fill="url(#paint14_linear_154_158)"/>
<path d="M259.624 249.867C258.811 251.165 258.277 252.575 257.99 254.036C254.47 252.485 236.665 244.337 241.069 240.07C243.628 237.592 248.871 240.549 253.283 243.922C256.104 246.08 258.584 248.404 259.803 249.592C259.741 249.68 259.684 249.771 259.627 249.861L259.624 249.867Z" fill="url(#paint15_linear_154_158)"/>
<path d="M262.882 246.446C262.808 246.497 262.735 246.549 262.659 246.606C261.485 247.474 260.536 248.486 259.803 249.592C259.741 249.68 259.684 249.77 259.627 249.861C258.472 248.866 255.871 246.568 253.286 243.916C248.723 239.248 244.188 233.458 247.619 231.699C250.105 230.425 253.199 232.822 255.982 236.09C259.118 239.775 261.858 244.559 262.885 246.44L262.882 246.446Z" fill="url(#paint16_linear_154_158)"/>
<path d="M266.749 244.566C266.65 244.596 266.559 244.623 266.471 244.659C265.218 245.083 264.477 245.486 264.477 245.486C263.909 245.779 263.379 246.1 262.888 246.449C262.814 246.5 262.741 246.552 262.665 246.609C261.483 244.986 258.289 240.481 255.982 236.105C253.525 231.443 252.071 226.921 255.103 226.168C259.882 224.978 263.906 235.359 265.745 241.151C265.745 241.151 265.745 241.151 265.751 241.154C266.264 242.765 266.611 244.022 266.755 244.57L266.749 244.566Z" fill="url(#paint17_linear_154_158)"/>
<path d="M271.199 243.76C271.077 243.762 270.948 243.776 270.822 243.784C269.223 243.892 267.82 244.227 266.746 244.573C266.647 244.603 266.556 244.63 266.468 244.666C266.379 244.269 266.087 242.966 265.742 241.158C265.742 241.158 265.742 241.158 265.739 241.149C265.096 237.769 264.264 232.627 264.201 228.339C264.135 223.792 264.938 220.207 267.744 220.689C270.312 221.134 271.477 224.265 271.915 228.095C272.123 229.906 272.167 231.878 272.12 233.794C272.011 238.345 271.384 242.601 271.199 243.76Z" fill="url(#paint18_linear_154_158)"/>
<path d="M258.994 262.826C258.994 262.826 256.265 263.621 252.704 264.399C245.854 265.898 235.928 267.33 236.44 262.89C236.888 259.022 243.945 258.151 249.878 258.114C253.623 258.094 256.918 258.401 257.833 258.492C257.855 258.663 257.873 258.84 257.904 259.008C258.075 260.14 258.376 261.242 258.787 262.282C258.806 262.331 258.828 262.388 258.848 262.437C258.895 262.546 258.937 262.651 258.984 262.76L258.994 262.826Z" fill="url(#paint19_linear_154_158)"/>
<path d="M257.898 259.02C257.4 258.986 253.947 258.731 249.872 258.125C242.563 257.041 233.245 254.842 235.281 250.8C238.202 245.006 254.535 252.421 257.984 254.062C257.694 255.528 257.657 257.032 257.827 258.504C257.848 258.675 257.867 258.851 257.898 259.02Z" fill="url(#paint20_linear_154_158)"/>
<path opacity="0.35" d="M264.506 258.327C265.194 258.561 265.851 258.458 265.972 258.099C266.094 257.739 265.635 257.259 264.947 257.025C264.258 256.792 263.602 256.894 263.48 257.254C263.358 257.613 263.817 258.094 264.506 258.327Z" fill="#FF6E79"/>
<path opacity="0.35" d="M279.429 263.383C280.117 263.616 280.774 263.514 280.895 263.154C281.017 262.795 280.558 262.314 279.87 262.081C279.181 261.847 278.525 261.95 278.403 262.309C278.281 262.669 278.74 263.149 279.429 263.383Z" fill="#FF6E79"/>
<path d="M275.555 244.183C275.422 244.149 275.282 244.112 275.146 244.084C274.787 244.004 274.427 243.939 274.082 243.889C273.082 243.744 272.112 243.714 271.199 243.76C271.077 243.762 270.948 243.776 270.822 243.784C270.925 242.467 271.313 238.188 272.117 233.799C273.279 227.466 275.327 220.897 278.693 222.607C281.065 223.81 281.105 227.366 280.256 231.29C279.139 236.457 276.475 242.253 275.546 244.186L275.555 244.183Z" fill="url(#paint21_linear_154_158)"/>
<path opacity="0.03" d="M280.265 231.287L280.718 230.447C280.718 230.447 281.117 234.506 276.012 244.308L275.555 244.183C275.555 244.183 278.68 239.811 280.265 231.287Z" fill="black"/>
<path opacity="0.03" d="M270.825 243.778L270.46 243.808C270.46 243.808 270.227 240.581 272.136 232.68L272.009 234.408C272.009 234.408 270.99 240.925 270.822 243.784L270.825 243.778Z" fill="black"/>
<path opacity="0.03" d="M293.247 237.206C293.247 237.206 289.902 242.324 283.38 249.095C283.169 248.853 283.028 248.693 283.028 248.693C283.028 248.693 285.37 247.166 292.539 237.674L293.256 237.204L293.247 237.206Z" fill="black"/>
<path opacity="0.03" d="M288.596 229.928L289.001 229.487C289.001 229.487 284.009 240.571 280.009 246.185L279.508 245.846C279.508 245.846 282.364 242.382 288.596 229.928Z" fill="black"/>
<path opacity="0.03" d="M265.743 241.142L265.538 240.509C265.538 240.509 265.568 242.072 266.266 244.745L266.628 244.608C266.628 244.608 266.027 243.275 265.739 241.148L265.743 241.142Z" fill="black"/>
<path opacity="0.03" d="M255.976 236.102L255.598 235.367C255.598 235.367 259.088 239.198 262.977 246.353L262.665 246.609C262.665 246.609 258.926 239.99 255.982 236.105L255.976 236.102Z" fill="black"/>
<path opacity="0.03" d="M253.283 243.921L252.451 243.298C252.451 243.298 253.205 244.728 259.492 250.084L259.624 249.867C259.624 249.867 255.381 246.167 253.283 243.921Z" fill="black"/>
<path opacity="0.03" d="M254.783 252.623C254.783 252.623 257.262 253.711 257.99 254.035L257.945 254.261C257.945 254.261 255.805 253.486 254.122 252.343L254.777 252.62L254.783 252.623Z" fill="black"/>
<path opacity="0.03" d="M249.741 258.1C249.741 258.1 253.99 258.876 257.907 259.017L257.96 259.312C257.96 259.312 254.239 259.64 248.787 258.139L249.747 258.104L249.741 258.1Z" fill="black"/>
<path opacity="0.03" d="M258.981 262.766C258.981 262.766 255.725 263.216 252.697 264.411L251.488 264.669C251.488 264.669 254.111 263.521 258.808 262.369C259.009 262.842 258.978 262.772 258.978 262.772L258.981 262.766Z" fill="black"/>
<path opacity="0.03" d="M252.346 272.183C252.346 272.183 260.096 267.424 261.214 266.253L261.582 266.641C261.582 266.641 255.134 271.094 251.663 272.815L252.346 272.183Z" fill="black"/>
<path opacity="0.03" d="M264.527 268.623C264.527 268.623 256.654 275.606 253.512 282.008C253.039 282.435 252.916 282.536 252.916 282.536C252.916 282.536 256.386 275.302 264.217 268.494L264.524 268.629L264.527 268.623Z" fill="black"/>
<path opacity="0.03" d="M257.419 287.035C257.419 287.035 264.443 281.104 268.356 269.672C268.602 269.722 268.545 269.714 268.545 269.714C268.545 269.714 265.415 280.005 257.411 287.273C257.408 287.082 257.419 287.035 257.419 287.035Z" fill="black"/>
<path opacity="0.03" d="M264.098 288.189C264.098 288.189 263.914 281.114 265.521 276.644L265.198 277.243C265.198 277.243 264.101 279.797 263.937 288.474L264.092 288.186L264.098 288.189Z" fill="black"/>
<path opacity="0.03" d="M274.05 270.091C274.05 270.091 273.747 274.242 272.773 279.972L272.812 280.28C272.812 280.28 273.764 275.828 274.251 270.07L274.059 270.088L274.05 270.091Z" fill="black"/>
<path opacity="0.03" d="M279.814 278.993C279.814 278.993 276.703 272.955 276.12 269.729L275.906 269.788C275.906 269.788 276.533 272.932 280.144 280.21L279.819 278.996L279.814 278.993Z" fill="black"/>
<path opacity="0.03" d="M279.842 267.938C279.842 267.938 288.19 276.915 290.428 282.603C290.747 282.813 289.134 278.023 280.083 267.758L279.847 267.941L279.842 267.938Z" fill="black"/>
<path opacity="0.03" d="M291.077 272.703C291.077 272.703 286.69 269.017 282.917 264.586L282.758 264.826C282.758 264.826 286.258 268.974 291.603 273.305L291.077 272.703Z" fill="black"/>
<path opacity="0.03" d="M284.936 260.928C284.936 260.928 296.209 265.848 300.712 270.924L301.163 271.016C301.163 271.016 296.438 265.889 285.059 260.615L284.93 260.924L284.936 260.928Z" fill="black"/>
<path opacity="0.03" d="M289.65 247.996C289.65 247.996 287.416 249.816 284.491 250.596C284.653 250.858 284.59 250.748 284.59 250.748C284.59 250.748 288.048 249.573 290.331 247.817L289.656 247.999L289.65 247.996Z" fill="black"/>
<path opacity="0.03" d="M293.918 253.437C293.918 253.437 289.163 253.079 285.865 253.999C285.899 254.176 285.899 254.176 285.899 254.176C285.899 254.176 290.079 253.293 292.927 253.502L293.918 253.437Z" fill="black"/>
<path opacity="0.03" d="M285.837 258.033C285.837 258.033 289.523 259.543 298.893 261.717L299.398 261.921C299.398 261.921 295.453 261.453 285.764 258.38L285.837 258.033Z" fill="black"/>
<path d="M269.45 255.107C269.39 253.938 268.033 253.274 266.998 253.519C266.652 253.598 266.401 253.796 266.134 254.023C266.023 254.13 265.838 254.121 265.743 254.002C265.543 253.712 265.94 253.327 266.157 253.164C266.756 252.729 267.58 252.665 268.25 252.928C269.119 253.245 269.795 254.201 269.596 255.118C269.576 255.198 269.454 255.185 269.453 255.101L269.45 255.107Z" fill="#302826"/>
<path d="M267.685 256.043C268.325 256.388 269.123 256.15 269.468 255.511C269.812 254.872 269.573 254.074 268.934 253.729C268.294 253.384 267.496 253.622 267.151 254.261C266.807 254.9 267.046 255.698 267.685 256.043Z" fill="#302826"/>
<path d="M267.453 254.265C267.631 254.361 267.854 254.295 267.95 254.116C268.047 253.938 267.98 253.715 267.801 253.619C267.623 253.522 267.4 253.589 267.304 253.767C267.208 253.946 267.274 254.168 267.453 254.265Z" fill="#EFEFEF"/>
<path d="M267.793 254.774C267.861 254.811 267.946 254.786 267.983 254.717C268.02 254.649 267.994 254.564 267.926 254.528C267.858 254.491 267.773 254.516 267.736 254.584C267.699 254.652 267.725 254.737 267.793 254.774Z" fill="#EFEFEF"/>
<path d="M276.721 257.542C277.126 256.692 278.237 256.35 279.122 256.623C280.019 256.872 280.916 257.841 280.65 258.827C280.561 259.09 280.177 259.042 280.14 258.772C280.007 257.29 277.878 256.452 276.85 257.612C276.8 257.676 276.692 257.61 276.724 257.536L276.721 257.542Z" fill="#302826"/>
<path d="M277.265 259.291C277.904 259.636 278.702 259.398 279.047 258.759C279.392 258.12 279.153 257.322 278.513 256.977C277.873 256.632 277.075 256.871 276.731 257.51C276.386 258.149 276.625 258.946 277.265 259.291Z" fill="#302826"/>
<path d="M278.827 258.125C279.006 258.221 279.229 258.155 279.325 257.977C279.421 257.798 279.354 257.575 279.176 257.479C278.997 257.383 278.775 257.449 278.678 257.628C278.582 257.806 278.649 258.029 278.827 258.125Z" fill="#EFEFEF"/>
<path d="M278.322 258.345C278.39 258.382 278.475 258.357 278.512 258.289C278.548 258.221 278.523 258.136 278.455 258.099C278.387 258.062 278.302 258.087 278.265 258.156C278.228 258.224 278.254 258.309 278.322 258.345Z" fill="#EFEFEF"/>
<path d="M238.739 359.71L233.535 360.14C212.739 361.182 201.962 355.566 201.962 355.566L204.701 353.275C204.701 353.275 213.913 346.356 216.752 347.227C219.591 348.099 220.652 344.964 221.754 346.172C222.861 347.384 233.061 346.062 233.782 346.527C234.196 346.788 236.024 346.296 237.865 346.288C239.237 346.278 242.583 345.618 243.37 346.68C245.212 349.159 249.733 347.405 251.152 348.77C252.572 350.135 258.66 356.057 258.501 356.252C258.315 356.485 249.198 357.656 247.971 357.904C246.498 358.201 246.057 358.342 244.379 358.696C243.823 358.813 239.651 359.595 238.748 359.707L238.739 359.71Z" fill="#4F2F2F"/>
<path d="M234.189 341.553C235.23 344.42 235.568 347.438 236.743 350.255C234.732 348.412 233.997 344.187 234.189 341.553Z" fill="#4D997A"/>
<path d="M235.056 339.382C236.177 342.974 236.493 346.708 237.241 350.372C235.602 347.812 234.93 342.43 235.056 339.382Z" fill="#4D997A"/>
<path d="M237.735 350.077C236.867 347.365 236.668 344.414 236.453 341.591C237.692 343.753 238.037 347.616 237.735 350.077Z" fill="#4D997A"/>
<path d="M238.369 349.449C237.797 346.388 237.696 343.324 237.57 340.223C238.786 342.865 238.94 346.618 238.369 349.449Z" fill="#5DAF8C"/>
<path d="M238.729 349.893C239.353 348.372 239.894 346.875 240.043 345.249C240.134 344.502 240.084 343.808 240.063 343.016C241.452 345.183 240.692 348.336 238.726 349.899L238.729 349.893Z" fill="#4D997A"/>
<path d="M247.342 338.176C247.113 341.722 245.879 346.402 243.581 349.158C243.396 349.346 243.205 349.531 243.011 349.707C243.138 349.472 243.264 349.252 243.39 349.032C245.04 345.623 245.966 341.71 247.338 338.182L247.342 338.176Z" fill="#4D997A"/>
<path d="M246.46 335.153C246.128 339.16 244.584 346.538 242.341 349.809C243.18 347.411 243.666 344.92 244.332 342.475C244.975 340.016 245.618 337.558 246.463 335.147L246.46 335.153Z" fill="#4D997A"/>
<path d="M241.736 349.369C241.752 347.398 242.05 345.467 242.452 343.553C242.893 341.653 243.362 339.699 244.394 338.012C243.602 341.83 243.03 345.677 241.742 349.372L241.736 349.369Z" fill="#4D997A"/>
<path d="M240.978 348.452C240.739 344.578 241.374 339.545 243.092 336.051C242.48 339.717 241.814 344.877 240.978 348.452Z" fill="#4D997A"/>
<path d="M240.462 349.03C238.219 346.546 237.651 342.449 239.519 339.605C239.347 340.642 239.169 341.592 239.182 342.608C239.15 344.82 239.698 346.957 240.468 349.033L240.462 349.03Z" fill="#4D997A"/>
<path d="M251.554 352.346C252.759 350.38 254.38 347.683 255.556 345.701C256.018 344.957 256.453 344.206 256.983 343.491C256.717 345.251 256.029 346.92 255.131 348.444C254.203 349.953 253.08 351.402 251.554 352.346Z" fill="#51A585"/>
<path d="M248.794 350.735C246.796 347.785 247.974 343.294 250.252 340.816C250.152 341.255 250.014 341.665 249.885 342.073C249.033 344.89 248.344 347.771 248.794 350.735Z" fill="#51A585"/>
<path d="M250.553 351.95C251.502 349.247 253.28 347.022 254.655 344.556C254.851 347.035 252.442 350.46 250.553 351.95Z" fill="#51A585"/>
<path d="M249.869 351.164C250.081 349.421 250.607 347.771 251.233 346.145C251.883 344.532 252.619 342.957 253.683 341.56C253.368 343.285 252.819 344.908 252.195 346.528C251.549 348.135 250.843 349.71 249.863 351.161L249.869 351.164Z" fill="#4D997A"/>
<path d="M249.048 351.35C248.467 348.542 248.959 344.774 250.748 342.471C250.27 345.481 249.926 348.427 249.048 351.35Z" fill="#51A585"/>
<path d="M213.828 354.703C213.995 351.973 213.968 349.055 213.986 346.32C213.998 345.917 213.99 345.51 214.029 345.1C215.04 347.995 215.142 351.887 213.828 354.703Z" fill="#4D997A"/>
<path d="M210.873 354.693C207.969 353.195 206.854 349.128 207.41 346.085C207.566 346.654 207.664 347.276 207.808 347.839C208.354 350.302 209.202 352.738 210.876 354.687L210.873 354.693Z" fill="#4D997A"/>
<path d="M212.837 354.851C212.55 352.892 212.646 350.942 212.694 348.981C212.708 348.337 212.734 347.668 212.667 347.033C213.885 348.926 213.558 352.783 212.843 354.854L212.837 354.851Z" fill="#5DAF8C"/>
<path d="M211.929 354.536C211.339 353.027 211.004 351.467 210.751 349.882C210.516 348.292 210.359 346.698 210.501 345.084C211.001 346.62 211.309 348.173 211.562 349.758C211.8 351.343 211.979 352.925 211.929 354.536Z" fill="#4D997A"/>
<path d="M211.36 355.071C209.671 353.052 208.32 349.844 208.578 347.186C209.47 349.752 210.643 352.447 211.36 355.071Z" fill="#4D997A"/>
<path d="M226.692 348.836C226.005 347.282 225.845 345.482 225.854 343.736C225.879 342.422 226.036 341.104 226.347 339.824C226.783 338.285 226.76 338.257 226.776 339.873C226.771 342.654 226.691 346.053 226.692 348.836Z" fill="#4D997A"/>
<path d="M229.419 348.775C231.081 346.426 231.873 343.608 232.518 340.765C232.615 340.347 232.696 339.928 232.82 339.502C233.357 342.741 232.193 347.193 229.416 348.781L229.419 348.775Z" fill="#4D997A"/>
<path d="M227.602 348.978C226.902 346.773 226.69 342.663 227.952 340.606C227.839 343.404 228.13 346.185 227.602 348.978Z" fill="#4D997A"/>
<path d="M228.453 348.625C228.398 346.897 228.594 345.198 228.846 343.492C229.119 341.79 229.448 340.124 230.001 338.481C230.148 340.206 229.973 341.924 229.72 343.63C229.444 345.339 229.088 347.012 228.453 348.625Z" fill="#4D997A"/>
<path d="M228.961 349.188C229.635 346.238 230.719 343.525 231.723 340.692C231.985 343.541 230.65 347.044 228.961 349.188Z" fill="#4D997A"/>
<path d="M221.687 357.017C221.021 355.762 220.841 354.323 220.806 352.924C220.802 351.876 220.921 350.825 221.188 349.81C221.563 348.594 221.54 348.566 221.587 349.858C221.642 352.079 221.627 354.793 221.687 357.017Z" fill="#4D997A"/>
<path d="M224.206 357.018C225.694 355.174 226.378 352.935 226.92 350.679C226.998 350.35 227.065 350.015 227.171 349.678C227.734 352.279 226.747 355.81 224.203 357.023L224.206 357.018Z" fill="#4D997A"/>
<path d="M222.526 357.15C221.836 355.376 221.56 352.088 222.686 350.466C222.635 352.698 222.959 354.927 222.526 357.15Z" fill="#4D997A"/>
<path d="M223.308 356.882C223.219 355.499 223.371 354.148 223.571 352.793C223.792 351.441 224.065 350.117 224.542 348.812C224.708 350.191 224.586 351.558 224.383 352.92C224.159 354.277 223.858 355.609 223.308 356.882Z" fill="#5DAF8C"/>
<path d="M223.79 357.339C224.358 354.992 225.302 352.848 226.178 350.605C226.478 352.891 225.312 355.658 223.79 357.339Z" fill="#4D997A"/>
<path d="M215.951 352.3C215.102 351.16 214.699 349.767 214.454 348.392C214.292 347.356 214.247 346.301 214.356 345.253C214.541 343.996 214.518 343.968 214.76 345.236C215.15 347.425 215.555 350.108 215.951 352.3Z" fill="#4D997A"/>
<path d="M218.449 351.919C219.639 349.868 219.969 347.552 220.163 345.238C220.188 344.896 220.205 344.556 220.263 344.208C221.218 346.702 220.781 350.325 218.449 351.919Z" fill="#4D997A"/>
<path d="M216.809 352.3C215.858 350.657 215.075 347.437 215.945 345.67C216.239 347.883 216.899 350.036 216.809 352.3Z" fill="#4D997A"/>
<path d="M217.538 351.92C217.241 350.57 217.179 349.209 217.176 347.835C217.188 346.462 217.256 345.111 217.525 343.755C217.905 345.09 217.986 346.46 217.994 347.837C217.982 349.21 217.89 350.578 217.538 351.92Z" fill="#4D997A"/>
<path d="M218.085 352.298C218.29 349.892 218.894 347.632 219.417 345.283C220.058 347.501 219.329 350.399 218.085 352.298Z" fill="#4D997A"/>
<path d="M236.477 370.15C236.477 370.15 234.803 369.103 237.959 368.599C241.115 368.095 244.077 368.26 243.882 368.875C243.687 369.49 243.332 369.542 243.332 369.542L236.471 370.147L236.477 370.15Z" fill="#846934"/>
<path d="M236.512 370.169C236.512 370.169 236.27 369.788 236.448 369.43C236.851 370.147 236.749 370.138 236.749 370.138L236.515 370.163L236.512 370.169Z" fill="#4F2F2F"/>
<path d="M236.44 369.585C237.86 372.102 255.747 404.709 244.918 428.893C244.88 431.003 251.202 432.495 253.725 430.323C253.936 430.141 254.13 429.783 254.3 429.382C254.684 428.474 254.875 427.501 254.923 426.511C255.238 419.834 256.325 384.853 243.299 368.971C243.08 368.701 242.738 368.577 242.396 368.62L236.539 369.403C236.449 369.415 236.401 369.503 236.444 369.579L236.44 369.585Z" fill="#593636"/>
<path d="M244.918 428.893C244.918 428.893 244.333 427.091 244.977 426.165L246.368 426.4L244.918 428.893Z" fill="#4F2F2F"/>
<path d="M336.857 386.016C336.857 386.016 320.888 401.801 291.399 393.294C266.353 387.805 255.215 383.04 255.215 383.04L250.547 373.6C248.578 369.611 248.518 364.938 250.389 360.906C256.861 346.966 261.583 335.456 265.66 326.941L266.532 325.084C266.864 324.399 266.959 324.435 267.262 323.787C267.295 323.896 267.657 322.802 267.699 322.893C279.18 300.639 312.348 275.199 327.069 272.631C356.98 266.71 357.386 242.348 383.971 202.773C410.553 163.204 430.851 159.808 438.801 152.458C446.765 145.108 441.861 160.136 451.359 153.28C460.859 146.417 457.753 163.924 465.457 160.506C473.164 157.066 480.736 222.497 463.547 256.783C446.357 291.07 376.787 313.667 356.65 338.713C336.517 363.754 336.845 386.01 336.845 386.01L336.857 386.016Z" fill="#C9C9C9"/>
<path d="M380.774 454.001C382.946 446.188 377.872 437.893 376.489 434.956C376.508 434.527 376.552 434.179 376.605 433.896C376.626 433.915 376.634 433.927 376.634 433.927L376.64 433.93C376.64 433.93 376.654 433.961 376.679 434.027C376.784 434.311 376.901 434.587 377.036 434.857C377.227 435.278 377.444 435.676 377.687 436.057C379.746 439.275 384.623 449.299 380.774 454.001Z" fill="#FFCD50"/>
<path d="M203.126 398.812C203.126 398.812 202.5 399.635 202.561 400.296C202.621 400.958 202.779 401.468 202.383 402.104L203.31 402.172L204.609 400.256L203.55 398.715L203.132 398.8L203.126 398.812Z" fill="#FFB624"/>
<path d="M203.529 392.986C203.529 392.986 202.89 393.832 202.944 394.505C202.998 395.179 203.153 395.695 202.744 396.354L203.675 396.416L205.002 394.448L203.953 392.889L203.529 392.986Z" fill="#FFB624"/>
<path d="M207.015 388.831C207.015 388.831 203.478 392.322 203.412 394.356C203.645 395.346 203.134 396.11 203.193 396.437C203.252 396.764 204.955 398.123 206.33 398.599" fill="#E8EFEF"/>
<path d="M204.758 398.335C204.758 398.335 202.828 398.196 202.798 400.546C202.976 401.286 202.594 401.853 202.634 402.102C202.674 402.351 204.143 403.455 204.981 403.717" fill="#E8EFEF"/>
</g>
<defs>
<linearGradient id="paint0_linear_154_158" x1="287.843" y1="224.585" x2="277.156" y2="245.638" gradientUnits="userSpaceOnUse">
<stop stop-color="#CC275A"/>
<stop offset="0.02" stop-color="#CF3967"/>
<stop offset="0.06" stop-color="#D76287"/>
<stop offset="0.11" stop-color="#DE87A4"/>
<stop offset="0.17" stop-color="#E4A8BC"/>
<stop offset="0.23" stop-color="#E9C3D1"/>
<stop offset="0.3" stop-color="#EDD9E2"/>
<stop offset="0.38" stop-color="#F1EAEF"/>
<stop offset="0.48" stop-color="#F3F6F8"/>
<stop offset="0.61" stop-color="#F4FDFD"/>
<stop offset="1" stop-color="#F5FFFF"/>
</linearGradient>
<linearGradient id="paint1_linear_154_158" x1="303.958" y1="234.475" x2="281.345" y2="249.716" gradientUnits="userSpaceOnUse">
<stop stop-color="#CC275A"/>
<stop offset="0.02" stop-color="#CF3967"/>
<stop offset="0.06" stop-color="#D76287"/>
<stop offset="0.11" stop-color="#DE87A4"/>
<stop offset="0.17" stop-color="#E4A8BC"/>
<stop offset="0.23" stop-color="#E9C3D1"/>
<stop offset="0.3" stop-color="#EDD9E2"/>
<stop offset="0.38" stop-color="#F1EAEF"/>
<stop offset="0.48" stop-color="#F3F6F8"/>
<stop offset="0.61" stop-color="#F4FDFD"/>
<stop offset="1" stop-color="#F5FFFF"/>
</linearGradient>
<linearGradient id="paint2_linear_154_158" x1="296.077" y1="226.427" x2="279.436" y2="248.698" gradientUnits="userSpaceOnUse">
<stop stop-color="#CC275A"/>
<stop offset="0.02" stop-color="#CF3967"/>
<stop offset="0.06" stop-color="#D76287"/>
<stop offset="0.11" stop-color="#DE87A4"/>
<stop offset="0.17" stop-color="#E4A8BC"/>
<stop offset="0.23" stop-color="#E9C3D1"/>
<stop offset="0.3" stop-color="#EDD9E2"/>
<stop offset="0.38" stop-color="#F1EAEF"/>
<stop offset="0.48" stop-color="#F3F6F8"/>
<stop offset="0.61" stop-color="#F4FDFD"/>
<stop offset="1" stop-color="#F5FFFF"/>
</linearGradient>
<linearGradient id="paint3_linear_154_158" x1="305.617" y1="248.399" x2="286.616" y2="251.387" gradientUnits="userSpaceOnUse">
<stop stop-color="#CC275A"/>
<stop offset="0.02" stop-color="#CF3967"/>
<stop offset="0.06" stop-color="#D76287"/>
<stop offset="0.11" stop-color="#DE87A4"/>
<stop offset="0.17" stop-color="#E4A8BC"/>
<stop offset="0.23" stop-color="#E9C3D1"/>
<stop offset="0.3" stop-color="#EDD9E2"/>
<stop offset="0.38" stop-color="#F1EAEF"/>
<stop offset="0.48" stop-color="#F3F6F8"/>
<stop offset="0.61" stop-color="#F4FDFD"/>
<stop offset="1" stop-color="#F5FFFF"/>
</linearGradient>
<linearGradient id="paint4_linear_154_158" x1="310.611" y1="260.43" x2="281.308" y2="254.273" gradientUnits="userSpaceOnUse">
<stop stop-color="#CC275A"/>
<stop offset="0.02" stop-color="#CF3967"/>
<stop offset="0.06" stop-color="#D76287"/>
<stop offset="0.11" stop-color="#DE87A4"/>
<stop offset="0.17" stop-color="#E4A8BC"/>
<stop offset="0.23" stop-color="#E9C3D1"/>
<stop offset="0.3" stop-color="#EDD9E2"/>
<stop offset="0.38" stop-color="#F1EAEF"/>
<stop offset="0.48" stop-color="#F3F6F8"/>
<stop offset="0.61" stop-color="#F4FDFD"/>
<stop offset="1" stop-color="#F5FFFF"/>
</linearGradient>
<linearGradient id="paint5_linear_154_158" x1="302.973" y1="277.295" x2="282.532" y2="261.052" gradientUnits="userSpaceOnUse">
<stop stop-color="#CC275A"/>
<stop offset="0.02" stop-color="#CF3967"/>
<stop offset="0.06" stop-color="#D76287"/>
<stop offset="0.11" stop-color="#DE87A4"/>
<stop offset="0.17" stop-color="#E4A8BC"/>
<stop offset="0.23" stop-color="#E9C3D1"/>
<stop offset="0.3" stop-color="#EDD9E2"/>
<stop offset="0.38" stop-color="#F1EAEF"/>
<stop offset="0.48" stop-color="#F3F6F8"/>
<stop offset="0.61" stop-color="#F4FDFD"/>
<stop offset="1" stop-color="#F5FFFF"/>
</linearGradient>
<linearGradient id="paint6_linear_154_158" x1="311.767" y1="271.736" x2="280.78" y2="258.196" gradientUnits="userSpaceOnUse">
<stop stop-color="#CC275A"/>
<stop offset="0.02" stop-color="#CF3967"/>
<stop offset="0.06" stop-color="#D76287"/>
<stop offset="0.11" stop-color="#DE87A4"/>
<stop offset="0.17" stop-color="#E4A8BC"/>
<stop offset="0.23" stop-color="#E9C3D1"/>
<stop offset="0.3" stop-color="#EDD9E2"/>
<stop offset="0.38" stop-color="#F1EAEF"/>
<stop offset="0.48" stop-color="#F3F6F8"/>
<stop offset="0.61" stop-color="#F4FDFD"/>
<stop offset="1" stop-color="#F5FFFF"/>
</linearGradient>
<linearGradient id="paint7_linear_154_158" x1="296.947" y1="285.3" x2="280.727" y2="266.19" gradientUnits="userSpaceOnUse">
<stop stop-color="#CC275A"/>
<stop offset="0.02" stop-color="#CF3967"/>
<stop offset="0.06" stop-color="#D76287"/>
<stop offset="0.11" stop-color="#DE87A4"/>
<stop offset="0.17" stop-color="#E4A8BC"/>
<stop offset="0.23" stop-color="#E9C3D1"/>
<stop offset="0.3" stop-color="#EDD9E2"/>
<stop offset="0.38" stop-color="#F1EAEF"/>
<stop offset="0.48" stop-color="#F3F6F8"/>
<stop offset="0.61" stop-color="#F4FDFD"/>
<stop offset="1" stop-color="#F5FFFF"/>
</linearGradient>
<linearGradient id="paint8_linear_154_158" x1="279.136" y1="294.05" x2="274.478" y2="269.562" gradientUnits="userSpaceOnUse">
<stop stop-color="#CC275A"/>
<stop offset="0.02" stop-color="#CF3967"/>
<stop offset="0.06" stop-color="#D76287"/>
<stop offset="0.11" stop-color="#DE87A4"/>
<stop offset="0.17" stop-color="#E4A8BC"/>
<stop offset="0.23" stop-color="#E9C3D1"/>
<stop offset="0.3" stop-color="#EDD9E2"/>
<stop offset="0.38" stop-color="#F1EAEF"/>
<stop offset="0.48" stop-color="#F3F6F8"/>
<stop offset="0.61" stop-color="#F4FDFD"/>
<stop offset="1" stop-color="#F5FFFF"/>
</linearGradient>
<linearGradient id="paint9_linear_154_158" x1="290.91" y1="290.376" x2="278.212" y2="268.907" gradientUnits="userSpaceOnUse">
<stop stop-color="#CC275A"/>
<stop offset="0.02" stop-color="#CF3967"/>
<stop offset="0.06" stop-color="#D76287"/>
<stop offset="0.11" stop-color="#DE87A4"/>
<stop offset="0.17" stop-color="#E4A8BC"/>
<stop offset="0.23" stop-color="#E9C3D1"/>
<stop offset="0.3" stop-color="#EDD9E2"/>
<stop offset="0.38" stop-color="#F1EAEF"/>
<stop offset="0.48" stop-color="#F3F6F8"/>
<stop offset="0.61" stop-color="#F4FDFD"/>
<stop offset="1" stop-color="#F5FFFF"/>
</linearGradient>
<linearGradient id="paint10_linear_154_158" x1="265.733" y1="293.81" x2="271.496" y2="270.05" gradientUnits="userSpaceOnUse">
<stop stop-color="#CC275A"/>
<stop offset="0.02" stop-color="#CF3967"/>
<stop offset="0.06" stop-color="#D76287"/>
<stop offset="0.11" stop-color="#DE87A4"/>
<stop offset="0.17" stop-color="#E4A8BC"/>
<stop offset="0.23" stop-color="#E9C3D1"/>
<stop offset="0.3" stop-color="#EDD9E2"/>
<stop offset="0.38" stop-color="#F1EAEF"/>
<stop offset="0.48" stop-color="#F3F6F8"/>
<stop offset="0.61" stop-color="#F4FDFD"/>
<stop offset="1" stop-color="#F5FFFF"/>
</linearGradient>
<linearGradient id="paint11_linear_154_158" x1="258.145" y1="293.372" x2="267.695" y2="268.594" gradientUnits="userSpaceOnUse">
<stop stop-color="#CC275A"/>
<stop offset="0.02" stop-color="#CF3967"/>
<stop offset="0.06" stop-color="#D76287"/>
<stop offset="0.11" stop-color="#DE87A4"/>
<stop offset="0.17" stop-color="#E4A8BC"/>
<stop offset="0.23" stop-color="#E9C3D1"/>
<stop offset="0.3" stop-color="#EDD9E2"/>
<stop offset="0.38" stop-color="#F1EAEF"/>
<stop offset="0.48" stop-color="#F3F6F8"/>
<stop offset="0.61" stop-color="#F4FDFD"/>
<stop offset="1" stop-color="#F5FFFF"/>
</linearGradient>
<linearGradient id="paint12_linear_154_158" x1="243.805" y1="286.296" x2="263.654" y2="266.257" gradientUnits="userSpaceOnUse">
<stop stop-color="#CC275A"/>
<stop offset="0.02" stop-color="#CF3967"/>
<stop offset="0.06" stop-color="#D76287"/>
<stop offset="0.11" stop-color="#DE87A4"/>
<stop offset="0.17" stop-color="#E4A8BC"/>
<stop offset="0.23" stop-color="#E9C3D1"/>
<stop offset="0.3" stop-color="#EDD9E2"/>
<stop offset="0.38" stop-color="#F1EAEF"/>
<stop offset="0.48" stop-color="#F3F6F8"/>
<stop offset="0.61" stop-color="#F4FDFD"/>
<stop offset="1" stop-color="#F5FFFF"/>
</linearGradient>
<linearGradient id="paint13_linear_154_158" x1="252.574" y1="288.664" x2="266.662" y2="269.291" gradientUnits="userSpaceOnUse">
<stop stop-color="#CC275A"/>
<stop offset="0.02" stop-color="#CF3967"/>
<stop offset="0.06" stop-color="#D76287"/>
<stop offset="0.11" stop-color="#DE87A4"/>
<stop offset="0.17" stop-color="#E4A8BC"/>
<stop offset="0.23" stop-color="#E9C3D1"/>
<stop offset="0.3" stop-color="#EDD9E2"/>
<stop offset="0.38" stop-color="#F1EAEF"/>
<stop offset="0.48" stop-color="#F3F6F8"/>
<stop offset="0.61" stop-color="#F4FDFD"/>
<stop offset="1" stop-color="#F5FFFF"/>
</linearGradient>
<linearGradient id="paint14_linear_154_158" x1="238.108" y1="275.154" x2="261.21" y2="264.049" gradientUnits="userSpaceOnUse">
<stop stop-color="#CC275A"/>
<stop offset="0.02" stop-color="#CF3967"/>
<stop offset="0.06" stop-color="#D76287"/>
<stop offset="0.11" stop-color="#DE87A4"/>
<stop offset="0.17" stop-color="#E4A8BC"/>
<stop offset="0.23" stop-color="#E9C3D1"/>
<stop offset="0.3" stop-color="#EDD9E2"/>
<stop offset="0.38" stop-color="#F1EAEF"/>
<stop offset="0.48" stop-color="#F3F6F8"/>
<stop offset="0.61" stop-color="#F4FDFD"/>
<stop offset="1" stop-color="#F5FFFF"/>
</linearGradient>
<linearGradient id="paint15_linear_154_158" x1="239.925" y1="238.374" x2="259.834" y2="253.71" gradientUnits="userSpaceOnUse">
<stop stop-color="#CC275A"/>
<stop offset="0.02" stop-color="#CF3967"/>
<stop offset="0.06" stop-color="#D76287"/>
<stop offset="0.11" stop-color="#DE87A4"/>
<stop offset="0.17" stop-color="#E4A8BC"/>
<stop offset="0.23" stop-color="#E9C3D1"/>
<stop offset="0.3" stop-color="#EDD9E2"/>
<stop offset="0.38" stop-color="#F1EAEF"/>
<stop offset="0.48" stop-color="#F3F6F8"/>
<stop offset="0.61" stop-color="#F4FDFD"/>
<stop offset="1" stop-color="#F5FFFF"/>
</linearGradient>
<linearGradient id="paint16_linear_154_158" x1="246.976" y1="230.759" x2="261.136" y2="248.225" gradientUnits="userSpaceOnUse">
<stop stop-color="#CC275A"/>
<stop offset="0.02" stop-color="#CF3967"/>
<stop offset="0.06" stop-color="#D76287"/>
<stop offset="0.11" stop-color="#DE87A4"/>
<stop offset="0.17" stop-color="#E4A8BC"/>
<stop offset="0.23" stop-color="#E9C3D1"/>
<stop offset="0.3" stop-color="#EDD9E2"/>
<stop offset="0.38" stop-color="#F1EAEF"/>
<stop offset="0.48" stop-color="#F3F6F8"/>
<stop offset="0.61" stop-color="#F4FDFD"/>
<stop offset="1" stop-color="#F5FFFF"/>
</linearGradient>
<linearGradient id="paint17_linear_154_158" x1="254.676" y1="224.767" x2="264.986" y2="246.785" gradientUnits="userSpaceOnUse">
<stop stop-color="#CC275A"/>
<stop offset="0.02" stop-color="#CF3967"/>
<stop offset="0.06" stop-color="#D76287"/>
<stop offset="0.11" stop-color="#DE87A4"/>
<stop offset="0.17" stop-color="#E4A8BC"/>
<stop offset="0.23" stop-color="#E9C3D1"/>
<stop offset="0.3" stop-color="#EDD9E2"/>
<stop offset="0.38" stop-color="#F1EAEF"/>
<stop offset="0.48" stop-color="#F3F6F8"/>
<stop offset="0.61" stop-color="#F4FDFD"/>
<stop offset="1" stop-color="#F5FFFF"/>
</linearGradient>
<linearGradient id="paint18_linear_154_158" x1="267.585" y1="219.702" x2="268.995" y2="244.099" gradientUnits="userSpaceOnUse">
<stop stop-color="#CC275A"/>
<stop offset="0.02" stop-color="#CF3967"/>
<stop offset="0.06" stop-color="#D76287"/>
<stop offset="0.11" stop-color="#DE87A4"/>
<stop offset="0.17" stop-color="#E4A8BC"/>
<stop offset="0.23" stop-color="#E9C3D1"/>
<stop offset="0.3" stop-color="#EDD9E2"/>
<stop offset="0.38" stop-color="#F1EAEF"/>
<stop offset="0.48" stop-color="#F3F6F8"/>
<stop offset="0.61" stop-color="#F4FDFD"/>
<stop offset="1" stop-color="#F5FFFF"/>
</linearGradient>
<linearGradient id="paint19_linear_154_158" x1="234.178" y1="263.562" x2="259.006" y2="260.043" gradientUnits="userSpaceOnUse">
<stop stop-color="#CC275A"/>
<stop offset="0.02" stop-color="#CF3967"/>
<stop offset="0.06" stop-color="#D76287"/>
<stop offset="0.11" stop-color="#DE87A4"/>
<stop offset="0.17" stop-color="#E4A8BC"/>
<stop offset="0.23" stop-color="#E9C3D1"/>
<stop offset="0.3" stop-color="#EDD9E2"/>
<stop offset="0.38" stop-color="#F1EAEF"/>
<stop offset="0.48" stop-color="#F3F6F8"/>
<stop offset="0.61" stop-color="#F4FDFD"/>
<stop offset="1" stop-color="#F5FFFF"/>
</linearGradient>
<linearGradient id="paint20_linear_154_158" x1="233.408" y1="251.032" x2="258.08" y2="255.726" gradientUnits="userSpaceOnUse">
<stop stop-color="#CC275A"/>
<stop offset="0.02" stop-color="#CF3967"/>
<stop offset="0.06" stop-color="#D76287"/>
<stop offset="0.11" stop-color="#DE87A4"/>
<stop offset="0.17" stop-color="#E4A8BC"/>
<stop offset="0.23" stop-color="#E9C3D1"/>
<stop offset="0.3" stop-color="#EDD9E2"/>
<stop offset="0.38" stop-color="#F1EAEF"/>
<stop offset="0.48" stop-color="#F3F6F8"/>
<stop offset="0.61" stop-color="#F4FDFD"/>
<stop offset="1" stop-color="#F5FFFF"/>
</linearGradient>
<linearGradient id="paint21_linear_154_158" x1="278.876" y1="220.867" x2="273.28" y2="244.966" gradientUnits="userSpaceOnUse">
<stop stop-color="#CC275A"/>
<stop offset="0.02" stop-color="#CF3967"/>
<stop offset="0.06" stop-color="#D76287"/>
<stop offset="0.11" stop-color="#DE87A4"/>
<stop offset="0.17" stop-color="#E4A8BC"/>
<stop offset="0.23" stop-color="#E9C3D1"/>
<stop offset="0.3" stop-color="#EDD9E2"/>
<stop offset="0.38" stop-color="#F1EAEF"/>
<stop offset="0.48" stop-color="#F3F6F8"/>
<stop offset="0.61" stop-color="#F4FDFD"/>
<stop offset="1" stop-color="#F5FFFF"/>
</linearGradient>
<clipPath id="clip0_154_158">
<rect width="397" height="368" fill="white" transform="translate(174.712) rotate(28.3439)"/>
</clipPath>
</defs>
</svg>
