<svg width="189" height="376" viewBox="0 0 189 376" fill="none" xmlns="http://www.w3.org/2000/svg">
<path d="M78.2508 240.682C70.9664 268.629 74.2973 323.643 76.0912 346.475C76.5854 352.909 76.9906 356.79 76.9906 356.79H65.6241C65.6241 356.79 63.8648 284.128 70.1757 257.728C76.4865 231.329 79.763 175.922 79.763 175.922L84.0823 173.568L85.8219 172.618C85.8219 172.618 87.5862 204.859 78.2508 240.682Z" fill="#5ABA97"/>
<path d="M78.2509 240.683C70.9665 268.63 74.2974 323.644 76.0913 346.476L73.3831 348.023C73.3831 348.023 68.031 270.705 75.6811 244.877C85.5996 205.994 84.8138 181.773 84.0824 173.544L85.822 172.594C85.822 172.594 87.5863 204.86 78.2509 240.683Z" fill="#63C6A0"/>
<path d="M97.8161 284.133C86.8202 293.666 72.6467 296.88 72.6467 296.88L72.6764 283.675C72.6764 283.675 86.074 260.907 96.9167 250.658C103.811 244.15 109.667 242.697 110.408 255.34C111.194 268.435 105.219 277.714 97.8161 284.133Z" fill="#5ABA97"/>
<path d="M77.3267 231.209C77.3267 231.209 76.3383 230.796 74.7767 229.98C68.9551 226.91 55.3993 218.129 58.5226 204.148C59.1107 201.511 59.9261 200.083 60.8898 199.56C66.4001 196.575 76.7041 223.119 76.7041 223.119L77.3267 231.209Z" fill="#5ABA97"/>
<path d="M94.4656 288.636L95.4243 287.641C95.1218 287.989 94.8018 288.321 94.4656 288.636Z" fill="#82D16F"/>
<path d="M97.8161 284.133C105.382 273.903 111.565 260.499 107.651 248.747C105.931 243.578 96.9216 250.663 96.9216 250.663C103.816 244.155 109.672 242.702 110.413 255.345C111.194 268.435 105.219 277.714 97.8161 284.133Z" fill="#63C6A0"/>
<path d="M125.926 100.504C121.172 117.112 108.135 123.819 86.8844 124.46C79.2787 124.689 71.7225 120.396 66.1282 113.768C56.1208 101.892 52.439 82.5273 66.1282 68.2428C66.1282 68.2428 74.6086 58.9735 88.0013 56.446C94.0936 55.3094 100.373 55.7459 106.252 57.7148C129.736 65.3919 130.685 83.9155 125.926 100.504Z" fill="#FFCD50"/>
<path d="M66.1382 113.789C56.1308 101.913 52.449 82.5481 66.1382 68.2636C66.1382 68.2636 74.6186 58.9943 88.0113 56.4668C73.8625 62.6612 52.1772 78.3339 66.1382 113.789Z" fill="#FFC033"/>
<path d="M92.4443 95.8667C93.6995 97.6031 96.2051 97.7673 98.0781 97.1156C98.7443 96.8778 99.3209 96.438 99.7287 95.8568C99.7728 95.7917 99.8407 95.7468 99.9175 95.7319C99.9944 95.717 100.074 95.7332 100.139 95.7772C100.178 95.8047 100.21 95.8411 100.232 95.8835C100.255 95.9259 100.267 95.973 100.267 96.021C100.25 96.5147 100.092 96.9931 99.8127 97.3991C98.1127 99.8122 94.001 99.8172 92.2911 97.3991C92.0489 97.0409 91.4411 95.7772 92.1527 95.6826C92.2115 95.684 92.269 95.7002 92.32 95.7297C92.3709 95.7593 92.4137 95.8012 92.4443 95.8518V95.8667Z" fill="#302826"/>
<path d="M102.6 90.0163C102.97 86.429 106.464 83.8517 109.958 83.5482C112.736 83.2596 115.943 84.3542 117.693 86.7623C118.372 87.5855 118.724 88.6332 118.681 89.7028C118.651 90.0404 118.524 90.3618 118.315 90.628C118.107 90.8941 117.826 91.0933 117.507 91.2015C117.188 91.3096 116.844 91.3219 116.518 91.2369C116.192 91.1519 115.898 90.9733 115.671 90.7228C115.195 90.2149 114.793 89.6421 114.475 89.0212C113.989 88.2261 113.33 87.5515 112.549 87.0476C111.768 86.5437 110.884 86.2235 109.963 86.1105C107.186 85.7374 104.137 87.3196 103.148 90.1207C103.124 90.1836 103.078 90.2357 103.019 90.2675C102.96 90.2994 102.891 90.309 102.826 90.2946C102.76 90.2802 102.702 90.2428 102.662 90.189C102.621 90.1353 102.601 90.0687 102.605 90.0013L102.6 90.0163Z" fill="#302826"/>
<path d="M89.0344 90.1353C88.046 87.3391 84.9919 85.752 82.2194 86.1251C81.2981 86.2387 80.4138 86.5593 79.632 87.0631C78.8502 87.5669 78.1908 88.241 77.7025 89.0358C77.0057 90.3791 75.7257 92.1902 74.0751 90.8767C72.9137 89.7473 73.66 87.8616 74.4803 86.7769C76.2347 84.3688 79.4223 83.2941 82.2145 83.5628C85.7084 83.8513 89.2073 86.4286 89.578 90.0309C89.5818 90.0983 89.5617 90.1648 89.5211 90.2186C89.4806 90.2723 89.4223 90.3098 89.3568 90.3242C89.2913 90.3386 89.2228 90.329 89.1637 90.2971C89.1046 90.2652 89.0588 90.2132 89.0344 90.1503V90.1353Z" fill="#302826"/>
<path d="M102.689 56.7201L101.873 56.546C98.5589 55.873 95.1674 55.6687 91.7968 55.939C91.441 55.939 91.0852 55.9987 90.7343 56.0385C90.6503 50.9884 90.5663 34.5147 92.6122 20.7128C94.4902 8.07016 98.1769 -2.33351 105.323 0.457717C109.044 1.91055 110.917 5.64711 111.594 10.5678C113.63 25.2852 104.928 50.5556 102.689 56.7201Z" fill="#F5FFFF"/>
<path d="M128.901 53.6057C123.672 58.9643 119.259 62.8849 118.251 63.7656L118.182 63.8303C116.689 62.6649 115.099 61.6327 113.428 60.7455C112.331 60.1584 111.174 59.6011 109.934 59.0837L108.239 58.0886C108.239 58.0886 117.421 39.5749 127.433 26.176C134.985 16.0808 143.005 8.88137 147.937 14.6877C155.449 23.5241 140.253 41.9582 128.901 53.6057Z" fill="#F5FFFF"/>
<path d="M127.418 26.1513C123.109 42.6698 113.517 60.7655 113.517 60.7655H113.423C112.326 60.1784 111.169 59.6212 109.929 59.1037C108.772 58.6062 107.552 58.1634 106.267 57.7454C105.056 57.3524 103.87 57.024 102.699 56.7504L101.883 56.5762C102.679 49.2026 105.659 24.8079 111.609 10.5781C114.871 2.77166 119.022 -1.9799 124.211 0.821284C130.838 4.39864 130.354 14.9267 127.418 26.1513Z" fill="#F5FFFF"/>
<path d="M141.31 64.2826C133.843 67.3176 126.865 69.4222 124.038 70.2531C123.873 69.9944 123.709 69.7406 123.544 69.4919C122.109 67.4386 120.386 65.6053 118.429 64.0487L118.261 63.79L117.124 62.0585C117.124 62.0585 122.111 58.1876 128.891 53.6003C142.383 44.4952 162.971 32.5939 165.63 42.7886C167.883 51.4111 153.907 59.1728 141.31 64.2826Z" fill="#F5FFFF"/>
<path d="M180.875 67.084C180.381 73.8009 172.291 77.428 162.402 79.3336C149.712 81.7914 134.1 81.4233 127.913 81.1446C127.878 80.866 127.833 80.5874 127.789 80.3088C127.25 76.726 125.975 73.296 124.043 70.2384C123.878 69.9797 123.714 69.726 123.549 69.4772C126.227 68.5916 133.161 66.3725 141.34 64.2828C158.706 59.8447 181.676 56.0236 180.875 67.084Z" fill="#F5FFFF"/>
<path d="M180.115 110.738C176.27 117.778 164.394 116.251 152.529 112.475C141.375 108.912 130.23 103.36 125.783 101.031C125.837 100.862 125.886 100.693 125.936 100.534C126.035 100.185 126.134 99.837 126.227 99.4837C126.751 97.5482 127.216 95.5929 127.527 93.6326C127.794 92.0603 127.992 90.4881 128.105 88.9258C136.013 89.8761 162.007 93.4385 174.328 100.21C179.606 103.111 182.358 106.604 180.115 110.738Z" fill="#F5FFFF"/>
<path d="M188.669 91.8564C187.102 97.0458 181.538 99.444 174.337 100.2C158.296 101.887 134.1 95.4785 127.537 93.6227C127.804 92.0504 128.002 90.4782 128.115 88.9159C128.325 86.3261 128.264 83.7212 127.932 81.1442C127.898 80.8656 127.853 80.587 127.809 80.3084C133.497 79.8108 148.629 78.6416 162.403 79.3133C177.673 80.1044 191.298 83.1493 188.669 91.8564Z" fill="#F5FFFF"/>
<path d="M170.695 135.357C167.888 138.178 163.776 138.407 159.047 137.064C145.338 133.158 126.682 115.963 121.177 110.694C121.3 110.524 121.419 110.35 121.538 110.171C123.409 107.371 124.837 104.297 125.773 101.056C125.827 100.887 125.877 100.718 125.926 100.559C126.025 100.21 126.124 99.862 126.218 99.5088C130.329 101.26 141.953 106.375 152.519 112.505C165.555 120.023 176.922 129.103 170.695 135.357Z" fill="#F5FFFF"/>
<path d="M138.869 169.916C129.731 172.812 120.688 158.732 114.337 145.238C110.952 137.975 108.003 130.513 105.506 122.893L109.133 120.232L109.331 120.142C110.962 119.419 112.529 118.558 114.016 117.57C114.431 117.296 114.826 117.012 115.222 116.714C117.1 118.978 124.038 127.461 130.497 137.034C139.828 150.875 148.155 166.966 138.869 169.916Z" fill="#F5FFFF"/>
<path d="M161.419 150.179C154.164 156.075 141.157 146.965 130.502 137.054C124.396 131.305 118.656 125.173 113.319 118.694L114.016 117.59C114.431 117.316 114.826 117.032 115.222 116.734C117.504 115.041 119.505 112.996 121.152 110.674C121.276 110.505 121.394 110.33 121.513 110.151C128.254 113.933 149.598 126.356 159.022 137.064C163.579 142.218 165.363 146.975 161.419 150.179Z" fill="#F5FFFF"/>
<path d="M107.641 178.897C104.265 178.4 101.834 175.957 100.114 172.355C93.8082 159.185 96.9513 130.412 97.8309 123.476L98.3943 123.381C102.086 122.776 105.691 121.725 109.133 120.252L109.331 120.162C109.781 121.933 112.538 133.098 114.317 145.233C116.764 161.881 117.371 180.345 107.641 178.897Z" fill="#F5FFFF"/>
<path d="M100.114 172.354C98.7601 179.877 95.9184 184.753 90.5663 183.42C86.8598 182.499 84.4926 179.399 83.0644 175.056C78.2707 160.453 84.1418 131.769 85.7677 124.48C86.14 124.48 86.5106 124.48 86.8796 124.48C88.6093 124.431 90.2846 124.338 91.9056 124.202C93.9664 124.033 95.9333 123.789 97.8359 123.475L98.3993 123.381C99.3778 130.192 102.901 156.876 100.114 172.354Z" fill="#F5FFFF"/>
<path d="M85.1648 124.456C83.8404 129.272 77.4356 151.746 69.5384 166.065C64.5075 175.18 58.8786 180.992 53.566 176.832C46.074 170.971 51.5348 156.209 58.6957 143.133C63.1107 135.218 68.0369 127.602 73.4425 120.336C74.0306 120.724 74.6286 121.087 75.2364 121.421C78.1214 123.073 81.3218 124.09 84.6261 124.406C84.7942 124.436 85.0017 124.446 85.1648 124.456Z" fill="#F5FFFF"/>
<path d="M96.4125 125.088C96.4125 125.088 92.0438 162.374 83.0693 175.056C80.4698 178.723 77.4898 180.335 74.1194 178.405C70.3536 176.245 69.1774 171.683 69.5431 166.066C70.4722 151.637 81.5027 130.208 84.6161 124.416C84.7989 124.416 84.9867 124.446 85.1696 124.456C85.3524 124.466 85.5699 124.456 85.7725 124.481C86.1448 124.481 86.5154 124.481 86.8844 124.481C88.6141 124.431 90.2895 124.338 91.9104 124.202L96.4125 125.088Z" fill="#F5FFFF"/>
<path d="M75.2362 121.401C70.0987 128.921 64.5777 136.168 58.6955 143.114C48.52 154.945 36.6297 165.583 31.6532 157.92C25.7228 148.81 40.9391 133.874 53.1951 123.928C59.3676 118.918 64.7988 115.176 66.3951 114.097C66.5928 114.326 66.7855 114.544 66.9881 114.763C68.8845 116.885 71.0436 118.753 73.4127 120.321C74.0304 120.724 74.6234 121.087 75.2362 121.401Z" fill="#F5FFFF"/>
<path d="M58.0187 82.9059C57.1454 86.667 56.9645 90.5575 57.485 94.3843C47.7246 93.5384 -1.87281 88.3888 5.26337 74.4028C9.40966 66.273 24.4678 69.1338 37.8802 73.6914C44.8138 76.1008 51.6052 78.9065 58.2213 82.0949C58.1472 82.3685 58.0829 82.6372 58.0187 82.9059Z" fill="#F5FFFF"/>
<path d="M63.0742 71.9151C62.9358 72.1041 62.8024 72.2932 62.6739 72.4872C60.6443 75.4049 59.1389 78.6584 58.2261 82.0998C58.152 82.3685 58.0878 82.6372 58.0235 82.9058C54.4208 81.4132 46.2765 78 37.8702 73.6913C23.0444 66.1037 7.3784 55.7797 14.2131 48.6747C19.1551 43.5251 28.5893 46.804 37.9691 52.4561C48.5498 58.8296 59.0712 68.2083 63.0742 71.9151Z" fill="#F5FFFF"/>
<path d="M70.8627 64.183C70.6551 64.3323 70.4574 64.4815 70.2647 64.6308C68.7912 65.7386 67.4065 66.9614 66.1233 68.2878C65.0243 69.4326 64.0054 70.6529 63.0742 71.9398C62.9358 72.1288 62.8023 72.3179 62.6739 72.5119C58.4979 69.5267 47.1215 61.2276 37.9641 52.4857C28.2285 43.1468 21.0231 33.3601 27.7244 29.0265C38.2853 22.1902 56.4569 44.1071 65.639 56.6651C68.199 60.2027 70.0621 62.9392 70.8627 64.183Z" fill="#F5FFFF"/>
<path d="M80.9394 58.5211C80.6429 58.6356 80.3464 58.76 80.0548 58.8843C76.794 60.2692 73.7083 62.0397 70.8628 64.1583C70.6552 64.3076 70.4576 64.4569 70.2648 64.6061C69.7212 63.7105 67.9569 60.785 65.654 56.6852C56.7585 40.8533 39.8521 7.51776 53.7933 5.31861C63.4548 3.79115 70.5268 18.9315 75.0437 33.5643C77.5142 41.754 79.4831 50.0886 80.9394 58.5211Z" fill="#F5FFFF"/>
<path d="M67.092 114.933C67.092 114.933 61.1616 119.117 53.21 123.948C37.89 133.243 15.157 144.905 12.7552 133.69C10.6697 123.914 26.9782 115.993 41.2653 111.007C47.6673 108.799 54.1759 106.917 60.7663 105.37C60.9491 105.773 61.1468 106.176 61.3544 106.569C62.6782 109.15 64.288 111.572 66.153 113.789L66.4248 114.107C66.6225 114.336 66.8152 114.555 67.0179 114.774L67.092 114.933Z" fill="#F5FFFF"/>
<path d="M61.3397 106.569C60.1091 106.893 51.5793 109.117 41.2506 111.007C22.7331 114.401 -1.53184 116.744 0.074293 105.241C2.38218 88.7572 47.8284 93.2998 57.4948 94.4541C58.0059 98.2421 59.1049 101.926 60.7516 105.37C60.9344 105.773 61.1321 106.176 61.3397 106.569Z" fill="#F5FFFF"/>
<path opacity="0.35" d="M76.6844 99.4738C78.5349 99.4738 80.035 98.6852 80.035 97.7125C80.035 96.7397 78.5349 95.9512 76.6844 95.9512C74.8339 95.9512 73.3337 96.7397 73.3337 97.7125C73.3337 98.6852 74.8339 99.4738 76.6844 99.4738Z" fill="#FF6E79"/>
<path opacity="0.35" d="M116.788 99.4738C118.639 99.4738 120.139 98.6852 120.139 97.7125C120.139 96.7397 118.639 95.9512 116.788 95.9512C114.938 95.9512 113.438 96.7397 113.438 97.7125C113.438 98.6852 114.938 99.4738 116.788 99.4738Z" fill="#FF6E79"/>
<path d="M91.7918 55.9589C91.436 55.9589 91.0802 56.0186 90.7293 56.0584C89.7936 56.1613 88.8827 56.2973 87.9964 56.4664C85.5847 56.9247 83.2217 57.6128 80.9393 58.5213C80.6428 58.6357 80.3463 58.7601 80.0547 58.8845C79.2343 55.5957 76.6596 44.8836 75.0189 33.5445C72.6467 17.2001 72.2118 -0.45774 81.7399 0.930411C88.4461 1.9255 91.4508 10.5032 92.6122 20.7377C94.1294 34.2112 92.4491 50.5058 91.7918 55.9589Z" fill="#F5FFFF"/>
<path d="M92.6074 20.7374L92.9978 18.3193C92.9978 18.3193 97.2924 27.8523 92.9978 55.884L91.792 55.9586C91.792 55.9586 95.7604 42.7588 92.6074 20.7374Z" fill="#E9F4F4"/>
<path d="M80.0597 58.8843L79.2047 59.2575C79.2047 59.2575 76.0073 51.6003 74.1541 30.8477L75.2561 35.1415C75.2561 35.1415 78.1323 51.8043 80.0597 58.8843Z" fill="#E9F4F4"/>
<path d="M128.758 24.4189C128.758 24.4189 124.873 39.619 114.653 61.4463C113.942 61.0283 113.477 60.7646 113.477 60.7646C113.477 60.7646 117.875 55.1175 127.403 26.1504L128.758 24.4189Z" fill="#E9F4F4"/>
<path d="M111.594 10.5681L112.207 9.16504C112.207 9.16504 109.217 40.2119 104.172 57.1483L102.689 56.7403C102.689 56.7403 106.746 45.9635 111.594 10.5681Z" fill="#E9F4F4"/>
<path d="M65.639 56.6653L64.6506 55.2871C64.6506 55.2871 66.0047 59.0535 69.8743 64.9843L70.6403 64.3424C68.6455 62.0156 66.964 59.4344 65.639 56.6653Z" fill="#E9F4F4"/>
<path d="M37.974 52.4614L36.4568 50.9688C36.4568 50.9688 48.0111 57.3921 63.2224 71.592L62.6738 72.4677C62.6738 72.4677 48.2433 59.4818 37.974 52.4614Z" fill="#E9F4F4"/>
<path d="M37.8654 73.6913L35.345 72.8604C35.345 72.8604 38.3101 75.7163 57.8803 83.5427L58.0187 82.9058C58.0187 82.9058 44.7693 77.4129 37.8654 73.6913Z" fill="#E9F4F4"/>
<path d="M48.5944 93.593C48.5944 93.593 55.4588 94.1851 57.4899 94.3841L57.5739 94.9663C53.9357 94.8517 50.3197 94.3514 46.7856 93.4736L48.5944 93.593Z" fill="#E9F4F4"/>
<path d="M40.9096 111.072C47.8052 109.996 54.6282 108.492 61.3397 106.569L61.7054 107.246C61.7054 107.246 52.9927 111.112 38.6265 111.948L40.9096 111.072Z" fill="#E9F4F4"/>
<path d="M67.0079 114.778C62.0992 117.343 57.4699 120.416 53.1952 123.948L50.4919 125.57C50.4919 125.57 55.8737 120.595 66.2716 113.942L67.0079 114.778Z" fill="#E9F4F4"/>
<path d="M58.6956 143.134C58.6956 143.134 73.5215 125.182 75.2363 121.421L76.4372 122.053C76.4372 122.053 64.537 138.188 57.5688 145.233L58.6956 143.134Z" fill="#E9F4F4"/>
<path d="M85.1646 124.455C85.1646 124.455 71.8807 147.905 69.5382 166.065C68.7425 167.488 68.5498 167.831 68.5498 167.831C68.5498 167.831 71.0208 147.387 84.3295 124.386L85.1646 124.455Z" fill="#E9F4F4"/>
<path d="M83.0645 175.056C83.0645 175.056 95.1673 154.846 95.2513 123.854L95.7455 123.789C95.7455 123.789 96.6153 151.373 83.2473 175.643C83.1701 175.453 83.1089 175.257 83.0645 175.056Z" fill="#E9F4F4"/>
<path d="M100.114 172.355C100.114 172.355 93.8972 155.314 94.1097 143.114L93.8082 144.841C93.8082 144.841 93.2547 151.961 99.961 173.171L100.114 172.355Z" fill="#E9F4F4"/>
<path d="M109.331 120.162C109.331 120.162 111.999 130.506 114.317 145.233L114.663 145.955C113.527 137.202 111.899 128.52 109.785 119.953L109.331 120.162Z" fill="#E9F4F4"/>
<path d="M130.502 137.054C130.502 137.054 118.063 124.949 114.016 117.59L113.522 117.913C113.522 117.913 117.599 125.043 132.257 139.741L130.502 137.054Z" fill="#E9F4F4"/>
<path d="M121.538 110.152C121.538 110.152 149.01 125.078 159.047 137.064C159.981 137.313 152.178 126.998 121.982 109.51L121.538 110.152Z" fill="#E9F4F4"/>
<path d="M152.528 112.475C143.453 108.798 134.659 104.453 126.217 99.4746L126.02 100.191C135.049 105.433 144.506 109.889 154.288 113.51L152.528 112.475Z" fill="#E9F4F4"/>
<path d="M128.095 88.9162C128.095 88.9162 159.309 91.5731 174.318 100.201L175.489 100.061C175.489 100.061 159.897 91.4885 128.155 88.0654L128.095 88.9162Z" fill="#E9F4F4"/>
<path d="M128.901 53.6053C126.161 57.7516 122.669 61.3403 118.607 64.1831C119.205 64.6806 118.968 64.4766 118.968 64.4766C118.968 64.4766 126.346 58.7698 130.408 52.6201L128.901 53.6053Z" fill="#E9F4F4"/>
<path d="M143.648 63.3076C143.648 63.3076 131.886 66.3625 124.69 71.3181L124.913 71.7112C124.913 71.7112 134.278 66.1187 141.31 64.2828L143.648 63.3076Z" fill="#E9F4F4"/>
<path d="M127.913 81.1441C127.913 81.1441 138.034 81.7859 162.402 79.333L163.791 79.4126C163.791 79.4126 153.907 81.5322 128.021 82.0446L127.913 81.1441Z" fill="#E9F4F4"/>
<path d="M113.171 375.956C76.0666 376.329 7.02759 374.284 7.02759 374.284L11.9201 370.702C11.9201 370.702 25.807 351.636 31.6879 352.536C37.5688 353.437 38.7302 346.874 41.2704 348.954C43.8105 351.034 52.0339 347.834 53.5956 348.546C54.4901 348.949 57.9643 347.416 61.5966 346.864C64.3048 346.436 67.1118 346.556 68.9799 348.441C73.3486 352.835 77.8754 344.361 81.1025 346.66C84.3296 348.959 103.084 347.158 103.475 350.74C103.865 354.322 120.885 363.253 123.623 367.428C126.361 371.602 134.579 370.413 136.141 374.284C136.531 375.344 127.102 375.816 113.171 375.956Z" fill="#4F2F2F"/>
<path d="M113.171 375.955C113.171 375.955 107.735 368.915 107.008 368.492C106.282 368.069 97.5246 353.257 96.0568 355.954C94.5891 358.65 81.0185 351.152 79.9905 348.988C78.9626 346.824 72.9532 355.262 70.5267 351.132C68.1002 347.003 61.562 346.844 61.562 346.844C64.2702 346.416 67.0772 346.535 68.9453 348.421C73.314 352.814 77.8408 344.341 81.0679 346.64C84.295 348.938 103.05 347.137 103.44 350.72C103.831 354.302 120.851 363.233 123.588 367.407C126.326 371.582 134.545 370.392 136.106 374.263C136.531 375.343 127.102 375.816 113.171 375.955Z" fill="#593636"/>
</svg>
