<svg width="319" height="702" viewBox="0 0 319 702" fill="none" xmlns="http://www.w3.org/2000/svg">
<path d="M138.42 429.19C123.68 485.36 130.39 595.93 134.05 641.82C135.08 654.75 135.87 662.55 135.87 662.55H112.89C112.89 662.55 109.31 516.51 122.08 463.4C134.85 410.3 145.02 271.6 145.02 271.6L153.76 266.87L157.28 264.96C157.28 264.96 157.31 357.19 138.42 429.19Z" fill="#5ABA97"/>
<path d="M138.42 429.19C123.68 485.36 130.39 595.93 134.05 641.82L128.57 644.93C128.57 644.93 117.74 489.53 133.22 437.62C153.29 359.47 155.24 289.67 153.76 273.13L157.28 271.22C157.28 271.22 157.31 357.19 138.42 429.19Z" fill="#63C6A0"/>
<path d="M134.85 402.21C134.85 402.21 132.99 401.45 130.13 399.95C119.35 394.3 94.2401 378.15 100.03 352.43C101.12 347.58 102.63 344.95 104.41 343.99C114.62 338.5 133.68 387.33 133.68 387.33L134.85 402.21Z" fill="#5ABA97"/>
<path d="M171.23 525.57C171.89 524.88 172.54 524.19 173.17 523.52C172.54 524.26 171.89 524.94 171.23 525.57Z" fill="#82D16F"/>
<path d="M173.22 400.43C158.02 407.89 141.08 407.32 141.08 407.32L144.97 392.52C144.97 392.52 166.75 370.93 181.99 362.62C191.68 357.35 198.72 357.44 195.86 371.84C192.9 386.75 183.45 395.41 173.22 400.42V400.43Z" fill="#5ABA97"/>
<path d="M173.22 400.43C184.75 391.18 195.65 377.97 194.67 363.64C194.24 357.34 182 362.63 182 362.63C191.69 357.35 198.73 357.44 195.87 371.85C192.91 386.76 183.46 395.42 173.23 400.43H173.22Z" fill="#63C6A0"/>
<path d="M316.811 144.94C314.161 148.03 308.731 150.11 310.581 151.61C312.481 153.11 316.051 157.97 314.331 159.12C312.651 160.22 307.751 164.95 307.571 164.95C307.391 164.95 305.671 167.91 305.671 167.91C305.671 167.91 313.791 177.71 310.971 178.64C308.141 179.61 309.071 185.44 307.571 186.19C306.071 186.94 309.341 194.27 304.391 192.95C299.441 191.63 306.991 198.69 304.211 200.37C301.381 202.05 300.151 212.11 298.161 210.79C297.171 210.11 295.021 210.57 293.161 211.17C291.301 211.77 290.201 213.73 290.601 215.67C291.471 219.89 292.491 226.8 289.951 227.08C288.431 227.26 286.511 227.29 284.781 227.27C282.461 227.23 280.621 229.2 280.831 231.51C281.161 235.09 281.221 239.44 279.531 238.91C277.951 238.44 275.251 238.51 273.171 238.66C271.501 238.78 270.091 239.94 269.671 241.56C268.991 244.19 267.891 247.95 266.991 248.49C266.161 249.01 263.201 249.61 260.921 250.01C259.291 250.3 258.011 251.56 257.741 253.2C257.431 255.07 256.861 257.41 255.861 258.51C254.011 260.5 253.481 261.2 251.051 262.17C249.791 262.69 247.241 262.65 245.131 262.51C243.341 262.39 241.701 263.49 241.161 265.2C240.881 266.08 240.481 266.81 239.921 266.81C238.511 266.81 233.031 274.01 231.051 273.3C229.061 272.59 220.631 277.23 219.221 276.26C217.811 275.29 215.511 274.58 215.511 274.58C215.511 274.58 204.601 287.43 200.681 285.75C197.891 284.57 193.711 282.61 191.461 281.55C190.461 281.07 189.341 281.05 188.311 281.48C183.831 283.37 171.421 288.48 171.751 287.25C172.101 285.75 168.531 287.43 166.671 286.5C164.771 285.57 163.271 282.17 163.271 282.17C163.271 282.17 152.761 288.93 150.111 287.42C147.511 285.92 145.431 282.34 143.931 282.17C142.431 281.99 141.411 279.12 141.411 279.12C141.411 279.12 138.671 283.09 135.671 282.17C132.621 281.24 128.341 283.67 126.261 282.17C124.181 280.67 120.261 277.84 119.281 275.59C118.351 273.34 111.601 278.9 109.521 276.08C107.441 273.25 94.5106 271.27 97.0306 267.74C99.5506 264.16 98.6206 261.69 98.6206 261.69C98.6206 261.69 92.3506 265.44 88.6006 263.41C86.4606 262.24 85.6106 258.93 85.2806 256.25C85.0306 254.29 83.3106 252.87 81.3306 252.91C79.7606 252.94 78.0706 252.76 77.0306 252.02C74.6906 250.34 68.7706 249.02 68.1106 247.34C67.4506 245.66 63.8706 241.69 64.2206 239.83C64.6206 237.93 63.5606 231.22 63.5606 231.22C63.5606 231.22 60.6906 236.12 57.8606 233.56C55.9406 231.85 55.1606 225.71 54.8606 221.95C54.7306 220.28 53.5206 218.9 51.8906 218.5C50.8606 218.25 50.0206 217.87 50.4006 217.35C51.2406 216.25 50.1806 211.39 50.1806 211.39C50.1806 211.39 38.7006 215.94 38.8306 208.92C38.9606 201.86 34.7206 196.2 35.6106 196.2C36.5006 196.2 36.0106 188.03 37.1606 186.93C38.2606 185.78 38.1306 182.96 38.1306 182.96C38.1306 182.96 27.5806 178.9 28.5506 176.07C29.1806 174.25 31.7406 168.94 33.4906 165.38C34.4006 163.53 33.7106 161.33 31.9406 160.29C29.4106 158.81 26.3406 156.58 26.5806 154.6C26.8506 152.53 29.8806 149.76 32.2106 147.91C33.7406 146.69 34.1306 144.54 33.1206 142.86C31.4106 140.01 28.9506 136.07 27.8906 135.25C24.4106 132.53 28.9106 125.44 29.2506 124.63C30.8006 120.97 36.5806 120.39 36.5806 120.39C36.5806 120.39 31.2506 115.82 32.4906 113.17C33.4906 111.05 33.5606 102.74 35.6806 102.74C37.8006 102.74 40.8206 100.69 40.8206 100.69C40.8206 100.69 36.8006 94.03 38.0306 93.06C39.3106 92.04 40.1406 80.96 43.1006 79.81C46.0606 78.71 51.6106 75.38 52.4906 75.11C53.3306 74.8 54.1806 73.23 54.1806 73.23L54.6506 69.75C54.6506 69.75 39.2606 56.7 49.6806 54.98C53.8106 54.31 57.3206 54.18 60.0606 54.25C62.7306 54.32 64.6406 51.72 63.8206 49.18C62.9606 46.5 62.7706 43.68 65.1706 42.62C68.4006 41.19 73.9606 40.74 77.5806 40.6C79.5306 40.53 81.1206 39.01 81.2906 37.07C81.6406 32.84 82.6906 26.24 85.7406 26.24C87.4306 26.24 89.3506 26.66 91.0906 27.19C93.6006 27.95 96.1106 25.95 96.0806 23.33C96.0106 17.93 96.5806 11.06 100.091 13C102.021 14.07 104.021 15.3 105.811 16.46C108.341 18.09 111.711 16.33 111.801 13.32C111.961 7.57001 112.971 0.92001 117.011 3.43001C123.771 7.67001 127.741 6.56001 130.261 7.67001C131.361 8.16001 132.761 8.98001 134.011 9.75001C135.711 10.8 137.921 10.41 139.151 8.83001C141.461 5.86001 145.201 1.81001 147.751 2.90001C149.691 3.73001 151.411 5.12001 152.661 6.31001C153.951 7.54001 155.931 7.68001 157.421 6.70001C160.521 4.67001 165.531 1.66001 168.321 1.49001C170.511 1.33001 172.401 3.03001 173.711 4.70001C174.961 6.30001 177.181 6.73001 178.901 5.65001C182.821 3.21001 189.161 -0.22999 191.411 1.49001C192.961 2.64001 194.511 4.61001 195.751 6.43001C196.741 7.89001 198.641 8.65001 200.251 7.93001C201.201 7.50001 202.601 7.31001 204.661 7.68001C208.781 8.44001 211.521 11.3 212.911 13.16C213.681 14.19 214.921 14.72 216.201 14.64C219.731 14.41 226.471 14.06 228.891 14.44C232.291 15.01 237.631 13.6 237.941 15.59C238.071 16.53 238.321 18.93 238.551 21.2C238.801 23.68 241.271 25.27 243.641 24.51C246.961 23.44 250.881 22.46 250.881 23.75C250.881 26 250.041 31.08 252.871 31.08C255.701 31.08 266.121 29.93 264.131 31.65C262.141 33.33 260.691 40.66 264.401 40.66C268.111 40.66 274.291 39.51 273.721 42.65C273.321 44.8 273.501 49.83 273.641 52.68C273.711 53.96 274.381 55.11 275.471 55.79C277.661 57.16 281.221 59.52 281.621 60.67C281.901 61.49 282.181 62.86 282.401 64.04C282.651 65.4 283.571 66.52 284.871 66.99C288.161 68.2 294.221 70.8 294.731 73.78C295.161 76.27 294.631 79.68 294.141 81.97C293.821 83.49 294.411 85.03 295.671 85.94C298.601 88.07 303.471 92.01 303.161 94.49C303.011 95.81 302.561 97.01 302.061 98C301.221 99.65 301.521 101.62 302.911 102.84C304.961 104.62 307.451 107.11 307.531 108.71C307.611 110.33 306.681 113.1 305.891 115.12C305.341 116.52 305.601 118.12 306.651 119.19C308.121 120.69 310.151 123.33 311.461 127.39C312.261 129.8 312.031 131.6 311.381 132.93C310.451 134.86 311.541 137.11 313.511 137.96C314.841 138.54 315.821 139.23 315.611 139.97C315.041 142.05 319.361 141.82 316.761 144.96L316.811 144.94Z" fill="#F5FFFF"/>
<path d="M151.09 288.62C150.52 288.62 150.03 288.52 149.63 288.3C148.23 287.49 147.03 286.21 145.97 285.08C145.28 284.34 144.23 283.22 143.83 283.17C142.63 283.03 141.75 281.95 141.18 280.97C139.95 282.23 137.8 283.87 135.39 283.13C134.19 282.77 132.62 283.05 131.1 283.32C129.15 283.67 127.13 284.03 125.69 282.99C122.66 280.8 119.42 278.32 118.4 276.05C117.95 275.98 116.55 276.5 115.7 276.81C113.3 277.7 110.3 278.81 108.74 276.68C108.08 275.78 105.46 274.77 103.14 273.87C99.5302 272.47 96.4101 271.27 95.8202 269.29C95.6702 268.79 95.6202 268.02 96.2302 267.16C97.3902 265.51 97.7302 264.16 97.7902 263.26C95.6002 264.31 91.2301 265.97 88.1301 264.29C86.1001 263.18 84.8102 260.52 84.2901 256.38C84.1101 254.94 82.8201 253.89 81.3601 253.91C79.1702 253.95 77.5201 253.59 76.4601 252.83C75.5701 252.19 74.0002 251.57 72.4802 250.96C69.9402 249.95 67.7401 249.08 67.2001 247.7C67.0101 247.21 66.4002 246.32 65.8201 245.46C64.4101 243.39 62.9601 241.25 63.2701 239.64C63.4701 238.7 63.2301 236.03 62.9301 233.67C62.2001 234.4 61.2401 235.09 60.1401 235.25C59.1001 235.41 58.0902 235.08 57.2202 234.29C55.5502 232.8 54.4302 228.67 53.8902 222.02C53.7901 220.79 52.9002 219.76 51.6802 219.46C50.3302 219.13 49.6601 218.7 49.4201 218.04C49.2601 217.61 49.3402 217.14 49.6302 216.75C49.8702 216.34 49.7801 214.59 49.4601 212.71C47.2101 213.45 42.3501 214.72 39.6701 212.86C38.8301 212.28 37.8301 211.11 37.8701 208.88C37.9501 204.45 36.1902 200.51 35.2402 198.39C34.5802 196.91 34.3001 196.3 34.7101 195.68C34.7901 195.56 34.8802 195.46 34.9902 195.38C35.1202 194.8 35.2101 193.38 35.2801 192.3C35.5001 188.72 35.7001 186.95 36.5001 186.18C36.9501 185.71 37.1301 184.49 37.1601 183.61C33.4701 182.14 26.5401 178.89 27.6301 175.71C28.2601 173.89 30.6902 168.83 32.6102 164.91C33.2902 163.53 32.7902 161.91 31.4502 161.13C27.2702 158.69 25.3602 156.5 25.6002 154.46C25.8502 152.54 27.8702 150.07 31.6002 147.1C32.7502 146.19 33.0301 144.61 32.2801 143.35C28.6801 137.34 27.5502 136.21 27.2902 136.01C23.5702 133.1 26.9902 126.76 28.1102 124.68C28.2302 124.46 28.3202 124.3 28.3602 124.21C29.5002 121.51 32.4901 120.29 34.5101 119.75C32.8101 117.99 30.5302 115.04 31.6102 112.72C31.9102 112.09 32.1502 110.5 32.3802 108.97C32.9502 105.24 33.4901 101.72 35.7101 101.72C36.8401 101.72 38.4402 100.94 39.4902 100.34C35.6302 93.69 36.9901 92.62 37.4401 92.26C37.6901 91.92 38.1601 89.85 38.5101 88.33C39.6501 83.32 40.6202 79.7 42.7702 78.87C44.5002 78.22 47.2501 76.74 49.2601 75.65C50.9701 74.72 51.8102 74.27 52.2402 74.15C52.4102 74.08 52.9002 73.49 53.2502 72.9L53.6201 70.15C51.5602 68.34 44.0301 61.37 45.2302 57.03C45.6802 55.42 47.1301 54.39 49.5501 53.99C53.1801 53.41 56.7301 53.16 60.1201 53.25C61.0901 53.28 61.9101 52.86 62.4701 52.12C63.0401 51.36 63.2001 50.4 62.9101 49.49C61.3001 44.47 63.0501 42.49 64.8101 41.71C68.1101 40.25 73.5801 39.76 77.5901 39.61C79.0401 39.55 80.2201 38.43 80.3401 36.99C80.9901 29.2 82.8302 25.25 85.7901 25.25C87.3601 25.25 89.2502 25.58 91.4302 26.24C92.2902 26.5 93.2001 26.33 93.9302 25.78C94.7001 25.21 95.1402 24.29 95.1301 23.34C95.0101 13.65 97.0602 12.42 97.7302 12.02C98.3202 11.67 99.3002 11.4 100.62 12.12C102.34 13.08 104.29 14.25 106.4 15.61C107.29 16.18 108.38 16.23 109.31 15.73C110.24 15.24 110.81 14.32 110.84 13.28C111.01 6.91001 112.07 3.29001 114.08 2.21001C114.79 1.83001 115.98 1.58001 117.57 2.56001C121.95 5.31001 125.13 5.72001 127.46 6.02001C128.69 6.18001 129.74 6.32001 130.69 6.73001C131.67 7.17001 132.97 7.89001 134.56 8.87001C135.83 9.65001 137.47 9.36001 138.38 8.19001C142.41 3.00001 145.7 0.91001 148.16 1.96001C149.88 2.70001 151.64 3.91001 153.37 5.57001C154.32 6.48001 155.77 6.59001 156.89 5.85001C160.47 3.50001 165.35 0.66001 168.27 0.47001C170.39 0.31001 172.55 1.56001 174.51 4.06001C175.45 5.26001 177.12 5.57001 178.38 4.78001C188.85 -1.74999 191.24 0.0700096 192.03 0.67001C193.41 1.69001 194.95 3.44001 196.59 5.84001C197.37 6.98001 198.77 7.48001 199.85 6.99001C201.14 6.41001 202.82 6.30001 204.84 6.66001C209.37 7.49001 212.34 10.69 213.72 12.52C214.27 13.26 215.18 13.66 216.15 13.6C219.9 13.36 226.56 13.02 229.06 13.41C230.24 13.61 231.71 13.55 233.13 13.49C235.95 13.38 238.62 13.27 238.95 15.39C239.06 16.21 239.27 18.11 239.57 21.05C239.66 21.92 240.13 22.7 240.86 23.18C241.6 23.66 242.51 23.79 243.36 23.51C249.06 21.68 250.56 21.97 251.28 22.49C251.68 22.78 251.9 23.21 251.9 23.71C251.9 24.11 251.88 24.58 251.85 25.11C251.77 26.6 251.64 29.09 252.36 29.84C252.45 29.94 252.59 30.04 252.89 30.04C253.55 30.04 254.68 29.97 255.99 29.89C262.87 29.48 264.81 29.54 265.31 30.77C265.42 31.03 265.58 31.7 264.81 32.37C263.68 33.33 262.68 37 263.34 38.79C263.61 39.52 264.02 39.62 264.42 39.62C265.15 39.62 265.99 39.57 266.88 39.52C269.98 39.35 272.91 39.18 274.19 40.63C274.54 41.02 274.91 41.72 274.72 42.78C274.44 44.29 274.42 47.86 274.66 52.58C274.71 53.54 275.2 54.38 276.02 54.89C282.01 58.62 282.43 59.84 282.59 60.29C282.84 61.03 283.12 62.21 283.41 63.8C283.59 64.82 284.28 65.64 285.24 65.99C289.72 67.63 295.18 70.28 295.74 73.55C296.19 76.17 295.67 79.66 295.15 82.12C294.91 83.26 295.34 84.39 296.29 85.07C301.82 89.08 304.47 92.27 304.19 94.55C304.05 95.81 303.65 97.11 302.99 98.39C302.34 99.67 302.59 101.13 303.61 102.02C308.46 106.24 308.54 108.02 308.57 108.6C308.64 110.04 308.07 112.34 306.86 115.42C306.44 116.48 306.66 117.67 307.41 118.43C308.95 120.01 311.08 122.78 312.45 127.02C313.24 129.39 313.19 131.51 312.32 133.3C311.95 134.06 312.08 134.76 312.25 135.22C312.54 136 313.16 136.64 313.95 136.98C314.73 137.32 317.12 138.36 316.62 140.18C316.58 140.33 316.56 140.39 317.23 140.92C317.78 141.35 318.53 141.94 318.64 142.95C318.72 143.75 318.39 144.58 317.58 145.55H317.57C316.45 146.87 314.94 147.96 313.6 148.92C312.78 149.51 311.57 150.38 311.27 150.84C312.94 152.22 315.89 155.89 315.8 158.23C315.77 158.95 315.45 159.55 314.9 159.92C313.92 160.56 311.61 162.66 310.09 164.05C309.02 165.02 308.51 165.49 308.2 165.71C307.98 166 307.43 166.89 306.91 167.78C309.13 170.51 313.19 175.95 312.5 178.32C312.33 178.92 311.9 179.36 311.3 179.55C310.23 179.92 309.92 181.79 309.64 183.44C309.38 185 309.14 186.36 308.19 186.96C308.11 187.29 308.17 188.16 308.21 188.75C308.33 190.48 308.47 192.45 307.21 193.49C306.48 194.09 305.45 194.22 304.14 193.87C304.01 193.84 303.9 193.81 303.81 193.79C303.98 194.22 304.28 194.81 304.51 195.25C305.51 197.21 306.88 199.89 304.75 201.18C303.68 201.82 302.65 204.7 301.9 206.81C300.86 209.72 300.22 211.39 299.03 211.79C298.56 211.95 298.06 211.87 297.62 211.58C297.23 211.31 295.92 211.29 293.48 212.08C292.1 212.53 291.29 213.97 291.59 215.43C293.48 224.63 292.14 226.46 291.7 227.06C291.29 227.62 290.72 227.96 290.07 228.03C288.73 228.19 286.95 228.26 284.77 228.22C283.95 228.2 283.16 228.54 282.59 229.15C282.03 229.76 281.76 230.55 281.84 231.37C282.39 237.46 281.61 238.93 280.87 239.53C280.41 239.9 279.83 240 279.24 239.82C278.12 239.49 275.99 239.42 273.25 239.62C272 239.71 270.96 240.58 270.65 241.77C268.93 248.46 267.97 249.03 267.51 249.31C267.24 249.48 266.36 250.03 261.1 250.96C259.88 251.17 258.93 252.13 258.73 253.33C258.26 256.16 257.55 258.12 256.61 259.15L256.2 259.59C254.61 261.3 253.88 262.09 251.43 263.07C250.26 263.55 248.12 263.69 245.07 263.48C243.72 263.39 242.52 264.21 242.12 265.47C241.65 266.95 240.94 267.73 240.01 267.77C239.54 267.96 238.23 269.24 237.26 270.17C234.27 273.07 232.34 274.78 230.71 274.21C230.03 273.99 227.09 275.1 225.33 275.76C221.69 277.12 219.74 277.8 218.65 277.05C217.8 276.47 216.56 275.98 215.83 275.71C213.18 278.76 204.39 288.39 200.28 286.64C197.48 285.46 193.28 283.49 191.03 282.42C190.29 282.07 189.46 282.05 188.7 282.37C172.41 289.22 171.73 288.63 171.13 288.11C170.96 287.96 170.85 287.78 170.79 287.57C170.53 287.58 170.21 287.62 169.94 287.65C168.79 287.78 167.36 287.93 166.23 287.37C164.73 286.64 163.53 284.78 162.88 283.58C160.06 285.33 154.36 288.59 151.09 288.59V288.62ZM172.75 287.43C172.75 287.43 172.75 287.47 172.74 287.48C172.74 287.46 172.74 287.44 172.75 287.43ZM141.72 276.96L142.38 278.79C142.76 279.87 143.57 281.12 144.07 281.18C145.2 281.31 146.19 282.37 147.44 283.71C148.4 284.74 149.49 285.91 150.63 286.56C151.9 287.28 157.92 284.43 162.75 281.33L163.73 280.7L164.2 281.77C164.58 282.62 165.84 284.98 167.12 285.6C167.73 285.91 168.84 285.79 169.73 285.69C170.87 285.57 171.85 285.46 172.44 286.13C172.49 286.19 172.55 286.26 172.6 286.36C174.34 285.97 179.42 284.14 187.93 280.56C189.22 280.02 190.63 280.05 191.89 280.65C194.13 281.71 198.29 283.66 201.07 284.83C203.07 285.68 209.74 279.84 214.75 273.93L215.18 273.43L215.81 273.62C215.91 273.65 218.21 274.36 219.73 275.39C220.41 275.5 222.95 274.55 224.64 273.92C228 272.66 230.13 271.91 231.39 272.36C231.39 272.36 231.4 272.36 231.41 272.36C232.17 272.36 234.67 269.94 235.88 268.77C237.85 266.86 238.88 265.9 239.8 265.82C239.87 265.73 240.04 265.49 240.22 264.9C240.9 262.75 242.95 261.36 245.21 261.52C248.8 261.76 250.18 261.46 250.68 261.25C252.72 260.43 253.23 259.89 254.73 258.27L255.14 257.83C255.79 257.11 256.37 255.41 256.76 253.04C257.1 251 258.7 249.39 260.75 249.03C265.39 248.21 266.32 247.73 266.46 247.65C266.48 247.63 267.27 246.9 268.71 241.32C269.23 239.29 271 237.82 273.1 237.67C276.05 237.45 278.26 237.53 279.67 237.91C279.85 237.54 280.25 236.16 279.84 231.6C279.71 230.22 280.18 228.85 281.12 227.84C282.06 226.82 283.43 226.23 284.8 226.27C286.88 226.3 288.58 226.24 289.84 226.09C289.9 226.09 289.98 226.07 290.08 225.93C290.69 225.1 290.89 222.02 289.62 215.88C289.11 213.42 290.5 210.99 292.85 210.23C295.49 209.37 297.33 209.24 298.47 209.82C298.92 209.24 299.56 207.43 300 206.19C300.99 203.4 302.01 200.52 303.7 199.52C304.23 199.2 303.24 197.26 302.71 196.22C301.88 194.6 301.23 193.33 302 192.38C302.73 191.48 304.12 191.86 304.65 192C305.27 192.17 305.73 192.17 305.93 192C306.4 191.62 306.28 190.01 306.21 188.95C306.1 187.37 305.99 185.88 307.13 185.31C307.32 185.11 307.52 183.93 307.65 183.16C308 181.09 308.43 178.52 310.58 177.73C310.71 176.64 308.12 172.44 304.91 168.56L304.46 168.02L304.81 167.42C306.33 164.8 306.78 164.17 307.18 164.01C307.48 163.76 308.13 163.16 308.73 162.62C310.4 161.1 312.68 159.02 313.78 158.3C314.13 157.61 311.91 153.96 309.96 152.41C309.31 151.89 309.19 151.3 309.2 150.91C309.24 149.64 310.57 148.68 312.42 147.35C313.66 146.45 315.07 145.44 316.04 144.32C316.65 143.59 316.65 143.27 316.64 143.21C316.62 143.04 316.27 142.77 315.99 142.55C315.36 142.06 314.32 141.24 314.66 139.81C314.57 139.69 314.24 139.35 313.15 138.88C311.86 138.32 310.85 137.26 310.37 135.98C309.94 134.82 309.99 133.58 310.52 132.5C311.16 131.19 311.17 129.58 310.55 127.71C309.3 123.83 307.37 121.32 305.98 119.9C304.68 118.58 304.3 116.56 305 114.77C306.07 112.03 306.63 109.9 306.57 108.77C306.53 108.04 305.39 106.3 302.29 103.6C300.59 102.12 300.15 99.64 301.21 97.56C301.75 96.49 302.09 95.43 302.2 94.39C302.33 93.33 300.55 90.71 295.12 86.76C293.55 85.62 292.8 83.67 293.2 81.77C293.68 79.48 294.18 76.26 293.78 73.96C293.48 72.22 289.95 69.92 284.56 67.94C282.93 67.34 281.76 65.95 281.45 64.23C281.18 62.75 280.93 61.64 280.71 61C280.55 60.61 279.17 59.26 274.98 56.65C273.62 55.8 272.76 54.34 272.68 52.75C272.5 49.25 272.37 44.64 272.77 42.49C272.83 42.16 272.75 42.07 272.71 42.02C272.07 41.3 269.03 41.47 267.01 41.58C266.09 41.63 265.22 41.68 264.43 41.68C263.03 41.68 261.98 40.92 261.47 39.54C260.64 37.28 261.47 33.67 262.78 31.75C261.1 31.65 257.87 31.84 256.12 31.94C254.78 32.02 253.62 32.09 252.9 32.09C252.11 32.09 251.43 31.81 250.92 31.27C249.62 29.9 249.75 27.21 249.87 25.06C249.89 24.73 249.9 24.43 249.91 24.15C249.39 24.11 247.88 24.22 243.99 25.47C242.57 25.93 241.03 25.72 239.79 24.91C238.55 24.1 237.75 22.79 237.6 21.31C237.31 18.42 237.1 16.49 236.99 15.73C236.66 15.4 234.51 15.49 233.23 15.54C231.71 15.6 230.13 15.67 228.76 15.43C227.08 15.16 222.54 15.24 216.3 15.64C214.65 15.75 213.1 15.04 212.14 13.76C210.94 12.16 208.36 9.38001 204.51 8.67001C202.89 8.38001 201.61 8.44001 200.69 8.85001C198.7 9.74001 196.29 8.96001 194.95 7.00001C193.46 4.81001 192.04 3.19001 190.84 2.30001C189.82 1.53001 186.31 2.23001 179.45 6.51001C177.31 7.84001 174.51 7.33001 172.94 5.33001C171.87 3.97001 170.24 2.36001 168.41 2.50001C166.49 2.62001 162.7 4.46001 157.99 7.55001C156.08 8.80001 153.61 8.60001 151.99 7.05001C150.45 5.58001 148.86 4.47001 147.37 3.84001C145.95 3.24001 143.12 5.39001 139.95 9.46001C138.41 11.44 135.64 11.94 133.5 10.62C131.99 9.68001 130.76 9.01001 129.87 8.60001C129.19 8.30001 128.31 8.19001 127.19 8.04001C124.68 7.72001 121.25 7.27001 116.5 4.29001C115.56 3.71001 115.15 3.93001 115.01 4.00001C114.55 4.25001 113.03 5.66001 112.82 13.37C112.77 15.15 111.8 16.7 110.22 17.54C108.64 18.37 106.79 18.3 105.29 17.33C103.22 15.99 101.31 14.84 99.6301 13.91C99.0402 13.59 98.8202 13.72 98.7302 13.77C98.4402 13.94 97.0002 15.22 97.1002 23.35C97.1201 24.94 96.3701 26.46 95.1002 27.41C93.8502 28.35 92.2902 28.63 90.8202 28.18C88.8402 27.58 87.1402 27.27 85.7602 27.27C84.1602 27.27 82.8102 31.16 82.3002 37.18C82.1002 39.62 80.0901 41.54 77.6401 41.63C72.2201 41.84 67.9401 42.52 65.5901 43.56C64.1201 44.21 63.8501 46.01 64.7801 48.9C65.2701 50.41 64.9902 52.08 64.0401 53.35C63.0802 54.62 61.6702 55.34 60.0401 55.28C56.7701 55.19 53.3501 55.43 49.8501 55.99C48.2701 56.25 47.3502 56.79 47.1302 57.59C46.4002 60.24 51.7502 66 55.3001 69.01L55.7202 69.36L55.1502 73.56L55.0602 73.72C54.8202 74.17 53.9402 75.65 52.8402 76.06C52.5102 76.17 51.2702 76.84 50.1802 77.43C48.0102 78.6 45.3002 80.07 43.4502 80.76C42.1402 81.27 41.0202 86.16 40.4302 88.79C39.7901 91.6 39.4302 93.07 38.7902 93.72C38.7402 94.54 40.0501 97.48 41.6701 100.17L42.1602 100.98L41.3701 101.51C41.0401 101.74 38.0301 103.73 35.6701 103.73C35.1101 104.12 34.5801 107.61 34.3201 109.29C34.0401 111.11 33.8002 112.69 33.3802 113.59C32.7502 114.92 35.3002 117.98 37.2202 119.62L38.9902 121.14L36.6701 121.38C36.6201 121.38 31.4601 121.95 30.1601 125.01C30.1101 125.12 30.0001 125.34 29.8301 125.65C27.3501 130.25 26.9001 133.21 28.4901 134.46C28.8301 134.73 29.8901 135.55 33.9601 142.34C35.2201 144.44 34.7302 147.17 32.8102 148.69C29.6402 151.21 27.7201 153.41 27.5501 154.73C27.4501 155.56 28.6801 157.24 32.4201 159.43C34.6701 160.75 35.5101 163.5 34.3602 165.82C31.6702 171.29 29.9301 175.04 29.4701 176.39C29.1701 177.26 33.1201 179.96 38.4601 182.02L39.0701 182.25L39.1001 182.9C39.1201 183.23 39.2101 186.2 37.8501 187.61C37.4801 188.13 37.3101 190.93 37.2101 192.44C37.0801 194.56 36.9902 195.93 36.5802 196.63C36.6902 196.9 36.8502 197.25 37.0001 197.58C38.0101 199.84 39.8901 204.04 39.8001 208.92C39.7801 210.01 40.0902 210.76 40.7402 211.22C42.8502 212.68 48.1101 211.11 49.7801 210.45L50.8701 210.02L51.1201 211.17C51.4201 212.56 52.0002 215.68 51.4702 217.33C51.6202 217.38 51.8201 217.45 52.1001 217.52C54.1601 218.03 55.6602 219.77 55.8302 221.86C56.2902 227.63 57.2901 231.72 58.5001 232.8C59.0602 233.31 59.4902 233.31 59.7701 233.27C61.0001 233.08 62.3102 231.31 62.6601 230.7L64.0802 228.3L64.5102 231.05C64.6202 231.76 65.5902 238 65.1602 240.02C65.0102 240.8 66.5102 243 67.4102 244.32C68.1202 245.36 68.7301 246.26 69.0001 246.95C69.2402 247.53 71.6902 248.5 73.1602 249.08C74.8002 249.73 76.4901 250.4 77.5701 251.18C78.0501 251.52 79.0701 251.93 81.2701 251.89C81.3001 251.89 81.3402 251.89 81.3702 251.89C83.8502 251.89 85.9202 253.69 86.2302 256.11C86.6502 259.48 87.6502 261.75 89.0401 262.51C91.7102 263.95 96.4602 261.77 98.0702 260.81L99.1002 260.19L99.5201 261.31C99.5602 261.43 100.6 264.32 97.8102 268.29C97.6301 268.54 97.6702 268.64 97.6802 268.69C97.9902 269.73 101.49 271.08 103.8 271.98C106.74 273.12 109.28 274.1 110.29 275.47C110.97 276.39 113.17 275.57 114.95 274.91C117.02 274.14 119.38 273.27 120.17 275.19C121.02 277.15 124.88 279.95 126.74 281.29C127.56 281.89 129.08 281.61 130.69 281.33C132.36 281.03 134.25 280.69 135.92 281.2C138.15 281.89 140.52 278.58 140.55 278.54L141.66 276.94L141.72 276.96Z" fill="#EFEDEE"/>
<path d="M92.9003 78.7501C90.6503 78.7501 88.4303 77.8801 86.7703 76.2201L83.0103 72.4601C82.6203 72.0701 82.6203 71.4401 83.0103 71.0501C83.4003 70.6601 84.0303 70.6601 84.4203 71.0501L88.1803 74.8101C90.1803 76.8101 93.2403 77.3301 95.7803 76.1001L98.7703 74.6601C99.2703 74.4201 99.8703 74.6301 100.1 75.1301C100.34 75.6301 100.13 76.2301 99.6303 76.4601L96.6403 77.9001C95.4403 78.4801 94.1603 78.7601 92.8903 78.7601L92.9003 78.7501Z" fill="#EFEDEE"/>
<path d="M85.4102 126.46C85.2902 126.46 85.1702 126.46 85.0502 126.46L79.7302 126.24C79.1802 126.22 78.7502 125.75 78.7702 125.2C78.7902 124.65 79.2502 124.21 79.8102 124.24L85.1302 124.46C87.9302 124.57 90.5502 122.89 91.5902 120.26L92.8102 117.17C93.0102 116.66 93.6002 116.41 94.1102 116.61C94.6202 116.81 94.8702 117.39 94.6702 117.91L93.4502 121C92.1402 124.31 88.9302 126.47 85.4002 126.47L85.4102 126.46Z" fill="#EFEDEE"/>
<path d="M68.0102 193.24C67.6302 193.24 67.2702 193.02 67.1002 192.66C66.8702 192.16 67.1002 191.56 67.6002 191.34L72.4402 189.13C75.0102 187.96 76.5702 185.28 76.3102 182.46L76.0102 179.15C75.9602 178.6 76.3602 178.11 76.9102 178.06C77.4602 178 77.9502 178.41 78.0002 178.96L78.3002 182.27C78.6402 185.93 76.6202 189.42 73.2702 190.94L68.4302 193.15C68.3002 193.21 68.1502 193.24 68.0202 193.24H68.0102Z" fill="#EFEDEE"/>
<path d="M138.61 48.52C138.14 48.52 137.72 48.18 137.63 47.7C137.53 47.16 137.89 46.64 138.43 46.53L143.66 45.55C146.44 45.03 148.6 42.81 149.02 40.01L149.52 36.72C149.6 36.17 150.1 35.8 150.66 35.88C151.21 35.96 151.58 36.47 151.5 37.02L151 40.31C150.44 43.94 147.64 46.84 144.03 47.51L138.8 48.49C138.74 48.5 138.68 48.51 138.62 48.51L138.61 48.52Z" fill="#EFEDEE"/>
<path d="M202.71 27.7001C201.4 27.7001 200.08 27.4001 198.86 26.8001L194.09 24.4301C193.6 24.1801 193.39 23.5801 193.64 23.0901C193.89 22.6001 194.48 22.4001 194.98 22.6401L199.75 25.0101C202.28 26.2701 205.34 25.7901 207.37 23.8101L209.75 21.4901C210.15 21.1101 210.78 21.1101 211.16 21.5101C211.55 21.9101 211.54 22.5401 211.14 22.9201L208.76 25.2401C207.11 26.8501 204.92 27.7001 202.71 27.7001Z" fill="#EFEDEE"/>
<path d="M231.25 67.0801C228.75 67.0801 226.31 66.0001 224.63 64.0101L221.19 59.9401C220.83 59.5201 220.89 58.8901 221.31 58.5301C221.73 58.1701 222.36 58.2301 222.72 58.6501L226.16 62.7201C227.98 64.8801 230.98 65.6501 233.63 64.6401L236.73 63.4501C237.25 63.2501 237.82 63.5101 238.02 64.0301C238.22 64.5501 237.96 65.1201 237.44 65.3201L234.34 66.5101C233.33 66.8901 232.29 67.0801 231.25 67.0801Z" fill="#EFEDEE"/>
<path d="M276.8 120.19C276.63 120.19 276.45 120.14 276.29 120.05L273.44 118.34C270.29 116.45 268.67 112.76 269.42 109.16L270.5 103.95C270.61 103.41 271.14 103.06 271.68 103.17C272.22 103.28 272.57 103.81 272.46 104.35L271.38 109.56C270.81 112.33 272.05 115.17 274.47 116.62L277.32 118.33C277.79 118.61 277.95 119.23 277.66 119.7C277.47 120.01 277.14 120.19 276.8 120.19Z" fill="#EFEDEE"/>
<path d="M234.931 145.33C232.681 145.33 230.461 144.46 228.801 142.8L225.041 139.04C224.651 138.65 224.651 138.02 225.041 137.63C225.431 137.24 226.061 137.24 226.451 137.63L230.211 141.39C232.211 143.39 235.261 143.91 237.811 142.68L240.801 141.24C241.301 141 241.901 141.21 242.131 141.71C242.371 142.21 242.161 142.81 241.661 143.04L238.671 144.48C237.471 145.06 236.191 145.34 234.921 145.34L234.931 145.33Z" fill="#EFEDEE"/>
<path d="M174.12 102.07C173.06 102.07 172 101.88 170.98 101.48L166.02 99.5402C165.51 99.3402 165.25 98.7602 165.45 98.2402C165.65 97.7202 166.23 97.4702 166.74 97.6702L171.7 99.6102C174.34 100.64 177.34 99.8902 179.18 97.7402L181.34 95.2202C181.7 94.8002 182.33 94.7502 182.75 95.1102C183.17 95.4702 183.22 96.1002 182.86 96.5202L180.7 99.0402C179.02 101 176.6 102.06 174.12 102.06V102.07Z" fill="#EFEDEE"/>
<path d="M124.06 155.68C123.83 155.68 123.6 155.6 123.41 155.44C122.99 155.08 122.94 154.45 123.29 154.03L126.74 149.97C128.57 147.81 128.84 144.73 127.41 142.29L125.73 139.42C125.45 138.94 125.61 138.33 126.09 138.05C126.56 137.77 127.18 137.93 127.46 138.41L129.14 141.28C131 144.45 130.65 148.46 128.27 151.27L124.82 155.33C124.62 155.56 124.34 155.68 124.06 155.68Z" fill="#EFEDEE"/>
<path d="M164.38 172.76C160.98 172.76 157.86 170.76 156.46 167.61L154.3 162.74C154.08 162.24 154.3 161.64 154.81 161.42C155.32 161.19 155.91 161.42 156.13 161.93L158.29 166.8C159.44 169.38 162.09 170.96 164.92 170.74L168.23 170.47C168.77 170.42 169.26 170.84 169.31 171.39C169.35 171.94 168.94 172.42 168.39 172.47L165.08 172.74C164.84 172.76 164.61 172.77 164.38 172.77V172.76Z" fill="#EFEDEE"/>
<path d="M152.72 230.14C152.35 230.14 151.99 229.93 151.82 229.57L150.38 226.58C148.78 223.27 149.46 219.3 152.06 216.7L155.82 212.93C156.21 212.54 156.84 212.54 157.23 212.93C157.62 213.32 157.62 213.95 157.23 214.34L153.47 218.11C151.47 220.11 150.95 223.16 152.18 225.71L153.62 228.7C153.86 229.2 153.65 229.8 153.15 230.03C153.01 230.1 152.86 230.13 152.72 230.13V230.14Z" fill="#EFEDEE"/>
<path d="M147.4 272.22C147.29 272.22 147.17 272.2 147.06 272.16C146.54 271.97 146.28 271.39 146.47 270.88L147.62 267.76C148.87 264.35 152.13 262.08 155.75 262.08C155.8 262.08 155.84 262.08 155.89 262.08L161.21 262.16C161.76 262.16 162.2 262.62 162.19 263.18C162.19 263.73 161.73 264.16 161.19 264.16H161.17L155.85 264.08C153.05 264.04 150.47 265.79 149.49 268.44L148.34 271.56C148.19 271.96 147.81 272.22 147.4 272.22Z" fill="#EFEDEE"/>
<path d="M225.53 259.17C225.03 259.17 224.61 258.8 224.54 258.3L224.11 255C223.63 251.35 225.52 247.79 228.8 246.14L233.56 243.75C234.05 243.5 234.65 243.7 234.9 244.19C235.15 244.68 234.95 245.28 234.46 245.53L229.7 247.92C227.17 249.19 225.72 251.93 226.09 254.73L226.52 258.03C226.59 258.58 226.21 259.08 225.66 259.15C225.62 259.15 225.57 259.15 225.53 259.15V259.17Z" fill="#EFEDEE"/>
<path d="M212.77 205.54C211.23 205.54 209.69 205.13 208.32 204.31L203.75 201.57C203.28 201.29 203.12 200.67 203.41 200.2C203.69 199.73 204.31 199.57 204.78 199.86L209.35 202.6C211.77 204.05 214.86 203.82 217.04 202.01L219.59 199.88C220.01 199.52 220.65 199.58 221 200.01C221.35 200.43 221.3 201.06 220.87 201.42L218.32 203.55C216.73 204.88 214.76 205.55 212.78 205.55L212.77 205.54Z" fill="#EFEDEE"/>
<path d="M270.34 181.28C266.73 181.28 263.48 179.03 262.22 175.63L260.37 170.64C260.18 170.12 260.44 169.55 260.96 169.35C261.48 169.15 262.05 169.42 262.25 169.94L264.1 174.93C265.07 177.54 267.57 179.27 270.34 179.27C270.38 179.27 270.42 179.27 270.47 179.27L273.79 179.21H273.81C274.35 179.21 274.8 179.65 274.81 180.19C274.82 180.74 274.38 181.2 273.83 181.21L270.51 181.27C270.45 181.27 270.4 181.27 270.34 181.27V181.28Z" fill="#EFEDEE"/>
<path d="M264.21 218.75C264.13 218.75 264.05 218.75 263.97 218.72C263.43 218.59 263.11 218.04 263.24 217.51L264.04 214.28C264.93 210.71 267.98 208.08 271.64 207.74L276.94 207.25C277.48 207.2 277.98 207.6 278.03 208.15C278.08 208.7 277.68 209.19 277.13 209.24L271.83 209.73C269.02 209.99 266.67 212.01 265.98 214.76L265.18 217.99C265.07 218.45 264.66 218.75 264.21 218.75Z" fill="#EFEDEE"/>
<path d="M96.39 230.14C96.16 230.14 95.93 230.06 95.74 229.9C95.32 229.54 95.27 228.91 95.62 228.49L97.77 225.96C100.15 223.16 104.05 222.16 107.48 223.48L112.45 225.39C112.97 225.59 113.22 226.17 113.02 226.68C112.82 227.2 112.24 227.45 111.73 227.25L106.76 225.34C104.12 224.33 101.12 225.09 99.29 227.25L97.14 229.78C96.94 230.01 96.66 230.13 96.38 230.13L96.39 230.14Z" fill="#EFEDEE"/>
<path d="M48.48 149.56C48.48 149.56 48.41 149.56 48.37 149.56C47.82 149.5 47.42 149.01 47.48 148.46L48.05 143.17C48.36 140.36 46.84 137.65 44.29 136.44L41.29 135.01C40.79 134.77 40.58 134.18 40.82 133.68C41.06 133.18 41.65 132.97 42.15 133.21L45.15 134.64C48.47 136.22 50.44 139.74 50.04 143.39L49.47 148.68C49.41 149.19 48.98 149.57 48.48 149.57V149.56Z" fill="#EFEDEE"/>
<path d="M167.08 168.28C169.11 169.22 172.11 169.16 174.46 169.23C176.84 169.16 179.82 169.28 181.9 168.31C182.38 167.92 183.06 168.2 182.92 168.85C180.88 174.01 168.01 174.04 165.94 168.88C165.76 168.36 166.38 167.87 166.84 168.15L167.08 168.28Z" fill="#302826"/>
<path d="M148.16 157.04C153.175 157.04 157.24 152.975 157.24 147.96C157.24 142.945 153.175 138.88 148.16 138.88C143.145 138.88 139.08 142.945 139.08 147.96C139.08 152.975 143.145 157.04 148.16 157.04Z" fill="#302826"/>
<path d="M141.61 145.81C143.007 145.81 144.14 144.677 144.14 143.28C144.14 141.883 143.007 140.75 141.61 140.75C140.213 140.75 139.08 141.883 139.08 143.28C139.08 144.677 140.213 145.81 141.61 145.81Z" fill="#EFEFEF"/>
<path d="M144.68 148.35C145.205 148.35 145.63 147.924 145.63 147.4C145.63 146.875 145.205 146.45 144.68 146.45C144.156 146.45 143.73 146.875 143.73 147.4C143.73 147.924 144.156 148.35 144.68 148.35Z" fill="#EFEFEF"/>
<path d="M200.55 157.04C205.564 157.04 209.63 152.975 209.63 147.96C209.63 142.945 205.564 138.88 200.55 138.88C195.535 138.88 191.47 142.945 191.47 147.96C191.47 152.975 195.535 157.04 200.55 157.04Z" fill="#302826"/>
<path d="M207.099 145.81C208.497 145.81 209.629 144.677 209.629 143.28C209.629 141.883 208.497 140.75 207.099 140.75C205.702 140.75 204.569 141.883 204.569 143.28C204.569 144.677 205.702 145.81 207.099 145.81Z" fill="#EFEFEF"/>
<path d="M204.019 148.35C204.544 148.35 204.969 147.924 204.969 147.4C204.969 146.875 204.544 146.45 204.019 146.45C203.495 146.45 203.069 146.875 203.069 147.4C203.069 147.924 203.495 148.35 204.019 148.35Z" fill="#EFEFEF"/>
<path opacity="0.35" d="M135.25 173.26C138.994 173.26 142.03 171.675 142.03 169.72C142.03 167.765 138.994 166.18 135.25 166.18C131.505 166.18 128.47 167.765 128.47 169.72C128.47 171.675 131.505 173.26 135.25 173.26Z" fill="#FF6E79"/>
<path opacity="0.35" d="M216.4 173.26C220.145 173.26 223.18 171.675 223.18 169.72C223.18 167.765 220.145 166.18 216.4 166.18C212.656 166.18 209.62 167.765 209.62 169.72C209.62 171.675 212.656 173.26 216.4 173.26Z" fill="#FF6E79"/>
<path d="M239.95 699.93C231.69 700.55 220.15 701.06 206.82 701.19H206.81C131.72 701.95 0 697.96 0 697.96L1.92 690.64C1.92 690.64 23.88 659.36 35.75 661.17C47.63 662.96 54.39 649.93 62.05 651.98C68.46 653.69 83.06 644.68 86.23 646.1C88.04 646.91 92.49 642.62 99.84 641.51C105.32 640.65 112.03 645.33 117.35 645.89C118.6 646.02 119.79 646.11 120.92 646.16C129.58 646.53 135.21 644.6 141.88 642.32C161.9 635.47 179.85 652.94 187.16 650.52C195.84 647.64 218.37 676.42 228.01 679.3C238.56 682.45 242.3 691.81 253.25 697.83C254.32 698.42 249.18 699.24 239.95 699.93Z" fill="#3D755D"/>
<path d="M239.95 699.93C236.51 694.86 231.95 689.28 228.27 688.74C221.37 687.72 206.31 679.3 201.2 675.98C196.09 672.66 153.46 644.06 148.86 653.51C144.27 662.96 136.34 648.09 120.77 647.22C120.82 646.86 120.87 646.51 120.92 646.16C129.58 646.53 135.21 644.6 141.88 642.32C161.9 635.47 179.85 652.94 187.16 650.52C195.84 647.64 218.37 676.42 228.01 679.3C238.56 682.45 242.3 691.81 253.25 697.83C254.32 698.42 249.18 699.24 239.95 699.93Z" fill="#457F65"/>
<path d="M35.7996 696.42C34.5296 696.78 31.0996 696.68 30.9796 696.68C30.8096 696.68 27.8196 696.48 26.6496 695.68C26.5596 695.62 28.4196 694.11 29.6996 694.26C30.3496 694.35 31.0296 694.43 31.6196 694.49H31.6396C32.2096 694.55 32.6796 694.57 32.9196 694.52C33.3896 694.43 35.5796 695.11 36.2296 695.97C36.3796 696.17 36.1796 696.32 35.8096 696.42H35.7996Z" fill="#877D74"/>
<path d="M35.7999 696.42C35.5599 696.03 34.8299 695.17 33.4099 694.94C32.7599 694.83 32.1599 694.67 31.6299 694.49C32.1999 694.55 32.6699 694.57 32.9099 694.52C33.3799 694.43 35.5699 695.11 36.2199 695.97C36.3699 696.17 36.1699 696.32 35.7999 696.42Z" fill="#8E857C"/>
<path d="M38.2996 689.23C37.0296 689.59 33.5996 689.49 33.4796 689.49C33.3096 689.49 30.3196 689.29 29.1496 688.49C29.0596 688.43 30.9196 686.92 32.1996 687.07C32.8496 687.16 33.5296 687.24 34.1196 687.3H34.1396C34.7096 687.36 35.1796 687.38 35.4196 687.33C35.8896 687.24 38.0796 687.92 38.7296 688.78C38.8796 688.98 38.6796 689.13 38.3096 689.23H38.2996Z" fill="#877D74"/>
<path d="M38.2999 689.23C38.0599 688.84 37.3299 687.98 35.9099 687.75C35.2599 687.64 34.6599 687.48 34.1299 687.3C34.6999 687.36 35.1699 687.38 35.4099 687.33C35.8799 687.24 38.0699 687.92 38.7199 688.78C38.8699 688.98 38.6699 689.13 38.2999 689.23Z" fill="#8E857C"/>
<path d="M42.9696 683.23C41.6996 683.59 38.2696 683.49 38.1496 683.49C37.9796 683.49 34.9896 683.29 33.8196 682.49C33.7296 682.43 35.5896 680.92 36.8696 681.07C37.5196 681.16 38.1996 681.24 38.7896 681.3H38.8096C39.3796 681.36 39.8496 681.38 40.0896 681.33C40.5596 681.24 42.7496 681.92 43.3996 682.78C43.5496 682.98 43.3496 683.13 42.9796 683.23H42.9696Z" fill="#877D74"/>
<path d="M42.9698 683.23C42.7298 682.84 41.9998 681.98 40.5798 681.75C39.9298 681.64 39.3298 681.48 38.7998 681.3C39.3698 681.36 39.8398 681.38 40.0798 681.33C40.5498 681.24 42.7398 681.92 43.3898 682.78C43.5398 682.98 43.3398 683.13 42.9698 683.23Z" fill="#8E857C"/>
<path d="M55.7801 681.03C54.5101 681.39 51.0801 681.29 50.9601 681.29C50.7901 681.29 47.8001 681.09 46.6301 680.29C46.5401 680.23 48.4001 678.72 49.6801 678.87C50.3301 678.96 51.0101 679.04 51.6001 679.1H51.6201C52.1901 679.16 52.6601 679.18 52.9001 679.13C53.3701 679.04 55.5601 679.72 56.2101 680.58C56.3601 680.78 56.1601 680.93 55.7901 681.03H55.7801Z" fill="#877D74"/>
<path d="M55.7803 681.03C55.5403 680.64 54.8104 679.78 53.3904 679.55C52.7404 679.44 52.1404 679.28 51.6104 679.1C52.1804 679.16 52.6504 679.18 52.8904 679.13C53.3604 679.04 55.5504 679.72 56.2004 680.58C56.3504 680.78 56.1503 680.93 55.7803 681.03Z" fill="#8E857C"/>
<path d="M55.0301 669.66C53.7601 670.02 50.3301 669.92 50.2101 669.92C50.0401 669.92 47.0501 669.72 45.8801 668.92C45.7901 668.86 47.6501 667.35 48.9301 667.5C49.5801 667.59 50.2601 667.67 50.8501 667.73H50.8701C51.4401 667.79 51.9101 667.81 52.1501 667.76C52.6201 667.67 54.8101 668.35 55.4601 669.21C55.6101 669.41 55.4101 669.56 55.0401 669.66H55.0301Z" fill="#877D74"/>
<path d="M55.0303 669.659C54.7903 669.269 54.0604 668.41 52.6404 668.18C51.9904 668.07 51.3904 667.909 50.8604 667.729C51.4304 667.789 51.9004 667.81 52.1404 667.76C52.6104 667.67 54.8004 668.35 55.4504 669.21C55.6004 669.41 55.4003 669.559 55.0303 669.659Z" fill="#8E857C"/>
<path d="M61.0897 666.57C59.8197 666.93 56.3897 666.83 56.2697 666.83C56.0997 666.83 53.1097 666.63 51.9397 665.83C51.8497 665.77 53.7097 664.26 54.9897 664.41C55.6397 664.5 56.3197 664.58 56.9097 664.64H56.9297C57.4997 664.7 57.9697 664.72 58.2097 664.67C58.6797 664.58 60.8697 665.26 61.5197 666.12C61.6697 666.32 61.4697 666.47 61.0997 666.57H61.0897Z" fill="#877D74"/>
<path d="M61.0899 666.57C60.8499 666.18 60.1199 665.32 58.6999 665.09C58.0499 664.98 57.4499 664.82 56.9199 664.64C57.4899 664.7 57.9599 664.72 58.1999 664.67C58.6699 664.58 60.8599 665.26 61.5099 666.12C61.6599 666.32 61.4599 666.47 61.0899 666.57Z" fill="#8E857C"/>
<path d="M63.3904 658.88C62.1204 659.24 58.6904 659.14 58.5704 659.14C58.4004 659.14 55.4105 658.94 54.2405 658.14C54.1505 658.08 56.0105 656.57 57.2905 656.72C57.9405 656.81 58.6204 656.89 59.2104 656.95H59.2304C59.8004 657.01 60.2704 657.03 60.5104 656.98C60.9804 656.89 63.1705 657.57 63.8204 658.43C63.9704 658.63 63.7705 658.78 63.4005 658.88H63.3904Z" fill="#877D74"/>
<path d="M63.3907 658.88C63.1507 658.49 62.4207 657.63 61.0007 657.4C60.3507 657.29 59.7507 657.13 59.2207 656.95C59.7907 657.01 60.2607 657.03 60.5007 656.98C60.9707 656.89 63.1607 657.57 63.8107 658.43C63.9607 658.63 63.7607 658.78 63.3907 658.88Z" fill="#8E857C"/>
<path d="M44.6304 693.86C42.8104 694.38 37.8804 694.23 37.7004 694.23C37.4604 694.23 33.1604 693.95 31.4704 692.8C31.3404 692.71 34.0104 690.54 35.8604 690.76C36.7904 690.89 37.7704 691 38.6204 691.09H38.6404C39.4704 691.18 40.1404 691.2 40.4904 691.13C41.1604 691 44.3104 691.98 45.2504 693.21C45.4704 693.49 45.1804 693.71 44.6404 693.86H44.6304Z" fill="#877D74"/>
<path d="M44.6306 693.86C44.2806 693.3 43.2406 692.06 41.2006 691.73C40.2706 691.58 39.4006 691.34 38.6406 691.08C39.4706 691.17 40.1406 691.19 40.4906 691.12C41.1606 690.99 44.3106 691.97 45.2506 693.2C45.4706 693.48 45.1806 693.7 44.6406 693.85L44.6306 693.86Z" fill="#8E857C"/>
<path d="M52.1197 687.39C50.2997 687.91 45.3697 687.76 45.1897 687.76C44.9497 687.76 40.6497 687.48 38.9597 686.33C38.8297 686.24 41.4997 684.07 43.3497 684.29C44.2797 684.42 45.2597 684.53 46.1097 684.62H46.1297C46.9597 684.71 47.6297 684.73 47.9797 684.66C48.6497 684.53 51.7997 685.51 52.7397 686.74C52.9597 687.02 52.6697 687.24 52.1297 687.39H52.1197Z" fill="#877D74"/>
<path d="M52.1199 687.39C51.7699 686.83 50.7299 685.59 48.6899 685.26C47.7599 685.11 46.8899 684.87 46.1299 684.61C46.9599 684.7 47.6299 684.72 47.9799 684.65C48.6499 684.52 51.7999 685.5 52.7399 686.73C52.9599 687.01 52.6699 687.23 52.1299 687.38L52.1199 687.39Z" fill="#8E857C"/>
<path d="M52.8697 677.18C51.0497 677.7 46.1197 677.55 45.9397 677.55C45.6997 677.55 41.3997 677.27 39.7097 676.12C39.5797 676.03 42.2497 673.86 44.0997 674.08C45.0297 674.21 46.0097 674.32 46.8597 674.41H46.8797C47.7097 674.5 48.3797 674.52 48.7297 674.45C49.3997 674.32 52.5497 675.3 53.4897 676.53C53.7097 676.81 53.4197 677.03 52.8797 677.18H52.8697Z" fill="#877D74"/>
<path d="M52.8699 677.18C52.5199 676.62 51.4799 675.38 49.4399 675.05C48.5099 674.9 47.6399 674.66 46.8799 674.4C47.7099 674.49 48.3799 674.51 48.7299 674.44C49.3999 674.31 52.5499 675.29 53.4899 676.52C53.7099 676.8 53.4199 677.02 52.8799 677.17L52.8699 677.18Z" fill="#8E857C"/>
<path d="M62.9995 674.12C61.1795 674.64 56.2495 674.49 56.0695 674.49C55.8295 674.49 51.5295 674.21 49.8395 673.06C49.7095 672.97 52.3795 670.8 54.2295 671.02C55.1595 671.15 56.1395 671.26 56.9895 671.35H57.0095C57.8395 671.44 58.5095 671.46 58.8595 671.39C59.5295 671.26 62.6795 672.24 63.6195 673.47C63.8395 673.75 63.5495 673.97 63.0095 674.12H62.9995Z" fill="#877D74"/>
<path d="M62.9998 674.12C62.6498 673.56 61.6098 672.32 59.5698 671.99C58.6398 671.84 57.7698 671.6 57.0098 671.34C57.8398 671.43 58.5098 671.45 58.8598 671.38C59.5298 671.25 62.6798 672.23 63.6198 673.46C63.8398 673.74 63.5498 673.96 63.0098 674.11L62.9998 674.12Z" fill="#8E857C"/>
<path d="M69.9204 663.33C68.1004 663.85 63.1704 663.7 62.9904 663.7C62.7504 663.7 58.4504 663.42 56.7604 662.27C56.6304 662.18 59.3004 660.01 61.1504 660.23C62.0804 660.36 63.0604 660.47 63.9104 660.56H63.9304C64.7604 660.65 65.4304 660.67 65.7804 660.6C66.4504 660.47 69.6004 661.45 70.5404 662.68C70.7604 662.96 70.4704 663.18 69.9304 663.33H69.9204Z" fill="#877D74"/>
<path d="M69.9207 663.33C69.5707 662.77 68.5307 661.53 66.4907 661.2C65.5607 661.05 64.6907 660.81 63.9307 660.55C64.7607 660.64 65.4307 660.66 65.7807 660.59C66.4507 660.46 69.6007 661.44 70.5407 662.67C70.7607 662.95 70.4707 663.17 69.9307 663.32L69.9207 663.33Z" fill="#8E857C"/>
<path d="M42.3798 696.47C41.7898 696.64 40.2098 696.59 40.1498 696.59C40.0698 696.59 38.6898 696.5 38.1498 696.13C38.1098 696.1 38.9698 695.4 39.5598 695.47C39.8598 695.51 40.1698 695.55 40.4498 695.57C40.7198 695.6 40.9298 695.6 41.0398 695.58C41.2598 695.54 42.2698 695.85 42.5698 696.25C42.6398 696.34 42.5498 696.41 42.3698 696.46L42.3798 696.47Z" fill="#877D74"/>
<path d="M42.38 696.47C42.27 696.29 41.93 695.89 41.28 695.79C40.98 695.74 40.7 695.66 40.46 695.58C40.73 695.61 40.94 695.61 41.05 695.59C41.27 695.55 42.28 695.86 42.58 696.26C42.65 696.35 42.56 696.42 42.38 696.47Z" fill="#8E857C"/>
<path d="M26.6796 697.48C26.0896 697.65 24.5096 697.6 24.4496 697.6C24.3696 697.6 22.9896 697.51 22.4496 697.14C22.4096 697.11 23.2696 696.41 23.8596 696.48C24.1596 696.52 24.4696 696.56 24.7496 696.58C25.0196 696.61 25.2296 696.61 25.3396 696.59C25.5596 696.55 26.5696 696.86 26.8696 697.26C26.9396 697.35 26.8496 697.42 26.6696 697.47L26.6796 697.48Z" fill="#877D74"/>
<path d="M26.6798 697.48C26.5698 697.3 26.2298 696.9 25.5798 696.8C25.2798 696.75 24.9998 696.67 24.7598 696.59C25.0298 696.62 25.2398 696.62 25.3498 696.6C25.5698 696.56 26.5798 696.87 26.8798 697.27C26.9498 697.36 26.8598 697.43 26.6798 697.48Z" fill="#8E857C"/>
<path d="M28.9003 692.08C28.3103 692.25 26.7303 692.2 26.6703 692.2C26.5903 692.2 25.2103 692.11 24.6703 691.74C24.6303 691.71 25.4903 691.01 26.0803 691.08C26.3803 691.12 26.6903 691.16 26.9703 691.18C27.2403 691.21 27.4503 691.21 27.5603 691.19C27.7803 691.15 28.7903 691.46 29.0903 691.86C29.1603 691.95 29.0703 692.02 28.8903 692.07L28.9003 692.08Z" fill="#877D74"/>
<path d="M28.9005 692.08C28.7905 691.9 28.4505 691.5 27.8005 691.4C27.5005 691.35 27.2205 691.27 26.9805 691.19C27.2505 691.22 27.4605 691.22 27.5705 691.2C27.7905 691.16 28.8005 691.47 29.1005 691.87C29.1705 691.96 29.0805 692.03 28.9005 692.08Z" fill="#8E857C"/>
<path d="M44.9296 690.5C44.3396 690.67 42.7596 690.62 42.6996 690.62C42.6196 690.62 41.2396 690.53 40.6996 690.16C40.6596 690.13 41.5196 689.43 42.1096 689.5C42.4096 689.54 42.7196 689.58 42.9996 689.6C43.2696 689.63 43.4796 689.63 43.5896 689.61C43.8096 689.57 44.8196 689.88 45.1196 690.28C45.1896 690.37 45.0996 690.44 44.9196 690.49L44.9296 690.5Z" fill="#877D74"/>
<path d="M44.9298 690.5C44.8198 690.32 44.4798 689.92 43.8298 689.82C43.5298 689.77 43.2498 689.69 43.0098 689.61C43.2798 689.64 43.4898 689.64 43.5998 689.62C43.8198 689.58 44.8298 689.89 45.1298 690.29C45.1998 690.38 45.1098 690.45 44.9298 690.5Z" fill="#8E857C"/>
<path d="M36.3397 685.62C35.7497 685.79 34.1697 685.74 34.1097 685.74C34.0297 685.74 32.6497 685.65 32.1097 685.28C32.0697 685.25 32.9297 684.55 33.5197 684.62C33.8197 684.66 34.1297 684.7 34.4097 684.72C34.6797 684.75 34.8897 684.75 34.9997 684.73C35.2197 684.69 36.2297 685 36.5297 685.4C36.5997 685.49 36.5097 685.56 36.3297 685.61L36.3397 685.62Z" fill="#877D74"/>
<path d="M36.3399 685.62C36.2299 685.44 35.8899 685.04 35.2399 684.94C34.9399 684.89 34.6599 684.81 34.4199 684.73C34.6899 684.76 34.8999 684.76 35.0099 684.74C35.2299 684.7 36.2399 685.01 36.5399 685.41C36.6099 685.5 36.5199 685.57 36.3399 685.62Z" fill="#8E857C"/>
<path d="M49.9101 683.38C49.3201 683.55 47.7401 683.5 47.6801 683.5C47.6001 683.5 46.2201 683.41 45.6801 683.04C45.6401 683.01 46.5001 682.31 47.0901 682.38C47.3901 682.42 47.7001 682.46 47.9801 682.48C48.2501 682.51 48.4601 682.51 48.5701 682.49C48.7901 682.45 49.8001 682.76 50.1001 683.16C50.1701 683.25 50.0801 683.32 49.9001 683.37L49.9101 683.38Z" fill="#877D74"/>
<path d="M49.9102 683.38C49.8002 683.2 49.4602 682.8 48.8102 682.7C48.5102 682.65 48.2302 682.57 47.9902 682.49C48.2602 682.52 48.4702 682.52 48.5802 682.5C48.8002 682.46 49.8102 682.77 50.1102 683.17C50.1802 683.26 50.0902 683.33 49.9102 683.38Z" fill="#8E857C"/>
<path d="M59.9599 677.62C59.3699 677.79 57.7899 677.74 57.7299 677.74C57.6499 677.74 56.2699 677.65 55.7299 677.28C55.6899 677.25 56.5499 676.55 57.1399 676.62C57.4399 676.66 57.7499 676.7 58.0299 676.72C58.2999 676.75 58.5099 676.75 58.6199 676.73C58.8399 676.69 59.8499 677 60.1499 677.4C60.2199 677.49 60.1299 677.56 59.9499 677.61L59.9599 677.62Z" fill="#877D74"/>
<path d="M59.96 677.62C59.85 677.44 59.51 677.04 58.86 676.94C58.56 676.89 58.28 676.81 58.04 676.73C58.31 676.76 58.52 676.76 58.63 676.74C58.85 676.7 59.86 677.01 60.16 677.41C60.23 677.5 60.14 677.57 59.96 677.62Z" fill="#8E857C"/>
<path d="M61.8104 669.54C61.2204 669.71 59.6404 669.66 59.5804 669.66C59.5004 669.66 58.1204 669.57 57.5804 669.2C57.5404 669.17 58.4004 668.47 58.9904 668.54C59.2904 668.58 59.6004 668.62 59.8804 668.64C60.1504 668.67 60.3604 668.67 60.4704 668.65C60.6904 668.61 61.7004 668.92 62.0004 669.32C62.0704 669.41 61.9804 669.48 61.8004 669.53L61.8104 669.54Z" fill="#877D74"/>
<path d="M61.8106 669.54C61.7006 669.36 61.3606 668.96 60.7106 668.86C60.4106 668.81 60.1306 668.73 59.8906 668.65C60.1606 668.68 60.3706 668.68 60.4806 668.66C60.7006 668.62 61.7106 668.93 62.0106 669.33C62.0806 669.42 61.9906 669.49 61.8106 669.54Z" fill="#8E857C"/>
<path d="M55.0897 661.84C54.4997 662.01 52.9197 661.96 52.8597 661.96C52.7797 661.96 51.3997 661.87 50.8597 661.5C50.8197 661.47 51.6797 660.77 52.2697 660.84C52.5697 660.88 52.8797 660.92 53.1597 660.94C53.4297 660.97 53.6397 660.97 53.7497 660.95C53.9697 660.91 54.9797 661.22 55.2797 661.62C55.3497 661.71 55.2597 661.78 55.0797 661.83L55.0897 661.84Z" fill="#877D74"/>
<path d="M55.0899 661.84C54.9799 661.66 54.6399 661.26 53.9899 661.16C53.6899 661.11 53.4099 661.03 53.1699 660.95C53.4399 660.98 53.6499 660.98 53.7599 660.96C53.9799 660.92 54.9899 661.23 55.2899 661.63C55.3599 661.72 55.2699 661.79 55.0899 661.84Z" fill="#8E857C"/>
<path d="M70.0604 658.93C69.4704 659.1 67.8904 659.05 67.8304 659.05C67.7504 659.05 66.3704 658.96 65.8304 658.59C65.7904 658.56 66.6504 657.86 67.2404 657.93C67.5404 657.97 67.8504 658.01 68.1304 658.03C68.4004 658.06 68.6104 658.06 68.7204 658.04C68.9404 658 69.9504 658.31 70.2504 658.71C70.3204 658.8 70.2304 658.87 70.0504 658.92L70.0604 658.93Z" fill="#877D74"/>
<path d="M70.0606 658.93C69.9506 658.75 69.6106 658.35 68.9606 658.25C68.6606 658.2 68.3806 658.12 68.1406 658.04C68.4106 658.07 68.6206 658.07 68.7306 658.05C68.9506 658.01 69.9606 658.32 70.2606 658.72C70.3306 658.81 70.2406 658.88 70.0606 658.93Z" fill="#8E857C"/>
<path d="M69.3104 653.66C68.7204 653.83 67.1404 653.78 67.0804 653.78C67.0004 653.78 65.6204 653.69 65.0804 653.32C65.0404 653.29 65.9004 652.59 66.4904 652.66C66.7904 652.7 67.1004 652.74 67.3804 652.76C67.6504 652.79 67.8604 652.79 67.9704 652.77C68.1904 652.73 69.2004 653.04 69.5004 653.44C69.5704 653.53 69.4804 653.6 69.3004 653.65L69.3104 653.66Z" fill="#877D74"/>
<path d="M69.3106 653.66C69.2006 653.48 68.8606 653.08 68.2106 652.98C67.9106 652.93 67.6306 652.851 67.3906 652.771C67.6606 652.801 67.8706 652.801 67.9806 652.781C68.2006 652.741 69.2106 653.051 69.5106 653.451C69.5806 653.541 69.4906 653.61 69.3106 653.66Z" fill="#8E857C"/>
<path d="M62.9599 655.23C62.3699 655.4 60.7899 655.35 60.7299 655.35C60.6499 655.35 59.2699 655.26 58.7299 654.89C58.6899 654.86 59.5499 654.16 60.1399 654.23C60.4399 654.27 60.7499 654.31 61.0299 654.33C61.2999 654.36 61.5099 654.36 61.6199 654.34C61.8399 654.3 62.8499 654.61 63.1499 655.01C63.2199 655.1 63.1299 655.17 62.9499 655.22L62.9599 655.23Z" fill="#877D74"/>
<path d="M62.96 655.23C62.85 655.05 62.51 654.65 61.86 654.55C61.56 654.5 61.28 654.42 61.04 654.34C61.31 654.37 61.52 654.37 61.63 654.35C61.85 654.31 62.86 654.62 63.16 655.02C63.23 655.11 63.14 655.18 62.96 655.23Z" fill="#8E857C"/>
<path d="M68.1503 666.62C67.5603 666.79 65.9803 666.74 65.9203 666.74C65.8403 666.74 64.4603 666.65 63.9203 666.28C63.8803 666.25 64.7403 665.55 65.3303 665.62C65.6303 665.66 65.9403 665.7 66.2203 665.72C66.4903 665.75 66.7003 665.75 66.8103 665.73C67.0303 665.69 68.0403 666 68.3403 666.4C68.4103 666.49 68.3203 666.56 68.1403 666.61L68.1503 666.62Z" fill="#877D74"/>
<path d="M68.1505 666.62C68.0405 666.44 67.7005 666.04 67.0505 665.94C66.7505 665.89 66.4705 665.81 66.2305 665.73C66.5005 665.76 66.7105 665.76 66.8205 665.74C67.0405 665.7 68.0505 666.01 68.3505 666.41C68.4205 666.5 68.3305 666.57 68.1505 666.62Z" fill="#8E857C"/>
<path d="M47.3505 672.61C46.7605 672.78 45.1805 672.73 45.1205 672.73C45.0405 672.73 43.6605 672.64 43.1205 672.27C43.0805 672.24 43.9405 671.54 44.5305 671.61C44.8305 671.65 45.1405 671.69 45.4205 671.71C45.6905 671.74 45.9005 671.74 46.0105 671.72C46.2305 671.68 47.2405 671.99 47.5405 672.39C47.6105 672.48 47.5205 672.55 47.3405 672.6L47.3505 672.61Z" fill="#877D74"/>
<path d="M47.3507 672.61C47.2407 672.43 46.9007 672.03 46.2507 671.93C45.9507 671.88 45.6707 671.8 45.4307 671.72C45.7007 671.75 45.9107 671.75 46.0207 671.73C46.2407 671.69 47.2507 672 47.5507 672.4C47.6207 672.49 47.5307 672.56 47.3507 672.61Z" fill="#8E857C"/>
<path d="M50.1005 666.06C49.5105 666.23 47.9305 666.18 47.8705 666.18C47.7905 666.18 46.4105 666.09 45.8705 665.72C45.8305 665.69 46.6905 664.99 47.2805 665.06C47.5805 665.1 47.8905 665.14 48.1705 665.16C48.4405 665.19 48.6505 665.19 48.7605 665.17C48.9805 665.13 49.9905 665.44 50.2905 665.84C50.3605 665.93 50.2705 666 50.0905 666.05L50.1005 666.06Z" fill="#877D74"/>
<path d="M50.1007 666.06C49.9907 665.88 49.6507 665.48 49.0007 665.38C48.7007 665.33 48.4207 665.25 48.1807 665.17C48.4507 665.2 48.6607 665.2 48.7707 665.18C48.9907 665.14 50.0007 665.45 50.3007 665.85C50.3707 665.94 50.2807 666.01 50.1007 666.06Z" fill="#8E857C"/>
<path d="M43.9804 680.09C43.3904 680.26 41.8104 680.21 41.7504 680.21C41.6704 680.21 40.2904 680.12 39.7504 679.75C39.7104 679.72 40.5704 679.02 41.1604 679.09C41.4604 679.13 41.7704 679.17 42.0504 679.19C42.3204 679.22 42.5304 679.22 42.6404 679.2C42.8604 679.16 43.8704 679.47 44.1704 679.87C44.2404 679.96 44.1504 680.03 43.9704 680.08L43.9804 680.09Z" fill="#877D74"/>
<path d="M43.9805 680.09C43.8705 679.91 43.5305 679.51 42.8805 679.41C42.5805 679.36 42.3005 679.28 42.0605 679.2C42.3305 679.23 42.5405 679.23 42.6505 679.21C42.8705 679.17 43.8805 679.48 44.1805 679.88C44.2505 679.97 44.1605 680.04 43.9805 680.09Z" fill="#8E857C"/>
<path d="M239.589 652.09C241.899 661.8 240.649 678.12 233.229 685.43C235.909 674.47 236.179 662.88 239.589 652.09Z" fill="#51A585"/>
<path d="M235.58 644.29C237.74 655.82 237.25 675.75 231.42 686.03C232.24 672 232.08 658 235.58 644.29Z" fill="#51A585"/>
<path d="M229.47 685.11C226.84 675.95 226.71 661.58 231.17 653.02C232.03 663.8 232.34 674.59 229.47 685.11Z" fill="#51A585"/>
<path d="M226.87 683C223.09 672.74 222.32 658.55 226.52 648.33C227.8 659.92 228.53 671.41 226.87 683Z" fill="#5DAF8C"/>
<path d="M225.7 684.79C217.31 680.19 213.13 668.03 218.22 659.63C218.81 664.22 219.32 668.22 220.76 672.49C222.09 676.73 223.88 680.58 225.7 684.79Z" fill="#51A585"/>
<path d="M95.6697 619.34C98.8697 629.08 98.9597 645.6 91.7197 653.54C94.0097 642.15 93.1997 630.73 95.6697 619.34Z" fill="#51A585"/>
<path d="M90.4496 611.81C93.6296 623.14 94.9496 643.64 89.7396 654.31C89.6596 640.08 88.1596 625.97 90.4496 611.81Z" fill="#51A585"/>
<path d="M87.48 653.55C84 644.6 82.5 629.96 86.35 621.01C87.99 631.84 89.37 642.66 87.48 653.55Z" fill="#51A585"/>
<path d="M84.3699 651.63C79.5199 641.68 77.2999 627.33 80.6999 616.66C82.8999 628.28 84.7999 639.77 84.3699 651.63Z" fill="#51A585"/>
<path d="M83.2396 653.55C74.6096 650.16 68.6896 639.51 71.7696 630.5C71.9896 629.91 72.2196 629.34 72.4996 628.79C73.0596 631.25 73.3296 633.46 74.0496 635.58C75.9496 642.19 79.5896 647.68 83.2296 653.55H83.2396Z" fill="#4D997A"/>
<path d="M222.81 639.83C224.87 650.05 223.2 666.66 215.41 674.2C218.54 662.95 219.11 650.94 222.81 639.83Z" fill="#4D997A"/>
<path d="M218.841 631.65C220.711 643.6 219.701 664.29 213.511 674.78C214.801 660.29 214.981 645.78 218.841 631.65Z" fill="#51A585"/>
<path d="M211.52 673.78C209.11 664.21 209.33 649.38 214.07 640.59C214.59 651.77 214.66 662.94 211.52 673.78Z" fill="#51A585"/>
<path d="M208.88 671.52C205.32 660.79 204.86 646.1 209.36 635.61C210.31 647.65 210.79 659.56 208.88 671.52Z" fill="#51A585"/>
<path d="M207.63 673.36C199.13 668.32 195.13 655.72 200.5 647.13C200.82 649.63 200.86 651.88 201.3 654.1C202.31 660.91 204.95 666.98 207.64 673.37L207.63 673.36Z" fill="#51A585"/>
<path d="M11.8699 640.52C16.1499 651.44 17.3299 663.43 21.0499 674.52C12.8699 667.37 10.3499 650.86 11.8699 640.52Z" fill="#51A585"/>
<path d="M15.4198 632.13C20.0098 646.07 20.9398 660.57 22.9798 675C16.2498 664.84 14.1698 644.21 15.4198 632.13Z" fill="#51A585"/>
<path d="M24.9194 673.9C21.2194 663.21 20.7094 652.04 20.6494 640.83C25.8294 649.34 26.8294 664.23 24.9194 673.9Z" fill="#51A585"/>
<path d="M27.4498 671.5C24.9298 659.63 24.7898 647.69 25.1098 635.6C30.1498 645.86 30.4498 660.57 27.4498 671.5Z" fill="#4D997A"/>
<path d="M28.7903 673.27C30.3903 668.8 31.9603 664.67 33.0103 660.18C34.1703 655.65 34.3603 651.44 34.5603 646.66C35.9703 648.69 36.9703 651.08 37.2703 653.59C38.3003 660.96 35.0503 669.12 28.7803 673.28L28.7903 673.27Z" fill="#51A585"/>
<path d="M169.91 615.8C172.09 625.73 170.32 642.5 162.04 649.31C165.85 638.32 166.26 626.86 169.91 615.8Z" fill="#4D997A"/>
<path d="M165.18 607.73C167.17 619.25 166.33 639.96 159.86 649.86C161.49 635.78 161.43 621.51 165.18 607.73Z" fill="#51A585"/>
<path d="M157.55 648.83C155 639.63 155 624.78 159.86 616.38C160.25 627.32 160.55 638.2 157.55 648.83Z" fill="#51A585"/>
<path d="M154.46 646.57C150.57 636.19 149.76 621.67 154.33 611.42C155.22 623.21 156.01 634.81 154.46 646.57Z" fill="#51A585"/>
<path d="M153.05 648.34C144.62 644.25 139.28 632.97 143.41 624.16C145.01 620.57 144.2 624.64 144.65 626.14C145.37 634.27 149.25 641.19 153.05 648.34Z" fill="#51A585"/>
<path d="M181.82 690.55C183.21 680.84 184.65 670.71 186.58 661.13C187.71 655.97 187.63 655.87 188.54 661.2C189.11 665.56 188.98 669.98 188.3 674.31C187.29 680.07 185.55 685.9 181.82 690.55Z" fill="#5DAF8C"/>
<path d="M171.44 688.97C162.5 683.34 160.22 670.74 162.44 661.04C163.95 656 163.88 655.86 164.4 661.17C165.45 670.79 166.8 680.28 171.44 688.97Z" fill="#51A585"/>
<path d="M178.28 690.55C177.51 681.05 180.21 672.19 181.83 662.94C185.84 670.36 182.65 683.71 178.28 690.55Z" fill="#51A585"/>
<path d="M175.24 688.97C173.55 683.4 173.09 677.72 173.02 671.98C173.05 666.24 173.45 660.51 175.24 654.97C176.61 660.61 176.96 666.23 177.02 671.96C176.99 677.69 176.69 683.35 175.24 688.97Z" fill="#4D997A"/>
<path d="M172.96 690.55C167.39 682.8 164.31 670.56 167.37 661.33C169.96 671.05 172.49 680.47 172.96 690.55Z" fill="#51A585"/>
<path d="M118.51 683.81C120.42 673.12 122.36 660.06 124.25 649.39C125.4 643.35 125.31 643.23 126.21 649.46C126.75 654.55 126.55 659.7 125.76 664.76C124.58 671.47 122.64 678.26 118.51 683.81Z" fill="#51A585"/>
<path d="M106.36 681.96C95.0098 674.25 92.8498 656.51 97.4698 644.4C97.7498 646.11 97.8198 647.77 97.9598 649.42C98.9198 660.7 100.55 671.99 106.36 681.96Z" fill="#51A585"/>
<path d="M114.36 683.81C113.91 672.79 117.1 662.29 118.51 651.51C122.75 660.11 119 675.78 114.36 683.81Z" fill="#51A585"/>
<path d="M110.81 681.96C109.09 675.42 108.63 668.77 108.55 662.07C108.57 655.37 108.97 648.69 110.81 642.17C112.15 648.78 112.49 655.37 112.55 662.06C112.52 668.74 112.24 675.36 110.81 681.96Z" fill="#4D997A"/>
<path d="M108.14 683.81C102.06 674.59 98.4797 660.4 101.6 649.62C104.16 661.07 107.13 672.1 108.14 683.81Z" fill="#51A585"/>
<path d="M70.0004 685.78C66.3504 681.31 64.6504 675.67 63.6704 670.1C62.8204 664.49 62.8004 658.75 64.3704 653.23C64.8404 654.61 65.1104 655.99 65.4304 657.35C67.3504 666.6 68.7304 676.39 70.0004 685.78Z" fill="#51A585"/>
<path d="M80.04 684.25C84.45 675.82 85.74 666.67 86.81 657.39C86.97 656.03 87.08 654.66 87.38 653.23C91.71 663.16 89.81 678.2 80.04 684.25Z" fill="#51A585"/>
<path d="M73.4304 685.78C69.1304 679.2 66.0404 666.28 70.0004 659.1C71.6504 668.03 74.2604 676.59 73.4304 685.78Z" fill="#51A585"/>
<path d="M76.3603 684.25C74.9103 678.82 74.6003 673.35 74.5703 667.81C74.6303 662.27 74.9803 656.84 76.3603 651.39C78.1403 656.74 78.5403 662.27 78.5703 667.83C78.5003 673.39 78.0503 678.88 76.3603 684.25Z" fill="#51A585"/>
<path d="M78.5703 685.78C78.9403 676.02 81.3803 666.91 83.9703 657.54C87.0203 666.47 84.0403 678.31 78.5703 685.78Z" fill="#51A585"/>
</svg>
