<svg width="383" height="754" viewBox="0 0 383 754" fill="none" xmlns="http://www.w3.org/2000/svg">
<path d="M158.34 483.74C143.6 539.91 150.34 650.48 153.97 696.37C154.97 709.3 155.79 717.1 155.79 717.1H132.79C132.79 717.1 129.23 571.06 142 518C154.77 464.94 161.4 353.58 161.4 353.58L170.14 348.85L173.66 346.94C173.66 346.94 177.23 411.74 158.34 483.74Z" fill="#5ABA97"/>
<path d="M158.34 483.74C143.6 539.91 150.34 650.48 153.97 696.37L148.49 699.48C148.49 699.48 137.66 544.08 153.14 492.17C173.21 414.02 171.62 365.34 170.14 348.8L173.66 346.89C173.66 346.89 177.23 411.74 158.34 483.74Z" fill="#63C6A0"/>
<path d="M197.93 571.07C175.68 590.23 147 596.69 147 596.69L147.06 570.15C147.06 570.15 174.17 524.39 196.11 503.79C210.06 490.71 221.91 487.79 223.41 513.2C225 539.52 212.91 558.17 197.93 571.07Z" fill="#5ABA97"/>
<path d="M156.47 464.7C156.47 464.7 154.47 463.87 151.31 462.23C139.53 456.06 112.1 438.41 118.42 410.31C119.61 405.01 121.26 402.14 123.21 401.09C134.36 395.09 155.21 448.44 155.21 448.44L156.47 464.7Z" fill="#5ABA97"/>
<path d="M191.15 580.12L193.09 578.12C192.478 578.819 191.831 579.487 191.15 580.12Z" fill="#82D16F"/>
<path d="M197.93 571.07C213.24 550.51 225.75 523.57 217.83 499.95C214.35 489.56 196.12 503.8 196.12 503.8C210.07 490.72 221.92 487.8 223.42 513.21C225 539.52 212.91 558.17 197.93 571.07Z" fill="#63C6A0"/>
<path d="M254.81 202C245.19 235.38 218.81 248.86 175.81 250.15C160.42 250.61 145.13 241.98 133.81 228.66C113.56 204.79 106.11 165.87 133.81 137.16C133.81 137.16 150.97 118.53 178.07 113.45C190.398 111.165 203.103 112.043 215 116C262.52 131.43 264.44 168.66 254.81 202Z" fill="#FFCD50"/>
<path d="M133.831 228.7C113.581 204.83 106.131 165.91 133.831 137.2C133.831 137.2 150.991 118.57 178.091 113.49C149.461 125.94 105.581 157.44 133.831 228.7Z" fill="#FFC033"/>
<path d="M187.06 192.68C189.6 196.17 194.67 196.5 198.46 195.19C199.808 194.712 200.975 193.828 201.8 192.66C201.889 192.529 202.027 192.439 202.182 192.409C202.338 192.379 202.499 192.412 202.63 192.5C202.709 192.555 202.774 192.629 202.819 192.714C202.864 192.799 202.888 192.894 202.89 192.99C202.855 193.982 202.536 194.944 201.97 195.76C198.53 200.61 190.21 200.62 186.75 195.76C186.26 195.04 185.03 192.5 186.47 192.31C186.589 192.313 186.705 192.345 186.808 192.405C186.912 192.464 186.998 192.548 187.06 192.65V192.68Z" fill="#302826"/>
<path d="M207.61 180.92C208.36 173.71 215.43 168.53 222.5 167.92C228.12 167.34 234.61 169.54 238.15 174.38C239.526 176.035 240.238 178.14 240.15 180.29C240.089 180.969 239.832 181.615 239.41 182.149C238.988 182.684 238.42 183.085 237.774 183.302C237.129 183.519 236.434 183.544 235.774 183.373C235.115 183.203 234.519 182.843 234.06 182.34C233.097 181.319 232.282 180.168 231.64 178.92C230.655 177.322 229.323 175.966 227.743 174.953C226.162 173.941 224.374 173.297 222.51 173.07C216.89 172.32 210.72 175.51 208.72 181.13C208.671 181.256 208.578 181.361 208.459 181.425C208.339 181.489 208.2 181.508 208.068 181.48C207.935 181.451 207.817 181.375 207.735 181.267C207.653 181.159 207.613 181.025 207.62 180.89L207.61 180.92Z" fill="#302826"/>
<path d="M180.161 181.16C178.161 175.54 171.981 172.35 166.371 173.1C164.506 173.329 162.717 173.973 161.135 174.985C159.553 175.998 158.219 177.353 157.231 178.95C155.821 181.65 153.231 185.29 149.891 182.65C147.541 180.38 149.051 176.59 150.711 174.41C154.261 169.57 160.711 167.41 166.361 167.95C173.431 168.53 180.511 173.71 181.261 180.95C181.269 181.086 181.228 181.219 181.146 181.327C181.064 181.436 180.946 181.511 180.813 181.54C180.681 181.569 180.542 181.549 180.423 181.485C180.303 181.421 180.21 181.317 180.161 181.19V181.16Z" fill="#302826"/>
<path d="M207.791 114L206.141 113.65C199.434 112.297 192.571 111.887 185.751 112.43C185.031 112.43 184.311 112.55 183.601 112.63C183.431 102.48 183.261 69.3699 187.401 41.6299C191.201 16.2199 198.661 -4.69006 213.121 0.919941C220.651 3.83994 224.441 11.3499 225.811 21.2399C229.931 50.8199 212.321 101.61 207.791 114Z" fill="#F5FFFF"/>
<path d="M260.83 107.74C250.25 118.51 241.321 126.39 239.281 128.16L239.141 128.29C236.12 125.948 232.901 123.873 229.521 122.09C227.301 120.91 224.961 119.79 222.451 118.75L219.021 116.75C219.021 116.75 237.6 79.5399 257.86 52.6099C273.14 32.3199 289.371 17.8499 299.351 29.5199C314.551 47.2799 283.8 84.3299 260.83 107.74Z" fill="#F5FFFF"/>
<path d="M257.83 52.5598C249.11 85.7598 229.7 122.13 229.7 122.13H229.51C227.29 120.95 224.95 119.83 222.44 118.79C220.1 117.79 217.63 116.9 215.03 116.06C212.58 115.27 210.18 114.61 207.81 114.06L206.16 113.71C207.77 98.8898 213.8 49.8598 225.84 21.2598C232.44 5.56983 240.84 -3.98017 251.34 1.64983C264.75 8.83983 263.77 29.9998 257.83 52.5598Z" fill="#F5FFFF"/>
<path d="M285.94 129.2C270.83 135.3 256.71 139.53 250.99 141.2C250.657 140.68 250.323 140.17 249.99 139.67C247.086 135.543 243.6 131.858 239.64 128.73L239.3 128.21L237 124.73C237 124.73 247.09 116.95 260.81 107.73C288.11 89.4299 329.77 65.5099 335.15 85.9999C339.71 103.33 311.43 118.93 285.94 129.2Z" fill="#F5FFFF"/>
<path d="M366 134.83C365 148.33 348.63 155.62 328.62 159.45C302.94 164.39 271.35 163.65 258.83 163.09C258.76 162.53 258.67 161.97 258.58 161.41C257.49 154.209 254.908 147.315 251 141.17C250.667 140.65 250.333 140.14 250 139.64C255.42 137.86 269.45 133.4 286 129.2C321.14 120.28 367.62 112.6 366 134.83Z" fill="#F5FFFF"/>
<path d="M364.46 222.57C356.68 236.72 332.651 233.65 308.641 226.06C286.071 218.9 263.521 207.74 254.521 203.06C254.631 202.72 254.731 202.38 254.831 202.06C255.031 201.36 255.231 200.66 255.421 199.95C256.481 196.06 257.42 192.13 258.05 188.19C258.59 185.03 258.991 181.87 259.221 178.73C275.221 180.64 327.821 187.8 352.751 201.41C363.431 207.24 369 214.26 364.46 222.57Z" fill="#F5FFFF"/>
<path d="M381.77 184.62C378.6 195.05 367.34 199.87 352.77 201.39C320.31 204.78 271.35 191.9 258.07 188.17C258.61 185.01 259.01 181.85 259.24 178.71C259.664 173.505 259.54 168.269 258.87 163.09C258.8 162.53 258.71 161.97 258.62 161.41C270.13 160.41 300.75 158.06 328.62 159.41C359.52 161 387.09 167.12 381.77 184.62Z" fill="#F5FFFF"/>
<path d="M345.4 272.05C339.72 277.72 331.4 278.18 321.83 275.48C294.09 267.63 256.34 233.07 245.2 222.48C245.45 222.14 245.69 221.79 245.93 221.43C249.716 215.803 252.607 209.623 254.5 203.11C254.61 202.77 254.71 202.43 254.81 202.11C255.01 201.41 255.21 200.71 255.4 200C263.72 203.52 287.24 213.8 308.62 226.12C335 241.23 358 259.48 345.4 272.05Z" fill="#F5FFFF"/>
<path d="M281 341.51C262.51 347.33 244.21 319.03 231.36 291.91C224.51 277.311 218.542 262.314 213.49 247L220.83 241.65L221.23 241.47C224.53 240.016 227.701 238.287 230.71 236.3C231.55 235.75 232.35 235.18 233.15 234.58C236.95 239.13 250.99 256.18 264.06 275.42C282.94 303.24 299.79 335.58 281 341.51Z" fill="#F5FFFF"/>
<path d="M326.631 301.84C311.951 313.69 285.631 295.38 264.071 275.46C251.714 263.906 240.101 251.581 229.301 238.56L230.711 236.34C231.551 235.79 232.351 235.22 233.151 234.62C237.768 231.219 241.818 227.108 245.151 222.44C245.401 222.1 245.641 221.75 245.881 221.39C259.521 228.99 302.711 253.96 321.781 275.48C331.001 285.84 334.611 295.4 326.631 301.84Z" fill="#F5FFFF"/>
<path d="M217.81 359.56C210.98 358.56 206.06 353.65 202.58 346.41C189.82 319.94 196.18 262.11 197.96 248.17L199.1 247.98C206.57 246.763 213.866 244.652 220.83 241.69L221.23 241.51C222.14 245.07 227.72 267.51 231.32 291.9C236.27 325.36 237.5 362.47 217.81 359.56Z" fill="#F5FFFF"/>
<path d="M202.58 346.41C199.84 361.53 194.09 371.33 183.26 368.65C175.76 366.8 170.97 360.57 168.08 351.84C158.38 322.49 170.26 264.84 173.55 250.19C174.304 250.19 175.054 250.19 175.8 250.19C179.3 250.09 182.69 249.903 185.97 249.63C190.14 249.29 194.12 248.8 197.97 248.17L199.11 247.98C201.09 261.67 208.22 315.3 202.58 346.41Z" fill="#F5FFFF"/>
<path d="M172.331 250.14C169.651 259.82 156.691 304.99 140.711 333.77C130.531 352.09 119.141 363.77 108.391 355.41C93.2306 343.63 104.281 313.96 118.771 287.68C127.704 271.77 137.672 256.464 148.611 241.86C149.801 242.64 151.011 243.37 152.241 244.04C158.078 247.361 164.554 249.406 171.241 250.04C171.581 250.1 172.001 250.12 172.331 250.14Z" fill="#F5FFFF"/>
<path d="M195.09 251.41C195.09 251.41 186.25 326.35 168.09 351.84C162.83 359.21 156.8 362.45 149.98 358.57C142.36 354.23 139.98 345.06 140.72 333.77C142.6 304.77 164.92 261.7 171.22 250.06C171.59 250.06 171.97 250.12 172.34 250.14C172.71 250.16 173.15 250.14 173.56 250.19C174.313 250.19 175.063 250.19 175.81 250.19C179.31 250.09 182.7 249.903 185.98 249.63L195.09 251.41Z" fill="#F5FFFF"/>
<path d="M152.241 244C141.845 259.115 130.673 273.681 118.771 287.64C98.1808 311.42 74.1208 332.8 64.0508 317.4C52.0508 299.09 82.8408 269.07 107.641 249.08C120.131 239.01 131.121 231.49 134.351 229.32C134.751 229.78 135.141 230.22 135.551 230.66C139.388 234.924 143.757 238.678 148.551 241.83C149.801 242.64 151.001 243.37 152.241 244Z" fill="#F5FFFF"/>
<path d="M117.401 166.63C115.633 174.189 115.267 182.009 116.321 189.7C96.5706 188 -3.78942 177.65 10.6506 149.54C19.0406 133.2 49.5106 138.95 76.6506 148.11C90.6807 152.953 104.423 158.592 117.811 165C117.661 165.55 117.531 166.09 117.401 166.63Z" fill="#F5FFFF"/>
<path d="M127.63 144.54C127.35 144.92 127.08 145.3 126.82 145.69C122.713 151.554 119.667 158.093 117.82 165.01C117.67 165.55 117.54 166.09 117.41 166.63C110.12 163.63 93.6404 156.77 76.6304 148.11C46.6304 132.86 14.9304 112.11 28.7604 97.8299C38.7604 87.4799 57.8504 94.0699 76.8304 105.43C98.2404 118.24 119.53 137.09 127.63 144.54Z" fill="#F5FFFF"/>
<path d="M143.39 129C142.97 129.3 142.57 129.6 142.18 129.9C139.198 132.126 136.396 134.584 133.8 137.25C131.576 139.551 129.514 142.003 127.63 144.59C127.35 144.97 127.08 145.35 126.82 145.74C118.37 139.74 95.3499 123.06 76.8199 105.49C57.1199 86.7199 42.5399 67.0499 56.0999 58.3399C77.4699 44.5999 114.24 88.6499 132.82 113.89C138 121 141.77 126.5 143.39 129Z" fill="#F5FFFF"/>
<path d="M163.78 117.62C163.18 117.85 162.58 118.1 161.99 118.35C155.392 121.133 149.148 124.692 143.39 128.95C142.97 129.25 142.57 129.55 142.18 129.85C141.08 128.05 137.51 122.17 132.85 113.93C114.85 82.11 80.6401 15.11 108.85 10.69C128.4 7.62004 142.71 38.05 151.85 67.46C156.849 83.9203 160.833 100.672 163.78 117.62Z" fill="#F5FFFF"/>
<path d="M135.76 231C135.76 231 123.76 239.41 107.67 249.12C76.6701 267.8 30.6701 291.24 25.8101 268.7C21.5901 249.05 54.5901 233.13 83.5001 223.11C96.4543 218.671 109.624 214.89 122.96 211.78C123.33 212.59 123.73 213.4 124.15 214.19C126.829 219.377 130.086 224.245 133.86 228.7L134.41 229.34C134.81 229.8 135.2 230.24 135.61 230.68L135.76 231Z" fill="#F5FFFF"/>
<path d="M124.12 214.19C121.63 214.84 104.37 219.31 83.4704 223.11C46.0004 229.93 -3.09963 234.64 0.150366 211.52C4.82037 178.39 96.7804 187.52 116.34 189.84C117.375 197.453 119.598 204.857 122.93 211.78C123.3 212.59 123.7 213.4 124.12 214.19Z" fill="#F5FFFF"/>
<path opacity="0.35" d="M155.171 199.93C158.915 199.93 161.951 198.345 161.951 196.39C161.951 194.435 158.915 192.85 155.171 192.85C151.426 192.85 148.391 194.435 148.391 196.39C148.391 198.345 151.426 199.93 155.171 199.93Z" fill="#FF6E79"/>
<path opacity="0.35" d="M236.32 199.93C240.065 199.93 243.1 198.345 243.1 196.39C243.1 194.435 240.065 192.85 236.32 192.85C232.576 192.85 229.54 194.435 229.54 196.39C229.54 198.345 232.576 199.93 236.32 199.93Z" fill="#FF6E79"/>
<path d="M185.74 112.47C185.02 112.47 184.3 112.59 183.59 112.67C181.697 112.877 179.853 113.15 178.06 113.49C173.18 114.411 168.398 115.794 163.78 117.62C163.18 117.85 162.58 118.1 161.99 118.35C160.33 111.74 155.12 90.2099 151.8 67.4199C147 34.5699 146.12 -0.920118 165.4 1.86988C178.97 3.86988 185.05 21.1099 187.4 41.6799C190.47 68.7599 187.07 101.51 185.74 112.47Z" fill="#F5FFFF"/>
<path d="M187.39 41.6798L188.18 36.8198C188.18 36.8198 196.87 55.9798 188.18 112.32L185.74 112.47C185.74 112.47 193.77 85.9398 187.39 41.6798Z" fill="#E9F4F4"/>
<path d="M162.001 118.35L160.271 119.1C160.271 119.1 153.801 103.71 150.051 62L152.281 70.63C152.281 70.63 158.101 104.12 162.001 118.35Z" fill="#E9F4F4"/>
<path d="M260.54 49.0798C260.54 49.0798 252.68 79.6298 232 123.5C230.56 122.66 229.62 122.13 229.62 122.13C229.62 122.13 238.52 110.78 257.8 52.5598L260.54 49.0798Z" fill="#E9F4F4"/>
<path d="M225.81 21.2399L227.05 18.4199C227.05 18.4199 221 80.8199 210.79 114.86L207.79 114.04C207.79 114.04 216 92.3799 225.81 21.2399Z" fill="#E9F4F4"/>
<path d="M132.82 113.89L130.82 111.12C130.82 111.12 133.56 118.69 141.39 130.61L142.94 129.32C138.904 124.644 135.501 119.456 132.82 113.89Z" fill="#E9F4F4"/>
<path d="M76.8405 105.44L73.7705 102.44C73.7705 102.44 97.1505 115.35 127.931 143.89L126.821 145.65C126.821 145.65 97.6205 119.55 76.8405 105.44Z" fill="#E9F4F4"/>
<path d="M76.6205 148.11L71.5205 146.44C71.5205 146.44 77.5205 152.18 117.121 167.91L117.401 166.63C117.401 166.63 90.5905 155.59 76.6205 148.11Z" fill="#E9F4F4"/>
<path d="M98.3299 188.11C98.3299 188.11 112.22 189.3 116.33 189.7L116.5 190.87C109.138 190.64 101.821 189.634 94.6699 187.87L98.3299 188.11Z" fill="#E9F4F4"/>
<path d="M82.7802 223.24C96.7333 221.077 110.54 218.054 124.12 214.19L124.86 215.55C124.86 215.55 107.23 223.32 78.1602 225L82.7802 223.24Z" fill="#E9F4F4"/>
<path d="M135.59 230.69C125.657 235.844 116.29 242.02 107.64 249.12L102.17 252.38C102.17 252.38 113.06 242.38 134.1 229.01L135.59 230.69Z" fill="#E9F4F4"/>
<path d="M118.77 287.68C118.77 287.68 148.77 251.6 152.24 244.04L154.67 245.31C154.67 245.31 130.59 277.74 116.49 291.9L118.77 287.68Z" fill="#E9F4F4"/>
<path d="M172.33 250.14C172.33 250.14 145.45 297.27 140.71 333.77C139.1 336.63 138.71 337.32 138.71 337.32C138.71 337.32 143.71 296.23 170.64 250L172.33 250.14Z" fill="#E9F4F4"/>
<path d="M168.08 351.84C168.08 351.84 192.57 311.22 192.74 248.93L193.74 248.8C193.74 248.8 195.5 304.24 168.45 353.02C168.294 352.638 168.17 352.243 168.08 351.84Z" fill="#E9F4F4"/>
<path d="M202.58 346.41C202.58 346.41 190 312.16 190.43 287.64L189.82 291.11C189.82 291.11 188.7 305.42 202.27 348.05L202.58 346.41Z" fill="#E9F4F4"/>
<path d="M221.23 241.51C221.23 241.51 226.63 262.3 231.32 291.9L232.02 293.35C229.722 275.757 226.427 258.309 222.15 241.09L221.23 241.51Z" fill="#E9F4F4"/>
<path d="M264.07 275.46C264.07 275.46 238.9 251.13 230.71 236.34L229.71 236.99C229.71 236.99 237.96 251.32 267.62 280.86L264.07 275.46Z" fill="#E9F4F4"/>
<path d="M245.931 221.39C245.931 221.39 301.521 251.39 321.831 275.48C323.721 275.98 307.931 255.25 246.831 220.1L245.931 221.39Z" fill="#E9F4F4"/>
<path d="M308.64 226.06C290.276 218.669 272.481 209.935 255.4 199.93L255 201.37C273.27 211.905 292.406 220.861 312.2 228.14L308.64 226.06Z" fill="#E9F4F4"/>
<path d="M259.2 178.71C259.2 178.71 322.36 184.05 352.73 201.39L355.1 201.11C355.1 201.11 323.55 183.88 259.32 177L259.2 178.71Z" fill="#E9F4F4"/>
<path d="M260.83 107.74C255.285 116.073 248.219 123.286 240 129C241.21 130 240.73 129.59 240.73 129.59C240.73 129.59 255.66 118.12 263.88 105.76L260.83 107.74Z" fill="#E9F4F4"/>
<path d="M290.671 127.24C290.671 127.24 266.871 133.38 252.311 143.34L252.761 144.13C252.761 144.13 271.711 132.89 285.941 129.2L290.671 127.24Z" fill="#E9F4F4"/>
<path d="M258.83 163.09C258.83 163.09 279.31 164.38 328.62 159.45L331.43 159.61C331.43 159.61 311.43 163.87 259.05 164.9L258.83 163.09Z" fill="#E9F4F4"/>
<path d="M228.67 751.36C153.57 752.11 13.8799 748 13.8799 748L23.7699 740.8C23.7699 740.8 51.8699 702.47 63.7699 704.29C75.6699 706.11 78.0299 692.91 83.1699 697.09C88.3099 701.27 104.94 694.84 108.11 696.27C109.92 697.07 116.94 694 124.29 692.89C129.78 692.03 135.45 692.27 139.23 696.05C148.08 704.88 157.28 687.86 163.76 692.48C170.24 697.1 208.25 693.48 209.04 700.68C209.83 707.88 244.27 725.83 249.8 734.22C255.33 742.61 271.97 740.22 275.14 748C276 750.12 256.89 751.07 228.67 751.36Z" fill="#4F2F2F"/>
<path d="M228.671 751.36C228.671 751.36 217.671 737.21 216.191 736.36C214.711 735.51 197.001 705.78 194.071 711.16C191.141 716.54 163.641 701.51 161.561 697.16C159.481 692.81 147.321 709.77 142.411 701.47C137.501 693.17 124.261 692.85 124.261 692.85C129.751 691.99 135.421 692.23 139.201 696.01C148.051 704.84 157.251 687.82 163.731 692.44C170.211 697.06 208.221 693.44 209.011 700.64C209.801 707.84 244.241 725.79 249.771 734.18C255.301 742.57 271.941 740.18 275.111 747.96C276.001 750.12 256.891 751.07 228.671 751.36Z" fill="#593636"/>
<path d="M75.1108 706.19C73.5708 708.47 74.9508 710.58 73.1108 710.96C72.6433 711.028 72.1683 711.028 71.7008 710.96C67.8608 710.57 67.9208 715.15 66.1808 714.5C64.4408 713.85 62.8908 713.28 60.5308 712.5C58.1708 711.72 54.7708 711.21 57.0808 709.41C59.3908 707.61 59.5508 708.41 57.0808 707.99C54.6108 707.57 53.9008 706.25 56.3208 705.99C58.7408 705.73 61.0508 702.99 63.1808 704.2C64.3508 704.84 65.8908 704.49 67.1808 704.2C68.4708 703.91 69.8008 703.63 70.0108 704.75C70.4708 706.92 76.9408 703.48 75.1108 706.19Z" fill="#408269"/>
<path d="M197.891 701.34C197.651 704.34 198.591 703.9 196.771 703.25L196.361 703.12C194.001 702.42 195.081 704.12 194.061 707.46C193.041 710.8 193.801 700.95 192.591 701.85C191.381 702.75 189.721 699.49 188.701 701.59C187.681 703.69 188.701 704.08 185.761 705.36C182.821 706.64 172.361 700.36 170.761 703.36C169.161 706.36 164.891 706.04 161.831 702.78C158.771 699.52 149.911 707.07 149.361 708.86C147.251 715.68 145.001 708.28 144.171 704.65C143.341 701.02 143.321 702.5 141.491 699.37C140.401 697.52 147.631 694.62 151.491 694.94C155.351 695.26 154.591 693.11 159.551 691.48C161.361 690.89 166.641 693.33 169.191 693.14C171.741 692.95 180.701 696.38 183.421 694.2C186.491 691.74 196.251 696.05 199.291 696.55C199.571 696.55 199.801 696.64 199.991 696.69C202.461 697.3 198.131 698.38 197.891 701.34Z" fill="#408269"/>
<path d="M133.07 699.74C130.27 700.3 129.46 699.95 130.07 704.52C130.68 709.09 126.47 715.09 125.85 712.3C125.27 709.67 119.11 732.38 118.31 730.23C118.247 730.002 118.216 729.766 118.22 729.53C118.12 723.79 115.92 725.22 114.98 726.92C114.04 728.62 110.49 737.99 109.11 730.75C107.73 723.51 106.27 717.95 104.39 720.2C102.51 722.45 97.6204 724.76 97.4804 723.29C97.3404 721.82 97.0204 715.53 95.1804 713.08C93.3404 710.63 90.1804 706.53 92.8804 704.76C95.5804 702.99 97.6604 700.02 96.1004 698.31C94.5404 696.6 97.1004 695.31 100.36 695.49C101.36 695.49 102 691.61 105.6 692.55C109.2 693.49 111.42 691.17 112.81 691.36C114.2 691.55 119.05 692.44 120.23 692.1C120.887 691.924 121.556 691.794 122.23 691.71C123.3 691.58 124.33 691.63 124.35 692.24C124.38 693.25 135.88 699.18 133.07 699.74Z" fill="#408269"/>
<path d="M133.071 699.74C130.271 700.3 129.461 699.95 130.071 704.52C130.681 709.09 126.471 715.09 125.851 712.3C125.271 709.67 119.111 732.38 118.311 730.23C119.381 728.23 119.981 722.41 120.431 722.36C120.881 722.31 124.011 714.04 124.311 711.89C124.611 709.74 125.671 710.72 126.671 711.55C127.671 712.38 127.181 709.77 127.671 709.62C128.161 709.47 128.961 705.62 128.621 704.22C128.37 702.401 128.721 700.55 129.621 698.95C130.481 697.46 127.051 697.6 125.101 694.83C124.28 693.667 123.308 692.617 122.211 691.71C123.281 691.58 124.311 691.63 124.331 692.24C124.381 693.25 135.881 699.18 133.071 699.74Z" fill="#458C6F"/>
<path d="M197.891 701.34C197.651 704.34 198.591 703.9 196.771 703.25C196.988 703.097 197.158 702.885 197.26 702.64C197.262 701.82 197.323 701.001 197.441 700.19C197.866 699.027 198.697 698.058 199.781 697.46C200.201 697.22 200.211 696.93 200.031 696.65C202.461 697.3 198.131 698.38 197.891 701.34Z" fill="#458C6F"/>
<path d="M75.1107 706.19C73.5707 708.47 74.9507 710.58 73.1107 710.96C73.1107 710.47 74.0007 709.59 73.7707 709.38C73.5407 709.17 74.7707 706.18 74.9407 705.68C75.1107 705.18 72.3807 706.03 70.2307 705.87C69.8807 705.87 69.0907 704.14 68.7007 704.25C68.3107 704.36 67.7007 704.44 67.7007 704.32C67.7007 704.2 67.4207 704.32 67.2607 704.2C68.7007 703.89 69.8807 703.63 70.0907 704.75C70.4707 706.92 76.9407 703.48 75.1107 706.19Z" fill="#458C6F"/>
<path d="M291.801 747.2C291.271 747.53 288.801 747.97 285.211 748.52C272.311 750.39 245.271 752.64 243.941 752.38C241.871 751.96 213.581 753.32 206.761 752.06C206.761 752.06 218.481 719.2 225.021 723.94C231.561 728.68 233.571 714.94 238.301 715.84C240.356 716.195 242.429 716.435 244.511 716.56C248.511 716.89 252.871 717.11 255.641 717.77C260.081 718.82 264.641 721.13 267.871 722.18C271.101 723.23 279.761 723.94 281.101 725.32C282.441 726.7 283.251 739.59 286.311 740.64C289.371 741.69 294.091 745.82 291.801 747.2Z" fill="#7C7976"/>
<path d="M291.801 747.2C291.271 747.53 288.801 747.97 285.211 748.52C283.871 745.87 282.391 742.9 281.101 742.57C278.811 742.07 280.341 729.01 277.331 727.96C274.321 726.91 271.501 727.47 269.681 725.15C269.681 725.15 257.791 720.25 253.061 720.52C250.721 720.63 247.381 718.65 244.511 716.52C248.511 716.85 252.871 717.07 255.641 717.73C260.081 718.78 264.641 721.09 267.871 722.14C271.101 723.19 279.761 723.9 281.101 725.28C282.441 726.66 283.251 739.55 286.311 740.6C289.371 741.65 294.091 745.82 291.801 747.2Z" fill="#898683"/>
<path d="M214 752.93C211.9 753.53 206.21 753.35 206 753.35C205.79 753.35 200.76 753.03 198.8 751.7C198.65 751.6 201.74 749.09 203.87 749.34C204.94 749.49 206.07 749.62 207.05 749.72C207.761 749.801 208.479 749.801 209.19 749.72C209.96 749.57 213.6 750.72 214.67 752.13C214.92 752.5 214.59 752.75 214 752.93Z" fill="#877D74"/>
<path d="M214 752.93C213.548 752.257 212.957 751.69 212.267 751.265C211.577 750.841 210.804 750.57 210 750.47C208.98 750.307 207.976 750.057 207 749.72C207.711 749.801 208.429 749.801 209.14 749.72C209.91 749.57 213.55 750.72 214.62 752.13C214.92 752.5 214.59 752.75 214 752.93Z" fill="#8E857C"/>
</svg>
