<svg width="383" height="760" viewBox="0 0 383 760" fill="none" xmlns="http://www.w3.org/2000/svg">
<path d="M158.341 483.74C143.601 539.91 150.311 650.48 153.971 696.37C155.001 709.3 155.791 717.1 155.791 717.1H132.811C132.811 717.1 129.231 571.06 142.001 517.95C154.771 464.85 161.401 353.53 161.401 353.53L170.141 348.8L173.661 346.89C173.661 346.89 177.231 411.74 158.341 483.74Z" fill="#5ABA97"/>
<path d="M158.34 483.74C143.6 539.91 150.31 650.48 153.97 696.37L148.49 699.48C148.49 699.48 137.66 544.08 153.14 492.17C173.21 414.02 171.62 365.34 170.14 348.8L173.66 346.89C173.66 346.89 177.23 411.74 158.34 483.74Z" fill="#63C6A0"/>
<path d="M138.29 579.09C138.29 579.09 135.17 577.82 130.37 575.3C112.29 565.83 70.1799 538.74 79.8799 495.6C81.7099 487.46 84.2399 483.06 87.2299 481.45C104.35 472.24 136.32 554.13 136.32 554.13L138.28 579.09H138.29Z" fill="#5ABA97"/>
<path d="M191.15 580.12C191.81 579.43 192.46 578.74 193.09 578.07C192.46 578.81 191.81 579.49 191.15 580.12Z" fill="#82D16F"/>
<path d="M200.81 397.86C187.3 408.54 170.33 411.63 170.33 411.63L171.02 396.07C171.02 396.07 188.03 369.91 201.4 358.38C209.9 351.06 216.92 349.63 217.17 364.57C217.43 380.04 209.91 390.67 200.81 397.87V397.86Z" fill="#5ABA97"/>
<path d="M200.811 397.86C210.291 386.18 218.281 370.7 214.221 356.66C212.431 350.48 201.401 358.38 201.401 358.38C209.901 351.05 216.921 349.62 217.171 364.56C217.431 380.03 209.911 390.66 200.811 397.86Z" fill="#63C6A0"/>
<path d="M254.81 202.04C245.19 235.42 218.77 248.9 175.81 250.19C160.42 250.65 145.13 242.02 133.83 228.7C113.58 204.83 106.13 165.91 133.8 137.2C133.8 137.2 150.96 118.57 178.06 113.49C188.93 111.46 201.4 111.61 215.01 116.02C262.52 131.43 264.44 168.66 254.81 202.04Z" fill="#FFD655"/>
<path d="M133.83 228.7C113.58 204.83 106.13 165.91 133.8 137.2C133.8 137.2 150.96 118.57 178.06 113.49C149.46 125.94 105.58 157.44 133.83 228.7Z" fill="#FFC82C"/>
<path d="M207.79 114.04H207.78C207.23 113.92 206.68 113.8 206.13 113.69C198.93 112.25 192.11 111.96 185.74 112.47C185.02 112.52 184.3 112.59 183.59 112.67C183.42 102.52 183.25 69.4101 187.39 41.6901C191.2 16.2201 198.66 -4.6899 213.12 0.920103C220.65 3.8401 224.44 11.3501 225.81 21.2401C229.93 50.8201 212.32 101.61 207.79 114.04Z" fill="#FF2C50"/>
<path d="M260.83 107.74H260.82C250.24 118.52 241.31 126.4 239.27 128.17C239.22 128.22 239.17 128.27 239.13 128.3C236.28 126.08 233.09 124 229.51 122.1H229.49C227.27 120.91 224.93 119.79 222.42 118.75L218.99 116.7C218.99 116.7 237.57 79.4901 257.83 52.5601C273.11 32.2701 289.34 17.8001 299.32 29.4701C314.55 47.2801 283.8 84.3301 260.83 107.74Z" fill="#FF2C50"/>
<path d="M257.83 52.5601C249.11 85.7601 229.7 122.13 229.7 122.13L229.51 122.1H229.49C227.27 120.91 224.93 119.79 222.42 118.75C220.08 117.78 217.61 116.86 215.01 116.02C212.56 115.23 210.16 114.57 207.79 114.04H207.78C207.23 113.92 206.68 113.8 206.13 113.69C207.74 98.8701 213.77 49.8401 225.81 21.2401C232.41 5.55006 240.83 -3.99994 251.31 1.63006C264.75 8.84006 263.77 29.9701 257.83 52.5601Z" fill="#FF2C50"/>
<path d="M285.941 129.2C270.831 135.3 256.711 139.53 250.991 141.17C250.661 140.65 250.321 140.14 249.971 139.64C247.221 135.71 243.811 132.04 239.621 128.7H239.611L239.271 128.17L237.011 124.73C237.011 124.73 247.101 116.95 260.821 107.75H260.831C288.111 89.4301 329.771 65.5101 335.151 85.9701C339.711 103.33 311.431 118.93 285.941 129.2Z" fill="#FF2C50"/>
<path d="M366.021 134.83C365.051 148.33 348.651 155.62 328.641 159.45H328.621C302.941 164.39 271.351 163.65 258.831 163.09C258.761 162.53 258.671 161.97 258.581 161.41C257.421 154.25 255.021 147.41 250.991 141.17C250.661 140.65 250.321 140.14 249.971 139.64C255.391 137.86 269.421 133.4 285.941 129.2C321.141 120.28 367.621 112.6 366.021 134.83Z" fill="#FF2C50"/>
<path d="M364.46 222.57C356.68 236.72 332.65 233.65 308.64 226.06C308.63 226.06 308.62 226.05 308.62 226.05C286.05 218.89 263.5 207.73 254.5 203.07C254.61 202.73 254.71 202.39 254.81 202.04C255.01 201.34 255.21 200.64 255.4 199.93C256.46 196.04 257.35 192.11 258.03 188.17C258.57 185.01 258.97 181.85 259.2 178.71C275.18 180.62 327.8 187.78 352.73 201.39C363.43 207.24 369.03 214.26 364.46 222.57Z" fill="#FF2C50"/>
<path d="M381.77 184.62C378.6 195.05 367.34 199.87 352.73 201.39C320.27 204.78 271.31 191.9 258.03 188.17C258.57 185.01 258.97 181.85 259.2 178.71C259.6 173.42 259.52 168.18 258.83 163.09C258.76 162.53 258.67 161.97 258.58 161.41C270.09 160.39 300.71 158.06 328.62 159.45H328.64C359.52 161.01 387.09 167.12 381.77 184.62Z" fill="#FF2C50"/>
<path d="M345.4 272.05C339.72 277.72 331.36 278.18 321.83 275.48C294.09 267.63 256.34 233.07 245.2 222.44C245.45 222.1 245.69 221.75 245.93 221.39C249.54 216.12 252.4 210.04 254.5 203.07C254.61 202.73 254.71 202.39 254.81 202.04C255.01 201.34 255.21 200.64 255.4 199.93C263.72 203.45 287.24 213.73 308.62 226.05C308.62 226.05 308.63 226.06 308.64 226.06C334.95 241.23 358 259.48 345.4 272.05Z" fill="#FF2C50"/>
<path d="M280.97 341.51C262.48 347.33 244.18 319.03 231.33 291.91C231.33 291.9 231.32 291.9 231.32 291.9C220.48 269.05 213.49 247.04 213.49 247.04L220.83 241.69C220.96 241.63 221.1 241.57 221.23 241.51C224.62 240 227.78 238.29 230.71 236.34H230.72C231.56 235.79 232.36 235.22 233.16 234.62C236.96 239.17 251 256.22 264.07 275.46C282.94 303.24 299.79 335.58 280.97 341.51Z" fill="#FF2C50"/>
<path d="M326.631 301.84C311.951 313.69 285.641 295.38 264.071 275.46C244.791 257.65 229.301 238.56 229.301 238.56L230.711 236.34H230.721C231.561 235.79 232.361 235.22 233.161 234.62C237.801 231.21 241.811 227.16 245.201 222.44C245.451 222.1 245.691 221.75 245.931 221.39C259.571 228.99 302.761 253.96 321.831 275.48C331.011 285.84 334.611 295.4 326.631 301.84Z" fill="#FF2C50"/>
<path d="M217.81 359.56C210.98 358.55 206.06 353.65 202.58 346.41C189.82 319.94 196.18 262.11 197.96 248.17C198.34 248.11 198.72 248.05 199.1 247.98C207.15 246.58 214.4 244.51 220.83 241.69C220.96 241.63 221.1 241.57 221.23 241.51C222.14 245.07 227.72 267.51 231.32 291.9C231.32 291.9 231.33 291.9 231.33 291.91C236.27 325.36 237.5 362.47 217.81 359.56Z" fill="#FF2C50"/>
<path d="M202.58 346.41C199.84 361.53 194.09 371.33 183.26 368.65C175.76 366.8 170.97 360.57 168.08 351.84C158.38 322.49 170.26 264.86 173.55 250.19H173.56C174.31 250.21 175.06 250.21 175.81 250.19C179.31 250.09 182.7 249.9 185.98 249.63H185.99C190.16 249.29 194.14 248.8 197.96 248.17C198.34 248.11 198.72 248.05 199.1 247.98C201.09 261.67 208.22 315.3 202.58 346.41Z" fill="#FF2C50"/>
<path d="M172.331 250.14C169.651 259.82 156.691 304.99 140.711 333.77C130.531 352.09 119.141 363.76 108.391 355.41C93.2306 343.63 104.281 313.96 118.771 287.68C130.481 266.42 144.451 247.39 148.611 241.86C149.801 242.64 151.011 243.37 152.241 244.04C158.281 247.39 164.701 249.51 171.211 250.06C171.581 250.1 171.961 250.12 172.331 250.14Z" fill="#FF2C50"/>
<path d="M195.091 251.41C195.091 251.41 186.251 326.35 168.081 351.84C162.821 359.21 156.791 362.45 149.971 358.57C142.351 354.23 139.981 345.06 140.711 333.77C142.591 304.77 164.911 261.7 171.211 250.06C171.581 250.1 171.961 250.12 172.331 250.14C172.731 250.17 173.141 250.18 173.551 250.19H173.561C174.311 250.21 175.061 250.21 175.811 250.19C179.311 250.09 182.701 249.9 185.981 249.63H185.991L195.091 251.41Z" fill="#FF2C50"/>
<path d="M152.24 244.04C148.66 249.27 134.76 269.2 118.77 287.68C98.1803 311.46 74.1203 332.84 64.0503 317.44C52.0903 299.13 82.8403 269.11 107.64 249.12C107.64 249.11 107.66 249.11 107.67 249.1C120.16 239.03 131.15 231.51 134.38 229.34C134.78 229.8 135.17 230.24 135.58 230.68C139.53 235.04 143.92 238.82 148.6 241.86C149.79 242.64 151 243.37 152.23 244.04H152.24Z" fill="#FF2C50"/>
<path d="M117.401 166.63C115.581 174.31 115.311 182.1 116.321 189.7C96.5706 187.96 -3.78942 177.65 10.6506 149.54C19.0406 133.2 49.5106 138.95 76.6206 148.11C93.9506 153.97 109.901 161.23 117.811 165.01C117.661 165.55 117.531 166.09 117.401 166.63Z" fill="#FF2C50"/>
<path d="M127.631 144.54C127.351 144.92 127.081 145.3 126.821 145.69C122.511 151.88 119.571 158.39 117.811 165.01C117.661 165.55 117.531 166.09 117.401 166.63C110.111 163.67 93.6307 156.77 76.6207 148.11C46.6207 132.86 14.9206 112.12 28.7506 97.8299C38.7706 87.4799 57.8406 94.0699 76.8206 105.43C76.8206 105.43 76.8306 105.44 76.8406 105.44C98.2406 118.24 119.531 137.09 127.631 144.54Z" fill="#FF2C50"/>
<path d="M143.39 128.95C142.97 129.25 142.57 129.55 142.18 129.85C136.77 133.98 133.8 137.2 133.8 137.2C131.51 139.58 129.45 142.03 127.63 144.54C127.35 144.92 127.08 145.3 126.82 145.69C118.37 139.72 95.3499 123.01 76.8399 105.44L76.8199 105.43C57.1199 86.7201 42.5399 67.0501 56.0999 58.3401C77.4699 44.6001 114.24 88.6501 132.82 113.89C132.83 113.89 132.84 113.92 132.85 113.93C138.01 120.95 141.77 126.5 143.39 128.95Z" fill="#FF2C50"/>
<path d="M163.781 117.61C163.181 117.84 162.581 118.09 161.991 118.34C154.371 121.53 148.081 125.48 143.391 128.94C142.971 129.24 142.571 129.54 142.181 129.84C141.081 128.04 137.511 122.16 132.851 113.92C132.841 113.91 132.831 113.89 132.821 113.88C124.081 98.44 111.531 74.7 104.141 53.86C96.3106 31.76 94.2906 12.91 108.791 10.64C122.061 8.55999 132.921 21.91 141.381 39.9C145.391 48.41 148.861 57.96 151.801 67.41C158.781 89.82 162.761 111.65 163.781 117.61Z" fill="#FF2C50"/>
<path d="M135.76 230.98C135.76 230.98 123.77 239.39 107.67 249.1C107.66 249.11 107.65 249.11 107.64 249.12C76.6798 267.8 30.6098 291.24 25.7798 268.7C21.5598 249.05 54.5598 233.13 83.4698 223.11C101.71 216.8 118.32 212.84 122.93 211.78C123.3 212.59 123.7 213.4 124.12 214.19C126.83 219.43 130.11 224.32 133.83 228.7C134.01 228.91 134.2 229.13 134.38 229.34C134.78 229.8 135.17 230.24 135.58 230.68L135.75 230.98H135.76Z" fill="#FF2C50"/>
<path d="M124.12 214.19C121.63 214.84 104.37 219.31 83.4703 223.11C46.0203 229.93 -3.09969 234.64 0.150308 211.52C4.82031 178.39 96.7803 187.52 116.34 189.84C117.35 197.47 119.64 204.9 122.93 211.78C123.3 212.59 123.7 213.4 124.12 214.19Z" fill="#FF2C50"/>
<path d="M185.74 112.47C185.02 112.52 184.3 112.59 183.59 112.67C181.7 112.88 179.86 113.15 178.06 113.49C172.93 114.45 168.15 115.9 163.78 117.62C163.18 117.85 162.58 118.1 161.99 118.35C160.33 111.74 155.12 90.2101 151.8 67.4201C147.01 34.5701 146.12 -0.919873 165.4 1.87013C178.97 3.83013 185.05 21.1101 187.39 41.6801C190.47 68.7601 187.07 101.51 185.74 112.47Z" fill="#FF2C50"/>
<path opacity="0.35" d="M159.74 199.47C164.092 199.47 167.62 197.625 167.62 195.35C167.62 193.075 164.092 191.23 159.74 191.23C155.388 191.23 151.86 193.075 151.86 195.35C151.86 197.625 155.388 199.47 159.74 199.47Z" fill="#FF6E79"/>
<path opacity="0.35" d="M242.09 199.47C246.442 199.47 249.97 197.625 249.97 195.35C249.97 193.075 246.442 191.23 242.09 191.23C237.738 191.23 234.21 193.075 234.21 195.35C234.21 197.625 237.738 199.47 242.09 199.47Z" fill="#FF6E79"/>
<path opacity="0.05" d="M187.39 41.6801L188.17 36.8201C188.17 36.8201 196.86 55.9901 188.17 112.32L185.74 112.47C185.74 112.47 193.76 85.9401 187.39 41.6801Z" fill="black"/>
<path opacity="0.05" d="M161.991 118.35L160.261 119.1C160.261 119.1 153.801 103.71 150.051 61.97L152.281 70.61C152.281 70.61 158.101 104.13 161.991 118.35Z" fill="black"/>
<path opacity="0.05" d="M260.54 49.0801C260.54 49.0801 252.68 79.6301 232.03 123.5C230.59 122.65 229.65 122.13 229.65 122.13C229.65 122.13 238.55 110.78 257.83 52.5601L260.54 49.0801Z" fill="black"/>
<path opacity="0.05" d="M225.81 21.2402L227.05 18.4202C227.05 18.4202 221 80.8202 210.79 114.86L207.79 114.04C207.79 114.04 216 92.3802 225.82 21.2402H225.81Z" fill="black"/>
<path opacity="0.05" d="M132.821 113.89L130.771 111.12C130.771 111.12 133.51 118.69 141.34 130.61L142.891 129.32C142.891 129.32 137.751 123.81 132.821 113.89Z" fill="black"/>
<path opacity="0.05" d="M76.8405 105.44L73.7705 102.48C73.7705 102.48 97.1505 115.4 127.941 143.93L126.831 145.69C126.831 145.69 97.6305 119.55 76.8505 105.44H76.8405Z" fill="black"/>
<path opacity="0.05" d="M76.6207 148.11L71.5107 146.44C71.5107 146.44 77.5707 152.18 117.111 167.91L117.401 166.63C117.401 166.63 90.5907 155.59 76.6207 148.11Z" fill="black"/>
<path opacity="0.05" d="M98.3299 188.11C98.3299 188.11 112.23 189.3 116.33 189.7L116.49 190.87C116.49 190.87 104.76 190.61 94.6699 187.84L98.3299 188.1V188.11Z" fill="black"/>
<path opacity="0.05" d="M82.7802 223.24C82.7802 223.24 104.78 219.99 124.13 214.19L124.86 215.55C124.86 215.55 107.23 223.32 78.1602 225.01L82.7802 223.24Z" fill="black"/>
<path opacity="0.05" d="M135.59 230.69C135.59 230.69 120.44 238.27 107.64 249.12L102.16 252.38C102.16 252.38 113.05 242.42 134.09 229.01C135.85 231 135.59 230.69 135.59 230.69Z" fill="black"/>
<path opacity="0.05" d="M118.77 287.68C118.77 287.68 148.72 251.6 152.24 244.04L154.67 245.31C154.67 245.31 130.59 277.74 116.49 291.9L118.77 287.68Z" fill="black"/>
<path opacity="0.05" d="M172.33 250.14C172.33 250.14 145.45 297.27 140.71 333.77C139.1 336.63 138.67 337.32 138.67 337.32C138.67 337.32 143.63 296.23 170.6 250.01L172.33 250.15V250.14Z" fill="black"/>
<path opacity="0.05" d="M168.08 351.84C168.08 351.84 192.57 311.23 192.74 248.93C194.02 248.76 193.72 248.8 193.72 248.8C193.72 248.8 195.48 304.25 168.43 353.02C168.1 352.08 168.08 351.84 168.08 351.84Z" fill="black"/>
<path opacity="0.05" d="M202.58 346.41C202.58 346.41 189.99 312.16 190.43 287.64L189.82 291.11C189.82 291.11 188.7 305.41 202.27 348.05L202.58 346.41Z" fill="black"/>
<path opacity="0.05" d="M221.23 241.51C221.23 241.51 226.62 262.3 231.32 291.9L232.02 293.35C232.02 293.35 229.3 270.01 222.15 241.09L221.23 241.51Z" fill="black"/>
<path opacity="0.05" d="M264.071 275.46C264.071 275.46 238.891 251.13 230.711 236.34L229.761 236.99C229.761 236.99 238.001 251.32 267.671 280.86L264.071 275.46Z" fill="black"/>
<path opacity="0.05" d="M245.931 221.39C245.931 221.39 301.521 251.41 321.831 275.48C323.721 275.98 307.931 255.25 246.791 220.1L245.931 221.39Z" fill="black"/>
<path opacity="0.05" d="M308.64 226.06C308.64 226.06 281.12 215.34 255.4 199.93L255 201.37C255 201.37 278.92 215.84 312.19 228.14L308.64 226.06Z" fill="black"/>
<path opacity="0.05" d="M259.2 178.71C259.2 178.71 322.36 184.06 352.73 201.39L355.09 201.11C355.09 201.11 323.54 183.89 259.31 176.99L259.2 178.71Z" fill="black"/>
<path opacity="0.05" d="M260.83 107.74C260.83 107.74 252.94 120.32 239.96 128.98C241.17 130 240.69 129.57 240.69 129.57C240.69 129.57 255.62 118.1 263.84 105.74L260.83 107.74Z" fill="black"/>
<path opacity="0.05" d="M290.671 127.24C290.671 127.24 266.871 133.38 252.311 143.33C252.771 144.14 252.761 144.12 252.761 144.12C252.761 144.12 271.711 132.87 285.941 129.19L290.671 127.23V127.24Z" fill="black"/>
<path opacity="0.05" d="M258.83 163.09C258.83 163.09 279.31 164.38 328.62 159.45L331.43 159.61C331.43 159.61 311.4 163.87 259.05 164.9L258.83 163.09Z" fill="black"/>
<path d="M181.8 179.83C178.28 171.88 164.25 172.5 160.61 180.06C159.96 181.36 157.97 180.85 158.04 179.41C158.21 176.47 160.54 174.15 162.9 172.72C167.62 169.95 173.82 170.18 178.24 173.29C180.37 174.82 182.16 177.06 182.52 179.64C182.59 180.07 181.94 180.23 181.79 179.82L181.8 179.83Z" fill="#302826"/>
<path d="M174.75 184.46C179.102 184.46 182.63 182.284 182.63 179.6C182.63 176.916 179.102 174.74 174.75 174.74C170.398 174.74 166.87 176.916 166.87 179.6C166.87 182.284 170.398 184.46 174.75 184.46Z" fill="#302826"/>
<path d="M169.07 179.04C170.279 179.04 171.26 178.06 171.26 176.85C171.26 175.641 170.279 174.66 169.07 174.66C167.86 174.66 166.88 175.641 166.88 176.85C166.88 178.06 167.86 179.04 169.07 179.04Z" fill="#EFEFEF"/>
<path d="M171.74 181.24C172.193 181.24 172.56 180.873 172.56 180.42C172.56 179.967 172.193 179.6 171.74 179.6C171.287 179.6 170.92 179.967 170.92 180.42C170.92 180.873 171.287 181.24 171.74 181.24Z" fill="#EFEFEF"/>
<path d="M213.97 179.65C215.62 171.34 226.87 168.57 233.59 172.73C235.95 174.15 238.29 176.47 238.45 179.42C238.5 180.88 236.52 181.35 235.88 180.07C232.24 172.51 218.22 171.88 214.69 179.84C214.56 180.26 213.89 180.09 213.96 179.66L213.97 179.65Z" fill="#302826"/>
<path d="M221.74 184.46C226.092 184.46 229.62 182.284 229.62 179.6C229.62 176.916 226.092 174.74 221.74 174.74C217.388 174.74 213.86 176.916 213.86 179.6C213.86 182.284 217.388 184.46 221.74 184.46Z" fill="#302826"/>
<path d="M227.42 179.04C228.63 179.04 229.61 178.06 229.61 176.85C229.61 175.641 228.63 174.66 227.42 174.66C226.211 174.66 225.23 175.641 225.23 176.85C225.23 178.06 226.211 179.04 227.42 179.04Z" fill="#EFEFEF"/>
<path d="M224.751 181.24C225.204 181.24 225.571 180.873 225.571 180.42C225.571 179.967 225.204 179.6 224.751 179.6C224.298 179.6 223.931 179.967 223.931 180.42C223.931 180.873 224.298 181.24 224.751 181.24Z" fill="#EFEFEF"/>
<path d="M193.42 198.05C198.95 201.48 206.15 199.85 209.44 194.15C211.06 191.86 214.45 194.25 212.82 196.54C208.85 202.24 200.82 204.46 194.48 201.64C193.3 201.03 190.45 200.28 191.48 198.41C191.9 197.75 192.8 197.59 193.43 198.05H193.42Z" fill="#302826"/>
<path d="M169.901 162.99C174.761 168.6 180.951 173.47 187.981 176.06C189.351 176.53 188.711 178.58 187.311 178.18C179.531 175.88 172.731 171.21 167.041 165.48C165.281 163.56 168.231 160.97 169.901 162.99Z" fill="#FF2C50"/>
<path d="M206.761 173.06C210.711 165.9 218.531 161.69 226.541 161.18L228.391 161.07C230.481 161.22 234.221 160.35 234.291 163.44C234.281 164.89 232.871 165.92 231.481 165.59C229.951 165.34 228.221 165.03 226.651 165.02C226.161 164.98 225.511 164.97 225.031 165.02C218.611 165.13 212.071 168.47 208.771 174.07C208.111 175.43 206.071 174.44 206.761 173.07V173.06Z" fill="#FF2C50"/>
<path d="M260.371 753.68C252.111 754.3 240.571 754.81 227.241 754.94H227.231C152.141 755.7 20.4209 751.71 20.4209 751.71L22.3409 744.39C22.3409 744.39 44.3009 713.11 56.1709 714.92C68.0509 716.71 74.8109 703.68 82.4709 705.73C88.8809 707.44 103.481 698.43 106.651 699.85C108.461 700.66 112.911 696.37 120.261 695.26C125.741 694.4 132.451 699.08 137.771 699.64C139.021 699.77 140.211 699.86 141.341 699.91C150.001 700.28 155.631 698.35 162.301 696.07C182.321 689.22 200.271 706.69 207.581 704.27C216.261 701.39 238.791 730.17 248.431 733.05C258.981 736.2 262.721 745.56 273.671 751.58C274.741 752.17 269.601 752.99 260.371 753.68Z" fill="#4F2F2F"/>
<path d="M260.37 753.68C256.93 748.61 252.37 743.03 248.69 742.49C241.79 741.47 226.73 733.05 221.62 729.73C216.51 726.41 173.88 697.81 169.28 707.26C164.69 716.71 156.76 701.84 141.19 700.97C141.24 700.61 141.29 700.26 141.34 699.91C150 700.28 155.63 698.35 162.3 696.07C182.32 689.22 200.27 706.69 207.58 704.27C216.26 701.39 238.79 730.17 248.43 733.05C258.98 736.2 262.72 745.56 273.67 751.58C274.74 752.17 269.6 752.99 260.37 753.68Z" fill="#593636"/>
<path d="M105.521 718.14C105.391 718.11 104.871 718.19 104.121 718.34C100.701 718.99 92.2205 720.9 89.9205 719.35C87.1005 717.46 81.9005 719.52 80.2705 717.29C80.2705 717.29 85.9105 711.97 87.4005 711.8C88.4205 711.68 92.6405 710.54 95.0205 710.2C96.1405 710.03 96.8505 710.05 96.6105 710.44C95.8705 711.63 103.741 713.87 103.591 713.69C103.441 713.52 106.261 718.31 105.521 718.14Z" fill="#7C7976"/>
<path d="M105.521 718.14C105.391 718.11 104.871 718.19 104.121 718.34C103.681 717.22 103.191 715.78 103.161 715.02C103.121 713.62 96.2805 712.5 95.9605 711.13C95.8705 710.74 95.5005 710.43 95.0205 710.19C96.1405 710.02 96.8505 710.04 96.6105 710.43C95.8705 711.62 103.741 713.86 103.591 713.68C103.441 713.51 106.261 718.3 105.521 718.13V718.14Z" fill="#898683"/>
<path d="M54.3005 753.14C54.1705 753.11 53.6905 753.18 52.9805 753.31C49.7505 753.84 41.7605 755.4 39.5905 754.13C36.9305 752.58 32.0305 754.27 30.4805 752.45C30.4805 752.45 35.8005 748.11 37.2005 747.97C38.1605 747.87 42.1405 746.94 44.3805 746.66C45.4405 746.52 46.1105 746.53 45.8805 746.85C45.1805 747.82 52.6005 749.65 52.4705 749.51C52.3305 749.37 54.9905 753.28 54.2905 753.14H54.3005Z" fill="#7C7976"/>
<path d="M54.3006 753.14C54.1706 753.11 53.6906 753.18 52.9806 753.31C52.5606 752.39 52.1006 751.22 52.0706 750.59C52.0306 749.45 45.5806 748.53 45.2806 747.42C45.2006 747.1 44.8506 746.85 44.3906 746.65C45.4506 746.51 46.1206 746.52 45.8906 746.84C45.1906 747.81 52.6106 749.64 52.4806 749.5C52.3406 749.36 55.0006 753.27 54.3006 753.13V753.14Z" fill="#898683"/>
<path d="M134.231 699.17C134.111 699.14 133.621 699.21 132.921 699.34C129.731 699.86 121.821 701.41 119.671 700.15C117.041 698.62 112.191 700.29 110.661 698.48C110.661 698.48 115.921 694.18 117.311 694.05C118.261 693.95 122.201 693.03 124.421 692.76C125.471 692.62 126.131 692.64 125.911 692.95C125.221 693.91 132.561 695.72 132.421 695.58C132.281 695.44 134.911 699.31 134.221 699.17H134.231Z" fill="#7C7976"/>
<path d="M134.231 699.17C134.111 699.14 133.621 699.21 132.921 699.34C132.511 698.43 132.051 697.27 132.021 696.65C131.981 695.52 125.601 694.61 125.301 693.51C125.221 693.19 124.871 692.95 124.421 692.75C125.471 692.61 126.131 692.63 125.911 692.94C125.221 693.9 132.561 695.71 132.421 695.57C132.281 695.43 134.911 699.3 134.221 699.16L134.231 699.17Z" fill="#898683"/>
<path d="M178.181 704.03C177.971 704.14 176.991 704.29 175.571 704.48C170.471 705.12 159.711 706.05 159.241 705.8C158.641 705.46 147.161 704.8 144.631 703.65C144.631 703.65 149.171 694.43 151.761 696.05C154.351 697.67 155.141 692.97 157.011 693.27C157.691 693.38 158.541 693.46 159.471 693.52C161.041 693.63 162.781 693.71 163.871 693.94C165.631 694.3 167.441 695.09 168.711 695.45C169.981 695.81 173.421 696.05 173.951 696.53C174.501 697.02 174.801 701.43 176.011 701.78C177.221 702.14 179.091 703.56 178.181 704.03Z" fill="#7C7976"/>
<path d="M178.181 704.03C177.971 704.14 176.991 704.29 175.571 704.48C175.041 703.57 174.451 702.55 173.941 702.44C173.031 702.27 173.641 697.79 172.451 697.43C171.241 697.07 170.141 697.26 169.431 696.47C169.431 696.47 164.721 694.79 162.851 694.88C161.921 694.92 160.601 694.24 159.471 693.52C161.041 693.63 162.781 693.71 163.871 693.94C165.631 694.3 167.441 695.09 168.711 695.45C169.981 695.81 173.421 696.05 173.951 696.53C174.501 697.02 174.801 701.43 176.011 701.78C177.221 702.14 179.091 703.56 178.181 704.03Z" fill="#898683"/>
<path d="M146.96 707.59C145.94 707.88 143.18 707.8 143.08 707.8C142.95 707.8 140.54 707.64 139.59 707C139.52 706.95 141.01 705.74 142.05 705.86C142.57 705.93 143.12 705.99 143.59 706.04H143.6C144.06 706.09 144.44 706.1 144.63 706.06C145.01 705.99 146.77 706.53 147.29 707.23C147.41 707.39 147.25 707.51 146.95 707.59H146.96Z" fill="#877D74"/>
<path d="M146.96 707.59C146.77 707.27 146.18 706.58 145.04 706.4C144.52 706.31 144.03 706.18 143.61 706.04C144.07 706.09 144.45 706.1 144.64 706.06C145.02 705.99 146.78 706.53 147.3 707.23C147.42 707.39 147.26 707.51 146.96 707.59Z" fill="#8E857C"/>
<path d="M209.801 717.4C209.111 717.6 207.231 717.54 207.161 717.54C207.071 717.54 205.431 717.43 204.791 716.99C204.741 716.96 205.761 716.13 206.461 716.21C206.821 716.26 207.191 716.3 207.511 716.33C207.821 716.36 208.081 716.37 208.211 716.35C208.471 716.3 209.671 716.67 210.021 717.14C210.101 717.25 210.001 717.33 209.791 717.39L209.801 717.4Z" fill="#877D74"/>
<path d="M209.801 717.4C209.671 717.18 209.271 716.71 208.491 716.59C208.131 716.53 207.801 716.44 207.511 716.34C207.821 716.37 208.081 716.38 208.211 716.36C208.471 716.31 209.671 716.68 210.021 717.15C210.101 717.26 210.001 717.34 209.791 717.4H209.801Z" fill="#8E857C"/>
<path d="M223.571 757.97C222.671 758.23 220.231 758.15 220.141 758.15C220.021 758.15 217.891 758.01 217.051 757.44C216.991 757.4 218.311 756.32 219.221 756.43C219.681 756.49 220.171 756.55 220.591 756.59H220.601C221.011 756.63 221.341 756.64 221.511 756.61C221.841 756.55 223.401 757.03 223.871 757.64C223.981 757.78 223.841 757.89 223.571 757.96V757.97Z" fill="#877D74"/>
<path d="M223.571 757.97C223.401 757.69 222.881 757.08 221.871 756.92C221.411 756.84 220.981 756.73 220.601 756.6C221.011 756.64 221.341 756.65 221.511 756.62C221.841 756.56 223.401 757.04 223.871 757.65C223.981 757.79 223.841 757.9 223.571 757.97Z" fill="#8E857C"/>
<path d="M248.09 755.57C247.19 755.83 244.75 755.75 244.66 755.75C244.54 755.75 242.41 755.61 241.57 755.04C241.51 755 242.83 753.92 243.74 754.03C244.2 754.09 244.69 754.15 245.11 754.19H245.12C245.53 754.23 245.86 754.24 246.03 754.21C246.36 754.15 247.92 754.63 248.39 755.24C248.5 755.38 248.36 755.49 248.09 755.56V755.57Z" fill="#877D74"/>
<path d="M248.09 755.57C247.92 755.29 247.4 754.68 246.39 754.52C245.93 754.44 245.5 754.33 245.12 754.2C245.53 754.24 245.86 754.25 246.03 754.22C246.36 754.16 247.92 754.64 248.39 755.25C248.5 755.39 248.36 755.5 248.09 755.57Z" fill="#8E857C"/>
<path d="M238.251 756.09C236.661 756.54 232.371 756.41 232.221 756.41C232.011 756.41 228.271 756.16 226.791 755.16C226.681 755.08 229.001 753.19 230.611 753.38C231.421 753.49 232.281 753.59 233.011 753.66H233.031C233.751 753.74 234.341 753.75 234.641 753.7C235.231 753.59 237.971 754.44 238.781 755.52C238.971 755.77 238.721 755.96 238.251 756.09Z" fill="#877D74"/>
<path d="M238.251 756.09C237.951 755.6 237.041 754.52 235.261 754.24C234.451 754.11 233.691 753.9 233.031 753.67C233.751 753.75 234.341 753.76 234.641 753.71C235.231 753.6 237.971 754.45 238.781 755.53C238.971 755.78 238.721 755.97 238.251 756.1V756.09Z" fill="#8E857C"/>
<path d="M108.651 722.67C107.711 722.98 105.171 722.89 105.081 722.89C104.961 722.89 102.741 722.72 101.861 722.04C101.791 721.99 103.171 720.69 104.121 720.82C104.601 720.9 105.111 720.96 105.541 721.01H105.551C105.981 721.06 106.321 721.07 106.501 721.04C106.851 720.96 108.471 721.54 108.951 722.28C109.061 722.45 108.921 722.58 108.641 722.67H108.651Z" fill="#877D74"/>
<path d="M108.651 722.67C108.471 722.33 107.931 721.6 106.881 721.4C106.401 721.31 105.951 721.17 105.561 721.01C105.991 721.06 106.331 721.07 106.511 721.04C106.861 720.96 108.481 721.54 108.961 722.28C109.071 722.45 108.931 722.58 108.651 722.67Z" fill="#8E857C"/>
<path d="M57.2005 718.23C56.3005 718.49 53.8605 718.41 53.7705 718.41C53.6505 718.41 51.5205 718.27 50.6905 717.7C50.6305 717.66 51.9505 716.58 52.8605 716.69C53.3205 716.75 53.8105 716.81 54.2205 716.85H54.2305C54.6405 716.89 54.9705 716.9 55.1405 716.87C55.4705 716.81 57.0305 717.29 57.4905 717.9C57.6005 718.04 57.4605 718.15 57.1905 718.22L57.2005 718.23Z" fill="#877D74"/>
<path d="M57.2005 718.23C57.0305 717.95 56.5105 717.34 55.5005 717.18C55.0405 717.1 54.6105 716.99 54.2305 716.86C54.6405 716.9 54.9705 716.91 55.1405 716.88C55.4705 716.82 57.0305 717.3 57.4905 717.91C57.6005 718.05 57.4605 718.16 57.1905 718.23H57.2005Z" fill="#8E857C"/>
<path d="M63.4803 716.41C62.1803 716.78 58.6703 716.67 58.5503 716.67C58.3803 716.67 55.3203 716.47 54.1203 715.65C54.0303 715.59 55.9303 714.04 57.2403 714.2C57.9003 714.29 58.6003 714.37 59.2003 714.43H59.2203C59.8103 714.49 60.2903 714.51 60.5303 714.46C61.0103 714.37 63.2503 715.06 63.9103 715.94C64.0603 716.14 63.8603 716.3 63.4803 716.4V716.41Z" fill="#877D74"/>
<path d="M63.4807 716.41C63.2307 716.01 62.4907 715.13 61.0407 714.9C60.3807 714.79 59.7607 714.62 59.2207 714.44C59.8107 714.5 60.2907 714.52 60.5307 714.47C61.0107 714.38 63.2507 715.07 63.9107 715.95C64.0607 716.15 63.8607 716.31 63.4807 716.41Z" fill="#8E857C"/>
<path d="M61.8809 718.27C61.4609 718.39 60.3409 718.35 60.3009 718.35C60.2509 718.35 59.2609 718.29 58.8809 718.02C58.8509 718 59.4609 717.5 59.8809 717.55C60.0909 717.58 60.3209 717.6 60.5109 717.62C60.7009 717.64 60.8509 717.64 60.9309 717.62C61.0809 717.59 61.8009 717.81 62.0209 718.1C62.0709 718.16 62.0109 718.21 61.8809 718.25V718.27Z" fill="#877D74"/>
<path d="M61.8807 718.27C61.8007 718.14 61.5607 717.86 61.1007 717.78C60.8907 717.75 60.6907 717.69 60.5107 717.63C60.7007 717.65 60.8507 717.65 60.9307 717.63C61.0807 717.6 61.8007 717.82 62.0207 718.11C62.0707 718.17 62.0107 718.22 61.8807 718.26V718.27Z" fill="#8E857C"/>
<path d="M112.511 720.6C111.951 720.85 110.431 720.78 110.371 720.78C110.301 720.78 108.971 720.64 108.451 720.09C108.411 720.05 109.231 719 109.801 719.1C110.091 719.16 110.391 719.22 110.651 719.26C110.901 719.3 111.111 719.31 111.221 719.28C111.431 719.22 112.401 719.69 112.691 720.29C112.761 720.43 112.671 720.53 112.501 720.6H112.511Z" fill="#877D74"/>
<path d="M112.51 720.6C112.4 720.33 112.08 719.73 111.45 719.57C111.16 719.5 110.89 719.38 110.66 719.26C110.91 719.3 111.12 719.31 111.23 719.28C111.44 719.22 112.41 719.69 112.7 720.29C112.77 720.43 112.68 720.53 112.51 720.6Z" fill="#8E857C"/>
<path d="M114.801 701.18C113.921 701.43 111.551 701.36 111.471 701.36C111.351 701.36 109.291 701.22 108.471 700.67C108.411 700.63 109.691 699.58 110.581 699.69C111.031 699.75 111.501 699.8 111.911 699.85H111.921C112.321 699.89 112.641 699.9 112.811 699.87C113.131 699.81 114.651 700.28 115.101 700.87C115.201 701.01 115.071 701.11 114.811 701.18H114.801Z" fill="#877D74"/>
<path d="M114.801 701.18C114.631 700.91 114.131 700.31 113.151 700.16C112.701 700.09 112.281 699.97 111.921 699.85C112.321 699.89 112.641 699.9 112.811 699.87C113.131 699.81 114.651 700.28 115.101 700.87C115.201 701.01 115.071 701.11 114.811 701.18H114.801Z" fill="#8E857C"/>
<path d="M118 703.55C117.48 703.75 116.06 703.69 116.01 703.69C115.94 703.69 114.7 703.58 114.22 703.13C114.18 703.1 114.95 702.25 115.48 702.33C115.75 702.38 116.03 702.42 116.27 702.46C116.51 702.49 116.7 702.5 116.8 702.48C116.99 702.43 117.9 702.81 118.17 703.29C118.23 703.4 118.15 703.48 118 703.54V703.55Z" fill="#877D74"/>
<path d="M118.001 703.55C117.901 703.33 117.601 702.85 117.011 702.72C116.741 702.66 116.491 702.57 116.271 702.47C116.511 702.5 116.701 702.51 116.801 702.49C116.991 702.44 117.901 702.82 118.171 703.3C118.231 703.41 118.151 703.49 118.001 703.55Z" fill="#8E857C"/>
<path d="M190.37 706.71C190.26 706.69 189.84 706.75 189.22 706.86C186.4 707.32 179.42 708.68 177.52 707.58C175.2 706.23 170.92 707.7 169.57 706.11C169.57 706.11 174.21 702.32 175.44 702.19C176.28 702.1 179.76 701.29 181.71 701.05C182.63 700.93 183.22 700.94 183.02 701.22C182.41 702.07 188.89 703.66 188.77 703.54C188.65 703.42 190.97 706.83 190.36 706.71H190.37Z" fill="#878584"/>
<path d="M190.371 706.71C190.261 706.69 189.841 706.75 189.221 706.86C188.861 706.06 188.451 705.04 188.431 704.49C188.391 703.49 182.761 702.69 182.501 701.72C182.431 701.44 182.121 701.22 181.721 701.05C182.641 700.93 183.231 700.94 183.031 701.22C182.421 702.07 188.901 703.66 188.781 703.54C188.661 703.42 190.981 706.83 190.371 706.71Z" fill="#939190"/>
<path d="M156.531 754.71C156.151 754.92 154.361 755.19 151.791 755.54C142.511 756.71 122.941 758.39 122.081 757.95C120.981 757.33 100.111 756.13 95.501 754.03C95.501 754.03 103.751 737.25 108.461 740.21C113.171 743.17 114.621 734.61 118.021 735.16C119.261 735.37 120.811 735.5 122.491 735.61C125.341 735.82 128.511 735.95 130.501 736.37C133.701 737.02 137.001 738.47 139.301 739.12C141.601 739.77 147.861 740.22 148.831 741.08C149.831 741.97 150.381 749.99 152.581 750.64C154.781 751.29 158.181 753.87 156.531 754.73V754.71Z" fill="#7C7976"/>
<path d="M156.531 754.71C156.151 754.92 154.361 755.19 151.791 755.54C150.831 753.89 149.761 752.03 148.831 751.83C147.181 751.52 148.281 743.37 146.111 742.72C143.911 742.07 141.911 742.41 140.611 740.97C140.611 740.97 132.051 737.91 128.641 738.08C126.961 738.15 124.551 736.91 122.491 735.6C125.341 735.81 128.511 735.94 130.501 736.36C133.701 737.01 137.001 738.46 139.301 739.11C141.601 739.76 147.861 740.21 148.831 741.07C149.831 741.96 150.381 749.98 152.581 750.63C154.781 751.28 158.181 753.86 156.531 754.72V754.71Z" fill="#898683"/>
<path d="M178.701 757.62C178.501 757.58 177.731 757.69 176.601 757.89C171.471 758.73 158.771 761.21 155.321 759.2C151.101 756.74 143.311 759.42 140.851 756.52C140.851 756.52 149.301 749.62 151.531 749.4C153.061 749.25 159.381 747.76 162.941 747.32C164.621 747.1 165.681 747.12 165.331 747.63C164.221 749.18 176.011 752.08 175.791 751.85C175.571 751.63 179.791 757.84 178.691 757.62H178.701Z" fill="#878584"/>
<path d="M178.7 757.62C178.5 757.58 177.73 757.69 176.6 757.89C175.94 756.43 175.21 754.57 175.16 753.58C175.09 751.77 164.85 750.31 164.37 748.54C164.24 748.03 163.68 747.63 162.95 747.32C164.63 747.1 165.69 747.12 165.34 747.63C164.23 749.18 176.02 752.08 175.8 751.85C175.58 751.63 179.8 757.84 178.7 757.62Z" fill="#939190"/>
<path d="M226.681 715.72C226.581 715.68 226.161 715.7 225.561 715.73C222.811 715.86 215.971 716.38 214.281 715.11C212.211 713.56 207.951 714.49 206.831 712.81C206.831 712.81 211.701 709.7 212.891 709.72C213.701 709.73 217.121 709.34 219.021 709.33C219.921 709.32 220.481 709.39 220.261 709.64C219.581 710.39 225.611 712.64 225.511 712.51C225.411 712.38 227.251 715.91 226.681 715.73V715.72Z" fill="#878584"/>
<path d="M226.681 715.72C226.581 715.68 226.161 715.7 225.561 715.73C225.301 714.92 225.031 713.9 225.071 713.37C225.151 712.41 219.851 711.01 219.701 710.05C219.661 709.77 219.391 709.53 219.031 709.32C219.931 709.31 220.491 709.38 220.271 709.63C219.591 710.38 225.621 712.63 225.521 712.5C225.421 712.37 227.261 715.9 226.691 715.72H226.681Z" fill="#939190"/>
<path d="M34.2207 754.57C32.0407 755.19 26.1507 755.01 25.9507 755.01C25.6607 755.01 20.5307 754.67 18.5107 753.3C18.3507 753.2 21.5407 750.6 23.7507 750.86C24.8707 751.02 26.0307 751.15 27.0407 751.25H27.0707C28.0607 751.35 28.8607 751.38 29.2707 751.3C30.0707 751.14 33.8307 752.31 34.9507 753.79C35.2107 754.13 34.8707 754.39 34.2207 754.57Z" fill="#877D74"/>
<path d="M34.2205 754.57C33.8105 753.9 32.5605 752.42 30.1205 752.03C29.0005 751.85 27.9705 751.56 27.0605 751.25C28.0505 751.35 28.8505 751.38 29.2605 751.3C30.0605 751.14 33.8205 752.31 34.9405 753.79C35.2005 754.13 34.8605 754.39 34.2105 754.57H34.2205Z" fill="#8E857C"/>
</svg>
