<svg width="383" height="751" viewBox="0 0 383 751" fill="none" xmlns="http://www.w3.org/2000/svg">
<path d="M158.34 483.74C143.6 539.91 150.34 650.48 153.97 696.37C154.97 709.3 155.79 717.1 155.79 717.1H132.79C132.79 717.1 129.23 571.06 142 518C154.77 464.94 161.4 353.58 161.4 353.58L170.14 348.85L173.66 346.94C173.66 346.94 177.23 411.74 158.34 483.74Z" fill="#5ABA97"/>
<path d="M158.34 483.74C143.6 539.91 150.34 650.48 153.97 696.37L148.49 699.48C148.49 699.48 137.66 544.08 153.14 492.17C173.21 414.02 171.62 365.34 170.14 348.8L173.66 346.89C173.66 346.89 177.23 411.74 158.34 483.74Z" fill="#63C6A0"/>
<path d="M160.11 421C160.11 421 157.45 419.92 153.35 417.77C137.93 409.69 102 386.58 110.28 349.77C111.84 342.83 114 339.07 116.55 337.69C131.16 329.84 158.43 399.69 158.43 399.69L160.11 421Z" fill="#5ABA97"/>
<path d="M191.15 580.12L193.09 578.12C192.478 578.819 191.831 579.487 191.15 580.12Z" fill="#82D16F"/>
<path d="M178.421 533.53C165.141 544.03 148.471 547.06 148.471 547.06L149.141 531.77C149.141 531.77 165.861 506.06 179.001 494.77C187.351 487.57 194.251 486.17 194.501 500.85C194.761 516 187.361 526.46 178.421 533.53Z" fill="#5ABA97"/>
<path d="M178.42 533.53C187.74 522.05 195.59 506.83 191.6 493.03C189.85 486.96 179 494.72 179 494.72C187.35 487.52 194.25 486.12 194.5 500.8C194.76 516 187.36 526.46 178.42 533.53Z" fill="#63C6A0"/>
<path d="M254.81 202C245.19 235.38 218.81 248.86 175.81 250.15C160.42 250.61 145.13 241.98 133.81 228.66C113.56 204.79 106.11 165.87 133.81 137.16C133.81 137.16 150.97 118.53 178.07 113.45C190.398 111.165 203.103 112.043 215 116C262.52 131.43 264.44 168.66 254.81 202Z" fill="#FFCD50"/>
<path d="M133.831 228.7C113.581 204.83 106.131 165.91 133.831 137.2C133.831 137.2 150.991 118.57 178.091 113.49C149.461 125.94 105.581 157.44 133.831 228.7Z" fill="#FFC033"/>
<path d="M187.06 192.68C189.6 196.17 194.67 196.5 198.46 195.19C199.808 194.712 200.975 193.828 201.8 192.66C201.843 192.594 201.899 192.538 201.965 192.494C202.03 192.45 202.104 192.42 202.181 192.405C202.259 192.39 202.338 192.391 202.415 192.407C202.492 192.423 202.565 192.455 202.63 192.5C202.709 192.555 202.774 192.629 202.819 192.714C202.864 192.799 202.888 192.894 202.89 192.99C202.855 193.982 202.536 194.944 201.97 195.76C198.53 200.61 190.21 200.62 186.75 195.76C186.26 195.04 185.03 192.5 186.47 192.31C186.589 192.313 186.705 192.345 186.808 192.405C186.912 192.464 186.998 192.548 187.06 192.65V192.68Z" fill="#302826"/>
<path d="M207.791 114L206.141 113.65C199.434 112.297 192.571 111.887 185.751 112.43C185.031 112.43 184.311 112.55 183.601 112.63C183.431 102.48 183.261 69.3699 187.401 41.6299C191.201 16.2199 198.661 -4.69006 213.121 0.919941C220.651 3.83994 224.441 11.3499 225.811 21.2399C229.931 50.8199 212.321 101.61 207.791 114Z" fill="url(#paint0_linear_126_3548)"/>
<path d="M260.83 107.74C250.25 118.51 241.321 126.39 239.281 128.16L239.141 128.29C236.12 125.948 232.901 123.873 229.521 122.09C227.301 120.91 224.961 119.79 222.451 118.75L219.021 116.75C219.021 116.75 237.6 79.5399 257.86 52.6099C273.14 32.3199 289.371 17.8499 299.351 29.5199C314.551 47.2799 283.8 84.3299 260.83 107.74Z" fill="url(#paint1_linear_126_3548)"/>
<path d="M257.83 52.5598C249.11 85.7598 229.7 122.13 229.7 122.13H229.51C227.29 120.95 224.95 119.83 222.44 118.79C220.1 117.79 217.63 116.9 215.03 116.06C212.58 115.27 210.18 114.61 207.81 114.06L206.16 113.71C207.77 98.8898 213.8 49.8598 225.84 21.2598C232.44 5.56983 240.84 -3.98017 251.34 1.64983C264.75 8.83983 263.77 29.9998 257.83 52.5598Z" fill="url(#paint2_linear_126_3548)"/>
<path d="M285.94 129.2C270.83 135.3 256.71 139.53 250.99 141.2C250.657 140.68 250.323 140.17 249.99 139.67C247.086 135.543 243.6 131.858 239.64 128.73L239.3 128.21L237 124.73C237 124.73 247.09 116.95 260.81 107.73C288.11 89.4299 329.77 65.5099 335.15 85.9999C339.71 103.33 311.43 118.93 285.94 129.2Z" fill="url(#paint3_linear_126_3548)"/>
<path d="M366 134.83C365 148.33 348.63 155.62 328.62 159.45C302.94 164.39 271.35 163.65 258.83 163.09C258.76 162.53 258.67 161.97 258.58 161.41C257.49 154.209 254.908 147.315 251 141.17C250.667 140.65 250.333 140.14 250 139.64C255.42 137.86 269.45 133.4 286 129.2C321.14 120.28 367.62 112.6 366 134.83Z" fill="url(#paint4_linear_126_3548)"/>
<path d="M364.46 222.57C356.68 236.72 332.651 233.65 308.641 226.06C286.071 218.9 263.521 207.74 254.521 203.06C254.631 202.72 254.731 202.38 254.831 202.06C255.031 201.36 255.231 200.66 255.421 199.95C256.481 196.06 257.42 192.13 258.05 188.19C258.59 185.03 258.991 181.87 259.221 178.73C275.221 180.64 327.821 187.8 352.751 201.41C363.431 207.24 369 214.26 364.46 222.57Z" fill="url(#paint5_linear_126_3548)"/>
<path d="M381.77 184.62C378.6 195.05 367.34 199.87 352.77 201.39C320.31 204.78 271.35 191.9 258.07 188.17C258.61 185.01 259.01 181.85 259.24 178.71C259.664 173.505 259.54 168.269 258.87 163.09C258.8 162.53 258.71 161.97 258.62 161.41C270.13 160.41 300.75 158.06 328.62 159.41C359.52 161 387.09 167.12 381.77 184.62Z" fill="url(#paint6_linear_126_3548)"/>
<path d="M345.4 272.05C339.72 277.72 331.4 278.18 321.83 275.48C294.09 267.63 256.34 233.07 245.2 222.48C245.45 222.14 245.69 221.79 245.93 221.43C249.716 215.803 252.607 209.623 254.5 203.11C254.61 202.77 254.71 202.43 254.81 202.11C255.01 201.41 255.21 200.71 255.4 200C263.72 203.52 287.24 213.8 308.62 226.12C335 241.23 358 259.48 345.4 272.05Z" fill="url(#paint7_linear_126_3548)"/>
<path d="M281 341.51C262.51 347.33 244.21 319.03 231.36 291.91C224.51 277.311 218.542 262.314 213.49 247L220.83 241.65L221.23 241.47C224.53 240.016 227.701 238.287 230.71 236.3C231.55 235.75 232.35 235.18 233.15 234.58C236.95 239.13 250.99 256.18 264.06 275.42C282.94 303.24 299.79 335.58 281 341.51Z" fill="url(#paint8_linear_126_3548)"/>
<path d="M326.631 301.84C311.951 313.69 285.631 295.38 264.071 275.46C251.714 263.906 240.101 251.581 229.301 238.56L230.711 236.34C231.551 235.79 232.351 235.22 233.151 234.62C237.768 231.219 241.818 227.108 245.151 222.44C245.401 222.1 245.641 221.75 245.881 221.39C259.521 228.99 302.711 253.96 321.781 275.48C331.001 285.84 334.611 295.4 326.631 301.84Z" fill="url(#paint9_linear_126_3548)"/>
<path d="M217.81 359.56C210.98 358.56 206.06 353.65 202.58 346.41C189.82 319.94 196.18 262.11 197.96 248.17L199.1 247.98C206.57 246.763 213.866 244.652 220.83 241.69L221.23 241.51C222.14 245.07 227.72 267.51 231.32 291.9C236.27 325.36 237.5 362.47 217.81 359.56Z" fill="url(#paint10_linear_126_3548)"/>
<path d="M202.58 346.41C199.84 361.53 194.09 371.33 183.26 368.65C175.76 366.8 170.97 360.57 168.08 351.84C158.38 322.49 170.26 264.84 173.55 250.19C174.304 250.19 175.054 250.19 175.8 250.19C179.3 250.09 182.69 249.903 185.97 249.63C190.14 249.29 194.12 248.8 197.97 248.17L199.11 247.98C201.09 261.67 208.22 315.3 202.58 346.41Z" fill="url(#paint11_linear_126_3548)"/>
<path d="M172.331 250.14C169.651 259.82 156.691 304.99 140.711 333.77C130.531 352.09 119.141 363.77 108.391 355.41C93.2306 343.63 104.281 313.96 118.771 287.68C127.704 271.77 137.672 256.464 148.611 241.86C149.801 242.64 151.011 243.37 152.241 244.04C158.078 247.361 164.554 249.406 171.241 250.04C171.581 250.1 172.001 250.12 172.331 250.14Z" fill="url(#paint12_linear_126_3548)"/>
<path d="M195.09 251.41C195.09 251.41 186.25 326.35 168.09 351.84C162.83 359.21 156.8 362.45 149.98 358.57C142.36 354.23 139.98 345.06 140.72 333.77C142.6 304.77 164.92 261.7 171.22 250.06C171.59 250.06 171.97 250.12 172.34 250.14C172.71 250.16 173.15 250.14 173.56 250.19C174.313 250.19 175.063 250.19 175.81 250.19C179.31 250.09 182.7 249.903 185.98 249.63L195.09 251.41Z" fill="url(#paint13_linear_126_3548)"/>
<path d="M152.241 244C141.845 259.115 130.673 273.681 118.771 287.64C98.1808 311.42 74.1208 332.8 64.0508 317.4C52.0508 299.09 82.8408 269.07 107.641 249.08C120.131 239.01 131.121 231.49 134.351 229.32C134.751 229.78 135.141 230.22 135.551 230.66C139.388 234.924 143.757 238.678 148.551 241.83C149.801 242.64 151.001 243.37 152.241 244Z" fill="url(#paint14_linear_126_3548)"/>
<path d="M117.401 166.63C115.633 174.189 115.267 182.009 116.321 189.7C96.5706 188 -3.78942 177.65 10.6506 149.54C19.0406 133.2 49.5106 138.95 76.6506 148.11C90.6807 152.953 104.423 158.592 117.811 165C117.661 165.55 117.531 166.09 117.401 166.63Z" fill="url(#paint15_linear_126_3548)"/>
<path d="M127.63 144.54C127.35 144.92 127.08 145.3 126.82 145.69C122.713 151.554 119.667 158.093 117.82 165.01C117.67 165.55 117.54 166.09 117.41 166.63C110.12 163.63 93.6404 156.77 76.6304 148.11C46.6304 132.86 14.9304 112.11 28.7604 97.8299C38.7604 87.4799 57.8504 94.0699 76.8304 105.43C98.2404 118.24 119.53 137.09 127.63 144.54Z" fill="url(#paint16_linear_126_3548)"/>
<path d="M143.39 129C142.97 129.3 142.57 129.6 142.18 129.9C139.198 132.126 136.396 134.584 133.8 137.25C131.576 139.551 129.514 142.003 127.63 144.59C127.35 144.97 127.08 145.35 126.82 145.74C118.37 139.74 95.3499 123.06 76.8199 105.49C57.1199 86.7199 42.5399 67.0499 56.0999 58.3399C77.4699 44.5999 114.24 88.6499 132.82 113.89C138 121 141.77 126.5 143.39 129Z" fill="url(#paint17_linear_126_3548)"/>
<path d="M163.781 117.61C163.181 117.84 162.581 118.09 161.991 118.34C155.388 121.138 149.143 124.717 143.391 129C142.971 129.3 142.571 129.59 142.181 129.89C141.081 128.09 137.511 122.21 132.851 113.97C124.111 98.54 111.561 74.79 104.171 53.97C96.3408 31.87 94.3208 13.02 108.821 10.75C122.091 8.68001 132.951 22.02 141.411 40.01C145.489 48.8982 148.96 58.0525 151.801 67.41C156.818 83.8823 160.819 100.647 163.781 117.61Z" fill="url(#paint18_linear_126_3548)"/>
<path d="M135.76 231C135.76 231 123.76 239.41 107.67 249.12C76.6701 267.8 30.6701 291.24 25.8101 268.7C21.5901 249.05 54.5901 233.13 83.5001 223.11C96.4543 218.671 109.624 214.89 122.96 211.78C123.33 212.59 123.73 213.4 124.15 214.19C126.829 219.377 130.086 224.245 133.86 228.7L134.41 229.34C134.81 229.8 135.2 230.24 135.61 230.68L135.76 231Z" fill="url(#paint19_linear_126_3548)"/>
<path d="M124.12 214.19C121.63 214.84 104.37 219.31 83.4704 223.11C46.0004 229.93 -3.09963 234.64 0.150366 211.52C4.82037 178.39 96.7804 187.52 116.34 189.84C117.375 197.453 119.598 204.857 122.93 211.78C123.3 212.59 123.7 213.4 124.12 214.19Z" fill="url(#paint20_linear_126_3548)"/>
<path opacity="0.35" d="M155.171 199.93C158.915 199.93 161.951 198.345 161.951 196.39C161.951 194.435 158.915 192.85 155.171 192.85C151.426 192.85 148.391 194.435 148.391 196.39C148.391 198.345 151.426 199.93 155.171 199.93Z" fill="#FF6E79"/>
<path opacity="0.35" d="M236.32 199.93C240.065 199.93 243.1 198.345 243.1 196.39C243.1 194.435 240.065 192.85 236.32 192.85C232.576 192.85 229.54 194.435 229.54 196.39C229.54 198.345 232.576 199.93 236.32 199.93Z" fill="#FF6E79"/>
<path d="M185.74 112.47C185.02 112.47 184.3 112.59 183.59 112.67C181.697 112.877 179.853 113.15 178.06 113.49C173.18 114.411 168.398 115.794 163.78 117.62C163.18 117.85 162.58 118.1 161.99 118.35C160.33 111.74 155.12 90.2099 151.8 67.4199C147 34.5699 146.12 -0.920118 165.4 1.86988C178.97 3.86988 185.05 21.1099 187.4 41.6799C190.47 68.7599 187.07 101.51 185.74 112.47Z" fill="url(#paint21_linear_126_3548)"/>
<path opacity="0.03" d="M187.39 41.6798L188.18 36.8198C188.18 36.8198 196.87 55.9798 188.18 112.32L185.74 112.47C185.74 112.47 193.77 85.9398 187.39 41.6798Z" fill="black"/>
<path opacity="0.03" d="M162.001 118.35L160.271 119.1C160.271 119.1 153.801 103.71 150.051 62L152.281 70.63C152.281 70.63 158.101 104.12 162.001 118.35Z" fill="black"/>
<path opacity="0.03" d="M260.54 49.0798C260.54 49.0798 252.68 79.6298 232 123.5C230.56 122.66 229.62 122.13 229.62 122.13C229.62 122.13 238.52 110.78 257.8 52.5598L260.54 49.0798Z" fill="black"/>
<path opacity="0.03" d="M225.81 21.2399L227.05 18.4199C227.05 18.4199 221 80.8199 210.79 114.86L207.79 114.04C207.79 114.04 216 92.3799 225.81 21.2399Z" fill="black"/>
<path opacity="0.03" d="M132.82 113.89L130.82 111.12C130.82 111.12 133.56 118.69 141.39 130.61L142.94 129.32C138.904 124.644 135.501 119.456 132.82 113.89Z" fill="black"/>
<path opacity="0.03" d="M76.8405 105.44L73.7705 102.44C73.7705 102.44 97.1505 115.35 127.931 143.89L126.821 145.65C126.821 145.65 97.6205 119.55 76.8405 105.44Z" fill="black"/>
<path opacity="0.03" d="M76.6205 148.11L71.5205 146.44C71.5205 146.44 77.5205 152.18 117.121 167.91L117.401 166.63C117.401 166.63 90.5905 155.59 76.6205 148.11Z" fill="black"/>
<path opacity="0.03" d="M98.3299 188.11C98.3299 188.11 112.22 189.3 116.33 189.7L116.5 190.87C109.138 190.64 101.821 189.634 94.6699 187.87L98.3299 188.11Z" fill="black"/>
<path opacity="0.03" d="M82.7802 223.24C96.7333 221.077 110.54 218.054 124.12 214.19L124.86 215.55C124.86 215.55 107.23 223.32 78.1602 225L82.7802 223.24Z" fill="black"/>
<path opacity="0.03" d="M135.59 230.69C125.657 235.844 116.29 242.02 107.64 249.12L102.17 252.38C102.17 252.38 113.06 242.38 134.1 229.01L135.59 230.69Z" fill="black"/>
<path opacity="0.03" d="M118.77 287.68C118.77 287.68 148.77 251.6 152.24 244.04L154.67 245.31C154.67 245.31 130.59 277.74 116.49 291.9L118.77 287.68Z" fill="black"/>
<path opacity="0.03" d="M172.33 250.14C172.33 250.14 145.45 297.27 140.71 333.77C139.1 336.63 138.71 337.32 138.71 337.32C138.71 337.32 143.71 296.23 170.64 250L172.33 250.14Z" fill="black"/>
<path opacity="0.03" d="M168.08 351.84C168.08 351.84 192.57 311.22 192.74 248.93L193.74 248.8C193.74 248.8 195.5 304.24 168.45 353.02C168.294 352.638 168.17 352.243 168.08 351.84Z" fill="black"/>
<path opacity="0.03" d="M202.58 346.41C202.58 346.41 190 312.16 190.43 287.64L189.82 291.11C189.82 291.11 188.7 305.42 202.27 348.05L202.58 346.41Z" fill="black"/>
<path opacity="0.03" d="M221.23 241.51C221.23 241.51 226.63 262.3 231.32 291.9L232.02 293.35C229.722 275.757 226.427 258.309 222.15 241.09L221.23 241.51Z" fill="black"/>
<path opacity="0.03" d="M264.07 275.46C264.07 275.46 238.9 251.13 230.71 236.34L229.71 236.99C229.71 236.99 237.96 251.32 267.62 280.86L264.07 275.46Z" fill="black"/>
<path opacity="0.03" d="M245.931 221.39C245.931 221.39 301.521 251.39 321.831 275.48C323.721 275.98 307.931 255.25 246.831 220.1L245.931 221.39Z" fill="black"/>
<path opacity="0.03" d="M308.64 226.06C290.276 218.669 272.481 209.935 255.4 199.93L255 201.37C273.27 211.905 292.406 220.861 312.2 228.14L308.64 226.06Z" fill="black"/>
<path opacity="0.03" d="M259.2 178.71C259.2 178.71 322.36 184.05 352.73 201.39L355.1 201.11C355.1 201.11 323.55 183.88 259.32 177L259.2 178.71Z" fill="black"/>
<path opacity="0.03" d="M260.83 107.74C255.285 116.074 248.219 123.286 240 129C241.21 130 240.73 129.59 240.73 129.59C240.73 129.59 255.66 118.12 263.88 105.76L260.83 107.74Z" fill="black"/>
<path opacity="0.03" d="M290.671 127.24C290.671 127.24 266.871 133.38 252.311 143.34L252.761 144.13C252.761 144.13 271.711 132.89 285.941 129.2L290.671 127.24Z" fill="black"/>
<path opacity="0.03" d="M258.83 163.09C258.83 163.09 279.31 164.38 328.62 159.45L331.43 159.61C331.43 159.61 311.43 163.87 259.05 164.9L258.83 163.09Z" fill="black"/>
<path d="M275.44 746.62L257.24 747.13C217 748.2 119.18 750.57 60.6603 750C32.4403 749.72 13.3603 748.77 14.2203 746.64C17.3803 738.85 34.0103 741.24 39.5503 732.87C45.0903 724.5 79.5503 706.52 80.3203 699.33C81.0903 692.14 119.1 695.74 125.59 691.13C130.18 687.86 136.14 695.43 142.36 697C143.739 697.387 145.199 697.376 146.572 696.969C147.945 696.562 149.175 695.775 150.12 694.7C153.9 690.92 159.58 690.7 165.06 691.54C172.41 692.64 179.44 695.72 181.25 694.91C184.41 693.49 201.04 699.91 206.19 695.74C211.34 691.57 213.7 704.74 225.58 702.93C237.46 701.12 265.58 739.45 265.58 739.45L275.44 746.62Z" fill="#4F2F2F"/>
<path d="M275.44 746.62L257.24 747.13C247.03 737.42 213.96 707.3 201.24 712.13C186.09 717.92 177.47 704.55 170.9 706.57C164.33 708.59 148.17 697.06 145.08 697.79C144.592 697.877 144.09 697.845 143.617 697.697C143.143 697.549 142.712 697.29 142.36 696.94C143.739 697.327 145.199 697.316 146.572 696.909C147.945 696.502 149.175 695.716 150.12 694.64C153.9 690.86 159.58 690.64 165.06 691.48C172.41 692.58 179.44 695.66 181.25 694.85C184.41 693.43 201.04 699.85 206.19 695.68C211.34 691.51 213.7 704.68 225.58 702.87C237.46 701.06 265.58 739.39 265.58 739.39L275.44 746.62Z" fill="#593636"/>
<path d="M273.67 701.48C276.92 713.93 277.1 734.84 269.08 745.48C272.21 730.95 271.22 716.18 273.67 701.48Z" fill="#51A585"/>
<path d="M267.601 691.8C270.861 706.29 272.401 732.7 266.781 746.43C267.151 728.19 265.391 710 267.601 691.8Z" fill="#51A585"/>
<path d="M264.161 745.44C260.561 733.91 258.811 715.08 262.841 703.61C264.291 717.35 265.911 731.68 264.161 745.44Z" fill="#51A585"/>
<path d="M260.55 743C255.33 729.94 252.78 711.79 256.28 698.06C258.39 713.06 260.61 727.84 260.55 743Z" fill="#5DAF8C"/>
<path d="M259.24 745.44C248.44 739.69 242 725.22 246.77 713.62C247.195 717.233 247.887 720.809 248.84 724.32C250.99 731.99 254.92 738.69 259.24 745.44Z" fill="#51A585"/>
<path d="M186 643.26C189.5 658.12 189.66 684.11 179.53 696.35C182.53 687.82 183.06 679.02 183.87 670.13C184.48 662.13 185.08 651.13 186 643.26Z" fill="#4D997A"/>
<path d="M177.411 631.58C180.911 648.58 183.021 681.65 176.261 697.53C177.361 688.05 176.621 674.3 176.641 664.65C176.571 653.65 176.521 642.65 177.411 631.58Z" fill="#4D997A"/>
<path d="M172.56 696.35C168.61 682.78 166.14 659.26 170.71 645.84C171.63 662.65 173.91 679.47 172.56 696.35Z" fill="#4D997A"/>
<path d="M167.48 693.37C161.26 677.7 157.66 655.66 161.48 639.11C163.29 656.75 166.48 675.7 167.48 693.37Z" fill="#4D997A"/>
<path d="M165.63 696.35C152.17 689.77 142.34 672.62 148.08 657.92C148.42 672.99 156.08 685.22 165.63 696.35Z" fill="#4D997A"/>
<path d="M147.771 701.48C151.021 713.93 151.201 734.84 143.181 745.48C146.311 730.95 145.321 716.18 147.771 701.48Z" fill="#4D997A"/>
<path d="M141.7 691.8C144.96 706.29 146.49 732.7 140.88 746.43C141.25 728.19 139.49 710 141.7 691.8Z" fill="#4D997A"/>
<path d="M138.26 745.44C134.66 733.91 132.91 715.08 136.94 703.61C138.39 717.35 140.01 731.68 138.26 745.44Z" fill="#4D997A"/>
<path d="M134.65 743C129.43 729.94 126.88 711.79 130.38 698.06C132.49 713.06 134.7 727.84 134.65 743Z" fill="#4D997A"/>
<path d="M133.33 745.44C122.54 739.69 116.1 725.22 120.87 713.62C121.295 717.233 121.987 720.809 122.94 724.32C125.09 731.99 129.02 738.69 133.33 745.44Z" fill="#4D997A"/>
<path d="M51.9103 681.43C55.1603 693.88 55.3503 714.79 47.3203 725.43C50.4503 710.9 49.4603 696.13 51.9103 681.43Z" fill="#4D997A"/>
<path d="M45.84 671.76C49.1 686.24 50.64 712.65 45.02 726.38C45.39 708.14 43.63 689.95 45.84 671.76Z" fill="#4D997A"/>
<path d="M43.3 725.39C39.7 713.86 38 695 42 683.57C43.44 697.3 45.07 711.63 43.31 725.39H43.3Z" fill="#4D997A"/>
<path d="M41.4908 734.13C36.2808 721.06 33.7308 702.92 37.2308 689.19C39.3408 704.19 41.5508 718.97 41.4908 734.13Z" fill="#4D997A"/>
<path d="M40.7709 736.09C30.0009 730.34 23.5408 715.87 28.3008 704.27C28.734 707.891 29.4258 711.477 30.3709 715C32.5209 722.67 36.4609 729.38 40.7709 736.12V736.09Z" fill="#4D997A"/>
<path d="M251.85 666.29C252.41 681.29 248.76 701.17 239.59 713.29C238.83 714.12 238.07 714.93 237.28 715.68C237.72 714.68 238.18 713.68 238.64 712.68C244.33 697.91 246.93 681.32 251.85 666.26V666.29Z" fill="#4D997A"/>
<path d="M246.94 653.92C247.21 670.92 243.28 701.92 234.44 716.32C235.84 711.16 236.61 705.97 237.52 700.73C240.18 685.03 242.62 669.3 246.94 653.92Z" fill="#51A585"/>
<path d="M231.64 714.63C230.39 700.85 232.42 678.63 238.99 666.44C237.26 682.66 236.18 698.88 231.64 714.63Z" fill="#51A585"/>
<path d="M228 711.05C225.24 694.99 226.16 673.72 232.63 658.66C231.41 676.23 230.83 693.66 228 711.05Z" fill="#51A585"/>
<path d="M226 713.59C215.24 704.4 211 686.94 218.45 674.5C218.022 678.72 217.961 682.969 218.27 687.2C219.01 696.47 222.18 705.08 226 713.59Z" fill="#51A585"/>
<path d="M133.931 656.62C137.931 670.93 138.551 685.72 143.231 699.83C134.111 690.16 132.031 669.36 133.931 656.62Z" fill="#4D997A"/>
<path d="M138.92 646.35C143.08 664.2 143.29 682.47 145.62 700.56C138.56 687.56 137.24 661.13 138.92 646.35Z" fill="#4D997A"/>
<path d="M148.12 699.3C144.89 685.81 144.96 671.38 144.92 657.58C150.16 668.53 150.46 687.44 148.12 699.3Z" fill="#5DAF8C"/>
<path d="M151.451 696.47C149.751 681.39 150.361 666.47 150.841 651.32C155.841 664.6 155.231 682.91 151.451 696.47Z" fill="#5DAF8C"/>
<path d="M153 698.77C156.56 691.6 159.75 684.5 161 676.65C161.572 673.058 161.876 669.428 161.91 665.79C167.91 676.79 163.06 691.89 152.91 698.79L153 698.77Z" fill="#4D997A"/>
<path d="M184.8 671.82C188.8 686.13 189.43 700.91 194.11 715.03C184.99 705.36 182.91 684.56 184.8 671.82Z" fill="#4D997A"/>
<path d="M189.791 661.54C193.961 679.39 194.161 697.67 196.501 715.76C189.441 702.76 188.111 676.32 189.791 661.54Z" fill="#4D997A"/>
<path d="M199.001 714.5C195.771 701.01 195.841 686.57 195.801 672.77C201.041 683.77 201.341 702.64 199.001 714.5Z" fill="#4D997A"/>
<path d="M202.321 711.66C200.631 696.59 201.241 681.66 201.721 666.52C206.721 679.79 206.101 698.11 202.321 711.66Z" fill="#5DAF8C"/>
<path d="M203.89 714C207.45 706.83 210.64 699.73 211.95 691.88C212.517 688.287 212.821 684.657 212.86 681.02C218.86 692.02 214 707.11 203.86 714.02L203.89 714Z" fill="#4D997A"/>
<path d="M40.8404 703.35C44.8404 717.66 45.4704 732.45 50.1504 746.56C41.0004 736.89 39.0004 716.09 40.8404 703.35Z" fill="#4D997A"/>
<path d="M45.8299 693.08C49.9999 710.93 50.2099 729.2 52.5399 747.29C45.4799 734.29 44.1499 707.86 45.8299 693.08Z" fill="#4D997A"/>
<path d="M55.0008 746C51.7708 732.51 51.8408 718.07 51.8008 704.27C57.0408 715.27 57.3408 734.14 55.0008 746Z" fill="#4D997A"/>
<path d="M58.3608 743.2C56.6708 728.12 57.2808 713.2 57.7608 698.05C62.7608 711.32 62.1408 729.64 58.3608 743.2Z" fill="#4D997A"/>
<path d="M59.9304 745.5C63.4904 738.33 66.6804 731.23 67.9904 723.38C68.557 719.787 68.8611 716.157 68.9004 712.52C74.9004 723.52 70.0404 738.62 59.9004 745.52L59.9304 745.5Z" fill="#4D997A"/>
<path d="M124.381 675C128.381 689.31 129.011 704.1 133.681 718.21C124.571 708.54 122.491 687.74 124.381 675Z" fill="#4D997A"/>
<path d="M129.37 664.7C133.53 682.55 133.74 700.82 136.07 718.91C129.07 705.91 127.69 679.48 129.37 664.7Z" fill="#4D997A"/>
<path d="M138.58 717.65C135.35 704.16 135.42 689.72 135.37 675.92C140.61 686.92 140.91 705.79 138.58 717.65Z" fill="#4D997A"/>
<path d="M141.9 714.82C140.21 699.74 140.82 684.82 141.29 669.67C146.29 682.94 145.68 701.26 141.9 714.82Z" fill="#4D997A"/>
<path d="M143.471 717.12C147.031 709.95 150.221 702.85 151.531 695C152.094 691.407 152.395 687.777 152.431 684.14C158.431 695.14 153.581 710.24 143.431 717.14L143.471 717.12Z" fill="#4D997A"/>
<path d="M228.771 638.67C230.271 655.92 227.771 679.38 218.771 694.37C218.011 695.37 217.231 696.45 216.431 697.43C216.861 696.21 217.321 695.04 217.781 693.88C223.211 676.24 224.781 656.68 228.781 638.67H228.771Z" fill="#4D997A"/>
<path d="M222.331 624.75C223.671 644.3 221.671 681.01 213.271 698.43C215.561 686.26 216.061 673.91 217.471 661.63C218.881 649.35 220.051 636.98 222.331 624.75Z" fill="#4D997A"/>
<path d="M210.001 696.74C208.78 687.268 208.502 677.697 209.171 668.17C209.901 658.67 210.721 648.94 214.431 640.04C213.431 659.04 213.501 677.98 210.001 696.74Z" fill="#4D997A"/>
<path d="M205.711 692.9C201.711 674.42 201.061 649.69 206.771 631.58C206.531 649.71 207.101 675.05 205.711 692.9Z" fill="#4D997A"/>
<path d="M203.65 696.05C191.02 685.74 185.27 666.39 192.17 651.3C192.1 656.41 191.96 661.13 192.75 666.02C194.2 676.71 198.41 686.59 203.65 696.02V696.05Z" fill="#4D997A"/>
<path d="M246.431 722.75C247.951 714 249.911 702.02 251.291 693.25C251.891 689.92 252.371 686.62 253.291 683.31C254.728 690.011 254.874 696.924 253.721 703.68C252.541 710.39 250.591 717.19 246.471 722.75H246.431Z" fill="#51A585"/>
<path d="M234.271 720.89C222.921 713.18 220.751 695.43 225.381 683.31C225.651 685.02 225.731 686.68 225.861 688.31C226.861 699.6 228.451 710.9 234.271 720.87V720.89Z" fill="#51A585"/>
<path d="M242.28 722.75C241.83 711.75 245.02 701.22 246.43 690.43C250.66 699.03 246.92 714.71 242.28 722.75Z" fill="#51A585"/>
<path d="M238.72 720.89C237.151 714.378 236.392 707.698 236.46 701C236.46 694.3 236.89 687.6 238.72 681.09C239.939 687.655 240.522 694.323 240.46 701C240.585 707.679 240.002 714.353 238.72 720.91V720.89Z" fill="#4D997A"/>
<path d="M236.05 722.75C229.97 713.52 226.39 699.32 229.5 688.54C232.07 700 235 711 236.05 722.75Z" fill="#51A585"/>
<path d="M195.62 722.56C197.15 713.81 199.11 701.83 200.49 693.06C201.08 689.74 201.57 686.43 202.44 683.12C203.887 689.823 204.033 696.742 202.87 703.5C201.7 710.21 199.75 717.01 195.62 722.56Z" fill="#4D997A"/>
<path d="M183.47 720.71C172.11 712.99 169.95 695.25 174.57 683.12C174.85 684.84 174.93 686.5 175.06 688.12C176.06 699.41 177.65 710.7 183.47 720.68V720.71Z" fill="#4D997A"/>
<path d="M191.471 722.56C191.021 711.56 194.211 701.03 195.621 690.24C199.861 698.84 196.111 714.52 191.471 722.56Z" fill="#4D997A"/>
<path d="M187.911 720.71C186.346 714.194 185.59 707.51 185.661 700.81C185.661 694.11 186.081 687.42 187.911 680.9C189.131 687.462 189.717 694.126 189.661 700.8C189.782 707.48 189.196 714.154 187.911 720.71Z" fill="#4D997A"/>
<path d="M185.25 722.56C179.17 713.34 175.59 699.14 178.7 688.35C181.26 699.8 184.23 710.84 185.25 722.56Z" fill="#4D997A"/>
<path d="M122.761 699.48C125.611 685.79 127.641 671.01 129.761 657.18C130.101 655.18 130.371 653.1 130.861 651.04C133.611 666.47 131.281 686.09 122.791 699.48H122.761Z" fill="#4D997A"/>
<path d="M108.37 697.21C95.2602 687.18 93.0002 665.89 97.8402 651C98.1802 654 98.1802 657.19 98.4702 660.15C99.3202 672.94 101.59 686.07 108.37 697.15V697.21Z" fill="#4D997A"/>
<path d="M117.841 699.48C117.921 689.38 119.841 679.57 121.481 669.67C122.102 666.401 122.53 663.099 122.761 659.78C127.281 670.28 122.851 689.5 117.841 699.48Z" fill="#4D997A"/>
<path d="M113.63 697.21C112.032 689.16 111.261 680.967 111.33 672.76C111.33 664.56 111.75 656.35 113.63 648.31C114.805 656.403 115.373 664.572 115.33 672.75C115.459 680.937 114.89 689.12 113.63 697.21Z" fill="#4D997A"/>
<path d="M110.47 699.48C103.74 687.88 99.5501 670.68 102.73 657.48C105.16 671.16 108.87 685.71 110.47 699.48Z" fill="#4D997A"/>
<path d="M71.3803 727.89C74.1703 714.89 76.1803 700.77 78.2703 687.59C78.6103 685.65 78.8804 683.7 79.3604 681.74C82.1204 696.45 79.7804 715.28 71.3604 727.89H71.3803Z" fill="#4D997A"/>
<path d="M57.1499 725.73C44.2499 716.38 41.8399 696 46.7399 681.73C47.0799 684.59 47.0899 687.64 47.3699 690.48C48.2299 702.75 50.5299 715.1 57.1499 725.72V725.73Z" fill="#4D997A"/>
<path d="M66.5205 727.89C66.5805 718.25 68.4505 708.89 70.1005 699.49C70.7216 696.379 71.1491 693.233 71.3805 690.07C75.8905 700.07 71.4905 718.44 66.5205 727.89Z" fill="#5DAF8C"/>
<path d="M62.3599 725.73C60.7621 718.071 59.991 710.263 60.0599 702.44C60.0599 694.62 60.4799 686.79 62.3599 679.14C63.5345 686.844 64.1029 694.628 64.0599 702.42C64.1882 710.225 63.6193 718.026 62.3599 725.73Z" fill="#4D997A"/>
<path d="M59.2303 727.89C52.5603 716.89 48.4003 700.49 51.5703 687.89C54.0103 700.89 57.6903 714.76 59.2303 727.89Z" fill="#4D997A"/>
<path d="M157.701 730.31C153.581 724.76 151.631 717.96 150.451 711.25C149.636 706.188 149.485 701.041 150.001 695.94C150.901 689.8 150.791 689.68 152.001 695.87C153.891 706.54 155.831 719.63 157.741 730.31H157.701Z" fill="#4D997A"/>
<path d="M169.86 728.46C175.68 718.46 177.31 707.19 178.27 695.9C178.4 694.25 178.48 692.59 178.76 690.9C183.38 703.01 181.22 720.76 169.86 728.48V728.46Z" fill="#4D997A"/>
<path d="M161.85 730.31C157.22 722.31 153.47 706.63 157.7 697.99C159.11 708.78 162.3 719.29 161.85 730.31Z" fill="#4D997A"/>
<path d="M165.411 728.46C164.134 721.903 163.551 715.229 163.671 708.55C163.616 701.876 164.199 695.213 165.411 688.65C167.251 695.17 167.641 701.86 167.671 708.56C167.739 715.261 166.98 721.945 165.411 728.46Z" fill="#4D997A"/>
<path d="M168.08 730.31C169.08 718.59 172.08 707.56 174.63 696.1C177.74 706.89 174.16 721.1 168.08 730.31Z" fill="#4D997A"/>
<path d="M79.8602 738.48C75.7302 732.93 73.7802 726.13 72.6102 719.42C71.7908 714.358 71.6396 709.211 72.1602 704.11C73.0602 697.97 72.9402 697.85 74.1602 704.04C76.0502 714.71 77.9802 727.8 79.9002 738.48H79.8602Z" fill="#4D997A"/>
<path d="M92 736.63C97.82 726.63 99.45 715.35 100.4 704.07C100.54 702.42 100.61 700.76 100.89 699.07C105.51 711.19 103.35 728.94 92 736.66V736.63Z" fill="#4D997A"/>
<path d="M84.0004 738.48C79.3604 730.43 75.6104 714.8 79.8504 706.16C81.2604 716.95 84.4504 727.46 84.0004 738.48Z" fill="#4D997A"/>
<path d="M87.5703 736.63C86.2855 730.074 85.6989 723.4 85.8203 716.72C85.7691 710.046 86.3551 703.382 87.5703 696.82C89.4003 703.34 89.8003 710.03 89.8203 716.73C89.8964 723.431 89.1406 730.115 87.5703 736.63Z" fill="#5DAF8C"/>
<path d="M90.2402 738.48C91.2402 726.76 94.2402 715.72 96.7802 704.27C99.8902 715.05 96.3202 729.27 90.2402 738.48Z" fill="#4D997A"/>
<path d="M105.88 724.16C101.76 718.61 99.8103 711.81 98.6303 705.1C97.8157 700.038 97.6644 694.891 98.1803 689.79C99.0803 683.65 98.9703 683.53 100.18 689.72C102.07 700.38 104.01 713.47 105.92 724.16H105.88Z" fill="#4D997A"/>
<path d="M118 722.31C123.82 712.31 125.45 701.03 126.41 689.75C126.54 688.1 126.62 686.44 126.9 684.75C131.52 696.87 129.36 714.62 118 722.34V722.31Z" fill="#4D997A"/>
<path d="M110.001 724.16C105.371 716.16 101.621 700.48 105.851 691.84C107.261 702.63 110.451 713.14 110.001 724.16Z" fill="#4D997A"/>
<path d="M113.59 722.31C112.314 715.753 111.73 709.079 111.85 702.4C111.796 695.726 112.378 689.063 113.59 682.5C115.43 689.02 115.82 695.71 115.85 702.41C115.918 709.111 115.159 715.795 113.59 722.31Z" fill="#4D997A"/>
<path d="M116.261 724.16C117.261 712.44 120.261 701.4 122.811 689.95C125.921 700.73 122.341 714.95 116.261 724.16Z" fill="#4D997A"/>
<path d="M80.7999 709.81C75.8799 704.95 72.9199 698.53 70.7299 692.08C69.1682 687.193 68.2504 682.124 67.9999 677C67.9999 670.79 67.8199 670.69 69.9299 676.63C73.4199 686.88 77.3299 699.52 80.8499 709.79L80.7999 709.81Z" fill="#4D997A"/>
<path d="M92.5303 706.13C96.7703 695.38 96.6603 683.97 95.8803 672.67C95.7603 671.02 95.5903 669.36 95.6003 667.67C102.02 678.98 102.6 696.77 92.5303 706.17V706.13Z" fill="#4D997A"/>
<path d="M84.9003 709.18C79.1003 702 73.0003 687 75.8803 677.87C78.8803 688.32 83.6703 698.22 84.8803 709.18H84.9003Z" fill="#4D997A"/>
<path d="M88.1408 706.81C85.8776 700.521 84.2822 694.012 83.3808 687.39C82.3086 680.804 81.8699 674.13 82.0708 667.46C84.8808 673.63 86.2908 680.18 87.3408 686.8C88.4263 693.409 88.6949 700.126 88.1408 706.8V706.81Z" fill="#4D997A"/>
<path d="M91.0602 708.23C90.2702 696.49 91.5302 685.13 92.3202 673.42C97.0402 683.64 95.6702 698.15 91.0602 708.23Z" fill="#4D997A"/>
<path d="M177.45 708C178.97 699.25 180.94 687.28 182.32 678.51C182.91 675.18 183.4 671.87 184.32 668.57C185.762 675.27 185.908 682.185 184.75 688.94C183.58 695.65 181.63 702.45 177.5 708H177.45Z" fill="#4D997A"/>
<path d="M165.29 706.11C153.94 698.39 151.77 680.65 156.4 668.53C156.68 670.24 156.75 671.9 156.89 673.53C157.89 684.82 159.47 696.11 165.29 706.09V706.11Z" fill="#4D997A"/>
<path d="M173.3 708C172.85 697 176.04 686.47 177.45 675.68C181.69 684.29 177.94 699.97 173.3 708Z" fill="#4D997A"/>
<path d="M169.741 706.11C168.169 699.595 167.414 692.911 167.491 686.21C167.491 679.51 167.911 672.82 169.741 666.3C170.958 672.862 171.54 679.526 171.481 686.2C171.606 692.879 171.023 699.553 169.741 706.11Z" fill="#4D997A"/>
<path d="M167.07 708C160.99 698.78 157.41 684.58 160.53 673.79C163.09 685.25 166.06 696.28 167.07 708Z" fill="#4D997A"/>
<path d="M174 176C171.77 170.4 164.05 169.37 159.42 172.31C157.978 173.301 156.811 174.643 156.03 176.21C155.943 176.385 155.82 176.541 155.669 176.665C155.518 176.79 155.342 176.881 155.154 176.933C154.965 176.985 154.767 176.996 154.573 176.966C154.38 176.937 154.195 176.866 154.03 176.76C152.59 175.67 153.88 173.15 154.68 171.99C155.808 170.468 157.295 169.25 159.009 168.444C160.722 167.638 162.609 167.269 164.5 167.37C169.25 167.49 174.14 171.02 174.69 175.83C174.696 175.92 174.67 176.008 174.616 176.081C174.562 176.153 174.485 176.203 174.397 176.224C174.31 176.244 174.218 176.233 174.138 176.192C174.058 176.151 173.995 176.083 173.96 176H174Z" fill="#302826"/>
<path d="M168.081 183.54C171.82 183.54 174.851 180.509 174.851 176.77C174.851 173.031 171.82 170 168.081 170C164.342 170 161.311 173.031 161.311 176.77C161.311 180.509 164.342 183.54 168.081 183.54Z" fill="#302826"/>
<path d="M163.191 175.16C164.229 175.16 165.071 174.318 165.071 173.28C165.071 172.242 164.229 171.4 163.191 171.4C162.152 171.4 161.311 172.242 161.311 173.28C161.311 174.318 162.152 175.16 163.191 175.16Z" fill="#EFEFEF"/>
<path d="M165.49 177.06C165.882 177.06 166.2 176.742 166.2 176.35C166.2 175.958 165.882 175.64 165.49 175.64C165.098 175.64 164.78 175.958 164.78 176.35C164.78 176.742 165.098 177.06 165.49 177.06Z" fill="#EFEFEF"/>
<path d="M213.54 175.8C214.09 170.99 218.98 167.46 223.73 167.34C228.52 167.06 234.51 170.34 234.83 175.59C234.828 175.896 234.722 176.192 234.53 176.431C234.339 176.67 234.072 176.836 233.773 176.905C233.475 176.973 233.162 176.939 232.886 176.807C232.609 176.675 232.386 176.454 232.25 176.18C229.13 169.18 217.35 168.59 214.25 175.97C214.216 176.053 214.153 176.121 214.073 176.162C213.993 176.203 213.901 176.214 213.813 176.194C213.726 176.173 213.648 176.123 213.595 176.05C213.541 175.978 213.515 175.89 213.52 175.8H213.54Z" fill="#302826"/>
<path d="M220.201 183.54C223.94 183.54 226.971 180.509 226.971 176.77C226.971 173.031 223.94 170 220.201 170C216.462 170 213.431 173.031 213.431 176.77C213.431 180.509 216.462 183.54 220.201 183.54Z" fill="#302826"/>
<path d="M225.09 175.16C226.128 175.16 226.97 174.318 226.97 173.28C226.97 172.242 226.128 171.4 225.09 171.4C224.052 171.4 223.21 172.242 223.21 173.28C223.21 174.318 224.052 175.16 225.09 175.16Z" fill="#EFEFEF"/>
<path d="M222.801 177.06C223.193 177.06 223.511 176.742 223.511 176.35C223.511 175.958 223.193 175.64 222.801 175.64C222.409 175.64 222.091 175.958 222.091 176.35C222.091 176.742 222.409 177.06 222.801 177.06Z" fill="#EFEFEF"/>
<defs>
<linearGradient id="paint0_linear_126_3548" x1="213.251" y1="-3.51006" x2="195.891" y2="117.01" gradientUnits="userSpaceOnUse">
<stop stop-color="#CC275A"/>
<stop offset="0.02" stop-color="#CF3968"/>
<stop offset="0.06" stop-color="#D76287"/>
<stop offset="0.11" stop-color="#DE88A4"/>
<stop offset="0.17" stop-color="#E5A8BD"/>
<stop offset="0.23" stop-color="#EAC4D2"/>
<stop offset="0.3" stop-color="#EEDAE2"/>
<stop offset="0.38" stop-color="#F1EBEF"/>
<stop offset="0.48" stop-color="#F3F6F8"/>
<stop offset="0.61" stop-color="#F5FDFE"/>
<stop offset="1" stop-color="#F5FFFF"/>
</linearGradient>
<linearGradient id="paint1_linear_126_3548" x1="308.241" y1="18.0999" x2="222.961" y2="129.93" gradientUnits="userSpaceOnUse">
<stop stop-color="#CC275A"/>
<stop offset="0.02" stop-color="#CF3968"/>
<stop offset="0.06" stop-color="#D76287"/>
<stop offset="0.11" stop-color="#DE88A4"/>
<stop offset="0.17" stop-color="#E5A8BD"/>
<stop offset="0.23" stop-color="#EAC4D2"/>
<stop offset="0.3" stop-color="#EEDAE2"/>
<stop offset="0.38" stop-color="#F1EBEF"/>
<stop offset="0.48" stop-color="#F3F6F8"/>
<stop offset="0.61" stop-color="#F5FDFE"/>
<stop offset="1" stop-color="#F5FFFF"/>
</linearGradient>
<linearGradient id="paint2_linear_126_3548" x1="256.46" y1="-8.17017" x2="212.03" y2="128.17" gradientUnits="userSpaceOnUse">
<stop stop-color="#CC275A"/>
<stop offset="0.02" stop-color="#CF3968"/>
<stop offset="0.06" stop-color="#D76287"/>
<stop offset="0.11" stop-color="#DE88A4"/>
<stop offset="0.17" stop-color="#E5A8BD"/>
<stop offset="0.23" stop-color="#EAC4D2"/>
<stop offset="0.3" stop-color="#EEDAE2"/>
<stop offset="0.38" stop-color="#F1EBEF"/>
<stop offset="0.48" stop-color="#F3F6F8"/>
<stop offset="0.61" stop-color="#F5FDFE"/>
<stop offset="1" stop-color="#F5FFFF"/>
</linearGradient>
<linearGradient id="paint3_linear_126_3548" x1="339.33" y1="83.3699" x2="251.5" y2="129.33" gradientUnits="userSpaceOnUse">
<stop stop-color="#CC275A"/>
<stop offset="0.02" stop-color="#CF3968"/>
<stop offset="0.06" stop-color="#D76287"/>
<stop offset="0.11" stop-color="#DE88A4"/>
<stop offset="0.17" stop-color="#E5A8BD"/>
<stop offset="0.23" stop-color="#EAC4D2"/>
<stop offset="0.3" stop-color="#EEDAE2"/>
<stop offset="0.38" stop-color="#F1EBEF"/>
<stop offset="0.48" stop-color="#F3F6F8"/>
<stop offset="0.61" stop-color="#F5FDFE"/>
<stop offset="1" stop-color="#F5FFFF"/>
</linearGradient>
<linearGradient id="paint4_linear_126_3548" x1="383.62" y1="133.85" x2="230.42" y2="152.24" gradientUnits="userSpaceOnUse">
<stop stop-color="#CC275A"/>
<stop offset="0.02" stop-color="#CF3968"/>
<stop offset="0.06" stop-color="#D76287"/>
<stop offset="0.11" stop-color="#DE88A4"/>
<stop offset="0.17" stop-color="#E5A8BD"/>
<stop offset="0.23" stop-color="#EAC4D2"/>
<stop offset="0.3" stop-color="#EEDAE2"/>
<stop offset="0.38" stop-color="#F1EBEF"/>
<stop offset="0.48" stop-color="#F3F6F8"/>
<stop offset="0.61" stop-color="#F5FDFE"/>
<stop offset="1" stop-color="#F5FFFF"/>
</linearGradient>
<linearGradient id="paint5_linear_126_3548" x1="374.23" y1="228.9" x2="247.591" y2="183.45" gradientUnits="userSpaceOnUse">
<stop stop-color="#CC275A"/>
<stop offset="0.02" stop-color="#CF3968"/>
<stop offset="0.06" stop-color="#D76287"/>
<stop offset="0.11" stop-color="#DE88A4"/>
<stop offset="0.17" stop-color="#E5A8BD"/>
<stop offset="0.23" stop-color="#EAC4D2"/>
<stop offset="0.3" stop-color="#EEDAE2"/>
<stop offset="0.38" stop-color="#F1EBEF"/>
<stop offset="0.48" stop-color="#F3F6F8"/>
<stop offset="0.61" stop-color="#F5FDFE"/>
<stop offset="1" stop-color="#F5FFFF"/>
</linearGradient>
<linearGradient id="paint6_linear_126_3548" x1="407.95" y1="187.15" x2="234.33" y2="172.34" gradientUnits="userSpaceOnUse">
<stop stop-color="#CC275A"/>
<stop offset="0.02" stop-color="#CF3968"/>
<stop offset="0.06" stop-color="#D76287"/>
<stop offset="0.11" stop-color="#DE88A4"/>
<stop offset="0.17" stop-color="#E5A8BD"/>
<stop offset="0.23" stop-color="#EAC4D2"/>
<stop offset="0.3" stop-color="#EEDAE2"/>
<stop offset="0.38" stop-color="#F1EBEF"/>
<stop offset="0.48" stop-color="#F3F6F8"/>
<stop offset="0.61" stop-color="#F5FDFE"/>
<stop offset="1" stop-color="#F5FFFF"/>
</linearGradient>
<linearGradient id="paint7_linear_126_3548" x1="358.05" y1="277.96" x2="247.24" y2="211.58" gradientUnits="userSpaceOnUse">
<stop stop-color="#CC275A"/>
<stop offset="0.02" stop-color="#CF3968"/>
<stop offset="0.06" stop-color="#D76287"/>
<stop offset="0.11" stop-color="#DE88A4"/>
<stop offset="0.17" stop-color="#E5A8BD"/>
<stop offset="0.23" stop-color="#EAC4D2"/>
<stop offset="0.3" stop-color="#EEDAE2"/>
<stop offset="0.38" stop-color="#F1EBEF"/>
<stop offset="0.48" stop-color="#F3F6F8"/>
<stop offset="0.61" stop-color="#F5FDFE"/>
<stop offset="1" stop-color="#F5FFFF"/>
</linearGradient>
<linearGradient id="paint8_linear_126_3548" x1="285.59" y1="350.22" x2="222.27" y2="238.39" gradientUnits="userSpaceOnUse">
<stop stop-color="#CC275A"/>
<stop offset="0.02" stop-color="#CF3968"/>
<stop offset="0.06" stop-color="#D76287"/>
<stop offset="0.11" stop-color="#DE88A4"/>
<stop offset="0.17" stop-color="#E5A8BD"/>
<stop offset="0.23" stop-color="#EAC4D2"/>
<stop offset="0.3" stop-color="#EEDAE2"/>
<stop offset="0.38" stop-color="#F1EBEF"/>
<stop offset="0.48" stop-color="#F3F6F8"/>
<stop offset="0.61" stop-color="#F5FDFE"/>
<stop offset="1" stop-color="#F5FFFF"/>
</linearGradient>
<linearGradient id="paint9_linear_126_3548" x1="336.971" y1="312.76" x2="239.441" y2="229.01" gradientUnits="userSpaceOnUse">
<stop stop-color="#CC275A"/>
<stop offset="0.02" stop-color="#CF3968"/>
<stop offset="0.06" stop-color="#D76287"/>
<stop offset="0.11" stop-color="#DE88A4"/>
<stop offset="0.17" stop-color="#E5A8BD"/>
<stop offset="0.23" stop-color="#EAC4D2"/>
<stop offset="0.3" stop-color="#EEDAE2"/>
<stop offset="0.38" stop-color="#F1EBEF"/>
<stop offset="0.48" stop-color="#F3F6F8"/>
<stop offset="0.61" stop-color="#F5FDFE"/>
<stop offset="1" stop-color="#F5FFFF"/>
</linearGradient>
<linearGradient id="paint10_linear_126_3548" x1="219.78" y1="371.25" x2="208.55" y2="245.64" gradientUnits="userSpaceOnUse">
<stop stop-color="#CC275A"/>
<stop offset="0.02" stop-color="#CF3968"/>
<stop offset="0.06" stop-color="#D76287"/>
<stop offset="0.11" stop-color="#DE88A4"/>
<stop offset="0.17" stop-color="#E5A8BD"/>
<stop offset="0.23" stop-color="#EAC4D2"/>
<stop offset="0.3" stop-color="#EEDAE2"/>
<stop offset="0.38" stop-color="#F1EBEF"/>
<stop offset="0.48" stop-color="#F3F6F8"/>
<stop offset="0.61" stop-color="#F5FDFE"/>
<stop offset="1" stop-color="#F5FFFF"/>
</linearGradient>
<linearGradient id="paint11_linear_126_3548" x1="182.01" y1="381.68" x2="187.63" y2="244.83" gradientUnits="userSpaceOnUse">
<stop stop-color="#CC275A"/>
<stop offset="0.02" stop-color="#CF3968"/>
<stop offset="0.06" stop-color="#D76287"/>
<stop offset="0.11" stop-color="#DE88A4"/>
<stop offset="0.17" stop-color="#E5A8BD"/>
<stop offset="0.23" stop-color="#EAC4D2"/>
<stop offset="0.3" stop-color="#EEDAE2"/>
<stop offset="0.38" stop-color="#F1EBEF"/>
<stop offset="0.48" stop-color="#F3F6F8"/>
<stop offset="0.61" stop-color="#F5FDFE"/>
<stop offset="1" stop-color="#F5FFFF"/>
</linearGradient>
<linearGradient id="paint12_linear_126_3548" x1="100.331" y1="370.86" x2="164.161" y2="240.14" gradientUnits="userSpaceOnUse">
<stop stop-color="#CC275A"/>
<stop offset="0.02" stop-color="#CF3968"/>
<stop offset="0.06" stop-color="#D76287"/>
<stop offset="0.11" stop-color="#DE88A4"/>
<stop offset="0.17" stop-color="#E5A8BD"/>
<stop offset="0.23" stop-color="#EAC4D2"/>
<stop offset="0.3" stop-color="#EEDAE2"/>
<stop offset="0.38" stop-color="#F1EBEF"/>
<stop offset="0.48" stop-color="#F3F6F8"/>
<stop offset="0.61" stop-color="#F5FDFE"/>
<stop offset="1" stop-color="#F5FFFF"/>
</linearGradient>
<linearGradient id="paint13_linear_126_3548" x1="147.04" y1="367.89" x2="183.8" y2="249.94" gradientUnits="userSpaceOnUse">
<stop stop-color="#CC275A"/>
<stop offset="0.02" stop-color="#CF3968"/>
<stop offset="0.06" stop-color="#D76287"/>
<stop offset="0.11" stop-color="#DE88A4"/>
<stop offset="0.17" stop-color="#E5A8BD"/>
<stop offset="0.23" stop-color="#EAC4D2"/>
<stop offset="0.3" stop-color="#EEDAE2"/>
<stop offset="0.38" stop-color="#F1EBEF"/>
<stop offset="0.48" stop-color="#F3F6F8"/>
<stop offset="0.61" stop-color="#F5FDFE"/>
<stop offset="1" stop-color="#F5FFFF"/>
</linearGradient>
<linearGradient id="paint14_linear_126_3548" x1="54.1108" y1="325.89" x2="148.581" y2="233.46" gradientUnits="userSpaceOnUse">
<stop stop-color="#CC275A"/>
<stop offset="0.02" stop-color="#CF3968"/>
<stop offset="0.06" stop-color="#D76287"/>
<stop offset="0.11" stop-color="#DE88A4"/>
<stop offset="0.17" stop-color="#E5A8BD"/>
<stop offset="0.23" stop-color="#EAC4D2"/>
<stop offset="0.3" stop-color="#EEDAE2"/>
<stop offset="0.38" stop-color="#F1EBEF"/>
<stop offset="0.48" stop-color="#F3F6F8"/>
<stop offset="0.61" stop-color="#F5FDFE"/>
<stop offset="1" stop-color="#F5FFFF"/>
</linearGradient>
<linearGradient id="paint15_linear_126_3548" x1="2.17058" y1="143.23" x2="124.721" y2="185.1" gradientUnits="userSpaceOnUse">
<stop stop-color="#CC275A"/>
<stop offset="0.02" stop-color="#CF3968"/>
<stop offset="0.06" stop-color="#D76287"/>
<stop offset="0.11" stop-color="#DE88A4"/>
<stop offset="0.17" stop-color="#E5A8BD"/>
<stop offset="0.23" stop-color="#EAC4D2"/>
<stop offset="0.3" stop-color="#EEDAE2"/>
<stop offset="0.38" stop-color="#F1EBEF"/>
<stop offset="0.48" stop-color="#F3F6F8"/>
<stop offset="0.61" stop-color="#F5FDFE"/>
<stop offset="1" stop-color="#F5FFFF"/>
</linearGradient>
<linearGradient id="paint16_linear_126_3548" x1="24.0004" y1="94.3299" x2="122.04" y2="156.12" gradientUnits="userSpaceOnUse">
<stop stop-color="#CC275A"/>
<stop offset="0.02" stop-color="#CF3968"/>
<stop offset="0.06" stop-color="#D76287"/>
<stop offset="0.11" stop-color="#DE88A4"/>
<stop offset="0.17" stop-color="#E5A8BD"/>
<stop offset="0.23" stop-color="#EAC4D2"/>
<stop offset="0.3" stop-color="#EEDAE2"/>
<stop offset="0.38" stop-color="#F1EBEF"/>
<stop offset="0.48" stop-color="#F3F6F8"/>
<stop offset="0.61" stop-color="#F5FDFE"/>
<stop offset="1" stop-color="#F5FFFF"/>
</linearGradient>
<linearGradient id="paint17_linear_126_3548" x1="51.6799" y1="52.3199" x2="138.49" y2="142.7" gradientUnits="userSpaceOnUse">
<stop stop-color="#CC275A"/>
<stop offset="0.02" stop-color="#CF3968"/>
<stop offset="0.06" stop-color="#D76287"/>
<stop offset="0.11" stop-color="#DE88A4"/>
<stop offset="0.17" stop-color="#E5A8BD"/>
<stop offset="0.23" stop-color="#EAC4D2"/>
<stop offset="0.3" stop-color="#EEDAE2"/>
<stop offset="0.38" stop-color="#F1EBEF"/>
<stop offset="0.48" stop-color="#F3F6F8"/>
<stop offset="0.61" stop-color="#F5FDFE"/>
<stop offset="1" stop-color="#F5FFFF"/>
</linearGradient>
<linearGradient id="paint18_linear_126_3548" x1="106.301" y1="6.20001" x2="153.611" y2="122.96" gradientUnits="userSpaceOnUse">
<stop stop-color="#CC275A"/>
<stop offset="0.02" stop-color="#CF3968"/>
<stop offset="0.06" stop-color="#D76287"/>
<stop offset="0.11" stop-color="#DE88A4"/>
<stop offset="0.17" stop-color="#E5A8BD"/>
<stop offset="0.23" stop-color="#EAC4D2"/>
<stop offset="0.3" stop-color="#EEDAE2"/>
<stop offset="0.38" stop-color="#F1EBEF"/>
<stop offset="0.48" stop-color="#F3F6F8"/>
<stop offset="0.61" stop-color="#F5FDFE"/>
<stop offset="1" stop-color="#F5FFFF"/>
</linearGradient>
<linearGradient id="paint19_linear_126_3548" x1="15.7801" y1="275.77" x2="131.18" y2="217.56" gradientUnits="userSpaceOnUse">
<stop stop-color="#CC275A"/>
<stop offset="0.02" stop-color="#CF3968"/>
<stop offset="0.06" stop-color="#D76287"/>
<stop offset="0.11" stop-color="#DE88A4"/>
<stop offset="0.17" stop-color="#E5A8BD"/>
<stop offset="0.23" stop-color="#EAC4D2"/>
<stop offset="0.3" stop-color="#EEDAE2"/>
<stop offset="0.38" stop-color="#F1EBEF"/>
<stop offset="0.48" stop-color="#F3F6F8"/>
<stop offset="0.61" stop-color="#F5FDFE"/>
<stop offset="1" stop-color="#F5FFFF"/>
</linearGradient>
<linearGradient id="paint20_linear_126_3548" x1="-8.68963" y1="215.85" x2="119.48" y2="197.98" gradientUnits="userSpaceOnUse">
<stop stop-color="#CC275A"/>
<stop offset="0.02" stop-color="#CF3968"/>
<stop offset="0.06" stop-color="#D76287"/>
<stop offset="0.11" stop-color="#DE88A4"/>
<stop offset="0.17" stop-color="#E5A8BD"/>
<stop offset="0.23" stop-color="#EAC4D2"/>
<stop offset="0.3" stop-color="#EEDAE2"/>
<stop offset="0.38" stop-color="#F1EBEF"/>
<stop offset="0.48" stop-color="#F3F6F8"/>
<stop offset="0.61" stop-color="#F5FDFE"/>
<stop offset="1" stop-color="#F5FFFF"/>
</linearGradient>
<linearGradient id="paint21_linear_126_3548" x1="163.34" y1="-6.82012" x2="175.93" y2="120.16" gradientUnits="userSpaceOnUse">
<stop stop-color="#CC275A"/>
<stop offset="0.02" stop-color="#CF3968"/>
<stop offset="0.06" stop-color="#D76287"/>
<stop offset="0.11" stop-color="#DE88A4"/>
<stop offset="0.17" stop-color="#E5A8BD"/>
<stop offset="0.23" stop-color="#EAC4D2"/>
<stop offset="0.3" stop-color="#EEDAE2"/>
<stop offset="0.38" stop-color="#F1EBEF"/>
<stop offset="0.48" stop-color="#F3F6F8"/>
<stop offset="0.61" stop-color="#F5FDFE"/>
<stop offset="1" stop-color="#F5FFFF"/>
</linearGradient>
</defs>
</svg>
