<svg width="126" height="126" viewBox="0 0 126 126" fill="none" xmlns="http://www.w3.org/2000/svg">
<circle cx="63" cy="63" r="63" fill="url(#paint0_linear_244_885)"/>
<path d="M68.1985 43.7443H68.1959C68.0525 43.713 67.909 43.6817 67.7656 43.653C65.8876 43.2774 64.1087 43.2018 62.4473 43.3348C62.2595 43.3479 62.0717 43.3661 61.8865 43.387C61.8421 40.7396 61.7978 32.1035 62.8776 24.8734C63.8714 18.2301 65.8172 12.7762 69.5887 14.2394C71.5528 15.001 72.5413 16.9599 72.8987 19.5394C73.9733 27.2548 69.3801 40.5022 68.1985 43.7443Z" fill="#FF2C50"/>
<path d="M82.0326 42.1016H82.03C79.2705 44.9134 76.9413 46.9687 76.4092 47.4304C76.3962 47.4434 76.3831 47.4564 76.3727 47.4643C75.6293 46.8852 74.7973 46.3427 73.8635 45.8471H73.8583C73.2793 45.5367 72.6689 45.2446 72.0142 44.9734L71.1196 44.4387C71.1196 44.4387 75.9658 34.7332 81.2502 27.7091C85.2356 22.4169 89.4689 18.6427 92.0719 21.6866C96.0444 26.332 88.0239 35.9956 82.0326 42.1016Z" fill="#FF2C50"/>
<path d="M81.2502 27.7089C78.9758 36.3684 73.9131 45.8547 73.9131 45.8547L73.8636 45.8469H73.8583C73.2793 45.5365 72.669 45.2444 72.0143 44.9731C71.4039 44.7201 70.7597 44.4802 70.0815 44.2611C69.4425 44.055 68.8165 43.8829 68.1984 43.7446H68.1958C68.0523 43.7133 67.9089 43.682 67.7654 43.6533C68.1853 39.7879 69.7581 26.9994 72.8985 19.5398C74.62 15.4474 76.8161 12.9564 79.5496 14.4249C83.0551 16.3055 82.7995 21.8168 81.2502 27.7089Z" fill="#FF2C50"/>
<path d="M88.5823 47.6993C84.6412 49.2904 80.9583 50.3937 79.4663 50.8214C79.3803 50.6858 79.2916 50.5528 79.2003 50.4224C78.483 49.3973 77.5936 48.4401 76.5007 47.5689H76.4981L76.4094 47.4307L75.8199 46.5334C75.8199 46.5334 78.4517 44.5042 82.0303 42.1046H82.0329C89.1483 37.3262 100.014 31.0872 101.418 36.4237C102.607 40.9517 95.2308 45.0206 88.5823 47.6993Z" fill="#FF2C50"/>
<path d="M109.469 49.1666C109.216 52.6878 104.939 54.5892 99.7196 55.5882H99.7144C93.0163 56.8767 84.7767 56.6837 81.5111 56.5376C81.4929 56.3916 81.4694 56.2455 81.4459 56.0994C81.1434 54.2319 80.5174 52.4478 79.4663 50.8203C79.3802 50.6846 79.2915 50.5516 79.2002 50.4212C80.6139 49.9569 84.2733 48.7936 88.5822 47.6982C97.7634 45.3716 109.887 43.3684 109.469 49.1666Z" fill="#FF2C50"/>
<path d="M109.062 72.0517C107.033 75.7425 100.765 74.9417 94.503 72.962C94.5004 72.962 94.4978 72.9594 94.4978 72.9594C88.6109 71.0919 82.7292 68.1811 80.3818 66.9656C80.4105 66.8769 80.4365 66.7882 80.4626 66.6969C80.5148 66.5144 80.5669 66.3318 80.6165 66.1466C80.893 65.132 81.1251 64.1069 81.3025 63.0793C81.4433 62.255 81.5477 61.4308 81.6077 60.6118C85.7757 61.11 99.5005 62.9775 106.003 66.5274C108.794 68.0532 110.254 69.8843 109.062 72.0517Z" fill="#FF2C50"/>
<path d="M113.577 62.1545C112.75 64.8749 109.814 66.1321 106.003 66.5286C97.5363 67.4128 84.7662 64.0533 81.3024 63.0804C81.4432 62.2562 81.5476 61.432 81.6075 60.613C81.7119 59.2332 81.691 57.8665 81.511 56.5388C81.4928 56.3928 81.4693 56.2467 81.4458 56.1006C84.448 55.8346 92.4345 55.2269 99.7142 55.5894H99.7195C107.774 55.9963 114.965 57.59 113.577 62.1545Z" fill="#FF2C50"/>
<path d="M104.091 84.9579C102.609 86.4368 100.429 86.5568 97.9432 85.8526C90.7079 83.8051 80.8616 74.7908 77.956 72.0182C78.0212 71.9295 78.0838 71.8382 78.1464 71.7444C79.088 70.3698 79.8339 68.784 80.3817 66.966C80.4104 66.8773 80.4364 66.7886 80.4625 66.6973C80.5147 66.5147 80.5669 66.3322 80.6164 66.147C82.7865 67.0651 88.9212 69.7464 94.4977 72.9598C94.4977 72.9598 94.5003 72.9624 94.5029 72.9624C101.365 76.9192 107.377 81.6793 104.091 84.9579Z" fill="#FF2C50"/>
<path d="M87.2858 103.075C82.4631 104.593 77.6899 97.2118 74.3383 90.1382C74.3383 90.1356 74.3357 90.1356 74.3357 90.1356C71.5083 84.1756 69.6851 78.4348 69.6851 78.4348L71.5996 77.0394C71.6335 77.0237 71.67 77.0081 71.7039 76.9924C72.5881 76.5986 73.4124 76.1526 74.1766 75.6439H74.1792C74.3983 75.5005 74.6069 75.3518 74.8156 75.1953C75.8068 76.3821 79.4688 80.8292 82.8778 85.8475C87.7996 93.0934 92.1946 101.529 87.2858 103.075Z" fill="#FF2C50"/>
<path d="M99.1952 92.7288C95.3663 95.8196 88.5039 91.0438 82.8778 85.8481C77.849 81.2028 73.8088 76.2235 73.8088 76.2235L74.1766 75.6445H74.1792C74.3983 75.501 74.6069 75.3524 74.8156 75.1959C76.0258 74.3065 77.0718 73.2501 77.956 72.019C78.0212 71.9303 78.0838 71.839 78.1464 71.7451C81.7041 73.7274 92.9692 80.2403 97.9432 85.8533C100.338 88.5555 101.277 91.049 99.1952 92.7288Z" fill="#FF2C50"/>
<path d="M70.8117 107.783C69.0303 107.52 67.747 106.242 66.8393 104.354C63.5112 97.4494 65.17 82.3657 65.6343 78.7298C65.7334 78.7141 65.8325 78.6985 65.9316 78.6802C68.0313 78.3151 69.9223 77.7752 71.5994 77.0396C71.6333 77.024 71.6699 77.0083 71.7038 76.9927C71.9411 77.9212 73.3966 83.7742 74.3355 90.1358C74.3355 90.1358 74.3381 90.1358 74.3381 90.1384C75.6266 98.8631 75.9474 108.542 70.8117 107.783Z" fill="#FF2C50"/>
<path d="M66.8395 104.353C66.1248 108.297 64.625 110.853 61.8002 110.154C59.844 109.671 58.5947 108.046 57.8409 105.769C55.3108 98.114 58.4095 83.0825 59.2676 79.2561H59.2702C59.4658 79.2613 59.6615 79.2613 59.8571 79.2561C60.77 79.23 61.6542 79.1805 62.5097 79.1101H62.5123C63.6 79.0214 64.6381 78.8936 65.6344 78.7292C65.7335 78.7136 65.8327 78.6979 65.9318 78.6797C66.4508 82.2504 68.3105 96.2387 66.8395 104.353Z" fill="#FF2C50"/>
<path d="M58.9495 79.2446C58.2504 81.7694 54.8701 93.5511 50.7021 101.058C48.0468 105.836 45.076 108.88 42.2721 106.702C38.3179 103.629 41.2001 95.8907 44.9795 89.0361C48.0338 83.4909 51.6776 78.5273 52.7626 77.085C53.073 77.2884 53.3886 77.4788 53.7094 77.6536C55.2848 78.5273 56.9593 79.0803 58.6573 79.2238C58.7538 79.2342 58.853 79.2394 58.9495 79.2446Z" fill="#FF2C50"/>
<path d="M64.886 79.5741C64.886 79.5741 62.5802 99.1206 57.841 105.769C56.469 107.691 54.8962 108.537 53.1174 107.525C51.1299 106.393 50.5117 104.001 50.7021 101.056C51.1925 93.4919 57.0142 82.2581 58.6574 79.222C58.7539 79.2325 58.853 79.2377 58.9495 79.2429C59.0538 79.2507 59.1608 79.2533 59.2677 79.2559H59.2703C59.466 79.2611 59.6616 79.2611 59.8572 79.2559C60.7701 79.2298 61.6543 79.1803 62.5098 79.1099H62.5124L64.886 79.5741Z" fill="#FF2C50"/>
<path d="M53.7093 77.652C52.7756 79.0162 49.1501 84.2145 44.9794 89.0346C39.609 95.2371 33.3334 100.814 30.7069 96.7968C27.5874 92.0211 35.6079 84.191 42.0764 78.9771C42.0764 78.9744 42.0816 78.9744 42.0842 78.9718C45.342 76.3453 48.2085 74.3839 49.0509 73.8179C49.1553 73.9379 49.257 74.0526 49.3639 74.1674C50.3942 75.3046 51.5392 76.2905 52.7599 77.0834C53.0703 77.2869 53.3859 77.4773 53.7067 77.652H53.7093Z" fill="#FF2C50"/>
<path d="M44.622 57.4604C44.1473 59.4636 44.0769 61.4955 44.3403 63.4778C39.189 63.0239 13.0122 60.3348 16.7786 53.0029C18.9669 48.741 26.9144 50.2407 33.9854 52.6299C38.5056 54.1584 42.6658 56.052 44.7289 57.0379C44.6898 57.1788 44.6559 57.3196 44.622 57.4604Z" fill="#FF2C50"/>
<path d="M47.2906 51.7006C47.2175 51.7997 47.1471 51.8988 47.0793 52.0005C45.9551 53.6151 45.1883 55.3131 44.7292 57.0397C44.6901 57.1806 44.6562 57.3214 44.6223 57.4623C42.7209 56.6902 38.4224 54.8905 33.9857 52.6317C26.1609 48.6541 17.8926 43.2445 21.4999 39.5173C24.1134 36.8177 29.0874 38.5366 34.0379 41.4996C34.0379 41.4996 34.0405 41.5022 34.0431 41.5022C39.6248 44.8408 45.1779 49.7574 47.2906 51.7006Z" fill="#FF2C50"/>
<path d="M51.401 47.6325C51.2914 47.7108 51.1871 47.789 51.0854 47.8673C49.6743 48.9445 48.8996 49.7844 48.8996 49.7844C48.3023 50.4051 47.765 51.0442 47.2903 51.6988C47.2173 51.798 47.1468 51.8971 47.079 51.9988C44.875 50.4416 38.8708 46.0832 34.0428 41.5005L34.0376 41.4978C28.8993 36.6177 25.0964 31.4873 28.6333 29.2154C34.2072 25.6317 43.7978 37.1211 48.644 43.7045C48.6466 43.7045 48.6492 43.7123 48.6518 43.7149C49.9977 45.5459 50.9784 46.9935 51.401 47.6325Z" fill="#FF2C50"/>
<path d="M56.7194 44.6773C56.5629 44.7372 56.4064 44.8024 56.2525 44.8677C54.265 45.6997 52.6244 46.73 51.4011 47.6324C51.2916 47.7107 51.1872 47.7889 51.0855 47.8672C50.7986 47.3977 49.8674 45.864 48.652 43.7148C48.6494 43.7122 48.6468 43.707 48.6442 43.7044C46.3645 39.6772 43.0911 33.4851 41.1636 28.0494C39.1213 22.2851 38.5944 17.3685 42.3764 16.7764C45.8376 16.2339 48.6702 19.716 50.8768 24.4083C51.9228 26.6279 52.8278 29.1188 53.5947 31.5837C55.4153 37.4288 56.4534 43.1227 56.7194 44.6773Z" fill="#FF2C50"/>
<path d="M49.411 74.2457C49.411 74.2457 46.2837 76.4393 42.0844 78.9719C42.0818 78.9745 42.0791 78.9745 42.0765 78.9771C34.0013 83.8494 21.9849 89.9632 20.7251 84.0841C19.6244 78.9589 28.2318 74.8065 35.7723 72.193C40.5298 70.5472 44.8622 69.5143 46.0646 69.2378C46.1611 69.4491 46.2654 69.6603 46.375 69.8664C47.0818 71.2331 47.9373 72.5086 48.9076 73.651C48.9546 73.7058 49.0041 73.7632 49.0511 73.8179C49.1554 73.9379 49.2571 74.0527 49.3641 74.1674L49.4084 74.2457H49.411Z" fill="#FF2C50"/>
<path d="M46.3749 69.8677C45.7254 70.0373 41.2235 71.2032 35.7722 72.1943C26.0042 73.9732 13.1923 75.2017 14.04 69.1713C15.258 60.5301 39.2438 62.9114 44.3456 63.5166C44.609 65.5067 45.2063 67.4446 46.0645 69.2391C46.161 69.4504 46.2653 69.6617 46.3749 69.8677Z" fill="#FF2C50"/>
<path d="M62.4471 43.3347C62.2594 43.3477 62.0716 43.366 61.8864 43.3869C61.3934 43.4416 60.9135 43.5121 60.444 43.6007C59.1059 43.8511 57.8592 44.2293 56.7194 44.678C56.5629 44.738 56.4064 44.8032 56.2525 44.8684C55.8195 43.1443 54.4606 37.5287 53.5946 31.5844C52.3453 23.0162 52.1131 13.7594 57.1419 14.4871C60.6813 14.9983 62.2672 19.5054 62.8775 24.8707C63.6809 31.9339 62.794 40.476 62.4471 43.3347Z" fill="#FF2C50"/>
<path opacity="0.05" d="M62.8774 24.8697L63.0808 23.6021C63.0808 23.6021 65.3474 28.6021 63.0808 43.2946L62.447 43.3337C62.447 43.3337 64.5389 36.4139 62.8774 24.8697Z" fill="black"/>
<path opacity="0.05" d="M56.2524 44.8691L55.8011 45.0647C55.8011 45.0647 54.1162 41.0505 53.1381 30.1636L53.7197 32.4171C53.7197 32.4171 55.2378 41.1601 56.2524 44.8691Z" fill="black"/>
<path opacity="0.05" d="M81.9571 26.8027C81.9571 26.8027 79.907 34.771 74.5209 46.2136C74.1453 45.9919 73.9001 45.8562 73.9001 45.8562C73.9001 45.8562 76.2215 42.8958 81.2503 27.7104L81.9571 26.8027Z" fill="black"/>
<path opacity="0.05" d="M72.8986 19.5402L73.2221 18.8047C73.2221 18.8047 71.6441 35.0804 68.981 43.959L68.1985 43.7451C68.1985 43.7451 70.3399 38.0955 72.9013 19.5402H72.8986Z" fill="black"/>
<path opacity="0.05" d="M48.6441 43.7044L48.1094 42.9819C48.1094 42.9819 48.8241 44.9564 50.8664 48.0655L51.2706 47.729C51.2706 47.729 49.93 46.2918 48.6441 43.7044Z" fill="black"/>
<path opacity="0.05" d="M34.0428 41.5015L33.2421 40.7295C33.2421 40.7295 39.3403 44.0994 47.3712 51.5408L47.0816 51.9999C47.0816 51.9999 39.4655 45.1818 34.0454 41.5015H34.0428Z" fill="black"/>
<path opacity="0.05" d="M33.9855 52.6314L32.6527 52.1958C32.6527 52.1958 34.2333 53.693 44.5465 57.7958L44.6221 57.4619C44.6221 57.4619 37.6293 54.5824 33.9855 52.6314Z" fill="black"/>
<path opacity="0.05" d="M39.6482 63.0636C39.6482 63.0636 43.2737 63.374 44.3431 63.4783L44.3848 63.7835C44.3848 63.7835 41.3253 63.7157 38.6935 62.9932L39.6482 63.061V63.0636Z" fill="black"/>
<path opacity="0.05" d="M35.5921 72.2282C35.5921 72.2282 41.3304 71.3805 46.3774 69.8677L46.5678 70.2224C46.5678 70.2224 41.9694 72.249 34.3871 72.6898L35.5921 72.2282Z" fill="black"/>
<path opacity="0.05" d="M49.3665 74.1706C49.3665 74.1706 45.415 76.1477 42.0764 78.9777L40.647 79.828C40.647 79.828 43.4874 77.2301 48.9753 73.7324C49.4343 74.2515 49.3665 74.1706 49.3665 74.1706Z" fill="black"/>
<path opacity="0.05" d="M44.9794 89.0344C44.9794 89.0344 52.7912 79.6237 53.7093 77.6519L54.3431 77.9831C54.3431 77.9831 48.0624 86.4418 44.3847 90.1351L44.9794 89.0344Z" fill="black"/>
<path opacity="0.05" d="M58.9496 79.2424C58.9496 79.2424 51.9385 91.5352 50.7022 101.055C50.2823 101.801 50.1701 101.981 50.1701 101.981C50.1701 101.981 51.4638 91.264 58.4984 79.2085L58.9496 79.245V79.2424Z" fill="black"/>
<path opacity="0.05" d="M57.8409 105.769C57.8409 105.769 64.2286 95.1767 64.2729 78.9271C64.6068 78.8827 64.5285 78.8932 64.5285 78.8932C64.5285 78.8932 64.9876 93.3561 57.9322 106.077C57.8461 105.832 57.8409 105.769 57.8409 105.769Z" fill="black"/>
<path opacity="0.05" d="M66.8394 104.353C66.8394 104.353 63.5555 95.4199 63.6703 89.0244L63.5112 89.9295C63.5112 89.9295 63.2191 93.6593 66.7585 104.781L66.8394 104.353Z" fill="black"/>
<path opacity="0.05" d="M71.7038 76.9924C71.7038 76.9924 73.1096 82.415 74.3355 90.1355L74.5181 90.5137C74.5181 90.5137 73.8086 84.426 71.9437 76.8828L71.7038 76.9924Z" fill="black"/>
<path opacity="0.05" d="M82.8777 85.8486C82.8777 85.8486 76.31 79.5027 74.1764 75.645L73.9286 75.8146C73.9286 75.8146 76.0779 79.5522 83.8166 87.2571L82.8777 85.8486Z" fill="black"/>
<path opacity="0.05" d="M78.1465 71.7437C78.1465 71.7437 92.646 79.5738 97.9434 85.8519C98.4363 85.9823 94.3179 80.5753 78.3708 71.4072L78.1465 71.7437Z" fill="black"/>
<path opacity="0.05" d="M94.5028 72.9624C94.5028 72.9624 87.3248 70.1663 80.6163 66.147L80.512 66.5226C80.512 66.5226 86.751 70.2968 95.4287 73.5049L94.5028 72.9624Z" fill="black"/>
<path opacity="0.05" d="M81.6076 60.6117C81.6076 60.6117 98.0816 62.0071 106.003 66.5273L106.618 66.4543C106.618 66.4543 98.3893 61.9628 81.6363 60.1631L81.6076 60.6117Z" fill="black"/>
<path opacity="0.05" d="M82.0327 42.1012C82.0327 42.1012 79.9748 45.3825 76.5892 47.6412C76.9048 47.9073 76.7796 47.7951 76.7796 47.7951C76.7796 47.7951 80.6738 44.8034 82.8178 41.5796L82.0327 42.1012Z" fill="black"/>
<path opacity="0.05" d="M89.8157 47.1872C89.8157 47.1872 83.608 48.7887 79.8103 51.3839C79.9303 51.5952 79.9277 51.59 79.9277 51.59C79.9277 51.59 84.8704 48.6556 88.582 47.6958L89.8157 47.1846V47.1872Z" fill="black"/>
<path opacity="0.05" d="M81.5111 56.5378C81.5111 56.5378 86.8528 56.8743 99.7143 55.5884L100.447 55.6301C100.447 55.6301 95.2228 56.7412 81.5685 57.0099L81.5111 56.5378Z" fill="black"/>
<path d="M93.9572 72.962C89.5159 88.3729 77.3183 94.5963 57.4845 95.1919C50.3793 95.4043 43.3202 91.42 38.1032 85.2704C28.7542 74.2501 25.3147 56.2816 38.0894 43.0268C38.0894 43.0268 46.0118 34.4257 58.5233 32.0803C63.5418 31.1431 69.2989 31.2124 75.5824 33.2484C97.5168 40.3629 98.4032 57.5512 93.9572 72.962Z" fill="#FFD655"/>
<path d="M38.1032 85.2711C28.7542 74.2508 25.3147 56.2823 38.0894 43.0275C38.0894 43.0275 46.0118 34.4264 58.5233 32.0811C45.3193 37.829 25.0608 52.3719 38.1032 85.2711Z" fill="#FFC82C"/>
<path opacity="0.35" d="M50.0656 71.7798C52.0748 71.7798 53.7036 70.9282 53.7036 69.8777C53.7036 68.8272 52.0748 67.9756 50.0656 67.9756C48.0564 67.9756 46.4276 68.8272 46.4276 69.8777C46.4276 70.9282 48.0564 71.7798 50.0656 71.7798Z" fill="#FF6E79"/>
<path opacity="0.35" d="M88.0847 71.7798C90.0939 71.7798 91.7227 70.9282 91.7227 69.8777C91.7227 68.8272 90.0939 67.9756 88.0847 67.9756C86.0755 67.9756 84.4467 68.8272 84.4467 69.8777C84.4467 70.9282 86.0755 71.7798 88.0847 71.7798Z" fill="#FF6E79"/>
<path d="M60.2501 62.7103C58.625 59.0399 52.1476 59.3262 50.4671 62.8165C50.167 63.4167 49.2483 63.1812 49.2806 62.5164C49.3591 61.1591 50.4348 60.088 51.5243 59.4278C53.7035 58.1489 56.5659 58.2551 58.6065 59.6909C59.5899 60.3973 60.4163 61.4314 60.5825 62.6226C60.6148 62.8211 60.3147 62.895 60.2455 62.7057L60.2501 62.7103Z" fill="#302826"/>
<path d="M56.9951 64.8513C59.0043 64.8513 60.6331 63.8467 60.6331 62.6075C60.6331 61.3683 59.0043 60.3638 56.9951 60.3638C54.9859 60.3638 53.3571 61.3683 53.3571 62.6075C53.3571 63.8467 54.9859 64.8513 56.9951 64.8513Z" fill="#302826"/>
<path d="M54.3726 62.3439C54.931 62.3439 55.3837 61.8913 55.3837 61.3329C55.3837 60.7745 54.931 60.3218 54.3726 60.3218C53.8142 60.3218 53.3616 60.7745 53.3616 61.3329C53.3616 61.8913 53.8142 62.3439 54.3726 62.3439Z" fill="#EFEFEF"/>
<path d="M55.6055 63.3621C55.8146 63.3621 55.9841 63.1926 55.9841 62.9836C55.9841 62.7745 55.8146 62.605 55.6055 62.605C55.3964 62.605 55.2269 62.7745 55.2269 62.9836C55.2269 63.1926 55.3964 63.3621 55.6055 63.3621Z" fill="#EFEFEF"/>
<path d="M75.1021 62.6241C75.8639 58.7875 81.0577 57.5087 84.1602 59.4293C85.2498 60.0848 86.3301 61.1559 86.404 62.5179C86.4271 63.1919 85.513 63.4089 85.2175 62.818C83.537 59.3277 77.0642 59.0368 75.4345 62.7118C75.3745 62.9057 75.0652 62.8272 75.0975 62.6287L75.1021 62.6241Z" fill="#302826"/>
<path d="M78.69 64.843C80.6992 64.843 82.328 63.8384 82.328 62.5992C82.328 61.36 80.6992 60.3555 78.69 60.3555C76.6808 60.3555 75.052 61.36 75.052 62.5992C75.052 63.8384 76.6808 64.843 78.69 64.843Z" fill="#302826"/>
<path d="M81.3125 62.342C81.8709 62.342 82.3236 61.8893 82.3236 61.3309C82.3236 60.7725 81.8709 60.3198 81.3125 60.3198C80.7541 60.3198 80.3014 60.7725 80.3014 61.3309C80.3014 61.8893 80.7541 62.342 81.3125 62.342Z" fill="#EFEFEF"/>
<path d="M80.0792 63.3602C80.2883 63.3602 80.4578 63.1907 80.4578 62.9816C80.4578 62.7725 80.2883 62.603 80.0792 62.603C79.8701 62.603 79.7006 62.7725 79.7006 62.9816C79.7006 63.1907 79.8701 63.3602 80.0792 63.3602Z" fill="#EFEFEF"/>
<path d="M65.6149 71.1207C68.168 72.7043 71.4921 71.9517 73.011 69.3201C73.759 68.2629 75.3241 69.3663 74.5715 70.4236C72.7387 73.0551 69.0314 74.0801 66.1043 72.7781C65.5595 72.4965 64.2438 72.1502 64.7193 71.2869C64.9132 70.9822 65.3287 70.9083 65.6196 71.1207H65.6149Z" fill="#302826"/>
<path d="M54.7562 54.9349C56.9999 57.5249 59.8577 59.7733 63.1033 60.969C63.7358 61.186 63.4404 62.1324 62.794 61.9478C59.2022 60.8859 56.0627 58.7299 53.4358 56.0845C52.6232 55.198 53.9852 54.0023 54.7562 54.9349Z" fill="#FF2C50"/>
<path d="M71.7738 59.5833C73.5974 56.2777 77.2077 54.334 80.9058 54.0986L81.7599 54.0478C82.7248 54.117 84.4515 53.7154 84.4838 55.142C84.4792 55.8114 83.8282 56.2869 83.1865 56.1346C82.4801 56.0192 81.6814 55.876 80.9566 55.8714C80.7304 55.853 80.4303 55.8483 80.2087 55.8714C77.2447 55.9222 74.2253 57.4642 72.7018 60.0496C72.397 60.6775 71.4552 60.2205 71.7738 59.5879V59.5833Z" fill="#FF2C50"/>
<defs>
<linearGradient id="paint0_linear_244_885" x1="63" y1="0" x2="63" y2="126" gradientUnits="userSpaceOnUse">
<stop stop-color="#CDDDA7"/>
<stop offset="1" stop-color="#A2DAAF"/>
</linearGradient>
</defs>
</svg>
