<svg width="128" height="128" viewBox="0 0 128 128" fill="none" xmlns="http://www.w3.org/2000/svg">
<circle cx="64" cy="64" r="64" fill="url(#paint0_linear_244_1009)"/>
<g clip-path="url(#clip0_244_1009)">
<path d="M68.748 45.1017L68.3287 45.0111C66.6249 44.6653 64.8842 44.5612 63.1535 44.6989C62.9724 44.6989 62.7879 44.7291 62.6068 44.7492C62.5632 42.1573 62.5196 33.7067 63.5728 26.6259C64.5387 20.1394 66.4304 14.8012 70.103 16.2348C72.0147 16.9801 72.9773 18.8972 73.3228 21.422C74.3692 28.9728 69.8984 41.9391 68.748 45.1017Z" fill="#F5FFFF"/>
<path d="M82.2108 43.5039C79.5243 46.2537 77.257 48.2647 76.7405 48.718L76.7036 48.7516C75.9355 48.154 75.1205 47.6235 74.2619 47.1702C73.6984 46.8681 73.1048 46.5827 72.4675 46.3175L71.5955 45.8071C71.5955 45.8071 76.3112 36.309 81.4562 29.4331C85.3334 24.2526 89.4554 20.5594 91.9876 23.5375C95.8447 28.07 88.04 37.5278 82.2108 43.5039Z" fill="#F5FFFF"/>
<path d="M81.4495 29.4162C79.2358 37.8903 74.3089 47.1769 74.3089 47.1769H74.2619C73.6984 46.8747 73.1048 46.5893 72.4675 46.3241C71.8739 46.0689 71.2467 45.8406 70.5859 45.6258C69.9655 45.4243 69.355 45.2565 68.7547 45.1154L68.3354 45.0248C68.7446 41.241 70.274 28.7246 73.3295 21.4256C75.0031 17.4202 77.1362 14.9827 79.8027 16.4197C83.2069 18.2562 82.9587 23.6583 81.4495 29.4162Z" fill="#F5FFFF"/>
<path d="M88.5834 48.9833C84.7464 50.5411 81.1644 51.6189 79.7121 52.0452C79.6282 51.9109 79.5444 51.7834 79.4572 51.6558C78.7193 50.6016 77.8339 49.6615 76.831 48.8624L76.7438 48.7281L76.1602 47.8384C76.1602 47.8384 78.7227 45.8508 82.2041 43.4973C89.1334 38.8271 99.7085 32.72 101.074 37.9509C102.231 42.3759 95.0532 46.3578 88.5834 48.9799V48.9833Z" fill="#F5FFFF"/>
<path d="M108.908 50.4203C108.654 53.865 104.498 55.7284 99.42 56.7054C92.8999 57.9678 84.8839 57.7764 81.7043 57.6354C81.6876 57.491 81.6641 57.35 81.6406 57.2057C81.3656 55.3658 80.7082 53.6065 79.7154 52.0386C79.6316 51.9043 79.5477 51.7767 79.4605 51.6492C80.8357 51.1959 84.3976 50.0577 88.6001 48.9834C97.5183 46.7071 109.318 44.7463 108.908 50.4203Z" fill="#F5FFFF"/>
<path d="M108.516 72.8172C106.541 76.4298 100.44 75.6441 94.3455 73.7069C88.6169 71.8805 82.8917 69.03 80.6076 67.8348C80.6345 67.7475 80.6613 67.6602 80.6848 67.5796C80.7351 67.4017 80.7854 67.2237 80.8357 67.0424C81.104 66.0487 81.3421 65.0448 81.5031 64.0409C81.6406 63.2352 81.7413 62.426 81.8016 61.627C85.8633 62.1138 99.2155 63.9436 105.544 67.4151C108.254 68.9025 109.67 70.6953 108.516 72.8172Z" fill="#F5FFFF"/>
<path d="M112.91 63.1277C112.105 65.7901 109.247 67.0223 105.548 67.4084C97.307 68.2746 84.8806 64.9843 81.5098 64.0342C81.6473 63.2284 81.748 62.4193 81.8083 61.6202C81.9157 60.2907 81.8855 58.9544 81.7144 57.6316C81.6977 57.4872 81.6742 57.3462 81.6507 57.2018C84.572 56.9467 92.3465 56.3457 99.4201 56.6915C107.265 57.0978 114.261 58.659 112.91 63.1277Z" fill="#F5FFFF"/>
<path d="M103.676 85.448C102.234 86.8951 100.121 87.0126 97.6928 86.3243C90.6528 84.3199 81.0671 75.4967 78.2397 72.794C78.3034 72.7067 78.3638 72.6194 78.4242 72.5254C79.3868 71.0884 80.1179 69.5104 80.6009 67.8485C80.6277 67.7612 80.6546 67.6739 80.6781 67.5933C80.7284 67.4154 80.7787 67.2375 80.829 67.0562C82.942 67.9559 88.9121 70.5781 94.3388 73.724C101.037 77.5816 106.873 82.2417 103.676 85.448Z" fill="#F5FFFF"/>
<path d="M87.329 103.178C82.6368 104.666 77.9915 97.4406 74.7281 90.5177C72.9907 86.791 71.4747 82.9635 70.1935 79.0521L72.0583 77.6857L72.1589 77.6387C72.9974 77.266 73.8024 76.8262 74.5637 76.3192C74.7784 76.1782 74.9796 76.0338 75.1842 75.8794C76.1502 77.0411 79.7121 81.3922 83.0292 86.3041C87.822 93.405 92.0983 101.661 87.329 103.175V103.178Z" fill="#F5FFFF"/>
<path d="M98.9136 93.0523C95.1873 96.0773 88.5062 91.4038 83.0325 86.3174C79.8966 83.3662 76.9484 80.2203 74.2049 76.8965L74.5638 76.3291C74.7784 76.1881 74.9797 76.0437 75.1842 75.8893C76.3548 75.0197 77.3844 73.9722 78.2296 72.7803C78.2934 72.693 78.3537 72.6057 78.4141 72.5117C81.8754 74.4523 92.8396 80.8246 97.6793 86.3207C100.02 88.9664 100.936 91.4072 98.9103 93.049L98.9136 93.0523Z" fill="#F5FFFF"/>
<path d="M71.2903 107.788C69.5563 107.533 68.3086 106.28 67.4231 104.431C64.1832 97.6721 65.7998 82.9096 66.2492 79.3507L66.5377 79.3037C68.4327 78.9948 70.2874 78.4543 72.055 77.6989L72.1556 77.6519C72.387 78.5617 73.8024 84.2894 74.718 90.5141C75.9758 99.0553 76.2877 108.53 71.2903 107.788Z" fill="#F5FFFF"/>
<path d="M67.4231 104.431C66.7289 108.292 65.2665 110.793 62.5196 110.108C60.6146 109.635 59.4004 108.046 58.6659 105.817C56.2041 98.3234 59.2193 83.6079 60.0545 79.8678H60.6246C61.5134 79.8409 62.3721 79.7939 63.2072 79.7234C64.2671 79.6361 65.2766 79.5119 66.2526 79.3507L66.541 79.3037C67.0441 82.7988 68.8519 96.4903 67.4231 104.431Z" fill="#F5FFFF"/>
<path d="M59.7459 79.8544C59.065 82.3255 55.7748 93.8548 51.7198 101.204C49.1373 105.881 46.2461 108.862 43.516 106.727C39.669 103.719 42.4729 96.1446 46.1522 89.4365C48.4195 85.374 50.9518 81.466 53.7255 77.7393C54.0274 77.9373 54.3359 78.1254 54.6478 78.2966C56.1303 79.146 57.7737 79.6664 59.4709 79.8276C59.5581 79.8444 59.6654 79.8477 59.7492 79.8544H59.7459Z" fill="#F5FFFF"/>
<path d="M65.5214 80.1802C65.5214 80.1802 63.2776 99.3107 58.6693 105.817C57.3344 107.698 55.805 108.527 54.071 107.536C52.1357 106.428 51.532 104.088 51.7198 101.204C52.1961 93.8012 57.8643 82.8057 59.4608 79.8344C59.5547 79.8344 59.652 79.8512 59.7459 79.8546C59.8398 79.8613 59.9505 79.8546 60.0545 79.868H60.6246C61.5134 79.8411 62.3721 79.7941 63.2072 79.7236L65.5181 80.1769L65.5214 80.1802Z" fill="#F5FFFF"/>
<path d="M54.6445 78.2864C52.0049 82.1441 49.1708 85.8641 46.1489 89.4263C40.9234 95.4965 34.8158 100.956 32.2601 97.0241C29.2147 92.3506 37.0294 84.6856 43.3248 79.5824C46.4943 77.0106 49.2848 75.0935 50.1066 74.5396C50.2072 74.6571 50.3078 74.7679 50.4118 74.882C51.3844 75.9698 52.4946 76.93 53.7121 77.7324C54.0307 77.9406 54.3326 78.1253 54.6478 78.2864H54.6445Z" fill="#F5FFFF"/>
<path d="M45.8034 58.535C45.354 60.4655 45.2634 62.4598 45.5284 64.4239C40.5142 63.9908 15.0408 61.3485 18.7033 54.1704C20.8331 50.0005 28.5673 51.4677 35.4564 53.8044C39.0183 55.0399 42.5065 56.4803 45.904 58.1153C45.8671 58.2563 45.8336 58.394 45.8001 58.5316L45.8034 58.535Z" fill="#F5FFFF"/>
<path d="M48.3994 52.8977C48.329 52.995 48.2585 53.0924 48.1948 53.1898C47.1517 54.6872 46.3803 56.3558 45.9107 58.1218C45.8738 58.2594 45.8403 58.3971 45.8068 58.5347C43.9554 57.7693 39.773 56.0167 35.4564 53.8075C27.8395 49.9129 19.7933 44.6183 23.305 40.9722C25.8439 38.3299 30.6904 40.0119 35.5067 42.9127C40.9402 46.1829 46.3468 50.994 48.4027 52.8977H48.3994Z" fill="#F5FFFF"/>
<path d="M52.4007 48.9296C52.2934 49.0068 52.1927 49.084 52.0921 49.1579C51.3341 49.7253 50.6231 50.3531 49.9657 51.0346C49.4022 51.6222 48.879 52.2467 48.3994 52.9081C48.329 53.0054 48.2585 53.1028 48.1948 53.2002C46.0483 51.6692 40.2056 47.412 35.5034 42.9265C30.5026 38.1355 26.8031 33.1128 30.2443 30.8902C35.6677 27.3817 45.0018 38.629 49.7175 45.0719C51.0323 46.8883 51.9881 48.2916 52.4007 48.9296Z" fill="#F5FFFF"/>
<path d="M57.5759 46.0251C57.4249 46.0821 57.2707 46.1493 57.1231 46.2131C55.4495 46.9249 53.863 47.8314 52.4007 48.9192C52.2934 48.9964 52.1927 49.0736 52.0921 49.1475C51.8137 48.6875 50.9082 47.1867 49.7242 45.085C45.1561 36.9601 36.4693 19.8575 43.63 18.7294C48.5939 17.9471 52.2263 25.7128 54.5439 33.2199C55.8117 37.4234 56.8246 41.6974 57.5725 46.0251H57.5759Z" fill="#F5FFFF"/>
<path d="M50.4621 74.9697C50.4621 74.9697 47.4167 77.1151 43.3315 79.5962C35.4631 84.3637 23.7846 90.35 22.5537 84.5954C21.4838 79.5794 29.8586 75.5136 37.1971 72.9586C40.484 71.8272 43.8279 70.8602 47.2121 70.0679C47.306 70.276 47.4066 70.4808 47.514 70.6823C48.1948 72.0051 49.0199 73.2507 49.9791 74.3855L50.12 74.55C50.2206 74.6675 50.3212 74.7783 50.4252 74.8925L50.4621 74.973V74.9697Z" fill="#F5FFFF"/>
<path d="M47.5072 70.6787C46.8767 70.8432 42.493 71.9847 37.1871 72.955C27.6785 74.6975 15.2152 75.8995 16.0402 69.9971C17.2242 61.5398 40.5679 63.8699 45.5351 64.4641C45.7967 66.4081 46.3635 68.2983 47.2087 70.0643C47.3026 70.2725 47.4033 70.4773 47.5106 70.6787H47.5072Z" fill="#F5FFFF"/>
<path d="M63.1502 44.7093C62.9691 44.7093 62.7846 44.7395 62.6035 44.7597C62.1239 44.8134 61.6543 44.8806 61.1982 44.9678C59.9605 45.2029 58.7464 45.5554 57.5725 46.0221C57.4216 46.0791 57.2673 46.1429 57.1197 46.2101C56.6971 44.5213 55.3757 39.0252 54.5338 33.2102C53.3163 24.8234 53.0916 15.7651 57.9851 16.4769C61.4296 16.9872 62.9724 21.3888 63.5694 26.6398C64.3475 33.5527 63.4856 41.9126 63.1468 44.7127L63.1502 44.7093Z" fill="#F5FFFF"/>
<path d="M63.5694 26.6397L63.7707 25.3975C63.7707 25.3975 65.9776 30.2892 63.7707 44.6723L63.1502 44.7093C63.1502 44.7093 65.1894 37.9374 63.5694 26.6363V26.6397Z" fill="#E9F4F4"/>
<path d="M57.1231 46.2131L56.6837 46.4045C56.6837 46.4045 55.0403 42.4763 54.0877 31.8267L54.6546 34.0291C54.6546 34.0291 56.1303 42.5771 57.1231 46.2098V46.2131Z" fill="#E9F4F4"/>
<path d="M82.137 28.5298C82.137 28.5298 80.1414 36.329 74.8924 47.5293C74.5269 47.3145 74.2887 47.1802 74.2887 47.1802C74.2887 47.1802 76.5493 44.2827 81.4428 29.4195L82.137 28.5298Z" fill="#E9F4F4"/>
<path d="M73.3194 21.4221L73.6347 20.7036C73.6347 20.7036 72.0986 36.6345 69.506 45.3235L68.7446 45.1153C68.7446 45.1153 70.8274 39.5857 73.3194 21.4255V21.4221Z" fill="#E9F4F4"/>
<path d="M49.7175 45.0717L49.211 44.3633C49.211 44.3633 49.9053 46.2971 51.8942 49.339L52.2866 49.0099C51.2637 47.8147 50.3984 46.4919 49.7175 45.0717Z" fill="#E9F4F4"/>
<path d="M35.5067 42.9164L34.7286 42.1509C34.7286 42.1509 40.6618 45.4479 48.4765 52.7334L48.1948 53.1833C48.1948 53.1833 40.7825 46.5189 35.5067 42.9197V42.9164Z" fill="#E9F4F4"/>
<path d="M35.4497 53.8077L34.1551 53.3813C34.1551 53.3813 35.6778 54.8452 45.7296 58.8606L45.8001 58.535C45.8001 58.535 38.9948 55.7181 35.4497 53.8077Z" fill="#E9F4F4"/>
<path d="M40.9603 64.0209C40.9603 64.0209 44.4853 64.323 45.5284 64.4271L45.572 64.7259C43.7038 64.6689 41.8457 64.4103 40.0312 63.9604L40.9603 64.0209Z" fill="#E9F4F4"/>
<path d="M37.0127 72.9886C40.5545 72.438 44.0594 71.6658 47.5072 70.6787L47.6951 71.0245C47.6951 71.0245 43.2209 73.0088 35.8421 73.4385L37.016 72.9886H37.0127Z" fill="#E9F4F4"/>
<path d="M50.4185 74.8887C47.8963 76.2048 45.5183 77.7828 43.3248 79.5925L41.9363 80.4251C41.9363 80.4251 44.7 77.8735 50.0428 74.459L50.4218 74.8887H50.4185Z" fill="#E9F4F4"/>
<path d="M46.1489 89.4367C46.1489 89.4367 53.7657 80.2274 54.6445 78.2969L55.2616 78.6225C55.2616 78.6225 49.1507 86.9019 45.5686 90.5178L46.1489 89.4401V89.4367Z" fill="#E9F4F4"/>
<path d="M59.7459 79.8544C59.7459 79.8544 52.9239 91.8873 51.7198 101.204C51.3106 101.933 51.2134 102.111 51.2134 102.111C51.2134 102.111 52.4812 91.6221 59.3199 79.8208L59.7492 79.8577L59.7459 79.8544Z" fill="#E9F4F4"/>
<path d="M58.6659 105.817C58.6659 105.817 64.8808 95.4498 64.9244 79.5458L65.1793 79.5122C65.1793 79.5122 65.6254 93.6637 58.7598 106.116C58.7196 106.019 58.6894 105.918 58.6659 105.814V105.817Z" fill="#E9F4F4"/>
<path d="M67.4231 104.431C67.4231 104.431 64.2301 95.6878 64.3375 89.4263L64.1832 90.3126C64.1832 90.3126 63.8981 93.9655 67.3426 104.847L67.4198 104.427L67.4231 104.431Z" fill="#E9F4F4"/>
<path d="M72.159 77.6518C72.159 77.6518 73.5307 82.9599 74.7214 90.514L74.8991 90.8833C74.3156 86.3911 73.4804 81.9392 72.3937 77.541L72.159 77.6484V77.6518Z" fill="#E9F4F4"/>
<path d="M83.0325 86.3174C83.0325 86.3174 76.6432 80.1062 74.5638 76.3325L74.3089 76.497C74.3089 76.497 76.4017 80.1566 83.9314 87.6973L83.0292 86.3174H83.0325Z" fill="#E9F4F4"/>
<path d="M78.4275 72.5151C78.4275 72.5151 92.5377 80.1733 97.6928 86.3241C98.1724 86.4516 94.1644 81.1604 78.6556 72.186L78.4275 72.5151Z" fill="#E9F4F4"/>
<path d="M94.3455 73.7073C89.6835 71.8204 85.1657 69.5911 80.8323 67.0361L80.7317 67.4021C85.3703 70.0914 90.2268 72.3778 95.2511 74.2344L94.3488 73.7039L94.3455 73.7073Z" fill="#E9F4F4"/>
<path d="M81.7949 61.6205C81.7949 61.6205 97.8269 62.9836 105.538 67.4087L106.138 67.3382C106.138 67.3382 98.1288 62.94 81.8251 61.1841L81.7949 61.6205Z" fill="#E9F4F4"/>
<path d="M82.2108 43.504C80.8021 45.6326 79.0111 47.4725 76.9249 48.9296C77.2335 49.1848 77.1094 49.0807 77.1094 49.0807C77.1094 49.0807 80.8994 46.153 82.9856 42.9971L82.2108 43.504Z" fill="#E9F4F4"/>
<path d="M89.7841 48.4829C89.7841 48.4829 83.7436 50.0508 80.0475 52.5924L80.1615 52.7938C80.1615 52.7938 84.9711 49.9232 88.5834 48.9832L89.7841 48.4829Z" fill="#E9F4F4"/>
<path d="M81.701 57.6317C81.701 57.6317 86.8997 57.9607 99.4167 56.7017L100.131 56.7419C100.131 56.7419 95.0532 57.8297 81.758 58.0916L81.701 57.6283V57.6317Z" fill="#E9F4F4"/>
<path d="M94.903 71.8756C90.4161 87.534 78.1081 93.8579 58.0527 94.4625C50.8725 94.6784 43.7416 90.6312 38.4596 84.3814C29.0113 73.1836 25.5414 54.9278 38.4596 41.4596C38.4596 41.4596 46.4657 32.7172 59.1066 30.3358C64.857 29.2623 70.7861 29.6756 76.333 31.5327C98.4962 38.7696 99.396 56.2357 94.903 71.8756Z" fill="#FFCD50"/>
<path d="M38.4715 84.4006C29.0232 73.2028 25.5532 54.947 38.4715 41.4787C38.4715 41.4787 46.4776 32.7364 59.1185 30.355C45.7626 36.1976 25.2944 50.9737 38.4715 84.4006Z" fill="#FFC033"/>
<path d="M63.3038 67.5035C64.4872 69.1384 66.8539 69.2927 68.6228 68.6819C69.2514 68.4598 69.7938 68.0403 70.1821 67.4973C70.2252 67.4356 70.2868 67.3924 70.3608 67.3801C70.4348 67.3678 70.5087 67.3801 70.5704 67.4233C70.6073 67.448 70.6381 67.485 70.6566 67.522C70.6751 67.559 70.6875 67.6084 70.6875 67.6516C70.669 68.1143 70.521 68.5708 70.256 68.9534C68.6536 71.2299 64.7707 71.2361 63.1559 68.9534C62.9279 68.614 62.3547 67.4233 63.0265 67.3369C63.082 67.3369 63.1374 67.3554 63.1867 67.3801C63.236 67.411 63.273 67.448 63.3038 67.4973V67.5097V67.5035Z" fill="#302826"/>
<path d="M72.8875 61.9857C73.2388 58.6048 76.5362 56.174 79.8335 55.8902C82.4529 55.6187 85.4853 56.649 87.1309 58.9194C87.7719 59.6968 88.1047 60.684 88.0615 61.6896C88.0307 62.0104 87.9136 62.3127 87.7164 62.5595C87.5192 62.8125 87.2541 62.9975 86.9521 63.1024C86.6501 63.2073 86.3296 63.2135 86.0215 63.1333C85.7133 63.0531 85.436 62.8865 85.2202 62.6459C84.7703 62.1647 84.3882 61.6279 84.0924 61.0418C83.6301 60.2891 83.0138 59.6536 82.2742 59.1786C81.5346 58.7035 80.7026 58.4012 79.8335 58.2963C77.2141 57.9447 74.3359 59.4377 73.3991 62.0783C73.3744 62.14 73.3313 62.1893 73.2758 62.214C73.2203 62.2449 73.1525 62.251 73.0909 62.2387C73.0293 62.2264 72.9738 62.1893 72.9368 62.14C72.8998 62.0906 72.8813 62.0289 72.8813 61.9611V61.9734L72.8875 61.9857Z" fill="#302826"/>
<path d="M60.0805 62.0947C59.1498 59.4602 56.2654 57.961 53.646 58.3127C52.777 58.4176 51.9388 58.7199 51.2053 59.1949C50.4657 59.67 49.8432 60.3055 49.3872 61.052C48.7277 62.3168 47.5197 64.0257 45.9604 62.7856C44.8633 61.7183 45.5659 59.9415 46.3425 58.9173C48.0004 56.6469 51.0081 55.6351 53.6398 55.888C56.9372 56.1595 60.2407 58.5903 60.592 61.9836C60.592 62.0453 60.5735 62.107 60.5365 62.1625C60.4996 62.2119 60.4441 62.2489 60.3825 62.2612C60.3208 62.2736 60.253 62.2612 60.1976 62.2366C60.1421 62.2057 60.0989 62.1563 60.0743 62.1008V62.0885L60.0805 62.0947Z" fill="#302826"/>
<path opacity="0.35" d="M48.4252 70.9115C50.1694 70.9115 51.587 70.165 51.587 69.2519C51.587 68.3388 50.1694 67.5923 48.4252 67.5923C46.681 67.5923 45.2634 68.3388 45.2634 69.2519C45.2634 70.165 46.681 70.9115 48.4252 70.9115Z" fill="#FF6E79"/>
<path opacity="0.35" d="M86.2806 70.9115C88.0248 70.9115 89.4424 70.165 89.4424 69.2519C89.4424 68.3388 88.0248 67.5923 86.2806 67.5923C84.5364 67.5923 83.1189 68.3388 83.1189 69.2519C83.1189 70.165 84.5364 70.9115 86.2806 70.9115Z" fill="#FF6E79"/>
</g>
<defs>
<linearGradient id="paint0_linear_244_1009" x1="64" y1="0" x2="64" y2="128" gradientUnits="userSpaceOnUse">
<stop stop-color="#CDDDA7"/>
<stop offset="1" stop-color="#A2DAAF"/>
</linearGradient>
<clipPath id="clip0_244_1009">
<rect width="97.0774" height="94.2222" fill="white" transform="translate(16 16)"/>
</clipPath>
</defs>
</svg>
