<svg width="55" height="53" viewBox="0 0 55 53" fill="none" xmlns="http://www.w3.org/2000/svg">
<g clip-path="url(#clip0_216_3281)">
<path d="M36.4205 29.0064C35.0456 33.7995 31.2742 35.7353 25.1289 35.9204C22.9288 35.9865 20.7437 34.7476 19.1252 32.8345C16.2301 29.4068 15.1669 23.8186 19.1252 19.6959C19.1252 19.6959 21.5785 17.0198 25.4519 16.2909C27.2139 15.9623 29.0306 16.0888 30.7303 16.6572C37.5215 18.8725 37.7972 24.219 36.4205 29.0064Z" fill="#593636"/>
<path d="M19.129 32.8395C16.2339 29.4118 15.1706 23.8236 19.129 19.7009C19.129 19.7009 21.5822 17.0249 25.4556 16.2959C21.3632 18.0843 15.0913 22.6074 19.129 32.8395Z" fill="#593636"/>
<path d="M28.8191 28.5795C28.4565 28.079 27.7313 28.0318 27.1893 28.2188C26.9967 28.2868 26.8305 28.4152 26.7115 28.5814C26.6983 28.6002 26.6794 28.6135 26.6567 28.6172C26.6341 28.621 26.6114 28.6172 26.5925 28.604C26.5812 28.5965 26.5718 28.5851 26.5661 28.5738C26.5604 28.5625 26.5567 28.5474 26.5567 28.5341C26.5623 28.3925 26.6076 28.2528 26.6889 28.1357C27.1799 27.4388 28.3697 27.4369 28.8645 28.1357C28.9343 28.2395 29.11 28.604 28.9041 28.6305C28.8871 28.6305 28.8701 28.6248 28.855 28.6172C28.8399 28.6078 28.8286 28.5965 28.8191 28.5814V28.5776V28.5795Z" fill="#593636"/>
<path d="M29.7011 16.3697L29.465 16.3187C28.5056 16.1242 27.5255 16.0657 26.551 16.1431C26.449 16.1431 26.3451 16.1601 26.2432 16.1714C26.2186 14.7135 26.1941 9.96002 26.7871 5.97709C27.331 2.32843 28.3961 -0.674346 30.464 0.132061C31.5405 0.551317 32.0825 1.62967 32.277 3.04986C32.8663 7.29718 30.3488 14.5907 29.7011 16.3697Z" fill="#593636"/>
<path d="M37.2817 15.4712C35.769 17.0179 34.4923 18.1491 34.2015 18.4041L34.1807 18.4229C33.7482 18.0868 33.2893 17.7884 32.8058 17.5334C32.4886 17.3635 32.1543 17.2029 31.7955 17.0538L31.3044 16.7667C31.3044 16.7667 33.9597 11.424 36.8568 7.55628C39.0399 4.64226 41.3609 2.56487 42.7868 4.24C44.9586 6.78953 40.564 12.1096 37.2817 15.4712Z" fill="#593636"/>
<path d="M36.853 7.54638C35.6065 12.3131 32.8323 17.5368 32.8323 17.5368H32.8058C32.4886 17.3668 32.1543 17.2063 31.7955 17.0571C31.4612 16.9135 31.108 16.7851 30.736 16.6642C30.3866 16.5509 30.0429 16.4565 29.7048 16.3772L29.4688 16.3262C29.6992 14.1978 30.5604 7.15734 32.2808 3.05165C33.2232 0.798622 34.4243 -0.572459 35.9257 0.235837C37.8426 1.26887 37.7028 4.30753 36.853 7.54638Z" fill="#593636"/>
<path d="M40.8699 18.5526C38.7094 19.4289 36.6924 20.0351 35.8747 20.2749C35.8275 20.1994 35.7803 20.1276 35.7312 20.0559C35.3157 19.4629 34.8171 18.9341 34.2524 18.4846L34.2033 18.4091L33.8747 17.9086C33.8747 17.9086 35.3176 16.7906 37.2779 15.4667C41.1796 12.8397 47.1342 9.40449 47.9028 12.3468C48.5544 14.8359 44.5129 17.0757 40.8699 18.5507V18.5526Z" fill="#593636"/>
<path d="M52.3145 19.3613C52.1709 21.2989 49.831 22.3471 46.9718 22.8966C43.3005 23.6067 38.7868 23.4991 36.9965 23.4198C36.9871 23.3386 36.9738 23.2592 36.9606 23.178C36.8058 22.1431 36.4356 21.1535 35.8766 20.2716C35.8294 20.196 35.7822 20.1243 35.7331 20.0525C36.5074 19.7975 38.513 19.1573 40.8793 18.553C45.901 17.2726 52.5449 16.1697 52.3145 19.3613Z" fill="#593636"/>
<path d="M52.0935 31.9595C50.9811 33.9916 47.5459 33.5497 44.1144 32.46C40.8888 31.4326 37.665 29.8293 36.379 29.157C36.3941 29.1078 36.4092 29.0587 36.4224 29.0134C36.4507 28.9133 36.479 28.8132 36.5074 28.7113C36.6585 28.1522 36.7925 27.5876 36.8832 27.0229C36.9606 26.5697 37.0173 26.1145 37.0513 25.665C39.3383 25.9389 46.8566 26.9681 50.4203 28.9209C51.9462 29.7575 52.7432 30.766 52.0935 31.9595Z" fill="#593636"/>
<path d="M54.5675 26.5092C54.1142 28.0069 52.5052 28.7 50.4221 28.9171C45.782 29.4044 38.785 27.5536 36.887 27.0192C36.9644 26.5659 37.0211 26.1108 37.0551 25.6613C37.1155 24.9134 37.0985 24.1618 37.0022 23.4177C36.9927 23.3365 36.9795 23.2572 36.9663 23.176C38.6112 23.0324 42.9888 22.6944 46.9718 22.8889C51.3891 23.1174 55.3286 23.9956 54.5675 26.5092Z" fill="#593636"/>
<path d="M49.3683 39.0642C48.5563 39.8781 47.3665 39.9442 45.9992 39.5571C42.0351 38.4296 36.6377 33.4665 35.0456 31.9463C35.0815 31.8972 35.1155 31.8481 35.1495 31.7952C35.6915 30.9869 36.1032 30.0993 36.3752 29.1644C36.3903 29.1153 36.4054 29.0662 36.4186 29.0209C36.4469 28.9208 36.4753 28.8207 36.5036 28.7188C37.6934 29.2249 41.055 30.6998 44.1106 32.4694C47.8821 34.6393 51.1681 37.2606 49.3683 39.0642Z" fill="#593636"/>
<path d="M40.1636 49.0374C37.5215 49.874 34.9059 45.8098 33.0683 41.9157C32.0901 39.8194 31.2365 37.6665 30.515 35.4663L31.5651 34.6977L31.6217 34.6712C32.0939 34.4616 32.5471 34.2142 32.9758 33.929C33.0967 33.8497 33.21 33.7685 33.3252 33.6816C33.8691 34.3351 35.8747 36.7826 37.7425 39.5456C40.4412 43.5398 42.8491 48.1837 40.1636 49.0355V49.0374Z" fill="#593636"/>
<path d="M46.6866 43.3422C44.5884 45.0437 40.8265 42.4149 37.7444 39.5538C35.9786 37.8937 34.3186 36.1242 32.7737 34.2545L32.9758 33.9354C33.0967 33.856 33.21 33.7748 33.3252 33.688C33.9843 33.1988 34.5641 32.6096 35.04 31.9392C35.0759 31.8901 35.1099 31.841 35.1438 31.7881C37.0928 32.8797 43.2665 36.4641 45.9916 39.5556C47.3098 41.0438 47.8254 42.4168 46.6847 43.3403L46.6866 43.3422Z" fill="#593636"/>
<path d="M31.1326 51.6302C30.1562 51.4867 29.4537 50.7823 28.9551 49.7417C27.1308 45.9401 28.041 37.6362 28.2941 35.6343L28.4565 35.6079C29.5235 35.4341 30.5679 35.1301 31.5632 34.7052L31.6198 34.6787C31.7501 35.1905 32.5471 38.4124 33.0627 41.9137C33.7709 46.7182 33.9465 52.0476 31.1326 51.6302Z" fill="#593636"/>
<path d="M28.9551 49.7422C28.5642 51.9141 27.7408 53.321 26.1941 52.9358C25.1214 52.6695 24.4377 51.7762 24.0241 50.5222C22.6379 46.307 24.3357 38.0295 24.806 35.9257H25.127C25.6275 35.9106 26.111 35.8841 26.5812 35.8445C27.178 35.7954 27.7464 35.7255 28.296 35.6348L28.4584 35.6084C28.7417 37.5744 29.7596 45.2758 28.9551 49.7422Z" fill="#593636"/>
<path d="M24.6322 35.9183C24.2489 37.3083 22.3962 43.7935 20.113 47.9275C18.6588 50.5583 17.0309 52.2353 15.4936 51.0342C13.3274 49.342 14.9062 45.0815 16.978 41.3082C18.2546 39.0231 19.6805 36.8248 21.2423 34.7285C21.4123 34.8399 21.586 34.9457 21.7616 35.042C22.5964 35.5198 23.5218 35.8125 24.4774 35.9032C24.5265 35.9126 24.5869 35.9145 24.6341 35.9183H24.6322Z" fill="#593636"/>
<path d="M27.8843 36.1016C27.8843 36.1016 26.6209 46.8625 24.026 50.5225C23.2744 51.58 22.4132 52.0465 21.4368 51.4894C20.3471 50.8662 20.0072 49.5499 20.113 47.9276C20.3811 43.7634 23.5728 37.5784 24.4717 35.907C24.5246 35.907 24.5794 35.9165 24.6322 35.9184C24.6851 35.9222 24.7474 35.9184 24.806 35.9259H25.127C25.6275 35.9108 26.111 35.8844 26.5812 35.8447L27.8824 36.0997L27.8843 36.1016Z" fill="#593636"/>
<path d="M21.7598 35.0363C20.2735 37.2063 18.6777 39.2988 16.9761 41.3025C14.0337 44.717 10.5947 47.7877 9.15564 45.5763C7.44085 42.9474 11.8411 38.6359 15.3859 35.7653C17.1706 34.3187 18.7419 33.2403 19.2046 32.9287C19.2612 32.9948 19.3179 33.0571 19.3764 33.1213C19.9241 33.7332 20.5492 34.2734 21.2347 34.7247C21.4142 34.8418 21.5841 34.9457 21.7617 35.0363H21.7598Z" fill="#593636"/>
<path d="M16.7816 23.9255C16.5285 25.0114 16.4775 26.1332 16.6267 27.238C13.8033 26.9944 -0.540123 25.5081 1.52216 21.4704C2.72139 19.1248 7.07636 19.9501 10.9554 21.2646C12.9611 21.9595 14.9251 22.7697 16.8382 23.6894C16.8175 23.7688 16.7986 23.8462 16.7797 23.9236L16.7816 23.9255Z" fill="#593636"/>
<path d="M18.2433 20.7553C18.2036 20.8101 18.164 20.8649 18.1281 20.9196C17.5408 21.7619 17.1064 22.7005 16.842 23.6939C16.8212 23.7713 16.8023 23.8488 16.7835 23.9262C15.741 23.4956 13.386 22.5098 10.9554 21.2671C6.66654 19.0764 2.13594 16.0982 4.11324 14.0472C5.54286 12.561 8.2718 13.5071 10.9837 15.1388C14.0432 16.9783 17.0875 19.6845 18.2452 20.7553H18.2433Z" fill="#593636"/>
<path d="M20.4963 18.5231C20.4359 18.5665 20.3792 18.61 20.3226 18.6515C19.8958 18.9707 19.4954 19.3238 19.1252 19.7072C18.808 20.0377 18.5134 20.389 18.2433 20.761C18.2036 20.8158 18.164 20.8705 18.1281 20.9253C16.9194 20.0641 13.6296 17.6695 10.9819 15.1464C8.16605 12.4514 6.08299 9.62617 8.02063 8.37596C11.0744 6.40244 16.3302 12.729 18.9855 16.3532C19.7258 17.3749 20.264 18.1643 20.4963 18.5231Z" fill="#593636"/>
<path d="M23.4103 16.8894C23.3254 16.9215 23.2385 16.9593 23.1554 16.9952C22.213 17.3955 21.3197 17.9054 20.4963 18.5173C20.4359 18.5608 20.3792 18.6042 20.3226 18.6458C20.1658 18.387 19.6559 17.5428 18.9893 16.3606C16.4171 11.7904 11.5258 2.17013 15.5578 1.53558C18.3528 1.09555 20.3981 5.46374 21.7031 9.68652C22.417 12.051 22.9873 14.4551 23.4085 16.8894H23.4103Z" fill="#593636"/>
<path d="M19.4048 33.1704C19.4048 33.1704 17.69 34.3771 15.3897 35.7728C10.9592 38.4545 4.3833 41.8218 3.69021 38.5848C3.08776 35.7633 7.80345 33.4763 11.9356 32.0391C13.7863 31.4027 15.6692 30.8588 17.5748 30.4131C17.6276 30.5302 17.6843 30.6454 17.7447 30.7587C18.1281 31.5028 18.5927 32.2034 19.1328 32.8417L19.2121 32.9343C19.2688 33.0004 19.3254 33.0627 19.384 33.1269L19.4048 33.1722V33.1704Z" fill="#593636"/>
<path d="M17.7409 30.7565C17.3859 30.849 14.9176 31.4911 11.9299 32.0369C6.57589 33.0171 -0.441921 33.6932 0.0226599 30.3731C0.689315 25.6159 13.8336 26.9265 16.6305 27.2608C16.7778 28.3543 17.097 29.4175 17.5729 30.4109C17.6257 30.528 17.6824 30.6432 17.7428 30.7565H17.7409Z" fill="#593636"/>
<path d="M22.179 28.7094C22.7135 28.7094 23.1478 28.4809 23.1478 28.2014C23.1478 27.9219 22.7135 27.6934 22.179 27.6934C21.6446 27.6934 21.2102 27.9219 21.2102 28.2014C21.2102 28.4809 21.6446 28.7094 22.179 28.7094Z" fill="#593636"/>
<path d="M33.7784 28.7094C34.3129 28.7094 34.7473 28.4809 34.7473 28.2014C34.7473 27.9219 34.3129 27.6934 33.7784 27.6934C33.244 27.6934 32.8096 27.9219 32.8096 28.2014C32.8096 28.4809 33.244 28.7094 33.7784 28.7094Z" fill="#593636"/>
<path d="M26.5491 16.149C26.4471 16.149 26.3432 16.166 26.2413 16.1773C25.9712 16.2075 25.7068 16.2453 25.45 16.2944C24.7531 16.4266 24.0694 16.6249 23.4085 16.8874C23.3235 16.9195 23.2366 16.9554 23.1535 16.9932C22.9155 16.0432 22.1715 12.9517 21.6974 9.68075C21.0119 4.96317 20.8854 -0.132108 23.6407 0.268262C25.5803 0.55532 26.449 3.0312 26.7852 5.98487C27.2233 9.87338 26.738 14.5758 26.5472 16.1509L26.5491 16.149Z" fill="#593636"/>
<path d="M26.7852 5.98489L26.8985 5.28613C26.8985 5.28613 28.1411 8.03774 26.8985 16.1282L26.5491 16.149C26.5491 16.149 27.6973 12.3398 26.7852 5.983V5.98489Z" fill="#593636"/>
<path d="M23.1554 16.9947L22.908 17.1024C22.908 17.1024 21.9826 14.8928 21.4463 8.90234L21.7654 10.1412C21.7654 10.1412 22.5964 14.9495 23.1554 16.9929V16.9947Z" fill="#593636"/>
<path d="M37.2401 7.04785C37.2401 7.04785 36.1164 11.4349 33.1609 17.7351C32.955 17.6142 32.8209 17.5387 32.8209 17.5387C32.8209 17.5387 34.0938 15.9089 36.8492 7.54831L37.2401 7.04785Z" fill="#593636"/>
<path d="M32.2751 3.04966L32.4527 2.64551C32.4527 2.64551 31.5877 11.6066 30.1279 16.4942L29.6992 16.3771C29.6992 16.3771 30.872 13.2667 32.2751 3.05154V3.04966Z" fill="#593636"/>
<path d="M18.9855 16.3526L18.7003 15.9541C18.7003 15.9541 19.0913 17.0419 20.2112 18.7529L20.4321 18.5678C19.8561 17.8955 19.3689 17.1514 18.9855 16.3526Z" fill="#593636"/>
<path d="M10.9837 15.1405L10.5456 14.71C10.5456 14.71 13.8864 16.5645 18.2867 20.6626L18.1281 20.9157C18.1281 20.9157 13.9544 17.167 10.9837 15.1424V15.1405Z" fill="#593636"/>
<path d="M10.9516 21.2672L10.2227 21.0273C10.2227 21.0273 11.0801 21.8507 16.74 24.1094L16.7797 23.9263C16.7797 23.9263 12.9478 22.3418 10.9516 21.2672Z" fill="#593636"/>
<path d="M14.0545 27.0115C14.0545 27.0115 16.0394 27.1815 16.6267 27.24L16.6513 27.4081C15.5993 27.376 14.5531 27.2306 13.5314 26.9775L14.0545 27.0115Z" fill="#593636"/>
<path d="M11.8317 32.0562C13.826 31.7464 15.7995 31.3121 17.7409 30.7568L17.8467 30.9514C17.8467 30.9514 15.3274 32.0675 11.1726 32.3092L11.8336 32.0562H11.8317Z" fill="#593636"/>
<path d="M19.3802 33.1245C17.96 33.8649 16.621 34.7525 15.3859 35.7704L14.6041 36.2387C14.6041 36.2387 16.1602 34.8035 19.1687 32.8828L19.3821 33.1245H19.3802Z" fill="#593636"/>
<path d="M16.9761 41.3082C16.9761 41.3082 21.265 36.1279 21.7598 35.042L22.1072 35.2252C22.1072 35.2252 18.6663 39.8823 16.6494 41.9163L16.9761 41.3101V41.3082Z" fill="#593636"/>
<path d="M24.6322 35.9183C24.6322 35.9183 20.7909 42.6868 20.113 47.9275C19.8825 48.3373 19.8278 48.4374 19.8278 48.4374C19.8278 48.4374 20.5417 42.5376 24.3924 35.8994L24.6341 35.9202L24.6322 35.9183Z" fill="#593636"/>
<path d="M24.0241 50.5223C24.0241 50.5223 27.5236 44.6905 27.5481 35.7445L27.6917 35.7256C27.6917 35.7256 27.9428 43.6858 24.077 50.6904C24.0543 50.6356 24.0373 50.579 24.0241 50.5204V50.5223Z" fill="#593636"/>
<path d="M28.9551 49.7426C28.9551 49.7426 27.1572 44.8249 27.2176 41.3027L27.1308 41.8013C27.1308 41.8013 26.9702 43.856 28.9098 49.9768L28.9532 49.7407L28.9551 49.7426Z" fill="#593636"/>
<path d="M31.6217 34.6795C31.6217 34.6795 32.3941 37.6653 33.0646 41.9145L33.1647 42.1222C32.8361 39.5954 32.3658 37.0912 31.7539 34.6172L31.6217 34.6776V34.6795Z" fill="#593636"/>
<path d="M37.7444 39.553C37.7444 39.553 34.1467 36.0592 32.9758 33.9365L32.8323 34.0291C32.8323 34.0291 34.0107 36.0876 38.2505 40.3292L37.7425 39.553H37.7444Z" fill="#593636"/>
<path d="M35.1514 31.7896C35.1514 31.7896 43.0965 36.0973 45.9992 39.5571C46.2692 39.6289 44.0124 36.6526 35.2798 31.6045L35.1514 31.7896Z" fill="#593636"/>
<path d="M44.1144 32.4605C41.4893 31.3992 38.9455 30.1452 36.5055 28.708L36.4488 28.9139C39.0607 30.4266 41.7953 31.7127 44.6243 32.757L44.1163 32.4586L44.1144 32.4605Z" fill="#593636"/>
<path d="M37.0475 25.6615C37.0475 25.6615 46.0747 26.4283 50.4165 28.9174L50.7545 28.8777C50.7545 28.8777 46.2447 26.4037 37.0645 25.416L37.0475 25.6615Z" fill="#593636"/>
<path d="M37.2817 15.4707C36.4885 16.6681 35.48 17.703 34.3053 18.5226C34.4791 18.6661 34.4092 18.6076 34.4092 18.6076C34.4092 18.6076 36.5433 16.9608 37.7179 15.1855L37.2817 15.4707Z" fill="#593636"/>
<path d="M41.546 18.2715C41.546 18.2715 38.1447 19.1534 36.0636 20.5831L36.1278 20.6964C36.1278 20.6964 38.8359 19.0817 40.8699 18.5529L41.546 18.2715Z" fill="#593636"/>
<path d="M36.9946 23.4177C36.9946 23.4177 39.9219 23.6027 46.9699 22.8945L47.3721 22.9172C47.3721 22.9172 44.5129 23.5291 37.0267 23.6764L36.9946 23.4158V23.4177Z" fill="#593636"/>
<path d="M29.7011 16.3697L29.465 16.3187C28.5056 16.1242 27.5255 16.0657 26.551 16.1431C26.449 16.1431 26.3451 16.1601 26.2432 16.1714C26.2186 14.7135 26.1941 9.96002 26.7871 5.97709C27.331 2.32843 28.3961 -0.674346 30.464 0.132061C31.5405 0.551317 32.0825 1.62967 32.277 3.04986C32.8663 7.29718 30.3488 14.5907 29.7011 16.3697Z" fill="#FFEEEE"/>
<path d="M37.2817 15.4712C35.769 17.0179 34.4923 18.1491 34.2015 18.4041L34.1807 18.4229C33.7482 18.0868 33.2893 17.7884 32.8058 17.5334C32.4886 17.3635 32.1543 17.2029 31.7955 17.0538L31.3044 16.7667C31.3044 16.7667 33.9597 11.424 36.8568 7.55628C39.0399 4.64226 41.3609 2.56487 42.7868 4.24C44.9586 6.78953 40.564 12.1096 37.2817 15.4712Z" fill="#FFEEEE"/>
<path d="M36.853 7.54638C35.6065 12.3131 32.8323 17.5368 32.8323 17.5368H32.8058C32.4886 17.3668 32.1543 17.2063 31.7955 17.0571C31.4612 16.9135 31.108 16.7851 30.736 16.6642C30.3866 16.5509 30.0429 16.4565 29.7048 16.3772L29.4688 16.3262C29.6992 14.1978 30.5604 7.15734 32.2808 3.05165C33.2232 0.798622 34.4243 -0.572459 35.9257 0.235837C37.8426 1.26887 37.7028 4.30753 36.853 7.54638Z" fill="#FFEEEE"/>
<path d="M40.8699 18.5526C38.7094 19.4289 36.6924 20.0351 35.8747 20.2749C35.8275 20.1994 35.7803 20.1276 35.7312 20.0559C35.3157 19.4629 34.8171 18.9341 34.2524 18.4846L34.2033 18.4091L33.8747 17.9086C33.8747 17.9086 35.3176 16.7906 37.2779 15.4667C41.1796 12.8397 47.1342 9.40449 47.9028 12.3468C48.5544 14.8359 44.5129 17.0757 40.8699 18.5507V18.5526Z" fill="#FFEEEE"/>
<path d="M52.3145 19.3613C52.1709 21.2989 49.831 22.3471 46.9718 22.8966C43.3005 23.6067 38.7868 23.4991 36.9965 23.4198C36.9871 23.3386 36.9738 23.2592 36.9606 23.178C36.8058 22.1431 36.4356 21.1535 35.8766 20.2716C35.8294 20.196 35.7822 20.1243 35.7331 20.0525C36.5074 19.7975 38.513 19.1573 40.8793 18.553C45.901 17.2726 52.5449 16.1697 52.3145 19.3613Z" fill="#FFEEEE"/>
<path d="M52.0935 31.9595C50.9811 33.9916 47.5459 33.5497 44.1144 32.46C40.8888 31.4326 37.665 29.8293 36.379 29.157C36.3941 29.1078 36.4092 29.0587 36.4224 29.0134C36.4507 28.9133 36.479 28.8132 36.5074 28.7113C36.6585 28.1522 36.7925 27.5876 36.8832 27.0229C36.9606 26.5697 37.0173 26.1145 37.0513 25.665C39.3383 25.9389 46.8566 26.9681 50.4203 28.9209C51.9462 29.7575 52.7432 30.766 52.0935 31.9595Z" fill="#FFEEEE"/>
<path d="M54.5675 26.5092C54.1142 28.0069 52.5052 28.7 50.4221 28.9171C45.782 29.4044 38.785 27.5536 36.887 27.0192C36.9644 26.5659 37.0211 26.1108 37.0551 25.6613C37.1155 24.9134 37.0985 24.1618 37.0022 23.4177C36.9927 23.3365 36.9795 23.2572 36.9663 23.176C38.6112 23.0324 42.9888 22.6944 46.9718 22.8889C51.3891 23.1174 55.3286 23.9956 54.5675 26.5092Z" fill="#FFEEEE"/>
<path d="M49.3683 39.0642C48.5563 39.8781 47.3665 39.9442 45.9992 39.5571C42.0351 38.4296 36.6377 33.4665 35.0456 31.9463C35.0815 31.8972 35.1155 31.8481 35.1495 31.7952C35.6915 30.9869 36.1032 30.0993 36.3752 29.1644C36.3903 29.1153 36.4054 29.0662 36.4186 29.0209C36.4469 28.9208 36.4753 28.8207 36.5036 28.7188C37.6934 29.2249 41.055 30.6998 44.1106 32.4694C47.8821 34.6393 51.1681 37.2606 49.3683 39.0642Z" fill="#FFEEEE"/>
<path d="M40.1636 49.0374C37.5215 49.874 34.9059 45.8098 33.0683 41.9157C32.0901 39.8194 31.2365 37.6665 30.515 35.4663L31.5651 34.6977L31.6217 34.6712C32.0939 34.4616 32.5471 34.2142 32.9758 33.929C33.0967 33.8497 33.21 33.7685 33.3252 33.6816C33.8691 34.3351 35.8747 36.7826 37.7425 39.5456C40.4412 43.5398 42.8491 48.1837 40.1636 49.0355V49.0374Z" fill="#FFEEEE"/>
<path d="M46.6866 43.3422C44.5884 45.0437 40.8265 42.4149 37.7444 39.5538C35.9786 37.8937 34.3186 36.1242 32.7737 34.2545L32.9758 33.9354C33.0967 33.856 33.21 33.7748 33.3252 33.688C33.9843 33.1988 34.5641 32.6096 35.04 31.9392C35.0759 31.8901 35.1099 31.841 35.1438 31.7881C37.0928 32.8797 43.2665 36.4641 45.9916 39.5556C47.3098 41.0438 47.8254 42.4168 46.6847 43.3403L46.6866 43.3422Z" fill="#FFEEEE"/>
<path d="M31.1326 51.6302C30.1562 51.4867 29.4537 50.7823 28.9551 49.7417C27.1308 45.9401 28.041 37.6362 28.2941 35.6343L28.4565 35.6079C29.5235 35.4341 30.5679 35.1301 31.5632 34.7052L31.6198 34.6787C31.7501 35.1905 32.5471 38.4124 33.0627 41.9137C33.7709 46.7182 33.9465 52.0476 31.1326 51.6302Z" fill="#FFEEEE"/>
<path d="M28.9551 49.7422C28.5642 51.9141 27.7408 53.321 26.1941 52.9358C25.1214 52.6695 24.4377 51.7762 24.0241 50.5222C22.6379 46.307 24.3357 38.0295 24.806 35.9257H25.127C25.6275 35.9106 26.111 35.8841 26.5812 35.8445C27.178 35.7954 27.7464 35.7255 28.296 35.6348L28.4584 35.6084C28.7417 37.5744 29.7596 45.2758 28.9551 49.7422Z" fill="#FFEEEE"/>
<path d="M24.6322 35.9183C24.2489 37.3083 22.3962 43.7935 20.113 47.9275C18.6588 50.5583 17.0309 52.2353 15.4936 51.0342C13.3274 49.342 14.9062 45.0815 16.978 41.3082C18.2546 39.0231 19.6805 36.8248 21.2423 34.7285C21.4123 34.8399 21.586 34.9457 21.7616 35.042C22.5964 35.5198 23.5218 35.8125 24.4774 35.9032C24.5265 35.9126 24.5869 35.9145 24.6341 35.9183H24.6322Z" fill="#FFEEEE"/>
<path d="M27.8843 36.1016C27.8843 36.1016 26.6209 46.8625 24.026 50.5225C23.2744 51.58 22.4132 52.0465 21.4368 51.4894C20.3471 50.8662 20.0072 49.5499 20.113 47.9276C20.3811 43.7634 23.5728 37.5784 24.4717 35.907C24.5246 35.907 24.5794 35.9165 24.6322 35.9184C24.6851 35.9222 24.7474 35.9184 24.806 35.9259H25.127C25.6275 35.9108 26.111 35.8844 26.5812 35.8447L27.8824 36.0997L27.8843 36.1016Z" fill="#FFEEEE"/>
<path d="M21.7598 35.0363C20.2735 37.2063 18.6777 39.2988 16.9761 41.3025C14.0337 44.717 10.5947 47.7877 9.15564 45.5763C7.44085 42.9474 11.8411 38.6359 15.3859 35.7653C17.1706 34.3187 18.7419 33.2403 19.2046 32.9287C19.2612 32.9948 19.3179 33.0571 19.3764 33.1213C19.9241 33.7332 20.5492 34.2734 21.2347 34.7247C21.4142 34.8418 21.5841 34.9457 21.7617 35.0363H21.7598Z" fill="#FFEEEE"/>
<path d="M16.7816 23.9255C16.5285 25.0114 16.4775 26.1332 16.6267 27.238C13.8033 26.9944 -0.540123 25.5081 1.52216 21.4704C2.72139 19.1248 7.07636 19.9501 10.9554 21.2646C12.9611 21.9595 14.9251 22.7697 16.8382 23.6894C16.8175 23.7688 16.7986 23.8462 16.7797 23.9236L16.7816 23.9255Z" fill="#FFEEEE"/>
<path d="M18.2433 20.7553C18.2036 20.8101 18.164 20.8649 18.1281 20.9196C17.5408 21.7619 17.1064 22.7005 16.842 23.6939C16.8212 23.7713 16.8023 23.8488 16.7835 23.9262C15.741 23.4956 13.386 22.5098 10.9554 21.2671C6.66654 19.0764 2.13594 16.0982 4.11324 14.0472C5.54286 12.561 8.2718 13.5071 10.9837 15.1388C14.0432 16.9783 17.0875 19.6845 18.2452 20.7553H18.2433Z" fill="#FFEEEE"/>
<path d="M20.4963 18.5231C20.4359 18.5665 20.3792 18.61 20.3226 18.6515C19.8958 18.9707 19.4954 19.3238 19.1252 19.7072C18.808 20.0377 18.5134 20.389 18.2433 20.761C18.2036 20.8158 18.164 20.8705 18.1281 20.9253C16.9194 20.0641 13.6296 17.6695 10.9819 15.1464C8.16605 12.4514 6.08299 9.62617 8.02063 8.37596C11.0744 6.40244 16.3302 12.729 18.9855 16.3532C19.7258 17.3749 20.264 18.1643 20.4963 18.5231Z" fill="#FFEEEE"/>
<path d="M23.4103 16.8894C23.3254 16.9215 23.2385 16.9593 23.1554 16.9952C22.213 17.3955 21.3197 17.9054 20.4963 18.5173C20.4359 18.5608 20.3792 18.6042 20.3226 18.6458C20.1658 18.387 19.6559 17.5428 18.9893 16.3606C16.4171 11.7904 11.5258 2.17013 15.5578 1.53558C18.3528 1.09555 20.3981 5.46374 21.7031 9.68652C22.417 12.051 22.9873 14.4551 23.4085 16.8894H23.4103Z" fill="#FFEEEE"/>
<path d="M19.4048 33.1704C19.4048 33.1704 17.69 34.3771 15.3897 35.7728C10.9592 38.4545 4.3833 41.8218 3.69021 38.5848C3.08776 35.7633 7.80345 33.4763 11.9356 32.0391C13.7863 31.4027 15.6692 30.8588 17.5748 30.4131C17.6276 30.5302 17.6843 30.6454 17.7447 30.7587C18.1281 31.5028 18.5927 32.2034 19.1328 32.8417L19.2121 32.9343C19.2688 33.0004 19.3254 33.0627 19.384 33.1269L19.4048 33.1722V33.1704Z" fill="#FFEEEE"/>
<path d="M17.7409 30.7565C17.3859 30.849 14.9176 31.4911 11.9299 32.0369C6.57589 33.0171 -0.441921 33.6932 0.0226599 30.3731C0.689315 25.6159 13.8336 26.9265 16.6305 27.2608C16.7778 28.3543 17.097 29.4175 17.5729 30.4109C17.6257 30.528 17.6824 30.6432 17.7428 30.7565H17.7409Z" fill="#FFEEEE"/>
<path d="M26.5491 16.149C26.4471 16.149 26.3432 16.166 26.2413 16.1773C25.9712 16.2075 25.7068 16.2453 25.45 16.2944C24.7531 16.4266 24.0694 16.6249 23.4085 16.8874C23.3235 16.9195 23.2366 16.9554 23.1535 16.9932C22.9155 16.0432 22.1715 12.9517 21.6974 9.68075C21.0119 4.96317 20.8854 -0.132108 23.6407 0.268262C25.5803 0.55532 26.449 3.0312 26.7852 5.98487C27.2233 9.87338 26.738 14.5758 26.5472 16.1509L26.5491 16.149Z" fill="#FFEEEE"/>
<path opacity="0.03" d="M26.7852 5.98489L26.8985 5.28613C26.8985 5.28613 28.1411 8.03774 26.8985 16.1282L26.5491 16.149C26.5491 16.149 27.6973 12.3398 26.7852 5.983V5.98489Z" fill="black"/>
<path opacity="0.03" d="M23.1554 16.9947L22.908 17.1024C22.908 17.1024 21.9826 14.8928 21.4463 8.90234L21.7654 10.1412C21.7654 10.1412 22.5964 14.9495 23.1554 16.9929V16.9947Z" fill="black"/>
<path opacity="0.03" d="M37.2401 7.04785C37.2401 7.04785 36.1164 11.4349 33.1609 17.7351C32.955 17.6142 32.8209 17.5387 32.8209 17.5387C32.8209 17.5387 34.0938 15.9089 36.8492 7.54831L37.2401 7.04785Z" fill="black"/>
<path opacity="0.03" d="M32.2751 3.04966L32.4527 2.64551C32.4527 2.64551 31.5877 11.6066 30.1279 16.4942L29.6992 16.3771C29.6992 16.3771 30.872 13.2667 32.2751 3.05154V3.04966Z" fill="black"/>
<path opacity="0.03" d="M18.9855 16.3526L18.7003 15.9541C18.7003 15.9541 19.0913 17.0419 20.2112 18.7529L20.4321 18.5678C19.8561 17.8955 19.3689 17.1514 18.9855 16.3526Z" fill="black"/>
<path opacity="0.03" d="M10.9837 15.1405L10.5456 14.71C10.5456 14.71 13.8864 16.5645 18.2867 20.6626L18.1281 20.9157C18.1281 20.9157 13.9544 17.167 10.9837 15.1424V15.1405Z" fill="black"/>
<path opacity="0.03" d="M10.9516 21.2672L10.2227 21.0273C10.2227 21.0273 11.0801 21.8507 16.74 24.1094L16.7797 23.9263C16.7797 23.9263 12.9478 22.3418 10.9516 21.2672Z" fill="black"/>
<path opacity="0.03" d="M14.0545 27.0115C14.0545 27.0115 16.0394 27.1815 16.6267 27.24L16.6513 27.4081C15.5993 27.376 14.5531 27.2306 13.5314 26.9775L14.0545 27.0115Z" fill="black"/>
<path opacity="0.03" d="M11.8317 32.0562C13.826 31.7464 15.7995 31.3121 17.7409 30.7568L17.8467 30.9514C17.8467 30.9514 15.3274 32.0675 11.1726 32.3092L11.8336 32.0562H11.8317Z" fill="black"/>
<path opacity="0.03" d="M19.3802 33.1245C17.96 33.8649 16.621 34.7525 15.3859 35.7704L14.6041 36.2387C14.6041 36.2387 16.1602 34.8035 19.1687 32.8828L19.3821 33.1245H19.3802Z" fill="black"/>
<path opacity="0.03" d="M16.9761 41.3082C16.9761 41.3082 21.265 36.1279 21.7598 35.042L22.1072 35.2252C22.1072 35.2252 18.6663 39.8823 16.6494 41.9163L16.9761 41.3101V41.3082Z" fill="black"/>
<path opacity="0.03" d="M24.6322 35.9183C24.6322 35.9183 20.7909 42.6868 20.113 47.9275C19.8825 48.3373 19.8278 48.4374 19.8278 48.4374C19.8278 48.4374 20.5417 42.5376 24.3924 35.8994L24.6341 35.9202L24.6322 35.9183Z" fill="black"/>
<path opacity="0.03" d="M24.0241 50.5223C24.0241 50.5223 27.5236 44.6905 27.5481 35.7445L27.6917 35.7256C27.6917 35.7256 27.9428 43.6858 24.077 50.6904C24.0543 50.6356 24.0373 50.579 24.0241 50.5204V50.5223Z" fill="black"/>
<path opacity="0.03" d="M28.9551 49.7426C28.9551 49.7426 27.1572 44.8249 27.2176 41.3027L27.1308 41.8013C27.1308 41.8013 26.9702 43.856 28.9098 49.9768L28.9532 49.7407L28.9551 49.7426Z" fill="black"/>
<path opacity="0.03" d="M31.6217 34.6795C31.6217 34.6795 32.3941 37.6653 33.0646 41.9145L33.1647 42.1222C32.8361 39.5954 32.3658 37.0912 31.7539 34.6172L31.6217 34.6776V34.6795Z" fill="black"/>
<path opacity="0.03" d="M37.7444 39.553C37.7444 39.553 34.1467 36.0592 32.9758 33.9365L32.8323 34.0291C32.8323 34.0291 34.0107 36.0876 38.2505 40.3292L37.7425 39.553H37.7444Z" fill="black"/>
<path opacity="0.03" d="M35.1514 31.7896C35.1514 31.7896 43.0965 36.0973 45.9992 39.5571C46.2692 39.6289 44.0124 36.6526 35.2798 31.6045L35.1514 31.7896Z" fill="black"/>
<path opacity="0.03" d="M44.1144 32.4605C41.4893 31.3992 38.9455 30.1452 36.5055 28.708L36.4488 28.9139C39.0607 30.4266 41.7953 31.7127 44.6243 32.757L44.1163 32.4586L44.1144 32.4605Z" fill="black"/>
<path opacity="0.03" d="M37.0475 25.6615C37.0475 25.6615 46.0747 26.4283 50.4165 28.9174L50.7545 28.8777C50.7545 28.8777 46.2447 26.4037 37.0645 25.416L37.0475 25.6615Z" fill="black"/>
<path opacity="0.03" d="M37.2817 15.4707C36.4885 16.6681 35.48 17.703 34.3053 18.5226C34.4791 18.6661 34.4092 18.6076 34.4092 18.6076C34.4092 18.6076 36.5433 16.9608 37.7179 15.1855L37.2817 15.4707Z" fill="black"/>
<path opacity="0.03" d="M41.546 18.2715C41.546 18.2715 38.1447 19.1534 36.0636 20.5831L36.1278 20.6964C36.1278 20.6964 38.8359 19.0817 40.8699 18.5529L41.546 18.2715Z" fill="black"/>
<path opacity="0.03" d="M36.9946 23.4177C36.9946 23.4177 39.9219 23.6027 46.9699 22.8945L47.3721 22.9172C47.3721 22.9172 44.5129 23.5291 37.0267 23.6764L36.9946 23.4158V23.4177Z" fill="black"/>
<path d="M44.4615 31.8869C42.0168 40.4099 35.3105 43.852 24.3831 44.1811C20.4709 44.2986 16.5855 42.0957 13.7076 38.6939C8.55954 32.5988 6.66891 22.6621 13.7076 15.3312C13.7076 15.3312 18.0698 10.5727 24.9574 9.2765C28.0905 8.69219 31.3211 8.91718 34.3434 9.92798C46.4193 13.8671 46.9096 23.374 44.4615 31.8869Z" fill="#FFCD50"/>
<path d="M13.7142 38.7054C8.56614 32.6104 6.6755 22.6737 13.7142 15.3428C13.7142 15.3428 18.0764 10.5843 24.964 9.28809C17.6869 12.4683 6.53446 20.511 13.7142 38.7054Z" fill="#FFC033"/>
<path d="M30.9449 31.129C30.3002 30.2391 29.0107 30.1551 28.0469 30.4876C27.7043 30.6085 27.4088 30.8368 27.1973 31.1323C27.1737 31.1659 27.1402 31.1894 27.0999 31.1961C27.0596 31.2029 27.0193 31.1961 26.9857 31.1726C26.9655 31.1592 26.9487 31.139 26.9387 31.1189C26.9286 31.0987 26.9219 31.0719 26.9219 31.0484C26.932 30.7965 27.0126 30.548 27.157 30.3398C28.0301 29.1007 30.1457 29.0973 31.0255 30.3398C31.1498 30.5245 31.4621 31.1726 31.0961 31.2196C31.0658 31.2196 31.0356 31.2096 31.0087 31.1961C30.9819 31.1793 30.9617 31.1592 30.9449 31.1323V31.1256V31.129Z" fill="#302826"/>
<path opacity="0.35" d="M19.1376 31.3614C20.0879 31.3614 20.8603 30.955 20.8603 30.458C20.8603 29.961 20.0879 29.5547 19.1376 29.5547C18.1872 29.5547 17.4148 29.961 17.4148 30.458C17.4148 30.955 18.1872 31.3614 19.1376 31.3614Z" fill="#FF6E79"/>
<path opacity="0.35" d="M39.7634 31.3614C40.7138 31.3614 41.4862 30.955 41.4862 30.458C41.4862 29.961 40.7138 29.5547 39.7634 29.5547C38.8131 29.5547 38.0407 29.961 38.0407 30.458C38.0407 30.955 38.8131 31.3614 39.7634 31.3614Z" fill="#FF6E79"/>
<path d="M20.5045 22.2285L26.1126 25.7613" stroke="#302826" stroke-width="0.5" stroke-miterlimit="10" stroke-linecap="round"/>
<path d="M37.913 22.2285L32.3049 25.7613" stroke="#302826" stroke-width="0.5" stroke-miterlimit="10" stroke-linecap="round"/>
</g>
<defs>
<clipPath id="clip0_216_3281">
<rect width="54.6619" height="53" fill="white"/>
</clipPath>
</defs>
</svg>
