<?xml version="1.0" encoding="UTF-8"?>
<svg id="Calque_2" data-name="Calque 2" xmlns="http://www.w3.org/2000/svg" xmlns:xlink="http://www.w3.org/1999/xlink" viewBox="0 0 138 71">
  <defs>
    <style>
      .cls-1 {
        fill: #efefef;
      }

      .cls-2 {
        fill: #a7a7a7;
      }

      .cls-3 {
        fill: #d4d4d4;
      }

      .cls-4 {
        fill: #6f6f6f;
      }

      .cls-5 {
        fill: #302826;
      }

      .cls-6 {
        fill: silver;
        opacity: .35;
      }

      .cls-6, .cls-7 {
        isolation: isolate;
      }

      .cls-7 {
        opacity: .05;
      }

      .cls-8 {
        fill: url(#Dégradé_sans_nom_3);
      }
    </style>
    <linearGradient id="Dégradé_sans_nom_3" data-name="Dégradé sans nom 3" x1="-140" y1="-2435.28" x2="-140" y2="-2499.28" gradientTransform="translate(176 -2431.28) scale(1 -1)" gradientUnits="userSpaceOnUse">
      <stop offset="0" stop-color="#d1d1d1"/>
      <stop offset="1" stop-color="#c7c7c7"/>
    </linearGradient>
  </defs>
  <g id="Calque_1-2" data-name="Calque 1">
    <path class="cls-2" d="M35.5,0H102.5c19.61,0,35.5,15.89,35.5,35.5h0c0,19.61-15.89,35.5-35.5,35.5H35.5C15.89,71,0,55.11,0,35.5H0C0,15.89,15.89,0,35.5,0Z"/>
    <circle class="cls-8" cx="36" cy="36" r="32"/>
    <path class="cls-4" d="M38.64,26.21h0c-.07-.02-.15-.03-.22-.05-.95-.19-1.86-.23-2.7-.16-.1,0-.19,.02-.28,.03-.02-1.34-.04-5.73,.5-9.4,.5-3.37,1.49-6.14,3.41-5.4,1,.39,1.5,1.38,1.68,2.69,.55,3.92-1.79,10.65-2.39,12.29Z"/>
    <path class="cls-4" d="M45.67,25.38h0c-1.4,1.43-2.58,2.47-2.86,2.71,0,0-.01,.01-.02,.02-.38-.29-.8-.57-1.27-.82h0c-.29-.16-.6-.31-.94-.44l-.45-.27s2.46-4.93,5.15-8.5c2.02-2.69,4.17-4.61,5.5-3.06,2.02,2.36-2.06,7.27-5.1,10.37h0Z"/>
    <path class="cls-4" d="M45.27,18.06c-1.16,4.4-3.73,9.22-3.73,9.22h-.03s0,0,0,0c-.29-.16-.6-.31-.94-.44-.31-.13-.64-.25-.98-.36-.32-.1-.64-.19-.96-.26h0c-.07-.02-.15-.03-.22-.05,.21-1.96,1.01-8.46,2.61-12.25,.87-2.08,1.99-3.34,3.38-2.6,1.78,.96,1.65,3.75,.86,6.75h0Z"/>
    <path class="cls-4" d="M48.99,28.22c-2,.81-3.87,1.37-4.63,1.59-.04-.07-.09-.14-.14-.2-.36-.52-.82-1.01-1.37-1.45h0l-.05-.07-.3-.46s1.34-1.03,3.15-2.25h0c3.61-2.43,9.13-5.6,9.85-2.89,.6,2.3-3.14,4.37-6.52,5.73Z"/>
    <path class="cls-4" d="M59.6,28.96c-.13,1.79-2.3,2.75-4.95,3.26h0c-3.4,.65-7.59,.56-9.25,.48,0-.07-.02-.15-.03-.22-.15-.95-.47-1.85-1.01-2.68-.04-.07-.09-.14-.14-.2,.72-.24,2.58-.83,4.77-1.38,4.66-1.18,10.82-2.2,10.61,.75h0Z"/>
    <path class="cls-4" d="M59.4,40.59c-1.03,1.87-4.21,1.47-7.4,.46,0,0,0,0,0,0-2.99-.95-5.98-2.43-7.17-3.04,.01-.05,.03-.09,.04-.14,.03-.09,.05-.19,.08-.28,.14-.52,.26-1.04,.35-1.56,.07-.42,.12-.84,.16-1.25,2.12,.25,9.09,1.2,12.39,3,1.42,.77,2.16,1.71,1.55,2.81h0Z"/>
    <path class="cls-4" d="M61.69,35.56c-.42,1.38-1.91,2.02-3.85,2.22-4.3,.45-10.79-1.26-12.55-1.75,.07-.42,.12-.84,.16-1.25,.05-.7,.04-1.4-.05-2.07,0-.07-.02-.15-.03-.22,1.52-.14,5.58-.44,9.28-.26h0c4.09,.21,7.74,1.02,7.04,3.33Z"/>
    <path class="cls-4" d="M56.87,47.14c-.75,.75-1.86,.81-3.12,.45-3.68-1.04-8.68-5.62-10.15-7.03,.03-.04,.06-.09,.1-.14,.48-.7,.86-1.5,1.14-2.43,.01-.05,.03-.09,.04-.14,.03-.09,.05-.19,.08-.28,1.1,.47,4.22,1.83,7.05,3.46,0,0,0,0,0,0,3.49,2.01,6.54,4.43,4.87,6.09Z"/>
    <path class="cls-4" d="M48.34,56.34c-2.45,.77-4.87-2.98-6.58-6.57,0,0,0,0,0,0-1.44-3.03-2.36-5.94-2.36-5.94l.97-.71s.04-.02,.05-.02c.45-.2,.87-.43,1.26-.68h0c.11-.07,.22-.15,.32-.23,.5,.6,2.36,2.86,4.1,5.41,2.5,3.68,4.73,7.97,2.24,8.75Z"/>
    <path class="cls-4" d="M54.38,51.09c-1.94,1.57-5.43-.86-8.29-3.49-2.55-2.36-4.61-4.89-4.61-4.89l.19-.29h0c.11-.07,.22-.15,.32-.23,.61-.45,1.15-.99,1.6-1.61,.03-.04,.06-.09,.1-.14,1.81,1.01,7.53,4.31,10.06,7.17,1.22,1.37,1.69,2.64,.64,3.49h0Z"/>
    <path class="cls-4" d="M39.97,58.74c-.9-.13-1.56-.78-2.02-1.74-1.69-3.51-.85-11.17-.61-13.02,.05,0,.1-.02,.15-.03,1.07-.19,2.03-.46,2.88-.83,.02,0,.04-.02,.05-.02,.12,.47,.86,3.44,1.34,6.68,0,0,0,0,0,0,.65,4.43,.82,9.35-1.79,8.96h0Z"/>
    <path class="cls-4" d="M37.95,57c-.36,2-1.12,3.3-2.56,2.95-.99-.25-1.63-1.07-2.01-2.23-1.29-3.89,.29-11.52,.72-13.47h0c.1,0,.2,0,.3,0,.46-.01,.91-.04,1.35-.07h0c.55-.05,1.08-.11,1.59-.19,.05,0,.1-.02,.15-.03,.26,1.81,1.21,8.92,.46,13.04h0Z"/>
    <path class="cls-4" d="M33.94,44.24c-.35,1.28-2.07,7.27-4.19,11.08-1.35,2.43-2.86,3.97-4.28,2.87-2.01-1.56-.54-5.49,1.38-8.97,1.55-2.82,3.4-5.34,3.95-6.07,.16,.1,.32,.2,.48,.29,.8,.44,1.65,.72,2.51,.8,.05,0,.1,0,.15,.01Z"/>
    <path class="cls-4" d="M36.96,44.41s-1.17,9.93-3.58,13.31c-.7,.98-1.5,1.41-2.4,.89-1.01-.57-1.32-1.79-1.23-3.29,.25-3.84,3.21-9.55,4.04-11.09,.05,0,.1,0,.15,.01,.05,0,.11,0,.16,0h0c.1,0,.2,0,.3,0,.46-.01,.91-.04,1.35-.07h0l1.21,.24h0Z"/>
    <path class="cls-4" d="M31.28,43.43c-.47,.69-2.32,3.33-4.43,5.78-2.73,3.15-5.92,5.98-7.25,3.94-1.58-2.43,2.49-6.4,5.78-9.05,0,0,0,0,0,0,1.65-1.33,3.11-2.33,3.54-2.62,.05,.06,.1,.12,.16,.18,.52,.58,1.1,1.08,1.73,1.48,.16,.1,.32,.2,.48,.29h0Z"/>
    <path class="cls-4" d="M26.67,33.17c-.24,1.02-.28,2.05-.14,3.06-2.62-.23-15.91-1.6-14-5.32,1.11-2.16,5.15-1.4,8.74-.19,2.3,.78,4.41,1.74,5.46,2.24-.02,.07-.04,.14-.05,.21Z"/>
    <path class="cls-4" d="M28.02,30.25c-.04,.05-.07,.1-.11,.15-.57,.82-.96,1.68-1.19,2.56-.02,.07-.04,.14-.05,.21-.97-.39-3.15-1.31-5.4-2.45-3.97-2.02-8.17-4.77-6.34-6.66,1.33-1.37,3.85-.5,6.37,1.01,0,0,0,0,0,0,2.84,1.7,5.66,4.19,6.73,5.18Z"/>
    <path class="cls-4" d="M30.11,28.18c-.06,.04-.11,.08-.16,.12-.72,.55-1.11,.97-1.11,.97-.3,.32-.58,.64-.82,.97-.04,.05-.07,.1-.11,.15-1.12-.79-4.17-3-6.62-5.33h0c-2.61-2.48-4.54-5.09-2.75-6.24,2.83-1.82,7.7,4.02,10.16,7.36,0,0,0,0,0,0,.68,.93,1.18,1.67,1.4,1.99Z"/>
    <path class="cls-4" d="M32.81,26.68c-.08,.03-.16,.06-.24,.1-1.01,.42-1.84,.95-2.46,1.4-.06,.04-.11,.08-.16,.12-.15-.24-.62-1.02-1.24-2.11,0,0,0,0,0,0-1.16-2.05-2.82-5.19-3.8-7.95-1.04-2.93-1.31-5.43,.62-5.73,1.76-.28,3.2,1.49,4.32,3.88,.53,1.13,.99,2.39,1.38,3.64,.92,2.97,1.45,5.86,1.59,6.65h0Z"/>
    <path class="cls-4" d="M29.1,41.7s-1.59,1.11-3.72,2.4c0,0,0,0,0,0-4.1,2.47-10.21,5.58-10.85,2.59-.56-2.6,3.81-4.71,7.64-6.04,2.42-.84,4.62-1.36,5.23-1.5,.05,.11,.1,.21,.16,.32,.36,.69,.79,1.34,1.29,1.92,.02,.03,.05,.06,.07,.08,.05,.06,.1,.12,.16,.18l.02,.04h0Z"/>
    <path class="cls-4" d="M27.56,39.47c-.33,.09-2.62,.68-5.39,1.18-4.96,.9-11.47,1.53-11.04-1.54,.62-4.39,12.8-3.18,15.39-2.87,.13,1.01,.44,2,.87,2.91,.05,.11,.1,.21,.16,.32Z"/>
    <path class="cls-4" d="M35.72,26c-.1,0-.19,.02-.28,.03-.25,.03-.49,.06-.73,.11-.68,.13-1.31,.32-1.89,.55-.08,.03-.16,.06-.24,.1-.22-.88-.91-3.73-1.35-6.75-.63-4.35-.75-9.05,1.8-8.68,1.8,.26,2.6,2.55,2.91,5.27,.41,3.59-.04,7.93-.22,9.38Z"/>
    <path class="cls-7" d="M35.94,16.62l.1-.64s1.15,2.54,0,10l-.32,.02s1.06-3.51,.22-9.38h0Z"/>
    <path class="cls-7" d="M32.57,26.78l-.23,.1s-.86-2.04-1.35-7.57l.3,1.14s.77,4.44,1.29,6.32Z"/>
    <path class="cls-7" d="M45.63,17.6s-1.04,4.05-3.78,9.86c-.19-.11-.32-.18-.32-.18,0,0,1.18-1.5,3.73-9.22l.36-.46h0Z"/>
    <path class="cls-7" d="M41.03,13.91l.16-.37s-.8,8.27-2.15,12.78l-.4-.11s1.09-2.87,2.39-12.29h0Z"/>
    <path class="cls-7" d="M28.71,26.19l-.27-.37s.36,1,1.4,2.58l.21-.17s-.68-.73-1.33-2.04h0Z"/>
    <path class="cls-7" d="M21.29,25.07l-.41-.39s3.1,1.71,7.18,5.49l-.15,.23s-3.87-3.46-6.62-5.33h0Z"/>
    <path class="cls-7" d="M21.26,30.73l-.68-.22s.8,.76,6.04,2.84l.04-.17s-3.55-1.46-5.4-2.45h0Z"/>
    <path class="cls-7" d="M24.14,36.02s1.84,.16,2.38,.21l.02,.16s-1.55-.03-2.89-.4l.48,.03h0Z"/>
    <path class="cls-7" d="M22.08,40.68s2.91-.43,5.48-1.2l.1,.18s-2.34,1.03-6.19,1.25l.61-.23Z"/>
    <path class="cls-7" d="M29.07,41.67s-2.01,1-3.7,2.44l-.73,.43s1.44-1.32,4.23-3.1c.23,.26,.2,.22,.2,.22Z"/>
    <path class="cls-7" d="M26.85,49.22s3.97-4.78,4.43-5.78l.32,.17s-3.19,4.3-5.06,6.17l.3-.56h0Z"/>
    <path class="cls-7" d="M33.94,44.24s-3.56,6.24-4.19,11.08c-.21,.38-.27,.47-.27,.47,0,0,.66-5.44,4.23-11.57l.23,.02h0Z"/>
    <path class="cls-7" d="M33.38,57.72s3.24-5.38,3.27-13.63c.17-.02,.13-.02,.13-.02,0,0,.23,7.35-3.35,13.81-.04-.12-.05-.16-.05-.16Z"/>
    <path class="cls-7" d="M37.95,57s-1.67-4.54-1.61-7.79l-.08,.46s-.15,1.89,1.65,7.54l.04-.22h0Z"/>
    <path class="cls-7" d="M40.42,43.1s.71,2.75,1.34,6.68l.09,.19s-.36-3.09-1.31-6.92l-.12,.06h0Z"/>
    <path class="cls-7" d="M46.1,47.59s-3.34-3.22-4.42-5.18l-.13,.09s1.09,1.9,5.02,5.81l-.48-.72h0Z"/>
    <path class="cls-7" d="M43.69,40.43s7.36,3.98,10.06,7.17c.25,.07-1.84-2.68-9.94-7.34l-.11,.17h0Z"/>
    <path class="cls-7" d="M52,41.05s-3.65-1.42-7.05-3.46l-.05,.19s3.17,1.92,7.58,3.55l-.47-.28h0Z"/>
    <path class="cls-7" d="M45.45,34.78s8.37,.71,12.39,3l.31-.04s-4.18-2.28-12.69-3.2v.23h-.01Z"/>
    <path class="cls-7" d="M45.67,25.37s-1.05,1.67-2.76,2.81c.16,.14,.1,.08,.1,.08,0,0,1.98-1.52,3.07-3.16l-.4,.26Z"/>
    <path class="cls-7" d="M49.62,27.96s-3.15,.81-5.08,2.13c.06,.11,.06,.1,.06,.1,0,0,2.51-1.49,4.4-1.98l.63-.26h0Z"/>
    <path class="cls-7" d="M45.4,32.71s2.71,.17,9.25-.48l.37,.02s-2.65,.56-9.59,.7l-.03-.24Z"/>
    <path class="cls-3" d="M51.72,41.05c-2.26,7.83-8.45,10.99-18.53,11.29-3.61,.11-7.19-1.92-9.84-5.04-4.75-5.6-6.5-14.72,0-21.46,0,0,4.02-4.37,10.38-5.56,2.55-.48,5.47-.44,8.66,.59,11.14,3.61,11.59,12.34,9.33,20.17h0Z"/>
    <path class="cls-3" d="M23.35,47.31c-4.75-5.6-6.5-14.72,0-21.46,0,0,4.02-4.37,10.38-5.56-6.71,2.92-17,10.31-10.37,27.02Z"/>
    <path class="cls-6" d="M29.43,40.45c1.02,0,1.85-.43,1.85-.97s-.83-.97-1.85-.97-1.85,.43-1.85,.97,.83,.97,1.85,.97Z"/>
    <path class="cls-6" d="M48.74,40.45c1.02,0,1.85-.43,1.85-.97s-.83-.97-1.85-.97-1.85,.43-1.85,.97,.83,.97,1.85,.97Z"/>
    <path class="cls-5" d="M34.6,35.84c-.83-1.86-4.12-1.72-4.97,.05-.15,.3-.62,.19-.6-.15,.04-.69,.59-1.23,1.14-1.57,1.11-.65,2.56-.6,3.6,.13,.5,.36,.92,.88,1,1.49,.02,.1-.14,.14-.17,.04h0Z"/>
    <path class="cls-5" d="M32.95,36.93c1.02,0,1.85-.51,1.85-1.14s-.83-1.14-1.85-1.14-1.85,.51-1.85,1.14,.83,1.14,1.85,1.14Z"/>
    <path class="cls-1" d="M31.62,35.65c.28,0,.51-.23,.51-.51s-.23-.51-.51-.51-.51,.23-.51,.51,.23,.51,.51,.51Z"/>
    <path class="cls-1" d="M32.24,36.17c.11,0,.19-.09,.19-.19s-.09-.19-.19-.19-.19,.09-.19,.19,.09,.19,.19,.19Z"/>
    <path class="cls-5" d="M42.15,35.8c.39-1.95,3.03-2.6,4.6-1.62,.55,.33,1.1,.88,1.14,1.57,.01,.34-.45,.45-.6,.15-.85-1.77-4.14-1.92-4.97-.05-.03,.1-.19,.06-.17-.04h0Z"/>
    <path class="cls-5" d="M43.97,36.93c1.02,0,1.85-.51,1.85-1.14s-.83-1.14-1.85-1.14-1.85,.51-1.85,1.14,.83,1.14,1.85,1.14Z"/>
    <path class="cls-1" d="M45.3,35.65c.28,0,.51-.23,.51-.51s-.23-.51-.51-.51-.51,.23-.51,.51,.23,.51,.51,.51Z"/>
    <path class="cls-1" d="M44.68,36.17c.11,0,.19-.09,.19-.19s-.09-.19-.19-.19-.19,.09-.19,.19,.09,.19,.19,.19Z"/>
    <path class="cls-5" d="M37.33,40.12c1.3,.8,2.99,.42,3.76-.91,.38-.54,1.17,.02,.79,.56-.93,1.34-2.81,1.86-4.3,1.2-.28-.14-.94-.32-.7-.76,.1-.15,.31-.19,.46-.08h0Z"/>
    <path class="cls-4" d="M31.81,31.9c1.14,1.32,2.59,2.46,4.24,3.07,.32,.11,.17,.59-.16,.5-1.82-.54-3.42-1.63-4.75-2.98-.41-.45,.28-1.06,.67-.58h0Z"/>
    <path class="cls-4" d="M40.46,34.25c.93-1.68,2.76-2.67,4.64-2.79l.43-.03c.49,.04,1.37-.17,1.38,.56,0,.34-.33,.58-.66,.5-.36-.06-.76-.13-1.13-.13-.11,0-.27-.01-.38,0-1.51,.03-3.04,.81-3.81,2.12-.15,.32-.63,.09-.47-.23h0Z"/>
  </g>
</svg>