<svg width="72" height="72" viewBox="0 0 72 72" fill="none" xmlns="http://www.w3.org/2000/svg">
<circle cx="36" cy="36" r="36" fill="url(#paint0_linear_244_678)"/>
<path d="M38.9706 24.9968H38.9691C38.8871 24.9789 38.8051 24.961 38.7232 24.9446C37.65 24.73 36.6336 24.6867 35.6841 24.7628C35.5768 24.7702 35.4695 24.7806 35.3637 24.7926C35.3384 23.2798 35.313 18.3449 35.9301 14.2134C36.4979 10.4172 37.6098 7.30067 39.765 8.13681C40.8873 8.57202 41.4522 9.69135 41.6564 11.1654C42.2704 15.5741 39.6458 23.1441 38.9706 24.9968Z" fill="#FF2C50"/>
<path d="M46.8758 24.0586H46.8743C45.2974 25.6653 43.9664 26.8398 43.6624 27.1036C43.6549 27.1111 43.6475 27.1185 43.6415 27.123C43.2168 26.7921 42.7413 26.4821 42.2077 26.1989H42.2047C41.8739 26.0216 41.5251 25.8546 41.151 25.6996L40.6398 25.3941C40.6398 25.3941 43.409 19.8481 46.4287 15.8343C48.7061 12.8102 51.1251 10.6536 52.6125 12.3929C54.8825 15.0474 50.2994 20.5695 46.8758 24.0586Z" fill="#FF2C50"/>
<path d="M46.4286 15.8337C45.129 20.7819 42.236 26.2027 42.236 26.2027L42.2077 26.1982H42.2047C41.8738 26.0209 41.5251 25.8539 41.151 25.6989C40.8022 25.5544 40.4341 25.4172 40.0465 25.292C39.6814 25.1743 39.3237 25.0759 38.9704 24.9969H38.9689C38.887 24.979 38.805 24.9612 38.723 24.9448C38.963 22.7359 39.8617 15.4283 41.6562 11.1656C42.6399 8.82706 43.8949 7.40368 45.4569 8.24281C47.46 9.31742 47.314 12.4667 46.4286 15.8337Z" fill="#FF2C50"/>
<path d="M50.6184 27.2569C48.3664 28.1661 46.2619 28.7965 45.4093 29.041C45.3601 28.9635 45.3095 28.8874 45.2573 28.8129C44.8474 28.2272 44.3392 27.6802 43.7147 27.1824H43.7132L43.6625 27.1034L43.3257 26.5907C43.3257 26.5907 44.8295 25.4311 46.8744 24.0599H46.8759C50.9419 21.3294 57.1511 17.7642 57.9529 20.8137C58.6326 23.4011 54.4176 25.7262 50.6184 27.2569Z" fill="#FF2C50"/>
<path d="M62.5538 28.0951C62.4093 30.1072 59.9649 31.1937 56.9826 31.7646H56.9796C53.1521 32.5008 48.4438 32.3905 46.5777 32.3071C46.5673 32.2236 46.5539 32.1401 46.5405 32.0567C46.3676 30.9895 46.0099 29.9701 45.4092 29.04C45.36 28.9625 45.3094 28.8865 45.2572 28.812C46.065 28.5467 48.1561 27.8819 50.6183 27.256C55.8647 25.9265 62.7923 24.7818 62.5538 28.0951Z" fill="#FF2C50"/>
<path d="M62.3213 41.1719C61.1618 43.2809 57.5802 42.8233 54.0017 41.692C54.0002 41.692 53.9987 41.6905 53.9987 41.6905C50.6347 40.6234 47.2738 38.96 45.9324 38.2655C45.9488 38.2148 45.9637 38.1641 45.9786 38.112C46.0084 38.0076 46.0382 37.9033 46.0665 37.7975C46.2245 37.2177 46.3572 36.632 46.4585 36.0447C46.539 35.5737 46.5986 35.1028 46.6329 34.6348C49.0146 34.9194 56.8574 35.9866 60.573 38.0151C62.1678 38.887 63.0025 39.9333 62.3213 41.1719Z" fill="#FF2C50"/>
<path d="M64.9013 35.5168C64.4288 37.0714 62.7506 37.7898 60.573 38.0163C55.735 38.5216 48.4378 36.6019 46.4585 36.0459C46.539 35.575 46.5986 35.104 46.6329 34.636C46.6925 33.8475 46.6806 33.0665 46.5777 32.3079C46.5673 32.2244 46.5539 32.141 46.5405 32.0575C48.256 31.9055 52.8197 31.5582 56.9796 31.7654H56.9825C61.585 31.9979 65.6942 32.9086 64.9013 35.5168Z" fill="#FF2C50"/>
<path d="M59.4805 48.547C58.634 49.392 57.388 49.4606 55.9676 49.0582C51.8331 47.8882 46.2066 42.7372 44.5463 41.1529C44.5835 41.1022 44.6193 41.05 44.6551 40.9964C45.1931 40.2109 45.6194 39.3047 45.9324 38.2659C45.9488 38.2152 45.9637 38.1645 45.9786 38.1123C46.0084 38.008 46.0382 37.9037 46.0665 37.7979C47.3066 38.3225 50.8121 39.8547 53.9987 41.6909C53.9987 41.6909 54.0002 41.6924 54.0017 41.6924C57.923 43.9534 61.3585 46.6735 59.4805 48.547Z" fill="#FF2C50"/>
<path d="M49.8776 58.9001C47.1218 59.7676 44.3943 55.5496 42.479 51.5075C42.479 51.506 42.4775 51.506 42.4775 51.506C40.8619 48.1004 39.8201 44.8199 39.8201 44.8199L40.9141 44.0225C40.9334 44.0136 40.9543 44.0046 40.9737 43.9957C41.4789 43.7706 41.9499 43.5157 42.3866 43.2251H42.3881C42.5133 43.1431 42.6325 43.0582 42.7518 42.9688C43.3181 43.6469 45.4107 46.1881 47.3588 49.0557C50.1712 53.1962 52.6826 58.0163 49.8776 58.9001Z" fill="#FF2C50"/>
<path d="M56.683 52.9877C54.4951 54.7539 50.5737 52.0249 47.3588 49.0559C44.4852 46.4014 42.1765 43.5562 42.1765 43.5562L42.3867 43.2253H42.3882C42.5134 43.1433 42.6326 43.0584 42.7518 42.9689C43.4434 42.4607 44.0411 41.8571 44.5463 41.1536C44.5836 41.1029 44.6194 41.0507 44.6551 40.9971C46.6881 42.1298 53.1253 45.8515 55.9676 49.0589C57.3359 50.603 57.8724 52.0279 56.683 52.9877Z" fill="#FF2C50"/>
<path d="M40.4639 61.5908C39.4459 61.4403 38.7126 60.71 38.194 59.6309C36.2921 55.6857 37.2401 47.0664 37.5054 44.9887C37.562 44.9798 37.6186 44.9708 37.6753 44.9604C38.8751 44.7518 39.9557 44.4432 40.914 44.0229C40.9334 44.014 40.9543 44.005 40.9736 43.9961C41.1093 44.5267 41.9409 47.8713 42.4775 51.5065C42.4775 51.5065 42.479 51.5065 42.479 51.5079C43.2153 56.4935 43.3986 62.0245 40.4639 61.5908Z" fill="#FF2C50"/>
<path d="M38.1939 59.6304C37.7855 61.884 36.9285 63.3446 35.3144 62.9452C34.1965 62.6695 33.4826 61.7409 33.0519 60.4397C31.6061 56.0653 33.3768 47.4758 33.8672 45.2894H33.8686C33.9804 45.2923 34.0922 45.2923 34.204 45.2894C34.7256 45.2744 35.2309 45.2461 35.7198 45.2059H35.7213C36.3428 45.1552 36.936 45.0822 37.5053 44.9883C37.562 44.9793 37.6186 44.9704 37.6752 44.96C37.9718 47.0004 39.0345 54.9937 38.1939 59.6304Z" fill="#FF2C50"/>
<path d="M33.6854 45.2829C33.286 46.7257 31.3543 53.458 28.9726 57.7475C27.4553 60.478 25.7577 62.2174 24.1555 60.9729C21.896 59.2171 23.5429 54.795 25.7026 50.8781C27.4479 47.7094 29.53 44.873 30.1501 44.0488C30.3274 44.1651 30.5078 44.2739 30.6911 44.3737C31.5913 44.873 32.5482 45.189 33.5185 45.271C33.5736 45.277 33.6303 45.2799 33.6854 45.2829Z" fill="#FF2C50"/>
<path d="M37.0776 45.4704C37.0776 45.4704 35.7601 56.6398 33.0519 60.4389C32.268 61.5374 31.3692 62.0203 30.3527 61.442C29.217 60.7952 28.8638 59.4284 28.9726 57.7457C29.2528 53.4234 32.5795 47.004 33.5184 45.2692C33.5736 45.2751 33.6302 45.2781 33.6854 45.2811C33.745 45.2856 33.8061 45.2871 33.8672 45.2885H33.8687C33.9805 45.2915 34.0923 45.2915 34.204 45.2885C34.7257 45.2736 35.231 45.2453 35.7198 45.2051H35.7213L37.0776 45.4704Z" fill="#FF2C50"/>
<path d="M30.6911 44.3726C30.1575 45.1521 28.0857 48.1226 25.7025 50.8769C22.6337 54.4212 19.0477 57.6078 17.5468 55.3125C15.7642 52.5835 20.3473 48.1092 24.0437 45.1297C24.0437 45.1283 24.0466 45.1283 24.0481 45.1268C25.9097 43.6259 27.5477 42.5051 28.0291 42.1816C28.0887 42.2502 28.1469 42.3158 28.208 42.3814C28.7967 43.0312 29.451 43.5946 30.1485 44.0477C30.3259 44.1639 30.5062 44.2727 30.6896 44.3726H30.6911Z" fill="#FF2C50"/>
<path d="M25.4983 32.8351C25.227 33.9798 25.1868 35.1408 25.3373 36.2736C22.3937 36.0142 7.43556 34.4776 9.58776 30.2879C10.8382 27.8525 15.3796 28.7095 19.4202 30.0748C22.0032 30.9482 24.3805 32.0303 25.5594 32.5936C25.537 32.6741 25.5177 32.7546 25.4983 32.8351Z" fill="#FF2C50"/>
<path d="M27.0231 29.543C26.9814 29.5997 26.9411 29.6563 26.9024 29.7145C26.26 30.637 25.8218 31.6073 25.5595 32.594C25.5371 32.6745 25.5178 32.755 25.4984 32.8354C24.4119 32.3943 21.9556 31.3659 19.4204 30.0751C14.949 27.8022 10.2243 24.711 12.2856 22.5812C13.779 21.0386 16.6213 22.0208 19.4502 23.7139C19.4502 23.7139 19.4517 23.7154 19.4531 23.7154C22.6427 25.6232 25.8159 28.4327 27.0231 29.543Z" fill="#FF2C50"/>
<path d="M29.372 27.2187C29.3094 27.2634 29.2498 27.3082 29.1917 27.3529C28.3854 27.9684 27.9427 28.4483 27.9427 28.4483C27.6014 28.8031 27.2944 29.1682 27.0231 29.5423C26.9814 29.599 26.9411 29.6556 26.9024 29.7137C25.6429 28.8239 22.2119 26.3334 19.4531 23.7147L19.4501 23.7132C16.5139 20.9246 14.3409 17.9929 16.3619 16.6947C19.547 14.6468 25.0274 21.2122 27.7966 24.9741C27.7981 24.9741 27.7996 24.9786 27.8011 24.9801C28.5702 26.0264 29.1306 26.8536 29.372 27.2187Z" fill="#FF2C50"/>
<path d="M32.4111 25.5299C32.3217 25.5641 32.2323 25.6014 32.1444 25.6387C31.0086 26.1141 30.0711 26.7028 29.3721 27.2185C29.3095 27.2632 29.2499 27.308 29.1918 27.3527C29.0278 27.0844 28.4957 26.208 27.8012 24.9799C27.7997 24.9784 27.7982 24.9754 27.7967 24.9739C26.4941 22.6727 24.6236 19.1343 23.5221 16.0283C22.3551 12.7344 22.054 9.92487 24.2152 9.58654C26.193 9.27653 27.8116 11.2663 29.0725 13.9476C29.6702 15.216 30.1874 16.6393 30.6256 18.0478C31.6659 21.3879 32.2591 24.6416 32.4111 25.5299Z" fill="#FF2C50"/>
<path d="M28.2348 42.4261C28.2348 42.4261 26.4478 43.6796 24.0481 45.1268C24.0467 45.1283 24.0452 45.1283 24.0437 45.1298C19.4292 47.9139 12.5628 51.4076 11.8429 48.0481C11.2139 45.1194 16.1324 42.7466 20.4413 41.2531C23.1598 40.3127 25.6355 39.7224 26.3226 39.5645C26.3777 39.6852 26.4373 39.8059 26.4999 39.9237C26.9038 40.7046 27.3927 41.4335 27.9472 42.0863C27.974 42.1176 28.0023 42.1504 28.0291 42.1817C28.0887 42.2502 28.1469 42.3158 28.208 42.3814L28.2333 42.4261H28.2348Z" fill="#FF2C50"/>
<path d="M26.4999 39.9237C26.1288 40.0206 23.5563 40.6868 20.4412 41.2532C14.8595 42.2697 7.53844 42.9717 8.02284 39.5258C8.71888 34.5879 22.425 35.9487 25.3403 36.2945C25.4909 37.4317 25.8322 38.5391 26.3226 39.5645C26.3777 39.6852 26.4373 39.806 26.4999 39.9237Z" fill="#FF2C50"/>
<path d="M35.684 24.7632C35.5767 24.7707 35.4694 24.7811 35.3636 24.7931C35.0819 24.8244 34.8076 24.8646 34.5394 24.9153C33.7748 25.0584 33.0623 25.2745 32.411 25.5308C32.3216 25.5651 32.2321 25.6024 32.1442 25.6396C31.8968 24.6544 31.1203 21.4455 30.6254 18.0488C29.9115 13.1527 29.7789 7.86306 32.6525 8.27889C34.675 8.57102 35.5812 11.1465 35.9299 14.2124C36.389 18.2485 35.8823 23.1297 35.684 24.7632Z" fill="#FF2C50"/>
<path opacity="0.05" d="M35.93 14.2117L36.0463 13.4873C36.0463 13.4873 37.3415 16.3445 36.0463 24.7402L35.6841 24.7625C35.6841 24.7625 36.8794 20.8084 35.93 14.2117Z" fill="black"/>
<path opacity="0.05" d="M32.1442 25.6395L31.8864 25.7513C31.8864 25.7513 30.9235 23.4575 30.3646 17.2363L30.697 18.5241C30.697 18.5241 31.5644 23.5201 32.1442 25.6395Z" fill="black"/>
<path opacity="0.05" d="M46.8326 15.3154C46.8326 15.3154 45.6611 19.8687 42.5834 26.4073C42.3687 26.2807 42.2286 26.2031 42.2286 26.2031C42.2286 26.2031 43.5551 24.5115 46.4287 15.8341L46.8326 15.3154Z" fill="black"/>
<path opacity="0.05" d="M41.6564 11.1654L41.8412 10.7451C41.8412 10.7451 40.9395 20.0455 39.4177 25.119L38.9706 24.9968C38.9706 24.9968 40.1942 21.7685 41.6579 11.1654H41.6564Z" fill="black"/>
<path opacity="0.05" d="M27.7966 24.9744L27.4911 24.5615C27.4911 24.5615 27.8995 25.6898 29.0665 27.4664L29.2975 27.2741C29.2975 27.2741 28.5314 26.4529 27.7966 24.9744Z" fill="black"/>
<path opacity="0.05" d="M19.4531 23.7146L18.9955 23.2734C18.9955 23.2734 22.4802 25.1991 27.0692 29.4513L26.9038 29.7137C26.9038 29.7137 22.5517 25.8176 19.4545 23.7146H19.4531Z" fill="black"/>
<path opacity="0.05" d="M19.4203 30.0751L18.6587 29.8262C18.6587 29.8262 19.5619 30.6817 25.4551 33.0262L25.4984 32.8354C25.4984 32.8354 21.5025 31.1899 19.4203 30.0751Z" fill="black"/>
<path opacity="0.05" d="M22.6561 36.0363C22.6561 36.0363 24.7278 36.2137 25.3389 36.2733L25.3628 36.4477C25.3628 36.4477 23.6145 36.4089 22.1106 35.9961L22.6561 36.0348V36.0363Z" fill="black"/>
<path opacity="0.05" d="M20.3384 41.2727C20.3384 41.2727 23.6174 40.7883 26.5014 39.9238L26.6102 40.1265C26.6102 40.1265 23.9825 41.2846 19.6498 41.5365L20.3384 41.2727Z" fill="black"/>
<path opacity="0.05" d="M28.2094 42.3832C28.2094 42.3832 25.9513 43.513 24.0436 45.1301L23.2268 45.616C23.2268 45.616 24.8499 44.1315 27.9858 42.1328C28.2481 42.4294 28.2094 42.3832 28.2094 42.3832Z" fill="black"/>
<path opacity="0.05" d="M25.7025 50.8764C25.7025 50.8764 30.1664 45.4988 30.691 44.3721L31.0532 44.5614C31.0532 44.5614 27.4642 49.3949 25.3627 51.5054L25.7025 50.8764Z" fill="black"/>
<path opacity="0.05" d="M33.6854 45.2811C33.6854 45.2811 29.6791 52.3056 28.9726 57.7457C28.7327 58.172 28.6686 58.2748 28.6686 58.2748C28.6686 58.2748 29.4078 52.1506 33.4276 45.2617L33.6854 45.2826V45.2811Z" fill="black"/>
<path opacity="0.05" d="M33.0519 60.4392C33.0519 60.4392 36.702 54.3865 36.7273 45.101C36.9181 45.0757 36.8734 45.0817 36.8734 45.0817C36.8734 45.0817 37.1357 53.3462 33.104 60.6151C33.0549 60.475 33.0519 60.4392 33.0519 60.4392Z" fill="black"/>
<path opacity="0.05" d="M38.1939 59.6305C38.1939 59.6305 36.3174 54.5257 36.383 50.8711L36.292 51.3883C36.292 51.3883 36.1251 53.5196 38.1477 59.8749L38.1939 59.6305Z" fill="black"/>
<path opacity="0.05" d="M40.9736 43.9962C40.9736 43.9962 41.777 47.0948 42.4775 51.5066L42.5818 51.7227C42.5818 51.7227 42.1764 48.244 41.1108 43.9336L40.9736 43.9962Z" fill="black"/>
<path opacity="0.05" d="M47.3586 49.0562C47.3586 49.0562 43.6057 45.43 42.3865 43.2256L42.2449 43.3225C42.2449 43.3225 43.473 45.4583 47.8952 49.8611L47.3586 49.0562Z" fill="black"/>
<path opacity="0.05" d="M44.6552 40.996C44.6552 40.996 52.9405 45.4703 55.9676 49.0578C56.2493 49.1323 53.8959 46.0426 44.7833 40.8037L44.6552 40.996Z" fill="black"/>
<path opacity="0.05" d="M54.0016 41.6924C54.0016 41.6924 49.8999 40.0946 46.0665 37.7979L46.0068 38.0125C46.0068 38.0125 49.572 40.1692 54.5307 42.0024L54.0016 41.6924Z" fill="black"/>
<path opacity="0.05" d="M46.6329 34.6353C46.6329 34.6353 56.0466 35.4327 60.5731 38.0156L60.9248 37.9739C60.9248 37.9739 56.2225 35.4073 46.6493 34.3789L46.6329 34.6353Z" fill="black"/>
<path opacity="0.05" d="M46.8758 24.0579C46.8758 24.0579 45.6999 25.9328 43.7653 27.2236C43.9456 27.3756 43.8741 27.3115 43.8741 27.3115C43.8741 27.3115 46.0993 25.602 47.3244 23.7598L46.8758 24.0579Z" fill="black"/>
<path opacity="0.05" d="M51.3232 26.9644C51.3232 26.9644 47.7759 27.8795 45.6058 29.3625C45.6744 29.4832 45.6729 29.4803 45.6729 29.4803C45.6729 29.4803 48.4973 27.8035 50.6182 27.255L51.3232 26.9629V26.9644Z" fill="black"/>
<path opacity="0.05" d="M46.5778 32.3072C46.5778 32.3072 49.6302 32.4994 56.9796 31.7646L57.3984 31.7885C57.3984 31.7885 54.413 32.4234 46.6105 32.5769L46.5778 32.3072Z" fill="black"/>
<path d="M53.6898 41.6926C51.1519 50.4988 44.1819 54.055 32.8483 54.3954C28.7882 54.5167 24.7544 52.24 21.7733 48.726C16.431 42.4286 14.4656 32.1609 21.7654 24.5867C21.7654 24.5867 26.2925 19.6718 33.4419 18.3316C36.3096 17.7961 39.5994 17.8356 43.1899 18.9991C55.7239 23.0645 56.2304 32.8864 53.6898 41.6926Z" fill="#FFD655"/>
<path d="M21.7733 48.7264C16.431 42.4291 14.4656 32.1613 21.7654 24.5871C21.7654 24.5871 26.2925 19.6722 33.4419 18.332C25.8967 21.6165 14.3205 29.9268 21.7733 48.7264Z" fill="#FFC82C"/>
<path opacity="0.35" d="M28.6089 41.0166C29.757 41.0166 30.6878 40.53 30.6878 39.9297C30.6878 39.3294 29.757 38.8428 28.6089 38.8428C27.4608 38.8428 26.53 39.3294 26.53 39.9297C26.53 40.53 27.4608 41.0166 28.6089 41.0166Z" fill="#FF6E79"/>
<path opacity="0.35" d="M50.3341 41.0166C51.4823 41.0166 52.413 40.53 52.413 39.9297C52.413 39.3294 51.4823 38.8428 50.3341 38.8428C49.186 38.8428 48.2552 39.3294 48.2552 39.9297C48.2552 40.53 49.186 41.0166 50.3341 41.0166Z" fill="#FF6E79"/>
<path d="M34.4287 35.8342C33.5 33.7368 29.7987 33.9004 28.8384 35.8949C28.6669 36.2378 28.1419 36.1033 28.1604 35.7234C28.2052 34.9478 28.8199 34.3357 29.4425 33.9584C30.6878 33.2277 32.3234 33.2883 33.4895 34.1088C34.0514 34.5125 34.5237 35.1034 34.6186 35.784C34.6371 35.8975 34.4656 35.9397 34.426 35.8315L34.4287 35.8342Z" fill="#302826"/>
<path d="M32.5686 37.0575C33.7168 37.0575 34.6475 36.4834 34.6475 35.7753C34.6475 35.0672 33.7168 34.4932 32.5686 34.4932C31.4205 34.4932 30.4897 35.0672 30.4897 35.7753C30.4897 36.4834 31.4205 37.0575 32.5686 37.0575Z" fill="#302826"/>
<path d="M31.0702 35.6243C31.3893 35.6243 31.6479 35.3656 31.6479 35.0465C31.6479 34.7274 31.3893 34.4688 31.0702 34.4688C30.7511 34.4688 30.4924 34.7274 30.4924 35.0465C30.4924 35.3656 30.7511 35.6243 31.0702 35.6243Z" fill="#EFEFEF"/>
<path d="M31.7746 36.2071C31.894 36.2071 31.9909 36.1102 31.9909 35.9907C31.9909 35.8713 31.894 35.7744 31.7746 35.7744C31.6551 35.7744 31.5582 35.8713 31.5582 35.9907C31.5582 36.1102 31.6551 36.2071 31.7746 36.2071Z" fill="#EFEFEF"/>
<path d="M42.9154 35.7852C43.3507 33.5929 46.3186 32.8621 48.0914 33.9596C48.7141 34.3342 49.3314 34.9462 49.3736 35.7245C49.3868 36.1097 48.8644 36.2337 48.6956 35.896C47.7353 33.9015 44.0366 33.7353 43.1053 35.8353C43.071 35.9461 42.8943 35.9013 42.9127 35.7878L42.9154 35.7852Z" fill="#302826"/>
<path d="M44.9656 37.0536C46.1137 37.0536 47.0445 36.4795 47.0445 35.7714C47.0445 35.0633 46.1137 34.4893 44.9656 34.4893C43.8175 34.4893 42.8867 35.0633 42.8867 35.7714C42.8867 36.4795 43.8175 37.0536 44.9656 37.0536Z" fill="#302826"/>
<path d="M46.4642 35.6233C46.7833 35.6233 47.042 35.3646 47.042 35.0455C47.042 34.7264 46.7833 34.4678 46.4642 34.4678C46.1451 34.4678 45.8865 34.7264 45.8865 35.0455C45.8865 35.3646 46.1451 35.6233 46.4642 35.6233Z" fill="#EFEFEF"/>
<path d="M45.7594 36.2061C45.8789 36.2061 45.9758 36.1092 45.9758 35.9898C45.9758 35.8703 45.8789 35.7734 45.7594 35.7734C45.6399 35.7734 45.5431 35.8703 45.5431 35.9898C45.5431 36.1092 45.6399 36.2061 45.7594 36.2061Z" fill="#EFEFEF"/>
<path d="M37.4943 40.641C38.9532 41.5458 40.8526 41.1158 41.7206 39.6121C42.148 39.0079 43.0423 39.6385 42.6123 40.2426C41.5649 41.7463 39.4465 42.332 37.7739 41.5881C37.4626 41.4271 36.7107 41.2293 36.9824 40.7359C37.0933 40.5618 37.3307 40.5196 37.4969 40.641H37.4943Z" fill="#302826"/>
<path d="M31.2892 31.3908C32.5714 32.8708 34.2044 34.1556 36.0591 34.8389C36.4205 34.9629 36.2516 35.5037 35.8823 35.3982C33.8298 34.7914 32.0358 33.5594 30.5347 32.0477C30.0704 31.5412 30.8487 30.8579 31.2892 31.3908Z" fill="#FF2C50"/>
<path d="M41.0135 34.0476C42.0556 32.1587 44.1186 31.048 46.2318 30.9135L46.7199 30.8845C47.2713 30.924 48.2579 30.6945 48.2764 31.5097C48.2738 31.8922 47.9018 32.164 47.5351 32.0769C47.1314 32.011 46.675 31.9292 46.2608 31.9265C46.1316 31.916 45.9601 31.9133 45.8335 31.9265C44.1398 31.9556 42.4144 32.8367 41.5438 34.3141C41.3697 34.6729 40.8315 34.4117 41.0135 34.0503V34.0476Z" fill="#FF2C50"/>
<defs>
<linearGradient id="paint0_linear_244_678" x1="36" y1="0" x2="36" y2="72" gradientUnits="userSpaceOnUse">
<stop stop-color="#CDDDA7"/>
<stop offset="1" stop-color="#A2DAAF"/>
</linearGradient>
</defs>
</svg>
