<svg width="292" height="179" viewBox="0 0 292 179" fill="none" xmlns="http://www.w3.org/2000/svg">
<path d="M66.1933 103.354C63.1117 115.1 64.5128 138.225 65.281 147.819C65.4949 150.521 65.6607 152.153 65.6607 152.153H60.855C60.855 152.153 60.1043 121.612 62.7756 110.508C65.4469 99.4037 66.8305 76.1258 66.8305 76.1258L68.6594 75.135L69.3971 74.7334C69.3971 74.7334 70.1435 88.2951 66.1933 103.354Z" fill="#5ABA97"/>
<path d="M66.1932 103.354C63.1116 115.1 64.5128 138.225 65.281 147.819L64.133 148.469C64.133 148.469 61.8677 115.973 65.1064 105.117C69.3054 88.7752 68.9693 78.5963 68.6594 75.135L69.3971 74.7334C69.3971 74.7334 70.1435 88.2951 66.1932 103.354Z" fill="#63C6A0"/>
<path d="M61.9987 123.296C61.9987 123.296 61.3483 123.03 60.3444 122.502C56.5644 120.52 47.7561 114.855 49.7857 105.837C50.1699 104.135 50.698 103.214 51.3222 102.877C54.9014 100.953 61.5884 118.076 61.5884 118.076L61.9987 123.296Z" fill="#5ABA97"/>
<path d="M73.0549 123.511C73.1946 123.367 73.3299 123.223 73.4609 123.083C73.3299 123.236 73.1946 123.38 73.0549 123.511Z" fill="#82D16F"/>
<path d="M75.0757 85.3966C72.2516 87.6314 68.703 88.2774 68.703 88.2774L68.847 85.0256C68.847 85.0256 72.4044 79.5564 75.2023 77.1426C76.9788 75.6105 78.4454 75.3137 78.5022 78.4346C78.5589 81.669 76.9832 83.8951 75.0801 85.3966H75.0757Z" fill="#5ABA97"/>
<path d="M75.0757 85.3961C77.0573 82.9517 78.7291 79.7174 77.8823 76.7798C77.5069 75.4878 75.2023 77.1421 75.2023 77.1421C76.9788 75.61 78.4454 75.3088 78.5021 78.4341C78.5589 81.6685 76.9831 83.8945 75.08 85.3961H75.0757Z" fill="#63C6A0"/>
<path d="M86.3677 44.4456C84.3555 51.425 78.8296 54.2447 69.8467 54.5154C66.6298 54.6114 63.4303 52.8087 61.0689 50.0195C56.835 45.0261 55.2767 36.89 61.0646 30.8839C61.0646 30.8839 64.6525 26.9861 70.3225 25.9254C72.5966 25.502 75.2024 25.5326 78.0483 26.4536C87.9827 29.6749 88.3843 37.4618 86.3721 44.4412L86.3677 44.4456Z" fill="#FFD655"/>
<path d="M61.0689 50.0189C56.835 45.0255 55.2767 36.8894 61.0646 30.8833C61.0646 30.8833 64.6525 26.9855 70.3225 25.9248C64.3426 28.5263 55.1632 35.1172 61.0733 50.0189H61.0689Z" fill="#FFC82C"/>
<path d="M76.5336 26.0437C76.4201 26.0175 76.3023 25.9957 76.1888 25.9695C74.6829 25.6683 73.2556 25.6072 71.9243 25.7163C71.7759 25.7251 71.6231 25.7425 71.4747 25.76C71.4398 23.6387 71.4049 16.7116 72.2691 10.9151C73.0679 5.58991 74.6261 1.21631 77.651 2.39046C79.2267 3.00154 80.0168 4.5729 80.3048 6.64185C81.1647 12.8269 77.4851 23.451 76.538 26.0481L76.5336 26.0437Z" fill="#FF2C50"/>
<path d="M87.6248 24.726C85.4118 26.9782 83.5436 28.6281 83.1202 28.9992C83.1115 29.0079 83.0984 29.021 83.0897 29.0254C82.4917 28.5627 81.8282 28.1262 81.0775 27.729C80.6148 27.4802 80.1259 27.2445 79.5978 27.0306L78.882 26.6028C78.882 26.6028 82.7667 18.8203 87.005 13.1896C90.2001 8.94693 93.596 5.92207 95.6824 8.36204C98.8687 12.0853 92.4349 19.8329 87.6335 24.7303L87.6248 24.726Z" fill="#FF2C50"/>
<path d="M87.0007 13.1844C85.1762 20.129 81.1168 27.7326 81.1168 27.7326H81.0775V27.7238C80.6149 27.475 80.126 27.2437 79.5978 27.0255C79.109 26.8247 78.5939 26.6283 78.0483 26.4537C77.5376 26.2878 77.0357 26.1525 76.5381 26.039C76.4246 26.0128 76.3067 25.991 76.1932 25.9648C76.5293 22.8657 77.7908 12.6126 80.3093 6.63277C81.6886 3.35039 83.452 1.35564 85.6432 2.52979C88.4542 4.03567 88.249 8.45729 87.005 13.1801L87.0007 13.1844Z" fill="#FF2C50"/>
<path d="M92.8757 29.2128C89.7155 30.4873 86.7649 31.3734 85.5689 31.7138C85.4991 31.6047 85.4292 31.5 85.355 31.3952C84.7789 30.5746 84.0674 29.8064 83.19 29.108L83.1202 28.9989L82.6488 28.2787C82.6488 28.2787 84.757 26.6506 87.6291 24.7257C93.334 20.8933 102.046 15.8912 103.172 20.1731C104.124 23.8047 98.2139 27.0652 92.8801 29.2128H92.8757Z" fill="#FF2C50"/>
<path d="M109.624 30.391C109.423 33.2151 105.992 34.7384 101.806 35.5415C96.4375 36.576 89.8291 36.4189 87.2102 36.301C87.1971 36.1832 87.1753 36.0653 87.1578 35.9518C86.9134 34.4547 86.4114 33.023 85.569 31.7179C85.4991 31.6088 85.4293 31.504 85.3551 31.3993C86.49 31.0282 89.4232 30.0942 92.8758 29.2168C100.235 27.353 109.956 25.7467 109.624 30.3953V30.391Z" fill="#FF2C50"/>
<path d="M109.296 48.7365C107.668 51.6959 102.644 51.0543 97.6246 49.4655C92.9062 47.9683 88.1878 45.6331 86.3065 44.6598C86.3283 44.5899 86.3502 44.5157 86.372 44.4459C86.4156 44.2975 86.4549 44.1534 86.4942 44.005C86.7168 43.1932 86.9001 42.3682 87.0442 41.5476C87.1577 40.8885 87.2406 40.225 87.2886 39.5703C90.6321 39.9719 101.636 41.469 106.848 44.3149C109.087 45.5371 110.257 47.0081 109.301 48.7453L109.296 48.7365Z" fill="#FF2C50"/>
<path d="M112.919 40.8009C112.256 42.9833 109.903 43.9916 106.848 44.3059C100.06 45.013 89.8204 42.3199 87.0443 41.5429C87.1578 40.8838 87.2407 40.2204 87.2887 39.5656C87.3717 38.4613 87.3542 37.3657 87.2102 36.3007C87.1971 36.1829 87.1753 36.065 87.1578 35.9515C89.5628 35.7376 95.9661 35.2531 101.806 35.5412C108.262 35.8686 114.028 37.1431 112.915 40.8053L112.919 40.8009Z" fill="#FF2C50"/>
<path d="M105.311 59.0855C104.124 60.2728 102.374 60.3688 100.383 59.8014C94.5824 58.1602 86.6863 50.9319 84.3599 48.7102C84.4122 48.6404 84.4603 48.5662 84.5126 48.492C85.2678 47.392 85.8657 46.1175 86.3066 44.6596C86.3284 44.5898 86.3502 44.5156 86.3721 44.4457C86.4157 44.2973 86.455 44.1533 86.4943 44.0049C88.2359 44.7425 93.1507 46.8901 97.6247 49.4653C103.129 52.6386 107.948 56.4535 105.311 59.0812V59.0855Z" fill="#FF2C50"/>
<path d="M91.8369 73.6118C87.9696 74.8296 84.1416 68.9109 81.4572 63.2409C79.1918 58.4613 77.7296 53.8608 77.7296 53.8608L79.2661 52.7434C79.2922 52.7303 79.3228 52.7172 79.349 52.7041C80.0561 52.3898 80.7196 52.0319 81.3306 51.6216C81.5052 51.5081 81.6755 51.3859 81.8413 51.2637C82.6357 52.2152 85.5733 55.7813 88.3057 59.8057C92.2515 65.6154 95.774 72.3766 91.8413 73.6162L91.8369 73.6118Z" fill="#FF2C50"/>
<path d="M101.387 65.3144C98.3187 67.7937 92.8146 63.9657 88.3057 59.7972C84.2726 56.074 81.0338 52.0801 81.0338 52.0801L81.3306 51.6174C81.5052 51.504 81.6755 51.3817 81.8413 51.2595C82.8103 50.548 83.6484 49.7013 84.3599 48.7104C84.4122 48.6406 84.4602 48.5664 84.5126 48.4922C87.3672 50.081 96.3982 55.3014 100.383 59.8016C102.304 61.9666 103.055 63.9657 101.387 65.3144Z" fill="#FF2C50"/>
<path d="M78.6288 77.3869C77.2015 77.1774 76.1714 76.1517 75.4424 74.6371C72.7755 69.1024 74.1024 57.0073 74.4778 54.0916C74.5564 54.0785 74.6349 54.0654 74.7178 54.0523C76.4027 53.7599 77.9173 53.3278 79.2617 52.7385C79.2879 52.7254 79.3184 52.7123 79.3446 52.6992C79.5367 53.4456 80.7021 58.1378 81.4528 63.236C82.4873 70.2329 82.7449 77.9937 78.6244 77.3826L78.6288 77.3869Z" fill="#FF2C50"/>
<path d="M75.4468 74.637C74.875 77.7972 73.6703 79.8487 71.4049 79.29C69.838 78.9015 68.834 77.6008 68.2317 75.7763C66.202 69.6392 68.6856 57.5878 69.3753 54.5193C69.5324 54.5193 69.6896 54.5193 69.8467 54.5193C70.58 54.4975 71.2871 54.4582 71.9724 54.4015C72.8454 54.3316 73.6747 54.2269 74.4735 54.0959C74.552 54.0828 74.6306 54.0697 74.7135 54.0566C75.1282 56.92 76.621 68.1334 75.4425 74.6414L75.4468 74.637Z" fill="#FF2C50"/>
<path d="M69.1178 54.5029C68.5591 56.5282 65.8485 65.9738 62.505 71.9929C60.3749 75.8253 57.9961 78.2653 55.7482 76.5193C52.5793 74.0575 54.8883 67.8507 57.9175 62.3553C60.3662 57.9075 63.2863 53.9311 64.1593 52.7744C64.4081 52.9359 64.6612 53.0887 64.9188 53.2284C66.1802 53.9311 67.5246 54.372 68.8864 54.4854C68.965 54.4942 69.0436 54.4985 69.1222 54.5029H69.1178Z" fill="#FF2C50"/>
<path d="M73.8797 54.7689C73.8797 54.7689 72.029 70.4388 68.2316 75.7727C67.1316 77.3135 65.8702 77.9901 64.4429 77.1782C62.8497 76.2703 62.3521 74.3541 62.5049 71.9927C62.8977 65.9299 67.5638 56.9208 68.882 54.4852C68.9605 54.4939 69.0391 54.4983 69.1177 54.5027C69.2006 54.507 69.2879 54.5114 69.3708 54.5114C69.528 54.5114 69.6851 54.5114 69.8422 54.5114C70.5755 54.4896 71.2826 54.4503 71.9679 54.3936L73.871 54.7646L73.8797 54.7689Z" fill="#FF2C50"/>
<path d="M64.9188 53.2277C64.168 54.3233 61.2654 58.4874 57.9175 62.3546C53.6137 67.3262 48.581 71.8002 46.4728 68.5789C43.9717 64.751 50.4012 58.4699 55.5867 54.2927C55.5867 54.2927 55.5867 54.2927 55.591 54.2927C58.2012 52.1888 60.5015 50.6131 61.1781 50.1592C61.261 50.2552 61.3439 50.3469 61.4269 50.4385C62.2518 51.3508 63.1728 52.1408 64.1505 52.7781C64.3993 52.9396 64.6525 53.0924 64.91 53.232L64.9188 53.2277Z" fill="#FF2C50"/>
<path d="M57.6337 37.0388C57.254 38.6451 57.1973 40.2732 57.4068 41.862C53.2776 41.4997 32.2869 39.3435 35.3074 33.464C37.0621 30.0463 43.4348 31.251 49.1048 33.1628C52.7276 34.3894 56.0624 35.9083 57.7167 36.6984C57.6861 36.8119 57.6599 36.9254 57.6294 37.0388H57.6337Z" fill="#FF2C50"/>
<path d="M59.7725 32.4204C59.7158 32.499 59.659 32.5775 59.6023 32.6605C58.7031 33.9568 58.0877 35.3143 57.7166 36.7023C57.6861 36.8158 57.6599 36.9293 57.6294 37.0428C56.106 36.423 52.6578 34.9826 49.1004 33.1712C42.8281 29.9804 36.1978 25.6461 39.0917 22.6562C41.1869 20.4912 45.1764 21.8705 49.144 24.245C53.618 26.9207 58.0702 30.8621 59.7638 32.4204H59.7725Z" fill="#FF2C50"/>
<path d="M63.0681 29.1592C62.9808 29.2203 62.8978 29.2858 62.8149 29.3469C61.6844 30.2112 61.0646 30.8834 61.0646 30.8834C60.5844 31.381 60.1567 31.8916 59.7726 32.4198C59.7158 32.4984 59.6591 32.5769 59.6023 32.6599C57.8346 31.4115 53.0201 27.9153 49.1485 24.2444C45.028 20.3335 41.9813 16.2174 44.8141 14.3972C49.2838 11.5251 56.9747 20.735 60.8594 26.0122C60.8594 26.0122 60.8594 26.0165 60.8638 26.0209C61.9419 27.4875 62.7276 28.6485 63.0681 29.1636V29.1592Z" fill="#FF2C50"/>
<path d="M67.3326 26.7894C67.206 26.8374 67.0838 26.8898 66.9572 26.9422C65.364 27.61 64.0502 28.435 63.0681 29.1596C62.9808 29.2207 62.8979 29.2861 62.815 29.3472C62.5836 28.9719 61.8372 27.741 60.8639 26.0168C60.8639 26.0168 60.8639 26.0125 60.8595 26.0081C59.0306 22.7781 56.4073 17.8152 54.8622 13.4547C53.2253 8.83233 52.8019 4.89085 55.8355 4.41508C58.6116 3.97859 60.8813 6.77211 62.6491 10.5346C63.4872 12.3155 64.2117 14.3102 64.8272 16.2875C66.285 20.9754 67.1187 25.5411 67.3326 26.7851V26.7894Z" fill="#FF2C50"/>
<path d="M61.4705 50.4947C61.4705 50.4947 58.965 52.2537 55.5954 54.2834C55.5954 54.2834 55.5954 54.2834 55.591 54.2834C49.1179 58.1899 39.4802 63.0917 38.472 58.3776C37.5902 54.2703 44.4911 50.9399 50.5365 48.8447C54.3514 47.5265 57.8258 46.6972 58.7904 46.4746C58.869 46.6448 58.9519 46.8151 59.0392 46.9766C59.6067 48.0722 60.292 49.0935 61.0689 50.0102C61.1082 50.0538 61.1475 50.1018 61.1824 50.1455C61.2653 50.2415 61.3483 50.3332 61.4312 50.4248L61.4661 50.4859L61.4705 50.4947Z" fill="#FF2C50"/>
<path d="M59.0392 46.986C58.5198 47.1213 54.91 48.0554 50.5364 48.8498C42.7059 50.2771 32.4309 51.2592 33.1119 46.4273C34.0896 39.5003 53.3212 41.4077 57.4111 41.8922C57.6206 43.4898 58.1008 45.0437 58.7904 46.4797C58.869 46.6499 58.9519 46.8202 59.0392 46.9817V46.986Z" fill="#FF2C50"/>
<path d="M71.9243 25.7162C71.7759 25.7249 71.6231 25.7424 71.4747 25.7598C71.0775 25.8035 70.6934 25.8602 70.318 25.93C69.2443 26.1308 68.2447 26.432 67.3324 26.7943C67.2059 26.8423 67.0836 26.8947 66.9571 26.9471C66.6079 25.5634 65.521 21.0632 64.827 16.2968C63.8275 9.42646 63.6398 2.00617 67.6729 2.5867C70.5101 2.997 71.7803 6.61111 72.2735 10.9105C72.9195 16.5718 72.208 23.4202 71.9287 25.7162H71.9243Z" fill="#FF2C50"/>
<path opacity="0.35" d="M66.4857 43.9034C67.397 43.9034 68.1357 43.5184 68.1357 43.0435C68.1357 42.5686 67.397 42.1836 66.4857 42.1836C65.5745 42.1836 64.8358 42.5686 64.8358 43.0435C64.8358 43.5184 65.5745 43.9034 66.4857 43.9034Z" fill="#FF6E79"/>
<path opacity="0.35" d="M83.7052 43.9034C84.6164 43.9034 85.3551 43.5184 85.3551 43.0435C85.3551 42.5686 84.6164 42.1836 83.7052 42.1836C82.794 42.1836 82.0553 42.5686 82.0553 43.0435C82.0553 43.5184 82.794 43.9034 83.7052 43.9034Z" fill="#FF6E79"/>
<path opacity="0.05" d="M72.2693 10.9096L72.4351 9.89258C72.4351 9.89258 74.2509 13.8995 72.4351 25.6803L71.9244 25.7109C71.9244 25.7109 73.6006 20.1631 72.2693 10.9052V10.9096Z" fill="black"/>
<path opacity="0.05" d="M66.9572 26.9419L66.5949 27.099C66.5949 27.099 65.2461 23.8821 64.4604 15.1523L64.9275 16.9594C64.9275 16.9594 66.1453 23.9694 66.9572 26.9419Z" fill="black"/>
<path opacity="0.05" d="M87.5638 12.4594C87.5638 12.4594 85.9182 18.8453 81.6014 28.0202C81.3002 27.8413 81.1038 27.7321 81.1038 27.7321C81.1038 27.7321 82.9632 25.3576 86.9963 13.184L87.5638 12.4551V12.4594Z" fill="black"/>
<path opacity="0.05" d="M80.3051 6.63613L80.5626 6.04688C80.5626 6.04688 79.2968 19.0978 77.1624 26.217L76.5338 26.0467C76.5338 26.0467 78.2492 21.516 80.3051 6.6405V6.63613Z" fill="black"/>
<path opacity="0.05" d="M60.855 26.0122L60.4272 25.4316C60.4272 25.4316 60.999 27.0161 62.6359 29.5084L62.9589 29.2378C62.9589 29.2378 61.8851 28.0855 60.855 26.0122Z" fill="black"/>
<path opacity="0.05" d="M49.1485 24.2448L48.5068 23.625C48.5068 23.625 53.3955 26.3269 59.8337 32.2936L59.6023 32.6603C59.6023 32.6603 53.4959 27.1955 49.1485 24.2448Z" fill="black"/>
<path opacity="0.05" d="M49.1048 33.1656L48.0354 32.8164C48.0354 32.8164 49.3012 34.0167 57.5726 37.3079L57.6338 37.0416C57.6338 37.0416 52.0293 34.7326 49.1048 33.17V33.1656Z" fill="black"/>
<path opacity="0.05" d="M53.6443 41.5294C53.6443 41.5294 56.5513 41.7782 57.4068 41.8611L57.4418 42.1056C57.4418 42.1056 54.9887 42.0532 52.8761 41.4727L53.64 41.5294H53.6443Z" fill="black"/>
<path opacity="0.05" d="M50.3925 48.8763C50.3925 48.8763 54.9931 48.1954 59.0393 46.9863L59.1921 47.27C59.1921 47.27 55.5038 48.8938 49.4279 49.2473L50.3925 48.8763Z" fill="black"/>
<path opacity="0.05" d="M61.4356 50.4385C61.4356 50.4385 58.2667 52.023 55.591 54.2927L54.4474 54.9736C54.4474 54.9736 56.7258 52.8916 61.1256 50.085C61.4923 50.4996 61.4399 50.4385 61.4399 50.4385H61.4356Z" fill="black"/>
<path opacity="0.05" d="M57.9175 62.3545C57.9175 62.3545 64.1811 54.8076 64.9188 53.2275L65.4251 53.4938C65.4251 53.4938 60.3881 60.2768 57.4418 63.2362L57.9175 62.3545Z" fill="black"/>
<path opacity="0.05" d="M69.1178 54.5018C69.1178 54.5018 63.4959 64.3577 62.505 71.9918C62.1689 72.5898 62.0773 72.7339 62.0773 72.7339C62.0773 72.7339 63.1161 64.1394 68.7555 54.4756L69.1178 54.5061V54.5018Z" fill="black"/>
<path opacity="0.05" d="M68.2317 75.7711C68.2317 75.7711 73.3517 67.277 73.3866 54.2479C73.6572 54.2129 73.5917 54.2217 73.5917 54.2217C73.5917 54.2217 73.9584 65.8148 68.3015 76.0155C68.2317 75.8191 68.2273 75.7667 68.2273 75.7667L68.2317 75.7711Z" fill="black"/>
<path opacity="0.05" d="M75.4469 74.6372C75.4469 74.6372 72.8148 67.4744 72.9065 62.3457L72.7799 63.0703C72.7799 63.0703 72.5442 66.0602 75.3814 74.9776L75.4469 74.6328V74.6372Z" fill="black"/>
<path opacity="0.05" d="M79.3447 52.6996C79.3447 52.6996 80.4708 57.047 81.4529 63.2364L81.597 63.542C81.597 63.542 81.0295 58.662 79.5324 52.6123L79.3403 52.6996H79.3447Z" fill="black"/>
<path opacity="0.05" d="M88.3058 59.796C88.3058 59.796 83.0417 54.7109 81.3307 51.6162L81.1343 51.7515C81.1343 51.7515 82.8584 54.7502 89.0609 60.9265L88.3058 59.796Z" fill="black"/>
<path opacity="0.05" d="M84.5084 48.4913C84.5084 48.4913 96.1321 54.768 100.379 59.8007C100.776 59.9055 97.4721 55.5712 84.6874 48.2207L84.5084 48.4913Z" fill="black"/>
<path opacity="0.05" d="M97.6248 49.4687C97.6248 49.4687 91.8719 47.2252 86.49 44.0039L86.4071 44.3051C86.4071 44.3051 91.4092 47.3299 98.3669 49.9052L97.6248 49.4687Z" fill="black"/>
<path opacity="0.05" d="M87.2844 39.5645C87.2844 39.5645 100.493 40.6819 106.843 44.3091L107.337 44.2524C107.337 44.2524 100.741 40.6513 87.3062 39.2109L87.2844 39.5689V39.5645Z" fill="black"/>
<path opacity="0.05" d="M87.6248 24.7247C87.6248 24.7247 85.9748 27.3567 83.2599 29.1681C83.5131 29.382 83.4127 29.2903 83.4127 29.2903C83.4127 29.2903 86.5335 26.894 88.2533 24.3057L87.6248 24.7247Z" fill="black"/>
<path opacity="0.05" d="M93.8665 28.8018C93.8665 28.8018 88.8906 30.085 85.8439 32.1671C85.9399 32.3373 85.9355 32.3329 85.9355 32.3329C85.9355 32.3329 89.8988 29.9803 92.8757 29.2121L93.8665 28.8018Z" fill="black"/>
<path opacity="0.05" d="M87.2102 36.3005C87.2102 36.3005 91.4921 36.5711 101.806 35.541L102.391 35.5759C102.391 35.5759 98.2053 36.4664 87.2538 36.6802L87.2102 36.3005Z" fill="black"/>
<path d="M71.0994 39.8019C70.3617 38.1389 67.4285 38.2698 66.669 39.8499C66.5337 40.1205 66.119 40.0158 66.1321 39.7146C66.1671 39.0992 66.6559 38.6147 67.1492 38.3178C68.1356 37.7373 69.432 37.7853 70.3573 38.4357C70.8026 38.7543 71.1779 39.2214 71.2521 39.7626C71.2652 39.8543 71.1299 39.8848 71.0994 39.8019Z" fill="#302826"/>
<path d="M69.6241 40.7713C70.5329 40.7713 71.2696 40.316 71.2696 39.7543C71.2696 39.1926 70.5329 38.7373 69.6241 38.7373C68.7153 38.7373 67.9785 39.1926 67.9785 39.7543C67.9785 40.316 68.7153 40.7713 69.6241 40.7713Z" fill="#302826"/>
<path d="M68.4368 39.6364C68.6899 39.6364 68.8951 39.4312 68.8951 39.178C68.8951 38.9249 68.6899 38.7197 68.4368 38.7197C68.1837 38.7197 67.9785 38.9249 67.9785 39.178C67.9785 39.4312 68.1837 39.6364 68.4368 39.6364Z" fill="#EFEFEF"/>
<path d="M68.9956 40.0944C69.0896 40.0944 69.1658 40.0182 69.1658 39.9241C69.1658 39.8301 69.0896 39.7539 68.9956 39.7539C68.9015 39.7539 68.8253 39.8301 68.8253 39.9241C68.8253 40.0182 68.9015 40.0944 68.9956 40.0944Z" fill="#EFEFEF"/>
<path d="M77.8256 39.7615C78.1704 38.0243 80.5231 37.4437 81.9286 38.3167C82.4218 38.6135 82.9106 39.098 82.9456 39.7135C82.9587 40.019 82.5396 40.1194 82.4087 39.8488C81.6492 38.2687 78.716 38.1377 77.9783 39.8008C77.9521 39.8881 77.8125 39.8531 77.8256 39.7615Z" fill="#302826"/>
<path d="M79.4494 40.7694C80.3582 40.7694 81.0949 40.3141 81.0949 39.7524C81.0949 39.1907 80.3582 38.7354 79.4494 38.7354C78.5406 38.7354 77.8038 39.1907 77.8038 39.7524C77.8038 40.3141 78.5406 40.7694 79.4494 40.7694Z" fill="#302826"/>
<path d="M80.6411 39.6354C80.8942 39.6354 81.0994 39.4302 81.0994 39.1771C81.0994 38.9239 80.8942 38.7188 80.6411 38.7188C80.3879 38.7188 80.1827 38.9239 80.1827 39.1771C80.1827 39.4302 80.3879 39.6354 80.6411 39.6354Z" fill="#EFEFEF"/>
<path d="M80.0822 40.0934C80.1762 40.0934 80.2524 40.0172 80.2524 39.9232C80.2524 39.8291 80.1762 39.7529 80.0822 39.7529C79.9882 39.7529 79.912 39.8291 79.912 39.9232C79.912 40.0172 79.9882 40.0934 80.0822 40.0934Z" fill="#EFEFEF"/>
<path d="M73.5263 43.6109C74.683 44.3268 76.1888 43.9863 76.8785 42.7947C77.2059 42.3276 77.9086 42.7947 77.5987 43.2748C76.7737 44.4795 75.0845 44.9509 73.7489 44.3617C73.5045 44.2351 72.9065 44.078 73.1203 43.6851C73.2076 43.5498 73.3953 43.5149 73.5263 43.6109Z" fill="#302826"/>
<path d="M68.6114 36.2781C69.6284 37.4522 70.9204 38.4692 72.3913 39.0105C72.6751 39.1109 72.5441 39.5386 72.2517 39.4557C70.6236 38.9756 69.2006 37.9978 68.0134 36.7975C67.6424 36.3959 68.2622 35.8547 68.6114 36.2781Z" fill="#FF2C50"/>
<path d="M76.3155 38.3865C77.1405 36.8893 78.7773 36.0076 80.4534 35.9029L80.8419 35.8811C81.2784 35.9116 82.0597 35.7326 82.0772 36.3786C82.0772 36.6798 81.7804 36.8981 81.4879 36.8282C81.1693 36.7759 80.807 36.7104 80.4796 36.7104C80.3792 36.7016 80.2396 36.7016 80.1392 36.7104C78.7948 36.7366 77.4286 37.4306 76.7389 38.6004C76.5993 38.8841 76.1715 38.6789 76.3199 38.3909L76.3155 38.3865Z" fill="#FF2C50"/>
<path d="M240.675 110.795C237.301 123.659 238.837 148.984 239.675 159.494C239.911 162.454 240.094 164.243 240.094 164.243H234.83C234.83 164.243 234.01 130.795 236.934 118.63C239.858 106.47 241.377 80.9701 241.377 80.9701L243.381 79.8877L244.188 79.4512C244.188 79.4512 245.005 94.3048 240.679 110.795H240.675Z" fill="#5ABA97"/>
<path d="M240.675 110.795C237.301 123.659 238.837 148.984 239.675 159.494L238.418 160.206C238.418 160.206 235.939 124.615 239.483 112.725C244.079 94.8243 243.717 83.6764 243.376 79.8877L244.184 79.4512C244.184 79.4512 245 94.3048 240.675 110.795Z" fill="#63C6A0"/>
<path d="M236.083 132.637C236.083 132.637 235.367 132.345 234.267 131.769C230.125 129.599 220.483 123.393 222.704 113.515C223.123 111.651 223.704 110.643 224.389 110.272C228.309 108.163 235.633 126.919 235.633 126.919L236.083 132.637Z" fill="#5ABA97"/>
<path d="M248.191 132.868C248.344 132.711 248.492 132.554 248.636 132.396C248.492 132.567 248.344 132.724 248.191 132.868Z" fill="#82D16F"/>
<path d="M250.4 91.1272C247.305 93.5759 243.42 94.2787 243.42 94.2787L243.577 90.7169C243.577 90.7169 247.475 84.7239 250.535 82.0832C252.482 80.4071 254.088 80.0797 254.149 83.5018C254.21 87.0461 252.486 89.4817 250.4 91.1272Z" fill="#5ABA97"/>
<path d="M250.4 91.1279C252.569 88.4522 254.402 84.908 253.473 81.691C253.062 80.2768 250.535 82.0839 250.535 82.0839C252.482 80.4034 254.088 80.076 254.149 83.4981C254.21 87.0424 252.486 89.478 250.4 91.1235V91.1279Z" fill="#63C6A0"/>
<path d="M262.77 46.2783C260.565 53.9256 254.516 57.0116 244.677 57.3084C241.15 57.4131 237.65 55.4359 235.061 52.3848C230.422 46.9156 228.719 38.0025 235.053 31.429C235.053 31.429 238.981 27.1602 245.188 25.9991C247.676 25.5321 250.535 25.567 253.651 26.5797C264.533 30.1109 264.974 38.6355 262.765 46.2827L262.77 46.2783Z" fill="#FFD655"/>
<path d="M235.061 52.3798C230.422 46.9106 228.719 37.9975 235.053 31.424C235.053 31.424 238.981 27.1552 245.188 25.9941C238.636 28.8444 228.588 36.0595 235.057 52.3798H235.061Z" fill="#FFC82C"/>
<path d="M252.002 26.1208C251.875 26.0946 251.748 26.0641 251.622 26.0423C249.972 25.7105 248.409 25.6451 246.951 25.7629C246.786 25.776 246.62 25.7891 246.458 25.8066C246.419 23.4801 246.38 15.8983 247.327 9.5474C248.2 3.71593 249.906 -1.0767 253.219 0.210933C254.943 0.878759 255.812 2.59852 256.126 4.86389C257.069 11.6382 253.036 23.2706 251.997 26.1165L252.002 26.1208Z" fill="#FF2C50"/>
<path d="M264.149 24.6761C261.727 27.1466 259.679 28.9493 259.212 29.3553C259.199 29.3684 259.191 29.3771 259.182 29.3858C258.527 28.8795 257.798 28.3994 256.978 27.9672H256.973C256.467 27.6966 255.93 27.4391 255.354 27.199L254.568 26.7276C254.568 26.7276 258.824 18.203 263.464 12.0355C266.964 7.38686 270.679 4.07392 272.966 6.74522C276.454 10.8264 269.413 19.3117 264.149 24.6718V24.6761Z" fill="#FF2C50"/>
<path d="M263.464 12.0391C261.465 19.6428 257.021 27.9753 257.021 27.9753L256.978 27.9666H256.973C256.467 27.6959 255.93 27.4384 255.354 27.1983C254.817 26.9757 254.254 26.7662 253.656 26.5742C253.093 26.3952 252.547 26.2424 252.002 26.1202C251.875 26.094 251.748 26.0635 251.622 26.0417C251.988 22.6458 253.372 11.4193 256.131 4.86765C257.641 1.27536 259.57 -0.911438 261.971 0.3762C265.048 2.02612 264.826 6.86677 263.464 12.0391Z" fill="#FF2C50"/>
<path d="M269.902 29.5912C266.441 30.988 263.206 31.957 261.897 32.3324C261.822 32.2145 261.744 32.0967 261.661 31.9832C261.032 31.084 260.251 30.2416 259.291 29.4777L259.212 29.3555L258.693 28.5655C258.693 28.5655 261.002 26.7846 264.145 24.6764C270.391 20.4817 279.932 15.0038 281.168 19.6873C282.211 23.6637 275.733 27.2386 269.898 29.5869L269.902 29.5912Z" fill="#FF2C50"/>
<path d="M288.243 30.8828C288.021 33.9731 284.267 35.6449 279.684 36.5222H279.679C273.795 37.6527 266.563 37.4825 263.695 37.3559C263.678 37.2293 263.66 37.0984 263.638 36.9718C263.372 35.3306 262.822 33.7636 261.901 32.3363C261.827 32.2185 261.748 32.1006 261.665 31.9871C262.905 31.5812 266.122 30.5598 269.902 29.5952C277.964 27.5524 288.61 25.7934 288.243 30.8828Z" fill="#FF2C50"/>
<path d="M287.885 50.9781C286.104 54.2169 280.6 53.5141 275.1 51.7769H275.096C269.928 50.1357 264.76 47.5823 262.7 46.5129C262.726 46.4343 262.748 46.3557 262.77 46.2772C262.813 46.1157 262.861 45.9585 262.905 45.7927C263.149 44.9022 263.35 44.0031 263.507 43.0995C263.63 42.375 263.721 41.6504 263.774 40.9346C267.436 41.3711 279.487 43.0123 285.196 46.1288C287.645 47.4688 288.928 49.0751 287.885 50.9781Z" fill="#FF2C50"/>
<path d="M291.849 42.2839C291.124 44.6715 288.544 45.7758 285.197 46.125C277.763 46.9019 266.55 43.9513 263.507 43.0957C263.63 42.3712 263.721 41.6466 263.774 40.9308C263.865 39.7173 263.848 38.517 263.691 37.3516C263.673 37.225 263.656 37.094 263.634 36.9675C266.27 36.7318 273.285 36.1992 279.675 36.5179H279.679C286.75 36.8758 293.066 38.2726 291.849 42.2839Z" fill="#FF2C50"/>
<path d="M283.52 62.3097C282.22 63.6104 280.303 63.7151 278.121 63.0953C271.766 61.297 263.123 53.3835 260.57 50.9479C260.627 50.8693 260.683 50.7907 260.736 50.7078C261.561 49.4987 262.215 48.1063 262.7 46.5132C262.726 46.4346 262.748 46.356 262.77 46.2775C262.813 46.116 262.861 45.9588 262.905 45.793C264.812 46.6005 270.199 48.9531 275.096 51.7772C275.096 51.7772 275.096 51.7772 275.101 51.7772C281.128 55.2517 286.406 59.4332 283.52 62.3097Z" fill="#FF2C50"/>
<path d="M268.763 78.2194C264.529 79.5507 260.338 73.0689 257.392 66.8577C254.909 61.6242 253.307 56.5827 253.307 56.5827L254.987 55.3562C255.018 55.3431 255.048 55.33 255.079 55.3169C255.856 54.9721 256.58 54.5793 257.248 54.134C257.44 54.0075 257.623 53.8765 257.807 53.7412C258.675 54.7844 261.892 58.6866 264.887 63.0951C269.208 69.4591 273.066 76.8663 268.758 78.2238L268.763 78.2194Z" fill="#FF2C50"/>
<path d="M279.221 69.1317C275.86 71.8466 269.832 67.652 264.891 63.0907C260.474 59.0095 256.93 54.6403 256.93 54.6403L257.253 54.134C257.445 54.0074 257.628 53.8764 257.811 53.7411C258.872 52.9598 259.793 52.0345 260.57 50.952C260.627 50.8734 260.683 50.7948 260.736 50.7119C263.861 52.4535 273.752 58.1715 278.121 63.0994C280.225 65.4739 281.05 67.6607 279.221 69.136V69.1317Z" fill="#FF2C50"/>
<path d="M254.297 82.3534C252.735 82.1221 251.604 81.0003 250.81 79.3417C247.885 73.2788 249.343 60.0358 249.754 56.8407C249.841 56.8276 249.928 56.8145 250.016 56.7971C251.857 56.4784 253.521 56.0027 254.991 55.3567C255.022 55.3436 255.053 55.3305 255.083 55.3174C255.293 56.1336 256.572 61.2711 257.392 66.8581C258.523 74.5185 258.806 83.0169 254.297 82.3534Z" fill="#FF2C50"/>
<path d="M250.806 79.3415C250.177 82.8028 248.863 85.0507 246.38 84.4353C244.66 84.0119 243.564 82.5846 242.901 80.5854C240.679 73.8635 243.398 60.6642 244.153 57.3032C244.324 57.3076 244.498 57.3076 244.669 57.3032C245.472 57.2814 246.249 57.2377 246.999 57.1766C247.955 57.0981 248.868 56.9846 249.74 56.8405C249.828 56.8274 249.915 56.8143 250.002 56.7969C250.456 59.9309 252.093 72.2136 250.801 79.3415H250.806Z" fill="#FF2C50"/>
<path d="M243.879 57.2899C243.263 59.5072 240.295 69.852 236.637 76.4429C234.306 80.6376 231.696 83.3132 229.234 81.4014C225.764 78.7039 228.292 71.9078 231.613 65.8887C234.293 61.0175 237.493 56.6613 238.449 55.3955C238.719 55.5745 238.999 55.7403 239.278 55.8931C240.662 56.6613 242.133 57.1458 243.621 57.2724C243.704 57.2811 243.791 57.2855 243.879 57.2899Z" fill="#FF2C50"/>
<path d="M249.09 57.5832C249.09 57.5832 247.065 74.7459 242.905 80.5861C241.7 82.2753 240.321 83.0173 238.759 82.1269C237.013 81.1317 236.471 79.0322 236.637 76.4482C237.069 69.8049 242.181 59.9402 243.621 57.2777C243.704 57.2864 243.791 57.2908 243.878 57.2951C243.97 57.3039 244.066 57.3039 244.158 57.3082C244.328 57.3126 244.503 57.3126 244.673 57.3082C245.476 57.2864 246.253 57.2427 247.004 57.1816L249.09 57.5876V57.5832Z" fill="#FF2C50"/>
<path d="M239.278 55.8927C238.457 57.0886 235.275 61.6543 231.613 65.8882C226.899 71.3356 221.386 76.233 219.082 72.7062C216.341 68.5115 223.385 61.6368 229.064 57.0581C229.064 57.0581 229.069 57.0581 229.073 57.0537C231.932 54.7491 234.45 53.0249 235.192 52.5273C235.284 52.6321 235.371 52.7325 235.467 52.8329C236.371 53.8324 237.379 54.6967 238.449 55.3951C238.719 55.574 238.999 55.7399 239.278 55.8927Z" fill="#FF2C50"/>
<path d="M231.299 38.1638C230.884 39.9228 230.819 41.7081 231.05 43.4496C226.528 43.0524 203.538 40.691 206.847 34.2529C208.767 30.5122 215.747 31.826 221.958 33.9255C225.926 35.2655 229.579 36.9285 231.391 37.7971C231.356 37.9194 231.325 38.0459 231.295 38.1682L231.299 38.1638Z" fill="#FF2C50"/>
<path d="M233.643 33.1051C233.577 33.1924 233.516 33.2797 233.455 33.367C232.469 34.7856 231.797 36.274 231.391 37.793C231.356 37.9152 231.325 38.0418 231.295 38.164C229.623 37.4874 225.852 35.9073 221.954 33.9213C215.083 30.4294 207.82 25.6805 210.989 22.4068C213.285 20.0367 217.65 21.5469 221.997 24.1484C221.997 24.1484 221.997 24.1484 222.002 24.1484C226.904 27.0816 231.779 31.3984 233.634 33.1051H233.643Z" fill="#FF2C50"/>
<path d="M237.253 29.5343C237.157 29.6042 237.065 29.6697 236.978 29.7395C235.738 30.6867 235.057 31.4243 235.057 31.4243C234.533 31.9699 234.062 32.5287 233.643 33.1048C233.577 33.1921 233.516 33.2794 233.455 33.3667C231.522 32.0005 226.249 28.1725 222.006 24.1481H222.002C217.489 19.8618 214.149 15.3572 217.257 13.3625C222.15 10.2154 230.574 20.3026 234.83 26.0861C234.83 26.0861 234.835 26.0948 234.839 26.0948C236.022 27.7011 236.882 28.9756 237.253 29.5343Z" fill="#FF2C50"/>
<path d="M241.923 26.9415C241.788 26.9939 241.648 27.0506 241.513 27.1073C239.767 27.8363 238.326 28.7442 237.253 29.5342C237.157 29.6041 237.065 29.6695 236.978 29.7394C236.725 29.3291 235.908 27.9803 234.839 26.0947C234.839 26.0947 234.835 26.086 234.83 26.086C232.827 22.5504 229.955 17.1118 228.261 12.341C226.467 7.27772 226.004 2.96086 229.326 2.44144C232.364 1.96567 234.852 5.02108 236.79 9.14152C237.707 11.0926 238.501 13.2794 239.178 15.4444C240.775 20.5775 241.687 25.5753 241.923 26.9415Z" fill="#FF2C50"/>
<path d="M235.502 52.9037C235.502 52.9037 232.757 54.8286 229.068 57.0547C229.068 57.0547 229.064 57.0547 229.06 57.0591C221.967 61.3366 211.417 66.7054 210.313 61.5418C209.348 57.0416 216.904 53.3969 223.525 51.101C227.702 49.6562 231.508 48.7483 232.565 48.5039C232.648 48.6916 232.739 48.8749 232.835 49.0539C233.455 50.2542 234.206 51.376 235.061 52.3755C235.101 52.4236 235.144 52.4759 235.188 52.524C235.28 52.6287 235.367 52.7291 235.463 52.8295L235.502 52.8993V52.9037Z" fill="#FF2C50"/>
<path d="M232.835 49.0574C232.264 49.2058 228.313 50.2315 223.525 51.1001C214.948 52.6628 203.695 53.7409 204.442 48.4463C205.511 40.8601 226.572 42.9509 231.055 43.4791C231.286 45.225 231.81 46.9273 232.565 48.503C232.648 48.6907 232.739 48.874 232.835 49.053V49.0574Z" fill="#FF2C50"/>
<path d="M246.951 25.7625C246.786 25.7756 246.62 25.7887 246.458 25.8061C246.026 25.8542 245.603 25.9153 245.192 25.9938C244.018 26.2121 242.923 26.5438 241.923 26.941C241.788 26.9934 241.648 27.0501 241.513 27.1069C241.133 25.5923 239.941 20.66 239.178 15.4439C238.082 7.91889 237.877 -0.208502 242.294 0.42877C245.402 0.878352 246.794 4.83729 247.331 9.54699C248.038 15.7495 247.257 23.2483 246.951 25.7625Z" fill="#FF2C50"/>
<path opacity="0.35" d="M240.998 45.6893C241.996 45.6893 242.805 45.2672 242.805 44.7465C242.805 44.2258 241.996 43.8037 240.998 43.8037C240 43.8037 239.191 44.2258 239.191 44.7465C239.191 45.2672 240 45.6893 240.998 45.6893Z" fill="#FF6E79"/>
<path opacity="0.35" d="M259.858 45.6893C260.856 45.6893 261.665 45.2672 261.665 44.7465C261.665 44.2258 260.856 43.8037 259.858 43.8037C258.86 43.8037 258.051 44.2258 258.051 44.7465C258.051 45.2672 258.86 45.6893 259.858 45.6893Z" fill="#FF6E79"/>
<path opacity="0.05" d="M247.327 9.54761L247.506 8.43457C247.506 8.43457 249.496 12.8256 247.506 25.7282L246.947 25.7631C246.947 25.7631 248.785 19.6872 247.327 9.54761Z" fill="black"/>
<path opacity="0.05" d="M241.513 27.1071L241.116 27.2773C241.116 27.2773 239.636 23.7548 238.776 14.1914L239.287 16.1687C239.287 16.1687 240.618 23.8465 241.513 27.1027V27.1071Z" fill="black"/>
<path opacity="0.05" d="M264.084 11.2461C264.084 11.2461 262.285 18.243 257.554 28.2909C257.226 28.0989 257.008 27.9767 257.008 27.9767C257.008 27.9767 259.046 25.3752 263.464 12.0405L264.084 11.2461Z" fill="black"/>
<path opacity="0.05" d="M256.126 4.86378L256.41 4.21777C256.41 4.21777 255.026 18.5084 252.687 26.3084L251.997 26.1207C251.997 26.1207 253.878 21.1622 256.126 4.86814V4.86378Z" fill="black"/>
<path opacity="0.05" d="M234.83 26.086L234.359 25.4531C234.359 25.4531 234.987 27.186 236.781 29.9184L237.135 29.6216C237.135 29.6216 235.961 28.3601 234.83 26.086Z" fill="black"/>
<path opacity="0.05" d="M222.01 24.1521L221.308 23.4756C221.308 23.4756 226.663 26.435 233.713 32.9692L233.46 33.3708C233.46 33.3708 226.773 27.3821 222.01 24.1521Z" fill="black"/>
<path opacity="0.05" d="M221.958 33.9251L220.788 33.541C220.788 33.541 222.176 34.8548 231.233 38.4559L231.299 38.1634C231.299 38.1634 225.158 35.6362 221.958 33.9208V33.9251Z" fill="black"/>
<path opacity="0.05" d="M226.93 43.0826C226.93 43.0826 230.112 43.3576 231.05 43.4492L231.089 43.7155C231.089 43.7155 228.401 43.6588 226.092 43.0215L226.93 43.0826Z" fill="black"/>
<path opacity="0.05" d="M223.368 51.1319C223.368 51.1319 228.409 50.3855 232.84 49.0586L233.006 49.3685C233.006 49.3685 228.968 51.1494 222.312 51.5335L223.368 51.1275V51.1319Z" fill="black"/>
<path opacity="0.05" d="M235.463 52.8382C235.463 52.8382 231.993 54.5754 229.06 57.059L227.807 57.8054C227.807 57.8054 230.304 55.5226 235.123 52.4541C235.524 52.908 235.467 52.8382 235.467 52.8382H235.463Z" fill="black"/>
<path opacity="0.05" d="M231.613 65.8901C231.613 65.8901 238.47 57.6274 239.278 55.8945L239.832 56.187C239.832 56.187 234.315 63.616 231.089 66.8591L231.613 65.8945V65.8901Z" fill="black"/>
<path opacity="0.05" d="M243.878 57.2898C243.878 57.2898 237.72 68.0841 236.637 76.4429C236.27 77.0976 236.17 77.2547 236.17 77.2547C236.17 77.2547 237.305 67.8441 243.486 57.2549L243.883 57.2854L243.878 57.2898Z" fill="black"/>
<path opacity="0.05" d="M242.905 80.5861C242.905 80.5861 248.514 71.2845 248.553 57.0158C248.846 56.9765 248.78 56.9852 248.78 56.9852C248.78 56.9852 249.182 69.6826 242.988 80.8567C242.914 80.6428 242.905 80.5861 242.905 80.5861Z" fill="black"/>
<path opacity="0.05" d="M250.806 79.3421C250.806 79.3421 247.92 71.4985 248.021 65.8809L247.881 66.6753C247.881 66.6753 247.624 69.9533 250.731 79.7175L250.801 79.3421H250.806Z" fill="black"/>
<path opacity="0.05" d="M255.079 55.3177C255.079 55.3177 256.314 60.0798 257.388 66.8584L257.549 67.1902C257.549 67.1902 256.925 61.8432 255.288 55.2217L255.079 55.3177Z" fill="black"/>
<path opacity="0.05" d="M264.891 63.091C264.891 63.091 259.125 57.5214 257.253 54.1299L257.034 54.2783C257.034 54.2783 258.924 57.5607 265.716 64.3262L264.891 63.091Z" fill="black"/>
<path opacity="0.05" d="M260.736 50.7079C260.736 50.7079 273.468 57.5826 278.121 63.0955C278.553 63.2089 274.939 58.46 260.932 50.4111L260.736 50.7079Z" fill="black"/>
<path opacity="0.05" d="M275.1 51.7782C275.1 51.7782 268.798 49.3208 262.905 45.7939L262.813 46.1257C262.813 46.1257 268.291 49.4386 275.912 52.2583L275.1 51.7825V51.7782Z" fill="black"/>
<path opacity="0.05" d="M263.774 40.9309C263.774 40.9309 278.239 42.1575 285.196 46.1251L285.738 46.0596C285.738 46.0596 278.514 42.1138 263.8 40.5381L263.774 40.9309Z" fill="black"/>
<path opacity="0.05" d="M264.149 24.6761C264.149 24.6761 262.342 27.5569 259.369 29.5429C259.649 29.7786 259.535 29.6782 259.535 29.6782C259.535 29.6782 262.953 27.0506 264.839 24.2178L264.149 24.6761Z" fill="black"/>
<path opacity="0.05" d="M270.984 29.1455C270.984 29.1455 265.533 30.551 262.198 32.8338C262.303 33.0215 262.303 33.0172 262.303 33.0172C262.303 33.0172 266.641 30.4419 269.902 29.5951L270.984 29.1455Z" fill="black"/>
<path opacity="0.05" d="M263.691 37.3562C263.691 37.3562 268.383 37.6486 279.675 36.5225L280.316 36.5617C280.316 36.5617 275.729 37.5351 263.739 37.7708L263.691 37.3562Z" fill="black"/>
<path d="M246.048 41.1883C245.24 39.3681 242.028 39.5078 241.194 41.2406C241.046 41.5374 240.592 41.424 240.605 41.0922C240.644 40.42 241.177 39.8875 241.718 39.5602C242.8 38.9272 244.219 38.9796 245.232 39.6911C245.721 40.0403 246.131 40.5553 246.214 41.1446C246.227 41.245 246.078 41.2799 246.048 41.1839V41.1883Z" fill="#302826"/>
<path d="M244.433 42.2485C245.429 42.2485 246.236 41.7502 246.236 41.1355C246.236 40.5208 245.429 40.0225 244.433 40.0225C243.437 40.0225 242.63 40.5208 242.63 41.1355C242.63 41.7502 243.437 42.2485 244.433 42.2485Z" fill="#302826"/>
<path d="M243.132 41.0098C243.409 41.0098 243.634 40.785 243.634 40.5078C243.634 40.2306 243.409 40.0059 243.132 40.0059C242.855 40.0059 242.63 40.2306 242.63 40.5078C242.63 40.785 242.855 41.0098 243.132 41.0098Z" fill="#EFEFEF"/>
<path d="M243.743 41.5111C243.847 41.5111 243.931 41.4271 243.931 41.3234C243.931 41.2198 243.847 41.1357 243.743 41.1357C243.64 41.1357 243.556 41.2198 243.556 41.3234C243.556 41.4271 243.64 41.5111 243.743 41.5111Z" fill="#EFEFEF"/>
<path d="M253.416 41.1489C253.796 39.2458 256.371 38.6129 257.912 39.5645C258.453 39.8918 258.985 40.42 259.025 41.0965C259.038 41.4326 258.584 41.5374 258.435 41.2449C257.602 39.5121 254.389 39.368 253.582 41.1926C253.551 41.2886 253.398 41.2493 253.416 41.1533V41.1489Z" fill="#302826"/>
<path d="M255.197 42.2495C256.192 42.2495 256.999 41.7512 256.999 41.1365C256.999 40.5218 256.192 40.0234 255.197 40.0234C254.201 40.0234 253.394 40.5218 253.394 41.1365C253.394 41.7512 254.201 42.2495 255.197 42.2495Z" fill="#302826"/>
<path d="M256.497 41.0098C256.775 41.0098 256.999 40.785 256.999 40.5078C256.999 40.2306 256.775 40.0059 256.497 40.0059C256.22 40.0059 255.995 40.2306 255.995 40.5078C255.995 40.785 256.22 41.0098 256.497 41.0098Z" fill="#EFEFEF"/>
<path d="M255.886 41.5111C255.99 41.5111 256.074 41.4271 256.074 41.3234C256.074 41.2198 255.99 41.1357 255.886 41.1357C255.783 41.1357 255.699 41.2198 255.699 41.3234C255.699 41.4271 255.783 41.5111 255.886 41.5111Z" fill="#EFEFEF"/>
<path d="M248.706 45.3607C249.972 46.1464 251.622 45.771 252.377 44.4659C252.735 43.9509 253.503 44.4659 253.167 44.9941C252.263 46.3123 250.413 46.8317 248.95 46.1813C248.68 46.0417 248.029 45.8714 248.261 45.4393C248.357 45.2909 248.562 45.2516 248.706 45.3564V45.3607Z" fill="#302826"/>
<path d="M243.324 37.3336C244.437 38.6169 245.856 39.7343 247.466 40.3279C247.781 40.437 247.632 40.9041 247.314 40.8124C245.533 40.2843 243.975 39.2149 242.669 37.901C242.264 37.4602 242.94 36.8666 243.324 37.3336Z" fill="#FF2C50"/>
<path d="M251.761 39.6385C252.665 38.0017 254.459 37.0327 256.292 36.9192L256.716 36.893C257.191 36.9279 258.051 36.7272 258.069 37.4343C258.069 37.766 257.741 38.0017 257.423 37.9275C257.073 37.8708 256.676 37.7966 256.318 37.7966C256.205 37.7878 256.056 37.7835 255.947 37.7966C254.476 37.8227 252.979 38.5866 252.224 39.8699C252.071 40.1798 251.604 39.9528 251.766 39.6429L251.761 39.6385Z" fill="#FF2C50"/>
<path d="M148.807 111.834C146.175 121.86 147.376 141.598 148.026 149.787C148.209 152.096 148.349 153.488 148.349 153.488H144.246C144.246 153.488 143.609 127.421 145.887 117.941C148.166 108.464 149.348 88.5911 149.348 88.5911L150.907 87.7487L151.535 87.4082C151.535 87.4082 152.173 98.9838 148.803 111.834H148.807Z" fill="#5ABA97"/>
<path d="M148.807 111.834C146.175 121.861 147.376 141.599 148.026 149.787L147.048 150.341C147.048 150.341 145.115 122.603 147.878 113.336C151.461 99.3859 151.177 90.6954 150.911 87.7448L151.54 87.4043C151.54 87.4043 152.177 98.9799 148.807 111.83V111.834Z" fill="#63C6A0"/>
<path d="M145.228 128.853C145.228 128.853 144.674 128.626 143.814 128.176C140.588 126.487 133.072 121.651 134.8 113.951C135.128 112.498 135.577 111.712 136.114 111.424C139.17 109.779 144.875 124.397 144.875 124.397L145.224 128.853H145.228Z" fill="#5ABA97"/>
<path d="M154.665 129.037C154.783 128.914 154.901 128.792 155.01 128.67C154.896 128.801 154.783 128.923 154.665 129.037Z" fill="#82D16F"/>
<path d="M156.389 96.5052C153.975 98.4126 150.95 98.9626 150.95 98.9626L151.073 96.1865C151.073 96.1865 154.111 91.5161 156.494 89.4603C158.013 88.1508 159.266 87.8977 159.309 90.5646C159.357 93.3232 158.013 95.2219 156.389 96.5096V96.5052Z" fill="#5ABA97"/>
<path d="M156.389 96.5056C158.083 94.4192 159.506 91.6563 158.781 89.1508C158.462 88.0465 156.494 89.4564 156.494 89.4564C158.013 88.1469 159.266 87.8937 159.309 90.5607C159.357 93.3193 158.013 95.218 156.389 96.5056Z" fill="#63C6A0"/>
<path d="M166.027 61.5508C164.311 67.5088 159.593 69.9139 151.924 70.1452C149.178 70.2282 146.446 68.6874 144.429 66.3085C140.815 62.0484 139.484 55.0995 144.425 49.9751C144.425 49.9751 147.489 46.6491 152.325 45.7412C154.268 45.3789 156.489 45.4051 158.921 46.1908C167.402 48.9407 167.742 55.5884 166.027 61.5464V61.5508Z" fill="#FFD655"/>
<path d="M144.434 66.3085C140.82 62.0484 139.488 55.0995 144.429 49.9751C144.429 49.9751 147.493 46.6491 152.33 45.7412C147.223 47.9629 139.392 53.5849 144.434 66.3041V66.3085Z" fill="#FFC82C"/>
<path d="M157.633 45.8419C157.537 45.82 157.437 45.7982 157.341 45.7808C156.057 45.5232 154.84 45.4709 153.7 45.5625C153.574 45.5712 153.443 45.5843 153.316 45.5974C153.286 43.786 153.255 37.876 153.993 32.9262C154.674 28.378 156.005 24.646 158.585 25.65C159.929 26.1694 160.606 27.5138 160.85 29.2772C161.583 34.5587 158.441 43.6245 157.633 45.8419Z" fill="#FF2C50"/>
<path d="M167.1 44.7195C165.21 46.6444 163.617 48.0499 163.255 48.3641C163.246 48.3729 163.238 48.3816 163.229 48.386C162.718 47.9887 162.151 47.6177 161.513 47.2773C161.116 47.0634 160.702 46.867 160.252 46.6793L159.641 46.3126C159.641 46.3126 162.958 39.6693 166.572 34.8636C169.3 31.2407 172.199 28.6611 173.979 30.7431C176.699 33.9208 171.208 40.5335 167.109 44.7151L167.1 44.7195Z" fill="#FF2C50"/>
<path d="M166.568 34.8684C165.01 40.7959 161.548 47.2864 161.548 47.2864H161.513V47.2777C161.116 47.0682 160.702 46.8674 160.252 46.6797C159.833 46.5051 159.392 46.3436 158.929 46.1908C158.493 46.0512 158.065 45.9333 157.642 45.8373C157.546 45.8155 157.445 45.7936 157.349 45.7762C157.637 43.1311 158.711 34.3795 160.863 29.2726C162.042 26.4703 163.543 24.768 165.416 25.772C167.816 27.0596 167.642 30.8309 166.581 34.864L166.568 34.8684Z" fill="#FF2C50"/>
<path d="M171.583 48.5484C168.886 49.6353 166.367 50.3904 165.346 50.6872C165.289 50.5955 165.228 50.5039 165.162 50.4122C164.674 49.7095 164.062 49.0547 163.316 48.4611L163.255 48.3651L162.853 47.7496C162.853 47.7496 164.656 46.3616 167.105 44.7204C171.976 41.4511 179.409 37.1823 180.37 40.8313C181.181 43.9304 176.136 46.7152 171.587 48.5484H171.583Z" fill="#FF2C50"/>
<path d="M185.878 49.5568C185.703 51.9662 182.779 53.2669 179.204 53.9522C174.621 54.8339 168.982 54.703 166.747 54.6026C166.734 54.5022 166.716 54.4018 166.703 54.3014C166.498 53.0225 166.066 51.8003 165.35 50.6873C165.293 50.5956 165.232 50.504 165.167 50.4123C166.136 50.0937 168.637 49.2993 171.587 48.5485C177.869 46.9553 186.166 45.5847 185.882 49.5524L185.878 49.5568Z" fill="#FF2C50"/>
<path d="M185.599 65.2178C184.211 67.7451 179.92 67.1951 175.634 65.842C171.605 64.5631 167.581 62.5727 165.974 61.739C165.992 61.6779 166.014 61.6168 166.031 61.5557C166.066 61.4291 166.101 61.3069 166.136 61.1803C166.324 60.4863 166.485 59.7836 166.607 59.0808C166.703 58.5177 166.773 57.9547 166.817 57.3916C169.667 57.7321 179.06 59.011 183.512 61.4378C185.424 62.481 186.424 63.7338 185.608 65.2178H185.599Z" fill="#FF2C50"/>
<path d="M188.689 58.4433C188.122 60.3071 186.114 61.167 183.504 61.4376C177.711 62.0444 168.969 59.7441 166.599 59.0762C166.695 58.5132 166.764 57.9501 166.808 57.387C166.878 56.4442 166.865 55.5058 166.743 54.5979C166.729 54.4975 166.712 54.3971 166.699 54.2967C168.755 54.1134 174.22 53.6987 179.2 53.9475C184.713 54.2269 189.632 55.3181 188.685 58.439L188.689 58.4433Z" fill="#FF2C50"/>
<path d="M182.199 74.0478C181.186 75.0604 179.693 75.1434 177.991 74.6589C173.041 73.2578 166.302 67.0902 164.311 65.1915C164.355 65.1304 164.399 65.0693 164.442 65.0038C165.088 64.061 165.599 62.9785 165.97 61.7345C165.987 61.6734 166.009 61.6123 166.027 61.5512C166.062 61.4246 166.097 61.3024 166.131 61.1758C167.615 61.8043 171.814 63.6376 175.629 65.8375C180.326 68.5437 184.442 71.8043 182.19 74.0478H182.199Z" fill="#FF2C50"/>
<path d="M170.697 86.4485C167.397 87.4874 164.132 82.4372 161.836 77.5966C159.903 73.5198 158.654 69.587 158.654 69.587L159.964 68.6311C159.986 68.6224 160.012 68.6093 160.034 68.6006C160.64 68.3299 161.203 68.0244 161.727 67.6796C161.876 67.5835 162.02 67.4788 162.164 67.374C162.84 68.1859 165.35 71.2282 167.681 74.6634C171.051 79.6219 174.058 85.3966 170.697 86.4529V86.4485Z" fill="#FF2C50"/>
<path d="M178.846 79.3643C176.227 81.4813 171.531 78.212 167.681 74.6546C164.241 71.477 161.474 68.068 161.474 68.068L161.727 67.6708C161.876 67.5748 162.02 67.4701 162.164 67.3653C162.993 66.7586 163.709 66.034 164.311 65.1916C164.355 65.1305 164.399 65.0694 164.442 65.0039C166.878 66.3614 174.586 70.8179 177.991 74.659C179.628 76.5097 180.274 78.2164 178.846 79.3643Z" fill="#FF2C50"/>
<path d="M159.423 89.6689C158.205 89.4899 157.323 88.6126 156.703 87.3206C154.425 82.5978 155.56 72.2748 155.878 69.7869C155.948 69.7781 156.014 69.765 156.084 69.7519C157.52 69.5031 158.816 69.1321 159.964 68.6302C159.986 68.6214 160.012 68.6083 160.034 68.5996C160.195 69.2369 161.19 73.2395 161.836 77.5956C162.718 83.5668 162.936 90.1883 159.423 89.6689Z" fill="#FF2C50"/>
<path d="M156.703 87.322C156.215 90.0195 155.189 91.7698 153.255 91.2897C151.915 90.9579 151.06 89.8493 150.545 88.291C148.812 83.0532 150.933 72.7652 151.522 70.1462C151.658 70.1462 151.789 70.1462 151.924 70.1462C152.548 70.1288 153.155 70.0939 153.74 70.0458C154.486 69.9847 155.193 69.8974 155.878 69.7839C155.948 69.7752 156.014 69.7621 156.084 69.749C156.437 72.1934 157.712 81.7655 156.703 87.3176V87.322Z" fill="#FF2C50"/>
<path d="M151.304 70.1369C150.824 71.8654 148.511 79.9273 145.66 85.0648C143.844 88.3341 141.81 90.4161 139.89 88.9277C137.184 86.8238 139.157 81.5292 141.741 76.837C143.831 73.0439 146.324 69.6437 147.066 68.6572C147.28 68.7969 147.494 68.9278 147.712 69.0457C148.79 69.6437 149.938 70.0234 151.099 70.1195C151.164 70.1282 151.234 70.1282 151.3 70.1326L151.304 70.1369Z" fill="#FF2C50"/>
<path d="M155.368 70.3645C155.368 70.3645 153.788 83.7429 150.544 88.2911C149.606 89.6049 148.528 90.1854 147.31 89.4914C145.948 88.7188 145.525 87.082 145.656 85.0654C145.992 79.8887 149.977 72.2021 151.099 70.1245C151.164 70.1332 151.234 70.1332 151.3 70.1376C151.369 70.1419 151.444 70.1463 151.518 70.1463C151.653 70.1463 151.784 70.1463 151.919 70.1463C152.544 70.1288 153.15 70.0939 153.735 70.0459L155.359 70.3645H155.368Z" fill="#FF2C50"/>
<path d="M147.72 69.0506C147.083 69.9846 144.6 73.542 141.745 76.8419C138.07 81.0845 133.775 84.9038 131.976 82.1539C129.842 78.8846 135.329 73.5289 139.759 69.9585C139.759 69.9585 139.759 69.9585 139.763 69.9585C141.994 68.1601 143.954 66.8201 144.53 66.4316C144.6 66.5146 144.669 66.5931 144.744 66.6717C145.451 67.4487 146.232 68.1252 147.066 68.6665C147.28 68.8061 147.493 68.9371 147.712 69.0549L147.72 69.0506Z" fill="#FF2C50"/>
<path d="M141.5 55.2309C141.177 56.6014 141.129 57.9938 141.308 59.347C137.782 59.037 119.868 57.1951 122.448 52.1798C123.945 49.2641 129.384 50.2898 134.224 51.9267C137.319 52.9742 140.165 54.2706 141.575 54.9428C141.548 55.0388 141.527 55.1348 141.5 55.2309Z" fill="#FF2C50"/>
<path d="M143.325 51.2886C143.277 51.3585 143.229 51.4239 143.181 51.4938C142.413 52.5981 141.889 53.7592 141.575 54.942C141.549 55.0381 141.527 55.1341 141.501 55.2301C140.2 54.702 137.258 53.4711 134.22 51.9259C128.864 49.2022 123.207 45.5008 125.674 42.9517C127.463 41.1054 130.868 42.2795 134.255 44.3092C138.074 46.592 141.876 49.9573 143.321 51.2886H143.325Z" fill="#FF2C50"/>
<path d="M146.14 48.5044C146.066 48.5568 145.992 48.6136 145.927 48.6659C144.962 49.4036 144.429 49.9798 144.429 49.9798C144.019 50.4032 143.652 50.844 143.329 51.2892C143.281 51.3591 143.233 51.4245 143.185 51.4944C141.675 50.4293 137.568 47.4481 134.264 44.3098C130.745 40.9707 128.144 37.4569 130.567 35.903C134.381 33.45 140.946 41.3155 144.259 45.82C144.259 45.82 144.259 45.8244 144.264 45.8288C145.185 47.0815 145.857 48.0723 146.145 48.5088L146.14 48.5044Z" fill="#FF2C50"/>
<path d="M149.781 46.4836C149.672 46.5229 149.567 46.5709 149.462 46.6145C148.1 47.1819 146.978 47.8891 146.14 48.5045C146.066 48.5569 145.992 48.6136 145.926 48.666C145.73 48.343 145.093 47.2954 144.259 45.8245C144.259 45.8245 144.259 45.8201 144.255 45.8157C142.696 43.0615 140.453 38.8232 139.135 35.1043C137.738 31.1585 137.376 27.7932 139.964 27.3916C142.334 27.0206 144.272 29.4038 145.782 32.6164C146.498 34.1353 147.118 35.842 147.642 37.5268C148.886 41.5251 149.597 45.4229 149.781 46.4879V46.4836Z" fill="#FF2C50"/>
<path d="M144.779 66.7194C144.779 66.7194 142.64 68.2209 139.763 69.9538C139.763 69.9538 139.763 69.9538 139.759 69.9538C134.233 73.2885 126.01 77.4701 125.145 73.45C124.39 69.9407 130.283 67.0991 135.442 65.3139C138.698 64.1878 141.662 63.4807 142.487 63.293C142.552 63.437 142.622 63.5811 142.701 63.7251C143.185 64.6592 143.77 65.5321 144.434 66.3135C144.464 66.3527 144.499 66.392 144.53 66.4269C144.6 66.5099 144.669 66.5884 144.744 66.667L144.774 66.7194H144.779Z" fill="#FF2C50"/>
<path d="M142.701 63.7198C142.256 63.8376 139.174 64.632 135.446 65.3129C128.764 66.5307 119.995 67.3732 120.575 63.244C121.409 57.3296 137.825 58.962 141.313 59.3723C141.492 60.7342 141.902 62.0611 142.487 63.2876C142.553 63.4317 142.622 63.5757 142.701 63.7198Z" fill="#FF2C50"/>
<path d="M153.696 45.5628C153.569 45.5716 153.438 45.5846 153.312 45.5977C152.976 45.637 152.644 45.685 152.325 45.7461C151.409 45.9164 150.558 46.1783 149.776 46.4838C149.667 46.5231 149.562 46.5711 149.458 46.6148C149.161 45.4362 148.231 41.5908 147.638 37.5227C146.782 31.6607 146.625 25.3229 150.064 25.8205C152.487 26.1697 153.574 29.2557 153.988 32.9265C154.538 37.7584 153.932 43.6074 153.696 45.5628Z" fill="#FF2C50"/>
<path opacity="0.35" d="M149.056 61.0936C149.832 61.0936 150.462 60.7652 150.462 60.3602C150.462 59.9553 149.832 59.627 149.056 59.627C148.28 59.627 147.651 59.9553 147.651 60.3602C147.651 60.7652 148.28 61.0936 149.056 61.0936Z" fill="#FF6E79"/>
<path opacity="0.35" d="M163.757 61.0936C164.533 61.0936 165.163 60.7652 165.163 60.3602C165.163 59.9553 164.533 59.627 163.757 59.627C162.981 59.627 162.352 59.9553 162.352 60.3602C162.352 60.7652 162.981 61.0936 163.757 61.0936Z" fill="#FF6E79"/>
<path opacity="0.05" d="M153.993 32.9262L154.132 32.0576C154.132 32.0576 155.682 35.4797 154.132 45.5363L153.696 45.5625C153.696 45.5625 155.128 40.8266 153.988 32.9262H153.993Z" fill="black"/>
<path opacity="0.05" d="M149.458 46.6147L149.148 46.7501C149.148 46.7501 147.995 44.0046 147.323 36.5537L147.72 38.0945C147.72 38.0945 148.759 44.0788 149.453 46.6147H149.458Z" fill="black"/>
<path opacity="0.05" d="M167.048 34.249C167.048 34.249 165.647 39.7008 161.959 47.5313C161.701 47.3786 161.535 47.2869 161.535 47.2869C161.535 47.2869 163.124 45.2616 166.563 34.8688L167.048 34.249Z" fill="black"/>
<path opacity="0.05" d="M160.85 29.2774L161.073 28.7754C161.073 28.7754 159.994 39.9145 158.17 45.9905L157.633 45.842C157.633 45.842 159.1 41.9748 160.85 29.2774Z" fill="black"/>
<path opacity="0.05" d="M144.25 45.8165L143.884 45.3232C143.884 45.3232 144.373 46.6764 145.769 48.802L146.044 48.5707C146.044 48.5707 145.128 47.5886 144.246 45.8165H144.25Z" fill="black"/>
<path opacity="0.05" d="M134.259 44.3104L133.709 43.7822C133.709 43.7822 137.882 46.0869 143.377 51.1807L143.181 51.495C143.181 51.495 137.969 46.8289 134.259 44.3104Z" fill="black"/>
<path opacity="0.05" d="M134.22 51.9267L133.308 51.6299C133.308 51.6299 134.39 52.6556 141.448 55.4622L141.5 55.2353C141.5 55.2353 136.717 53.2667 134.22 51.9311V51.9267Z" fill="black"/>
<path opacity="0.05" d="M138.096 59.0627C138.096 59.0627 140.575 59.2765 141.308 59.3464L141.339 59.5559C141.339 59.5559 139.244 59.5079 137.446 59.0146L138.1 59.0627H138.096Z" fill="black"/>
<path opacity="0.05" d="M135.32 65.3357C135.32 65.3357 139.248 64.7552 142.701 63.7207L142.832 63.9651C142.832 63.9651 139.685 65.3532 134.495 65.6543L135.32 65.3401V65.3357Z" fill="black"/>
<path opacity="0.05" d="M144.748 66.6674C144.748 66.6674 142.046 68.0205 139.759 69.9585L138.781 70.539C138.781 70.539 140.728 68.7625 144.482 66.3662C144.796 66.7198 144.748 66.6674 144.748 66.6674Z" fill="black"/>
<path opacity="0.05" d="M141.745 76.8372C141.745 76.8372 147.092 70.3946 147.72 69.0459L148.153 69.2729C148.153 69.2729 143.853 75.0607 141.339 77.588L141.745 76.8372Z" fill="black"/>
<path opacity="0.05" d="M151.304 70.1365C151.304 70.1365 146.507 78.5477 145.66 85.0644C145.372 85.5751 145.298 85.6973 145.298 85.6973C145.298 85.6973 146.184 78.3643 150.998 70.1104L151.308 70.1365H151.304Z" fill="black"/>
<path opacity="0.05" d="M150.544 88.2902C150.544 88.2902 154.914 81.0402 154.944 69.9185C155.176 69.8879 155.119 69.8967 155.119 69.8967C155.119 69.8967 155.433 79.7918 150.606 88.4998C150.544 88.3339 150.544 88.2902 150.544 88.2902Z" fill="black"/>
<path opacity="0.05" d="M156.703 87.3218C156.703 87.3218 154.455 81.211 154.534 76.833L154.425 77.4528C154.425 77.4528 154.224 80.0063 156.647 87.6142L156.703 87.3218Z" fill="black"/>
<path opacity="0.05" d="M160.034 68.5957C160.034 68.5957 160.998 72.3058 161.836 77.5917L161.963 77.8492C161.963 77.8492 161.479 73.6851 160.2 68.5215L160.034 68.5957Z" fill="black"/>
<path opacity="0.05" d="M167.681 74.6547C167.681 74.6547 163.185 70.3116 161.727 67.6709L161.557 67.7888C161.557 67.7888 163.028 70.3466 168.323 75.6193L167.681 74.6547Z" fill="black"/>
<path opacity="0.05" d="M164.442 65.0038C164.442 65.0038 174.364 70.3639 177.991 74.6589C178.327 74.7462 175.512 71.0491 164.595 64.7725L164.442 65.0038Z" fill="black"/>
<path opacity="0.05" d="M175.634 65.8379C175.634 65.8379 170.723 63.9217 166.131 61.1719L166.062 61.4294C166.062 61.4294 170.33 64.0134 176.271 66.2089L175.638 65.8379H175.634Z" fill="black"/>
<path opacity="0.05" d="M166.812 57.3876C166.812 57.3876 178.087 58.3435 183.508 61.4338L183.931 61.3858C183.931 61.3858 178.301 58.3129 166.834 57.082L166.812 57.3876Z" fill="black"/>
<path opacity="0.05" d="M167.101 44.7202C167.101 44.7202 165.691 46.9638 163.373 48.5133C163.591 48.6966 163.504 48.6181 163.504 48.6181C163.504 48.6181 166.171 46.5709 167.637 44.3623L167.101 44.7202Z" fill="black"/>
<path opacity="0.05" d="M172.43 48.1987C172.43 48.1987 168.183 49.2943 165.582 51.0708C165.664 51.2148 165.66 51.2105 165.66 51.2105C165.66 51.2105 169.043 49.2026 171.583 48.5435L172.426 48.1943L172.43 48.1987Z" fill="black"/>
<path opacity="0.05" d="M166.743 54.5976C166.743 54.5976 170.396 54.829 179.2 53.9473L179.702 53.9778C179.702 53.9778 176.127 54.7373 166.782 54.9206L166.743 54.5976Z" fill="black"/>
<path d="M152.993 57.5873C152.365 56.1687 149.859 56.2778 149.213 57.6309C149.1 57.8623 148.742 57.775 148.755 57.5174C148.785 56.9937 149.2 56.579 149.623 56.3258C150.466 55.8326 151.575 55.8719 152.36 56.4262C152.74 56.6969 153.059 57.0984 153.124 57.5611C153.137 57.6397 153.019 57.6659 152.993 57.5916V57.5873Z" fill="#302826"/>
<path d="M151.736 58.413C152.512 58.413 153.142 58.0241 153.142 57.5444C153.142 57.0647 152.512 56.6758 151.736 56.6758C150.96 56.6758 150.331 57.0647 150.331 57.5444C150.331 58.0241 150.96 58.413 151.736 58.413Z" fill="#302826"/>
<path d="M150.724 57.4478C150.94 57.4478 151.116 57.2719 151.116 57.055C151.116 56.838 150.94 56.6621 150.724 56.6621C150.507 56.6621 150.331 56.838 150.331 57.055C150.331 57.2719 150.507 57.4478 150.724 57.4478Z" fill="#EFEFEF"/>
<path d="M151.199 57.8408C151.281 57.8408 151.348 57.7743 151.348 57.6923C151.348 57.6104 151.281 57.5439 151.199 57.5439C151.117 57.5439 151.051 57.6104 151.051 57.6923C151.051 57.7743 151.117 57.8408 151.199 57.8408Z" fill="#EFEFEF"/>
<path d="M158.738 57.5579C159.034 56.0739 161.038 55.5807 162.238 56.3227C162.662 56.5759 163.076 56.9905 163.107 57.5143C163.116 57.7762 162.762 57.8591 162.649 57.6278C161.998 56.279 159.497 56.1656 158.869 57.5841C158.842 57.6583 158.724 57.6278 158.738 57.5536V57.5579Z" fill="#302826"/>
<path d="M160.121 58.413C160.897 58.413 161.527 58.0241 161.527 57.5444C161.527 57.0647 160.897 56.6758 160.121 56.6758C159.345 56.6758 158.716 57.0647 158.716 57.5444C158.716 58.0241 159.345 58.413 160.121 58.413Z" fill="#302826"/>
<path d="M161.138 57.4488C161.355 57.4488 161.531 57.2729 161.531 57.0559C161.531 56.839 161.355 56.6631 161.138 56.6631C160.921 56.6631 160.745 56.839 160.745 57.0559C160.745 57.2729 160.921 57.4488 161.138 57.4488Z" fill="#EFEFEF"/>
<path d="M160.662 57.8417C160.744 57.8417 160.811 57.7753 160.811 57.6933C160.811 57.6114 160.744 57.5449 160.662 57.5449C160.58 57.5449 160.514 57.6114 160.514 57.6933C160.514 57.7753 160.58 57.8417 160.662 57.8417Z" fill="#EFEFEF"/>
<path d="M155.067 60.8396C156.053 61.4507 157.341 61.1626 157.926 60.1456C158.205 59.744 158.803 60.1456 158.541 60.5559C157.834 61.5817 156.393 61.9876 155.254 61.4813C155.045 61.3721 154.534 61.2368 154.717 60.9051C154.792 60.7872 154.953 60.7611 155.067 60.8396Z" fill="#302826"/>
<path d="M150.872 54.5797C151.74 55.5792 152.845 56.4522 154.098 56.9105C154.342 56.9935 154.228 57.3601 153.98 57.2903C152.592 56.88 151.378 56.0463 150.361 55.0205C150.047 54.6757 150.575 54.2174 150.872 54.5753V54.5797Z" fill="#FF2C50"/>
<path d="M157.45 56.3785C158.157 55.0996 159.549 54.3488 160.981 54.2572L161.313 54.2353C161.684 54.2615 162.351 54.1088 162.365 54.6587C162.365 54.9163 162.111 55.104 161.863 55.0428C161.588 54.9992 161.282 54.9425 161.003 54.9425C160.915 54.9381 160.798 54.9337 160.715 54.9425C159.567 54.9643 158.401 55.5579 157.812 56.5575C157.694 56.8019 157.327 56.6229 157.454 56.3785H157.45Z" fill="#FF2C50"/>
<path d="M237.475 174.065H237.462C154.447 174.44 0 172.397 0 172.397L10.9384 168.827C10.9384 168.827 42.0075 149.813 55.1327 150.708C68.271 151.599 70.8943 145.06 76.573 147.138C82.2691 149.215 100.65 146.02 104.146 146.727C106.149 147.129 113.914 145.601 122.038 145.051C128.105 144.624 134.377 144.746 138.554 146.623C148.336 151.005 158.506 142.555 165.678 144.851C172.849 147.138 214.857 145.357 215.734 148.919C216.607 152.489 254.682 161.398 260.801 165.562C266.934 169.717 285.314 168.53 288.811 172.393C289.762 173.449 268.667 173.921 237.471 174.06L237.475 174.065Z" fill="#4F2F2F"/>
<path d="M237.475 174.064H237.462C237.462 174.064 225.315 167.049 223.669 166.604C222.024 166.159 202.5 151.454 199.222 154.125C195.944 156.796 165.582 149.332 163.281 147.198C160.981 145.064 147.533 153.457 142.112 149.337C136.699 145.216 122.046 145.059 122.046 145.059C128.113 144.631 134.386 144.754 138.563 146.631C148.345 151.013 158.515 142.562 165.686 144.858C172.858 147.146 214.865 145.365 215.743 148.926C216.616 152.497 254.69 161.406 260.81 165.57C266.943 169.725 285.323 168.538 288.819 172.401C289.771 173.457 268.675 173.928 237.48 174.068L237.475 174.064Z" fill="#593636"/>
<path d="M180.688 150.219C180.592 150.193 180.221 150.254 179.684 150.367C177.227 150.83 171.151 152.201 169.501 151.088C167.48 149.73 163.753 151.21 162.578 149.608C162.578 149.608 166.625 145.793 167.694 145.671C168.423 145.583 171.452 144.767 173.159 144.523C173.962 144.401 174.473 144.414 174.303 144.693C173.774 145.548 179.418 147.15 179.309 147.028C179.204 146.906 181.225 150.341 180.697 150.219H180.688Z" fill="#7C7976"/>
<path d="M180.688 150.218C180.592 150.192 180.221 150.253 179.684 150.367C179.366 149.559 179.017 148.534 178.995 147.984C178.964 146.98 174.062 146.177 173.827 145.199C173.761 144.919 173.499 144.697 173.15 144.527C173.953 144.404 174.464 144.418 174.294 144.697C173.766 145.552 179.409 147.154 179.3 147.032C179.195 146.91 181.216 150.345 180.688 150.223V150.218Z" fill="#898683"/>
<path d="M29.4805 172.361C29.3801 172.339 28.9916 172.396 28.4242 172.496C25.8489 172.92 19.4718 174.164 17.739 173.151C15.6177 171.916 11.7067 173.26 10.4758 171.807C10.4758 171.807 14.7185 168.341 15.8403 168.228C16.6085 168.149 19.7861 167.407 21.5713 167.184C22.4138 167.075 22.9506 167.084 22.7717 167.341C22.2173 168.118 28.1361 169.576 28.027 169.463C27.9179 169.354 30.0392 172.475 29.4805 172.361Z" fill="#7C7976"/>
<path d="M29.4804 172.361C29.3801 172.339 28.9916 172.396 28.4241 172.496C28.0924 171.763 27.7258 170.829 27.7039 170.331C27.669 169.419 22.5272 168.685 22.2828 167.799C22.2173 167.542 21.9379 167.345 21.5713 167.188C22.4137 167.079 22.9506 167.088 22.7716 167.345C22.2173 168.122 28.1361 169.58 28.0269 169.467C27.9178 169.358 30.0391 172.478 29.4804 172.365V172.361Z" fill="#898683"/>
<path d="M125.01 151.545C124.931 151.528 124.626 151.572 124.176 151.65C122.142 151.982 117.114 152.964 115.748 152.165C114.076 151.192 110.99 152.253 110.017 151.105C110.017 151.105 113.364 148.372 114.251 148.285C114.857 148.224 117.363 147.634 118.773 147.46C119.44 147.373 119.859 147.381 119.72 147.582C119.283 148.198 123.954 149.341 123.866 149.254C123.779 149.167 125.451 151.628 125.014 151.541L125.01 151.545Z" fill="#7C7976"/>
<path d="M125.01 151.545C124.931 151.527 124.626 151.571 124.176 151.65C123.914 151.074 123.626 150.336 123.609 149.943C123.583 149.223 119.528 148.647 119.331 147.944C119.279 147.743 119.061 147.586 118.773 147.464C119.44 147.376 119.859 147.385 119.72 147.586C119.283 148.201 123.954 149.345 123.866 149.258C123.779 149.17 125.451 151.632 125.014 151.545H125.01Z" fill="#898683"/>
<path d="M73.0112 155.707C72.8716 155.781 72.2125 155.886 71.2609 156.013C67.8389 156.445 60.6194 157.065 60.3051 156.899C59.8992 156.672 52.2039 156.227 50.5016 155.454C50.5016 155.454 53.5439 149.265 55.2811 150.356C57.0183 151.447 57.5509 148.287 58.8079 148.492C59.2663 148.566 59.8337 148.619 60.4579 148.658C61.5098 148.732 62.6752 148.784 63.4129 148.937C64.5914 149.177 65.8092 149.71 66.6604 149.95C67.5115 150.19 69.8162 150.356 70.1741 150.674C70.5407 151.006 70.7459 153.957 71.5577 154.201C72.3696 154.441 73.6267 155.393 73.0156 155.712L73.0112 155.707Z" fill="#7C7976"/>
<path d="M73.0114 155.707C72.8717 155.782 72.2126 155.886 71.261 156.013C70.9075 155.406 70.5146 154.721 70.1698 154.642C69.5631 154.529 69.969 151.522 69.1659 151.281C68.354 151.041 67.6207 151.168 67.1362 150.635C67.1362 150.635 63.9804 149.505 62.7233 149.57C62.1035 149.597 61.2131 149.138 60.4536 148.658C61.5055 148.732 62.671 148.785 63.4086 148.938C64.5872 149.178 65.805 149.71 66.6561 149.95C67.5073 150.19 69.8119 150.356 70.1698 150.675C70.5365 151.007 70.7416 153.957 71.5535 154.202C72.3654 154.442 73.6224 155.393 73.0114 155.712V155.707Z" fill="#898683"/>
<path d="M205.551 169.299C205.415 169.373 204.782 169.469 203.87 169.591C200.583 170.006 193.665 170.599 193.359 170.442C192.971 170.224 185.586 169.796 183.958 169.054C183.958 169.054 186.878 163.118 188.545 164.166C190.212 165.213 190.723 162.184 191.928 162.376C192.364 162.45 192.914 162.498 193.508 162.533C194.516 162.607 195.638 162.655 196.341 162.799C197.471 163.031 198.641 163.541 199.453 163.773C200.269 164.004 202.482 164.161 202.823 164.467C203.176 164.781 203.368 167.618 204.149 167.85C204.926 168.081 206.131 168.993 205.546 169.299H205.551Z" fill="#7C7976"/>
<path d="M205.551 169.299C205.415 169.373 204.782 169.469 203.87 169.591C203.53 169.006 203.154 168.352 202.823 168.277C202.238 168.168 202.626 165.283 201.862 165.052C201.085 164.82 200.378 164.943 199.916 164.432C199.916 164.432 196.886 163.349 195.682 163.411C195.084 163.437 194.232 162.996 193.504 162.533C194.512 162.607 195.634 162.655 196.336 162.799C197.467 163.031 198.637 163.542 199.448 163.773C200.265 164.004 202.478 164.161 202.818 164.467C203.172 164.781 203.364 167.618 204.145 167.85C204.922 168.081 206.127 168.993 205.542 169.299H205.551Z" fill="#898683"/>
<path d="M185.459 171.59C184.8 171.777 183.024 171.721 182.962 171.721C182.875 171.721 181.326 171.62 180.714 171.206C180.666 171.175 181.631 170.394 182.295 170.468C182.631 170.516 182.984 170.555 183.29 170.586H183.299C183.595 170.616 183.84 170.625 183.962 170.603C184.206 170.555 185.341 170.909 185.677 171.354C185.756 171.454 185.656 171.533 185.459 171.59Z" fill="#877D74"/>
<path d="M185.459 171.59C185.332 171.385 184.957 170.939 184.224 170.822C183.888 170.765 183.573 170.682 183.298 170.586C183.595 170.616 183.84 170.625 183.962 170.603C184.206 170.555 185.341 170.909 185.677 171.354C185.756 171.455 185.655 171.533 185.459 171.59Z" fill="#8E857C"/>
<path d="M238.833 166.247C238.27 166.409 236.742 166.361 236.69 166.361C236.615 166.361 235.284 166.274 234.76 165.916C234.721 165.89 235.546 165.217 236.118 165.283C236.406 165.322 236.711 165.357 236.973 165.383H236.982C237.24 165.409 237.445 165.418 237.554 165.396C237.763 165.357 238.737 165.658 239.025 166.042C239.09 166.13 239.003 166.195 238.837 166.243L238.833 166.247Z" fill="#877D74"/>
<path d="M238.833 166.248C238.724 166.073 238.401 165.689 237.772 165.588C237.484 165.54 237.213 165.466 236.978 165.388C237.235 165.414 237.44 165.423 237.549 165.401C237.759 165.362 238.732 165.663 239.02 166.047C239.086 166.134 238.999 166.2 238.833 166.248Z" fill="#8E857C"/>
<path d="M266.035 175.264C265.358 175.456 263.534 175.399 263.468 175.399C263.381 175.399 261.788 175.294 261.159 174.867C261.111 174.836 262.102 174.029 262.783 174.111C263.128 174.159 263.49 174.199 263.804 174.234H263.813C264.119 174.264 264.367 174.273 264.498 174.251C264.747 174.203 265.913 174.565 266.262 175.024C266.34 175.128 266.236 175.207 266.035 175.264Z" fill="#877D74"/>
<path d="M266.035 175.264C265.908 175.055 265.52 174.597 264.765 174.474C264.42 174.418 264.097 174.33 263.818 174.234C264.123 174.265 264.372 174.274 264.503 174.252C264.752 174.204 265.917 174.566 266.266 175.024C266.345 175.129 266.24 175.208 266.039 175.264H266.035Z" fill="#8E857C"/>
<path d="M279.989 172.126C279.313 172.318 277.488 172.261 277.423 172.261C277.335 172.261 275.742 172.157 275.114 171.729C275.066 171.698 276.056 170.891 276.737 170.974C277.082 171.022 277.444 171.061 277.759 171.096H277.767C278.073 171.127 278.322 171.135 278.453 171.113C278.702 171.065 279.867 171.428 280.216 171.886C280.295 171.991 280.19 172.069 279.989 172.126Z" fill="#877D74"/>
<path d="M279.989 172.127C279.863 171.917 279.474 171.459 278.719 171.337C278.374 171.28 278.051 171.193 277.772 171.097C278.077 171.127 278.326 171.136 278.457 171.114C278.706 171.066 279.871 171.428 280.221 171.887C280.299 171.991 280.194 172.07 279.994 172.127H279.989Z" fill="#8E857C"/>
<path d="M272.626 172.51C271.438 172.85 268.226 172.75 268.112 172.75C267.955 172.75 265.157 172.566 264.053 171.816C263.97 171.759 265.707 170.345 266.912 170.484C267.519 170.567 268.156 170.641 268.71 170.698H268.723C269.26 170.755 269.701 170.768 269.928 170.724C270.365 170.641 272.416 171.274 273.027 172.082C273.167 172.265 272.983 172.409 272.63 172.505L272.626 172.51Z" fill="#877D74"/>
<path d="M272.625 172.51C272.398 172.143 271.722 171.336 270.391 171.122C269.784 171.021 269.216 170.868 268.723 170.698C269.26 170.755 269.701 170.768 269.928 170.724C270.364 170.641 272.416 171.274 273.027 172.082C273.167 172.265 272.983 172.409 272.63 172.505L272.625 172.51Z" fill="#8E857C"/>
<path d="M182.932 153.468C182.255 153.691 180.431 153.625 180.37 153.625C180.282 153.625 178.689 153.503 178.065 153.014C178.017 152.975 179.003 152.049 179.689 152.141C180.034 152.198 180.396 152.242 180.71 152.281H180.719C181.024 152.32 181.273 152.329 181.4 152.298C181.649 152.242 182.814 152.661 183.159 153.189C183.237 153.311 183.133 153.403 182.932 153.468Z" fill="#877D74"/>
<path d="M182.932 153.468C182.805 153.227 182.417 152.699 181.662 152.56C181.317 152.494 180.994 152.394 180.714 152.28C181.02 152.32 181.269 152.328 181.395 152.298C181.644 152.241 182.81 152.66 183.154 153.188C183.233 153.31 183.128 153.402 182.927 153.468H182.932Z" fill="#8E857C"/>
<path d="M69.8555 159.8C69.1746 159.996 67.3283 159.939 67.2628 159.939C67.1755 159.939 65.5649 159.835 64.932 159.403C64.884 159.372 65.8835 158.556 66.5732 158.639C66.9224 158.687 67.289 158.726 67.6033 158.761H67.612C67.9219 158.791 68.1707 158.8 68.3016 158.778C68.5548 158.73 69.7333 159.097 70.0825 159.56C70.1655 159.664 70.0563 159.747 69.8555 159.804V159.8Z" fill="#877D74"/>
<path d="M69.8554 159.801C69.7244 159.591 69.3359 159.128 68.5721 159.006C68.2229 158.949 67.8999 158.862 67.6118 158.762C67.9217 158.792 68.1705 158.801 68.3015 158.779C68.5546 158.731 69.7331 159.098 70.0823 159.56C70.1653 159.665 70.0561 159.748 69.8554 159.805V159.801Z" fill="#8E857C"/>
<path d="M74.6044 158.421C73.6223 158.701 70.9728 158.618 70.8768 158.618C70.7502 158.618 68.4368 158.465 67.5245 157.845C67.4547 157.797 68.8908 156.632 69.8859 156.745C70.3879 156.815 70.9161 156.872 71.37 156.92H71.3831C71.8283 156.968 72.1906 156.976 72.3739 156.941C72.7362 156.872 74.4298 157.395 74.9317 158.063C75.0496 158.216 74.8968 158.334 74.6044 158.412V158.421Z" fill="#877D74"/>
<path d="M74.6044 158.421C74.4167 158.115 73.858 157.452 72.7581 157.277C72.2561 157.194 71.7891 157.067 71.3788 156.928C71.824 156.976 72.1863 156.984 72.3696 156.95C72.7319 156.88 74.4255 157.404 74.9274 158.071C75.0453 158.224 74.8925 158.342 74.6001 158.421H74.6044Z" fill="#8E857C"/>
<path d="M73.3953 159.826C73.0811 159.918 72.2299 159.892 72.1994 159.892C72.1601 159.892 71.4137 159.844 71.1212 159.643C71.0994 159.63 71.5621 159.254 71.8807 159.289C72.0422 159.311 72.2124 159.329 72.3565 159.346C72.5005 159.359 72.614 159.364 72.6751 159.355C72.793 159.333 73.3342 159.503 73.4957 159.717C73.535 159.765 73.4826 159.804 73.391 159.831L73.3953 159.826Z" fill="#877D74"/>
<path d="M73.3953 159.826C73.3342 159.73 73.1552 159.516 72.8017 159.459C72.6402 159.433 72.4918 159.394 72.3608 159.346C72.5049 159.359 72.6184 159.363 72.6795 159.354C72.7973 159.333 73.3386 159.503 73.5001 159.717C73.5394 159.765 73.487 159.804 73.3953 159.83V159.826Z" fill="#8E857C"/>
<path d="M185.704 151.987C185.302 152.166 184.211 152.113 184.172 152.113C184.119 152.113 183.168 152.017 182.792 151.616C182.762 151.585 183.355 150.834 183.761 150.908C183.966 150.952 184.185 150.991 184.372 151.022H184.377C184.56 151.053 184.708 151.061 184.787 151.035C184.935 150.991 185.634 151.328 185.839 151.755C185.887 151.851 185.826 151.93 185.704 151.982V151.987Z" fill="#877D74"/>
<path d="M185.704 151.986C185.625 151.79 185.398 151.362 184.944 151.248C184.739 151.196 184.547 151.113 184.377 151.021C184.56 151.052 184.708 151.061 184.787 151.035C184.935 150.991 185.634 151.327 185.839 151.755C185.887 151.851 185.826 151.929 185.704 151.982V151.986Z" fill="#8E857C"/>
<path d="M112.649 152.821C112.09 152.983 110.58 152.935 110.527 152.935C110.453 152.935 109.139 152.848 108.62 152.494C108.581 152.468 109.397 151.804 109.964 151.87C110.252 151.909 110.549 151.944 110.807 151.97H110.815C111.069 151.996 111.274 152.005 111.383 151.983C111.588 151.944 112.553 152.241 112.841 152.621C112.906 152.708 112.819 152.773 112.653 152.821H112.649Z" fill="#877D74"/>
<path d="M112.649 152.821C112.544 152.646 112.221 152.271 111.597 152.171C111.309 152.122 111.047 152.053 110.811 151.97C111.064 151.996 111.269 152.005 111.378 151.983C111.584 151.944 112.548 152.24 112.836 152.62C112.902 152.707 112.815 152.773 112.649 152.821Z" fill="#8E857C"/>
<path d="M114.683 154.331C114.347 154.462 113.447 154.423 113.413 154.423C113.369 154.423 112.583 154.353 112.273 154.065C112.251 154.043 112.74 153.506 113.076 153.558C113.247 153.589 113.426 153.619 113.583 153.641C113.736 153.663 113.858 153.667 113.919 153.65C114.041 153.619 114.617 153.859 114.787 154.169C114.827 154.239 114.774 154.292 114.674 154.331H114.683Z" fill="#877D74"/>
<path d="M114.683 154.331C114.617 154.192 114.43 153.882 114.054 153.803C113.884 153.764 113.722 153.707 113.587 153.642C113.74 153.663 113.862 153.668 113.923 153.65C114.045 153.62 114.622 153.86 114.792 154.17C114.831 154.24 114.779 154.292 114.678 154.331H114.683Z" fill="#8E857C"/>
<path d="M213.394 171.022C213.325 171.004 213.05 171.044 212.652 171.118C210.837 171.415 206.345 172.292 205.123 171.581C203.63 170.712 200.876 171.659 200.007 170.633C200.007 170.633 202.997 168.194 203.787 168.115C204.329 168.058 206.563 167.534 207.825 167.377C208.418 167.299 208.794 167.307 208.672 167.486C208.279 168.032 212.452 169.058 212.373 168.979C212.294 168.901 213.787 171.101 213.399 171.022H213.394Z" fill="#878584"/>
<path d="M213.394 171.022C213.324 171.005 213.049 171.044 212.652 171.118C212.417 170.603 212.159 169.944 212.142 169.591C212.12 168.949 208.497 168.434 208.322 167.805C208.274 167.627 208.078 167.482 207.82 167.373C208.414 167.295 208.789 167.304 208.667 167.482C208.274 168.028 212.447 169.054 212.369 168.975C212.29 168.897 213.783 171.097 213.394 171.018V171.022Z" fill="#939190"/>
<path d="M131.793 174.689C131.535 174.829 130.318 175.017 128.563 175.252C122.243 176.047 108.921 177.195 108.336 176.889C107.585 176.466 93.3777 175.649 90.2394 174.222C90.2394 174.222 95.857 162.799 99.0652 164.811C102.273 166.824 103.255 160.997 105.573 161.372C106.416 161.512 107.468 161.608 108.615 161.677C110.558 161.817 112.714 161.913 114.072 162.193C116.25 162.638 118.498 163.62 120.065 164.065C121.632 164.51 125.892 164.816 126.551 165.401C127.232 166.007 127.603 171.464 129.104 171.909C130.601 172.354 132.919 174.109 131.797 174.694L131.793 174.689Z" fill="#7C7976"/>
<path d="M131.793 174.689C131.535 174.829 130.318 175.017 128.563 175.252C127.908 174.131 127.184 172.865 126.551 172.725C125.429 172.516 126.175 166.968 124.7 166.523C123.203 166.078 121.845 166.313 120.955 165.327C120.955 165.327 115.128 163.245 112.81 163.363C111.662 163.411 110.025 162.568 108.62 161.678C110.562 161.817 112.718 161.913 114.076 162.193C116.254 162.638 118.502 163.62 120.069 164.065C121.636 164.511 125.896 164.816 126.555 165.401C127.236 166.008 127.607 171.464 129.109 171.909C130.606 172.354 132.923 174.109 131.802 174.694L131.793 174.689Z" fill="#898683"/>
<path d="M146.887 176.675C146.751 176.644 146.223 176.718 145.455 176.854C141.963 177.425 133.316 179.11 130.968 177.744C128.092 176.072 122.793 177.892 121.121 175.924C121.121 175.924 126.874 171.227 128.393 171.074C129.432 170.97 133.74 169.961 136.162 169.66C137.306 169.512 138.03 169.525 137.79 169.87C137.04 170.922 145.062 172.895 144.914 172.746C144.765 172.593 147.637 176.827 146.887 176.675Z" fill="#878584"/>
<path d="M146.887 176.674C146.751 176.644 146.223 176.718 145.455 176.853C145.001 175.858 144.508 174.597 144.477 173.916C144.434 172.681 137.459 171.685 137.131 170.481C137.039 170.136 136.664 169.865 136.167 169.651C137.31 169.503 138.035 169.516 137.795 169.861C137.044 170.913 145.066 172.886 144.918 172.737C144.77 172.585 147.642 176.819 146.891 176.666L146.887 176.674Z" fill="#939190"/>
<path d="M252.556 164.871C252.473 164.841 252.137 164.849 251.644 164.88C249.405 164.985 243.852 165.408 242.478 164.374C240.793 163.112 237.327 163.867 236.423 162.505C236.423 162.505 240.382 159.978 241.351 159.991C242.01 160 244.791 159.686 246.336 159.673C247.065 159.664 247.519 159.725 247.344 159.926C246.794 160.533 251.692 162.361 251.609 162.257C251.526 162.152 253.023 165.02 252.56 164.871H252.556Z" fill="#878584"/>
<path d="M252.556 164.871C252.473 164.84 252.137 164.849 251.644 164.88C251.434 164.22 251.212 163.391 251.247 162.963C251.308 162.186 247 161.047 246.882 160.266C246.851 160.043 246.633 159.842 246.336 159.677C247.065 159.668 247.519 159.729 247.344 159.93C246.794 160.536 251.692 162.365 251.609 162.261C251.526 162.156 253.023 165.024 252.56 164.875L252.556 164.871Z" fill="#939190"/>
<path d="M13.4612 173.511C11.7239 174.008 7.02733 173.864 6.86146 173.864C6.63449 173.864 2.53587 173.594 0.920869 172.498C0.798653 172.415 3.34337 170.346 5.10242 170.551C5.99285 170.674 6.92257 170.778 7.73007 170.861H7.7519C8.53757 170.944 9.17921 170.966 9.51094 170.901C10.1526 170.778 13.1512 171.708 14.0417 172.887C14.2468 173.157 13.9806 173.362 13.4612 173.506V173.511Z" fill="#877D74"/>
<path d="M13.4611 173.511C13.1294 172.974 12.1385 171.795 10.1918 171.481C9.30136 171.337 8.4764 171.11 7.75183 170.861C8.53751 170.944 9.17915 170.966 9.51088 170.901C10.1525 170.778 13.1512 171.708 14.0416 172.887C14.2468 173.157 13.9805 173.362 13.4611 173.506V173.511Z" fill="#8E857C"/>
</svg>
