<svg width="57" height="56" viewBox="0 0 57 56" fill="none" xmlns="http://www.w3.org/2000/svg">
<path d="M30.9706 16.9968H30.9691C30.8871 16.9789 30.8051 16.961 30.7232 16.9446C29.65 16.73 28.6336 16.6867 27.6841 16.7628C27.5768 16.7702 27.4695 16.7806 27.3637 16.7926C27.3384 15.2798 27.313 10.3449 27.9301 6.21336C28.4979 2.41719 29.6098 -0.699332 31.765 0.136809C32.8873 0.57202 33.4522 1.69135 33.6564 3.1654C34.2704 7.57414 31.6458 15.1441 30.9706 16.9968Z" fill="#FF2C50"/>
<path d="M38.8758 16.0586H38.8743C37.2974 17.6653 35.9664 18.8398 35.6624 19.1036C35.6549 19.1111 35.6475 19.1185 35.6415 19.123C35.2168 18.7921 34.7413 18.4821 34.2077 18.1989H34.2047C33.8739 18.0216 33.5251 17.8546 33.151 17.6996L32.6398 17.3941C32.6398 17.3941 35.409 11.8481 38.4287 7.83435C40.7061 4.81023 43.1251 2.65355 44.6125 4.3929C46.8825 7.04739 42.2994 12.5695 38.8758 16.0586Z" fill="#FF2C50"/>
<path d="M38.4286 7.83365C37.129 12.7819 34.236 18.2027 34.236 18.2027L34.2077 18.1982H34.2047C33.8738 18.0209 33.5251 17.8539 33.151 17.6989C32.8022 17.5544 32.4341 17.4172 32.0465 17.292C31.6814 17.1743 31.3237 17.0759 30.9704 16.9969H30.9689C30.887 16.979 30.805 16.9612 30.723 16.9448C30.963 14.7359 31.8617 7.42825 33.6562 3.16557C34.6399 0.827062 35.8949 -0.596316 37.4569 0.242806C39.46 1.31742 39.314 4.46673 38.4286 7.83365Z" fill="#FF2C50"/>
<path d="M42.6184 19.2569C40.3664 20.1661 38.2619 20.7965 37.4093 21.041C37.3601 20.9635 37.3095 20.8874 37.2573 20.8129C36.8474 20.2272 36.3392 19.6802 35.7147 19.1824H35.7132L35.6625 19.1034L35.3257 18.5907C35.3257 18.5907 36.8295 17.4311 38.8744 16.0599H38.8759C42.9419 13.3294 49.1511 9.76424 49.9529 12.8137C50.6326 15.4011 46.4176 17.7262 42.6184 19.2569Z" fill="#FF2C50"/>
<path d="M54.5538 20.0951C54.4093 22.1072 51.9649 23.1937 48.9826 23.7646H48.9796C45.1521 24.5008 40.4438 24.3905 38.5777 24.3071C38.5673 24.2236 38.5539 24.1401 38.5405 24.0567C38.3676 22.9895 38.0099 21.9701 37.4092 21.04C37.36 20.9625 37.3094 20.8865 37.2572 20.812C38.065 20.5467 40.1561 19.8819 42.6183 19.256C47.8647 17.9265 54.7923 16.7818 54.5538 20.0951Z" fill="#FF2C50"/>
<path d="M54.3213 33.1719C53.1618 35.2809 49.5802 34.8233 46.0017 33.692C46.0002 33.692 45.9987 33.6905 45.9987 33.6905C42.6347 32.6234 39.2738 30.96 37.9324 30.2655C37.9488 30.2148 37.9637 30.1641 37.9786 30.112C38.0084 30.0076 38.0382 29.9033 38.0665 29.7975C38.2245 29.2177 38.3572 28.632 38.4585 28.0447C38.539 27.5737 38.5986 27.1028 38.6329 26.6348C41.0146 26.9194 48.8574 27.9866 52.573 30.0151C54.1678 30.887 55.0025 31.9333 54.3213 33.1719Z" fill="#FF2C50"/>
<path d="M56.9013 27.5168C56.4288 29.0714 54.7506 29.7898 52.573 30.0163C47.735 30.5216 40.4378 28.6019 38.4585 28.0459C38.539 27.575 38.5986 27.104 38.6329 26.636C38.6925 25.8475 38.6806 25.0665 38.5777 24.3079C38.5673 24.2244 38.5539 24.141 38.5405 24.0575C40.256 23.9055 44.8197 23.5582 48.9796 23.7654H48.9825C53.585 23.9979 57.6942 24.9086 56.9013 27.5168Z" fill="#FF2C50"/>
<path d="M51.4805 40.547C50.634 41.392 49.388 41.4606 47.9676 41.0582C43.8331 39.8882 38.2066 34.7372 36.5463 33.1529C36.5835 33.1022 36.6193 33.05 36.6551 32.9964C37.1931 32.2109 37.6194 31.3047 37.9324 30.2659C37.9488 30.2152 37.9637 30.1645 37.9786 30.1123C38.0084 30.008 38.0382 29.9037 38.0665 29.7979C39.3066 30.3225 42.8121 31.8547 45.9987 33.6909C45.9987 33.6909 46.0002 33.6924 46.0017 33.6924C49.923 35.9534 53.3585 38.6735 51.4805 40.547Z" fill="#FF2C50"/>
<path d="M41.8776 50.9001C39.1218 51.7676 36.3943 47.5496 34.479 43.5075C34.479 43.506 34.4775 43.506 34.4775 43.506C32.8619 40.1004 31.8201 36.8199 31.8201 36.8199L32.9141 36.0225C32.9334 36.0136 32.9543 36.0046 32.9737 35.9957C33.4789 35.7706 33.9499 35.5157 34.3866 35.2251H34.3881C34.5133 35.1431 34.6325 35.0582 34.7518 34.9688C35.3181 35.6469 37.4107 38.1881 39.3588 41.0557C42.1712 45.1962 44.6826 50.0163 41.8776 50.9001Z" fill="#FF2C50"/>
<path d="M48.683 44.9877C46.4951 46.7539 42.5737 44.0249 39.3588 41.0559C36.4852 38.4014 34.1765 35.5562 34.1765 35.5562L34.3867 35.2253H34.3882C34.5134 35.1433 34.6326 35.0584 34.7518 34.9689C35.4434 34.4607 36.0411 33.8571 36.5463 33.1536C36.5836 33.1029 36.6194 33.0507 36.6551 32.9971C38.6881 34.1298 45.1253 37.8515 47.9676 41.0589C49.3359 42.603 49.8724 44.0279 48.683 44.9877Z" fill="#FF2C50"/>
<path d="M32.4639 53.5908C31.4459 53.4403 30.7126 52.71 30.194 51.6309C28.2921 47.6857 29.2401 39.0664 29.5054 36.9887C29.562 36.9798 29.6186 36.9708 29.6753 36.9604C30.8751 36.7518 31.9557 36.4432 32.914 36.0229C32.9334 36.014 32.9543 36.005 32.9736 35.9961C33.1093 36.5267 33.9409 39.8713 34.4775 43.5065C34.4775 43.5065 34.479 43.5065 34.479 43.5079C35.2153 48.4935 35.3986 54.0245 32.4639 53.5908Z" fill="#FF2C50"/>
<path d="M30.1939 51.6304C29.7855 53.884 28.9285 55.3446 27.3144 54.9452C26.1965 54.6695 25.4826 53.7409 25.0519 52.4397C23.6061 48.0653 25.3768 39.4758 25.8672 37.2894H25.8686C25.9804 37.2923 26.0922 37.2923 26.204 37.2894C26.7256 37.2744 27.2309 37.2461 27.7198 37.2059H27.7213C28.3428 37.1552 28.936 37.0822 29.5053 36.9883C29.562 36.9793 29.6186 36.9704 29.6752 36.96C29.9718 39.0004 31.0345 46.9937 30.1939 51.6304Z" fill="#FF2C50"/>
<path d="M25.6854 37.2829C25.286 38.7257 23.3543 45.458 20.9726 49.7475C19.4553 52.478 17.7577 54.2174 16.1555 52.9729C13.896 51.2171 15.5429 46.795 17.7026 42.8781C19.4479 39.7094 21.53 36.873 22.1501 36.0488C22.3274 36.1651 22.5078 36.2739 22.6911 36.3737C23.5913 36.873 24.5482 37.189 25.5185 37.271C25.5736 37.277 25.6303 37.2799 25.6854 37.2829Z" fill="#FF2C50"/>
<path d="M29.0776 37.4704C29.0776 37.4704 27.7601 48.6398 25.0519 52.4389C24.268 53.5374 23.3692 54.0203 22.3527 53.442C21.217 52.7952 20.8638 51.4284 20.9726 49.7457C21.2528 45.4234 24.5795 39.004 25.5184 37.2692C25.5736 37.2751 25.6302 37.2781 25.6854 37.2811C25.745 37.2856 25.8061 37.2871 25.8672 37.2885H25.8687C25.9805 37.2915 26.0923 37.2915 26.204 37.2885C26.7257 37.2736 27.231 37.2453 27.7198 37.2051H27.7213L29.0776 37.4704Z" fill="#FF2C50"/>
<path d="M22.6911 36.3726C22.1575 37.1521 20.0857 40.1226 17.7025 42.8769C14.6337 46.4212 11.0477 49.6078 9.54679 47.3125C7.76422 44.5835 12.3473 40.1092 16.0437 37.1297C16.0437 37.1283 16.0466 37.1283 16.0481 37.1268C17.9097 35.6259 19.5477 34.5051 20.0291 34.1816C20.0887 34.2502 20.1469 34.3158 20.208 34.3814C20.7967 35.0312 21.451 35.5946 22.1485 36.0477C22.3259 36.1639 22.5062 36.2727 22.6896 36.3726H22.6911Z" fill="#FF2C50"/>
<path d="M17.4983 24.8351C17.227 25.9798 17.1868 27.1408 17.3373 28.2736C14.3937 28.0142 -0.564442 26.4776 1.58776 22.2879C2.83825 19.8525 7.37964 20.7095 11.4202 22.0748C14.0032 22.9482 16.3805 24.0303 17.5594 24.5936C17.537 24.6741 17.5177 24.7546 17.4983 24.8351Z" fill="#FF2C50"/>
<path d="M19.0231 21.543C18.9814 21.5997 18.9411 21.6563 18.9024 21.7145C18.26 22.637 17.8218 23.6073 17.5595 24.594C17.5371 24.6745 17.5178 24.755 17.4984 24.8354C16.4119 24.3943 13.9556 23.3659 11.4204 22.0751C6.94901 19.8022 2.22429 16.711 4.28558 14.5812C5.77901 13.0386 8.62129 14.0208 11.4502 15.7139C11.4502 15.7139 11.4517 15.7154 11.4531 15.7154C14.6427 17.6232 17.8159 20.4327 19.0231 21.543Z" fill="#FF2C50"/>
<path d="M21.372 19.2187C21.3094 19.2634 21.2498 19.3082 21.1917 19.3529C20.3854 19.9684 19.9427 20.4483 19.9427 20.4483C19.6014 20.8031 19.2944 21.1682 19.0231 21.5423C18.9814 21.599 18.9411 21.6556 18.9024 21.7137C17.6429 20.8239 14.2119 18.3334 11.4531 15.7147L11.4501 15.7132C8.51395 12.9246 6.34087 9.99286 8.36192 8.69468C11.547 6.6468 17.0274 13.2122 19.7966 16.9741C19.7981 16.9741 19.7996 16.9786 19.8011 16.9801C20.5702 18.0264 21.1306 18.8536 21.372 19.2187Z" fill="#FF2C50"/>
<path d="M24.4111 17.5299C24.3217 17.5641 24.2323 17.6014 24.1444 17.6387C23.0086 18.1141 22.0711 18.7028 21.3721 19.2185C21.3095 19.2632 21.2499 19.308 21.1918 19.3527C21.0278 19.0844 20.4957 18.208 19.8012 16.9799C19.7997 16.9784 19.7982 16.9754 19.7967 16.9739C18.4941 14.6727 16.6236 11.1343 15.5221 8.02826C14.3551 4.73437 14.054 1.92487 16.2152 1.58654C18.193 1.27653 19.8116 3.26628 21.0725 5.94759C21.6702 7.21596 22.1874 8.63934 22.6256 10.0478C23.6659 13.3879 24.2591 16.6416 24.4111 17.5299Z" fill="#FF2C50"/>
<path d="M20.2348 34.4261C20.2348 34.4261 18.4478 35.6796 16.0481 37.1268C16.0467 37.1283 16.0452 37.1283 16.0437 37.1298C11.4292 39.9139 4.56276 43.4076 3.84287 40.0481C3.2139 37.1194 8.13238 34.7466 12.4413 33.2531C15.1598 32.3127 17.6355 31.7224 18.3226 31.5645C18.3777 31.6852 18.4373 31.8059 18.4999 31.9237C18.9038 32.7046 19.3927 33.4335 19.9472 34.0863C19.974 34.1176 20.0023 34.1504 20.0291 34.1817C20.0887 34.2502 20.1469 34.3158 20.208 34.3814L20.2333 34.4261H20.2348Z" fill="#FF2C50"/>
<path d="M18.4999 31.9237C18.1288 32.0206 15.5563 32.6868 12.4412 33.2532C6.85952 34.2697 -0.461556 34.9717 0.0228392 31.5258C0.718878 26.5879 14.425 27.9487 17.3403 28.2945C17.4909 29.4317 17.8322 30.5391 18.3226 31.5645C18.3777 31.6852 18.4373 31.806 18.4999 31.9237Z" fill="#FF2C50"/>
<path d="M27.684 16.7632C27.5767 16.7707 27.4694 16.7811 27.3636 16.7931C27.0819 16.8244 26.8076 16.8646 26.5394 16.9153C25.7748 17.0584 25.0623 17.2745 24.411 17.5308C24.3216 17.5651 24.2321 17.6024 24.1442 17.6396C23.8968 16.6544 23.1203 13.4455 22.6254 10.0488C21.9115 5.15266 21.7789 -0.136941 24.6525 0.278894C26.675 0.571022 27.5812 3.14652 27.9299 6.21237C28.389 10.2485 27.8823 15.1297 27.684 16.7632Z" fill="#FF2C50"/>
<path opacity="0.05" d="M27.93 6.21166L28.0463 5.4873C28.0463 5.4873 29.3415 8.34449 28.0463 16.7402L27.6841 16.7625C27.6841 16.7625 28.8794 12.8084 27.93 6.21166Z" fill="black"/>
<path opacity="0.05" d="M24.1442 17.6395L23.8864 17.7513C23.8864 17.7513 22.9235 15.4575 22.3646 9.23633L22.697 10.5241C22.697 10.5241 23.5644 15.5201 24.1442 17.6395Z" fill="black"/>
<path opacity="0.05" d="M38.8326 7.31543C38.8326 7.31543 37.6611 11.8687 34.5834 18.4073C34.3687 18.2807 34.2286 18.2031 34.2286 18.2031C34.2286 18.2031 35.5551 16.5115 38.4287 7.83411L38.8326 7.31543Z" fill="black"/>
<path opacity="0.05" d="M33.6564 3.16542L33.8412 2.74512C33.8412 2.74512 32.9395 12.0455 31.4177 17.119L30.9706 16.9968C30.9706 16.9968 32.1942 13.7685 33.6579 3.16542H33.6564Z" fill="black"/>
<path opacity="0.05" d="M19.7966 16.9744L19.4911 16.5615C19.4911 16.5615 19.8995 17.6898 21.0665 19.4664L21.2975 19.2741C21.2975 19.2741 20.5314 18.4529 19.7966 16.9744Z" fill="black"/>
<path opacity="0.05" d="M11.4531 15.7146L10.9955 15.2734C10.9955 15.2734 14.4802 17.1991 19.0692 21.4513L18.9038 21.7137C18.9038 21.7137 14.5517 17.8176 11.4545 15.7146H11.4531Z" fill="black"/>
<path opacity="0.05" d="M11.4203 22.0751L10.6587 21.8262C10.6587 21.8262 11.5619 22.6817 17.4551 25.0262L17.4984 24.8354C17.4984 24.8354 13.5025 23.1899 11.4203 22.0751Z" fill="black"/>
<path opacity="0.05" d="M14.6561 28.0363C14.6561 28.0363 16.7278 28.2137 17.3389 28.2733L17.3628 28.4477C17.3628 28.4477 15.6145 28.4089 14.1106 27.9961L14.6561 28.0348V28.0363Z" fill="black"/>
<path opacity="0.05" d="M12.3384 33.2727C12.3384 33.2727 15.6174 32.7883 18.5014 31.9238L18.6102 32.1265C18.6102 32.1265 15.9825 33.2846 11.6498 33.5365L12.3384 33.2727Z" fill="black"/>
<path opacity="0.05" d="M20.2094 34.3832C20.2094 34.3832 17.9513 35.513 16.0436 37.1301L15.2268 37.616C15.2268 37.616 16.8499 36.1315 19.9858 34.1328C20.2481 34.4294 20.2094 34.3832 20.2094 34.3832Z" fill="black"/>
<path opacity="0.05" d="M17.7025 42.8764C17.7025 42.8764 22.1664 37.4988 22.691 36.3721L23.0532 36.5614C23.0532 36.5614 19.4642 41.3949 17.3627 43.5054L17.7025 42.8764Z" fill="black"/>
<path opacity="0.05" d="M25.6854 37.2811C25.6854 37.2811 21.6791 44.3056 20.9726 49.7457C20.7327 50.172 20.6686 50.2748 20.6686 50.2748C20.6686 50.2748 21.4078 44.1506 25.4276 37.2617L25.6854 37.2826V37.2811Z" fill="black"/>
<path opacity="0.05" d="M25.0519 52.4392C25.0519 52.4392 28.702 46.3865 28.7273 37.101C28.9181 37.0757 28.8734 37.0817 28.8734 37.0817C28.8734 37.0817 29.1357 45.3462 25.104 52.6151C25.0549 52.475 25.0519 52.4392 25.0519 52.4392Z" fill="black"/>
<path opacity="0.05" d="M30.1939 51.6305C30.1939 51.6305 28.3174 46.5257 28.383 42.8711L28.292 43.3883C28.292 43.3883 28.1251 45.5196 30.1477 51.8749L30.1939 51.6305Z" fill="black"/>
<path opacity="0.05" d="M32.9736 35.9962C32.9736 35.9962 33.777 39.0948 34.4775 43.5066L34.5818 43.7227C34.5818 43.7227 34.1764 40.244 33.1108 35.9336L32.9736 35.9962Z" fill="black"/>
<path opacity="0.05" d="M39.3586 41.0562C39.3586 41.0562 35.6057 37.43 34.3865 35.2256L34.2449 35.3225C34.2449 35.3225 35.473 37.4583 39.8952 41.8611L39.3586 41.0562Z" fill="black"/>
<path opacity="0.05" d="M36.6552 32.996C36.6552 32.996 44.9405 37.4703 47.9676 41.0578C48.2493 41.1323 45.8959 38.0426 36.7833 32.8037L36.6552 32.996Z" fill="black"/>
<path opacity="0.05" d="M46.0016 33.6924C46.0016 33.6924 41.8999 32.0946 38.0665 29.7979L38.0068 30.0125C38.0068 30.0125 41.572 32.1692 46.5307 34.0024L46.0016 33.6924Z" fill="black"/>
<path opacity="0.05" d="M38.6329 26.6353C38.6329 26.6353 48.0466 27.4327 52.5731 30.0156L52.9248 29.9739C52.9248 29.9739 48.2225 27.4073 38.6493 26.3789L38.6329 26.6353Z" fill="black"/>
<path opacity="0.05" d="M38.8758 16.0579C38.8758 16.0579 37.6999 17.9328 35.7653 19.2236C35.9456 19.3756 35.8741 19.3115 35.8741 19.3115C35.8741 19.3115 38.0993 17.602 39.3244 15.7598L38.8758 16.0579Z" fill="black"/>
<path opacity="0.05" d="M43.3232 18.9644C43.3232 18.9644 39.7759 19.8795 37.6058 21.3625C37.6744 21.4832 37.6729 21.4803 37.6729 21.4803C37.6729 21.4803 40.4973 19.8035 42.6182 19.255L43.3232 18.9629V18.9644Z" fill="black"/>
<path opacity="0.05" d="M38.5778 24.3072C38.5778 24.3072 41.6302 24.4994 48.9796 23.7646L49.3984 23.7885C49.3984 23.7885 46.413 24.4234 38.6105 24.5769L38.5778 24.3072Z" fill="black"/>
<path d="M45.6898 33.6926C43.1519 42.4988 36.1819 46.055 24.8483 46.3954C20.7882 46.5167 16.7544 44.24 13.7733 40.726C8.43099 34.4286 6.46556 24.1609 13.7654 16.5867C13.7654 16.5867 18.2925 11.6718 25.4419 10.3316C28.3096 9.79608 31.5994 9.83565 35.1899 10.9991C47.7239 15.0645 48.2304 24.8864 45.6898 33.6926Z" fill="#FFD655"/>
<path d="M13.7733 40.7264C8.43099 34.4291 6.46556 24.1613 13.7654 16.5871C13.7654 16.5871 18.2925 11.6722 25.4419 10.332C17.8967 13.6165 6.32046 21.9268 13.7733 40.7264Z" fill="#FFC82C"/>
<path opacity="0.35" d="M20.6089 33.0166C21.757 33.0166 22.6878 32.53 22.6878 31.9297C22.6878 31.3294 21.757 30.8428 20.6089 30.8428C19.4608 30.8428 18.53 31.3294 18.53 31.9297C18.53 32.53 19.4608 33.0166 20.6089 33.0166Z" fill="#FF6E79"/>
<path opacity="0.35" d="M42.3341 33.0166C43.4823 33.0166 44.413 32.53 44.413 31.9297C44.413 31.3294 43.4823 30.8428 42.3341 30.8428C41.186 30.8428 40.2552 31.3294 40.2552 31.9297C40.2552 32.53 41.186 33.0166 42.3341 33.0166Z" fill="#FF6E79"/>
<path d="M26.4287 27.8342C25.5 25.7368 21.7987 25.9004 20.8384 27.8949C20.6669 28.2378 20.1419 28.1033 20.1604 27.7234C20.2052 26.9478 20.8199 26.3357 21.4425 25.9584C22.6878 25.2277 24.3234 25.2883 25.4895 26.1088C26.0514 26.5125 26.5237 27.1034 26.6186 27.784C26.6371 27.8975 26.4656 27.9397 26.426 27.8315L26.4287 27.8342Z" fill="#302826"/>
<path d="M24.5686 29.0575C25.7168 29.0575 26.6475 28.4834 26.6475 27.7753C26.6475 27.0672 25.7168 26.4932 24.5686 26.4932C23.4205 26.4932 22.4897 27.0672 22.4897 27.7753C22.4897 28.4834 23.4205 29.0575 24.5686 29.0575Z" fill="#302826"/>
<path d="M23.0702 27.6243C23.3893 27.6243 23.6479 27.3656 23.6479 27.0465C23.6479 26.7274 23.3893 26.4688 23.0702 26.4688C22.7511 26.4688 22.4924 26.7274 22.4924 27.0465C22.4924 27.3656 22.7511 27.6243 23.0702 27.6243Z" fill="#EFEFEF"/>
<path d="M23.7746 28.2071C23.894 28.2071 23.9909 28.1102 23.9909 27.9907C23.9909 27.8713 23.894 27.7744 23.7746 27.7744C23.6551 27.7744 23.5582 27.8713 23.5582 27.9907C23.5582 28.1102 23.6551 28.2071 23.7746 28.2071Z" fill="#EFEFEF"/>
<path d="M34.9154 27.7852C35.3507 25.5929 38.3186 24.8621 40.0914 25.9596C40.7141 26.3342 41.3314 26.9462 41.3736 27.7245C41.3868 28.1097 40.8644 28.2337 40.6956 27.896C39.7353 25.9015 36.0366 25.7353 35.1053 27.8353C35.071 27.9461 34.8943 27.9013 34.9127 27.7878L34.9154 27.7852Z" fill="#302826"/>
<path d="M36.9656 29.0536C38.1137 29.0536 39.0445 28.4795 39.0445 27.7714C39.0445 27.0633 38.1137 26.4893 36.9656 26.4893C35.8175 26.4893 34.8867 27.0633 34.8867 27.7714C34.8867 28.4795 35.8175 29.0536 36.9656 29.0536Z" fill="#302826"/>
<path d="M38.4642 27.6233C38.7833 27.6233 39.042 27.3646 39.042 27.0455C39.042 26.7264 38.7833 26.4678 38.4642 26.4678C38.1451 26.4678 37.8865 26.7264 37.8865 27.0455C37.8865 27.3646 38.1451 27.6233 38.4642 27.6233Z" fill="#EFEFEF"/>
<path d="M37.7594 28.2061C37.8789 28.2061 37.9758 28.1092 37.9758 27.9898C37.9758 27.8703 37.8789 27.7734 37.7594 27.7734C37.6399 27.7734 37.5431 27.8703 37.5431 27.9898C37.5431 28.1092 37.6399 28.2061 37.7594 28.2061Z" fill="#EFEFEF"/>
<path d="M29.4943 32.641C30.9532 33.5458 32.8526 33.1158 33.7206 31.6121C34.148 31.0079 35.0423 31.6385 34.6123 32.2426C33.5649 33.7463 31.4465 34.332 29.7739 33.5881C29.4626 33.4271 28.7107 33.2293 28.9824 32.7359C29.0933 32.5618 29.3307 32.5196 29.4969 32.641H29.4943Z" fill="#302826"/>
<path d="M23.2892 23.3908C24.5714 24.8708 26.2044 26.1556 28.0591 26.8389C28.4205 26.9629 28.2516 27.5037 27.8823 27.3982C25.8298 26.7914 24.0358 25.5594 22.5347 24.0477C22.0704 23.5412 22.8487 22.8579 23.2892 23.3908Z" fill="#FF2C50"/>
<path d="M33.0135 26.0476C34.0556 24.1587 36.1186 23.048 38.2318 22.9135L38.7199 22.8845C39.2713 22.924 40.2579 22.6945 40.2764 23.5097C40.2738 23.8922 39.9018 24.164 39.5351 24.0769C39.1314 24.011 38.675 23.9292 38.2608 23.9265C38.1316 23.916 37.9601 23.9133 37.8335 23.9265C36.1398 23.9556 34.4144 24.8367 33.5438 26.3141C33.3697 26.6729 32.8315 26.4117 33.0135 26.0503V26.0476Z" fill="#FF2C50"/>
</svg>
