<svg width="138" height="71" viewBox="0 0 138 71" fill="none" xmlns="http://www.w3.org/2000/svg">
<rect width="138" height="71" rx="35.5" fill="#4D997A" fill-opacity="0.69"/>
<circle cx="103" cy="36" r="32" fill="url(#paint0_linear_254_791)"/>
<path d="M105.641 26.2078H105.639C105.566 26.1919 105.494 26.176 105.421 26.1615C104.467 25.9707 103.563 25.9323 102.719 25.9998C102.624 26.0065 102.529 26.0157 102.434 26.0263C102.412 24.6816 102.389 20.2951 102.938 16.6226C103.443 13.2482 104.431 10.478 106.347 11.2212C107.344 11.6081 107.846 12.603 108.028 13.9133C108.574 17.8322 106.241 24.5611 105.641 26.2078Z" fill="#FF2C50"/>
<path d="M112.667 25.377H112.666C111.264 26.8052 110.081 27.8491 109.811 28.0836C109.804 28.0903 109.798 28.0969 109.792 28.1009C109.415 27.8068 108.992 27.5312 108.518 27.2795H108.515C108.221 27.1218 107.911 26.9734 107.579 26.8356L107.124 26.5641C107.124 26.5641 109.586 21.6343 112.27 18.0665C114.294 15.3784 116.444 13.4614 117.767 15.0075C119.784 17.367 115.71 22.2755 112.667 25.377Z" fill="#FF2C50"/>
<path d="M112.27 18.0629C111.115 22.4613 108.543 27.2798 108.543 27.2798L108.518 27.2758H108.515C108.221 27.1182 107.911 26.9698 107.579 26.832C107.269 26.7035 106.941 26.5816 106.597 26.4703C106.272 26.3656 105.954 26.2782 105.64 26.208H105.639C105.566 26.1921 105.493 26.1762 105.421 26.1616C105.634 24.1982 106.433 17.7025 108.028 13.9135C108.902 11.8348 110.018 10.5696 111.406 11.3154C113.187 12.2706 113.057 15.07 112.27 18.0629Z" fill="#FF2C50"/>
<path d="M115.994 28.2196C113.992 29.0277 112.122 29.5881 111.364 29.8054C111.32 29.7365 111.275 29.6689 111.229 29.6027C110.864 29.082 110.413 28.5958 109.858 28.1533H109.856L109.811 28.0831L109.512 27.6274C109.512 27.6274 110.848 26.5966 112.666 25.3778H112.667C116.282 22.9507 121.801 19.7816 122.514 22.4923C123.118 24.7922 119.371 26.8589 115.994 28.2196Z" fill="#FF2C50"/>
<path d="M126.604 28.9612C126.475 30.7498 124.302 31.7156 121.651 32.223H121.649C118.246 32.8775 114.061 32.7794 112.403 32.7052C112.393 32.6311 112.381 32.5569 112.369 32.4827C112.216 31.5341 111.898 30.6279 111.364 29.8012C111.32 29.7323 111.275 29.6647 111.229 29.5985C111.947 29.3627 113.806 28.7718 115.994 28.2154C120.658 27.0336 126.816 26.0161 126.604 28.9612Z" fill="#FF2C50"/>
<path d="M126.397 40.5871C125.366 42.4618 122.182 42.0551 119.001 41.0495C119 41.0495 118.999 41.0482 118.999 41.0482C116.009 40.0996 113.021 38.6211 111.829 38.0037C111.843 37.9586 111.857 37.9136 111.87 37.8672C111.896 37.7745 111.923 37.6817 111.948 37.5877C112.088 37.0723 112.206 36.5517 112.296 36.0297C112.368 35.611 112.421 35.1924 112.451 34.7764C114.569 35.0294 121.54 35.978 124.843 37.7811C126.26 38.5561 127.002 39.4862 126.397 40.5871Z" fill="#FF2C50"/>
<path d="M128.69 35.5587C128.27 36.9405 126.778 37.5791 124.843 37.7805C120.542 38.2296 114.056 36.5232 112.296 36.029C112.368 35.6104 112.421 35.1917 112.451 34.7757C112.504 34.0749 112.494 33.3807 112.402 32.7063C112.393 32.6321 112.381 32.5579 112.369 32.4837C113.894 32.3486 117.951 32.0399 121.648 32.2241H121.651C125.742 32.4307 129.395 33.2402 128.69 35.5587Z" fill="#FF2C50"/>
<path d="M123.872 47.1427C123.119 47.8938 122.012 47.9548 120.749 47.5971C117.074 46.5571 112.073 41.9784 110.597 40.5701C110.63 40.5251 110.662 40.4787 110.694 40.431C111.172 39.7328 111.551 38.9273 111.829 38.0039C111.843 37.9588 111.857 37.9138 111.87 37.8674C111.896 37.7747 111.923 37.682 111.948 37.5879C113.05 38.0542 116.166 39.4162 118.999 41.0484C118.999 41.0484 119 41.0497 119.002 41.0497C122.487 43.0595 125.541 45.4773 123.872 47.1427Z" fill="#FF2C50"/>
<path d="M115.336 56.3419C112.886 57.113 110.462 53.3637 108.759 49.7707C108.759 49.7694 108.758 49.7694 108.758 49.7694C107.322 46.7421 106.396 43.8261 106.396 43.8261L107.368 43.1173C107.385 43.1094 107.404 43.1014 107.421 43.0935C107.87 42.8934 108.289 42.6669 108.677 42.4085H108.678C108.79 42.3357 108.896 42.2602 109.002 42.1807C109.505 42.7835 111.365 45.0423 113.097 47.5913C115.597 51.2717 117.829 55.5563 115.336 56.3419Z" fill="#FF2C50"/>
<path d="M121.385 51.0861C119.44 52.656 115.954 50.2302 113.097 47.5912C110.542 45.2316 108.49 42.7025 108.49 42.7025L108.677 42.4084H108.678C108.79 42.3355 108.896 42.26 109.002 42.1805C109.616 41.7287 110.148 41.1922 110.597 40.5668C110.63 40.5218 110.662 40.4754 110.693 40.4277C112.501 41.4346 118.223 44.7427 120.749 47.5938C121.965 48.9663 122.442 50.2329 121.385 51.0861Z" fill="#FF2C50"/>
<path d="M106.968 58.7364C106.063 58.6026 105.411 57.9535 104.95 56.9943C103.26 53.4874 104.102 45.8259 104.338 43.979C104.388 43.9711 104.439 43.9631 104.489 43.9539C105.556 43.7684 106.516 43.4941 107.368 43.1205C107.385 43.1126 107.404 43.1046 107.421 43.0967C107.542 43.5683 108.281 46.5413 108.758 49.7726C108.758 49.7726 108.759 49.7726 108.759 49.7739C109.414 54.2055 109.577 59.122 106.968 58.7364Z" fill="#FF2C50"/>
<path d="M104.95 56.9965C104.587 58.9996 103.825 60.298 102.391 59.9429C101.397 59.6978 100.762 58.8725 100.38 57.7159C99.0945 53.8275 100.668 46.1924 101.104 44.2488H101.106C101.205 44.2515 101.304 44.2515 101.404 44.2488C101.867 44.2356 102.316 44.2104 102.751 44.1747H102.752C103.305 44.1296 103.832 44.0647 104.338 43.9812C104.389 43.9733 104.439 43.9653 104.489 43.9561C104.753 45.7698 105.697 52.8749 104.95 56.9965Z" fill="#FF2C50"/>
<path d="M100.943 44.2425C100.588 45.5249 98.8706 51.5092 96.7535 55.3221C95.4048 57.7492 93.8958 59.2953 92.4716 58.1891C90.4632 56.6284 91.9271 52.6976 93.8468 49.2159C95.3982 46.3993 97.249 43.8781 97.8002 43.1455C97.9578 43.2488 98.1181 43.3456 98.2811 43.4343C99.0813 43.8781 99.9318 44.159 100.794 44.2319C100.843 44.2372 100.894 44.2398 100.943 44.2425Z" fill="#FF2C50"/>
<path d="M103.958 44.4057C103.958 44.4057 102.787 54.3341 100.38 57.7111C99.6828 58.6875 98.8839 59.1168 97.9804 58.6028C96.9709 58.0278 96.6569 56.8129 96.7536 55.3171C97.0027 51.4751 99.9597 45.769 100.794 44.2269C100.843 44.2322 100.894 44.2348 100.943 44.2375C100.996 44.2415 101.05 44.2428 101.104 44.2441H101.106C101.205 44.2468 101.304 44.2468 101.404 44.2441C101.867 44.2309 102.317 44.2057 102.751 44.1699H102.752L103.958 44.4057Z" fill="#FF2C50"/>
<path d="M98.2809 43.4299C97.8066 44.1228 95.9651 46.7632 93.8467 49.2116C91.1188 52.362 87.9313 55.1945 86.5972 53.1543C85.0126 50.7285 89.0865 46.7513 92.3721 44.103C92.3721 44.1016 92.3748 44.1016 92.3761 44.1003C94.0308 42.7662 95.4868 41.7699 95.9148 41.4824C95.9678 41.5434 96.0194 41.6017 96.0737 41.66C96.5971 42.2376 97.1787 42.7384 97.7987 43.1411C97.9563 43.2445 98.1167 43.3412 98.2796 43.4299H98.2809Z" fill="#FF2C50"/>
<path d="M93.665 33.1747C93.4239 34.1922 93.3881 35.2242 93.5219 36.2311C90.9054 36.0006 77.6093 34.6347 79.5223 30.9106C80.6339 28.7458 84.6707 29.5075 88.2623 30.7211C90.5583 31.4975 92.6714 32.4593 93.7193 32.9601C93.6995 33.0316 93.6822 33.1032 93.665 33.1747Z" fill="#FF2C50"/>
<path d="M95.0204 30.2455C94.9833 30.2959 94.9475 30.3462 94.9131 30.3979C94.3421 31.218 93.9526 32.0804 93.7194 32.9575C93.6995 33.029 93.6823 33.1006 93.6651 33.1721C92.6993 32.7799 90.5159 31.8658 88.2624 30.7185C84.2878 28.6981 80.0881 25.9504 81.9203 24.0572C83.2478 22.686 85.7743 23.559 88.2889 25.0641C88.2889 25.0641 88.2902 25.0654 88.2915 25.0654C91.1267 26.7612 93.9473 29.2585 95.0204 30.2455Z" fill="#FF2C50"/>
<path d="M97.1084 28.1822C97.0528 28.2219 96.9998 28.2617 96.9481 28.3014C96.2313 28.8486 95.8379 29.2752 95.8379 29.2752C95.5345 29.5905 95.2616 29.9151 95.0204 30.2476C94.9833 30.2979 94.9476 30.3483 94.9131 30.4C93.7936 29.609 90.7439 27.3952 88.2916 25.0675L88.2889 25.0661C85.679 22.5874 83.7474 19.9814 85.5438 18.8275C88.375 17.0071 93.2465 22.843 95.708 26.187C95.7094 26.187 95.7107 26.1909 95.712 26.1923C96.3956 27.1223 96.8938 27.8576 97.1084 28.1822Z" fill="#FF2C50"/>
<path d="M99.8099 26.6806C99.7304 26.7111 99.6509 26.7442 99.5727 26.7773C98.5632 27.2 97.7299 27.7233 97.1085 28.1817C97.0529 28.2214 96.9999 28.2612 96.9482 28.3009C96.8025 28.0624 96.3295 27.2834 95.7121 26.1918C95.7108 26.1904 95.7095 26.1878 95.7082 26.1865C94.5503 24.1409 92.8876 20.9957 91.9085 18.2348C90.8712 15.3068 90.6036 12.8095 92.5246 12.5088C94.2826 12.2332 95.7214 14.0019 96.8422 16.3853C97.3735 17.5127 97.8332 18.7779 98.2227 20.0299C99.1475 22.9989 99.6747 25.891 99.8099 26.6806Z" fill="#FF2C50"/>
<path d="M96.0977 41.7009C96.0977 41.7009 94.5092 42.8151 92.3762 44.1015C92.3749 44.1029 92.3736 44.1029 92.3723 44.1042C88.2706 46.579 82.167 49.6844 81.5271 46.6982C80.968 44.0949 85.34 41.9858 89.1701 40.6583C91.5866 39.8223 93.7872 39.2977 94.3979 39.1572C94.447 39.2645 94.5 39.3719 94.5556 39.4765C94.9146 40.1707 95.3492 40.8186 95.842 41.3989C95.8659 41.4267 95.891 41.4558 95.9149 41.4836C95.9679 41.5446 96.0196 41.6029 96.0739 41.6612L96.0964 41.7009H96.0977Z" fill="#FF2C50"/>
<path d="M94.5555 39.4742C94.2256 39.5603 91.9389 40.1525 89.17 40.6559C84.2084 41.5595 77.7008 42.1835 78.1314 39.1205C78.7501 34.7313 90.9333 35.9408 93.5247 36.2482C93.6585 37.259 93.9619 38.2434 94.3978 39.1549C94.4468 39.2622 94.4998 39.3695 94.5555 39.4742Z" fill="#FF2C50"/>
<path d="M102.719 26.0033C102.624 26.0099 102.528 26.0192 102.434 26.0298C102.184 26.0576 101.94 26.0934 101.702 26.1384C101.022 26.2656 100.389 26.4577 99.8097 26.6856C99.7302 26.7161 99.6508 26.7492 99.5726 26.7823C99.3527 25.9066 98.6624 23.0542 98.2226 20.0349C97.588 15.6828 97.4701 10.9809 100.024 11.3506C101.822 11.6102 102.628 13.8995 102.938 16.6247C103.346 20.2124 102.895 24.5513 102.719 26.0033Z" fill="#FF2C50"/>
<path opacity="0.05" d="M102.938 16.6214L103.041 15.9775C103.041 15.9775 104.193 18.5173 103.041 25.9801L102.719 26C102.719 26 103.782 22.4852 102.938 16.6214Z" fill="black"/>
<path opacity="0.05" d="M99.5727 26.7849L99.3435 26.8843C99.3435 26.8843 98.4877 24.8453 97.9908 19.3154L98.2863 20.4601C98.2863 20.4601 99.0573 24.901 99.5727 26.7849Z" fill="black"/>
<path opacity="0.05" d="M112.629 17.6025C112.629 17.6025 111.588 21.6499 108.852 27.462C108.661 27.3494 108.536 27.2805 108.536 27.2805C108.536 27.2805 109.716 25.7768 112.27 18.0636L112.629 17.6025Z" fill="black"/>
<path opacity="0.05" d="M108.028 13.9136L108.192 13.54C108.192 13.54 107.39 21.8071 106.038 26.3168L105.64 26.2082C105.64 26.2082 106.728 23.3386 108.029 13.9136H108.028Z" fill="black"/>
<path opacity="0.05" d="M95.7082 26.1922L95.4366 25.8252C95.4366 25.8252 95.7997 26.8281 96.837 28.4073L97.0424 28.2364C97.0424 28.2364 96.3614 27.5064 95.7082 26.1922Z" fill="black"/>
<path opacity="0.05" d="M88.2917 25.0728L87.885 24.6807C87.885 24.6807 90.9825 26.3924 95.0617 30.1721L94.9146 30.4053C94.9146 30.4053 91.0461 26.9422 88.2931 25.0728H88.2917Z" fill="black"/>
<path opacity="0.05" d="M88.2623 30.7271L87.5853 30.5059C87.5853 30.5059 88.3882 31.2663 93.6266 33.3503L93.665 33.1807C93.665 33.1807 90.1131 31.7181 88.2623 30.7271Z" fill="black"/>
<path opacity="0.05" d="M91.1386 36.0221C91.1386 36.0221 92.9801 36.1798 93.5233 36.2327L93.5445 36.3878C93.5445 36.3878 91.9905 36.3533 90.6537 35.9863L91.1386 36.0208V36.0221Z" fill="black"/>
<path opacity="0.05" d="M89.0786 40.6755C89.0786 40.6755 91.9933 40.245 94.5569 39.4766L94.6536 39.6567C94.6536 39.6567 92.3179 40.6861 88.4666 40.91L89.0786 40.6755Z" fill="black"/>
<path opacity="0.05" d="M96.0748 41.6669C96.0748 41.6669 94.0677 42.6711 92.3719 44.1086L91.6459 44.5405C91.6459 44.5405 93.0886 43.2209 95.8761 41.4443C96.1093 41.708 96.0748 41.6669 96.0748 41.6669Z" fill="black"/>
<path opacity="0.05" d="M93.8467 49.2181C93.8467 49.2181 97.8146 44.4381 98.281 43.4365L98.6029 43.6048C98.6029 43.6048 95.4127 47.9012 93.5447 49.7772L93.8467 49.2181Z" fill="black"/>
<path opacity="0.05" d="M100.943 44.2389C100.943 44.2389 97.3815 50.4829 96.7535 55.3186C96.5402 55.6975 96.4833 55.7889 96.4833 55.7889C96.4833 55.7889 97.1404 50.3451 100.713 44.2217L100.943 44.2402V44.2389Z" fill="black"/>
<path opacity="0.05" d="M100.38 57.7171C100.38 57.7171 103.624 52.337 103.647 44.0832C103.816 44.0607 103.776 44.066 103.776 44.066C103.776 44.066 104.01 51.4122 100.426 57.8735C100.382 57.7489 100.38 57.7171 100.38 57.7171Z" fill="black"/>
<path opacity="0.05" d="M104.95 56.9961C104.95 56.9961 103.282 52.4585 103.341 49.21L103.26 49.6697C103.26 49.6697 103.111 51.5642 104.909 57.2133L104.95 56.9961Z" fill="black"/>
<path opacity="0.05" d="M107.421 43.0967C107.421 43.0967 108.135 45.851 108.758 49.7725L108.851 49.9646C108.851 49.9646 108.49 46.8725 107.543 43.041L107.421 43.0967Z" fill="black"/>
<path opacity="0.05" d="M113.097 47.5949C113.097 47.5949 109.761 44.3716 108.677 42.4121L108.551 42.4982C108.551 42.4982 109.643 44.3967 113.574 48.3103L113.097 47.5949Z" fill="black"/>
<path opacity="0.05" d="M110.693 40.4336C110.693 40.4336 118.058 44.4108 120.749 47.5997C120.999 47.6659 118.907 44.9195 110.807 40.2627L110.693 40.4336Z" fill="black"/>
<path opacity="0.05" d="M119.002 41.0507C119.002 41.0507 115.356 39.6304 111.948 37.5889L111.895 37.7796C111.895 37.7796 115.064 39.6967 119.472 41.3262L119.002 41.0507Z" fill="black"/>
<path opacity="0.05" d="M112.452 34.7767C112.452 34.7767 120.819 35.4855 124.843 37.7814L125.156 37.7443C125.156 37.7443 120.976 35.463 112.466 34.5488L112.452 34.7767Z" fill="black"/>
<path opacity="0.05" d="M112.667 25.3734C112.667 25.3734 111.622 27.04 109.902 28.1873C110.063 28.3225 109.999 28.2655 109.999 28.2655C109.999 28.2655 111.977 26.7459 113.066 25.1084L112.667 25.3734Z" fill="black"/>
<path opacity="0.05" d="M116.621 27.9593C116.621 27.9593 113.467 28.7728 111.538 30.091C111.599 30.1983 111.598 30.1957 111.598 30.1957C111.598 30.1957 114.109 28.7052 115.994 28.2177L116.621 27.958V27.9593Z" fill="black"/>
<path opacity="0.05" d="M112.403 32.7069C112.403 32.7069 115.116 32.8778 121.649 32.2246L122.021 32.2458C122.021 32.2458 119.367 32.8102 112.432 32.9466L112.403 32.7069Z" fill="black"/>
<path d="M118.724 41.0523C116.468 48.88 110.273 52.0411 100.198 52.3436C96.5895 52.4515 93.0039 50.4277 90.354 47.3041C85.6053 41.7065 83.8582 32.5797 90.347 25.8471C90.347 25.8471 94.371 21.4782 100.726 20.287C103.275 19.8109 106.199 19.8461 109.391 20.8803C120.532 24.494 120.983 33.2245 118.724 41.0523Z" fill="#FFD655"/>
<path d="M90.354 47.3062C85.6053 41.7086 83.8582 32.5818 90.347 25.8491C90.347 25.8491 94.371 21.4803 100.726 20.2891C94.0193 23.2086 83.7293 30.5955 90.354 47.3062Z" fill="#FFC82C"/>
<path opacity="0.35" d="M96.4302 40.4479C97.4507 40.4479 98.2781 40.0154 98.2781 39.4818C98.2781 38.9482 97.4507 38.5156 96.4302 38.5156C95.4096 38.5156 94.5823 38.9482 94.5823 39.4818C94.5823 40.0154 95.4096 40.4479 96.4302 40.4479Z" fill="#FF6E79"/>
<path opacity="0.35" d="M115.742 40.4479C116.762 40.4479 117.589 40.0154 117.589 39.4818C117.589 38.9482 116.762 38.5156 115.742 38.5156C114.721 38.5156 113.894 38.9482 113.894 39.4818C113.894 40.0154 114.721 40.4479 115.742 40.4479Z" fill="#FF6E79"/>
<path d="M101.603 35.8397C100.778 33.9754 97.4877 34.1208 96.6341 35.8936C96.4817 36.1985 96.015 36.0789 96.0314 35.7412C96.0713 35.0518 96.6177 34.5077 97.1711 34.1724C98.278 33.5228 99.7319 33.5767 100.768 34.306C101.268 34.6648 101.688 35.1901 101.772 35.7951C101.788 35.896 101.636 35.9335 101.601 35.8373L101.603 35.8397Z" fill="#302826"/>
<path d="M99.9501 36.9278C100.971 36.9278 101.798 36.4176 101.798 35.7881C101.798 35.1587 100.971 34.6484 99.9501 34.6484C98.9295 34.6484 98.1022 35.1587 98.1022 35.7881C98.1022 36.4176 98.9295 36.9278 99.9501 36.9278Z" fill="#302826"/>
<path d="M98.6179 35.6492C98.9016 35.6492 99.1315 35.4193 99.1315 35.1356C99.1315 34.852 98.9016 34.6221 98.6179 34.6221C98.3343 34.6221 98.1044 34.852 98.1044 35.1356C98.1044 35.4193 98.3343 35.6492 98.6179 35.6492Z" fill="#EFEFEF"/>
<path d="M99.2442 36.1707C99.3504 36.1707 99.4365 36.0846 99.4365 35.9784C99.4365 35.8722 99.3504 35.7861 99.2442 35.7861C99.138 35.7861 99.0519 35.8722 99.0519 35.9784C99.0519 36.0846 99.138 36.1707 99.2442 36.1707Z" fill="#EFEFEF"/>
<path d="M109.147 35.7978C109.534 33.849 112.172 33.1995 113.748 34.175C114.301 34.508 114.85 35.052 114.888 35.7438C114.899 36.0862 114.435 36.1964 114.285 35.8963C113.431 34.1234 110.144 33.9757 109.316 35.8423C109.285 35.9408 109.128 35.901 109.145 35.8001L109.147 35.7978Z" fill="#302826"/>
<path d="M110.97 36.9259C111.99 36.9259 112.818 36.4156 112.818 35.7862C112.818 35.1567 111.99 34.6465 110.97 34.6465C109.949 34.6465 109.122 35.1567 109.122 35.7862C109.122 36.4156 109.949 36.9259 110.97 36.9259Z" fill="#302826"/>
<path d="M112.302 35.6511C112.585 35.6511 112.815 35.4212 112.815 35.1376C112.815 34.854 112.585 34.624 112.302 34.624C112.018 34.624 111.788 34.854 111.788 35.1376C111.788 35.4212 112.018 35.6511 112.302 35.6511Z" fill="#EFEFEF"/>
<path d="M111.675 36.1727C111.782 36.1727 111.868 36.0866 111.868 35.9804C111.868 35.8742 111.782 35.7881 111.675 35.7881C111.569 35.7881 111.483 35.8742 111.483 35.9804C111.483 36.0866 111.569 36.1727 111.675 36.1727Z" fill="#EFEFEF"/>
<path d="M104.328 40.1186C105.625 40.9229 107.314 40.5407 108.085 39.204C108.465 38.667 109.26 39.2275 108.878 39.7645C107.947 41.1011 106.064 41.6217 104.577 40.9604C104.3 40.8174 103.632 40.6415 103.873 40.203C103.972 40.0482 104.183 40.0107 104.331 40.1186H104.328Z" fill="#302826"/>
<path d="M98.8127 31.8976C99.9524 33.2132 101.404 34.3552 103.053 34.9626C103.374 35.0728 103.224 35.5535 102.895 35.4597C101.071 34.9204 99.4763 33.8252 98.142 32.4815C97.7293 32.0313 98.4211 31.4239 98.8127 31.8976Z" fill="#FF2C50"/>
<path d="M107.457 34.2546C108.383 32.5755 110.217 31.5883 112.095 31.4687L112.529 31.4429C113.019 31.478 113.896 31.274 113.912 31.9986C113.91 32.3387 113.579 32.5802 113.253 32.5028C112.895 32.4442 112.489 32.3715 112.121 32.3692C112.006 32.3598 111.853 32.3574 111.741 32.3692C110.235 32.395 108.702 33.1782 107.928 34.4914C107.773 34.8103 107.295 34.5782 107.457 34.2569V34.2546Z" fill="#FF2C50"/>
<defs>
<linearGradient id="paint0_linear_254_791" x1="103" y1="4" x2="103" y2="68" gradientUnits="userSpaceOnUse">
<stop stop-color="#CDDDA7"/>
<stop offset="1" stop-color="#A2DAAF"/>
</linearGradient>
</defs>
</svg>
