<svg width="45" height="44" viewBox="0 0 45 44" fill="none" xmlns="http://www.w3.org/2000/svg">
<ellipse cx="22.5" cy="22" rx="22.5" ry="22" fill="#4F2F2F"/>
<path d="M39.2613 25.5325C38.5086 26.9014 36.1837 26.6044 33.8608 25.8701C33.8598 25.8701 33.8588 25.8691 33.8588 25.8691C31.6752 25.1764 29.4935 24.0967 28.6228 23.6459C28.6334 23.613 28.6431 23.5801 28.6528 23.5462C28.6721 23.4785 28.6915 23.4108 28.7099 23.3421C28.8124 22.9657 28.8985 22.5855 28.9643 22.2043C29.0166 21.8986 29.0553 21.5929 29.0775 21.2891C30.6236 21.4739 35.7145 22.1666 38.1264 23.4833C39.1616 24.0493 39.7034 24.7285 39.2613 25.5325Z" fill="#FF2C50"/>
<path d="M17.873 16.4752C17.8324 16.5043 17.7937 16.5333 17.7559 16.5623C17.2325 16.9619 16.9452 17.2734 16.9452 17.2734C16.7236 17.5037 16.5243 17.7407 16.3482 17.9835C16.3212 18.0203 16.295 18.0571 16.2699 18.0948C15.4524 17.5172 13.2252 15.9006 11.4344 14.2007L11.4325 14.1997C9.52651 12.3895 8.11592 10.4865 9.42783 9.64383C11.4953 8.3145 15.0528 12.5763 16.8504 15.0182C16.8513 15.0182 16.8523 15.0211 16.8533 15.0221C17.3525 15.7012 17.7163 16.2382 17.873 16.4752Z" fill="#FF2C50"/>
<path d="M19.8457 15.3786C19.7876 15.4009 19.7296 15.4251 19.6725 15.4493C18.9353 15.7579 18.3267 16.1401 17.873 16.4748C17.8323 16.5038 17.7936 16.5329 17.7559 16.5619C17.6495 16.3877 17.3041 15.8189 16.8532 15.0216C16.8523 15.0207 16.8513 15.0187 16.8503 15.0178C16.0048 13.524 14.7906 11.2272 14.0756 9.21093C13.3181 7.07279 13.1226 5.24908 14.5255 5.02947C15.8093 4.82823 16.86 6.11982 17.6785 7.86033C18.0665 8.68366 18.4022 9.6076 18.6866 10.5219C19.3619 12.69 19.747 14.802 19.8457 15.3786Z" fill="#FF2C50"/>
<path d="M28.6529 23.5471C27.7221 26.7766 25.1661 28.0807 21.0097 28.2055C19.5208 28.25 18.0415 27.4151 16.9482 26.1264C14.9891 23.817 14.2683 20.0516 16.9453 17.2739C16.9453 17.2739 18.6055 15.4715 21.2274 14.98C22.2791 14.7836 23.4855 14.7981 24.8023 15.2248C29.3988 16.7157 29.5846 20.3176 28.6529 23.5471Z" fill="#FFD655"/>
<path d="M16.9482 26.1259C14.9891 23.8165 14.2683 20.051 16.9453 17.2734C16.9453 17.2734 18.6055 15.471 21.2274 14.9795C18.4604 16.184 14.2151 19.2316 16.9482 26.1259Z" fill="#FFC82C"/>
<path d="M24.1037 15.033H24.1027C24.0495 15.0214 23.9963 15.0098 23.9431 14.9991C23.2465 14.8598 22.5867 14.8318 21.9704 14.8811C21.9007 14.8859 21.8311 14.8927 21.7624 14.9004C21.7459 13.9185 21.7295 10.7151 22.13 8.03324C22.4986 5.56906 23.2204 3.54605 24.6194 4.08881C25.3479 4.37131 25.7146 5.09789 25.8471 6.05473C26.2457 8.91655 24.542 13.8304 24.1037 15.033Z" fill="#FF2C50"/>
<path d="M29.2352 14.4241H29.2342C28.2106 15.4671 27.3467 16.2294 27.1493 16.4007C27.1445 16.4055 27.1396 16.4104 27.1358 16.4133C26.86 16.1985 26.5514 15.9973 26.205 15.8134H26.2031C25.9883 15.6983 25.7619 15.5899 25.5191 15.4893L25.1873 15.291C25.1873 15.291 26.9848 11.691 28.945 9.08554C30.4233 7.12252 31.9935 5.72257 32.9591 6.85162C34.4325 8.57471 31.4575 12.1592 29.2352 14.4241Z" fill="#FF2C50"/>
<path d="M28.945 9.08501C28.1014 12.2971 26.2235 15.8158 26.2235 15.8158L26.2051 15.8129H26.2032C25.9884 15.6978 25.762 15.5894 25.5191 15.4888C25.2928 15.3949 25.0538 15.3059 24.8022 15.2247C24.5652 15.1482 24.333 15.0844 24.1037 15.0331H24.1027C24.0495 15.0215 23.9963 15.0099 23.9431 14.9992C24.0989 13.5654 24.6823 8.82186 25.8471 6.05485C26.4857 4.53687 27.3003 3.61292 28.3142 4.15761C29.6145 4.85517 29.5197 6.89946 28.945 9.08501Z" fill="#FF2C50"/>
<path d="M31.6646 16.4996C30.2027 17.0898 28.8366 17.499 28.2832 17.6577C28.2513 17.6074 28.2184 17.558 28.1845 17.5097C27.9185 17.1294 27.5886 16.7744 27.1832 16.4512H27.1822L27.1493 16.4L26.9307 16.0672C26.9307 16.0672 27.9069 15.3144 29.2342 14.4244H29.2352C31.8745 12.6519 35.9051 10.3377 36.4256 12.3172C36.8667 13.9967 34.1307 15.506 31.6646 16.4996Z" fill="#FF2C50"/>
<path d="M39.4122 17.0443C39.3184 18.3504 37.7317 19.0557 35.7958 19.4263H35.7938C33.3093 19.9042 30.2531 19.8326 29.0418 19.7784C29.035 19.7243 29.0263 19.6701 29.0176 19.6159C28.9053 18.9232 28.6732 18.2614 28.2833 17.6577C28.2513 17.6074 28.2184 17.5581 28.1846 17.5097C28.7089 17.3375 30.0663 16.906 31.6646 16.4996C35.0702 15.6366 39.567 14.8936 39.4122 17.0443Z" fill="#FF2C50"/>
<path d="M40.936 21.8616C40.6293 22.8707 39.5399 23.337 38.1264 23.4841C34.986 23.8121 30.2492 22.5659 28.9644 22.2051C29.0166 21.8993 29.0553 21.5936 29.0776 21.2898C29.1163 20.778 29.1085 20.2711 29.0418 19.7786C29.035 19.7244 29.0263 19.6703 29.0176 19.6161C30.1311 19.5174 33.0936 19.292 35.7938 19.4264H35.7958C38.7834 19.5774 41.4507 20.1685 40.936 21.8616Z" fill="#FF2C50"/>
<path d="M37.4171 30.3212C36.8676 30.8698 36.0587 30.9143 35.1367 30.6531C32.4529 29.8936 28.8007 26.55 27.7229 25.5216C27.7471 25.4887 27.7703 25.4548 27.7935 25.42C28.1428 24.9101 28.4195 24.3219 28.6227 23.6475C28.6333 23.6146 28.643 23.5818 28.6527 23.5479C28.672 23.4802 28.6914 23.4124 28.7097 23.3438C29.5147 23.6843 31.7902 24.6789 33.8587 25.8708C33.8587 25.8708 33.8597 25.8718 33.8606 25.8718C36.4061 27.3395 38.6361 29.1051 37.4171 30.3212Z" fill="#FF2C50"/>
<path d="M31.1836 37.0407C29.3947 37.6037 27.6242 34.8658 26.381 32.2419C26.381 32.241 26.3801 32.241 26.3801 32.241C25.3313 30.0303 24.655 27.9008 24.655 27.9008L25.3652 27.3832C25.3777 27.3774 25.3913 27.3716 25.4039 27.3658C25.7318 27.2197 26.0376 27.0543 26.321 26.8656H26.322C26.4033 26.8124 26.4807 26.7573 26.5581 26.6992C26.9257 27.1394 28.2841 28.789 29.5486 30.6504C31.3742 33.3381 33.0044 36.4669 31.1836 37.0407Z" fill="#FF2C50"/>
<path d="M35.6013 33.2024C34.1811 34.3488 31.6356 32.5774 29.5488 30.6501C27.6834 28.927 26.1848 27.0801 26.1848 27.0801L26.3212 26.8653H26.3222C26.4035 26.8121 26.4809 26.757 26.5583 26.6989C27.0072 26.369 27.3951 25.9772 27.7231 25.5205C27.7473 25.4876 27.7705 25.4538 27.7937 25.4189C29.1134 26.1542 33.292 28.57 35.1369 30.6521C36.0251 31.6544 36.3734 32.5793 35.6013 33.2024Z" fill="#FF2C50"/>
<path d="M25.0732 38.7864C24.4125 38.6887 23.9364 38.2146 23.5998 37.5141C22.3653 34.9532 22.9806 29.3583 23.1528 28.0096C23.1896 28.0038 23.2263 27.998 23.2631 27.9912C24.0419 27.8557 24.7433 27.6555 25.3654 27.3826C25.378 27.3768 25.3915 27.371 25.4041 27.3652C25.4922 27.7097 26.032 29.8807 26.3803 32.2404C26.3803 32.2404 26.3813 32.2404 26.3813 32.2414C26.8592 35.4776 26.9782 39.0679 25.0732 38.7864Z" fill="#FF2C50"/>
<path d="M23.5995 37.5151C23.3344 38.978 22.7781 39.9261 21.7304 39.6668C21.0047 39.4878 20.5413 38.8851 20.2617 38.0405C19.3233 35.2009 20.4726 29.6253 20.7909 28.206H20.7919C20.8645 28.2079 20.937 28.2079 21.0096 28.206C21.3482 28.1963 21.6762 28.1779 21.9935 28.1518H21.9945C22.3979 28.1189 22.783 28.0715 23.1526 28.0106C23.1893 28.0048 23.2261 27.999 23.2629 27.9922C23.4554 29.3167 24.1452 34.5053 23.5995 37.5151Z" fill="#FF2C50"/>
<path d="M20.673 28.2015C20.4137 29.138 19.1599 33.5081 17.6138 36.2925C16.6289 38.065 15.527 39.194 14.4869 38.3862C13.0202 37.2465 14.0893 34.376 15.4912 31.8334C16.6241 29.7765 17.9757 27.9354 18.3781 27.4004C18.4933 27.4759 18.6103 27.5465 18.7293 27.6113C19.3137 27.9354 19.9348 28.1405 20.5647 28.1937C20.6004 28.1976 20.6372 28.1995 20.673 28.2015Z" fill="#FF2C50"/>
<path d="M22.8749 28.3236C22.8749 28.3236 22.0196 35.5739 20.2617 38.04C19.7528 38.7531 19.1694 39.0665 18.5096 38.6911C17.7724 38.2713 17.5431 37.3841 17.6137 36.2918C17.7956 33.4861 19.955 29.3191 20.5645 28.193C20.6003 28.1968 20.6371 28.1988 20.6729 28.2007C20.7116 28.2036 20.7513 28.2046 20.7909 28.2055H20.7919C20.8645 28.2075 20.937 28.2075 21.0096 28.2055C21.3482 28.1959 21.6762 28.1775 21.9935 28.1514H21.9945L22.8749 28.3236Z" fill="#FF2C50"/>
<path d="M18.7292 27.6107C18.3829 28.1167 17.0381 30.0449 15.4911 31.8328C13.499 34.1335 11.1713 36.2019 10.197 34.712C9.03989 32.9406 12.0149 30.0362 14.4143 28.1022C14.4143 28.1012 14.4162 28.1012 14.4172 28.1002C15.6256 27.126 16.6888 26.3984 17.0013 26.1885C17.04 26.233 17.0778 26.2755 17.1174 26.3181C17.4996 26.7399 17.9243 27.1057 18.3771 27.3998C18.4922 27.4752 18.6093 27.5459 18.7283 27.6107H18.7292Z" fill="#FF2C50"/>
<path d="M15.3586 20.1211C15.1825 20.8641 15.1564 21.6178 15.2541 22.3531C13.3433 22.1847 3.63367 21.1872 5.03072 18.4676C5.84244 16.8868 8.79037 17.4431 11.4132 18.3293C13.0899 18.8962 14.633 19.5986 15.3983 19.9643C15.3838 20.0166 15.3712 20.0688 15.3586 20.1211Z" fill="#FF2C50"/>
<path d="M16.3483 17.9836C16.3212 18.0203 16.2951 18.0571 16.27 18.0948C15.853 18.6937 15.5685 19.3235 15.3983 19.964C15.3837 20.0162 15.3712 20.0685 15.3586 20.1207C14.6533 19.8344 13.0589 19.1668 11.4132 18.329C8.51073 16.8535 5.4438 14.847 6.78183 13.4644C7.75125 12.4631 9.59625 13.1007 11.4325 14.1997C11.4325 14.1997 11.4335 14.2007 11.4345 14.2007C13.5049 15.4391 15.5647 17.2628 16.3483 17.9836Z" fill="#FF2C50"/>
<path d="M17.1349 26.3468C17.1349 26.3468 15.9748 27.1605 14.4172 28.0999C14.4162 28.1009 14.4153 28.1009 14.4143 28.1018C11.419 29.9091 6.96176 32.1769 6.49447 29.9962C6.08619 28.0951 9.27889 26.5548 12.0759 25.5854C13.8406 24.9749 15.4476 24.5918 15.8936 24.4893C15.9294 24.5676 15.9681 24.646 16.0087 24.7224C16.2709 25.2294 16.5882 25.7025 16.9481 26.1262C16.9656 26.1466 16.9839 26.1678 17.0014 26.1882C17.0401 26.2327 17.0778 26.2752 17.1174 26.3178L17.1339 26.3468H17.1349Z" fill="#FF2C50"/>
<path d="M16.0087 24.7226C15.7678 24.7855 14.0979 25.2179 12.0759 25.5856C8.45268 26.2454 3.70039 26.7011 4.01483 24.4643C4.46664 21.259 13.3636 22.1423 15.256 22.3668C15.3537 23.105 15.5753 23.8238 15.8936 24.4894C15.9294 24.5678 15.9681 24.6462 16.0087 24.7226Z" fill="#FF2C50"/>
<path d="M21.9704 14.8813C21.9007 14.8862 21.8311 14.893 21.7624 14.9007C21.5795 14.921 21.4015 14.9471 21.2273 14.98C20.731 15.0729 20.2686 15.2132 19.8458 15.3796C19.7877 15.4019 19.7297 15.426 19.6726 15.4502C19.512 14.8107 19.0079 12.7277 18.6867 10.5228C18.2233 7.34464 18.1372 3.91104 20.0025 4.18097C21.3154 4.3706 21.9036 6.04241 22.13 8.03252C22.428 10.6525 22.099 13.821 21.9704 14.8813Z" fill="#FF2C50"/>
<path opacity="0.35" d="M19.4548 23.2982C19.8758 23.2982 20.2171 23.1197 20.2171 22.8996C20.2171 22.6794 19.8758 22.501 19.4548 22.501C19.0337 22.501 18.6924 22.6794 18.6924 22.8996C18.6924 23.1197 19.0337 23.2982 19.4548 23.2982Z" fill="#FF6E79"/>
<path opacity="0.35" d="M27.422 23.2982C27.8431 23.2982 28.1844 23.1197 28.1844 22.8996C28.1844 22.6794 27.8431 22.501 27.422 22.501C27.001 22.501 26.6597 22.6794 26.6597 22.8996C26.6597 23.1197 27.001 23.2982 27.422 23.2982Z" fill="#FF6E79"/>
<path opacity="0.05" d="M22.1298 8.0327L22.2053 7.5625C22.2053 7.5625 23.0461 9.41717 22.2053 14.867L21.9702 14.8815C21.9702 14.8815 22.7461 12.3148 22.1298 8.0327Z" fill="black"/>
<path opacity="0.05" d="M19.6728 15.4508L19.5054 15.5233C19.5054 15.5233 18.8804 14.0344 18.5176 9.99609L18.7333 10.832C18.7333 10.832 19.2964 14.075 19.6728 15.4508Z" fill="black"/>
<path opacity="0.05" d="M29.2071 8.74805C29.2071 8.74805 28.4466 11.7037 26.4488 15.9481C26.3094 15.8658 26.2185 15.8155 26.2185 15.8155C26.2185 15.8155 27.0796 14.7174 28.9449 9.08473L29.2071 8.74805Z" fill="black"/>
<path opacity="0.05" d="M25.8472 6.05506L25.9671 5.78223C25.9671 5.78223 25.3818 11.8193 24.394 15.1126L24.1038 15.0333C24.1038 15.0333 24.8981 12.9377 25.8481 6.05506H25.8472Z" fill="black"/>
<path opacity="0.05" d="M16.8504 15.019L16.6521 14.751C16.6521 14.751 16.9172 15.4834 17.6747 16.6366L17.8247 16.5118C17.8247 16.5118 17.3274 15.9787 16.8504 15.019Z" fill="black"/>
<path opacity="0.05" d="M11.4345 14.2004L11.1375 13.9141C11.1375 13.9141 13.3994 15.1641 16.3783 17.9243L16.2709 18.0946C16.2709 18.0946 13.4459 15.5656 11.4354 14.2004H11.4345Z" fill="black"/>
<path opacity="0.05" d="M11.4133 18.3305L10.9189 18.1689C10.9189 18.1689 11.5052 18.7243 15.3307 20.2461L15.3587 20.1223C15.3587 20.1223 12.7649 19.0542 11.4133 18.3305Z" fill="black"/>
<path opacity="0.05" d="M13.5135 22.199C13.5135 22.199 14.8583 22.3141 15.255 22.3528L15.2705 22.466C15.2705 22.466 14.1356 22.4408 13.1594 22.1729L13.5135 22.198V22.199Z" fill="black"/>
<path opacity="0.05" d="M12.0092 25.5982C12.0092 25.5982 14.1377 25.2838 16.0098 24.7227L16.0804 24.8542C16.0804 24.8542 14.3747 25.606 11.5623 25.7695L12.0092 25.5982Z" fill="black"/>
<path opacity="0.05" d="M17.1183 26.3188C17.1183 26.3188 15.6526 27.0521 14.4142 28.1019L13.884 28.4173C13.884 28.4173 14.9376 27.4536 16.9732 26.1562C17.1435 26.3488 17.1183 26.3188 17.1183 26.3188Z" fill="black"/>
<path opacity="0.05" d="M15.4911 31.8325C15.4911 31.8325 18.3887 28.3418 18.7293 27.6104L18.9644 27.7332C18.9644 27.7332 16.6347 30.8708 15.2705 32.2407L15.4911 31.8325Z" fill="black"/>
<path opacity="0.05" d="M20.2617 38.0397C20.2617 38.0397 22.6311 34.1107 22.6475 28.0833C22.7714 28.0668 22.7423 28.0707 22.7423 28.0707C22.7423 28.0707 22.9126 33.4354 20.2956 38.1538C20.2637 38.0629 20.2617 38.0397 20.2617 38.0397Z" fill="black"/>
<path opacity="0.05" d="M23.5997 37.515C23.5997 37.515 22.3817 34.2014 22.4242 31.8291L22.3652 32.1648C22.3652 32.1648 22.2569 33.5483 23.5697 37.6737L23.5997 37.515Z" fill="black"/>
<path opacity="0.05" d="M25.4041 27.3658C25.4041 27.3658 25.9255 29.3772 26.3802 32.241L26.448 32.3813C26.448 32.3813 26.1848 30.1232 25.4931 27.3252L25.4041 27.3658Z" fill="black"/>
<path opacity="0.05" d="M29.5487 30.65C29.5487 30.65 27.1126 28.2961 26.3212 26.8652L26.2292 26.9281C26.2292 26.9281 27.0265 28.3145 29.897 31.1725L29.5487 30.65Z" fill="black"/>
<path opacity="0.05" d="M27.7937 25.4188C27.7937 25.4188 33.1719 28.3231 35.1369 30.6519C35.3198 30.7002 33.7921 28.6947 27.8769 25.2939L27.7937 25.4188Z" fill="black"/>
<path opacity="0.05" d="M33.8607 25.8718C33.8607 25.8718 31.1982 24.8346 28.7098 23.3438L28.6711 23.4831C28.6711 23.4831 30.9854 24.883 34.2042 26.073L33.8607 25.8718Z" fill="black"/>
<path opacity="0.05" d="M29.0774 21.2895C29.0774 21.2895 35.188 21.8071 38.1263 23.4837L38.3546 23.4566C38.3546 23.4566 35.3022 21.7906 29.088 21.123L29.0774 21.2895Z" fill="black"/>
<path opacity="0.05" d="M29.2352 14.424C29.2352 14.424 28.4719 15.6411 27.2161 16.4789C27.3331 16.5776 27.2867 16.536 27.2867 16.536C27.2867 16.536 28.7311 15.4263 29.5264 14.2305L29.2352 14.424Z" fill="black"/>
<path opacity="0.05" d="M32.1222 16.3096C32.1222 16.3096 29.8195 16.9036 28.4109 17.8662C28.4554 17.9446 28.4544 17.9427 28.4544 17.9427C28.4544 17.9427 30.2878 16.8543 31.6645 16.4982L32.1222 16.3086V16.3096Z" fill="black"/>
<path opacity="0.05" d="M29.0417 19.7779C29.0417 19.7779 31.0232 19.9028 35.7938 19.4258L36.0657 19.4413C36.0657 19.4413 34.1278 19.8534 29.063 19.9531L29.0417 19.7779Z" fill="black"/>
<path d="M21.5892 21.3981C21.2486 20.6289 19.8913 20.6889 19.5391 21.4203C19.4762 21.5461 19.2837 21.4967 19.2905 21.3574C19.3069 21.073 19.5323 20.8485 19.7607 20.7102C20.2173 20.4422 20.8171 20.4644 21.2448 20.7653C21.4509 20.9134 21.624 21.1301 21.6589 21.3797C21.6656 21.4213 21.6027 21.4368 21.5882 21.3971L21.5892 21.3981Z" fill="#302826"/>
<path d="M20.9072 21.8466C21.3282 21.8466 21.6695 21.6361 21.6695 21.3764C21.6695 21.1168 21.3282 20.9062 20.9072 20.9062C20.4861 20.9062 20.1448 21.1168 20.1448 21.3764C20.1448 21.6361 20.4861 21.8466 20.9072 21.8466Z" fill="#302826"/>
<path d="M20.3576 21.3212C20.4746 21.3212 20.5695 21.2264 20.5695 21.1093C20.5695 20.9923 20.4746 20.8975 20.3576 20.8975C20.2406 20.8975 20.1458 20.9923 20.1458 21.1093C20.1458 21.2264 20.2406 21.3212 20.3576 21.3212Z" fill="#EFEFEF"/>
<path d="M20.616 21.5346C20.6598 21.5346 20.6953 21.4991 20.6953 21.4553C20.6953 21.4115 20.6598 21.376 20.616 21.376C20.5721 21.376 20.5366 21.4115 20.5366 21.4553C20.5366 21.4991 20.5721 21.5346 20.616 21.5346Z" fill="#EFEFEF"/>
<path d="M24.7017 21.3799C24.8613 20.5759 25.9497 20.3079 26.5999 20.7104C26.8282 20.8478 27.0546 21.0722 27.0701 21.3576C27.0749 21.4989 26.8833 21.5444 26.8214 21.4205C26.4693 20.6891 25.1128 20.6282 24.7713 21.3983C24.7587 21.4389 24.6939 21.4225 24.7007 21.3809L24.7017 21.3799Z" fill="#302826"/>
<path d="M25.4533 21.8447C25.8743 21.8447 26.2157 21.6342 26.2157 21.3745C26.2157 21.1148 25.8743 20.9043 25.4533 20.9043C25.0322 20.9043 24.6909 21.1148 24.6909 21.3745C24.6909 21.6342 25.0322 21.8447 25.4533 21.8447Z" fill="#302826"/>
<path d="M26.0029 21.3212C26.1199 21.3212 26.2148 21.2264 26.2148 21.1093C26.2148 20.9923 26.1199 20.8975 26.0029 20.8975C25.8859 20.8975 25.791 20.9923 25.791 21.1093C25.791 21.2264 25.8859 21.3212 26.0029 21.3212Z" fill="#EFEFEF"/>
<path d="M25.7446 21.5337C25.7884 21.5337 25.824 21.4981 25.824 21.4543C25.824 21.4105 25.7884 21.375 25.7446 21.375C25.7008 21.375 25.6653 21.4105 25.6653 21.4543C25.6653 21.4981 25.7008 21.5337 25.7446 21.5337Z" fill="#EFEFEF"/>
<path d="M22.7134 23.1605C23.2484 23.4923 23.945 23.3346 24.2633 22.7832C24.42 22.5616 24.748 22.7928 24.5903 23.0144C24.2062 23.5659 23.4293 23.7806 22.816 23.5078C22.7018 23.4488 22.4261 23.3762 22.5257 23.1953C22.5663 23.1315 22.6534 23.116 22.7144 23.1605H22.7134Z" fill="#302826"/>
<path d="M20.438 19.7682C20.9082 20.311 21.5071 20.7822 22.1872 21.0327C22.3197 21.0782 22.2578 21.2765 22.1224 21.2378C21.3697 21.0153 20.7118 20.5635 20.1613 20.0091C19.991 19.8234 20.2764 19.5728 20.438 19.7682Z" fill="#FF2C50"/>
<path d="M24.0041 20.7426C24.3862 20.0499 25.1428 19.6426 25.9178 19.5933L26.0967 19.5826C26.299 19.5971 26.6608 19.513 26.6676 19.8119C26.6666 19.9522 26.5302 20.0519 26.3957 20.0199C26.2477 19.9957 26.0803 19.9658 25.9284 19.9648C25.881 19.9609 25.8181 19.96 25.7717 19.9648C25.1505 19.9754 24.5178 20.2986 24.1985 20.8404C24.1347 20.9719 23.9373 20.8762 24.0041 20.7436V20.7426Z" fill="#FF2C50"/>
</svg>
