<svg width="45" height="42" viewBox="0 0 45 42" fill="none" xmlns="http://www.w3.org/2000/svg">
<ellipse cx="22.5" cy="21" rx="22.5" ry="21" fill="#5ABA97"/>
<path d="M39.7801 21.3129C39.4636 21.6819 38.8152 21.9303 39.0361 22.1094C39.263 22.2885 39.6894 22.869 39.484 23.0063C39.2833 23.1377 38.6981 23.7025 38.6766 23.7025C38.6551 23.7025 38.4497 24.056 38.4497 24.056C38.4497 24.056 39.4195 25.2264 39.0827 25.3375C38.7447 25.4533 38.8558 26.1496 38.6766 26.2391C38.4975 26.3287 38.888 27.2041 38.2969 27.0464C37.7057 26.8888 38.6074 27.7319 38.2754 27.9326C37.9374 28.1332 37.7905 29.3346 37.5529 29.177C37.4346 29.0958 37.1779 29.1507 36.9557 29.2223C36.7336 29.294 36.6022 29.5281 36.65 29.7598C36.7539 30.2637 36.8757 31.089 36.5724 31.1224C36.3909 31.1439 36.1616 31.1475 35.955 31.1451C35.6779 31.1403 35.4581 31.3756 35.4832 31.6514C35.5226 32.079 35.5298 32.5985 35.328 32.5352C35.1393 32.4791 34.8168 32.4874 34.5684 32.5053C34.369 32.5197 34.2006 32.6582 34.1504 32.8517C34.0692 33.1658 33.9379 33.6148 33.8304 33.6793C33.7313 33.7414 33.3778 33.813 33.1055 33.8608C32.9108 33.8954 32.758 34.0459 32.7257 34.2418C32.6887 34.4651 32.6206 34.7445 32.5012 34.8759C32.2803 35.1136 32.217 35.1972 31.9268 35.313C31.7763 35.3751 31.4718 35.3703 31.2198 35.3536C31.006 35.3393 30.8101 35.4706 30.7457 35.6749C30.7122 35.78 30.6644 35.8671 30.5976 35.8671C30.4292 35.8671 29.7747 36.727 29.5383 36.6422C29.3006 36.5574 28.2939 37.1115 28.1255 36.9957C27.9571 36.8799 27.6824 36.7951 27.6824 36.7951C27.6824 36.7951 26.3795 38.3297 25.9113 38.129C25.5781 37.9881 25.079 37.754 24.8102 37.6275C24.6908 37.5701 24.5571 37.5677 24.4341 37.6191C23.899 37.8448 22.417 38.4551 22.4564 38.3082C22.4982 38.129 22.0718 38.3297 21.8497 38.2186C21.6228 38.1075 21.4437 37.7015 21.4437 37.7015C21.4437 37.7015 20.1885 38.5088 19.872 38.3285C19.5615 38.1493 19.3131 37.7218 19.134 37.7015C18.9549 37.68 18.833 37.3373 18.833 37.3373C18.833 37.3373 18.5058 37.8114 18.1475 37.7015C17.7833 37.5904 17.2722 37.8806 17.0238 37.7015C16.7754 37.5224 16.3072 37.1844 16.1902 36.9157C16.0791 36.647 15.273 37.311 15.0246 36.9742C14.7762 36.6362 13.232 36.3998 13.533 35.9782C13.8339 35.5507 13.7229 35.2557 13.7229 35.2557C13.7229 35.2557 12.9741 35.7035 12.5262 35.4611C12.2707 35.3214 12.1691 34.9261 12.1297 34.606C12.0999 34.3719 11.8945 34.2024 11.658 34.2071C11.4705 34.2107 11.2687 34.1892 11.1445 34.1008C10.865 33.9002 10.158 33.7426 10.0792 33.5419C10.0004 33.3413 9.57285 32.8672 9.61465 32.6451C9.66242 32.4182 9.53583 31.6168 9.53583 31.6168C9.53583 31.6168 9.19308 32.202 8.85511 31.8963C8.62581 31.6921 8.53266 30.9588 8.49683 30.5097C8.48131 30.3103 8.3368 30.1455 8.14214 30.0977C8.01913 30.0679 7.91882 30.0225 7.9642 29.9604C8.06451 29.829 7.93792 29.2486 7.93792 29.2486C7.93792 29.2486 6.56693 29.792 6.58245 28.9536C6.59798 28.1105 6.09162 27.4346 6.19791 27.4346C6.30419 27.4346 6.24568 26.4589 6.38301 26.3275C6.51438 26.1902 6.49886 25.8534 6.49886 25.8534C6.49886 25.8534 5.23893 25.3685 5.35477 25.0305C5.43001 24.8132 5.73573 24.179 5.94473 23.7539C6.0534 23.533 5.971 23.2702 5.75962 23.146C5.45747 22.9693 5.09084 22.703 5.1195 22.4665C5.15175 22.2193 5.5136 21.8885 5.79186 21.6675C5.97458 21.5218 6.02116 21.2651 5.90054 21.0644C5.69632 20.7241 5.40254 20.2536 5.27595 20.1556C4.86035 19.8308 5.39776 18.9841 5.43837 18.8873C5.62347 18.4502 6.31375 18.381 6.31375 18.381C6.31375 18.381 5.67721 17.8352 5.8253 17.5187C5.94473 17.2655 5.95309 16.2731 6.20627 16.2731C6.45945 16.2731 6.82011 16.0283 6.82011 16.0283C6.82011 16.0283 6.34002 15.2329 6.48691 15.1171C6.63978 14.9953 6.7389 13.6721 7.0924 13.5347C7.44589 13.4034 8.1087 13.0057 8.21379 12.9734C8.31411 12.9364 8.41562 12.7489 8.41562 12.7489L8.47175 12.3333C8.47175 12.3333 6.63381 10.7748 7.87821 10.5694C8.37144 10.4894 8.79062 10.4739 9.11784 10.4822C9.4367 10.4906 9.6648 10.1801 9.56688 9.87674C9.46417 9.55668 9.44148 9.2199 9.7281 9.09331C10.1138 8.92254 10.7778 8.8688 11.2102 8.85208C11.443 8.84372 11.6329 8.66219 11.6532 8.43051C11.695 7.92534 11.8204 7.13714 12.1847 7.13714C12.3865 7.13714 12.6158 7.1873 12.8236 7.25059C13.1233 7.34135 13.4231 7.1025 13.4195 6.78961C13.4112 6.14472 13.4792 5.32427 13.8984 5.55595C14.1289 5.68374 14.3677 5.83063 14.5815 5.96916C14.8837 6.16383 15.2861 5.95364 15.2969 5.59417C15.316 4.90748 15.4366 4.1133 15.9191 4.41306C16.7264 4.91942 17.2005 4.78686 17.5015 4.91942C17.6328 4.97794 17.8 5.07587 17.9493 5.16782C18.1523 5.29322 18.4162 5.24664 18.5631 5.05795C18.839 4.70326 19.2857 4.21959 19.5902 4.34976C19.8219 4.44889 20.0273 4.61489 20.1766 4.757C20.3306 4.9039 20.5671 4.92062 20.745 4.80358C21.1152 4.56115 21.7136 4.20168 22.0468 4.18138C22.3083 4.16227 22.534 4.36529 22.6905 4.56473C22.8397 4.75581 23.1049 4.80716 23.3103 4.67818C23.7784 4.38679 24.5356 3.97597 24.8043 4.18138C24.9894 4.31871 25.1745 4.55398 25.3226 4.77133C25.4408 4.94569 25.6677 5.03646 25.86 4.95047C25.9734 4.89912 26.1406 4.87643 26.3867 4.92062C26.8787 5.01138 27.2059 5.35293 27.3719 5.57506C27.4639 5.69807 27.6119 5.76137 27.7648 5.75181C28.1864 5.72434 28.9913 5.68254 29.2803 5.72793C29.6864 5.796 30.3241 5.62761 30.3611 5.86526C30.3766 5.97752 30.4065 6.26414 30.434 6.53524C30.4638 6.83141 30.7588 7.0213 31.0418 6.93053C31.4383 6.80275 31.9065 6.68571 31.9065 6.83977C31.9065 7.10848 31.8061 7.71515 32.1441 7.71515C32.4821 7.71515 33.7265 7.57781 33.4888 7.78323C33.2512 7.98386 33.078 8.85924 33.5211 8.85924C33.9641 8.85924 34.7022 8.7219 34.6341 9.0969C34.5863 9.35366 34.6078 9.95437 34.6246 10.2947C34.6329 10.4476 34.7129 10.5849 34.8431 10.6661C35.1047 10.8297 35.5298 11.1116 35.5776 11.2489C35.611 11.3469 35.6445 11.5105 35.6707 11.6514C35.7006 11.8138 35.8104 11.9476 35.9657 12.0037C36.3586 12.1482 37.0823 12.4587 37.1432 12.8146C37.1946 13.112 37.1313 13.5192 37.0728 13.7927C37.0346 13.9742 37.105 14.1581 37.2555 14.2668C37.6054 14.5212 38.187 14.9917 38.15 15.2879C38.1321 15.4455 38.0783 15.5888 38.0186 15.7071C37.9183 15.9041 37.9541 16.1394 38.1201 16.2851C38.3649 16.4976 38.6623 16.795 38.6719 16.9861C38.6814 17.1796 38.5704 17.5104 38.476 17.7516C38.4103 17.9188 38.4414 18.1099 38.5668 18.2377C38.7423 18.4168 38.9848 18.7321 39.1412 19.2169C39.2367 19.5048 39.2093 19.7197 39.1316 19.8786C39.0206 20.109 39.1508 20.3778 39.386 20.4793C39.5449 20.5485 39.6619 20.6309 39.6368 20.7193C39.5687 20.9677 40.0847 20.9402 39.7742 21.3152L39.7801 21.3129Z" fill="#F5FFFF"/>
<path d="M19.989 38.4712C19.9209 38.4712 19.8624 38.4592 19.8146 38.433C19.6474 38.3362 19.5041 38.1834 19.3775 38.0484C19.2951 37.96 19.1697 37.8263 19.122 37.8203C18.9787 37.8036 18.8736 37.6746 18.8055 37.5576C18.6586 37.7081 18.4018 37.9039 18.114 37.8155C17.9707 37.7726 17.7832 37.806 17.6017 37.8382C17.3688 37.88 17.1276 37.923 16.9556 37.7988C16.5938 37.5373 16.2068 37.2411 16.085 36.97C16.0313 36.9617 15.8641 37.0238 15.7626 37.0608C15.4759 37.1671 15.1177 37.2996 14.9314 37.0453C14.8525 36.9378 14.5397 36.8172 14.2626 36.7097C13.8315 36.5425 13.4589 36.3992 13.3884 36.1627C13.3705 36.103 13.3645 36.011 13.4374 35.9083C13.5759 35.7113 13.6165 35.5501 13.6237 35.4426C13.3621 35.568 12.8402 35.7662 12.47 35.5656C12.2276 35.433 12.0735 35.1154 12.0114 34.6209C11.9899 34.449 11.8359 34.3236 11.6615 34.326C11.4 34.3307 11.2029 34.2877 11.0763 34.197C10.97 34.1205 10.7826 34.0465 10.601 33.9737C10.2977 33.853 10.035 33.7491 9.97046 33.5843C9.94777 33.5258 9.87492 33.4195 9.80566 33.3168C9.63727 33.0696 9.4641 32.814 9.50113 32.6218C9.52501 32.5095 9.49635 32.1906 9.46052 31.9088C9.37334 31.996 9.25869 32.0784 9.12733 32.0975C9.00312 32.1166 8.88251 32.0772 8.77861 31.9828C8.57917 31.8049 8.44541 31.3117 8.38092 30.5175C8.36898 30.3706 8.26269 30.2476 8.11699 30.2118C7.95577 30.1724 7.87576 30.121 7.84709 30.0422C7.82799 29.9908 7.83754 29.9347 7.87217 29.8881C7.90083 29.8392 7.89009 29.6302 7.85187 29.4057C7.58316 29.494 7.00276 29.6457 6.6827 29.4236C6.58239 29.3543 6.46296 29.2146 6.46774 28.9483C6.47729 28.4192 6.2671 27.9487 6.15365 27.6955C6.07483 27.5187 6.04139 27.4459 6.09036 27.3719C6.09991 27.3575 6.11066 27.3456 6.1238 27.336C6.13932 27.2668 6.15007 27.0972 6.15843 26.9682C6.1847 26.5407 6.20859 26.3293 6.30413 26.2373C6.35787 26.1812 6.37936 26.0355 6.38295 25.9304C5.94227 25.7548 5.11466 25.3667 5.24483 24.9869C5.32007 24.7696 5.61027 24.1653 5.83956 23.6972C5.92077 23.5324 5.86106 23.3389 5.70103 23.2457C5.20184 22.9543 4.97374 22.6928 5.0024 22.4492C5.03225 22.2199 5.27349 21.9249 5.71895 21.5702C5.85628 21.4615 5.88972 21.2728 5.80015 21.1224C5.37022 20.4046 5.23528 20.2697 5.20422 20.2458C4.75997 19.8983 5.1684 19.1411 5.30215 18.8927C5.31648 18.8664 5.32723 18.8473 5.33201 18.8366C5.46815 18.5141 5.82523 18.3684 6.06647 18.3039C5.86345 18.0938 5.59116 17.7414 5.72014 17.4644C5.75597 17.3891 5.78463 17.1993 5.8121 17.0165C5.88017 16.5711 5.94466 16.1507 6.20978 16.1507C6.34473 16.1507 6.53581 16.0576 6.66121 15.9859C6.20023 15.1917 6.36264 15.0639 6.41639 15.021C6.44624 14.9803 6.50237 14.7331 6.54417 14.5516C6.68031 13.9533 6.79616 13.521 7.05292 13.4219C7.25952 13.3442 7.58794 13.1675 7.82799 13.0373C8.0322 12.9262 8.13252 12.8725 8.18387 12.8582C8.20417 12.8498 8.26269 12.7794 8.30449 12.7089L8.34868 12.3805C8.10266 12.1643 7.20339 11.3319 7.3467 10.8136C7.40044 10.6213 7.57361 10.4983 7.86262 10.4506C8.29613 10.3813 8.72009 10.3514 9.12494 10.3622C9.24078 10.3658 9.33871 10.3156 9.40559 10.2272C9.47366 10.1365 9.49277 10.0218 9.45813 9.91316C9.26586 9.31365 9.47485 9.07719 9.68504 8.98403C10.0791 8.80967 10.7324 8.75116 11.2113 8.73324C11.3845 8.72608 11.5254 8.59232 11.5397 8.42035C11.6173 7.49003 11.8371 7.0183 12.1906 7.0183C12.3781 7.0183 12.6038 7.05771 12.8641 7.13653C12.9668 7.16758 13.0755 7.14728 13.1627 7.0816C13.2546 7.01353 13.3072 6.90366 13.306 6.7902C13.2917 5.63298 13.5365 5.48608 13.6165 5.43831C13.687 5.39652 13.804 5.36427 13.9616 5.45026C14.167 5.5649 14.3999 5.70463 14.6519 5.86705C14.7582 5.93512 14.8884 5.94109 14.9994 5.88138C15.1105 5.82286 15.1786 5.71299 15.1822 5.58879C15.2025 4.82805 15.3291 4.39574 15.5691 4.26676C15.6539 4.22138 15.796 4.19152 15.9859 4.30856C16.509 4.63697 16.8887 4.68594 17.167 4.72177C17.3139 4.74087 17.4393 4.75759 17.5527 4.80656C17.6698 4.8591 17.825 4.94509 18.0149 5.06213C18.1666 5.15528 18.3624 5.12064 18.4711 4.98092C18.9524 4.3611 19.3453 4.11151 19.6391 4.2369C19.8445 4.32528 20.0547 4.46978 20.2613 4.66802C20.3747 4.7767 20.5479 4.78984 20.6817 4.70146C21.1092 4.42082 21.692 4.08165 22.0407 4.05896C22.2939 4.03985 22.5519 4.18913 22.7859 4.48769C22.8982 4.631 23.0976 4.66802 23.2481 4.57368C24.4985 3.79384 24.7839 4.01119 24.8782 4.08284C25.0431 4.20466 25.227 4.41365 25.4228 4.70027C25.516 4.83641 25.6832 4.89613 25.8122 4.83761C25.9662 4.76834 26.1668 4.7552 26.4081 4.7982C26.9491 4.89732 27.3038 5.27948 27.4686 5.49803C27.5343 5.5864 27.6429 5.63417 27.7588 5.62701C28.2066 5.59834 29.002 5.55774 29.3005 5.60431C29.4415 5.6282 29.617 5.62103 29.7866 5.61387C30.1234 5.60073 30.4422 5.5876 30.4817 5.84078C30.4948 5.9387 30.5199 6.16561 30.5557 6.51672C30.5664 6.62062 30.6226 6.71377 30.7098 6.77109C30.7981 6.82842 30.9068 6.84394 31.0083 6.8105C31.689 6.59196 31.8682 6.62659 31.9542 6.68869C32.0019 6.72332 32.0282 6.77468 32.0282 6.83439C32.0282 6.88216 32.0258 6.93829 32.0222 7.00158C32.0127 7.17953 31.9972 7.47689 32.0831 7.56646C32.0939 7.5784 32.1106 7.59035 32.1464 7.59035C32.2253 7.59035 32.3602 7.58199 32.5167 7.57243C33.3383 7.52347 33.57 7.53064 33.6297 7.67753C33.6428 7.70858 33.6619 7.78859 33.57 7.86861C33.435 7.98325 33.3156 8.42154 33.3944 8.63531C33.4267 8.72249 33.4756 8.73444 33.5234 8.73444C33.6106 8.73444 33.7109 8.72847 33.8172 8.72249C34.1874 8.70219 34.5373 8.68189 34.6902 8.85506C34.732 8.90163 34.7762 8.98523 34.7535 9.11182C34.72 9.29215 34.7176 9.7185 34.7463 10.2822C34.7523 10.3968 34.8108 10.4971 34.9087 10.5581C35.6241 11.0035 35.6742 11.1492 35.6933 11.2029C35.7232 11.2913 35.7566 11.4322 35.7913 11.6221C35.8128 11.7439 35.8952 11.8419 36.0098 11.8837C36.5448 12.0795 37.1969 12.396 37.2638 12.7865C37.3175 13.0994 37.2554 13.5162 37.1933 13.81C37.1647 13.9461 37.216 14.0811 37.3295 14.1623C37.9899 14.6412 38.3064 15.0221 38.2729 15.2944C38.2562 15.4449 38.2084 15.6002 38.1296 15.753C38.052 15.9059 38.0818 16.0802 38.2037 16.1865C38.7829 16.6905 38.7924 16.9031 38.796 16.9724C38.8044 17.1443 38.7363 17.419 38.5918 17.7868C38.5416 17.9134 38.5679 18.0555 38.6575 18.1463C38.8414 18.335 39.0958 18.6658 39.2594 19.1722C39.3537 19.4552 39.3477 19.7084 39.2438 19.9221C39.1997 20.0129 39.2152 20.0965 39.2355 20.1514C39.2701 20.2446 39.3442 20.321 39.4385 20.3616C39.5317 20.4022 39.8171 20.5264 39.7574 20.7438C39.7526 20.7617 39.7502 20.7689 39.8302 20.8322C39.8959 20.8835 39.9855 20.954 39.9986 21.0746C40.0082 21.1701 39.9688 21.2693 39.872 21.3851H39.8708C39.7371 21.5427 39.5567 21.6729 39.3967 21.7876C39.2988 21.858 39.1543 21.9619 39.1184 22.0169C39.3179 22.1817 39.6702 22.6199 39.6594 22.8994C39.6559 22.9854 39.6176 23.057 39.552 23.1012C39.4349 23.1777 39.1591 23.4285 38.9775 23.5945C38.8497 23.7103 38.7888 23.7664 38.7518 23.7927C38.7255 23.8273 38.6599 23.9336 38.5978 24.0399C38.8629 24.3659 39.3477 25.0156 39.2653 25.2986C39.245 25.3703 39.1937 25.4228 39.122 25.4455C38.9942 25.4897 38.9572 25.713 38.9238 25.9101C38.8927 26.0964 38.8641 26.2588 38.7506 26.3305C38.7411 26.3699 38.7482 26.4738 38.753 26.5442C38.7673 26.7508 38.7841 26.9861 38.6336 27.1103C38.5464 27.182 38.4234 27.1975 38.267 27.1557C38.2514 27.1521 38.2383 27.1485 38.2275 27.1461C38.2478 27.1975 38.2837 27.268 38.3111 27.3205C38.4306 27.5546 38.5942 27.8746 38.3398 28.0287C38.212 28.1051 38.089 28.4491 37.9994 28.7011C37.8752 29.0486 37.7988 29.248 37.6567 29.2958C37.6006 29.3149 37.5408 29.3053 37.4883 29.2707C37.4417 29.2385 37.2853 29.2361 36.9939 29.3304C36.8291 29.3842 36.7323 29.5561 36.7682 29.7305C36.9939 30.8292 36.8339 31.0477 36.7813 31.1194C36.7323 31.1863 36.6643 31.2269 36.5866 31.2352C36.4266 31.2544 36.214 31.2627 35.9537 31.2579C35.8558 31.2555 35.7614 31.2962 35.6933 31.369C35.6265 31.4418 35.5942 31.5362 35.6038 31.6341C35.6695 32.3614 35.5763 32.537 35.4879 32.6086C35.433 32.6528 35.3637 32.6648 35.2933 32.6433C35.1595 32.6039 34.9051 32.5955 34.5779 32.6194C34.4286 32.6301 34.3044 32.734 34.2674 32.8761C34.062 33.6751 33.9474 33.7432 33.8924 33.7766C33.8602 33.7969 33.7551 33.8626 33.1269 33.9737C32.9812 33.9987 32.8678 34.1134 32.8439 34.2567C32.7877 34.5947 32.703 34.8287 32.5907 34.9517L32.5417 35.0043C32.3518 35.2085 32.2647 35.3028 31.9721 35.4199C31.8323 35.4772 31.5768 35.4939 31.2125 35.4688C31.0513 35.4581 30.908 35.556 30.8602 35.7065C30.8041 35.8833 30.7193 35.9764 30.6082 35.9812C30.5521 36.0039 30.3957 36.1567 30.2798 36.2678C29.9227 36.6141 29.6923 36.8183 29.4976 36.7503C29.4164 36.724 29.0653 36.8566 28.8551 36.9354C28.4204 37.0978 28.1875 37.179 28.0573 37.0894C27.9558 37.0202 27.8077 36.9617 27.7206 36.9294C27.4041 37.2937 26.3543 38.4437 25.8635 38.2347C25.5291 38.0938 25.0275 37.8585 24.7588 37.7308C24.6705 37.689 24.5713 37.6866 24.4806 37.7248C22.5351 38.5428 22.4539 38.4724 22.3823 38.4103C22.362 38.3924 22.3488 38.3709 22.3417 38.3458C22.3106 38.347 22.2724 38.3518 22.2402 38.3553C22.1028 38.3709 21.932 38.3888 21.7971 38.3219C21.618 38.2347 21.4746 38.0126 21.397 37.8693C21.0602 38.0783 20.3795 38.4676 19.989 38.4676V38.4712ZM22.5757 38.3291C22.5757 38.3291 22.5757 38.3338 22.5745 38.335C22.5745 38.3327 22.5745 38.3303 22.5757 38.3291ZM18.87 37.0787L18.9488 37.2972C18.9942 37.4262 19.0909 37.5755 19.1506 37.5827C19.2856 37.5982 19.4038 37.7248 19.5531 37.8848C19.6678 38.0078 19.7979 38.1475 19.9341 38.2252C20.0857 38.3112 20.8047 37.9708 21.3815 37.6006L21.4985 37.5253L21.5547 37.6531C21.6 37.7546 21.7505 38.0365 21.9034 38.1105C21.9762 38.1475 22.1088 38.1332 22.2151 38.1213C22.3512 38.1069 22.4683 38.0938 22.5387 38.1738C22.5447 38.181 22.5519 38.1893 22.5578 38.2013C22.7656 38.1547 23.3723 37.9362 24.3886 37.5086C24.5427 37.4441 24.7111 37.4477 24.8615 37.5194C25.129 37.646 25.6258 37.8788 25.9578 38.0186C26.1967 38.1201 26.9933 37.4226 27.5916 36.7168L27.6429 36.6571L27.7182 36.6798C27.7301 36.6834 28.0048 36.7682 28.1863 36.8912C28.2675 36.9043 28.5709 36.7909 28.7727 36.7156C29.174 36.5652 29.4283 36.4756 29.5788 36.5293C29.5788 36.5293 29.58 36.5293 29.5812 36.5293C29.672 36.5293 29.9705 36.2403 30.115 36.1006C30.3503 35.8725 30.4733 35.7579 30.5832 35.7483C30.5915 35.7376 30.6118 35.7089 30.6333 35.6384C30.7145 35.3817 30.9594 35.2157 31.2293 35.2348C31.658 35.2634 31.8228 35.2276 31.8825 35.2025C32.1261 35.1046 32.187 35.0401 32.3662 34.8466L32.4151 34.7941C32.4928 34.7081 32.562 34.5051 32.6086 34.2221C32.6492 33.9784 32.8403 33.7862 33.0851 33.7432C33.6392 33.6452 33.7503 33.5879 33.767 33.5784C33.7694 33.576 33.8638 33.4888 34.0357 32.8224C34.0978 32.58 34.3092 32.4044 34.56 32.3865C34.9123 32.3602 35.1762 32.3698 35.3446 32.4152C35.3661 32.371 35.4139 32.2062 35.3649 31.6616C35.3494 31.4968 35.4055 31.3332 35.5178 31.2126C35.6301 31.0907 35.7937 31.0203 35.9573 31.0251C36.2057 31.0286 36.4087 31.0215 36.5592 31.0036C36.5663 31.0036 36.5759 31.0012 36.5878 30.9845C36.6607 30.8853 36.6846 30.5175 36.5329 29.7842C36.472 29.4904 36.638 29.2002 36.9186 29.1095C37.2339 29.0068 37.4537 28.9913 37.5898 29.0605C37.6436 28.9913 37.72 28.7751 37.7725 28.627C37.8908 28.2938 38.0126 27.9499 38.2144 27.8304C38.2777 27.7922 38.1595 27.5605 38.0962 27.4363C37.9971 27.2429 37.9194 27.0912 38.0114 26.9778C38.0986 26.8703 38.2646 26.9157 38.3279 26.9324C38.4019 26.9527 38.4568 26.9527 38.4807 26.9324C38.5368 26.887 38.5225 26.6947 38.5142 26.5681C38.501 26.3794 38.4879 26.2015 38.624 26.1334C38.6467 26.1095 38.6706 25.9686 38.6861 25.8767C38.7279 25.6294 38.7793 25.3225 39.036 25.2282C39.0516 25.098 38.7423 24.5964 38.3589 24.1331L38.3052 24.0686L38.347 23.9969C38.5285 23.684 38.5822 23.6088 38.63 23.5897C38.6658 23.5598 38.7435 23.4882 38.8151 23.4237C39.0146 23.2421 39.2868 22.9937 39.4182 22.9078C39.46 22.8254 39.1949 22.3895 38.962 22.2043C38.8844 22.1422 38.87 22.0718 38.8712 22.0252C38.876 21.8735 39.0349 21.7589 39.2558 21.6001C39.4039 21.4926 39.5723 21.372 39.6881 21.2382C39.761 21.151 39.761 21.1128 39.7598 21.1056C39.7574 21.0853 39.7156 21.0531 39.6821 21.0268C39.6069 20.9683 39.4827 20.8704 39.5233 20.6996C39.5126 20.6853 39.4731 20.6447 39.343 20.5885C39.1889 20.5217 39.0683 20.3951 39.011 20.2422C38.9596 20.1037 38.9656 19.9556 39.0289 19.8266C39.1053 19.6702 39.1065 19.4779 39.0325 19.2546C38.8832 18.7912 38.6527 18.4914 38.4867 18.3219C38.3314 18.1642 38.2861 17.923 38.3697 17.7092C38.4974 17.382 38.5643 17.1276 38.5572 16.9927C38.5524 16.9055 38.4162 16.6977 38.046 16.3752C37.843 16.1985 37.7904 15.9023 37.917 15.6539C37.9815 15.5261 38.0221 15.3995 38.0353 15.2753C38.0508 15.1487 37.8382 14.8358 37.1897 14.3641C37.0022 14.228 36.9127 13.9951 36.9604 13.7682C37.0178 13.4947 37.0775 13.1102 37.0297 12.8355C36.9939 12.6277 36.5723 12.353 35.9286 12.1165C35.734 12.0449 35.5942 11.8789 35.5572 11.6735C35.525 11.4967 35.4951 11.3642 35.4688 11.2877C35.4497 11.2412 35.2849 11.0799 34.7845 10.7682C34.6221 10.6667 34.5194 10.4924 34.5098 10.3025C34.4884 9.8845 34.4728 9.33395 34.5206 9.07719C34.5278 9.03778 34.5182 9.02703 34.5134 9.02106C34.437 8.93507 34.074 8.95537 33.8327 8.96851C33.7228 8.97448 33.6189 8.98045 33.5246 8.98045C33.3574 8.98045 33.232 8.88969 33.1711 8.72488C33.072 8.45498 33.1711 8.02386 33.3275 7.79456C33.1269 7.78262 32.7412 7.80531 32.5322 7.81725C32.3721 7.82681 32.2336 7.83517 32.1476 7.83517C32.0533 7.83517 31.9721 7.80173 31.9112 7.73724C31.7559 7.57363 31.7714 7.25238 31.7858 6.99561C31.7882 6.9562 31.7894 6.92037 31.7906 6.88694C31.7285 6.88216 31.5481 6.8953 31.0836 7.04458C30.914 7.09951 30.7301 7.07443 30.582 6.9777C30.4339 6.88096 30.3383 6.72452 30.3204 6.54777C30.2858 6.20263 30.2607 5.97214 30.2476 5.88138C30.2082 5.84197 29.9514 5.85272 29.7985 5.85869C29.617 5.86585 29.4283 5.87421 29.2647 5.84555C29.0641 5.81331 28.5219 5.82286 27.7767 5.87063C27.5796 5.88377 27.3945 5.79898 27.2799 5.64611C27.1366 5.45503 26.8285 5.12303 26.3687 5.03824C26.1752 5.00361 26.0223 5.01077 25.9125 5.05974C25.6748 5.16603 25.387 5.07287 25.227 4.8388C25.049 4.57726 24.8794 4.38379 24.7361 4.27751C24.6143 4.18555 24.1951 4.26915 23.3759 4.78028C23.1203 4.93912 22.7859 4.87821 22.5984 4.63936C22.4706 4.47695 22.276 4.28467 22.0574 4.30139C21.8281 4.31572 21.3755 4.53546 20.813 4.90449C20.5849 5.05377 20.29 5.02988 20.0965 4.84477C19.9126 4.66922 19.7227 4.53666 19.5447 4.46142C19.3752 4.38977 19.0372 4.64653 18.6586 5.13259C18.4747 5.36905 18.1439 5.42876 17.8883 5.27112C17.708 5.15886 17.5611 5.07885 17.4548 5.02988C17.3736 4.99405 17.2685 4.98092 17.1348 4.963C16.835 4.92479 16.4254 4.87105 15.8581 4.51516C15.7458 4.44589 15.6969 4.47217 15.6802 4.48053C15.6252 4.51038 15.4437 4.67877 15.4186 5.59954C15.4126 5.81211 15.2968 5.99722 15.1081 6.09754C14.9194 6.19666 14.6985 6.1883 14.5194 6.07246C14.2721 5.91243 14.044 5.77509 13.8434 5.66403C13.7729 5.62581 13.7467 5.64134 13.7359 5.64731C13.7013 5.66761 13.5293 5.82047 13.5413 6.7914C13.5437 6.98128 13.4541 7.16281 13.3024 7.27626C13.1531 7.38852 12.9668 7.42196 12.7913 7.36822C12.5548 7.29656 12.3518 7.25954 12.187 7.25954C11.9959 7.25954 11.8347 7.7241 11.7738 8.44304C11.7499 8.73444 11.5098 8.96373 11.2173 8.97448C10.57 8.99956 10.0588 9.08077 9.77819 9.20497C9.60264 9.2826 9.57039 9.49756 9.68146 9.8427C9.73997 10.023 9.70654 10.2225 9.59308 10.3741C9.47843 10.5258 9.31005 10.6118 9.11538 10.6046C8.72486 10.5939 8.31643 10.6225 7.89845 10.6894C7.70975 10.7205 7.59988 10.785 7.57361 10.8805C7.48643 11.197 8.12535 11.8849 8.54931 12.2443L8.59947 12.2861L8.5314 12.7877L8.52065 12.8068C8.49199 12.8606 8.38689 13.0373 8.25553 13.0863C8.21612 13.0994 8.06803 13.1794 7.93786 13.2499C7.6787 13.3896 7.35506 13.5652 7.13413 13.6476C6.97768 13.7085 6.84393 14.2925 6.77347 14.6065C6.69703 14.9421 6.65404 15.1177 6.57761 15.1953C6.57164 15.2932 6.72808 15.6443 6.92155 15.9656L6.98007 16.0623L6.88572 16.1256C6.84631 16.1531 6.48685 16.3908 6.205 16.3908C6.13813 16.4373 6.07483 16.8541 6.04378 17.0548C6.01034 17.2721 5.98168 17.4608 5.93152 17.5683C5.85628 17.7271 6.16082 18.0926 6.39011 18.2884L6.60149 18.4699L6.32443 18.4986C6.31846 18.4986 5.70223 18.5667 5.54697 18.9321C5.541 18.9452 5.52787 18.9715 5.50756 19.0085C5.21139 19.5579 5.15765 19.9114 5.34753 20.0607C5.38814 20.0929 5.51473 20.1908 6.00079 21.0017C6.15126 21.2525 6.09274 21.5786 5.86345 21.7601C5.48487 22.061 5.25558 22.3238 5.23528 22.4814C5.22333 22.5805 5.37022 22.7812 5.81687 23.0427C6.08558 23.2003 6.1859 23.5288 6.04856 23.8058C5.7273 24.4591 5.51951 24.9069 5.46457 25.0682C5.42874 25.1721 5.90047 25.4945 6.5382 25.7405L6.61105 25.768L6.61463 25.8456C6.61702 25.885 6.62777 26.2397 6.46535 26.4081C6.42116 26.4702 6.40086 26.8046 6.38892 26.9849C6.37339 27.2381 6.36264 27.4017 6.31368 27.4853C6.32682 27.5176 6.34592 27.5594 6.36384 27.5988C6.48446 27.8687 6.70898 28.3702 6.69823 28.953C6.69584 29.0832 6.73286 29.1728 6.81049 29.2277C7.06247 29.4021 7.69065 29.2146 7.89009 29.1358L8.02026 29.0844L8.05012 29.2217C8.08594 29.3877 8.15521 29.7603 8.09191 29.9574C8.10983 29.9634 8.13371 29.9717 8.16715 29.9801C8.41317 30.041 8.5923 30.2488 8.61261 30.4984C8.66754 31.1875 8.78697 31.6759 8.93147 31.8049C8.99835 31.8658 9.0497 31.8658 9.08314 31.861C9.23003 31.8383 9.38648 31.627 9.42828 31.5541L9.59786 31.2675L9.64921 31.5959C9.66235 31.6807 9.77819 32.4259 9.72684 32.6671C9.70892 32.7603 9.88806 33.023 9.99554 33.1807C10.0803 33.3049 10.1532 33.4124 10.1854 33.4948C10.2141 33.564 10.5067 33.6799 10.6822 33.7491C10.8781 33.8268 11.0799 33.9068 11.2089 33.9999C11.2662 34.0405 11.388 34.0895 11.6508 34.0847C11.6544 34.0847 11.6591 34.0847 11.6627 34.0847C11.9589 34.0847 12.2061 34.2997 12.2431 34.5887C12.2933 34.9911 12.4127 35.2622 12.5787 35.353C12.8976 35.525 13.4648 35.2646 13.6571 35.15L13.7801 35.0759L13.8303 35.2097C13.835 35.224 13.9592 35.5692 13.6261 36.0433C13.6046 36.0731 13.6093 36.0851 13.6105 36.0911C13.6476 36.2153 14.0655 36.3765 14.3414 36.484C14.6925 36.6201 14.9959 36.7371 15.1165 36.9007C15.1977 37.0106 15.4604 36.9127 15.673 36.8339C15.9202 36.7419 16.202 36.638 16.2964 36.8673C16.3979 37.1014 16.8589 37.4358 17.081 37.5958C17.1789 37.6675 17.3605 37.634 17.5527 37.6006C17.7522 37.5648 17.9779 37.5241 18.1773 37.5851C18.4436 37.6675 18.7267 37.2722 18.7303 37.2674L18.8628 37.0763L18.87 37.0787Z" fill="#EFEDEE"/>
<path d="M13.0398 13.4076C12.7711 13.4076 12.5059 13.3037 12.3077 13.1055L11.8587 12.6564C11.8121 12.6099 11.8121 12.5346 11.8587 12.4881C11.9052 12.4415 11.9805 12.4415 12.0271 12.4881L12.4761 12.9371C12.7149 13.1759 13.0804 13.238 13.3837 13.0912L13.7408 12.9192C13.8005 12.8905 13.8722 12.9156 13.8996 12.9753C13.9283 13.035 13.9032 13.1067 13.8435 13.1341L13.4864 13.3061C13.3431 13.3754 13.1902 13.4088 13.0386 13.4088L13.0398 13.4076Z" fill="#EFEDEE"/>
<path d="M12.1454 19.1055C12.131 19.1055 12.1167 19.1055 12.1024 19.1055L11.467 19.0792C11.4013 19.0768 11.35 19.0207 11.3524 18.955C11.3548 18.8893 11.4097 18.8368 11.4766 18.8403L12.1119 18.8666C12.4463 18.8797 12.7592 18.6791 12.8834 18.365L13.0291 17.996C13.053 17.9351 13.1234 17.9052 13.1844 17.9291C13.2453 17.953 13.2751 18.0223 13.2512 18.0844L13.1055 18.4534C12.9491 18.8487 12.5657 19.1067 12.1442 19.1067L12.1454 19.1055Z" fill="#EFEDEE"/>
<path d="M10.0671 27.0802C10.0217 27.0802 9.97874 27.0539 9.95844 27.0109C9.93097 26.9512 9.95844 26.8795 10.0182 26.8533L10.5962 26.5893C10.9031 26.4496 11.0894 26.1295 11.0583 25.7928L11.0225 25.3975C11.0165 25.3318 11.0643 25.2733 11.13 25.2673C11.1957 25.2601 11.2542 25.3091 11.2602 25.3748L11.296 25.7701C11.3366 26.2072 11.0954 26.624 10.6953 26.8055L10.1173 27.0694C10.1017 27.0766 10.0838 27.0802 10.0683 27.0802H10.0671Z" fill="#EFEDEE"/>
<path d="M18.4984 9.79696C18.4423 9.79696 18.3921 9.75635 18.3814 9.69903C18.3694 9.63454 18.4124 9.57244 18.4769 9.5593L19.1015 9.44227C19.4335 9.38017 19.6915 9.11504 19.7416 8.78065L19.8013 8.38775C19.8109 8.32206 19.8706 8.27788 19.9375 8.28743C20.0032 8.29698 20.0474 8.35789 20.0378 8.42357L19.9781 8.81648C19.9112 9.24999 19.5768 9.59632 19.1457 9.67634L18.5211 9.79338C18.5139 9.79457 18.5068 9.79576 18.4996 9.79576L18.4984 9.79696Z" fill="#EFEDEE"/>
<path d="M26.1537 7.3115C25.9972 7.3115 25.8396 7.27568 25.6939 7.20402L25.1242 6.92098C25.0657 6.89113 25.0406 6.81947 25.0705 6.76096C25.1004 6.70244 25.1708 6.67855 25.2305 6.70721L25.8002 6.99025C26.1023 7.14073 26.4678 7.0834 26.7102 6.84694L26.9944 6.56988C27.0422 6.52449 27.1174 6.52449 27.1628 6.57226C27.2094 6.62003 27.2082 6.69527 27.1604 6.74065L26.8762 7.01772C26.6792 7.20999 26.4176 7.3115 26.1537 7.3115Z" fill="#EFEDEE"/>
<path d="M29.5622 12.0132C29.2636 12.0132 28.9722 11.8842 28.7716 11.6465L28.3607 11.1605C28.3178 11.1103 28.3249 11.0351 28.3751 10.9921C28.4252 10.9491 28.5005 10.9563 28.5435 11.0064L28.9543 11.4925C29.1716 11.7504 29.5299 11.8424 29.8464 11.7218L30.2166 11.5797C30.2787 11.5558 30.3468 11.5868 30.3707 11.6489C30.3946 11.711 30.3635 11.7791 30.3014 11.803L29.9312 11.9451C29.8106 11.9905 29.6864 12.0132 29.5622 12.0132Z" fill="#EFEDEE"/>
<path d="M35.0019 18.3563C34.9816 18.3563 34.9601 18.3503 34.941 18.3396L34.6006 18.1354C34.2244 17.9097 34.031 17.469 34.1206 17.0391L34.2495 16.4169C34.2627 16.3524 34.326 16.3106 34.3904 16.3237C34.4549 16.3368 34.4967 16.4001 34.4836 16.4646L34.3546 17.0868C34.2865 17.4176 34.4346 17.7568 34.7236 17.93L35.064 18.1342C35.1201 18.1676 35.1392 18.2417 35.1046 18.2978C35.0819 18.3348 35.0425 18.3563 35.0019 18.3563Z" fill="#EFEDEE"/>
<path d="M30.0017 21.3588C29.733 21.3588 29.4679 21.2549 29.2696 21.0567L28.8206 20.6076C28.774 20.561 28.774 20.4858 28.8206 20.4392C28.8672 20.3927 28.9424 20.3927 28.989 20.4392L29.438 20.8883C29.6769 21.1271 30.0411 21.1892 30.3456 21.0423L30.7027 20.8704C30.7624 20.8417 30.8341 20.8668 30.8615 20.9265C30.8902 20.9862 30.8651 21.0578 30.8054 21.0853L30.4483 21.2573C30.305 21.3266 30.1522 21.36 30.0005 21.36L30.0017 21.3588Z" fill="#EFEDEE"/>
<path d="M22.7393 16.1929C22.6127 16.1929 22.4861 16.1702 22.3643 16.1225L21.7719 15.8908C21.711 15.8669 21.68 15.7976 21.7039 15.7355C21.7278 15.6734 21.797 15.6436 21.8579 15.6675L22.4503 15.8991C22.7656 16.0222 23.1238 15.9326 23.3436 15.6758L23.6015 15.3749C23.6445 15.3247 23.7198 15.3187 23.7699 15.3617C23.8201 15.4047 23.826 15.48 23.7831 15.5301L23.5251 15.8311C23.3245 16.0651 23.0355 16.1917 22.7393 16.1917V16.1929Z" fill="#EFEDEE"/>
<path d="M16.7608 22.5955C16.7333 22.5955 16.7059 22.586 16.6832 22.5669C16.633 22.5239 16.6271 22.4487 16.6689 22.3985L17.0809 21.9136C17.2994 21.6557 17.3317 21.2878 17.1609 20.9964L16.9602 20.6537C16.9268 20.5964 16.9459 20.5235 17.0032 20.4901C17.0594 20.4566 17.1334 20.4758 17.1669 20.5331L17.3675 20.8758C17.5896 21.2544 17.5478 21.7333 17.2636 22.0689L16.8516 22.5537C16.8277 22.5812 16.7942 22.5955 16.7608 22.5955Z" fill="#EFEDEE"/>
<path d="M21.576 24.6345C21.17 24.6345 20.7974 24.3956 20.6302 24.0194L20.3722 23.4378C20.3459 23.3781 20.3722 23.3065 20.4331 23.2802C20.494 23.2527 20.5645 23.2802 20.5908 23.3411L20.8487 23.9227C20.9861 24.2308 21.3025 24.4195 21.6405 24.3932L22.0358 24.361C22.1003 24.355 22.1588 24.4052 22.1648 24.4709C22.1696 24.5365 22.1206 24.5939 22.0549 24.5998L21.6596 24.6321C21.6309 24.6345 21.6035 24.6357 21.576 24.6357V24.6345Z" fill="#EFEDEE"/>
<path d="M20.1837 31.4867C20.1395 31.4867 20.0965 31.4616 20.0762 31.4186L19.9043 31.0616C19.7132 30.6663 19.7944 30.1922 20.1049 29.8816L20.5539 29.4314C20.6005 29.3848 20.6757 29.3848 20.7223 29.4314C20.7689 29.478 20.7689 29.5532 20.7223 29.5998L20.2733 30.05C20.0344 30.2889 19.9723 30.6531 20.1192 30.9577L20.2912 31.3147C20.3199 31.3745 20.2948 31.4461 20.2351 31.4736C20.2184 31.4819 20.2004 31.4855 20.1837 31.4855V31.4867Z" fill="#EFEDEE"/>
<path d="M19.5484 36.5127C19.5353 36.5127 19.5209 36.5103 19.5078 36.5056C19.4457 36.4829 19.4147 36.4136 19.4373 36.3527L19.5747 35.9801C19.724 35.5729 20.1133 35.3018 20.5456 35.3018C20.5516 35.3018 20.5564 35.3018 20.5623 35.3018L21.1977 35.3113C21.2634 35.3113 21.3159 35.3662 21.3147 35.4331C21.3147 35.4988 21.2598 35.5502 21.1953 35.5502H21.1929L20.5576 35.5406C20.2232 35.5358 19.915 35.7448 19.798 36.0613L19.6607 36.4339C19.6428 36.4817 19.5974 36.5127 19.5484 36.5127Z" fill="#EFEDEE"/>
<path d="M28.8789 34.954C28.8191 34.954 28.769 34.9098 28.7606 34.8501L28.7093 34.456C28.6519 34.0201 28.8777 33.595 29.2694 33.3979L29.8378 33.1125C29.8964 33.0826 29.968 33.1065 29.9979 33.165C30.0277 33.2236 30.0038 33.2952 29.9453 33.3251L29.3769 33.6105C29.0747 33.7622 28.9015 34.0894 28.9457 34.4238L28.9971 34.8179C29.0054 34.8836 28.9601 34.9433 28.8944 34.9516C28.8896 34.9516 28.8836 34.9516 28.8789 34.9516V34.954Z" fill="#EFEDEE"/>
<path d="M27.3551 28.5498C27.1712 28.5498 26.9873 28.5008 26.8237 28.4029L26.2779 28.0757C26.2218 28.0422 26.2027 27.9682 26.2373 27.912C26.2708 27.8559 26.3448 27.8368 26.4009 27.8714L26.9467 28.1987C27.2357 28.3718 27.6047 28.3444 27.8651 28.1282L28.1696 27.8738C28.2198 27.8308 28.2962 27.838 28.338 27.8894C28.3798 27.9395 28.3738 28.0148 28.3225 28.0577L28.0179 28.3121C27.8281 28.471 27.5928 28.551 27.3563 28.551L27.3551 28.5498Z" fill="#EFEDEE"/>
<path d="M34.2303 25.6524C33.7992 25.6524 33.4111 25.3837 33.2606 24.9776L33.0396 24.3817C33.017 24.3196 33.048 24.2515 33.1101 24.2276C33.1722 24.2037 33.2403 24.236 33.2642 24.2981L33.4851 24.894C33.6009 25.2057 33.8995 25.4123 34.2303 25.4123C34.2351 25.4123 34.2399 25.4123 34.2458 25.4123L34.6423 25.4052H34.6447C34.7092 25.4052 34.7629 25.4577 34.7641 25.5222C34.7653 25.5879 34.7128 25.6428 34.6471 25.644L34.2506 25.6512C34.2434 25.6512 34.2375 25.6512 34.2303 25.6512V25.6524Z" fill="#EFEDEE"/>
<path d="M33.4982 30.1268C33.4886 30.1268 33.4791 30.1268 33.4695 30.1232C33.405 30.1077 33.3668 30.042 33.3824 29.9787L33.4779 29.593C33.5842 29.1666 33.9484 28.8526 34.3855 28.812L35.0185 28.7534C35.083 28.7475 35.1427 28.7952 35.1486 28.8609C35.1546 28.9266 35.1069 28.9851 35.0412 28.9911L34.4082 29.0496C34.0726 29.0807 33.792 29.3219 33.7096 29.6503L33.614 30.0361C33.6009 30.091 33.5519 30.1268 33.4982 30.1268Z" fill="#EFEDEE"/>
<path d="M13.4564 31.4872C13.4289 31.4872 13.4014 31.4776 13.3787 31.4585C13.3286 31.4155 13.3226 31.3403 13.3644 31.2901L13.6212 30.988C13.9054 30.6536 14.3712 30.5342 14.7808 30.6918L15.3743 30.9199C15.4364 30.9438 15.4663 31.0131 15.4424 31.074C15.4185 31.1361 15.3492 31.1659 15.2883 31.1421L14.6948 30.9139C14.3795 30.7933 14.0212 30.8841 13.8027 31.1421L13.5459 31.4442C13.522 31.4717 13.4886 31.486 13.4552 31.486L13.4564 31.4872Z" fill="#EFEDEE"/>
<path d="M7.73475 21.8648C7.73475 21.8648 7.72639 21.8648 7.72162 21.8648C7.65593 21.8577 7.60816 21.7992 7.61533 21.7335L7.6834 21.1017C7.72042 20.7661 7.5389 20.4425 7.23436 20.298L6.87609 20.1272C6.81638 20.0985 6.7913 20.0281 6.81996 19.9684C6.84862 19.9087 6.91908 19.8836 6.9788 19.9122L7.33707 20.083C7.73356 20.2717 7.96883 20.6921 7.92106 21.128L7.85298 21.7597C7.84582 21.8207 7.79447 21.866 7.73475 21.866V21.8648Z" fill="#EFEDEE"/>
<path d="M21.8987 24.0995C22.1412 24.2117 22.4994 24.2046 22.7801 24.2129C23.0643 24.2046 23.4202 24.2189 23.6686 24.1031C23.7259 24.0565 23.8071 24.0899 23.7904 24.1676C23.5468 24.7838 22.0098 24.7874 21.7626 24.1711C21.7411 24.109 21.8151 24.0505 21.8701 24.084L21.8987 24.0995Z" fill="#302826"/>
<path d="M19.6391 22.7576C20.2379 22.7576 20.7234 22.2721 20.7234 21.6732C20.7234 21.0744 20.2379 20.5889 19.6391 20.5889C19.0402 20.5889 18.5547 21.0744 18.5547 21.6732C18.5547 22.2721 19.0402 22.7576 19.6391 22.7576Z" fill="#302826"/>
<path d="M18.8568 21.4158C19.0237 21.4158 19.159 21.2805 19.159 21.1137C19.159 20.9468 19.0237 20.8115 18.8568 20.8115C18.69 20.8115 18.5547 20.9468 18.5547 21.1137C18.5547 21.2805 18.69 21.4158 18.8568 21.4158Z" fill="#EFEFEF"/>
<path d="M19.2236 21.7201C19.2862 21.7201 19.337 21.6693 19.337 21.6066C19.337 21.544 19.2862 21.4932 19.2236 21.4932C19.1609 21.4932 19.1101 21.544 19.1101 21.6066C19.1101 21.6693 19.1609 21.7201 19.2236 21.7201Z" fill="#EFEFEF"/>
<path d="M25.8957 22.7576C26.4945 22.7576 26.98 22.2721 26.98 21.6732C26.98 21.0744 26.4945 20.5889 25.8957 20.5889C25.2968 20.5889 24.8113 21.0744 24.8113 21.6732C24.8113 22.2721 25.2968 22.7576 25.8957 22.7576Z" fill="#302826"/>
<path d="M26.6779 21.4158C26.8447 21.4158 26.98 21.2805 26.98 21.1137C26.98 20.9468 26.8447 20.8115 26.6779 20.8115C26.511 20.8115 26.3757 20.9468 26.3757 21.1137C26.3757 21.2805 26.511 21.4158 26.6779 21.4158Z" fill="#EFEFEF"/>
<path d="M26.31 21.7201C26.3726 21.7201 26.4234 21.6693 26.4234 21.6066C26.4234 21.544 26.3726 21.4932 26.31 21.4932C26.2473 21.4932 26.1965 21.544 26.1965 21.6066C26.1965 21.6693 26.2473 21.7201 26.31 21.7201Z" fill="#EFEFEF"/>
<path opacity="0.35" d="M18.0973 24.6942C18.5445 24.6942 18.907 24.5049 18.907 24.2714C18.907 24.0379 18.5445 23.8486 18.0973 23.8486C17.6501 23.8486 17.2876 24.0379 17.2876 24.2714C17.2876 24.5049 17.6501 24.6942 18.0973 24.6942Z" fill="#FF6E79"/>
<path opacity="0.35" d="M27.7887 24.6942C28.2359 24.6942 28.5984 24.5049 28.5984 24.2714C28.5984 24.0379 28.2359 23.8486 27.7887 23.8486C27.3415 23.8486 26.979 24.0379 26.979 24.2714C26.979 24.5049 27.3415 24.6942 27.7887 24.6942Z" fill="#FF6E79"/>
</svg>
