<svg width="40" height="40" viewBox="0 0 40 40" fill="none" xmlns="http://www.w3.org/2000/svg">
<path d="M26.4201 20.0004C26.4263 18.2932 25.753 16.6537 24.5484 15.4443C23.3437 14.235 21.7065 13.5547 19.9992 13.5547C18.292 13.5547 16.6548 14.235 15.4501 15.4443C14.2454 16.6537 13.5714 18.2932 13.5784 20.0004C13.5722 21.7077 14.2454 23.3472 15.4501 24.5566C16.6548 25.7659 18.292 26.4462 19.9992 26.4462C21.7065 26.4462 23.3429 25.7659 24.5484 24.5566C25.753 23.3472 26.4271 21.7069 26.4201 20.0004V20.0004Z" fill="#B7E1D2"/>
<path d="M30.9317 4.58433C31.0003 4.08251 30.8663 3.57445 30.5585 3.17159C30.2507 2.76951 29.7956 2.50614 29.293 2.44068C28.7904 2.37523 28.2831 2.51393 27.8834 2.82406C26.226 4.11134 24.8117 5.68382 23.706 7.46747C23.748 9.51917 23.4449 11.5639 22.8091 13.515C23.3054 13.7293 23.7753 14.0005 24.2094 14.3223C25.5816 12.7966 27.2 11.5116 28.9977 10.522C29.9896 8.67293 30.645 6.66175 30.9317 4.58355V4.58433Z" fill="#B7E1D2"/>
<path d="M37.1741 12.116C37.485 11.7155 37.6229 11.2082 37.5583 10.7056C37.4928 10.203 37.2302 9.74795 36.8274 9.44016C36.4253 9.13237 35.9157 8.99834 35.4138 9.06769C31.2902 9.63653 27.5 11.6423 24.7112 14.7327C25.4725 15.4137 26.0772 16.2514 26.4831 17.1888C28.4343 16.5537 30.4782 16.2506 32.5299 16.2927C34.3136 15.1869 35.8861 13.7727 37.1741 12.116V12.116Z" fill="#B7E1D2"/>
<path d="M38.8161 21.7607C39.2852 21.5698 39.6592 21.1989 39.854 20.7313C40.0488 20.2638 40.0488 19.7371 39.854 19.2695C39.6592 18.802 39.2852 18.4311 38.8161 18.2402C34.9605 16.67 30.6739 16.5118 26.7131 17.7944C27.0318 18.7646 27.137 19.7932 27.0201 20.8077C29.0282 21.2332 30.9498 21.9929 32.7054 23.0558C34.8031 22.9903 36.8719 22.5516 38.8153 21.7607H38.8161Z" fill="#B7E1D2"/>
<path d="M26.9157 21.4463C26.7069 22.446 26.2846 23.3889 25.6768 24.2094C27.2017 25.5824 28.4859 27.2009 29.4747 28.9993C31.3238 29.9913 33.335 30.6458 35.414 30.9318C35.9158 31.0012 36.4246 30.8671 36.8275 30.5593C37.2303 30.2515 37.4929 29.7965 37.5584 29.2939C37.6238 28.7913 37.4851 28.284 37.1742 27.8835C34.6199 24.5967 30.9872 22.3167 26.9157 21.4463V21.4463Z" fill="#B7E1D2"/>
<path d="M23.7067 32.5312C23.7488 30.4788 23.4457 28.4349 22.8098 26.4829C23.7472 26.0769 24.5857 25.4722 25.2667 24.7109C28.3571 27.4998 30.3636 31.2907 30.9325 35.4144C31.0018 35.9162 30.867 36.4243 30.56 36.8271C30.2522 37.2292 29.7971 37.4926 29.2945 37.558C28.7919 37.6235 28.2847 37.4856 27.8849 37.1747C26.2275 35.8874 24.8132 34.3149 23.7075 32.5312H23.7067Z" fill="#B7E1D2"/>
<path d="M21.7587 38.816C23.3288 34.9604 23.487 30.6747 22.206 26.7139C21.2358 27.0326 20.2072 27.1378 19.1927 27.0209C18.7672 29.0289 18.0067 30.9505 16.9438 32.7061C17.0093 34.8038 17.448 36.8719 18.2389 38.816C18.4298 39.2851 18.8007 39.6584 19.2683 39.8532C19.7358 40.048 20.2618 40.048 20.7293 39.8532C21.1969 39.6584 21.5678 39.2851 21.7587 38.816V38.816Z" fill="#B7E1D2"/>
<path d="M10.9992 29.4759C10.0073 31.325 9.35274 33.3362 9.06598 35.4143C8.99663 35.9169 9.13066 36.4258 9.43845 36.8286C9.74625 37.2315 10.2021 37.4949 10.7055 37.5596C11.2089 37.6242 11.7169 37.4855 12.1166 37.1738C15.4034 34.6195 17.6819 30.9868 18.5523 26.9161C17.5533 26.7065 16.6104 26.2834 15.7907 25.6748C14.4177 27.2005 12.7985 28.4855 11 29.4743L10.9992 29.4759Z" fill="#B7E1D2"/>
<path d="M4.58382 30.9316C8.70748 30.3636 12.4976 28.3571 15.2873 25.2667C14.526 24.5856 13.9213 23.7472 13.5153 22.8105C11.5641 23.4456 9.51943 23.7487 7.46773 23.7067C5.68408 24.8124 4.11161 26.2267 2.82433 27.8833C2.51342 28.2838 2.37549 28.7911 2.44017 29.2937C2.50562 29.7963 2.76822 30.2514 3.17108 30.5592C3.57394 30.867 4.082 31.001 4.58382 30.9316V30.9316Z" fill="#B7E1D2"/>
<path d="M7.2916 16.9443C5.19471 17.0098 3.12664 17.4485 1.18403 18.2394C0.714939 18.4303 0.340911 18.8012 0.146105 19.2688C-0.0487016 19.7363 -0.0487016 20.2623 0.146105 20.7306C0.340911 21.1981 0.714939 21.5683 1.18403 21.7599C5.03886 23.3293 9.3246 23.4875 13.2846 22.2057C12.9659 21.2348 12.8607 20.207 12.9768 19.1924C10.9688 18.7669 9.04564 18.0072 7.28927 16.9443H7.2916V16.9443Z" fill="#B7E1D2"/>
<path d="M13.0813 18.5533C13.2909 17.5536 13.714 16.6107 14.3234 15.7902C12.7969 14.418 11.5127 12.7988 10.5231 11.0011C8.67399 10.0091 6.66281 9.35458 4.58384 9.06861C4.08202 8.99925 3.57396 9.13406 3.1711 9.44185C2.76902 9.74965 2.50564 10.2047 2.44019 10.7073C2.37473 11.2099 2.51344 11.7172 2.82435 12.1177C5.37865 15.4045 9.0114 17.6845 13.0821 18.5549L13.0813 18.5533Z" fill="#B7E1D2"/>
<path d="M12.1166 2.82412C11.7169 2.51243 11.2088 2.37373 10.7062 2.4384C10.2028 2.50308 9.74698 2.76646 9.43918 3.16931C9.13139 3.57217 8.99736 4.08179 9.06671 4.58361C9.63555 8.70727 11.6421 12.4982 14.7325 15.2871C15.4135 14.5257 16.252 13.9211 17.1886 13.5143C16.5527 11.5624 16.2496 9.51844 16.2917 7.46674C15.1868 5.6831 13.7732 4.1114 12.1174 2.82334L12.1166 2.82412Z" fill="#B7E1D2"/>
<path d="M21.7587 1.18325C23.3288 5.03886 23.487 9.3246 22.2059 13.2854C20.7729 12.8148 19.2269 12.8148 17.794 13.2854C16.5121 9.32538 16.6695 5.03886 18.2389 1.18325C18.4298 0.71416 18.8007 0.340911 19.2682 0.146105C19.7358 -0.0487016 20.2618 -0.0487016 20.7293 0.146105C21.1968 0.340911 21.5677 0.71416 21.7587 1.18325V1.18325Z" fill="#B7E1D2"/>
</svg>
