<svg width="45" height="43" viewBox="0 0 45 43" fill="none" xmlns="http://www.w3.org/2000/svg">
<ellipse cx="22.5" cy="21.5" rx="22.5" ry="21.5" fill="#FFCD50"/>
<path d="M29.5035 24.2165C28.5407 27.5574 25.9004 28.9066 21.5966 29.0357C20.0563 29.0817 18.5259 28.218 17.3929 26.8848C15.3662 24.4958 14.6205 20.6004 17.3929 17.7269C17.3929 17.7269 19.1104 15.8622 21.8228 15.3538C23.0567 15.1251 24.3283 15.2129 25.519 15.609C30.2752 17.1534 30.4673 20.8796 29.5035 24.2165Z" fill="#FFCD50"/>
<path d="M17.3951 26.8894C15.3684 24.5004 14.6227 20.605 17.3951 17.7315C17.3951 17.7315 19.1126 15.8668 21.825 15.3584C18.9595 16.6045 14.5677 19.7572 17.3951 26.8894Z" fill="#FFC033"/>
<path d="M22.7225 23.2851C22.9767 23.6344 23.4842 23.6674 23.8635 23.5363C23.9984 23.4885 24.1152 23.4 24.1978 23.2831C24.2067 23.27 24.2205 23.261 24.236 23.258C24.2516 23.255 24.2677 23.2582 24.2809 23.2671C24.2888 23.2726 24.2953 23.2799 24.2998 23.2885C24.3043 23.297 24.3067 23.3065 24.3069 23.3161C24.3034 23.4154 24.2715 23.5117 24.2148 23.5933C23.8705 24.0788 23.0378 24.0798 22.6915 23.5933C22.6424 23.5213 22.5193 23.2671 22.6635 23.248C22.6754 23.2483 22.687 23.2516 22.6973 23.2575C22.7077 23.2635 22.7163 23.2719 22.7225 23.2821V23.2851Z" fill="#302826"/>
<path d="M24.7793 22.1071C24.8544 21.3855 25.562 20.867 26.2696 20.806C26.8321 20.7479 27.4817 20.9681 27.836 21.4525C27.9736 21.6181 28.0449 21.8289 28.0361 22.0441C28.03 22.112 28.0043 22.1766 27.9621 22.2302C27.9198 22.2837 27.8629 22.3238 27.7983 22.3455C27.7337 22.3673 27.6641 22.3698 27.5981 22.3527C27.5321 22.3356 27.4725 22.2996 27.4266 22.2492C27.3302 22.1471 27.2487 22.0318 27.1844 21.9069C27.0858 21.747 26.9525 21.6113 26.7943 21.5099C26.6361 21.4086 26.4571 21.3441 26.2706 21.3214C25.7081 21.2464 25.0906 21.5656 24.8904 22.1281C24.8855 22.1408 24.8762 22.1512 24.8642 22.1577C24.8522 22.1641 24.8384 22.166 24.8251 22.1631C24.8118 22.1602 24.8 22.1527 24.7918 22.1419C24.7836 22.1311 24.7795 22.1177 24.7803 22.1041L24.7793 22.1071Z" fill="#302826"/>
<path d="M22.032 22.133C21.8318 21.5705 21.2132 21.2512 20.6518 21.3263C20.4652 21.3491 20.2861 21.4136 20.1277 21.515C19.9694 21.6163 19.8359 21.7519 19.737 21.9118C19.5958 22.182 19.3366 22.5464 19.0023 22.2821C18.7671 22.0549 18.9182 21.6756 19.0844 21.4574C19.4397 20.973 20.0853 20.7568 20.6508 20.8108C21.3584 20.8689 22.067 21.3873 22.1421 22.112C22.1428 22.1255 22.1387 22.1389 22.1305 22.1497C22.1223 22.1606 22.1105 22.1681 22.0973 22.171C22.084 22.1739 22.0701 22.1719 22.0582 22.1655C22.0462 22.1591 22.0369 22.1486 22.032 22.136V22.133Z" fill="#302826"/>
<path d="M24.7975 15.4097L24.6324 15.3747C23.9611 15.2393 23.2742 15.1982 22.5916 15.2526C22.5195 15.2526 22.4474 15.2646 22.3764 15.2726C22.3594 14.2567 22.3424 10.9428 22.7567 8.16643C23.137 5.62321 23.8837 3.53039 25.331 4.09188C26.0846 4.38413 26.4639 5.13579 26.6011 6.12565C27.0134 9.08623 25.2509 14.1697 24.7975 15.4097Z" fill="#F5FFFF"/>
<path d="M30.1063 14.7823C29.0474 15.8602 28.1536 16.6489 27.9494 16.826L27.9354 16.839C27.6331 16.6046 27.3109 16.397 26.9725 16.2185C26.7504 16.1004 26.5161 15.9883 26.2649 15.8842L25.9216 15.684C25.9216 15.684 27.7812 11.9598 29.809 9.26445C31.3383 7.23368 32.9628 5.78541 33.9616 6.95343C35.483 8.73098 32.4053 12.4392 30.1063 14.7823Z" fill="#F5FFFF"/>
<path d="M29.8058 9.26044C28.933 12.5833 26.9903 16.2235 26.9903 16.2235H26.9713C26.7491 16.1054 26.5149 15.9933 26.2637 15.8892C26.0295 15.7891 25.7823 15.7001 25.5221 15.616C25.2768 15.5369 25.0366 15.4709 24.7994 15.4158L24.6343 15.3808C24.7954 13.8975 25.3989 8.99021 26.604 6.12771C27.2646 4.55735 28.1053 3.60151 29.1562 4.165C30.4984 4.88463 30.4003 7.00248 29.8058 9.26044Z" fill="#F5FFFF"/>
<path d="M32.6192 16.9308C31.1069 17.5413 29.6937 17.9647 29.1212 18.1318C29.0878 18.0798 29.0544 18.0287 29.0211 17.9787C28.7304 17.5656 28.3815 17.1968 27.9852 16.8837L27.9511 16.8317L27.7209 16.4834C27.7209 16.4834 28.7308 15.7047 30.104 14.7819C32.8364 12.9503 37.006 10.5562 37.5445 12.607C38.0009 14.3415 35.1704 15.9029 32.6192 16.9308Z" fill="#F5FFFF"/>
<path d="M40.6321 17.4932C40.532 18.8443 38.8936 19.574 36.8908 19.9573C34.3206 20.4517 31.1588 20.3777 29.9057 20.3216C29.8987 20.2656 29.8897 20.2095 29.8807 20.1535C29.7716 19.4328 29.5132 18.7428 29.1221 18.1277C29.0887 18.0757 29.0553 18.0246 29.022 17.9746C29.5644 17.7964 30.9687 17.35 32.6251 16.9297C36.1422 16.0369 40.7942 15.2682 40.6321 17.4932Z" fill="#F5FFFF"/>
<path d="M40.4782 26.2765C39.6995 27.6927 37.2944 27.3855 34.8913 26.6258C32.6324 25.9092 30.3754 24.7922 29.4746 24.3238C29.4856 24.2898 29.4956 24.2557 29.5056 24.2237C29.5257 24.1536 29.5457 24.0836 29.5647 24.0125C29.6708 23.6232 29.7649 23.2298 29.8279 22.8355C29.882 22.5192 29.922 22.2029 29.945 21.8887C31.5464 22.0798 36.811 22.7965 39.3062 24.1587C40.3751 24.7422 40.9326 25.4448 40.4782 26.2765Z" fill="#F5FFFF"/>
<path d="M42.2106 22.4781C41.8933 23.522 40.7664 24.0044 39.3081 24.1565C36.0593 24.4958 31.159 23.2067 29.8298 22.8334C29.8839 22.5171 29.9239 22.2008 29.9469 21.8866C29.9894 21.3656 29.977 20.8416 29.9099 20.3232C29.9029 20.2672 29.8939 20.2111 29.8849 20.1551C31.0369 20.055 34.1016 19.8198 36.891 19.9549C39.9837 20.114 42.7431 20.7266 42.2106 22.4781Z" fill="#F5FFFF"/>
<path d="M38.5705 31.2298C38.002 31.7973 37.1693 31.8434 36.2114 31.5731C33.435 30.7875 29.6567 27.3284 28.5417 26.2685C28.5668 26.2345 28.5908 26.1995 28.6148 26.1634C28.9938 25.6002 29.2831 24.9817 29.4726 24.3298C29.4836 24.2958 29.4936 24.2618 29.5036 24.2297C29.5236 24.1597 29.5436 24.0896 29.5626 24.0186C30.3954 24.3709 32.7494 25.3998 34.8893 26.6328C37.5296 28.1451 39.8316 29.9717 38.5705 31.2298Z" fill="#F5FFFF"/>
<path d="M32.1248 38.1799C30.2742 38.7624 28.4426 35.9299 27.1565 33.2155C26.4708 31.7544 25.8736 30.2534 25.3679 28.7206L26.1026 28.1852L26.1426 28.1671C26.4728 28.0216 26.7902 27.8485 27.0914 27.6497C27.1755 27.5946 27.2556 27.5376 27.3356 27.4775C27.716 27.9329 29.1212 29.6394 30.4293 31.5651C32.319 34.3495 34.0054 37.5863 32.1248 38.1799Z" fill="#F5FFFF"/>
<path d="M36.6919 34.2092C35.2226 35.3953 32.5884 33.5627 30.4305 31.5689C29.1937 30.4125 28.0314 29.179 26.9504 27.8757L27.0916 27.6535C27.1756 27.5985 27.2557 27.5414 27.3358 27.4814C27.7979 27.1409 28.2033 26.7295 28.5368 26.2623C28.5618 26.2283 28.5859 26.1933 28.6099 26.1572C29.9751 26.9179 34.2978 29.4171 36.2065 31.5709C37.1293 32.6078 37.4906 33.5647 36.6919 34.2092Z" fill="#F5FFFF"/>
<path d="M25.8002 39.9872C25.1166 39.8871 24.6242 39.3957 24.2759 38.671C22.9988 36.0217 23.6353 30.2337 23.8135 28.8385L23.9276 28.8194C24.6752 28.6977 25.4054 28.4863 26.1025 28.1899L26.1425 28.1719C26.2336 28.5282 26.7921 30.7741 27.1524 33.2153C27.6478 36.5642 27.7709 40.2784 25.8002 39.9872Z" fill="#F5FFFF"/>
<path d="M24.276 38.6709C24.0018 40.1842 23.4263 41.1651 22.3423 40.8969C21.5917 40.7117 21.1123 40.0882 20.823 39.2144C19.8522 36.2768 21.0412 30.5068 21.3705 29.0405C21.4459 29.0405 21.521 29.0405 21.5957 29.0405C21.946 29.0305 22.2853 29.0118 22.6136 28.9845C23.0309 28.9505 23.4293 28.9014 23.8146 28.8384L23.9287 28.8193C24.1269 30.1895 24.8405 35.5572 24.276 38.6709Z" fill="#F5FFFF"/>
<path d="M21.2484 29.0358C20.9802 30.0046 19.683 34.5255 18.0836 37.406C17.0648 39.2396 15.9248 40.4087 14.8488 39.5719C13.3315 38.3929 14.4375 35.4233 15.8877 32.793C16.7819 31.2007 17.7796 29.6687 18.8743 28.207C18.9934 28.2851 19.1145 28.3582 19.2377 28.4252C19.8219 28.7576 20.4701 28.9623 21.1393 29.0257C21.1733 29.0317 21.2154 29.0338 21.2484 29.0358Z" fill="#F5FFFF"/>
<path d="M23.5264 29.1616C23.5264 29.1616 22.6416 36.6621 20.824 39.2133C20.2975 39.951 19.694 40.2752 19.0114 39.8869C18.2488 39.4525 18.0106 38.5347 18.0846 37.4047C18.2728 34.5022 20.5067 30.1915 21.1373 29.0264C21.1743 29.0264 21.2123 29.0324 21.2494 29.0344C21.2864 29.0364 21.3304 29.0344 21.3715 29.0394C21.4469 29.0394 21.5219 29.0394 21.5967 29.0394C21.947 29.0294 22.2863 29.0108 22.6146 28.9834L23.5264 29.1616Z" fill="#F5FFFF"/>
<path d="M19.2378 28.4205C18.1973 29.9332 17.0791 31.3911 15.8878 32.7883C13.8271 35.1683 11.419 37.3082 10.4111 35.7669C9.21003 33.9343 12.2917 30.9296 14.7739 28.9289C16.024 27.921 17.1239 27.1684 17.4472 26.9512C17.4872 26.9972 17.5263 27.0412 17.5673 27.0853C17.9514 27.5121 18.3887 27.8878 18.8684 28.2033C18.9936 28.2843 19.1137 28.3574 19.2378 28.4205Z" fill="#F5FFFF"/>
<path d="M15.7505 20.6775C15.5736 21.4341 15.537 22.2167 15.6424 22.9865C13.6657 22.8164 3.62095 21.7805 5.06621 18.967C5.90594 17.3316 8.9556 17.9071 11.672 18.8239C13.0762 19.3086 14.4516 19.873 15.7916 20.5144C15.7765 20.5694 15.7635 20.6235 15.7505 20.6775Z" fill="#F5FFFF"/>
<path d="M16.7743 18.4663C16.7463 18.5044 16.7192 18.5424 16.6932 18.5814C16.2822 19.1683 15.9773 19.8228 15.7924 20.5151C15.7774 20.5692 15.7644 20.6232 15.7514 20.6773C15.0218 20.377 13.3723 19.6904 11.6698 18.8236C8.66723 17.2973 5.49447 15.2205 6.87868 13.7913C7.87955 12.7553 9.79021 13.4149 11.6899 14.5519C13.8327 15.834 15.9636 17.7207 16.7743 18.4663Z" fill="#F5FFFF"/>
<path d="M18.3518 16.9112C18.3097 16.9412 18.2697 16.9712 18.2306 17.0013C17.9322 17.2241 17.6518 17.4701 17.3919 17.7369C17.1693 17.9672 16.963 18.2127 16.7744 18.4715C16.7464 18.5096 16.7193 18.5476 16.6933 18.5866C15.8476 17.9861 13.5436 16.3167 11.6889 14.5581C9.71723 12.6795 8.25796 10.7108 9.61514 9.83902C11.754 8.46382 15.4342 12.8727 17.2938 15.3989C17.8123 16.1105 18.1896 16.661 18.3518 16.9112Z" fill="#F5FFFF"/>
<path d="M20.3926 15.7716C20.3325 15.7947 20.2725 15.8197 20.2134 15.8447C19.553 16.1233 18.9281 16.4794 18.3518 16.9056C18.3098 16.9357 18.2697 16.9657 18.2307 16.9957C18.1206 16.8155 17.7633 16.227 17.2969 15.4023C15.4953 12.2175 12.0713 5.5117 14.8948 5.06932C16.8515 4.76205 18.2837 7.8077 19.1985 10.7513C19.6989 12.3987 20.0976 14.0753 20.3926 15.7716Z" fill="#F5FFFF"/>
<path d="M17.5882 27.12C17.5882 27.12 16.3871 27.9617 14.7767 28.9335C11.674 30.8032 7.07001 33.1492 6.58358 30.8933C6.16121 28.9265 9.46409 27.3332 12.3576 26.3303C13.6542 25.886 14.9723 25.5076 16.3071 25.1963C16.3441 25.2774 16.3841 25.3584 16.4262 25.4375C16.6943 25.9567 17.0203 26.4439 17.398 26.8898L17.4531 26.9538C17.4931 26.9999 17.5321 27.0439 17.5732 27.0879L17.5882 27.12Z" fill="#F5FFFF"/>
<path d="M16.4232 25.4376C16.1739 25.5027 14.4464 25.9501 12.3546 26.3304C8.60434 27.013 3.69006 27.4844 4.01534 25.1704C4.48275 21.8545 13.6868 22.7683 15.6445 23.0005C15.748 23.7625 15.9706 24.5035 16.304 25.1964C16.3411 25.2775 16.3811 25.3586 16.4232 25.4376Z" fill="#F5FFFF"/>
<path opacity="0.35" d="M19.5309 24.0104C19.9057 24.0104 20.2095 23.8517 20.2095 23.6561C20.2095 23.4604 19.9057 23.3018 19.5309 23.3018C19.1561 23.3018 18.8523 23.4604 18.8523 23.6561C18.8523 23.8517 19.1561 24.0104 19.5309 24.0104Z" fill="#FF6E79"/>
<path opacity="0.35" d="M27.653 24.0104C28.0277 24.0104 28.3315 23.8517 28.3315 23.6561C28.3315 23.4604 28.0277 23.3018 27.653 23.3018C27.2782 23.3018 26.9744 23.4604 26.9744 23.6561C26.9744 23.8517 27.2782 24.0104 27.653 24.0104Z" fill="#FF6E79"/>
<path d="M22.5904 15.257C22.5183 15.257 22.4463 15.269 22.3752 15.277C22.1857 15.2977 22.0012 15.325 21.8217 15.3591C21.3333 15.4513 20.8547 15.5897 20.3925 15.7724C20.3324 15.7955 20.2724 15.8205 20.2133 15.8455C20.0472 15.1839 19.5257 13.029 19.1934 10.7481C18.713 7.4602 18.6249 3.9081 20.5546 4.18734C21.9128 4.38752 22.5213 6.11302 22.7565 8.17182C23.0638 10.8822 22.7235 14.16 22.5904 15.257Z" fill="#F5FFFF"/>
<path d="M22.7557 8.17197L22.8348 7.68555C22.8348 7.68555 23.7045 9.60322 22.8348 15.2421L22.5906 15.2571C22.5906 15.2571 23.3943 12.6018 22.7557 8.17197Z" fill="#E9F4F4"/>
<path d="M20.2146 15.845L20.0414 15.9201C20.0414 15.9201 19.3939 14.3797 19.0186 10.2051L19.2417 11.0688C19.2417 11.0688 19.8243 14.4208 20.2146 15.845Z" fill="#E9F4F4"/>
<path d="M30.0771 8.91113C30.0771 8.91113 29.2904 11.9688 27.2206 16.3596C27.0765 16.2755 26.9824 16.2225 26.9824 16.2225C26.9824 16.2225 27.8732 15.0865 29.8029 9.25944L30.0771 8.91113Z" fill="#E9F4F4"/>
<path d="M26.6009 6.126L26.725 5.84375C26.725 5.84375 26.1195 12.0892 25.0976 15.4962L24.7974 15.4141C24.7974 15.4141 25.6191 13.2462 26.6009 6.126Z" fill="#E9F4F4"/>
<path d="M17.2939 15.3993L17.0938 15.1221C17.0938 15.1221 17.368 15.8797 18.1517 17.0728L18.3068 16.9437C17.9028 16.4756 17.5623 15.9563 17.2939 15.3993Z" fill="#E9F4F4"/>
<path d="M11.6911 14.5532L11.3838 14.2529C11.3838 14.2529 13.7238 15.5451 16.8045 18.4015L16.6934 18.5777C16.6934 18.5777 13.7709 15.9654 11.6911 14.5532Z" fill="#E9F4F4"/>
<path d="M11.6691 18.8224L11.1587 18.6553C11.1587 18.6553 11.7592 19.2298 15.7227 20.8041L15.7507 20.676C15.7507 20.676 13.0674 19.5711 11.6691 18.8224Z" fill="#E9F4F4"/>
<path d="M13.8419 22.8268C13.8419 22.8268 15.2321 22.9459 15.6435 22.9859L15.6605 23.103C14.9237 23.08 14.1913 22.9793 13.4756 22.8027L13.8419 22.8268Z" fill="#E9F4F4"/>
<path d="M12.2856 26.3443C13.6822 26.1278 15.064 25.8253 16.4232 25.4385L16.4973 25.5746C16.4973 25.5746 14.7328 26.3523 11.8232 26.5204L12.2856 26.3443Z" fill="#E9F4F4"/>
<path d="M17.5712 27.089C16.5771 27.6049 15.6395 28.2231 14.7738 28.9337L14.2263 29.2599C14.2263 29.2599 15.3163 28.2591 17.4221 26.9209L17.5712 27.089Z" fill="#E9F4F4"/>
<path d="M15.8876 32.7926C15.8876 32.7926 18.8902 29.1815 19.2375 28.4248L19.4808 28.5519C19.4808 28.5519 17.0707 31.7977 15.6594 33.215L15.8876 32.7926Z" fill="#E9F4F4"/>
<path d="M21.2482 29.0355C21.2482 29.0355 18.5579 33.7526 18.0835 37.4058C17.9223 37.692 17.8833 37.7611 17.8833 37.7611C17.8833 37.7611 18.3837 33.6485 21.0791 29.0215L21.2482 29.0355Z" fill="#E9F4F4"/>
<path d="M20.823 39.2144C20.823 39.2144 23.2741 35.1488 23.2911 28.9144L23.3912 28.9014C23.3912 28.9014 23.5674 34.4502 20.86 39.3325C20.8444 39.2942 20.832 39.2547 20.823 39.2144Z" fill="#E9F4F4"/>
<path d="M24.2759 38.6722C24.2759 38.6722 23.0168 35.2442 23.0599 32.79L22.9988 33.1373C22.9988 33.1373 22.8867 34.5696 24.2449 38.8363L24.2759 38.6722Z" fill="#E9F4F4"/>
<path d="M26.1426 28.1729C26.1426 28.1729 26.6831 30.2537 27.1525 33.2163L27.2225 33.3614C26.9925 31.6006 26.6626 29.8543 26.2347 28.1309L26.1426 28.1729Z" fill="#E9F4F4"/>
<path d="M30.4305 31.5697C30.4305 31.5697 27.9113 29.1346 27.0915 27.6543L26.9915 27.7194C26.9915 27.7194 27.8172 29.1536 30.7858 32.1102L30.4305 31.5697Z" fill="#E9F4F4"/>
<path d="M28.6147 26.1584C28.6147 26.1584 34.1786 29.161 36.2114 31.5721C36.4005 31.6222 34.8202 29.5474 28.7048 26.0293L28.6147 26.1584Z" fill="#E9F4F4"/>
<path d="M34.8911 26.6241C33.0531 25.8844 31.2721 25.0102 29.5625 24.0088L29.5225 24.1529C31.3511 25.2073 33.2663 26.1037 35.2475 26.8322L34.8911 26.6241Z" fill="#E9F4F4"/>
<path d="M29.9429 21.886C29.9429 21.886 36.2644 22.4205 39.304 24.156L39.5412 24.1279C39.5412 24.1279 36.3835 22.4034 29.9549 21.7148L29.9429 21.886Z" fill="#E9F4F4"/>
<path d="M30.1061 14.7822C29.5511 15.6162 28.8438 16.3382 28.0212 16.91C28.1423 17.0101 28.0943 16.9691 28.0943 16.9691C28.0943 16.9691 29.5886 15.8211 30.4113 14.584L30.1061 14.7822Z" fill="#E9F4F4"/>
<path d="M33.0928 16.7344C33.0928 16.7344 30.7107 17.3489 29.2534 18.3458L29.2985 18.4248C29.2985 18.4248 31.1951 17.2999 32.6194 16.9305L33.0928 16.7344Z" fill="#E9F4F4"/>
<path d="M29.906 20.3223C29.906 20.3223 31.9558 20.4514 36.8911 19.958L37.1723 19.974C37.1723 19.974 35.1706 20.4004 29.928 20.5035L29.906 20.3223Z" fill="#E9F4F4"/>
</svg>
