<svg width="154" height="285" viewBox="0 0 154 285" fill="none" xmlns="http://www.w3.org/2000/svg">
<path d="M136.275 9.98504C134.385 12.7256 130.127 17.8392 121.674 23.9863C119.99 25.1228 118.128 25.9738 116.164 26.5048C103.977 29.7506 95.1087 17.8316 87.086 21.7969C86.6422 22.0718 86.2432 22.4125 85.9026 22.8074C77.7109 31.9936 80.8462 79.6163 80.8462 79.6163H72.4854C72.4854 79.6163 72.1012 47.8397 72.0781 37.0843C72.0781 35.7752 72.0781 34.7877 72.0781 34.1983C72.2164 28.8397 69.8649 26.3517 57.3007 30.5621C37.3977 36.0814 24.0573 23.7873 19.1392 18.0918C18.5554 17.3695 18.2371 16.47 18.2371 15.5427C18.2371 14.6153 18.5554 13.7158 19.1392 12.9935L21.8979 9.87021C31.3807 -0.778096 45.1437 -2.89857 56.2248 4.54223C56.8089 4.92499 57.3775 5.30775 57.9385 5.78236C66.3915 12.4194 72.0397 19.6611 74.5525 21.5443C76.0871 22.6883 77.3536 24.151 78.2642 25.8312C78.3578 26.0511 78.5337 26.2261 78.7546 26.319C78.9755 26.4119 79.2241 26.4154 79.4476 26.3288C79.6017 26.2561 79.7372 26.1494 79.8437 26.0167C79.9502 25.8841 80.025 25.729 80.0624 25.5633C81.3149 21.529 84.5424 13.805 92.4576 5.07809C93.3366 4.25883 94.2825 3.51371 95.2855 2.85044C96.6904 1.91539 98.1988 1.14479 99.7809 0.553899C113.221 -4.43726 130.066 3.61596 135.676 6.67802C135.922 6.81934 136.133 7.0159 136.29 7.25215C136.554 7.66016 136.693 8.13568 136.69 8.62087C136.687 9.10606 136.543 9.58 136.275 9.98504Z" fill="#5ABA97"/>
<path d="M85.9026 22.4707C85.9026 22.5779 85.9026 22.6927 85.9026 22.7999C77.7416 32.0014 80.8154 79.6164 80.8154 79.6164H79.4322C78.9635 71.8541 77.5341 30.1565 85.9026 22.4707Z" fill="#63C6A0"/>
<path d="M136.275 9.98534C134.384 12.7259 130.127 17.8395 121.674 23.9866C119.99 25.1231 118.128 25.9741 116.164 26.5051C118.354 22.8923 119.547 18.7674 119.622 14.5478C119.945 5.30804 108.864 1.86323 99.7886 0.592474C113.229 -4.39868 130.073 3.65453 135.683 6.71659C135.93 6.85792 136.14 7.05447 136.298 7.29073C136.552 7.6953 136.686 8.16395 136.681 8.64139C136.677 9.11883 136.536 9.58515 136.275 9.98534Z" fill="#63C6A0"/>
<path d="M79.44 26.329C79.44 28.9318 78.6716 27.0945 77.7878 27.7988C77.2115 25.3492 62.0038 10.192 56.2173 4.54248C56.8013 4.92524 57.37 5.308 57.9309 5.78261C66.384 12.4196 72.0321 19.6614 74.545 21.5446C76.0796 22.6885 77.346 24.1513 78.2566 25.8314C78.3502 26.0514 78.5261 26.2264 78.747 26.3193C78.968 26.4122 79.2166 26.4157 79.44 26.329Z" fill="#63C6A0"/>
<path d="M1.75677 211.943C5.74506 236.44 14.736 254.613 27.1542 266.777C34.5391 274.011 44.2678 279.186 55.0415 281.973C67.1305 285.074 79.8017 285.15 91.9274 282.195C97.6517 280.791 103.164 278.636 108.319 275.787C126.877 265.399 152.021 244.118 153.588 204.924C156.063 163.096 135.437 109.9 94.2558 74.3881C93.3951 73.6226 92.5498 72.8571 91.743 72.0916C89.2147 69.596 81.6378 62.714 75.7514 63.3953C73.6432 63.7163 71.6133 64.425 69.7651 65.4852C66.1107 67.557 62.7335 70.0802 59.7137 72.9949C59.7137 72.9949 -9.76238 135.017 1.75677 211.943Z" fill="#C49B4B"/>
<path d="M2.01028 211.943C5.99088 236.44 14.9818 254.613 27.4078 266.777C34.7849 274.011 44.5213 279.186 55.295 281.973C-13.5971 195.186 47.6796 96.1362 70.0571 65.5156C66.4026 67.5874 63.0255 70.1106 60.0057 73.0253C60.0057 73.0253 -9.50887 135.017 2.01028 211.943Z" fill="#A5853D"/>
<path d="M105.406 165.392C106.274 159.268 112.376 155.05 118.401 154.721C124.548 154.2 132.533 158.204 133.001 165.048C133.002 165.31 132.951 165.569 132.851 165.812C132.751 166.054 132.604 166.275 132.419 166.46C132.233 166.646 132.013 166.793 131.77 166.894C131.527 166.994 131.266 167.046 131.003 167.046C130.618 167.046 130.24 166.936 129.915 166.73C129.59 166.524 129.33 166.23 129.167 165.882C128.014 163.831 127.1 161.84 125.194 160.378C119.215 155.272 108.488 157.684 106.075 165.53C106.046 165.603 105.992 165.664 105.923 165.701C105.854 165.738 105.773 165.749 105.697 165.732C105.62 165.716 105.551 165.672 105.504 165.61C105.456 165.548 105.432 165.471 105.437 165.392H105.406Z" fill="#302826" stroke="#302826" stroke-width="3" stroke-miterlimit="10"/>
<path d="M81.1306 165.53C79.5399 160.348 73.9609 157.247 68.7815 157.691C66.9678 157.819 65.2075 158.358 63.6347 159.267C62.0619 160.176 60.7182 161.43 59.706 162.935C59.0759 163.946 58.5764 164.987 57.9386 166.058C57.712 166.431 57.37 166.719 56.9642 166.881C56.5585 167.042 56.111 167.068 55.6893 166.954C55.2676 166.84 54.8946 166.592 54.6266 166.248C54.3587 165.904 54.2103 165.483 54.2039 165.048C54.25 161.603 56.8627 158.709 59.583 156.964C62.2814 155.324 65.416 154.539 68.572 154.713C71.7281 154.886 74.7568 156.01 77.2575 157.936C79.6611 159.756 81.2727 162.425 81.7607 165.392C81.7651 165.471 81.7413 165.548 81.6936 165.61C81.646 165.672 81.5776 165.716 81.5008 165.732C81.424 165.749 81.3437 165.738 81.2744 165.701C81.2051 165.664 81.1514 165.603 81.1229 165.53H81.1306Z" fill="#302826" stroke="#302826" stroke-width="3" stroke-miterlimit="10"/>
<path opacity="0.35" d="M58.8837 182.088C62.1899 182.088 64.87 180.693 64.87 178.973C64.87 177.252 62.1899 175.857 58.8837 175.857C55.5776 175.857 52.8975 177.252 52.8975 178.973C52.8975 180.693 55.5776 182.088 58.8837 182.088Z" fill="#FF9C71"/>
<path opacity="0.35" d="M130.588 182.088C133.894 182.088 136.575 180.693 136.575 178.973C136.575 177.252 133.894 175.857 130.588 175.857C127.282 175.857 124.602 177.252 124.602 178.973C124.602 180.693 127.282 182.088 130.588 182.088Z" fill="#FF9C71"/>
<path d="M95.9695 189.062C92.4577 189.353 89.4454 187.57 89.2379 185.089C89.2107 184.492 89.3228 183.896 89.5655 183.349C89.8081 182.802 90.1747 182.318 90.6365 181.935C90.8572 181.725 91.0992 181.537 91.3588 181.377L91.72 181.155C91.8276 181.093 91.9428 181.024 92.0581 180.971C93.0336 180.474 94.1003 180.18 95.1934 180.106C95.3702 180.106 95.5469 180.106 95.7006 180.106C96.8977 180.049 98.0917 180.27 99.1894 180.749C99.2183 180.754 99.245 180.767 99.2662 180.787C99.5328 180.914 99.7896 181.059 100.035 181.223C100.286 181.385 100.518 181.575 100.726 181.79L100.803 181.859C101.41 182.449 101.793 183.231 101.887 184.071C102.179 186.551 99.4891 188.787 95.9695 189.062Z" fill="#302826"/>
<path d="M99.3046 180.734V183.964C99.3217 184.294 99.2093 184.617 98.9913 184.866C98.7733 185.114 98.4667 185.269 98.1365 185.296H93.3029C92.9665 185.276 92.6515 185.125 92.4257 184.876C92.2 184.627 92.0817 184.299 92.0964 183.964V180.902C93.072 180.405 94.1386 180.111 95.2317 180.037C95.4085 180.037 95.5852 180.037 95.7389 180.037C96.9361 179.981 98.1301 180.201 99.2277 180.68C99.2586 180.689 99.2856 180.708 99.3046 180.734Z" fill="#E8E8E8"/>
</svg>
