<svg width="118" height="206" viewBox="0 0 118 206" fill="none" xmlns="http://www.w3.org/2000/svg">
<path d="M115.985 109.025C115.483 109.928 114.846 110.946 114.093 112.042C113.692 112.637 113.248 113.253 112.782 113.884C112.001 114.944 111.134 116.033 110.195 117.187C104.104 124.539 95.0174 132.902 86.4899 135.367C86.3729 135.403 86.26 135.451 86.1531 135.511L86.0886 135.546C85.7255 135.77 85.4538 136.116 85.3218 136.521C85.0798 137.176 84.7674 137.803 84.3902 138.391C84.2975 138.545 84.2275 138.712 84.1824 138.886C84.1453 139.029 84.126 139.175 84.1251 139.323V151.77C84.1312 152.598 84.2128 153.423 84.3687 154.235C84.6554 155.769 84.9062 159.079 83.3297 163.831C83.2923 163.94 83.2443 164.046 83.1863 164.146C82.4709 165.676 81.974 167.3 81.7101 168.969C81.7031 169.069 81.7031 169.169 81.7101 169.27V193.333C81.7101 193.333 81.7746 197.783 87.7511 198.757C93.3262 199.668 106.211 199.782 108.676 202.663C108.726 202.724 108.757 202.799 108.766 202.877C108.774 202.956 108.76 203.035 108.724 203.106C108.688 203.176 108.633 203.235 108.565 203.275C108.496 203.314 108.418 203.333 108.339 203.329C98.0557 203.329 94.0643 203.215 92.5164 203.129C92.222 203.108 91.9271 203.163 91.6599 203.288C91.3926 203.414 91.162 203.605 90.9901 203.845C90.4096 204.705 89.4494 205.909 88.6683 205.995C87.6149 206.103 84.1036 204.383 83.1648 203.917C83.0072 203.838 82.8378 203.784 82.6632 203.759C81.0867 203.523 73.0536 202.434 67.6863 203.86C67.5468 203.887 67.4055 203.903 67.2635 203.91C60.549 204.712 64.8056 201.452 66.4968 200.585C68.6896 199.46 70.9039 198.435 71.5703 198.156C71.7048 198.097 71.8303 198.02 71.9429 197.926L74.4797 195.877C75.1597 195.326 75.711 194.634 76.0948 193.848C76.4786 193.062 76.6855 192.201 76.7011 191.326C76.8158 184.117 77.2887 171.262 77.4822 166.195C77.5381 165.072 77.37 163.949 76.9878 162.892C76.479 161.537 75.9774 158.972 77.0666 155.052C77.4416 153.682 77.6296 152.267 77.6255 150.846V143.322C77.6314 143.042 77.5692 142.766 77.4444 142.516C77.3195 142.267 77.1357 142.051 76.9089 141.888C76.7262 141.758 76.5191 141.665 76.2998 141.616C74.2432 141.136 70.4452 140.14 69.1768 139.043C68.7759 138.765 68.3031 138.608 67.8153 138.592C64.6623 138.241 57.7113 139.918 52.344 139.717C47.7291 139.538 43.1787 138.578 40.2478 139.352C39.4206 139.542 38.6708 139.979 38.098 140.606C37.8855 140.852 37.7508 141.157 37.711 141.48C37.704 141.566 37.704 141.652 37.711 141.738V151.505C37.7085 151.886 37.8291 152.258 38.055 152.566C38.9794 153.798 41.2582 157.768 38.3202 163.917C38.2043 164.161 38.1431 164.427 38.141 164.698C38.141 190.875 38.7501 190.875 38.7501 190.875C38.7501 190.875 38.5638 195.296 45.5506 199.051C52.5375 202.806 56.0703 203.623 53.9062 204.54C51.742 205.458 43.1572 202.62 38.356 202.985C33.5548 203.351 29.3555 205.694 27.0696 205.852C24.7836 206.009 24.5686 203.229 23.1999 203.229C22.1107 203.229 12.322 203.616 8.26605 203.774C8.15835 203.776 8.05309 203.742 7.9672 203.676C7.8813 203.611 7.81976 203.519 7.79247 203.415C7.76518 203.311 7.77372 203.201 7.81673 203.102C7.85973 203.003 7.9347 202.922 8.02957 202.871C10.1794 201.71 14.9304 199.89 23.6227 199.603C30.7887 199.058 34.7587 195.941 34.7587 193.935C34.7587 192.086 33.5978 169.406 33.4115 165.737C33.394 165.432 33.295 165.137 33.1248 164.884C31.9592 163.128 31.2922 161.089 31.1951 158.984C31.0979 156.879 31.5742 154.787 32.573 152.931C32.7032 152.683 32.772 152.408 32.7737 152.128V143.529C32.7741 143.294 32.7267 143.06 32.6343 142.844C32.5419 142.627 32.4065 142.431 32.2362 142.268C32.087 142.124 31.9119 142.01 31.7203 141.931C30.2871 141.365 27.908 140.125 26.9621 138.047C26.8518 137.785 26.6826 137.552 26.4676 137.367L26.3816 137.302C24.3537 135.869 15.8978 131.204 9.36245 122.619C8.98982 122.125 8.64585 121.623 8.25889 121.107V121.064L7.91492 120.555L7.87909 120.505L7.64261 120.39C3.18918 113.818 0.931467 106.003 1.19323 98.0684C1.90983 72.4285 23.0208 54.8432 24.5328 53.6393C24.5937 53.5882 24.6511 53.5331 24.7048 53.4745C24.9556 53.2094 25.7367 52.3494 26.7686 51.0739C27.0624 50.7084 27.3777 50.3143 27.7073 49.8915C30.5737 46.158 34.4434 40.1386 34.8733 34.5491C35.5469 25.5845 35.9769 22.109 35.9769 22.109C35.9769 22.109 39.481 -0.241666 61.8031 0.00197757C72.6595 0.123799 79.1232 2.43841 85.3433 11.0376C87.7118 14.3049 90.8338 16.9524 94.4441 18.7553C95.3877 19.1928 96.3749 19.5291 97.3893 19.7586C102.312 20.8406 116.315 25.6992 116.888 33.7466C116.899 33.8976 116.862 34.0484 116.782 34.1771C116.702 34.3059 116.584 34.406 116.444 34.4632C113.577 35.3876 100.392 32.1055 95.5333 30.3284C94.9962 30.1529 94.4758 29.9299 93.9783 29.662C93.816 29.5715 93.6388 29.5108 93.4552 29.4828C93.2181 29.4465 92.9783 29.4321 92.7386 29.4398C88.7686 29.5473 79.1591 34.2625 78.4066 36.6058C78.1185 37.9326 78.333 39.3192 79.0086 40.4969C79.3887 41.2787 79.8498 42.0185 80.3844 42.704C80.4461 42.7881 80.5012 42.8767 80.5493 42.9692L86.2175 53.84C86.2887 53.9734 86.3779 54.0964 86.4827 54.2054C88.009 55.8894 100.614 70.379 105.114 95.0515C105.125 95.1096 105.14 95.167 105.157 95.2235C105.695 97.1153 109.457 102.941 115.426 104.539C115.932 104.676 116.447 104.779 116.967 104.847C117.741 105.027 117.318 106.632 115.985 109.025Z" fill="#E8EFEF"/>
<path opacity="0.03" d="M27.693 49.8701C27.1842 51.1098 12.1428 87.6921 11.2113 101.121C10.2367 114.78 11.0679 121.136 9.24779 122.619C8.87516 122.125 8.53119 121.623 8.14423 121.107V121.064L7.80026 120.555L7.76443 120.505L7.64261 120.39C3.18918 113.818 0.931467 106.004 1.19323 98.0685C1.90983 72.4286 23.0208 54.8433 24.5328 53.6394C24.5937 53.5883 24.6511 53.5332 24.7048 53.4746C24.9556 53.2095 25.7367 52.3495 26.7686 51.074C27.0839 50.687 27.3634 50.2929 27.693 49.8701Z" fill="black"/>
<path opacity="0.03" d="M110.209 117.187C64.1821 98.1395 79.0229 40.5107 79.0229 40.5107C79.403 41.2926 79.8641 42.0323 80.3987 42.7179C80.4604 42.8019 80.5155 42.8905 80.5636 42.983L86.2319 53.8538C86.303 53.9872 86.3922 54.1102 86.497 54.2193C88.0233 55.9033 100.628 70.3929 105.129 95.0653C105.139 95.1234 105.154 95.1809 105.172 95.2373C105.752 97.2868 110.116 103.951 116.981 104.854C118.486 105.198 115.469 110.816 110.209 117.187Z" fill="black"/>
<path d="M90.9543 20.5322C90.9328 20.7327 90.8354 20.9173 90.6819 21.0482C90.7554 20.8676 90.8466 20.6947 90.9543 20.5322Z" fill="#63C6A0"/>
<path opacity="0.03" d="M96.4864 26.0135L95.5619 30.3131C95.0248 30.1376 94.5044 29.9145 94.0069 29.6466C93.8447 29.5561 93.6675 29.4955 93.4838 29.4675C93.2468 29.4311 93.0069 29.4167 92.7672 29.4245C90.8109 26.9021 88.8904 25.8773 86.9699 25.6337C77.4249 25.3542 78.8366 23.706 78.8366 23.706L89.8077 23.2188L96.4864 26.0135Z" fill="black"/>
<path opacity="0.03" d="M40.1618 139.366C39.3346 139.556 38.5848 139.994 38.012 140.62C37.7994 140.867 37.6648 141.171 37.625 141.494C37.6179 141.58 37.6179 141.666 37.625 141.752V143.235L32.6876 144.203V143.522C32.6881 143.286 32.6406 143.053 32.5483 142.836C32.4559 142.62 32.3205 142.424 32.1502 142.261C32.0009 142.117 31.8259 142.003 31.6343 141.924C30.2011 141.358 27.822 140.118 26.876 138.04C26.7657 137.778 26.5965 137.545 26.3816 137.359C27.0194 137.847 31.8994 141.122 40.1618 139.366Z" fill="black"/>
<path opacity="0.03" d="M86.0886 135.546C85.7256 135.77 85.4538 136.115 85.3218 136.52C85.0798 137.176 84.7674 137.803 84.3902 138.391C84.2975 138.545 84.2275 138.711 84.1824 138.885C84.1453 139.028 84.1261 139.175 84.1251 139.322V142.504L77.5969 145.922V143.321C77.6027 143.042 77.5406 142.766 77.4157 142.516C77.2909 142.266 77.1071 142.051 76.8803 141.888C76.6976 141.757 76.4904 141.665 76.2712 141.615C74.2146 141.135 70.4166 140.139 69.1482 139.043C68.7473 138.765 68.2745 138.608 67.7867 138.591C67.7867 138.591 77.862 140.053 86.0886 135.546Z" fill="black"/>
<path d="M116.917 33.7461C116.928 33.8972 116.891 34.0479 116.811 34.1766C116.731 34.3054 116.613 34.4055 116.472 34.4627H116.379C112.875 35.4229 96.2714 31.0015 94.007 29.64C93.8447 29.5495 93.6675 29.4888 93.4839 29.4608C93.3405 29.4178 92.4663 29.081 91.5777 27.0531C88.568 24.1867 81.4594 25.0753 79.9402 24.588C78.421 24.1007 78.6575 23.3698 79.3884 23.0616C87.6436 22.9326 90.0227 21.7646 90.7035 21.0551C90.8569 20.9243 90.9543 20.7397 90.9758 20.5392C92.0865 18.8194 94.4871 18.7764 94.4871 18.7764L94.6161 18.8265C94.9728 18.9955 95.3388 19.1438 95.7125 19.2708C96.2738 19.4784 96.8484 19.6484 97.4323 19.7796C102.327 20.8402 116.343 25.6987 116.917 33.7461Z" fill="#FFC033"/>
<path d="M54.3719 204.152C54.2219 204.343 54.0167 204.483 53.7843 204.554C51.6345 205.464 43.0354 202.633 38.2341 202.999C33.4329 203.364 29.2337 205.707 26.9477 205.865C24.6618 206.023 24.4468 203.242 23.0781 203.242C21.9889 203.242 12.2002 203.629 8.14421 203.787C8.03652 203.789 7.93126 203.755 7.84536 203.69C7.75947 203.625 7.69793 203.533 7.67063 203.429C7.64334 203.324 7.65189 203.214 7.69489 203.115C7.73789 203.016 7.81286 202.935 7.90774 202.884C10.0575 201.723 14.8086 199.903 23.5009 199.616C30.6669 199.072 34.6368 195.955 34.6368 193.948C34.6368 192.099 33.4759 169.419 33.2896 165.75C33.2721 165.445 33.1731 165.151 33.003 164.897C31.8374 163.142 31.1704 161.102 31.0732 158.997C30.976 156.892 31.4523 154.8 32.4512 152.944C32.5813 152.697 32.6501 152.422 32.6519 152.142V143.543C32.6523 143.307 32.6048 143.074 32.5125 142.857C32.4201 142.64 32.2847 142.444 32.1144 142.281C32.3079 142.461 33.7124 143.564 36.9586 141.88H37.0016L37.6107 141.536C37.6036 141.622 37.6036 141.708 37.6107 141.794V151.561C37.6081 151.943 37.7288 152.315 37.9547 152.622C38.8791 153.854 41.1579 157.824 38.2198 163.973C38.1039 164.217 38.0428 164.484 38.0407 164.754C38.0407 190.931 38.6498 190.931 38.6498 190.931C38.6498 190.931 38.4635 195.353 45.4503 199.108C51.4482 202.275 54.8664 203.343 54.3719 204.152Z" fill="#FFC033"/>
<path d="M108.31 203.33C98.0271 203.33 94.0356 203.215 92.4878 203.129C92.1933 203.108 91.8984 203.163 91.6312 203.288C91.364 203.414 91.1334 203.606 90.9614 203.846C90.381 204.706 89.4208 205.909 88.6397 205.995C87.5863 206.103 84.0749 204.383 83.1362 203.917C82.9786 203.838 82.8092 203.785 82.6346 203.76C81.0581 203.523 73.025 202.434 67.6577 203.86C67.5181 203.887 67.3768 203.904 67.2349 203.91C60.5204 204.713 64.777 201.452 66.4681 200.585C68.6609 199.46 70.8752 198.435 71.5416 198.156C71.6762 198.098 71.8017 198.02 71.9143 197.927L74.451 195.877C75.1311 195.327 75.6824 194.634 76.0662 193.848C76.4499 193.062 76.6569 192.201 76.6725 191.327C76.7871 184.118 77.2601 171.262 77.4536 166.196C77.5095 165.073 77.3414 163.95 76.9591 162.892C76.4503 161.538 75.9487 158.972 77.0379 155.053C77.413 153.682 77.601 152.267 77.5969 150.846V143.322C77.6027 143.043 77.5406 142.766 77.4157 142.517C77.2909 142.267 77.1071 142.051 76.8803 141.889C77.9582 142.062 79.0606 142.003 80.1137 141.715C81.1667 141.427 82.146 140.917 82.9857 140.219L83.0502 140.162C83.4835 139.778 83.8729 139.348 84.2111 138.879C84.2077 138.905 84.2077 138.932 84.2111 138.958C84.1822 139.075 84.1678 139.195 84.1681 139.316V151.763C84.1742 152.591 84.2558 153.416 84.4117 154.228C84.6984 155.762 84.9492 159.073 83.3727 163.824C83.3353 163.933 83.2873 164.039 83.2293 164.139C82.5139 165.67 82.017 167.293 81.7532 168.962C81.7461 169.062 81.7461 169.162 81.7532 169.263V193.326C81.7532 193.326 81.8177 197.776 87.7941 198.751C93.3692 199.661 106.254 199.775 108.719 202.656C108.78 202.721 108.819 202.804 108.828 202.893C108.838 202.982 108.818 203.072 108.771 203.149C108.725 203.225 108.655 203.284 108.571 203.317C108.488 203.35 108.396 203.354 108.31 203.33Z" fill="#FFC033"/>
<path d="M77.8907 12.5777C77.8907 14.0969 76.4073 15.3366 74.4868 15.523H74.2002H73.9781C71.8283 15.523 70.0654 14.1973 70.0654 12.5491C70.0654 10.9009 71.8211 9.5752 73.9781 9.5752C74.4039 9.57472 74.8279 9.63013 75.2393 9.74002C76.7799 10.1628 77.8907 11.2735 77.8907 12.5777Z" fill="#F2F9F9"/>
<path d="M77.8907 12.578C77.8907 14.1689 76.2568 15.4444 74.2002 15.5447C73.859 15.0721 73.6192 14.534 73.4958 13.9643C73.3725 13.3946 73.3683 12.8055 73.4836 12.234C73.6036 11.2661 74.0305 10.362 74.7018 9.6543C76.5291 9.90511 77.8907 11.1162 77.8907 12.578Z" fill="#63C6A0"/>
<path d="M77.8907 12.5783C77.8907 14.0975 76.4074 15.3372 74.4869 15.5235C73.8519 14.5824 73.6149 13.4283 73.8276 12.3132C73.9476 11.3452 74.3746 10.4411 75.0458 9.7334L75.2393 9.76923C76.78 10.1634 77.8907 11.2741 77.8907 12.5783Z" fill="#5ABA97"/>
<path d="M73.6914 12.1633C74.3404 12.1633 74.8666 11.8585 74.8666 11.4825C74.8666 11.1065 74.3404 10.8018 73.6914 10.8018C73.0423 10.8018 72.5162 11.1065 72.5162 11.4825C72.5162 11.8585 73.0423 12.1633 73.6914 12.1633Z" fill="white"/>
<path d="M72.7455 13.1584C72.975 13.1584 73.1611 12.9723 73.1611 12.7428C73.1611 12.5132 72.975 12.3271 72.7455 12.3271C72.5159 12.3271 72.3298 12.5132 72.3298 12.7428C72.3298 12.9723 72.5159 13.1584 72.7455 13.1584Z" fill="white"/>
<path d="M112.674 98.054C114.166 101.496 115.03 105.178 115.225 108.925C115.405 114.701 111.119 107.492 112.309 113.389C113.498 119.287 111.234 115.238 103.617 111.662C70.5241 95.2521 78.3207 44.9827 79.0301 40.848C79.0304 40.8248 79.0388 40.8024 79.0538 40.7847C79.0687 40.7669 79.0894 40.7549 79.1122 40.7507C79.135 40.7465 79.1586 40.7503 79.1789 40.7615C79.1992 40.7727 79.215 40.7906 79.2236 40.8121C81.3877 44.1085 105.946 81.8588 112.674 98.054Z" fill="#C9C9C9"/>
<path d="M9.54876 107.619C9.64191 109.087 9.64191 110.559 9.54876 112.026C9.23345 117.551 9.13313 122.553 7.52795 120.626V120.583C7.40164 120.421 7.28671 120.251 7.18398 120.074L7.14816 120.024C7.14816 120.024 7.14815 119.966 7.09799 119.93H7.01917C2.56448 113.361 0.30658 105.549 0.569789 97.6156C1.28639 71.9757 22.3974 54.3904 23.9094 53.1866C23.9702 53.1354 24.0277 53.0804 24.0814 53.0217C24.282 52.8139 24.798 52.2406 25.5146 51.3879C25.7176 51.1437 25.9686 50.9439 26.2522 50.8008C26.5357 50.6578 26.8457 50.5747 27.1627 50.5566C27.1627 50.5566 8.52402 92.2411 9.54876 107.619Z" fill="#C9C9C9"/>
<path d="M108.654 202.678C105.351 200.951 99.9117 200.886 91.6279 200.163C89.3826 200.211 87.1444 199.896 84.9993 199.231C83.7299 198.769 82.6375 197.92 81.8764 196.804C81.1152 195.688 80.7237 194.361 80.7571 193.011C80.8789 187.837 81.101 175.906 80.7571 171.377C80.3271 165.522 81.9753 163.387 82.9069 160.585C83.8384 157.783 82.9069 152.53 82.9069 152.53C82.9069 152.53 82.9069 149.728 82.9069 140.226C83.3678 139.873 83.7735 139.453 84.1108 138.979C84.0819 139.097 84.0675 139.217 84.0678 139.338V151.742C84.0604 152.538 84.1324 153.332 84.2827 154.114C84.5837 155.583 84.899 158.951 83.2723 163.845L83.129 164.161C82.4136 165.691 81.9167 167.315 81.6528 168.983C81.6458 169.084 81.6458 169.184 81.6528 169.284V193.348C81.6528 193.348 81.7173 197.798 87.6937 198.772C93.2689 199.682 106.153 199.797 108.618 202.678H108.654Z" fill="#FFCD50"/>
<path d="M54.372 204.153C41.9247 198.943 39.3592 195.611 38.3202 193.404C37.2811 191.197 36.5143 165.643 37.6896 162.899C39.3807 157.689 38.1195 154.608 37.3886 153.389C37.0999 152.896 36.9512 152.334 36.9586 151.763V141.888H37.0016L37.6107 141.544C37.6037 141.63 37.6037 141.716 37.6107 141.802V151.569C37.6082 151.95 37.7288 152.322 37.9547 152.63C38.8791 153.862 41.1579 157.832 38.2199 163.981C38.104 164.225 38.0428 164.491 38.0407 164.762C38.0407 190.939 38.6498 190.939 38.6498 190.939C38.6498 190.939 38.4635 195.36 45.4503 199.115C51.4482 202.276 54.8664 203.343 54.372 204.153Z" fill="#FFCD50"/>
<path d="M116.917 33.7458C116.928 33.8969 116.891 34.0476 116.811 34.1763C116.731 34.3051 116.613 34.4052 116.472 34.4624H116.379C116.221 33.9464 116.057 33.323 115.899 32.5706C114.81 27.4899 100.076 21.062 95.6981 19.249C96.2594 19.4566 96.834 19.6266 97.4179 19.7578C102.327 20.8399 116.343 25.6984 116.917 33.7458Z" fill="#FFCD50"/>
<path d="M115.985 109.025C115.889 107.516 115.692 106.015 115.397 104.532C115.904 104.669 116.418 104.772 116.938 104.84C117.741 105.027 117.318 106.632 115.985 109.025Z" fill="#E2E2E2"/>
<path d="M114.093 112.041C113.692 112.636 113.248 113.252 112.782 113.883C112.617 113.08 112.338 111.453 112.782 111.64C113.208 111.808 113.646 111.942 114.093 112.041Z" fill="#E2E2E2"/>
</svg>
