<?xml version="1.0" encoding="UTF-8"?><svg id="Calque_2" xmlns="http://www.w3.org/2000/svg" viewBox="0 0 594.31 551.47"><defs><style>.cls-1{fill:#fff;}.cls-2{fill:#82d16f;}.cls-3{fill:#b2b2b2;}.cls-4{fill:#a5853d;}.cls-5{fill:#593636;}.cls-6{fill:#c9c9c9;}.cls-7{fill:#458c6f;}.cls-8{fill:#63c6a0;}.cls-9{fill:#408269;}.cls-10{fill:#302826;}.cls-11{fill:#f2f9f9;}.cls-12{fill:#ff6e79;opacity:.35;}.cls-13{opacity:.03;}.cls-14{fill:#5aba97;}.cls-15{fill:#ffc033;}.cls-16{fill:#c49b4b;}.cls-17{fill:#ffb624;}.cls-18{fill:#4f2f2f;}.cls-19{fill:#e9f4f4;}.cls-20{fill:#ffcd50;}.cls-21{fill:#e8efef;}.cls-22{fill:#846934;}.cls-23{fill:#f5ffff;}</style></defs><g id="Calque_1-2"><g><path class="cls-21" d="M575.24,432.16c-2.87,1.47-5.65,2.76-8.31,3.89-20.31,8.64-33.92,7.93-33.92,7.93,0,0-15.86,2.11-28.9,9.68-67.88,68.7-160.19,66.57-194.74,64-5.03-.36-8.83-.76-11.16-.93-.95-.07-1.66-.12-2.11-.1-.52,.48-1.09,.99-1.71,1.54-2.83,2.44-6.72,5.41-10.99,8.52-13.31,9.75-30.28,20.79-30.28,20.79-38.19,17.25-47.77-26.61-47.8-30.76-.09-6.67,18.11-4.23,20.91-8.21,16.83-13.36,52.52-23.42,52.52-23.42,0,0,16.25-16.82,27.81-22.36-63.86-1.4-157.98-55.51-182.64-65.57-24.68-10.04-65.05,.69-97.06-2.77-31.99-3.46-18.42-17.28-15.28-24.56,3.15-7.26-1.94-7.36-9.87-17.64-7.66-9.89,13.13-5.2,7.21-19.94-3.56-8.81-10.89-9.25-.1-18.25,16.12-13.5,169.76-22.12,199.56-23.47,29.67-1.36,114.2,43.43,143.51,69.34,.05,1.07,.1,2.18,.16,3.32l.16,3.34c.78,16.21,1.8,37.48,3.13,65.38l21.9,11.41s19.14,2.98,56.04-7.59c44.9-9.76,54.72-41.94,54.72-41.94,0,0,22.48-22.28,52-11.53,20.81,7.57,31.18,36.26,34.27,46.37,.66,2.23,.98,3.56,.98,3.56Z"/><path class="cls-13" d="M555.66,428.96s-.98,1.06,4,3.28,5.6,2.09,6.42,4.17l3.33-.43-2.51-2.98-7.64-2.26-3.6-1.79Z"/><path class="cls-15" d="M594.16,452.18c-.02,.08-.03,.15-.05,.23-.08,.33-.37,.61-.71,.61-.04,0-.08,.01-.11,0-4.15-.1-20.9-10.18-22.93-12.41-.13-.15-.16-.18-.33-.37,0,0-.18-.19-.19-.21-.14-.09-2.63-1.56-2.94-4.07-2.35-4.14-8.79-4.66-10.29-5.69-1.51-1.04-1.01-1.76-.11-1.86,9.08,2.57,12.07,2.07,13.05,1.51,.36-.2,.45-.41,.46-.47,0-.01,0-.02,0-.02,1.62-1.38,3.96-.89,4.36-.8,.04,.01,.06,.02,.06,.02h.01s.04,.03,.12,.1c.34,.3,.69,.58,1.06,.84,.55,.42,1.12,.79,1.71,1.12,5,2.78,18.55,12.53,16.82,21.47Z"/><g><path class="cls-11" d="M564.09,419.79c-.81,1.54-2.98,2-5.02,1.17-.1-.04-.2-.09-.3-.13-.08-.03-.16-.07-.23-.11-2.19-1.15-3.26-3.43-2.38-5.1s3.37-2.08,5.55-.92c.24,.13,.47,.27,.68,.43,.18,.13,.35,.27,.51,.41,1.35,1.22,1.88,2.94,1.19,4.26Z"/><path class="cls-8" d="M564.09,419.79c-.85,1.61-3.19,2.05-5.33,1.04-.25-1.07,.1-2.5,1.02-3.75,.75-1.01,1.7-1.7,2.61-1.96,1.71,1.23,2.47,3.2,1.69,4.68Z"/><path class="cls-14" d="M564.09,419.79c-.81,1.54-2.98,2-5.02,1.17-.19-1.05,.17-2.41,1.05-3.61,.75-1.01,1.7-1.7,2.61-1.96,.06,.04,.12,.09,.18,.14,1.35,1.22,1.88,2.94,1.19,4.26Z"/><ellipse class="cls-1" cx="560.42" cy="416.43" rx=".78" ry="1.34" transform="translate(-69.3 717.99) rotate(-62.2)"/><circle class="cls-1" cx="558.79" cy="417.2" r=".47"/></g><path class="cls-13" d="M319.14,488.91s-2.86,4.49-1.87,9.61c.75-.54-1.04-3.31,1.87-9.61Z"/><path class="cls-13" d="M322.09,503.99s-1.42,1.61-1.35,3.72c.33-.17-.21-1.38,1.35-3.72Z"/><path class="cls-13" d="M328.36,503.26s-5.04,1.71-9.78-.47c.7-.6,2.96,1.8,9.78,.47Z"/><path class="cls-13" d="M332.12,511.05s-5.04,1.71-9.78-.47c.7-.6,2.96,1.8,9.78,.47Z"/><path class="cls-13" d="M318.89,502.17l-14.37,6.49-1.8,2.42,.98,2.56,9.83-2.56,8.21-5.23,.19-1.96s-.98,1.47-2.04,1.81-10.03,6.15-13.04,5.38c-.74-.39,7.87-5.14,11.88-7.79l.16-1.12Z"/><path class="cls-13" d="M317.07,497.13s-9.74,6.59-14.08,6.2-9.52-.33-17.65,1.49-26.52,1.95-25.88,5.62,6.26,5.16,6.26,5.16c0,0-2.81,.81-1.02,3.49s17.99,8.11,17.99,8.11l8.62-8.11,7.98-6.57s16.66-11.94,16.85-11.94,1.03-2.77,1.03-2.77l-.09-.68Z"/><path class="cls-15" d="M318.12,497.14s-10.59,7.6-15.42,7.47-8.22-2.06-15.79,.84c-7.57,2.9-29,2.2-26.22,5.46,2.79,3.25,15.69,8.83,21.58,8.96,5.89,.13,19.03-2.08,20.53-7.46,1.44-3.57,17.26-10.17,17.26-10.17l-2.15-5.57,.21,.47Z"/><path class="cls-15" d="M322.59,503.99l.18,.49h.03s-.22-.49-.22-.49Z"/><path class="cls-17" d="M268.19,515.62l.63,.47c5.97-1.04,17.62-1.34,22.77-3.32,5.4-2.07,8.68-1.68,11.87-1.24l1.07-1.08s-8.87-.31-13.31,1.61c-3.8,1.13-23.03,3.55-23.03,3.55Z"/><path class="cls-15" d="M322.81,504.46s-10.59,7.6-15.42,7.47-8.22-2.06-15.79,.84c-7.57,2.9-29,2.2-26.22,5.46s15.69,8.83,21.58,8.96c5.89,.13,19.03-2.08,20.53-7.46,1.44-3.57,17.26-10.17,17.26-10.17l-2.15-5.57,.21,.47Z"/><path class="cls-13" d="M302.1,465.23s14.42,.43,40.18-7.8c15.23-4.87,25.99-9.05,29.86-10.6,1.02-.41,2.15-.42,3.18-.03l2.98,1.13,6-8.77h-8.81l-35.25,6.14-32.02,11.36-6.12,8.57Z"/><path class="cls-13" d="M355.75,452.92s29.45,20.97,39.7,59.16l15.87-4.01s-16.91-40.53-41.98-60.14l-13.59,4.99Z"/><path class="cls-3" d="M359.43,430.76s-35,11.55-52.87,31.96c-63.86-1.4-157.98-55.51-182.64-65.57-24.68-10.04-65.05,.69-97.06-2.77-31.99-3.46-18.42-17.28-15.28-24.56,3.15-7.26-1.94-7.36-9.87-17.64-7.66-9.89,13.13-5.2,7.21-19.94-3.56-8.81-10.89-9.25-.1-18.25,16.12-13.5,169.76-22.12,199.56-23.47,29.67-1.36,117.64,45.06,146.95,70.97,.05,1.07-3.34,.55-3.28,1.69l.16,3.34c.78,16.21,5.9,36.36,7.23,64.25Z"/><g><path class="cls-13" d="M295.6,461.99c-.73-.07-1.37-.51-1.7-1.16-.78-1.56-2.42-4.29-4.19-4.17-2.47,.17-12.94-.51-11.23-5.36s6.25-23.7,37.26-35.86c.96-.38,1.54-1.37,1.34-2.39-3.73-19.5-4.51-51.27-4.63-57.64-.01-.7-.36-1.34-.95-1.73-3.28-2.21-13.94-10.19-9.77-18.13,.53-1,1.79-1.37,2.81-.87,1.29,.64,2.85,1.89,4.26,3.16s3.71,.18,3.57-1.75h0c-.12-1.73,1.74-2.88,3.23-2l2.41,1.43c.68,.4,1.09,1.14,1.05,1.94-.2,4.32-.75,18.45,.06,24.82,.22,1.74,.39,3.48,.52,5.12,.17,2.19,3.12,2.76,4.07,.77,3.23-6.8,8.17-14.5,13.07-11.85,8.11,4.39,3.9,24.64-12.39,33.65-.82,.46-1.23,1.41-1.02,2.33,1.13,4.9,2.37,11.26,3.1,15.04,.28,1.49,1.97,2.22,3.25,1.41,4.53-2.86,14.32-7.68,24.92-4.24,.26,.09,.51,.23,.73,.4,14.77,12.06,12.66,21.77,11.74,24.33-.15,.41-.42,.76-.78,1.01l-27.97,19.79c-.19,.13-.39,.23-.61,.3l-38.76,11.82c-.27,.08-.55,.11-.84,.08l-2.53-.25Z"/><path class="cls-4" d="M288.57,454.86c.22-.04,.45-.06,.68-.04,.57,.03,1.12,.23,1.58,.57,3.53,2.61,7.86,8.89,13.51,9.25,6.04,.39,55.96-10.92,84.39-27.19,3.51-2,6.61-4.66,9.01-7.9,7.06-9.52,9.1-20.98,9.6-24.71,.09-.67,.4-1.29,.9-1.74,.03-.04,.08-.08,.12-.11,.5-.41,1.14-1.04,1.69-1.89,1.02-1.59,.28-3.71-1.5-4.35-4.92-1.75-16.39-3.99-31.46,4.99-15.49,9.23-23.75,13.91-26.8,15.62-.9,.51-1.89,.84-2.92,.99-8.44,1.21-49.41,7.69-58.64,20.64-8.49,11.8-5.9,16.98-.17,15.87Z"/><path class="cls-16" d="M288.57,454.86c.22-.04,.45-.06,.68-.04,43.15-12.68,47.79-21.7,57.28-28.12,9.78-6.62,31.28-22.52,42.04-25.04,11.11-1.92,17.08,.05,19.68,1.44,.03-.04,.08-.08,.12-.11,.5-.41,1.14-1.04,1.69-1.89,1.02-1.59,.28-3.71-1.5-4.35-4.92-1.75-16.39-3.99-31.46,4.99-15.49,9.23-23.75,13.91-26.8,15.62-.19,.11-.38,.21-.58,.3-.74,.34-1.53,.58-2.33,.69-8.44,1.21-49.41,7.69-58.64,20.64-3.4,4.72-5.02,8.38-5.38,11-.53,3.93,1.78,5.53,5.21,4.87Z"/><path class="cls-22" d="M346.3,420.96l-15.87,1.58-20.74,5.52-13.53,5.57-9.74,9.69-2.82,5.72-.27,1.2c39.04-2.83,66.25-32.52,66.25-32.52l-3.28,3.24Z"/><path class="cls-4" d="M283.33,450.24s.39-.03,.39-.03c3.07-6.42,10.37-13.14,17.98-17.23,18-8.66,44.6-12.02,44.6-12.02l3.41-3.3c-.74,.34-1.53,.58-2.33,.69-8.44,1.21-49.41,7.69-58.64,20.64-3.4,4.72-5.04,8.63-5.4,11.25Z"/><g><g><path class="cls-14" d="M317.74,357.47c-1.21,16.77,6.58,47.87,10.06,60.73,.98,3.62,1.62,5.8,1.62,5.8l-6.54,1.22s-8.78-41.36-7.97-57.15c.81-15.79-3.22-47.81-3.22-47.81l2.24-1.81,.9-.73s4.46,18.26,2.91,39.75Z"/><path class="cls-8" d="M317.74,357.47c-1.21,16.77,6.58,47.87,10.06,60.73l-1.39,1.18s-11.34-43.64-9.69-59.23c1.56-23.3-1.48-37.07-2.78-41.7l.9-.73s4.46,18.26,2.91,39.75Z"/><path class="cls-14" d="M333.64,380.21c-5.31,6.63-13.13,10-13.13,10l-1.39-7.55s5.28-14.46,10.43-21.49c3.27-4.46,6.49-5.93,8.27,1.23,1.84,7.41-.6,13.35-4.18,17.82Z"/><path class="cls-14" d="M316.19,352.15s-.62-.13-1.6-.43c-3.68-1.13-12.42-4.69-12.12-13.02,.06-1.57,.37-2.48,.87-2.88,2.85-2.3,11.62,11.77,11.62,11.77l1.23,4.56Z"/><path class="cls-2" d="M332.19,383.15c.15-.23,.3-.46,.44-.69-.14,.24-.29,.47-.44,.69Z"/><path class="cls-8" d="M333.64,380.21c3.26-6.66,5.39-14.99,1.88-21.29-1.54-2.77-5.97,2.25-5.97,2.25h0c3.27-4.47,6.49-5.93,8.27,1.22,1.84,7.41-.6,13.35-4.18,17.82Z"/><g><path class="cls-20" d="M330.22,272.19c-.96,10.01-7.76,15.25-19.92,17.9-4.35,.95-9.16-.69-13.09-3.88-7.03-5.72-11.22-16.39-4.87-26.03,0,0,3.89-6.21,11.33-9.1,2.98-1.16,6.54-1.78,10.65-1.24,14.34,1.86,16.86,12.35,15.9,22.36Z"/><path class="cls-15" d="M297.21,286.2c-7.03-5.72-11.22-16.39-4.87-26.03,0,0,3.89-6.21,11.33-9.1-7.48,5.06-18.29,16.36-6.46,35.13Z"/></g><path class="cls-10" d="M310.44,273.13c.91,.86,2.37,.68,3.38,.11,.34-.22,.64-.49,.82-.9,.04-.09,.14-.13,.23-.09,.05,.02,.09,.07,.1,.13,.05,.28,0,.57-.11,.84-.72,1.56-3.09,2.01-4.33,.82-.18-.18-.66-.84-.26-.97,.07-.01,.14,.01,.19,.07h0Z"/><path class="cls-10" d="M315.66,268.69c-.17-2.09,1.57-3.94,3.55-4.48,1.57-.46,3.53-.18,4.8,1.01,.45,.4,.81,.95,.88,1.57,.11,.87-.95,1.45-1.62,.91-.35-.24-.63-.55-.87-.84-.72-.8-1.76-1.24-2.91-1.18-1.64,.08-3.22,1.32-3.5,3.03-.02,.19-.31,.18-.32,0h0Z"/><path class="cls-10" d="M307.86,270.21c-.87-1.49-2.8-2.07-4.35-1.56-1.09,.36-1.9,1.15-2.29,2.15-.26,.84-.81,2.02-1.89,1.44-.79-.52-.56-1.68-.2-2.39,.75-1.57,2.48-2.54,4.11-2.67,2.04-.21,4.33,.89,4.93,2.9,.05,.18-.21,.29-.3,.13h0Z"/><path class="cls-23" d="M312.16,249.65h0c-.16,0-.33,0-.49-.01-2.13-.03-4.08,.25-5.87,.74-.2,.05-.4,.11-.6,.17-.59-2.88-2.4-12.29-2.69-20.4h0c-.27-7.45,.74-13.8,5.15-12.97,2.3,.43,3.78,2.37,4.69,5.11,2.74,8.2,.43,23.58-.2,27.36Z"/><path class="cls-23" d="M326.92,245.04h0c-2.44,3.63-4.56,6.35-5.05,6.96-.01,.02-.02,.03-.03,.04-.93-.48-1.95-.9-3.07-1.25h0c-.69-.22-1.42-.41-2.19-.58l-1.08-.4s3.31-11.57,7.64-20.31c3.27-6.59,7.12-11.56,10.58-8.77,5.28,4.26-1.5,16.43-6.79,24.32Z"/><path class="cls-23" d="M323.13,229.5c-.72,9.91-4.31,21.29-4.31,21.29h-.06s0,0,0,0c-.69-.22-1.42-.41-2.19-.57-.72-.15-1.47-.28-2.25-.38-.74-.09-1.46-.15-2.16-.18h0c-.16,0-.33,0-.49-.01-.33-4.3-1.22-18.57,.69-27.35,1.04-4.81,2.93-7.98,6.21-6.93,4.21,1.34,5.05,7.4,4.56,14.14Z"/><path class="cls-23" d="M335.2,249.81c-3.98,2.54-7.77,4.49-9.31,5.26-.12-.13-.25-.26-.37-.38-.99-.97-2.16-1.84-3.53-2.56h0s-.12-.13-.12-.13l-.83-.86s2.46-2.75,5.87-6.1h0c6.79-6.66,17.37-15.68,19.99-10.15,2.22,4.7-5,10.64-11.7,14.92Z"/><path class="cls-23" d="M358.29,247.16c.44,3.89-3.84,6.84-9.33,8.99h0c-7.04,2.77-16.07,4.24-19.66,4.75-.05-.16-.11-.31-.16-.46-.71-1.98-1.76-3.79-3.24-5.36-.12-.13-.25-.26-.37-.38,1.45-.79,5.2-2.81,9.68-4.88,9.54-4.41,22.36-9.06,23.08-2.65Z"/><path class="cls-23" d="M362.5,272.2c-1.46,4.44-8.46,4.84-15.7,3.96,0,0,0,0,0,0-6.8-.84-13.81-2.81-16.62-3.66,.01-.1,.02-.2,.03-.31,.02-.21,.04-.42,.06-.63,.09-1.16,.14-2.33,.12-3.49-.01-.93-.07-1.85-.17-2.75,4.65-.31,20-1.06,27.82,1.48,3.36,1.1,5.32,2.8,4.46,5.4Z"/><path class="cls-23" d="M365.41,260.49c-.35,3.14-3.3,5.11-7.37,6.31-9.06,2.69-23.67,1.63-27.65,1.27-.01-.93-.07-1.85-.17-2.75-.17-1.53-.47-3.01-.94-4.42-.05-.16-.11-.31-.16-.46,3.22-.9,11.81-3.19,19.82-4.28h0c8.87-1.2,17.04-.92,16.45,4.34Z"/><path class="cls-23" d="M359.71,287.29c-1.31,1.92-3.67,2.49-6.52,2.23-8.31-.76-20.89-8.59-24.62-11.02,.05-.11,.1-.22,.15-.34,.75-1.69,1.24-3.57,1.46-5.67,.01-.1,.02-.2,.03-.31,.02-.21,.04-.42,.06-.63,2.55,.56,9.79,2.23,16.53,4.6,0,0,0,0,0,0,8.29,2.92,15.82,6.89,12.9,11.13Z"/><path class="cls-23" d="M345.07,310.48c-4.95,2.64-11.66-4.44-16.76-11.47,0,0,0,0,0,0-4.3-5.93-7.46-11.82-7.46-11.82l1.8-1.91s.07-.05,.1-.07c.88-.61,1.69-1.26,2.42-1.97h0c.21-.2,.41-.41,.6-.62,1.32,1.09,6.22,5.2,10.97,9.98,6.85,6.9,13.36,15.21,8.32,17.9Z"/><path class="cls-23" d="M355.95,296.77c-3.55,4.15-12.01,.34-19.2-4.18-6.43-4.04-11.85-8.65-11.85-8.65l.28-.71h0c.21-.2,.41-.41,.6-.62,1.14-1.22,2.06-2.58,2.78-4.11,.05-.11,.1-.22,.15-.34,4.28,1.44,17.9,6.25,24.47,11.36,3.16,2.46,4.69,4.99,2.77,7.25Z"/><path class="cls-23" d="M328.06,318.97c-2,.08-3.66-1.06-5.03-2.93-5.04-6.85-6.3-23.65-6.53-27.71,.1-.04,.21-.07,.31-.11,2.22-.83,4.17-1.8,5.85-2.94,.03-.02,.07-.05,.1-.07,.45,.96,3.23,7.05,5.55,13.8,0,0,0,0,0,0,3.18,9.26,5.51,19.75-.25,19.97Z"/><path class="cls-23" d="M323.03,316.04c.02,4.45-1.09,7.54-4.32,7.35-2.23-.13-3.93-1.65-5.21-3.98-4.32-7.84-4-24.86-3.85-29.21h0c.21-.03,.43-.07,.64-.12,.99-.21,1.94-.45,2.86-.7h0c1.17-.32,2.27-.67,3.33-1.05,.1-.04,.21-.07,.31-.11,1.29,3.79,6.17,18.67,6.22,27.82Z"/><path class="cls-23" d="M309.3,290.26c-.25,2.9-1.54,16.44-4.55,25.48-1.92,5.75-4.54,9.68-8.05,7.87-4.94-2.55-3.37-11.58-.65-19.82,2.2-6.67,5.17-12.83,6.06-14.62,.38,.16,.76,.3,1.15,.43,1.9,.63,3.84,.89,5.72,.7,.11,0,.22-.02,.32-.04Z"/><path class="cls-23" d="M315.85,289.41s1.47,21.79-2.35,30.01c-1.1,2.38-2.65,3.62-4.8,2.88-2.4-.83-3.56-3.31-3.95-6.56-1.01-8.35,3.06-21.79,4.23-25.44,.11,0,.22-.02,.32-.04,.12-.01,.23-.03,.35-.05h0c.21-.03,.43-.07,.64-.12,.99-.21,1.94-.45,2.86-.7h0s2.68,.02,2.68,.02Z"/><path class="cls-23" d="M303.26,289.59c-.74,1.68-3.64,8.09-7.2,14.2-4.59,7.86-10.3,15.22-13.99,11.38-4.38-4.57,2.78-14.75,8.77-21.76,0,0,0,0,0,0,3.02-3.53,5.75-6.25,6.55-7.04,.14,.11,.27,.21,.41,.32h0c1.36,1.03,2.81,1.87,4.3,2.49,.38,.16,.76,.3,1.15,.43Z"/><path class="cls-23" d="M289.24,269.42c-.11,2.28,.23,4.51,.92,6.62-5.71,.55-34.82,2.95-32.2-5.81,1.52-5.1,10.49-5.08,18.69-3.91,5.24,.75,10.17,1.96,12.62,2.62-.01,.16-.02,.32-.03,.48Z"/><path class="cls-23" d="M290.97,262.59c-.06,.12-.12,.25-.17,.37-.9,1.99-1.39,4-1.54,5.98-.01,.16-.02,.32-.03,.48-2.23-.45-7.29-1.54-12.59-3.1-9.35-2.74-19.47-6.96-16.29-11.76,2.3-3.48,8.08-2.62,14.08-.39,0,0,0,0,0,0,6.77,2.5,13.83,6.74,16.53,8.43Z"/><path class="cls-23" d="M294.63,257.31c-.1,.11-.2,.21-.3,.32-1.32,1.46-1.99,2.54-1.99,2.54-.53,.8-.98,1.61-1.37,2.42-.06,.12-.12,.25-.17,.37-2.72-1.25-10.16-4.78-16.36-8.8,0,0,0,0,0,0-6.6-4.28-11.79-9.1-8.4-12.3,5.35-5.05,18.15,5.53,24.78,11.73,0,0,0,0,.01,0,1.84,1.72,3.21,3.1,3.8,3.71Z"/><path class="cls-23" d="M299.83,253.01c-.16,.1-.32,.2-.47,.3-2,1.31-3.58,2.77-4.73,4-.1,.11-.2,.21-.3,.32-.41-.45-1.74-1.94-3.5-4.03,0,0,0,0-.01,0-6.81-8.1-20.11-25.34-12.32-28.1,5.4-1.91,11.09,5.99,15.25,13.87,3.18,6.01,5.47,12.01,6.08,13.65Z"/><path class="cls-23" d="M297.88,286.75s-2.96,3.03-7.03,6.65c0,0,0,0,0,0-7.82,6.96-19.68,16.08-22.25,9.92-2.24-5.37,6.3-11.65,13.99-16.04,4.85-2.76,9.37-4.77,10.63-5.32,.15,.21,.31,.42,.47,.62,1.05,1.35,2.24,2.56,3.53,3.61,.06,.05,.13,.1,.19,.15,.14,.11,.27,.21,.41,.32h0s.06,.08,.06,.08Z"/><path class="cls-23" d="M293.68,282.59c-.67,.32-5.35,2.51-11.09,4.7-10.29,3.93-24.02,7.88-24.32,1.13-.43-9.67,26.22-11.96,31.91-12.34,.69,2.12,1.74,4.11,3.04,5.89,.15,.21,.31,.42,.47,.62Z"/><ellipse class="cls-12" cx="301.56" cy="275.88" rx="1.96" ry="1.03" transform="translate(-45.52 60.05) rotate(-10.58)"/><ellipse class="cls-12" cx="324.65" cy="271.56" rx="1.96" ry="1.03" transform="translate(-44.34 64.22) rotate(-10.58)"/><path class="cls-23" d="M305.8,250.37c-.2,.05-.4,.11-.6,.17-.53,.16-1.04,.33-1.53,.53-1.41,.55-2.69,1.21-3.84,1.93-.16,.1-.32,.2-.47,.3-.82-1.79-3.45-7.64-5.61-13.95-3.11-9.09-5.25-19.14,.39-19.37,3.97-.16,6.61,4.43,8.37,10.16h0c2.31,7.54,3.09,17.04,3.29,20.23Z"/><path class="cls-19" d="M302.51,230.14l-.04-1.43s3.49,4.99,4.01,21.48l-.68,.17s.87-7.97-3.29-20.23Z"/><path class="cls-19" d="M299.36,253.31l-.45,.31s-2.66-4.04-5.94-15.71l1.09,2.34s3.44,9.23,5.3,13.07Z"/><path class="cls-19" d="M323.72,228.36s-.61,9.11-4.16,22.69c-.45-.16-.75-.26-.75-.26,0,0,1.93-3.7,4.32-21.29l.59-1.13Z"/><path class="cls-19" d="M312.36,222.29l.2-.87s1.59,18.08,.5,28.3l-.9-.08s1.18-6.6,.2-27.36Z"/><path class="cls-19" d="M290.82,253.59l-.73-.68s1.18,2.01,4.04,4.98l.37-.45s-1.75-1.29-3.68-3.85Z"/><path class="cls-19" d="M274.44,254.16l-1.03-.68s7.34,2.43,17.61,8.91l-.22,.56s-9.7-5.89-16.36-8.8Z"/><path class="cls-19" d="M276.65,266.31l-1.54-.2s2.03,1.31,14.12,3.68v-.38s-8.2-1.72-12.57-3.1Z"/><path class="cls-19" d="M284.95,276.54s4.02-.4,5.21-.5l.11,.32s-3.35,.55-6.37,.3l1.06-.12Z"/><path class="cls-19" d="M282.39,287.36s6.09-2.09,11.28-4.77l.28,.35s-4.6,3.15-12.79,5.17l1.22-.75Z"/><path class="cls-19" d="M297.82,286.68s-3.91,2.96-6.97,6.73l-1.39,1.22s2.57-3.41,7.84-8.35c.61,.47,.52,.4,.52,.4Z"/><path class="cls-19" d="M296.06,303.78s6.6-11.86,7.2-14.2l.76,.23s-5.13,10.51-8.39,15.28l.42-1.32Z"/><path class="cls-19" d="M309.3,290.26s-5.14,14.84-4.55,25.48c-.31,.9-.39,1.12-.39,1.12,0,0-.77-11.96,4.45-26.54l.5-.05Z"/><path class="cls-19" d="M313.5,319.42s4.81-12.86,1.55-30.59c.36-.12,.27-.09,.27-.09,0,0,3.45,15.68-1.66,31-.14-.25-.16-.32-.16-.32Z"/><path class="cls-19" d="M323.03,316.04s-5.4-9.07-6.58-16.08v1.02s.45,4.13,6.58,15.54v-.48Z"/><path class="cls-19" d="M322.76,285.2s2.64,5.63,5.55,13.8l.28,.38s-2.01-6.5-5.59-14.34l-.24,.17Z"/><path class="cls-19" d="M336.75,292.59s-8.46-5.58-11.57-9.36l-.24,.24s3.11,3.64,13.12,10.47l-1.31-1.34Z"/><path class="cls-19" d="M328.72,278.17s17.41,5.59,24.47,11.36c.56,.04-5.03-5.02-24.3-11.77l-.17,.41Z"/><path class="cls-19" d="M346.81,276.16s-8.4-1.59-16.54-4.61l-.04,.43s7.58,2.85,17.7,4.58l-1.12-.4Z"/><path class="cls-19" d="M330.22,265.32s18.25-1.84,27.82,1.48l.66-.21s-9.89-3.22-28.53-1.77l.06,.49Z"/><path class="cls-19" d="M326.92,245.04s-1.58,4-4.81,7.15c.4,.23,.24,.13,.24,.13,0,0,3.64-4.06,5.32-8.01l-.75,.73Z"/><path class="cls-19" d="M336.44,249s-6.45,3.01-10.06,6.62c.17,.21,.17,.2,.17,.2,0,0,4.79-4.21,8.65-6.01l1.24-.81Z"/><path class="cls-19" d="M329.29,260.89s5.9-.72,19.66-4.74l.81-.1s-5.47,2.28-20.31,5.35l-.16-.5Z"/></g><g><path class="cls-18" d="M340.01,428.87l-6.55,4.27c-26.66,16.17-44.85,16.43-44.85,16.43l1.98-4.97s7.22-15.68,11.58-16.55c4.36-.87,3.53-5.76,5.84-4.95,2.32,.81,14.82-8.19,16.1-8.09,.73,.05,2.79-1.9,5.21-3.22,1.8-.99,5.74-4.24,7.53-3.4,4.19,1.96,8.9-3.57,11.74-2.78,2.84,.79,15.07,4.27,15,4.64-.08,.44-11.26,8.47-12.7,9.67-1.73,1.44-2.21,1.94-4.17,3.6-.65,.55-5.59,4.55-6.7,5.34Z"/><g><path class="cls-9" d="M322.27,418.65c-.88,.59-1.21,.58-.34,2.06,.87,1.47,.25,4.12-.35,3.26-.57-.82,.52,7.82-.06,7.2-.04-.04-.08-.11-.13-.23-.84-1.95-1.39-1.15-1.48-.44-.09,.72,.02,4.42-1.47,2.14-1.49-2.28-2.77-3.99-3.1-2.95-.32,1.03-1.68,2.51-1.93,2.03-.25-.48-1.25-2.59-2.22-3.17-.98-.58-2.63-1.54-1.95-2.52,.67-.98,.97-2.29,.19-2.66-.78-.37-.09-1.15,1.06-1.56,.36-.13,.02-1.56,1.38-1.74,1.36-.18,1.8-1.29,2.3-1.42,.5-.12,2.29-.51,2.64-.79,.15-.11,.38-.28,.61-.41,.35-.2,.71-.32,.8-.12,.16,.34,4.93,.76,4.04,1.34Z"/><path class="cls-7" d="M322.27,418.65c-.88,.59-1.21,.58-.34,2.06,.87,1.47,.25,4.12-.35,3.26-.57-.82,.52,7.82-.06,7.2,.09-.82-.53-2.91-.38-2.99,.17-.09,.05-3.35-.14-4.13-.2-.78,.3-.59,.76-.45,.46,.14-.08-.68,.07-.8,.15-.12-.13-1.57-.43-1.98-.31-.41-.49-1.32-.4-1.95,.09-.63-1.07-.1-2.13-.78-.54-.34-1.05-.54-1.43-.66,.35-.2,.71-.32,.8-.12,.16,.34,4.93,.76,4.04,1.34Z"/></g><g><path class="cls-9" d="M350.34,407.45c.18,1.11,.49,.87-.24,.8-.05,0-.1,0-.16-.01-.93-.04-.37,.49-.45,1.79-.07,1.31-.69-2.36-1.05-1.92-.36,.44-1.26-.6-1.45,.26-.18,.86,.23,.91-.73,1.64-.95,.73-5.35-.6-5.67,.62-.32,1.22-1.9,1.51-3.32,.6-1.42-.91-3.97,2.65-4.01,3.35-.15,2.68-1.65,.18-2.28-1.07-.63-1.25-.51-.71-1.46-1.69-.57-.58,1.81-2.29,3.27-2.53,1.45-.24,.97-.95,2.63-2,.61-.38,2.76,.03,3.67-.27s4.5,.14,5.3-.9c.9-1.18,4.86-.49,6.01-.58,.11,0,.19-.01,.27-.01,.95,.02-.54,.8-.36,1.91Z"/><path class="cls-7" d="M350.34,407.45c.18,1.11,.49,.87-.24,.8,.09-.12,.12-.21,.12-.27,0-.24-.17-.47-.16-.91,0-.32,.21-.83,.61-1.21,.13-.13,.11-.23,.02-.32,.95,.02-.54,.8-.36,1.91Z"/></g><g><path class="cls-9" d="M299.52,433.67c.04,1.02,.91,1.35,.45,1.86-.09,.1-.22,.2-.42,.31-1.23,.72-.22,2.08-.88,2.26s-1.25,.35-2.12,.64c-.87,.29-2,.87-1.71-.17,.3-1.05,.52-.84-.31-.42s-1.33,.17-.67-.44c.66-.62,.77-1.92,1.66-2.03,.49-.06,.87-.5,1.2-.88,.36-.41,.66-.74,.97-.45,.59,.56,1.78-1.88,1.82-.67Z"/><path class="cls-7" d="M299.52,433.67c.04,1.02,.91,1.35,.45,1.86-.09-.16-.03-.6-.15-.62-.14-.01-.39-1.18-.45-1.36s-.69,.66-1.37,1.08c-.11,.07-.72-.27-.81-.15-.1,.13-.27,.28-.3,.25-.04-.05-.09,.05-.16,.06,.36-.41,.66-.74,.97-.45,.59,.56,1.78-1.88,1.82-.67Z"/></g></g></g><path class="cls-22" d="M344.45,444.25s-2.95-.19,.85-3.1c3.8-2.91,7.82-4.8,8-3.85s-.25,1.27-.25,1.27l-8.61,5.68Z"/></g><g><path class="cls-18" d="M344.51,444.25s-.59-.33-.61-.93c1.04,.66,.9,.72,.9,.72l-.29,.2Z"/><path class="cls-5" d="M344,443.53c3.66,2.31,50.4,32.59,53.32,72.19,1.45,2.81,10.84,.28,12.62-4.38,.15-.39,.15-1,.09-1.65-.14-1.47-.58-2.89-1.22-4.23-4.33-9.03-27.76-55.94-56.21-67.62-.48-.2-1.02-.12-1.44,.18l-7.16,5.2c-.11,.08-.11,.23,0,.3Z"/><path class="cls-18" d="M397.32,515.72s-2.05-1.96-1.86-3.64l2-.68-.14,4.32Z"/></g><path class="cls-6" d="M487.98,393.76s-9.82,32.18-54.72,41.94c-36.9,10.58-54.96,12.22-54.96,12.22l-12.86-9.13c-5.43-3.86-8.83-9.98-9.23-16.63-1.38-22.99-3.34-41.53-4.02-55.66l-.17-3.07c-.05-1.14,.1-1.16,.04-2.23,.12,.12-.18-1.58-.06-1.49-.69-37.52,24.93-94.67,42.5-108.53,35.2-29.09,18.42-61.51,25.32-132.62,6.9-71.1,31.23-90.02,36.48-105.37,5.27-15.36,9.49,7.95,17.13-7.85,7.64-15.81,15.99,9.49,23.71-.5,7.71-10.02,64.19,70.89,65.91,128.34s-73.88,136.75-82.61,184.11c-8.73,47.35,7.52,76.47,7.52,76.47Z"/><path class="cls-20" d="M594.16,452.18c-2.69-11.85-15.27-19.18-19.18-22.07-.28-.58-.47-1.07-.6-1.48,.04,.01,.06,.02,.06,.02h.01s.04,.03,.12,.1c.34,.3,.69,.58,1.06,.84,.55,.42,1.12,.79,1.71,1.12,5,2.78,18.55,12.53,16.82,21.47Z"/><path class="cls-17" d="M320.88,505.78s-.24,1.53,.31,2.36,1.12,1.39,1.05,2.51l1.27-.57,.35-3.45-2.49-1.28-.49,.41Z"/><path class="cls-17" d="M317.27,497.81s-.24,1.57,.31,2.42,1.12,1.42,1.05,2.58l1.27-.58,.35-3.54-2.49-1.31-.49,.43Z"/><path class="cls-21" d="M318.91,489.85s-2.18,7.12-.82,9.85c1.01,1.14,.88,2.51,1.19,2.9s3.52,.97,5.67,.62"/><path class="cls-21" d="M322.69,503.99s-2.64,1.19-1.01,4.31c.76,.85,.66,1.87,.89,2.17s2.95,.71,4.24,.46"/></g></g></svg>