<?xml version="1.0" encoding="UTF-8"?><svg id="Calque_2" xmlns="http://www.w3.org/2000/svg" viewBox="0 0 594.31 551.47"><defs><style>.cls-1{fill:#fff;}.cls-2{fill:#877d74;}.cls-3{fill:#5daf8c;}.cls-4{fill:#51a585;}.cls-5{fill:#82d16f;}.cls-6{fill:#b2b2b2;}.cls-7{fill:#a5853d;}.cls-8{fill:#593636;}.cls-9{fill:#c9c9c9;}.cls-10{fill:#efedee;}.cls-11{fill:#4d997a;}.cls-12{fill:#63c6a0;}.cls-13{fill:#302826;}.cls-14{fill:#f2f9f9;}.cls-15{fill:#ff6e79;opacity:.35;}.cls-16{opacity:.03;}.cls-17{fill:#5aba97;}.cls-18{fill:#8e857c;}.cls-19{fill:#ffc033;}.cls-20{fill:#3d755d;}.cls-21{fill:#efefef;}.cls-22{fill:#c49b4b;}.cls-23{fill:#ffb624;}.cls-24{fill:#4f2f2f;}.cls-25{fill:#ffcd50;}.cls-26{fill:#e8efef;}.cls-27{fill:#846934;}.cls-28{fill:#f5ffff;}</style></defs><g id="Calque_1-2"><g><path class="cls-26" d="M575.24,432.16c-2.87,1.47-5.65,2.76-8.31,3.89-20.31,8.64-33.92,7.93-33.92,7.93,0,0-15.86,2.11-28.9,9.68-67.88,68.7-160.19,66.57-194.74,64-5.03-.36-8.83-.76-11.16-.93-.95-.07-1.66-.12-2.11-.1-.52,.48-1.09,.99-1.71,1.54-2.83,2.44-6.72,5.41-10.99,8.52-13.31,9.75-30.28,20.79-30.28,20.79-38.19,17.25-47.77-26.61-47.8-30.76-.09-6.67,18.11-4.23,20.91-8.21,16.83-13.36,52.52-23.42,52.52-23.42,0,0,16.25-16.82,27.81-22.36-63.86-1.4-157.98-55.51-182.64-65.57-24.68-10.04-65.05,.69-97.06-2.77-31.99-3.46-18.42-17.28-15.28-24.56,3.15-7.26-1.94-7.36-9.87-17.64-7.66-9.89,13.13-5.2,7.21-19.94-3.56-8.81-10.89-9.25-.1-18.25,16.12-13.5,169.76-22.12,199.56-23.47,29.67-1.36,114.2,43.43,143.51,69.34,.05,1.07,.1,2.18,.16,3.32l.16,3.34c.78,16.21,1.8,37.48,3.13,65.38l21.9,11.41s19.14,2.98,56.04-7.59c44.9-9.76,54.72-41.94,54.72-41.94,0,0,22.48-22.28,52-11.53,20.81,7.57,31.18,36.26,34.27,46.37,.66,2.23,.98,3.56,.98,3.56Z"/><path class="cls-16" d="M555.66,428.96s-.98,1.06,4,3.28,5.6,2.09,6.42,4.17l3.33-.43-2.51-2.98-7.64-2.26-3.6-1.79Z"/><path class="cls-19" d="M594.16,452.18c-.02,.08-.03,.15-.05,.23-.08,.33-.37,.61-.71,.61-.04,0-.08,.01-.11,0-4.15-.1-20.9-10.18-22.93-12.41-.13-.15-.16-.18-.33-.37,0,0-.18-.19-.19-.21-.14-.09-2.63-1.56-2.94-4.07-2.35-4.14-8.79-4.66-10.29-5.69-1.51-1.04-1.01-1.76-.11-1.86,9.08,2.57,12.07,2.07,13.05,1.51,.36-.2,.45-.41,.46-.47,0-.01,0-.02,0-.02,1.62-1.38,3.96-.89,4.36-.8,.04,.01,.06,.02,.06,.02h.01s.04,.03,.12,.1c.34,.3,.69,.58,1.06,.84,.55,.42,1.12,.79,1.71,1.12,5,2.78,18.55,12.53,16.82,21.47Z"/><g><path class="cls-14" d="M564.09,419.79c-.81,1.54-2.98,2-5.02,1.17-.1-.04-.2-.09-.3-.13-.08-.03-.16-.07-.23-.11-2.19-1.15-3.26-3.43-2.38-5.1s3.37-2.08,5.55-.92c.24,.13,.47,.27,.68,.43,.18,.13,.35,.27,.51,.41,1.35,1.22,1.88,2.94,1.19,4.26Z"/><path class="cls-12" d="M564.09,419.79c-.85,1.61-3.19,2.05-5.33,1.04-.25-1.07,.1-2.5,1.02-3.75,.75-1.01,1.7-1.7,2.61-1.96,1.71,1.23,2.47,3.2,1.69,4.68Z"/><path class="cls-17" d="M564.09,419.79c-.81,1.54-2.98,2-5.02,1.17-.19-1.05,.17-2.41,1.05-3.61,.75-1.01,1.7-1.7,2.61-1.96,.06,.04,.12,.09,.18,.14,1.35,1.22,1.88,2.94,1.19,4.26Z"/><ellipse class="cls-1" cx="560.42" cy="416.43" rx=".78" ry="1.34" transform="translate(-69.3 717.99) rotate(-62.2)"/><circle class="cls-1" cx="558.79" cy="417.2" r=".47"/></g><path class="cls-16" d="M319.14,488.91s-2.86,4.49-1.87,9.61c.75-.54-1.04-3.31,1.87-9.61Z"/><path class="cls-16" d="M322.09,503.99s-1.42,1.61-1.35,3.72c.33-.17-.21-1.38,1.35-3.72Z"/><path class="cls-16" d="M328.36,503.26s-5.04,1.71-9.78-.47c.7-.6,2.96,1.8,9.78,.47Z"/><path class="cls-16" d="M332.12,511.05s-5.04,1.71-9.78-.47c.7-.6,2.96,1.8,9.78,.47Z"/><path class="cls-16" d="M318.89,502.17l-14.37,6.49-1.8,2.42,.98,2.56,9.83-2.56,8.21-5.23,.19-1.96s-.98,1.47-2.04,1.81-10.03,6.15-13.04,5.38c-.74-.39,7.87-5.14,11.88-7.79l.16-1.12Z"/><path class="cls-16" d="M317.07,497.13s-9.74,6.59-14.08,6.2-9.52-.33-17.65,1.49-26.52,1.95-25.88,5.62,6.26,5.16,6.26,5.16c0,0-2.81,.81-1.02,3.49s17.99,8.11,17.99,8.11l8.62-8.11,7.98-6.57s16.66-11.94,16.85-11.94,1.03-2.77,1.03-2.77l-.09-.68Z"/><path class="cls-19" d="M318.12,497.14s-10.59,7.6-15.42,7.47-8.22-2.06-15.79,.84c-7.57,2.9-29,2.2-26.22,5.46,2.79,3.25,15.69,8.83,21.58,8.96,5.89,.13,19.03-2.08,20.53-7.46,1.44-3.57,17.26-10.17,17.26-10.17l-2.15-5.57,.21,.47Z"/><path class="cls-19" d="M322.59,503.99l.18,.49h.03s-.22-.49-.22-.49Z"/><path class="cls-23" d="M268.19,515.62l.63,.47c5.97-1.04,17.62-1.34,22.77-3.32,5.4-2.07,8.68-1.68,11.87-1.24l1.07-1.08s-8.87-.31-13.31,1.61c-3.8,1.13-23.03,3.55-23.03,3.55Z"/><path class="cls-19" d="M322.81,504.46s-10.59,7.6-15.42,7.47-8.22-2.06-15.79,.84c-7.57,2.9-29,2.2-26.22,5.46s15.69,8.83,21.58,8.96c5.89,.13,19.03-2.08,20.53-7.46,1.44-3.57,17.26-10.17,17.26-10.17l-2.15-5.57,.21,.47Z"/><path class="cls-16" d="M302.1,465.23s14.42,.43,40.18-7.8c15.23-4.87,25.99-9.05,29.86-10.6,1.02-.41,2.15-.42,3.18-.03l2.98,1.13,6-8.77h-8.81l-35.25,6.14-32.02,11.36-6.12,8.57Z"/><path class="cls-16" d="M355.75,452.92s29.45,20.97,39.7,59.16l15.87-4.01s-16.91-40.53-41.98-60.14l-13.59,4.99Z"/><path class="cls-6" d="M359.43,430.76s-35,11.55-52.87,31.96c-63.86-1.4-157.98-55.51-182.64-65.57-24.68-10.04-65.05,.69-97.06-2.77-31.99-3.46-18.42-17.28-15.28-24.56,3.15-7.26-1.94-7.36-9.87-17.64-7.66-9.89,13.13-5.2,7.21-19.94-3.56-8.81-10.89-9.25-.1-18.25,16.12-13.5,169.76-22.12,199.56-23.47,29.67-1.36,117.64,45.06,146.95,70.97,.05,1.07-3.34,.55-3.28,1.69l.16,3.34c.78,16.21,5.9,36.36,7.23,64.25Z"/><g><path class="cls-16" d="M295.6,461.99c-.73-.07-1.37-.51-1.7-1.16-.78-1.56-2.42-4.29-4.19-4.17-2.47,.17-12.94-.51-11.23-5.36s6.25-23.7,37.26-35.86c.96-.38,1.54-1.37,1.34-2.39-3.73-19.5-4.51-51.27-4.63-57.64-.01-.7-.36-1.34-.95-1.73-3.28-2.21-13.94-10.19-9.77-18.13,.53-1,1.79-1.37,2.81-.87,1.29,.64,2.85,1.89,4.26,3.16s3.71,.18,3.57-1.75h0c-.12-1.73,1.74-2.88,3.23-2l2.41,1.43c.68,.4,1.09,1.14,1.05,1.94-.2,4.32-.75,18.45,.06,24.82,.22,1.74,.39,3.48,.52,5.12,.17,2.19,3.12,2.76,4.07,.77,3.23-6.8,8.17-14.5,13.07-11.85,8.11,4.39,3.9,24.64-12.39,33.65-.82,.46-1.23,1.41-1.02,2.33,1.13,4.9,2.37,11.26,3.1,15.04,.28,1.49,1.97,2.22,3.25,1.41,4.53-2.86,14.32-7.68,24.92-4.24,.26,.09,.51,.23,.73,.4,14.77,12.06,12.66,21.77,11.74,24.33-.15,.41-.42,.76-.78,1.01l-27.97,19.79c-.19,.13-.39,.23-.61,.3l-38.76,11.82c-.27,.08-.55,.11-.84,.08l-2.53-.25Z"/><path class="cls-7" d="M288.57,454.86c.22-.04,.45-.06,.68-.04,.57,.03,1.12,.23,1.58,.57,3.53,2.61,7.86,8.89,13.51,9.25,6.04,.39,55.96-10.92,84.39-27.19,3.51-2,6.61-4.66,9.01-7.9,7.06-9.52,9.1-20.98,9.6-24.71,.09-.67,.4-1.29,.9-1.74,.03-.04,.08-.08,.12-.11,.5-.41,1.14-1.04,1.69-1.89,1.02-1.59,.28-3.71-1.5-4.35-4.92-1.75-16.39-3.99-31.46,4.99-15.49,9.23-23.75,13.91-26.8,15.62-.9,.51-1.89,.84-2.92,.99-8.44,1.21-49.41,7.69-58.64,20.64-8.49,11.8-5.9,16.98-.17,15.87Z"/><path class="cls-22" d="M288.57,454.86c.22-.04,.45-.06,.68-.04,43.15-12.68,47.79-21.7,57.28-28.12,9.78-6.62,31.28-22.52,42.04-25.04,11.11-1.92,17.08,.05,19.68,1.44,.03-.04,.08-.08,.12-.11,.5-.41,1.14-1.04,1.69-1.89,1.02-1.59,.28-3.71-1.5-4.35-4.92-1.75-16.39-3.99-31.46,4.99-15.49,9.23-23.75,13.91-26.8,15.62-.19,.11-.38,.21-.58,.3-.74,.34-1.53,.58-2.33,.69-8.44,1.21-49.41,7.69-58.64,20.64-3.4,4.72-5.02,8.38-5.38,11-.53,3.93,1.78,5.53,5.21,4.87Z"/><path class="cls-27" d="M346.3,420.96l-15.87,1.58-20.74,5.52-13.53,5.57-9.74,9.69-2.82,5.72-.27,1.2c39.04-2.83,66.25-32.52,66.25-32.52l-3.28,3.24Z"/><path class="cls-7" d="M283.33,450.24s.39-.03,.39-.03c3.07-6.42,10.37-13.14,17.98-17.23,18-8.66,44.6-12.02,44.6-12.02l3.41-3.3c-.74,.34-1.53,.58-2.33,.69-8.44,1.21-49.41,7.69-58.64,20.64-3.4,4.72-5.04,8.63-5.4,11.25Z"/><g><g><path class="cls-17" d="M315.86,355.25c-1.28,16.78,6.38,47.95,9.8,60.84,.97,3.63,1.6,5.81,1.6,5.81l-6.55,1.19s-8.61-41.44-7.73-57.24c.88-15.8-3.43-55.86-3.43-55.86l2.25-1.8,.9-.73s4.8,26.29,3.16,47.79Z"/><path class="cls-12" d="M315.86,355.25c-1.28,16.78,6.38,47.95,9.8,60.84l-1.4,1.17s-11.16-43.73-9.45-59.33c1.66-23.32-1.41-43.32-2.69-47.95l.9-.73s4.48,24.5,2.83,46.01Z"/><path class="cls-17" d="M313.44,347.75s-.57-.12-1.46-.4c-3.37-1.05-11.36-4.35-11.05-11.98,.06-1.44,.35-2.27,.81-2.63,2.62-2.1,10.6,10.83,10.6,10.83l1.11,4.18Z"/><path class="cls-5" d="M330.22,381.02c.15-.23,.3-.46,.45-.69-.14,.24-.29,.47-.45,.69Z"/><g><path class="cls-17" d="M324.28,345.24c-3.95,2.92-8.8,3.63-8.8,3.63l.34-4.42s5.09-7.29,9-10.45c2.49-2.01,4.5-2.35,4.43,1.91-.07,4.4-2.31,7.36-4.97,9.32Z"/><path class="cls-12" d="M324.28,345.24c2.81-3.24,5.23-7.57,4.2-11.6-.45-1.77-3.67,.37-3.67,.37h0c2.49-2.01,4.5-2.35,4.43,1.91-.07,4.4-2.31,7.36-4.97,9.32Z"/></g><g><g><path class="cls-28" d="M351.93,264.96c-.59,1.02-2.03,1.89-1.43,2.22,.62,.33,1.89,1.53,1.46,1.94-.42,.4-1.57,2-1.62,2.01s-.39,.94-.39,.94c0,0,2.82,2.37,2.07,2.78-.76,.42-.19,2.04-.58,2.33-.39,.29,.92,2.21-.56,2.09-1.48-.12,1.04,1.5,.34,2.12-.72,.63-.55,3.56-1.18,3.28-.32-.14-.91,.1-1.41,.37s-.71,.88-.5,1.42c.47,1.16,1.12,3.08,.41,3.29-.42,.13-.97,.24-1.46,.32-.66,.11-1.08,.77-.9,1.41,.28,1,.52,2.24,.01,2.18-.48-.05-1.24,.11-1.82,.26-.47,.12-.81,.53-.85,1.01-.06,.79-.18,1.91-.41,2.11-.21,.19-1.02,.52-1.65,.75-.45,.17-.75,.59-.74,1.07,0,.55-.03,1.25-.26,1.61-.43,.66-.54,.89-1.18,1.29-.33,.21-1.06,.34-1.67,.4-.52,.06-.93,.46-.99,.97-.03,.27-.11,.49-.27,.52-.4,.07-1.59,2.41-2.19,2.31-.6-.1-2.77,1.66-3.22,1.46-.45-.2-1.14-.29-1.14-.29,0,0-2.44,4.23-3.65,3.96-.86-.19-2.15-.53-2.85-.72-.31-.08-.63-.03-.9,.14-1.18,.77-4.45,2.87-4.42,2.51,.02-.45-.91,.22-1.49,.05-.59-.17-1.19-1.06-1.19-1.06,0,0-2.64,2.47-3.48,2.18-.82-.29-1.6-1.2-2.04-1.18-.44,.03-.88-.74-.88-.74,0,0-.57,1.28-1.48,1.17-.92-.11-2.01,.81-2.68,.49s-1.94-.92-2.33-1.51c-.38-.59-2.02,1.34-2.76,.65-.74-.7-4.53-.59-4-1.73,.53-1.15,.14-1.81,.14-1.81,0,0-1.59,1.4-2.77,1.01-.67-.22-1.09-1.12-1.32-1.87-.17-.55-.74-.86-1.3-.75-.45,.09-.94,.13-1.27-.03-.75-.36-2.51-.43-2.79-.87-.28-.44-1.5-1.39-1.5-1.94,.01-.56-.64-2.42-.64-2.42,0,0-.56,1.55-1.5,.96-.64-.39-1.18-2.1-1.46-3.15-.13-.47-.54-.8-1.03-.83-.31-.02-.57-.08-.48-.25,.18-.36-.37-1.69-.37-1.69,0,0-3.04,1.89-3.36-.12-.33-2.02-1.83-3.41-1.58-3.46s-.31-2.35-.04-2.72c.25-.38,.07-1.18,.07-1.18,0,0-3.22-.61-3.09-1.47,.08-.55,.54-2.2,.85-3.3,.16-.57-.15-1.17-.71-1.37-.8-.29-1.79-.77-1.82-1.34-.03-.6,.69-1.55,1.26-2.2,.37-.43,.37-1.06,0-1.49-.64-.72-1.54-1.72-1.89-1.9-1.13-.6-.22-2.85-.16-3.1,.25-1.12,1.87-1.59,1.87-1.59,0,0-1.76-1.02-1.54-1.84,.17-.66-.24-3.03,.37-3.14s1.36-.85,1.36-.85c0,0-1.49-1.69-1.19-2.03,.31-.36-.03-3.56,.76-4.04,.79-.47,2.2-1.71,2.43-1.83,.22-.13,.38-.62,.38-.62l-.05-1.02s-5.06-2.92-2.18-3.95c1.14-.4,2.14-.63,2.92-.75s1.17-.96,.81-1.64c-.38-.72-.58-1.51,.05-1.94,.85-.58,2.41-.99,3.43-1.22,.55-.12,.93-.64,.87-1.2-.12-1.23-.16-3.16,.71-3.32,.48-.09,1.05-.07,1.57,0,.76,.09,1.37-.61,1.22-1.36-.3-1.54-.49-3.52,.61-3.15,.61,.2,1.24,.45,1.81,.69,.81,.33,1.68-.34,1.54-1.21-.25-1.65-.31-3.6,.97-3.09,2.15,.86,3.22,.34,4,.52,.34,.08,.78,.24,1.18,.4,.54,.21,1.15-.01,1.42-.53,.5-.97,1.36-2.31,2.14-2.14,.6,.14,1.16,.44,1.58,.72s1,.22,1.38-.14c.78-.74,2.05-1.86,2.84-2.05,.62-.16,1.24,.23,1.7,.64s1.09,.4,1.53,0c.99-.9,2.62-2.21,3.35-1.84,.5,.25,1.05,.73,1.49,1.18,.36,.36,.94,.48,1.36,.19,.25-.17,.64-.3,1.24-.3,1.21,0,2.15,.68,2.64,1.13,.27,.25,.65,.34,1.02,.25,1-.25,2.9-.7,3.61-.72,1-.01,2.45-.69,2.64-.14,.08,.26,.28,.93,.47,1.57,.2,.69,.99,1.02,1.62,.68,.89-.48,1.96-.96,2.02-.59,.12,.64,.14,2.13,.95,1.99s3.72-1.02,3.24-.42c-.48,.58-.51,2.75,.54,2.55s2.76-.84,2.76,.08c0,.63,.31,2.06,.5,2.86,.09,.36,.34,.65,.68,.79,.7,.28,1.83,.76,2.01,1.07,.12,.22,.27,.6,.4,.92,.14,.37,.46,.65,.86,.71,1,.17,2.86,.6,3.16,1.42,.25,.69,.28,1.69,.26,2.37-.01,.45,.24,.86,.64,1.05,.95,.45,2.54,1.32,2.58,2.05,.03,.39-.04,.75-.13,1.06-.15,.51,.03,1.06,.49,1.33,.68,.4,1.52,.98,1.62,1.43,.11,.46-.01,1.29-.13,1.91-.08,.43,.07,.87,.43,1.12,.5,.35,1.21,1,1.8,2.09,.35,.65,.38,1.17,.27,1.58-.17,.6,.26,1.18,.87,1.32,.41,.1,.72,.24,.7,.46-.06,.62,1.17,.33,.59,1.36Z"/><path class="cls-10" d="M312.16,314.52c-.16,.03-.31,.03-.43-.02-.44-.16-.85-.46-1.21-.73-.24-.18-.59-.44-.71-.43-.35,.02-.66-.24-.87-.49-.28,.42-.81,1-1.54,.92-.36-.04-.79,.12-1.21,.28-.54,.2-1.09,.41-1.56,.19-.98-.47-2.03-1.01-2.44-1.6-.14,0-.51,.22-.73,.36-.64,.38-1.43,.85-1.99,.32-.23-.22-1.04-.37-1.74-.51-1.1-.21-2.05-.39-2.32-.92-.07-.13-.12-.35,0-.63,.24-.53,.27-.93,.24-1.19-.57,.41-1.73,1.11-2.7,.8-.64-.21-1.14-.9-1.51-2.06-.12-.39-.53-.63-.95-.55,0,0-.01,0-.02,0-.62,.12-1.11,.11-1.45-.05-.29-.13-.77-.23-1.23-.32-.78-.16-1.45-.29-1.68-.65-.08-.13-.3-.35-.51-.57-.51-.52-1.03-1.05-1.03-1.53,0-.28-.2-1.03-.41-1.68-.17,.25-.41,.49-.71,.6-.29,.1-.59,.06-.88-.12-.55-.34-1.09-1.46-1.59-3.32-.09-.35-.4-.59-.76-.61-.4-.02-.62-.11-.72-.29-.07-.11-.07-.25,0-.38,.05-.13-.07-.62-.26-1.14-.6,.33-1.92,.94-2.78,.55-.27-.12-.62-.4-.72-1.04-.21-1.27-.91-2.3-1.29-2.85-.27-.39-.37-.55-.29-.74,.02-.04,.04-.07,.07-.1,0-.17-.04-.58-.08-.89-.12-1.03-.16-1.55,.03-1.81,.1-.15,.09-.49,.06-.77-1.13-.23-3.27-.79-3.13-1.76,.08-.55,.51-2.12,.86-3.34,.12-.43-.11-.86-.53-1.02-1.32-.48-1.98-1-2.01-1.6-.03-.56,.42-1.37,1.33-2.41,.28-.32,.28-.78,0-1.1-1.34-1.52-1.72-1.79-1.8-1.83-1.21-.64-.57-2.62-.36-3.27,.02-.07,.04-.12,.05-.15,.18-.83,.97-1.33,1.52-1.59-.58-.41-1.38-1.14-1.19-1.85,.05-.2,.04-.66,.03-1.11-.03-1.09-.06-2.13,.57-2.24,.32-.06,.74-.36,1-.59-1.45-1.7-1.11-2.07-1-2.2,.05-.11,.08-.73,.1-1.18,.06-1.49,.15-2.57,.72-2.92,.46-.27,1.17-.84,1.68-1.25,.44-.35,.66-.53,.77-.58,.05-.03,.16-.22,.22-.41l-.04-.8c-.68-.41-3.19-2-3.07-3.3,.04-.48,.4-.85,1.07-1.09,1.01-.36,2.01-.61,2.97-.76,.26-.04,.49-.2,.61-.45,.12-.25,.12-.53-.01-.77-.72-1.35-.32-2,.14-2.32,.86-.59,2.4-1.01,3.53-1.26,.41-.09,.69-.47,.65-.89-.22-2.25,.1-3.48,.94-3.63,.45-.08,1.01-.09,1.66,0,.26,.03,.51-.06,.69-.26,.19-.2,.27-.49,.22-.76-.54-2.76-.02-3.21,.15-3.36,.15-.13,.42-.26,.83-.12,.54,.18,1.16,.42,1.83,.69,.28,.12,.6,.07,.84-.12,.24-.19,.36-.48,.31-.78-.28-1.82-.17-2.91,.35-3.32,.18-.15,.51-.28,1.01-.08,1.39,.56,2.32,.51,3,.47,.36-.02,.67-.03,.96,.03,.3,.07,.71,.21,1.21,.41,.4,.16,.85-.01,1.05-.39,.88-1.69,1.71-2.46,2.47-2.29,.53,.12,1.09,.38,1.67,.76,.32,.21,.74,.17,1.02-.1,.9-.86,2.14-1.92,2.97-2.12,.59-.16,1.28,.09,1.97,.7,.33,.29,.82,.29,1.14,0,2.65-2.41,3.42-2.01,3.68-1.88,.45,.22,.98,.64,1.57,1.24,.28,.29,.71,.35,.99,.16,.34-.23,.81-.35,1.41-.35,1.33,0,2.35,.76,2.84,1.21,.2,.18,.48,.25,.75,.18,1.06-.26,2.94-.71,3.67-.72,.35,0,.76-.1,1.16-.19,.8-.18,1.55-.35,1.76,.24,.09,.28,.31,1.02,.47,1.58,.07,.24,.25,.44,.48,.54,.24,.1,.5,.09,.73-.03,1.53-.82,1.97-.81,2.21-.7,.13,.06,.21,.17,.24,.31,.02,.11,.04,.25,.06,.4,.06,.43,.15,1.15,.39,1.32,.03,.02,.08,.04,.16,.03,.19-.03,.51-.11,.88-.2,1.94-.48,2.5-.56,2.7-.23,.04,.07,.12,.25-.06,.48-.27,.33-.37,1.43-.09,1.91,.11,.19,.24,.2,.35,.18,.21-.04,.45-.1,.7-.16,.87-.21,1.7-.41,2.14-.06,.12,.09,.26,.27,.26,.59,0,.44,.18,1.46,.49,2.8,.06,.27,.25,.48,.51,.59,1.9,.75,2.08,1.08,2.15,1.2,.11,.2,.25,.52,.42,.96,.11,.28,.34,.48,.64,.53,1.36,.24,3.06,.71,3.39,1.61,.26,.72,.3,1.74,.28,2.47,0,.34,.17,.64,.48,.78,1.78,.86,2.71,1.63,2.74,2.29,.03,.37-.02,.76-.14,1.16s.03,.8,.36,1c1.6,.95,1.72,1.45,1.76,1.62,.09,.41,.05,1.09-.13,2.03-.06,.33,.06,.65,.31,.83,.52,.37,1.27,1.05,1.88,2.19,.35,.63,.44,1.24,.29,1.8-.07,.23,0,.43,.08,.55,.12,.21,.33,.36,.58,.41,.24,.06,.97,.23,.93,.77,0,.04,0,.06,.21,.18,.18,.09,.42,.22,.51,.5,.07,.22,.01,.48-.17,.8h0c-.25,.43-.63,.82-.96,1.17-.2,.21-.5,.52-.57,.67,.55,.31,1.58,1.2,1.67,1.87,.03,.21-.03,.4-.17,.53-.25,.23-.79,.95-1.16,1.43-.25,.33-.37,.49-.45,.57-.05,.1-.16,.38-.26,.66,.77,.66,2.21,2,2.14,2.71-.02,.18-.12,.33-.28,.41-.29,.16-.28,.71-.27,1.19,0,.46,.01,.86-.23,1.08,0,.1,.06,.34,.1,.51,.13,.49,.27,1.04-.04,1.4-.18,.21-.46,.3-.85,.27-.04,0-.07,0-.1,0,.07,.11,.19,.27,.27,.38,.39,.51,.92,1.2,.38,1.68-.27,.24-.41,1.11-.52,1.75-.14,.88-.24,1.39-.56,1.57-.13,.07-.27,.07-.41,.01-.05-.02-.31-.1-1.15,.36-.37,.2-.53,.65-.36,1.05,1.02,2.52,.73,3.12,.64,3.31-.09,.18-.23,.31-.42,.36-.37,.12-.88,.23-1.5,.33-.24,.04-.44,.17-.57,.38-.13,.2-.16,.44-.1,.67,.47,1.71,.33,2.17,.15,2.38-.11,.13-.27,.19-.45,.17-.34-.04-.95,.05-1.72,.25-.35,.09-.6,.39-.63,.75-.14,2-.39,2.21-.5,2.31-.07,.06-.29,.26-1.74,.8-.34,.12-.56,.44-.55,.8,.01,.83-.09,1.43-.3,1.77l-.09,.15c-.36,.57-.53,.83-1.18,1.24-.31,.2-.91,.35-1.79,.45-.38,.04-.69,.34-.74,.72-.06,.45-.22,.7-.48,.77-.12,.08-.43,.51-.66,.83-.7,.98-1.16,1.57-1.66,1.49-.2-.03-.99,.44-1.45,.72-.97,.58-1.49,.87-1.84,.72-.27-.12-.65-.2-.87-.23-.6,1.01-2.6,4.21-3.86,3.92-.86-.19-2.16-.53-2.86-.72-.23-.06-.47-.02-.67,.11-4.29,2.8-4.51,2.67-4.71,2.55-.05-.03-.1-.08-.12-.13-.07,.02-.16,.04-.24,.07-.32,.1-.72,.21-1.07,.11-.47-.13-.91-.6-1.15-.9-.71,.64-2.17,1.87-3.1,2.04Zm6.11-1.47s0,.01,0,.02c0,0,0-.01,0-.02Zm-9.39-1.37l.28,.49c.17,.29,.46,.6,.61,.59,.33-.02,.67,.23,1.09,.55,.33,.24,.7,.52,1.06,.65,.4,.14,1.97-.98,3.18-2.12l.25-.23,.19,.28c.15,.22,.63,.83,1.03,.94,.19,.05,.5-.04,.75-.11,.32-.09,.59-.18,.8-.02,.02,.01,.04,.03,.06,.06,.48-.2,1.83-.99,4.07-2.45,.34-.22,.74-.29,1.13-.18,.69,.19,1.98,.53,2.83,.72,.62,.14,2.21-1.87,3.33-3.82l.1-.17,.19,.02s.72,.09,1.21,.3c.2,0,.88-.41,1.32-.68,.89-.53,1.46-.86,1.84-.8,0,0,0,0,0,0,.22-.04,.8-.86,1.09-1.25,.46-.65,.71-.97,.96-1.05,.02-.03,.05-.11,.07-.28,.08-.65,.6-1.14,1.25-1.22,1.04-.12,1.41-.28,1.55-.36,.54-.34,.66-.52,1-1.06l.09-.15c.15-.24,.23-.75,.21-1.45-.01-.6,.36-1.14,.93-1.35,1.28-.47,1.52-.66,1.56-.69,0,0,.19-.25,.31-1.92,.04-.61,.47-1.12,1.06-1.27,.83-.22,1.46-.31,1.88-.27,.03-.11,.08-.53-.28-1.81-.11-.39-.05-.8,.17-1.14,.22-.34,.57-.57,.97-.64,.6-.1,1.08-.2,1.43-.31,.02,0,.04-.01,.06-.06,.13-.27,.03-1.16-.65-2.84-.27-.67,0-1.44,.63-1.78,.71-.38,1.23-.52,1.58-.41,.1-.19,.19-.74,.25-1.11,.14-.85,.28-1.72,.71-2.09,.13-.12-.25-.62-.45-.89-.32-.42-.57-.75-.4-1.06,.16-.29,.58-.26,.73-.25,.18,.02,.32,0,.36-.06,.11-.13,0-.59-.08-.88-.11-.44-.22-.86,.07-1.09,.04-.07,.04-.41,.04-.64,0-.61-.02-1.36,.55-1.7-.02-.32-.98-1.38-2.09-2.32l-.15-.13,.07-.19c.3-.82,.39-1.03,.5-1.09,.07-.09,.23-.29,.37-.47,.4-.52,.94-1.23,1.22-1.5,.06-.22-.76-1.14-1.4-1.48-.21-.12-.28-.28-.29-.39-.06-.36,.28-.71,.73-1.18,.31-.32,.66-.68,.87-1.05,.14-.24,.12-.33,.11-.35-.01-.05-.13-.11-.22-.16-.2-.11-.54-.29-.52-.71-.03-.03-.14-.11-.48-.19-.4-.09-.74-.34-.94-.68-.18-.31-.23-.66-.14-1,.11-.41,.03-.87-.24-1.37-.56-1.04-1.24-1.66-1.71-1.99-.44-.31-.65-.86-.55-1.41,.16-.84,.21-1.47,.14-1.79-.05-.21-.46-.64-1.49-1.25-.56-.33-.82-1.02-.62-1.67,.1-.33,.14-.65,.12-.95-.02-.31-.66-.96-2.42-1.81-.51-.24-.82-.76-.81-1.32,.03-.96-.06-1.76-.24-2.26-.18-.48-1.3-.95-2.94-1.24-.5-.09-.9-.42-1.08-.9-.15-.41-.28-.71-.38-.88-.06-.1-.53-.42-1.86-.94-.43-.17-.75-.54-.86-.99-.23-.99-.51-2.3-.51-2.93,0-.1-.03-.12-.04-.13-.22-.17-1.08,.03-1.65,.17-.26,.06-.5,.12-.73,.16-.4,.07-.74-.09-.95-.46-.35-.6-.3-1.67-.03-2.29-.48,.06-1.4,.28-1.89,.4-.38,.09-.7,.17-.91,.21-.22,.04-.43,0-.61-.13-.44-.32-.54-1.1-.62-1.72-.01-.09-.02-.18-.04-.26-.15,.02-.57,.13-1.62,.69-.38,.2-.83,.23-1.23,.06-.4-.17-.69-.5-.81-.91-.23-.81-.39-1.34-.46-1.56-.11-.08-.72,.06-1.08,.14-.43,.1-.88,.2-1.28,.2-.49,.01-1.78,.27-3.54,.71-.46,.11-.94,0-1.28-.32-.42-.39-1.3-1.05-2.44-1.06-.48,0-.84,.09-1.08,.25-.52,.36-1.25,.26-1.73-.23-.54-.55-1.03-.93-1.42-1.13-.33-.17-1.29,.22-3.03,1.79-.54,.49-1.36,.49-1.92,0-.37-.33-.93-.7-1.44-.57-.54,.13-1.53,.86-2.71,1.98-.48,.46-1.19,.53-1.74,.17-.36-.24-.91-.55-1.48-.68-.43-.1-1.13,.66-1.82,1.99-.34,.64-1.1,.93-1.78,.66-.47-.19-.87-.32-1.14-.39-.21-.05-.47-.04-.79-.02-.73,.04-1.73,.09-3.24-.51-.3-.12-.4-.03-.44,0-.12,.09-.48,.57-.14,2.78,.08,.51-.12,1-.52,1.32-.41,.32-.94,.39-1.42,.2-.66-.27-1.26-.5-1.79-.68-.18-.06-.24-.01-.26,0-.07,.06-.42,.5,.03,2.82,.09,.45-.05,.92-.36,1.26-.31,.33-.74,.49-1.18,.44-.6-.07-1.1-.07-1.49,0-.46,.08-.64,1.26-.47,3,.07,.71-.4,1.36-1.1,1.51-1.53,.34-2.72,.76-3.33,1.18-.38,.26-.37,.79,.05,1.56,.22,.41,.22,.89,.02,1.31-.21,.41-.59,.69-1.04,.76-.93,.14-1.9,.39-2.87,.73-.44,.16-.67,.36-.69,.6-.07,.79,1.75,2.16,2.92,2.83l.14,.08,.06,1.23-.02,.05c-.05,.14-.22,.61-.51,.78-.09,.05-.41,.3-.69,.53-.56,.45-1.25,1-1.74,1.3-.35,.21-.41,1.67-.44,2.45-.04,.83-.06,1.27-.21,1.49,.03,.24,.55,1.01,1.16,1.69l.18,.21-.2,.19c-.08,.08-.84,.81-1.51,.93-.14,.14-.11,1.16-.1,1.65,.02,.53,.03,1-.04,1.27-.11,.41,.78,1.15,1.41,1.52l.58,.34-.65,.19s-1.46,.43-1.67,1.37c0,.03-.03,.1-.06,.2-.47,1.44-.44,2.31,.07,2.58,.11,.06,.45,.24,1.97,1.96,.47,.53,.47,1.34,0,1.87-.77,.88-1.2,1.61-1.19,1.99,.02,.24,.45,.66,1.63,1.09,.71,.26,1.09,1,.89,1.72-.48,1.7-.78,2.86-.84,3.27-.04,.26,1.23,.83,2.86,1.14l.19,.04,.04,.18c.02,.09,.2,.93-.11,1.41-.08,.17,.02,.98,.07,1.41,.07,.61,.12,1.01,.04,1.23,.04,.07,.11,.16,.17,.25,.41,.59,1.16,1.69,1.39,3.09,.05,.31,.18,.51,.39,.61,.68,.31,2.06-.39,2.54-.69l.29-.18,.13,.31c.16,.38,.48,1.24,.42,1.74,.04,0,.11,.02,.19,.02,.61,.04,1.13,.46,1.29,1.04,.43,1.62,.93,2.74,1.33,2.98,.19,.12,.31,.09,.39,.07,.34-.12,.62-.69,.69-.88l.28-.76,.27,.76c.07,.2,.67,1.93,.65,2.52,0,.23,.54,.78,.86,1.11,.26,.26,.48,.48,.59,.67,.1,.15,.85,.3,1.3,.39,.5,.1,1.02,.2,1.37,.37,.22,.1,.6,.11,1.09,0,0,0,.02,0,.03,0,.71-.13,1.39,.28,1.6,.95,.3,.94,.7,1.53,1.13,1.68,.83,.27,2.08-.6,2.49-.95l.26-.23,.18,.3s.46,.8-.12,2.08c-.04,.08-.02,.11-.02,.12,.14,.28,1.21,.48,1.92,.62,.9,.17,1.67,.32,2.03,.66,.24,.23,.83-.12,1.3-.4,.55-.33,1.18-.7,1.5-.19,.34,.51,1.59,1.11,2.19,1.4,.27,.13,.69-.03,1.13-.19,.46-.17,.98-.37,1.48-.31,.67,.08,1.18-.99,1.18-1l.23-.52Zm27.52-7.71h0s0,0,0,0Zm-66.41-39.13s0,0,0,0c0,0,0,0,0,0Z"/></g><path class="cls-10" d="M284.67,257.73c-.64,.12-1.32-.02-1.88-.4l-1.27-.88c-.13-.09-.16-.27-.07-.4s.27-.16,.4-.07l1.27,.88c.67,.47,1.57,.45,2.23-.03l.78-.57c.13-.09,.31-.07,.4,.06,.09,.13,.07,.31-.06,.4l-.78,.57c-.31,.23-.66,.37-1.03,.44Z"/><path class="cls-10" d="M285.01,271.71s-.07,.01-.1,.02l-1.53,.21c-.16,.02-.3-.09-.33-.25-.02-.16,.08-.31,.25-.33l1.53-.21c.81-.11,1.46-.73,1.62-1.53l.19-.94c.03-.16,.18-.26,.34-.23,.16,.03,.26,.18,.23,.34l-.19,.94c-.2,1.01-1,1.79-2.01,1.98Z"/><path class="cls-10" d="M283.52,291.65c-.11,.02-.22-.02-.29-.12-.09-.13-.06-.31,.07-.4l1.27-.88c.67-.47,.98-1.31,.76-2.1l-.26-.93c-.04-.15,.05-.31,.2-.36,.16-.04,.31,.05,.36,.2l.26,.93c.29,1.03-.11,2.12-.98,2.73l-1.27,.88s-.07,.04-.11,.05Z"/><path class="cls-10" d="M296.13,246.73c-.13,.02-.27-.05-.32-.18-.06-.15,.02-.32,.17-.37l1.44-.55c.77-.29,1.26-1.04,1.24-1.86l-.03-.96c0-.16,.12-.29,.28-.3,.16,0,.29,.12,.3,.28l.03,.96c.03,1.06-.62,2.04-1.61,2.42l-1.44,.55s-.03,.01-.05,.01Z"/><path class="cls-10" d="M313.32,237.47c-.37,.07-.76,.05-1.14-.06l-1.48-.43c-.15-.04-.24-.2-.2-.36s.2-.24,.36-.2l1.48,.43c.79,.23,1.63-.07,2.11-.74l.56-.79c.09-.13,.27-.16,.4-.07,.13,.09,.16,.27,.07,.4l-.56,.79c-.39,.55-.97,.9-1.6,1.02Z"/><path class="cls-10" d="M323.5,247.21c-.71,.13-1.47-.05-2.05-.53l-1.19-.98c-.12-.1-.14-.28-.04-.41,.1-.12,.28-.14,.41-.04l1.19,.98c.63,.52,1.53,.58,2.23,.16l.82-.5c.14-.08,.32-.04,.4,.1,.08,.14,.04,.32-.1,.4l-.82,.5c-.27,.16-.55,.27-.85,.32Z"/><path class="cls-10" d="M339.24,259.98s-.1,0-.15-.01l-.9-.34c-1-.38-1.65-1.34-1.62-2.41l.04-1.54c0-.16,.14-.29,.3-.28,.16,0,.29,.14,.28,.3l-.04,1.54c-.02,.82,.48,1.56,1.25,1.85l.9,.34c.15,.06,.23,.22,.17,.37-.04,.1-.12,.17-.22,.18Z"/><path class="cls-10" d="M328.62,269.32c-.64,.12-1.32-.02-1.88-.4l-1.27-.88c-.13-.09-.16-.27-.07-.4s.27-.16,.4-.07l1.27,.88c.67,.47,1.57,.45,2.23-.03l.78-.57c.13-.09,.31-.07,.4,.06,.09,.13,.07,.31-.06,.4l-.78,.57c-.31,.23-.66,.37-1.03,.44Z"/><path class="cls-10" d="M309.03,260.15c-.3,.05-.61,.06-.93,0l-1.51-.29c-.16-.03-.26-.18-.23-.34,.03-.16,.18-.26,.34-.23l1.51,.29c.8,.16,1.62-.21,2.03-.92l.49-.83c.08-.14,.26-.18,.4-.1,.14,.08,.18,.26,.1,.4l-.49,.83c-.38,.65-1.01,1.08-1.72,1.2Z"/><path class="cls-10" d="M297.55,278.03c-.07,.01-.13,0-.2-.03-.14-.08-.19-.26-.11-.4l.77-1.34c.41-.71,.33-1.6-.21-2.22l-.63-.73c-.1-.12-.09-.3,.03-.41,.12-.11,.3-.09,.41,.03l.63,.73c.7,.81,.8,1.97,.27,2.89l-.77,1.34c-.04,.08-.12,.13-.2,.14Z"/><path class="cls-10" d="M309.93,280.81c-.97,.18-1.96-.23-2.52-1.06l-.87-1.28c-.09-.13-.06-.31,.08-.4,.13-.09,.31-.06,.4,.08l.87,1.28c.46,.68,1.3,.99,2.09,.78l.93-.25c.16-.04,.31,.05,.35,.21,.04,.15-.05,.31-.2,.35l-.93,.25c-.07,.02-.13,.03-.2,.04Z"/><path class="cls-10" d="M309.59,297.77c-.11,.02-.22-.02-.29-.11l-.57-.78c-.63-.86-.64-2.03-.04-2.9l.88-1.27c.09-.13,.27-.16,.4-.07s.16,.27,.07,.4l-.88,1.27c-.47,.67-.45,1.57,.03,2.23l.57,.78c.09,.13,.07,.31-.06,.4-.04,.03-.08,.04-.12,.05Z"/><path class="cls-10" d="M310.26,310.04s-.07,0-.1,0c-.16-.03-.26-.18-.24-.33l.16-.95c.18-1.05,1.01-1.88,2.06-2.05l1.52-.25c.16-.03,.31,.08,.33,.24,.03,.16-.08,.3-.23,.33h0s-1.52,.25-1.52,.25c-.81,.13-1.44,.77-1.58,1.57l-.16,.95c-.02,.12-.12,.21-.23,.24Z"/><path class="cls-10" d="M331.85,302.26c-.14,.03-.28-.06-.33-.2l-.29-.92c-.33-1.01,.03-2.13,.88-2.77l1.23-.93c.13-.1,.31-.07,.41,.06s.07,.31-.06,.41l-1.23,.93c-.65,.49-.92,1.35-.67,2.13l.29,.92c.05,.15-.04,.32-.19,.36-.01,0-.02,0-.04,0Z"/><path class="cls-10" d="M325.43,287.64c-.44,.08-.9,.04-1.33-.12l-1.44-.54c-.15-.06-.23-.22-.17-.37s.22-.23,.37-.17l1.44,.54c.77,.29,1.63,.06,2.16-.57l.62-.74c.1-.12,.29-.14,.41-.04s.14,.29,.04,.41l-.62,.74c-.39,.46-.91,.76-1.48,.86Z"/><path class="cls-10" d="M340.58,277.73c-1.03,.19-2.07-.29-2.61-1.19l-.79-1.33c-.08-.14-.04-.32,.1-.4,.14-.08,.32-.04,.4,.1l.79,1.33c.42,.7,1.24,1.08,2.04,.91l.94-.19c.16-.03,.31,.07,.34,.23,.03,.16-.07,.31-.23,.34l-.94,.19s-.03,0-.05,0Z"/><path class="cls-10" d="M340.78,288.73s-.05,0-.07,0c-.16,0-.28-.15-.27-.31l.06-.96c.07-1.06,.8-1.97,1.83-2.26l1.49-.42c.16-.04,.31,.05,.36,.2s-.05,.31-.2,.36l-1.49,.42c-.79,.22-1.35,.92-1.41,1.74l-.06,.96c0,.14-.11,.24-.24,.27Z"/><path class="cls-10" d="M293.53,300.7c-.07,.01-.13,0-.2-.03-.14-.08-.19-.26-.11-.4l.48-.83c.53-.92,1.59-1.41,2.64-1.21l1.52,.29c.16,.03,.26,.18,.23,.34-.03,.16-.18,.26-.34,.23l-1.52-.29c-.8-.15-1.62,.22-2.03,.93l-.48,.83c-.04,.08-.12,.13-.2,.14Z"/><path class="cls-10" d="M275.69,280.22s-.02,0-.03,0c-.16,.01-.3-.11-.31-.27l-.11-1.54c-.06-.82-.63-1.51-1.42-1.72l-.93-.25c-.15-.04-.25-.2-.2-.36,.04-.15,.2-.25,.36-.2l.93,.25c1.03,.28,1.77,1.18,1.85,2.24l.11,1.54c.01,.15-.09,.28-.24,.31Z"/></g><path class="cls-13" d="M310.47,279.39c.63,.16,1.48-.01,2.15-.11,.67-.14,1.53-.26,2.07-.65,.12-.14,.33-.09,.32,.1-.31,1.58-3.98,2.25-4.84,.89-.08-.14,.07-.31,.22-.26,0,0,.08,.03,.08,.03h0Z"/><g><circle class="cls-13" cx="304.02" cy="274.58" r="2.63"/><circle class="cls-21" cx="301.91" cy="273.59" r=".73"/><circle class="cls-21" cx="303" cy="274.6" r=".27"/></g><g><circle class="cls-13" cx="318.95" cy="271.86" r="2.63"/><circle class="cls-21" cx="320.57" cy="270.19" r=".73"/><circle class="cls-21" cx="319.91" cy="271.52" r=".27"/></g><ellipse class="cls-15" cx="301.47" cy="281.46" rx="1.96" ry="1.03" transform="translate(-45.6 58.64) rotate(-10.33)"/><ellipse class="cls-15" cx="324.6" cy="277.24" rx="1.96" ry="1.03" transform="translate(-44.46 62.72) rotate(-10.33)"/></g><g><path class="cls-20" d="M340.01,428.87l-6.55,4.27c-26.66,16.17-44.85,16.43-44.85,16.43l1.98-4.97s7.22-15.68,11.58-16.55c4.36-.87,3.53-5.76,5.84-4.95,2.32,.81,14.82-8.19,16.1-8.09,.73,.05,2.79-1.9,5.21-3.22,1.8-.99,5.74-4.24,7.53-3.4,4.19,1.96,8.9-3.57,11.74-2.78,2.84,.79,15.07,4.27,15,4.64-.08,.44-11.26,8.47-12.7,9.67-1.73,1.44-2.21,1.94-4.17,3.6-.65,.55-5.59,4.55-6.7,5.34Z"/><path class="cls-2" d="M331.56,426.18c-1.07,.77-4.34,1.82-4.45,1.86-.16,.06-3.04,.88-4.42,.52-.11-.03,1.14-2.07,2.4-2.36,.64-.13,1.31-.29,1.88-.43h.01c.56-.14,1.01-.28,1.22-.41,.41-.24,2.7-.34,3.6,.25,.21,.13,.07,.34-.25,.57Z"/><path class="cls-2" d="M342.88,419.8c-1.07,.77-4.34,1.82-4.45,1.86-.16,.06-3.04,.88-4.42,.52-.11-.03,1.14-2.07,2.4-2.36,.64-.13,1.31-.29,1.88-.43h.01c.56-.14,1.01-.28,1.22-.41,.41-.24,2.7-.34,3.6,.25,.21,.13,.07,.34-.25,.57Z"/><path class="cls-2" d="M337.08,410.29c-1.01,.85-4.17,2.17-4.28,2.22-.15,.07-2.96,1.12-4.36,.88-.11-.02,.96-2.16,2.2-2.55,.63-.18,1.28-.4,1.84-.58h.01c.55-.19,.98-.37,1.18-.51,.39-.28,2.66-.56,3.61-.04,.22,.12,.1,.34-.2,.59Z"/><path class="cls-2" d="M341.57,427.03c-1.54,1.1-6.24,2.62-6.4,2.68-.23,.08-4.37,1.26-6.35,.74-.15-.04,1.63-2.98,3.45-3.4,.92-.19,1.88-.42,2.71-.62h.02c.81-.2,1.45-.41,1.75-.59,.59-.35,3.88-.49,5.18,.37,.3,.19,.11,.49-.35,.82Z"/><path class="cls-2" d="M338.85,417.15c-1.54,1.1-6.24,2.62-6.4,2.68-.23,.08-4.37,1.26-6.35,.74-.15-.04,1.63-2.98,3.45-3.4,.92-.19,1.88-.42,2.71-.62h.02c.81-.2,1.45-.41,1.75-.59,.59-.35,3.88-.49,5.18,.37,.3,.19,.11,.49-.35,.82Z"/><path class="cls-2" d="M347.36,410.87c-1.54,1.1-6.24,2.62-6.4,2.68-.23,.08-4.37,1.26-6.35,.74-.15-.04,1.63-2.98,3.45-3.4,.92-.19,1.88-.42,2.71-.62h.02c.81-.2,1.45-.41,1.75-.59,.59-.35,3.88-.49,5.18,.37,.3,.19,.11,.49-.35,.82Z"/><path class="cls-2" d="M338.14,423.98c-.5,.35-2,.84-2.06,.86-.07,.03-1.4,.4-2.04,.24-.05-.01,.52-.96,1.11-1.09,.3-.06,.6-.13,.87-.2h0c.26-.07,.47-.13,.56-.19,.19-.11,1.25-.16,1.66,.12,.1,.06,.03,.16-.11,.26Z"/><path class="cls-2" d="M331.61,422.38c-.5,.35-2,.84-2.06,.86-.07,.03-1.4,.4-2.04,.24-.05-.01,.52-.96,1.11-1.09,.3-.06,.6-.13,.87-.2h0c.26-.07,.47-.13,.56-.19,.19-.11,1.25-.16,1.66,.12,.1,.06,.03,.16-.11,.26Z"/><path class="cls-2" d="M345.67,415.19c-.5,.35-2,.84-2.06,.86-.07,.03-1.4,.4-2.04,.24-.05-.01,.52-.96,1.11-1.09,.3-.06,.6-.13,.87-.2h0c.26-.07,.47-.13,.56-.19,.19-.11,1.25-.16,1.66,.12,.1,.06,.03,.16-.11,.26Z"/><path class="cls-18" d="M330.84,414.43c-.3,.05-.59,.08-.85,.08,.26-.06,.47-.13,.56-.19"/><g><path class="cls-11" d="M324.36,407.66c1.87,2.8,3.04,5.95,5.05,8.67-2.65-1.45-4.56-5.79-5.05-8.67h0Z"/><path class="cls-11" d="M324.72,405.09c2.15,3.56,3.48,7.49,5.26,11.22-2.44-2.32-4.58-7.92-5.26-11.22h0Z"/><path class="cls-11" d="M330.43,415.87c-1.65-2.68-2.65-5.8-3.63-8.78,1.9,2,3.3,6.05,3.63,8.78h0Z"/><path class="cls-3" d="M330.95,415.02c-1.43-3.13-2.34-6.4-3.31-9.7,2,2.51,3.17,6.51,3.31,9.7h0Z"/><path class="cls-11" d="M331.45,415.41c.26-1.8,.45-3.55,.18-5.34-.1-.83-.34-1.56-.57-2.41,2.07,1.96,2.08,5.55,.39,7.75h0Z"/></g><g><path class="cls-4" d="M352.03,408.31c.19-3.45,.41-8.16,.55-11.61,.08-1.31,.12-2.61,.31-3.93,.9,2.51,1.18,5.2,1.08,7.85-.15,2.65-.6,5.36-1.94,7.69h0Z"/><path class="cls-4" d="M347.25,408.15c-4.73-2.47-6.37-9.23-5.13-14.12,.18,.65,.29,1.29,.41,1.92,.88,4.32,2.02,8.61,4.72,12.2h0Z"/><path class="cls-4" d="M350.42,408.5c-.67-4.24,.09-8.44,.15-12.67,2.02,3.13,1.28,9.36-.15,12.67h0Z"/><path class="cls-11" d="M348.97,407.95c-.96-2.45-1.44-5-1.77-7.59-.29-2.59-.44-5.19-.03-7.79,.81,2.5,1.24,5.03,1.57,7.61,.29,2.58,.48,5.16,.22,7.77h0Z"/><path class="cls-4" d="M348.02,408.78c-2.76-3.29-4.79-8.61-4.07-12.92,1.51,4.31,3.15,8.44,4.07,12.92h0Z"/></g><g><path class="cls-11" d="M300.35,444.44c-1.72-3.72-3.83-7.55-5.75-11.17-.27-.54-.57-1.07-.81-1.64,3.39,3.1,6.29,8.16,6.56,12.81h0Z"/><path class="cls-11" d="M296.45,446.54c-4.89,.09-9.25-4.48-10.68-8.89,.61,.64,1.18,1.39,1.77,2.03,2.47,2.86,5.32,5.47,8.91,6.85h0Z"/><path class="cls-3" d="M299.15,445.34c-1.77-2.38-3.03-5.02-4.36-7.64-.44-.86-.88-1.76-1.42-2.55,2.95,1.63,5.26,6.95,5.79,10.19h0Z"/><path class="cls-11" d="M297.73,445.58c-1.85-1.57-3.4-3.39-4.86-5.3-1.44-1.93-2.78-3.92-3.74-6.15,1.75,1.67,3.26,3.5,4.72,5.41,1.44,1.92,2.8,3.88,3.88,6.04h0Z"/><path class="cls-11" d="M297.36,446.69c-3.66-1.46-7.72-4.73-9.27-8.42,3,2.75,6.46,5.47,9.27,8.42h0Z"/></g><g><path class="cls-11" d="M311.08,430.1c-2.01-1.56-3.5-3.82-4.73-6.13-.9-1.75-1.63-3.6-2.13-5.51-.52-2.34-.57-2.36,.6-.24,1.97,3.67,4.28,8.21,6.26,11.88h0Z"/><path class="cls-11" d="M314.62,428.08c.52-4.28-.44-8.56-1.61-12.77-.17-.62-.36-1.23-.5-1.88,3.01,3.89,4.64,10.59,2.11,14.66h0Z"/><path class="cls-11" d="M312.37,429.64c-2.49-2.41-5.69-7.68-5.49-11.29,1.84,3.77,4.2,7.23,5.49,11.29h0Z"/><path class="cls-11" d="M313.24,428.57c-1.3-2.24-2.25-4.62-3.13-7.05-.85-2.44-1.6-4.87-2.04-7.43,1.42,2.17,2.41,4.56,3.29,6.99,.85,2.45,1.57,4.91,1.88,7.49h0Z"/><path class="cls-11" d="M314.31,428.95c-1.21-4.37-1.71-8.72-2.4-13.17,2.37,3.57,3.1,9.14,2.4,13.17h0Z"/></g><g><path class="cls-11" d="M309.87,439.36c-1.77-1.18-3.03-2.95-4.07-4.77-.75-1.38-1.34-2.85-1.71-4.38-.37-1.87-.42-1.89,.56-.22,1.65,2.89,3.56,6.48,5.22,9.37h0Z"/><path class="cls-11" d="M313.2,437.56c.65-3.49-.04-6.93-.93-10.29-.13-.49-.28-.98-.38-1.5,2.59,3.03,3.8,8.39,1.31,11.8h0Z"/><path class="cls-11" d="M311.07,438.93c-2.17-1.85-4.87-5.99-4.54-8.93,1.52,2.98,3.53,5.69,4.54,8.93h0Z"/><path class="cls-3" d="M311.91,438.02c-1.1-1.76-1.86-3.65-2.56-5.58-.67-1.94-1.25-3.88-1.55-5.94,1.2,1.7,2.01,3.59,2.71,5.53,.67,1.95,1.22,3.92,1.4,5.99h0Z"/><path class="cls-11" d="M312.87,438.28c-.92-3.5-1.2-7-1.64-10.58,2.02,2.8,2.45,7.28,1.64,10.58h0Z"/></g><g><path class="cls-11" d="M299.25,434.94c-1.93-.9-3.45-2.45-4.75-4.09-.95-1.25-1.76-2.61-2.36-4.07-.65-1.79-.7-1.81,.52-.31,2.07,2.61,4.51,5.86,6.59,8.47h0Z"/><path class="cls-11" d="M302.27,432.66c.11-3.55-1.1-6.84-2.49-10.03-.21-.47-.43-.93-.6-1.43,3.03,2.61,5.03,7.7,3.09,11.46h0Z"/><path class="cls-11" d="M300.38,434.34c-2.42-1.49-5.74-5.18-5.85-8.13,1.96,2.71,4.36,5.08,5.85,8.13h0Z"/><path class="cls-11" d="M301.07,433.31c-1.35-1.57-2.4-3.32-3.38-5.13-.96-1.82-1.83-3.65-2.44-5.63,1.45,1.49,2.53,3.24,3.52,5.05,.96,1.82,1.81,3.69,2.3,5.71h0Z"/><path class="cls-11" d="M302.06,433.43c-1.44-3.32-2.25-6.73-3.23-10.2,2.42,2.47,3.52,6.81,3.23,10.2h0Z"/></g></g></g><path class="cls-27" d="M344.45,444.25s-2.95-.19,.85-3.1c3.8-2.91,7.82-4.8,8-3.85s-.25,1.27-.25,1.27l-8.61,5.68Z"/></g><g><path class="cls-24" d="M344.51,444.25s-.59-.33-.61-.93c1.04,.66,.9,.72,.9,.72l-.29,.2Z"/><path class="cls-8" d="M344,443.53c3.66,2.31,50.4,32.59,53.32,72.19,1.45,2.81,10.84,.28,12.62-4.38,.15-.39,.15-1,.09-1.65-.14-1.47-.58-2.89-1.22-4.23-4.33-9.03-27.76-55.94-56.21-67.62-.48-.2-1.02-.12-1.44,.18l-7.16,5.2c-.11,.08-.11,.23,0,.3Z"/><path class="cls-24" d="M397.32,515.72s-2.05-1.96-1.86-3.64l2-.68-.14,4.32Z"/></g><path class="cls-9" d="M487.98,393.76s-9.82,32.18-54.72,41.94c-36.9,10.58-54.96,12.22-54.96,12.22l-12.86-9.13c-5.43-3.86-8.83-9.98-9.23-16.63-1.38-22.99-3.34-41.53-4.02-55.66l-.17-3.07c-.05-1.14,.1-1.16,.04-2.23,.12,.12-.18-1.58-.06-1.49-.69-37.52,24.93-94.67,42.5-108.53,35.2-29.09,18.42-61.51,25.32-132.62,6.9-71.1,31.23-90.02,36.48-105.37,5.27-15.36,9.49,7.95,17.13-7.85,7.64-15.81,15.99,9.49,23.71-.5,7.71-10.02,64.19,70.89,65.91,128.34s-73.88,136.75-82.61,184.11c-8.73,47.35,7.52,76.47,7.52,76.47Z"/><path class="cls-25" d="M594.16,452.18c-2.69-11.85-15.27-19.18-19.18-22.07-.28-.58-.47-1.07-.6-1.48,.04,.01,.06,.02,.06,.02h.01s.04,.03,.12,.1c.34,.3,.69,.58,1.06,.84,.55,.42,1.12,.79,1.71,1.12,5,2.78,18.55,12.53,16.82,21.47Z"/><path class="cls-23" d="M320.88,505.78s-.24,1.53,.31,2.36,1.12,1.39,1.05,2.51l1.27-.57,.35-3.45-2.49-1.28-.49,.41Z"/><path class="cls-23" d="M317.27,497.81s-.24,1.57,.31,2.42,1.12,1.42,1.05,2.58l1.27-.58,.35-3.54-2.49-1.31-.49,.43Z"/><path class="cls-26" d="M318.91,489.85s-2.18,7.12-.82,9.85c1.01,1.14,.88,2.51,1.19,2.9s3.52,.97,5.67,.62"/><path class="cls-26" d="M322.69,503.99s-2.64,1.19-1.01,4.31c.76,.85,.66,1.87,.89,2.17s2.95,.71,4.24,.46"/></g></g></svg>