<?xml version="1.0" encoding="UTF-8"?><svg id="Calque_2" xmlns="http://www.w3.org/2000/svg" viewBox="0 0 594.31 551.47"><defs><style>.cls-1{fill:#fff;}.cls-2{fill:#877d74;}.cls-3{fill:#878584;}.cls-4{fill:#82d16f;}.cls-5{fill:#b2b2b2;}.cls-6{fill:#939190;}.cls-7{fill:#a5853d;}.cls-8{fill:#593636;}.cls-9{fill:#c9c9c9;}.cls-10{opacity:.05;}.cls-11{fill:#ffc82c;}.cls-12{fill:#63c6a0;}.cls-13{fill:#302826;}.cls-14{fill:#f2f9f9;}.cls-15{fill:#ff6e79;opacity:.35;}.cls-16{opacity:.03;}.cls-17{fill:#5aba97;}.cls-18{fill:#8e857c;}.cls-19{fill:#ffc033;}.cls-20{fill:#efefef;}.cls-21{fill:#c49b4b;}.cls-22{fill:#ffd655;}.cls-23{fill:#898683;}.cls-24{fill:#ffb624;}.cls-25{fill:#7c7976;}.cls-26{fill:#ff2c50;}.cls-27{fill:#4f2f2f;}.cls-28{fill:#ffcd50;}.cls-29{fill:#e8efef;}.cls-30{fill:#846934;}</style></defs><g id="Calque_1-2"><g><path class="cls-29" d="M575.24,432.16c-2.87,1.47-5.65,2.76-8.31,3.89-20.31,8.64-33.92,7.93-33.92,7.93,0,0-15.86,2.11-28.9,9.68-67.88,68.7-160.19,66.57-194.74,64-5.03-.36-8.83-.76-11.16-.93-.95-.07-1.66-.12-2.11-.1-.52,.48-1.09,.99-1.71,1.54-2.83,2.44-6.72,5.41-10.99,8.52-13.31,9.75-30.28,20.79-30.28,20.79-38.19,17.25-47.77-26.61-47.8-30.76-.09-6.67,18.11-4.23,20.91-8.21,16.83-13.36,52.52-23.42,52.52-23.42,0,0,16.25-16.82,27.81-22.36-63.86-1.4-157.98-55.51-182.64-65.57-24.68-10.04-65.05,.69-97.06-2.77-31.99-3.46-18.42-17.28-15.28-24.56,3.15-7.26-1.94-7.36-9.87-17.64-7.66-9.89,13.13-5.2,7.21-19.94-3.56-8.81-10.89-9.25-.1-18.25,16.12-13.5,169.76-22.12,199.56-23.47,29.67-1.36,114.2,43.43,143.51,69.34,.05,1.07,.1,2.18,.16,3.32l.16,3.34c.78,16.21,1.8,37.48,3.13,65.38l21.9,11.41s19.14,2.98,56.04-7.59c44.9-9.76,54.72-41.94,54.72-41.94,0,0,22.48-22.28,52-11.53,20.81,7.57,31.18,36.26,34.27,46.37,.66,2.23,.98,3.56,.98,3.56Z"/><path class="cls-16" d="M555.66,428.96s-.98,1.06,4,3.28,5.6,2.09,6.42,4.17l3.33-.43-2.51-2.98-7.64-2.26-3.6-1.79Z"/><path class="cls-19" d="M594.16,452.18c-.02,.08-.03,.15-.05,.23-.08,.33-.37,.61-.71,.61-.04,0-.08,.01-.11,0-4.15-.1-20.9-10.18-22.93-12.41-.13-.15-.16-.18-.33-.37,0,0-.18-.19-.19-.21-.14-.09-2.63-1.56-2.94-4.07-2.35-4.14-8.79-4.66-10.29-5.69-1.51-1.04-1.01-1.76-.11-1.86,9.08,2.57,12.07,2.07,13.05,1.51,.36-.2,.45-.41,.46-.47,0-.01,0-.02,0-.02,1.62-1.38,3.96-.89,4.36-.8,.04,.01,.06,.02,.06,.02h.01s.04,.03,.12,.1c.34,.3,.69,.58,1.06,.84,.55,.42,1.12,.79,1.71,1.12,5,2.78,18.55,12.53,16.82,21.47Z"/><g><path class="cls-14" d="M564.09,419.79c-.81,1.54-2.98,2-5.02,1.17-.1-.04-.2-.09-.3-.13-.08-.03-.16-.07-.23-.11-2.19-1.15-3.26-3.43-2.38-5.1,.88-1.66,3.37-2.08,5.55-.92,.24,.13,.47,.27,.68,.43,.18,.13,.35,.27,.51,.41,1.35,1.22,1.88,2.94,1.19,4.26Z"/><path class="cls-12" d="M564.09,419.79c-.85,1.61-3.19,2.05-5.33,1.04-.25-1.07,.1-2.5,1.02-3.75,.75-1.01,1.7-1.7,2.61-1.96,1.71,1.23,2.47,3.2,1.69,4.68Z"/><path class="cls-17" d="M564.09,419.79c-.81,1.54-2.98,2-5.02,1.17-.19-1.05,.17-2.41,1.05-3.61,.75-1.01,1.7-1.7,2.61-1.96,.06,.04,.12,.09,.18,.14,1.35,1.22,1.88,2.94,1.19,4.26Z"/><ellipse class="cls-1" cx="560.42" cy="416.43" rx=".78" ry="1.34" transform="translate(-69.3 717.99) rotate(-62.2)"/><circle class="cls-1" cx="558.79" cy="417.2" r=".47"/></g><path class="cls-16" d="M319.14,488.91s-2.86,4.49-1.87,9.61c.75-.54-1.04-3.31,1.87-9.61Z"/><path class="cls-16" d="M322.09,503.99s-1.42,1.61-1.35,3.72c.33-.17-.21-1.38,1.35-3.72Z"/><path class="cls-16" d="M328.36,503.26s-5.04,1.71-9.78-.47c.7-.6,2.96,1.8,9.78,.47Z"/><path class="cls-16" d="M332.12,511.05s-5.04,1.71-9.78-.47c.7-.6,2.96,1.8,9.78,.47Z"/><path class="cls-16" d="M318.89,502.17l-14.37,6.49-1.8,2.42,.98,2.56,9.83-2.56,8.21-5.23,.19-1.96s-.98,1.47-2.04,1.81c-1.06,.34-10.03,6.15-13.04,5.38-.74-.39,7.87-5.14,11.88-7.79l.16-1.12Z"/><path class="cls-16" d="M317.07,497.13s-9.74,6.59-14.08,6.2-9.52-.33-17.65,1.49c-8.14,1.82-26.52,1.95-25.88,5.62s6.26,5.16,6.26,5.16c0,0-2.81,.81-1.02,3.49s17.99,8.11,17.99,8.11l8.62-8.11,7.98-6.57s16.66-11.94,16.85-11.94,1.03-2.77,1.03-2.77l-.09-.68Z"/><path class="cls-19" d="M318.12,497.14s-10.59,7.6-15.42,7.47-8.22-2.06-15.79,.84c-7.57,2.9-29,2.2-26.22,5.46,2.79,3.25,15.69,8.83,21.58,8.96s19.03-2.08,20.53-7.46c1.44-3.57,17.26-10.17,17.26-10.17l-2.15-5.57,.21,.47Z"/><path class="cls-19" d="M322.59,503.99l.18,.49h.03s-.22-.49-.22-.49Z"/><path class="cls-24" d="M268.19,515.62l.63,.47c5.97-1.04,17.62-1.34,22.77-3.32,5.4-2.07,8.68-1.68,11.87-1.24l1.07-1.08s-8.87-.31-13.31,1.61c-3.8,1.13-23.03,3.55-23.03,3.55Z"/><path class="cls-19" d="M322.81,504.46s-10.59,7.6-15.42,7.47c-4.83-.13-8.22-2.06-15.79,.84-7.57,2.9-29,2.2-26.22,5.46,2.79,3.25,15.69,8.83,21.58,8.96s19.03-2.08,20.53-7.46c1.44-3.57,17.26-10.17,17.26-10.17l-2.15-5.57,.21,.47Z"/><path class="cls-16" d="M302.1,465.23s14.42,.43,40.18-7.8c15.23-4.87,25.99-9.05,29.86-10.6,1.02-.41,2.15-.42,3.18-.03l2.98,1.13,6-8.77h-8.81l-35.25,6.14-32.02,11.36-6.12,8.57Z"/><path class="cls-16" d="M355.75,452.92s29.45,20.97,39.7,59.16l15.87-4.01s-16.91-40.53-41.98-60.14l-13.59,4.99Z"/><path class="cls-5" d="M359.43,430.76s-35,11.55-52.87,31.96c-63.86-1.4-157.98-55.51-182.64-65.57-24.68-10.04-65.05,.69-97.06-2.77-31.99-3.46-18.42-17.28-15.28-24.56,3.15-7.26-1.94-7.36-9.87-17.64-7.66-9.89,13.13-5.2,7.21-19.94-3.56-8.81-10.89-9.25-.1-18.25,16.12-13.5,169.76-22.12,199.56-23.47,29.67-1.36,117.64,45.06,146.95,70.97,.05,1.07-3.34,.55-3.28,1.69l.16,3.34c.78,16.21,5.9,36.36,7.23,64.25Z"/><g><path class="cls-16" d="M295.6,461.99c-.73-.07-1.37-.51-1.7-1.16-.78-1.56-2.42-4.29-4.19-4.17-2.47,.17-12.94-.51-11.23-5.36s6.25-23.7,37.26-35.86c.96-.38,1.54-1.37,1.34-2.39-3.73-19.5-4.51-51.27-4.63-57.64-.01-.7-.36-1.34-.95-1.73-3.28-2.21-13.94-10.19-9.77-18.13,.53-1,1.79-1.37,2.81-.87,1.29,.64,2.85,1.89,4.26,3.16,1.43,1.29,3.71,.18,3.57-1.75h0c-.12-1.73,1.74-2.88,3.23-2l2.41,1.43c.68,.4,1.09,1.14,1.05,1.94-.2,4.32-.75,18.45,.06,24.82,.22,1.74,.39,3.48,.52,5.12,.17,2.19,3.12,2.76,4.07,.77,3.23-6.8,8.17-14.5,13.07-11.85,8.11,4.39,3.9,24.64-12.39,33.65-.82,.46-1.23,1.41-1.02,2.33,1.13,4.9,2.37,11.26,3.1,15.04,.28,1.49,1.97,2.22,3.25,1.41,4.53-2.86,14.32-7.68,24.92-4.24,.26,.09,.51,.23,.73,.4,14.77,12.06,12.66,21.77,11.74,24.33-.15,.41-.42,.76-.78,1.01l-27.97,19.79c-.19,.13-.39,.23-.61,.3l-38.76,11.82c-.27,.08-.55,.11-.84,.08l-2.53-.25Z"/><path class="cls-7" d="M288.57,454.86c.22-.04,.45-.06,.68-.04,.57,.03,1.12,.23,1.58,.57,3.53,2.61,7.86,8.89,13.51,9.25,6.04,.39,55.96-10.92,84.39-27.19,3.51-2,6.61-4.66,9.01-7.9,7.06-9.52,9.1-20.98,9.6-24.71,.09-.67,.4-1.29,.9-1.74,.03-.04,.08-.08,.12-.11,.5-.41,1.14-1.04,1.69-1.89,1.02-1.59,.28-3.71-1.5-4.35-4.92-1.75-16.39-3.99-31.46,4.99-15.49,9.23-23.75,13.91-26.8,15.62-.9,.51-1.89,.84-2.92,.99-8.44,1.21-49.41,7.69-58.64,20.64-8.49,11.8-5.9,16.98-.17,15.87Z"/><path class="cls-21" d="M288.57,454.86c.22-.04,.45-.06,.68-.04,43.15-12.68,47.79-21.7,57.28-28.12,9.78-6.62,31.28-22.52,42.04-25.04,11.11-1.92,17.08,.05,19.68,1.44,.03-.04,.08-.08,.12-.11,.5-.41,1.14-1.04,1.69-1.89,1.02-1.59,.28-3.71-1.5-4.35-4.92-1.75-16.39-3.99-31.46,4.99-15.49,9.23-23.75,13.91-26.8,15.62-.19,.11-.38,.21-.58,.3-.74,.34-1.53,.58-2.33,.69-8.44,1.21-49.41,7.69-58.64,20.64-3.4,4.72-5.02,8.38-5.38,11-.53,3.93,1.78,5.53,5.21,4.87Z"/><path class="cls-30" d="M346.3,420.96l-15.87,1.58-20.74,5.52-13.53,5.57-9.74,9.69-2.82,5.72-.27,1.2c39.04-2.83,66.25-32.52,66.25-32.52l-3.28,3.24Z"/><path class="cls-7" d="M283.33,450.24s.39-.03,.39-.03c3.07-6.42,10.37-13.14,17.98-17.23,18-8.66,44.6-12.02,44.6-12.02l3.41-3.3c-.74,.34-1.53,.58-2.33,.69-8.44,1.21-49.41,7.69-58.64,20.64-3.4,4.72-5.04,8.63-5.4,11.25Z"/><g><g><path class="cls-17" d="M317.07,358.12c-1.1,16.94,7,48.3,10.61,61.26,1.02,3.65,1.68,5.85,1.68,5.85l-6.59,1.28s-9.17-41.71-8.47-57.66c.7-15.95-3.6-48.27-3.6-48.27l2.24-1.84,.9-.74s4.64,18.41,3.24,40.13Z"/><path class="cls-12" d="M317.07,358.12c-1.1,16.94,7,48.3,10.61,61.26l-1.4,1.2s-11.78-43.99-10.23-59.75c1.4-23.55-1.77-37.43-3.12-42.09l.9-.74s4.64,18.41,3.24,40.13Z"/><path class="cls-17" d="M316.63,386.6s-.97-.19-2.48-.65c-5.72-1.71-19.31-7.14-18.93-20.05,.07-2.44,.55-3.84,1.32-4.47,4.4-3.6,18.14,18.12,18.14,18.12l1.96,7.05Z"/><path class="cls-4" d="M331.86,383.94c.15-.23,.3-.47,.44-.7-.14,.25-.29,.48-.44,.7Z"/><g><path class="cls-17" d="M324.47,331.1c-3.28,3.82-7.98,5.65-7.98,5.65l-.67-4.5s3.42-8.46,6.62-12.51c2.03-2.58,3.96-3.38,4.87,.9,.94,4.42-.63,7.9-2.84,10.47Z"/><path class="cls-12" d="M324.47,331.1c2.07-3.88,3.5-8.77,1.55-12.57-.86-1.67-3.58,1.21-3.58,1.21h0c2.03-2.58,3.96-3.38,4.87,.89,.94,4.42-.63,7.9-2.84,10.47Z"/></g><g><path class="cls-22" d="M329.04,271.9c-.9,10.12-7.73,15.46-19.98,18.22-4.39,.99-9.26-.63-13.25-3.83-7.14-5.72-11.45-16.47-5.11-26.26,0,0,3.89-6.3,11.38-9.27,3.01-1.19,6.59-1.84,10.74-1.33,14.49,1.77,17.12,12.35,16.22,22.47Z"/><path class="cls-11" d="M295.81,286.3c-7.14-5.72-11.45-16.47-5.11-26.26,0,0,3.89-6.3,11.38-9.27-7.51,5.17-18.35,16.66-6.27,35.53Z"/></g><g><path class="cls-26" d="M310.64,249.27h0c-.16,0-.33,0-.49,0-2.15-.01-4.12,.29-5.92,.79-.2,.05-.41,.11-.61,.18-.61-2.9-2.51-12.4-2.87-20.58h0c-.33-7.52,.65-13.94,5.11-13.13,2.32,.42,3.83,2.36,4.78,5.12,2.83,8.26,.61,23.82,0,27.64Z"/><path class="cls-26" d="M325.51,244.5h0c-2.44,3.68-4.56,6.44-5.05,7.07-.01,.02-.02,.03-.03,.05-.94-.48-1.97-.9-3.11-1.24h0c-.7-.22-1.44-.41-2.22-.57l-1.1-.4s3.26-11.71,7.57-20.57c3.25-6.67,7.1-11.73,10.62-8.94,5.36,4.26-1.39,16.61-6.68,24.61Z"/><path class="cls-26" d="M321.57,228.83c-.65,10.01-4.19,21.53-4.19,21.53h-.06s0,0,0,0c-.7-.21-1.44-.41-2.22-.56-.73-.15-1.49-.27-2.28-.37-.75-.09-1.47-.15-2.18-.17h0c-.16,0-.33,0-.49,0-.36-4.34-1.37-18.75,.49-27.63,1.02-4.87,2.9-8.08,6.22-7.05,4.26,1.32,5.16,7.44,4.71,14.25Z"/><path class="cls-26" d="M333.91,249.26c-4,2.59-7.81,4.59-9.36,5.38-.12-.13-.25-.26-.38-.38-1.01-.97-2.19-1.84-3.58-2.56h0s-.13-.13-.13-.13l-.84-.86s2.46-2.8,5.89-6.2h0c6.81-6.78,17.43-15.97,20.11-10.4,2.28,4.73-4.97,10.78-11.71,15.15Z"/><path class="cls-26" d="M357.21,246.41c.47,3.93-3.83,6.93-9.35,9.15h0c-7.09,2.85-16.2,4.4-19.82,4.94-.05-.16-.11-.31-.17-.47-.73-1.99-1.8-3.82-3.31-5.38-.12-.13-.25-.26-.38-.38,1.46-.81,5.23-2.88,9.74-5,9.6-4.52,22.51-9.32,23.29-2.85Z"/><path class="cls-26" d="M361.65,271.67c-1.44,4.49-8.51,4.95-15.82,4.12,0,0,0,0,0,0-6.88-.8-13.97-2.74-16.81-3.58,.01-.1,.02-.21,.03-.31,.02-.21,.04-.42,.05-.64,.09-1.18,.12-2.35,.1-3.52-.02-.94-.08-1.87-.19-2.78,4.69-.34,20.19-1.22,28.11,1.29,3.4,1.08,5.4,2.78,4.55,5.42Z"/><path class="cls-26" d="M364.5,259.82c-.33,3.17-3.29,5.18-7.4,6.43-9.13,2.78-23.89,1.82-27.91,1.49-.02-.94-.08-1.87-.19-2.78-.18-1.54-.5-3.04-.98-4.46-.05-.16-.11-.31-.17-.47,3.25-.93,11.9-3.31,19.99-4.47h0c8.95-1.28,17.2-1.06,16.65,4.26Z"/><path class="cls-26" d="M358.94,286.93c-1.31,1.94-3.69,2.54-6.57,2.3-8.4-.71-21.16-8.52-24.95-10.95,.05-.11,.1-.23,.15-.34,.74-1.71,1.22-3.62,1.44-5.74,.01-.1,.02-.21,.03-.31,.02-.21,.04-.42,.05-.64,2.58,.55,9.91,2.18,16.73,4.53,0,0,0,0,0,0,8.4,2.89,16.03,6.84,13.11,11.15Z"/><path class="cls-26" d="M344.33,310.46c-4.98,2.7-11.81-4.4-17.01-11.46,0,0,0,0,0,0-4.39-5.95-7.62-11.88-7.62-11.88l1.81-1.94s.07-.05,.1-.07c.89-.62,1.7-1.29,2.43-2.01h0c.21-.21,.41-.41,.6-.63,1.34,1.09,6.32,5.2,11.15,10,6.96,6.92,13.6,15.26,8.53,18.01Z"/><path class="cls-26" d="M355.22,296.53c-3.55,4.22-12.12,.43-19.42-4.08-6.53-4.04-12.04-8.65-12.04-8.65l.28-.72h0c.21-.21,.41-.41,.6-.63,1.14-1.24,2.07-2.62,2.78-4.17,.05-.11,.1-.23,.15-.34,4.34,1.42,18.13,6.18,24.8,11.29,3.21,2.46,4.78,5,2.85,7.3Z"/><path class="cls-26" d="M327.21,319.16c-2.02,.09-3.7-1.04-5.1-2.92-5.14-6.88-6.54-23.83-6.81-27.93,.11-.04,.21-.08,.32-.12,2.23-.85,4.2-1.85,5.89-3.02,.03-.02,.07-.05,.1-.07,.46,.97,3.31,7.1,5.71,13.9,0,0,0,0,0,0,3.28,9.32,5.71,19.9-.11,20.17Z"/><path class="cls-26" d="M322.11,316.24c.06,4.49-1.05,7.62-4.3,7.46-2.26-.11-3.98-1.63-5.29-3.98-4.42-7.88-4.23-25.08-4.1-29.48h0c.22-.04,.43-.08,.65-.13,1-.22,1.96-.47,2.89-.73h0c1.18-.33,2.29-.69,3.35-1.09,.11-.04,.21-.08,.32-.12,1.33,3.82,6.37,18.81,6.49,28.05Z"/><path class="cls-26" d="M308.05,290.3c-.23,2.93-1.43,16.61-4.41,25.76-1.9,5.83-4.52,9.81-8.07,8.01-5.01-2.53-3.49-11.67-.8-20.02,2.17-6.75,5.12-12.99,6.01-14.81,.39,.16,.77,.3,1.16,.42,1.92,.62,3.88,.87,5.78,.67,.11,0,.22-.02,.33-.04Z"/><path class="cls-26" d="M314.66,289.4s1.64,22-2.15,30.33c-1.1,2.41-2.65,3.67-4.82,2.94-2.43-.82-3.62-3.32-4.04-6.6-1.08-8.43,2.92-22.03,4.08-25.72,.11,0,.22-.02,.33-.04,.12-.01,.23-.03,.35-.05h0c.22-.04,.43-.08,.65-.13,1-.22,1.96-.47,2.89-.73h0s2.71,0,2.71,0Z"/><path class="cls-26" d="M301.95,289.67c-.74,1.7-3.61,8.2-7.17,14.39-4.58,7.97-10.29,15.45-14.04,11.59-4.45-4.59,2.7-14.92,8.7-22.04,0,0,0,0,0,0,3.02-3.59,5.76-6.36,6.56-7.16,.14,.11,.28,.21,.42,.32h0c1.38,1.03,2.85,1.87,4.36,2.48,.39,.16,.77,.3,1.16,.42Z"/><path class="cls-26" d="M287.63,269.4c-.09,2.31,.26,4.56,.98,6.68-5.76,.6-35.14,3.24-32.56-5.63,1.5-5.16,10.56-5.21,18.85-4.09,5.3,.71,10.28,1.91,12.76,2.55-.01,.16-.02,.33-.03,.49Z"/><path class="cls-26" d="M289.34,262.49c-.06,.12-.12,.25-.17,.38-.89,2.02-1.37,4.05-1.51,6.05-.01,.16-.02,.33-.03,.49-2.26-.44-7.37-1.5-12.74-3.04-9.46-2.7-19.71-6.89-16.54-11.76,2.3-3.53,8.14-2.7,14.22-.5,0,0,0,0,0,0,6.86,2.48,14.02,6.7,16.76,8.39Z"/><path class="cls-26" d="M292.99,257.14c-.1,.11-.2,.22-.3,.33-1.32,1.49-1.99,2.58-1.99,2.58-.52,.81-.98,1.63-1.36,2.45-.06,.12-.12,.25-.17,.38-2.76-1.24-10.3-4.75-16.59-8.76,0,0,0,0,0,0-6.7-4.27-11.98-9.1-8.57-12.36,5.37-5.13,18.38,5.46,25.11,11.66,0,0,0,0,.01,0,1.87,1.73,3.26,3.11,3.86,3.72Z"/><path class="cls-26" d="M298.21,252.75c-.16,.1-.32,.2-.47,.31-2.01,1.34-3.59,2.82-4.75,4.08-.1,.11-.2,.22-.3,.33-.42-.46-1.77-1.94-3.57-4.05,0,0,0,0-.01,0-3.37-3.94-8.29-10.06-11.58-15.62-3.48-5.91-5.11-11.2-1.08-12.66,3.69-1.34,7.55,1.89,10.98,6.58,1.63,2.22,3.15,4.77,4.52,7.31,3.25,6.04,5.61,12.08,6.24,13.74Z"/><path class="cls-26" d="M296.49,286.84s-2.97,3.08-7.05,6.77c0,0,0,0,0,0-7.84,7.09-19.76,16.38-22.4,10.18-2.31-5.4,6.27-11.81,14.01-16.3,4.88-2.83,9.43-4.89,10.69-5.45,.15,.21,.31,.42,.48,.63,1.07,1.35,2.28,2.57,3.6,3.62,.06,.05,.13,.1,.19,.15,.14,.11,.28,.21,.42,.32h0s.06,.08,.06,.08Z"/><path class="cls-26" d="M292.21,282.67c-.68,.33-5.38,2.57-11.17,4.83-10.37,4.05-24.2,8.14-24.56,1.32-.51-9.77,26.39-12.28,32.13-12.7,.72,2.13,1.79,4.14,3.11,5.93,.15,.21,.31,.42,.48,.63Z"/><path class="cls-26" d="M304.22,250.05c-.2,.05-.41,.11-.61,.18-.53,.17-1.04,.35-1.54,.54-1.42,.56-2.71,1.24-3.87,1.98-.16,.1-.32,.2-.47,.31-.85-1.8-3.54-7.69-5.77-14.05-3.21-9.16-5.44-19.29,.25-19.57,4-.19,6.71,4.43,8.53,10.2h0c2.39,7.6,3.24,17.19,3.47,20.41Z"/></g><ellipse class="cls-15" cx="301.39" cy="275.28" rx="2.3" ry="1.2" transform="translate(-46.99 62.56) rotate(-11)"/><ellipse class="cls-15" cx="325.02" cy="270.69" rx="2.3" ry="1.2" transform="translate(-45.68 66.99) rotate(-11)"/><path class="cls-10" d="M300.75,229.64l-.05-1.44s3.56,5.02,4.21,21.67l-.69,.18s.82-8.06-3.48-20.41Z"/><path class="cls-10" d="M297.74,253.06l-.46,.31s-2.71-4.06-6.12-15.82l1.12,2.35s3.54,9.29,5.45,13.16Z"/><path class="cls-10" d="M322.15,227.68s-.55,9.2-4.03,22.95c-.46-.16-.76-.26-.76-.26,0,0,1.92-3.75,4.21-21.54l.58-1.15Z"/><path class="cls-10" d="M310.63,221.63l.2-.88s1.74,18.24,.71,28.58l-.91-.07s1.15-6.67,0-27.64Z"/><path class="cls-10" d="M289.12,253.4l-.74-.68s1.21,2.02,4.12,5l.37-.46s-1.78-1.29-3.75-3.87Z"/><path class="cls-10" d="M272.58,254.1l-1.05-.68s7.43,2.4,17.86,8.87l-.22,.57s-9.84-5.87-16.59-8.76Z"/><path class="cls-10" d="M274.9,266.36l-1.56-.19s2.06,1.31,14.28,3.62v-.38s-8.3-1.67-12.72-3.04Z"/><path class="cls-10" d="M283.36,276.63s4.05-.43,5.25-.55l.11,.33s-3.38,.58-6.43,.35l1.07-.13Z"/><path class="cls-10" d="M280.85,287.58s6.13-2.16,11.36-4.9l.29,.35s-4.63,3.21-12.87,5.32l1.23-.77Z"/><path class="cls-10" d="M296.43,286.77s-3.92,3.02-6.99,6.85l-1.39,1.24s2.57-3.47,7.86-8.49c.62,.47,.52,.4,.52,.4Z"/><path class="cls-10" d="M294.78,304.06s6.58-12.02,7.17-14.39l.77,.23s-5.1,10.65-8.36,15.5l.42-1.34Z"/><path class="cls-10" d="M308.05,290.3s-5.09,15.02-4.41,25.76c-.3,.91-.39,1.13-.39,1.13,0,0-.87-12.07,4.29-26.84l.5-.06Z"/><path class="cls-10" d="M312.51,319.72s4.76-13.02,1.34-30.91c.36-.12,.27-.09,.27-.09,0,0,3.6,15.81-1.44,31.32-.15-.25-.17-.32-.17-.32Z"/><path class="cls-10" d="M322.11,316.24s-5.52-9.12-6.77-16.19l.02,1.03s.48,4.17,6.75,15.64v-.49Z"/><path class="cls-10" d="M321.61,285.1s2.71,5.67,5.71,13.9l.28,.38s-2.08-6.55-5.75-14.45l-.24,.17Z"/><path class="cls-10" d="M335.79,292.45s-8.58-5.58-11.76-9.37l-.24,.24s3.17,3.65,13.33,10.47l-1.33-1.35Z"/><path class="cls-10" d="M327.57,277.94s17.63,5.52,24.8,11.29c.57,.04-5.12-5.03-24.62-11.71l-.17,.42Z"/><path class="cls-10" d="M345.83,275.79s-8.49-1.54-16.74-4.53l-.03,.44s7.67,2.82,17.91,4.49l-1.14-.4Z"/><path class="cls-10" d="M329,264.96s18.42-1.99,28.11,1.29l.66-.21s-10.01-3.18-28.83-1.58l.06,.5Z"/><path class="cls-10" d="M325.51,244.5s-1.56,4.05-4.81,7.26c.4,.23,.24,.13,.24,.13,0,0,3.64-4.12,5.31-8.13l-.75,.74Z"/><path class="cls-10" d="M335.16,248.43s-6.49,3.09-10.11,6.76c.18,.21,.17,.2,.17,.2,0,0,4.81-4.28,8.69-6.14l1.25-.83Z"/><path class="cls-10" d="M328.02,260.49s5.95-.77,19.82-4.94l.81-.11s-5.51,2.34-20.48,5.55l-.16-.51Z"/><g><path class="cls-13" d="M306.85,269.6c-1.46-2.09-5.44-1.12-6.07,1.25-.11,.41-.71,.38-.77-.04-.12-.85,.42-1.65,1.02-2.19,1.2-1.06,2.99-1.34,4.43-.69,.7,.32,1.34,.86,1.58,1.58,.04,.12-.13,.2-.2,.09h0Z"/><ellipse class="cls-13" cx="304.81" cy="269.92" rx="2.3" ry="1.42" transform="translate(-45.9 63.12) rotate(-11)"/><circle class="cls-20" cx="303.03" cy="269.45" r=".64"/><circle class="cls-20" cx="304" cy="270.33" r=".24"/></g><g><path class="cls-13" d="M316.07,267.75c.01-2.48,3.08-3.9,5.25-3.08,.76,.28,1.56,.81,1.77,1.65,.1,.42-.45,.66-.7,.33-1.47-1.97-5.53-1.36-6.09,1.12-.02,.13-.22,.12-.22-.01h0Z"/><ellipse class="cls-13" cx="318.3" cy="267.3" rx="2.3" ry="1.42" transform="translate(-45.15 65.64) rotate(-11)"/><circle class="cls-20" cx="319.78" cy="266.2" r=".64"/><circle class="cls-20" cx="319.21" cy="267.37" r=".24"/></g><path class="cls-13" d="M311.2,274.18c1.78,.67,3.75-.19,4.38-2.01,.33-.73,1.41-.28,1.12,.47-.81,1.87-3,2.97-4.99,2.52-.37-.11-1.23-.17-1.04-.76,.08-.21,.33-.31,.54-.21h0Z"/><path class="cls-26" d="M302.5,265.43c1.71,1.34,3.76,2.39,5.92,2.74,.42,.06,.35,.68-.07,.65-2.36-.23-4.57-1.19-6.53-2.51-.61-.45,.09-1.36,.68-.87h0Z"/><path class="cls-26" d="M313.63,266.26c.74-2.27,2.74-3.92,5.01-4.51,0,0,.52-.14,.52-.14,.61-.07,1.63-.53,1.83,.35,.08,.42-.27,.79-.69,.77-.45,.01-.97,.02-1.42,.1-.14,.02-.33,.05-.46,.09-1.84,.39-3.53,1.71-4.16,3.5-.11,.43-.76,.26-.63-.17h0Z"/></g><path class="cls-27" d="M340.01,428.87l-6.55,4.27c-26.66,16.17-44.85,16.43-44.85,16.43l1.98-4.97s7.22-15.68,11.58-16.55c4.36-.87,3.53-5.76,5.84-4.95,2.32,.81,14.82-8.19,16.1-8.09,.73,.05,2.79-1.9,5.21-3.22,1.8-.99,5.74-4.24,7.53-3.4,4.19,1.96,8.9-3.57,11.74-2.78,2.84,.79,15.07,4.27,15,4.64-.08,.44-11.26,8.47-12.7,9.67-1.73,1.44-2.21,1.94-4.17,3.6-.65,.55-5.59,4.55-6.7,5.34Z"/><g><path class="cls-25" d="M344.32,408.34c-.08,0-.38,.13-.81,.34-1.94,.93-6.71,3.4-8.33,2.84-1.98-.69-4.76,1.37-6.09,.29,0,0,2.53-4.07,3.4-4.4,.59-.23,2.93-1.58,4.3-2.16,.64-.28,1.07-.38,.99-.11-.25,.83,4.8,.92,4.69,.84-.12-.08,2.32,2.34,1.86,2.35Z"/><path class="cls-23" d="M344.32,408.34c-.08,0-.38,.13-.81,.34-.44-.6-.96-1.38-1.1-1.83-.25-.83-4.51-.42-4.92-1.19-.11-.22-.38-.35-.71-.41,.64-.28,1.07-.38,.99-.11-.25,.83,4.8,.92,4.69,.84-.12-.08,2.32,2.34,1.86,2.35Z"/></g><g><path class="cls-25" d="M309,431.6s-.22,.09-.46,.22c-1.1,.58-3.79,2.1-4.72,1.9-1.14-.24-2.7,.96-3.48,.49,0,0,1.39-2.2,1.88-2.42,.33-.15,1.65-.96,2.43-1.33,.36-.18,.61-.25,.56-.11-.13,.43,2.76,.2,2.69,.17-.07-.03,1.36,1.06,1.09,1.09Z"/><path class="cls-23" d="M309,431.6s-.22,.09-.46,.22c-.26-.28-.57-.65-.65-.87-.15-.41-2.58,.04-2.83-.33-.07-.11-.22-.15-.41-.17,.36-.18,.61-.25,.56-.11-.13,.43,2.76,.2,2.69,.17-.07-.03,1.36,1.06,1.09,1.09Z"/></g><g><path class="cls-25" d="M341,421.08c-.09,.09-.56,.33-1.26,.66-2.5,1.17-7.84,3.42-8.13,3.37-.37-.07-6.34,1.48-7.82,1.31,0,0,.79-5.46,2.39-5.06,1.59,.4,1.22-2.13,2.23-2.29,.37-.05,.81-.16,1.3-.28,.82-.2,1.72-.45,2.32-.51,.96-.11,2.02,0,2.72-.03,.71-.03,2.5-.47,2.85-.31,.36,.16,1.24,2.36,1.92,2.34,.68-.02,1.87,.4,1.48,.79Z"/><path class="cls-23" d="M341,421.08c-.09,.09-.56,.33-1.26,.66-.42-.38-.89-.8-1.17-.77-.49,.06-.92-2.33-1.59-2.31-.68,.02-1.21,.29-1.7,0,0,0-2.68-.08-3.62,.27-.47,.17-1.26,.04-1.95-.14,.82-.2,1.72-.45,2.32-.51,.96-.11,2.02,0,2.72-.03,.71-.03,2.5-.47,2.85-.31,.36,.16,1.24,2.36,1.92,2.34,.68-.02,1.87,.4,1.48,.79Z"/></g><g><path class="cls-2" d="M325.64,428.05c-.47,.32-1.9,.73-1.95,.75-.07,.02-1.32,.34-1.92,.17-.05-.01,.52-.88,1.07-.99,.28-.05,.57-.11,.82-.16h0c.24-.05,.44-.11,.53-.16,.18-.1,1.17-.11,1.55,.16,.09,.06,.03,.15-.11,.24Z"/><path class="cls-18" d="M325.64,428.05c-.15-.13-.56-.39-1.18-.29-.28,.04-.55,.05-.79,.05,.24-.05,.44-.11,.53-.16,.18-.1,1.17-.11,1.55,.16,.09,.06,.03,.15-.11,.24Z"/></g><g><path class="cls-2" d="M346.9,410.55c-.51,.33-2.05,.68-2.1,.69-.07,.02-1.43,.27-2.06,0-.05-.02,.57-1.01,1.16-1.08,.3-.03,.61-.07,.88-.11h0c.26-.04,.47-.08,.57-.14,.2-.1,1.26,0,1.66,.36,.09,.08,.03,.18-.13,.28Z"/><path class="cls-18" d="M346.9,410.55c-.16-.17-.6-.53-1.26-.48-.3,.02-.59,0-.85-.02,.26-.04,.47-.08,.57-.13,.2-.1,1.26,0,1.66,.36,.09,.08,.03,.18-.13,.28Z"/></g><g><path class="cls-2" d="M319.5,419.34c-.34,.32-1.45,.86-1.49,.88-.05,.03-1.04,.46-1.55,.4-.04,0,.3-.79,.74-.95,.22-.08,.45-.17,.65-.24h0c.19-.08,.34-.15,.41-.2,.13-.11,.94-.25,1.29-.08,.08,.04,.04,.12-.06,.21Z"/><path class="cls-18" d="M319.5,419.34c-.14-.09-.51-.24-1-.08-.22,.07-.44,.12-.64,.15,.19-.08,.34-.15,.41-.2,.13-.11,.94-.25,1.29-.08,.08,.04,.04,.12-.06,.21Z"/></g><g><path class="cls-2" d="M321.89,417.07c-.5,.47-2.09,1.23-2.15,1.26-.08,.04-1.49,.66-2.22,.57-.06,0,.44-1.14,1.06-1.37,.32-.11,.65-.24,.93-.35h0c.28-.11,.5-.22,.6-.29,.19-.15,1.36-.36,1.86-.12,.12,.05,.06,.17-.09,.31Z"/><path class="cls-18" d="M321.89,417.07c-.2-.12-.74-.35-1.44-.11-.32,.11-.64,.17-.92,.21,.28-.11,.5-.21,.6-.29,.19-.15,1.36-.36,1.86-.12,.12,.05,.06,.17-.09,.31Z"/></g><g><path class="cls-2" d="M321.6,418.28c-.16,.15-.67,.4-.69,.4-.02,.01-.48,.21-.71,.18-.02,0,.14-.37,.34-.44,.1-.04,.21-.08,.3-.11h0c.09-.04,.16-.07,.19-.09,.06-.05,.44-.12,.6-.04,.04,.02,.02,.05-.03,.1Z"/><path class="cls-18" d="M321.6,418.28c-.07-.04-.24-.11-.46-.04-.1,.03-.21,.06-.3,.07,.09-.03,.16-.07,.19-.09,.06-.05,.44-.12,.6-.04,.04,.02,.02,.05-.03,.1Z"/></g><g><path class="cls-2" d="M348.88,408.71c-.3,.24-1.22,.43-1.25,.44-.04,.01-.86,.14-1.26-.11-.03-.02,.3-.78,.65-.8,.18,0,.37-.02,.53-.04h0c.16-.02,.28-.04,.34-.08,.11-.07,.77,.06,1.04,.37,.06,.07,.03,.15-.06,.22Z"/><path class="cls-18" d="M348.88,408.71c-.11-.15-.39-.45-.79-.45-.18,0-.36-.03-.52-.06,.16-.02,.28-.04,.34-.08,.11-.07,.77,.06,1.04,.37,.06,.07,.03,.15-.06,.22Z"/></g><g><path class="cls-2" d="M302.18,434.69c-.29,.2-1.16,.46-1.19,.47-.04,.01-.81,.22-1.17,.11-.03,0,.31-.54,.65-.61,.17-.03,.35-.07,.5-.1h0c.15-.03,.27-.07,.33-.1,.11-.06,.72-.07,.95,.09,.05,.04,.02,.09-.07,.15Z"/><path class="cls-18" d="M302.18,434.69c-.09-.08-.35-.23-.73-.17-.17,.03-.34,.04-.49,.04,.15-.03,.27-.07,.33-.1,.11-.06,.72-.07,.95,.09,.05,.04,.02,.09-.07,.15Z"/></g><g><path class="cls-2" d="M303.63,435.17c-.17,.14-.69,.29-.71,.29-.03,0-.49,.12-.72,.01-.02,0,.16-.41,.36-.44,.1-.01,.21-.03,.3-.05h0c.09-.02,.16-.04,.2-.06,.06-.04,.44-.01,.6,.13,.04,.03,.02,.07-.03,.11Z"/><path class="cls-18" d="M303.63,435.17c-.06-.07-.23-.21-.46-.18-.1,.01-.21,0-.3,0,.09-.02,.16-.04,.2-.06,.06-.04,.44-.01,.6,.13,.04,.03,.02,.07-.03,.11Z"/></g><g><path class="cls-3" d="M347.67,420.43c-.06,0-.27,.11-.57,.27-1.36,.7-4.71,2.55-5.86,2.3-1.41-.31-3.35,1.15-4.31,.56,0,0,1.75-2.71,2.35-2.97,.41-.18,2.06-1.17,3.02-1.62,.45-.21,.75-.3,.7-.13-.17,.54,3.4,.28,3.32,.24-.08-.04,1.67,1.32,1.34,1.36Z"/><path class="cls-6" d="M347.67,420.43c-.06,0-.27,.11-.57,.27-.32-.35-.69-.81-.8-1.08-.18-.5-3.19,.02-3.49-.44-.08-.13-.27-.19-.51-.21,.45-.21,.75-.3,.7-.13-.17,.54,3.4,.28,3.32,.24-.08-.04,1.67,1.32,1.34,1.36Z"/></g><g><path class="cls-25" d="M317.25,441.05c-.08,.1-.52,.37-1.16,.74-2.33,1.34-7.32,3.95-7.6,3.93-.36-.04-6.02,1.95-7.47,1.91,0,0,.33-5.36,1.9-5.09s1.01-2.17,1.97-2.4c.35-.08,.78-.22,1.23-.38,.78-.26,1.63-.58,2.2-.69,.92-.18,1.95-.16,2.63-.25,.68-.08,2.39-.66,2.74-.54,.36,.13,1.4,2.19,2.05,2.12,.65-.07,1.84,.24,1.5,.65Z"/><path class="cls-23" d="M317.25,441.05c-.08,.1-.52,.37-1.16,.74-.44-.33-.93-.7-1.19-.66-.47,.1-1.08-2.18-1.73-2.11-.65,.07-1.14,.38-1.65,.14,0,0-2.61,.14-3.49,.56-.44,.2-1.21,.14-1.9,.03,.78-.26,1.63-.58,2.2-.69,.92-.18,1.95-.16,2.63-.25,.68-.08,2.39-.66,2.74-.54,.36,.13,1.4,2.19,2.05,2.12,.65-.07,1.84,.24,1.5,.65Z"/></g><g><path class="cls-3" d="M323.44,439.37c-.06,.01-.25,.13-.53,.3-1.27,.79-4.35,2.85-5.49,2.7-1.39-.18-3.15,1.39-4.13,.89,0,0,1.47-2.76,2.04-3.07,.39-.21,1.9-1.3,2.79-1.81,.42-.24,.7-.36,.67-.18-.12,.53,3.32,0,3.24-.04-.08-.03,1.72,1.14,1.41,1.21Z"/><path class="cls-6" d="M323.44,439.37c-.06,.01-.25,.13-.53,.3-.34-.31-.74-.72-.86-.98-.22-.47-3.09,.27-3.42-.14-.09-.12-.28-.16-.51-.17,.42-.24,.7-.36,.67-.18-.12,.53,3.32,0,3.24-.04-.08-.03,1.72,1.14,1.41,1.21Z"/></g></g><path class="cls-30" d="M344.45,444.25s-2.95-.19,.85-3.1,7.82-4.8,8-3.85-.25,1.27-.25,1.27l-8.61,5.68Z"/></g><g><path class="cls-27" d="M344.51,444.25s-.59-.33-.61-.93c1.04,.66,.9,.72,.9,.72l-.29,.2Z"/><path class="cls-8" d="M344,443.53c3.66,2.31,50.4,32.59,53.32,72.19,1.45,2.81,10.84,.28,12.62-4.38,.15-.39,.15-1,.09-1.65-.14-1.47-.58-2.89-1.22-4.23-4.33-9.03-27.76-55.94-56.21-67.62-.48-.2-1.02-.12-1.44,.18l-7.16,5.2c-.11,.08-.11,.23,0,.3Z"/><path class="cls-27" d="M397.32,515.72s-2.05-1.96-1.86-3.64l2-.68-.14,4.32Z"/></g><path class="cls-9" d="M487.98,393.76s-9.82,32.18-54.72,41.94c-36.9,10.58-54.96,12.22-54.96,12.22l-12.86-9.13c-5.43-3.86-8.83-9.98-9.23-16.63-1.38-22.99-3.34-41.53-4.02-55.66l-.17-3.07c-.05-1.14,.1-1.16,.04-2.23,.12,.12-.18-1.58-.06-1.49-.69-37.52,24.93-94.67,42.5-108.53,35.2-29.09,18.42-61.51,25.32-132.62,6.9-71.1,31.23-90.02,36.48-105.37,5.27-15.36,9.49,7.95,17.13-7.85,7.64-15.81,15.99,9.49,23.71-.5,7.71-10.02,64.19,70.89,65.91,128.34s-73.88,136.75-82.61,184.11c-8.73,47.35,7.52,76.47,7.52,76.47Z"/><path class="cls-28" d="M594.16,452.18c-2.69-11.85-15.27-19.18-19.18-22.07-.28-.58-.47-1.07-.6-1.48,.04,.01,.06,.02,.06,.02h.01s.04,.03,.12,.1c.34,.3,.69,.58,1.06,.84,.55,.42,1.12,.79,1.71,1.12,5,2.78,18.55,12.53,16.82,21.47Z"/><path class="cls-24" d="M320.88,505.78s-.24,1.53,.31,2.36,1.12,1.39,1.05,2.51l1.27-.57,.35-3.45-2.49-1.28-.49,.41Z"/><path class="cls-24" d="M317.27,497.81s-.24,1.57,.31,2.42,1.12,1.42,1.05,2.58l1.27-.58,.35-3.54-2.49-1.31-.49,.43Z"/><path class="cls-29" d="M318.91,489.85s-2.18,7.12-.82,9.85c1.01,1.14,.88,2.51,1.19,2.9s3.52,.97,5.67,.62"/><path class="cls-29" d="M322.69,503.99s-2.64,1.19-1.01,4.31c.76,.85,.66,1.87,.89,2.17s2.95,.71,4.24,.46"/></g></g></svg>