<?xml version="1.0" encoding="UTF-8"?><svg id="Calque_2" xmlns="http://www.w3.org/2000/svg" xmlns:xlink="http://www.w3.org/1999/xlink" viewBox="0 0 594.31 551.47"><defs><style>.cls-1{fill:url(#Dégradé_sans_nom_19-5);}.cls-2{fill:#fff;}.cls-3{fill:url(#Dégradé_sans_nom_19-16);}.cls-4{fill:#5daf8c;}.cls-5{fill:#51a585;}.cls-6{fill:#b2b2b2;}.cls-7{fill:url(#Dégradé_sans_nom_19-17);}.cls-8{fill:url(#Dégradé_sans_nom_19-3);}.cls-9{fill:#a5853d;}.cls-10{fill:#593636;}.cls-11{fill:url(#Dégradé_sans_nom_19-10);}.cls-12{fill:#c9c9c9;}.cls-13{fill:url(#Dégradé_sans_nom_19-6);}.cls-14{fill:#4d997a;}.cls-15{fill:url(#Dégradé_sans_nom_19-11);}.cls-16{fill:url(#Dégradé_sans_nom_19-14);}.cls-17{fill:url(#Dégradé_sans_nom_19-19);}.cls-18{fill:#63c6a0;}.cls-19{fill:url(#Dégradé_sans_nom_19-21);}.cls-20{fill:#302826;}.cls-21{fill:url(#Dégradé_sans_nom_19-22);}.cls-22{fill:url(#Dégradé_sans_nom_19-20);}.cls-23{fill:#f2f9f9;}.cls-24{fill:#ff6e79;opacity:.35;}.cls-25{opacity:.03;}.cls-26{fill:#5aba97;}.cls-27{fill:url(#Dégradé_sans_nom_19-15);}.cls-28{fill:url(#Dégradé_sans_nom_19-9);}.cls-29{fill:#ffc033;}.cls-30{fill:url(#Dégradé_sans_nom_19-7);}.cls-31{fill:#efefef;}.cls-32{fill:#c49b4b;}.cls-33{fill:url(#Dégradé_sans_nom_19-4);}.cls-34{fill:#ffb624;}.cls-35{fill:url(#Dégradé_sans_nom_19-2);}.cls-36{fill:#4f2f2f;}.cls-37{fill:url(#Dégradé_sans_nom_19-13);}.cls-38{fill:url(#Dégradé_sans_nom_19-18);}.cls-39{fill:url(#Dégradé_sans_nom_19);}.cls-40{fill:url(#Dégradé_sans_nom_19-8);}.cls-41{fill:#ffcd50;}.cls-42{fill:#e8efef;}.cls-43{fill:#846934;}.cls-44{fill:url(#Dégradé_sans_nom_19-12);}</style><linearGradient id="Dégradé_sans_nom_19" x1="324.98" y1="225.6" x2="319.94" y2="260.62" gradientTransform="translate(-49.44 47.6) rotate(-9.62)" gradientUnits="userSpaceOnUse"><stop offset="0" stop-color="#cc275a"/><stop offset=".02" stop-color="#cf3967"/><stop offset=".06" stop-color="#d76287"/><stop offset=".11" stop-color="#de87a4"/><stop offset=".17" stop-color="#e4a8bc"/><stop offset=".23" stop-color="#e9c3d1"/><stop offset=".3" stop-color="#edd9e2"/><stop offset=".38" stop-color="#f1eaef"/><stop offset=".48" stop-color="#f3f6f8"/><stop offset=".61" stop-color="#f4fdfd"/><stop offset="1" stop-color="#f5ffff"/></linearGradient><linearGradient id="Dégradé_sans_nom_19-2" x1="352.58" y1="231.88" x2="327.81" y2="264.37" xlink:href="#Dégradé_sans_nom_19"/><linearGradient id="Dégradé_sans_nom_19-3" x1="337.54" y1="224.25" x2="324.63" y2="263.86" xlink:href="#Dégradé_sans_nom_19"/><linearGradient id="Dégradé_sans_nom_19-4" x1="361.62" y1="250.84" x2="336.1" y2="264.2" xlink:href="#Dégradé_sans_nom_19"/><linearGradient id="Dégradé_sans_nom_19-5" x1="374.48" y1="265.51" x2="329.97" y2="270.85" xlink:href="#Dégradé_sans_nom_19"/><linearGradient id="Dégradé_sans_nom_19-6" x1="371.75" y1="293.12" x2="334.96" y2="279.92" xlink:href="#Dégradé_sans_nom_19"/><linearGradient id="Dégradé_sans_nom_19-7" x1="381.55" y1="281" x2="331.11" y2="276.69" xlink:href="#Dégradé_sans_nom_19"/><linearGradient id="Dégradé_sans_nom_19-8" x1="367.05" y1="307.38" x2="334.86" y2="288.09" xlink:href="#Dégradé_sans_nom_19"/><linearGradient id="Dégradé_sans_nom_19-9" x1="346" y1="328.37" x2="327.6" y2="295.88" xlink:href="#Dégradé_sans_nom_19"/><linearGradient id="Dégradé_sans_nom_19-10" x1="360.93" y1="317.49" x2="332.59" y2="293.16" xlink:href="#Dégradé_sans_nom_19"/><linearGradient id="Dégradé_sans_nom_19-11" x1="326.88" y1="334.48" x2="323.62" y2="297.99" xlink:href="#Dégradé_sans_nom_19"/><linearGradient id="Dégradé_sans_nom_19-12" x1="315.91" y1="337.51" x2="317.54" y2="297.75" xlink:href="#Dégradé_sans_nom_19"/><linearGradient id="Dégradé_sans_nom_19-13" x1="292.18" y1="334.37" x2="310.72" y2="296.39" xlink:href="#Dégradé_sans_nom_19"/><linearGradient id="Dégradé_sans_nom_19-14" x1="305.75" y1="333.51" x2="316.43" y2="299.24" xlink:href="#Dégradé_sans_nom_19"/><linearGradient id="Dégradé_sans_nom_19-15" x1="278.75" y1="321.3" x2="306.2" y2="294.45" xlink:href="#Dégradé_sans_nom_19"/><linearGradient id="Dégradé_sans_nom_19-16" x1="263.66" y1="268.23" x2="299.26" y2="280.4" xlink:href="#Dégradé_sans_nom_19"/><linearGradient id="Dégradé_sans_nom_19-17" x1="270" y1="254.03" x2="298.48" y2="271.98" xlink:href="#Dégradé_sans_nom_19"/><linearGradient id="Dégradé_sans_nom_19-18" x1="278.04" y1="241.82" x2="303.26" y2="268.08" xlink:href="#Dégradé_sans_nom_19"/><linearGradient id="Dégradé_sans_nom_19-19" x1="293.91" y1="228.42" x2="307.66" y2="262.35" xlink:href="#Dégradé_sans_nom_19"/><linearGradient id="Dégradé_sans_nom_19-20" x1="267.61" y1="306.74" x2="301.14" y2="289.83" xlink:href="#Dégradé_sans_nom_19"/><linearGradient id="Dégradé_sans_nom_19-21" x1="260.5" y1="289.33" x2="297.74" y2="284.14" xlink:href="#Dégradé_sans_nom_19"/><linearGradient id="Dégradé_sans_nom_19-22" x1="310.48" y1="224.64" x2="314.14" y2="261.53" xlink:href="#Dégradé_sans_nom_19"/></defs><g id="Calque_1-2"><g><path class="cls-42" d="M575.24,432.16c-2.87,1.47-5.65,2.76-8.31,3.89-20.31,8.64-33.92,7.93-33.92,7.93,0,0-15.86,2.11-28.9,9.68-67.88,68.7-160.19,66.57-194.74,64-5.03-.36-8.83-.76-11.16-.93-.95-.07-1.66-.12-2.11-.1-.52,.48-1.09,.99-1.71,1.54-2.83,2.44-6.72,5.41-10.99,8.52-13.31,9.75-30.28,20.79-30.28,20.79-38.19,17.25-47.77-26.61-47.8-30.76-.09-6.67,18.11-4.23,20.91-8.21,16.83-13.36,52.52-23.42,52.52-23.42,0,0,16.25-16.82,27.81-22.36-63.86-1.4-157.98-55.51-182.64-65.57-24.68-10.04-65.05,.69-97.06-2.77-31.99-3.46-18.42-17.28-15.28-24.56,3.15-7.26-1.94-7.36-9.87-17.64-7.66-9.89,13.13-5.2,7.21-19.94-3.56-8.81-10.89-9.25-.1-18.25,16.12-13.5,169.76-22.12,199.56-23.47,29.67-1.36,114.2,43.43,143.51,69.34,.05,1.07,.1,2.18,.16,3.32l.16,3.34c.78,16.21,1.8,37.48,3.13,65.38l21.9,11.41s19.14,2.98,56.04-7.59c44.9-9.76,54.72-41.94,54.72-41.94,0,0,22.48-22.28,52-11.53,20.81,7.57,31.18,36.26,34.27,46.37,.66,2.23,.98,3.56,.98,3.56Z"/><path class="cls-25" d="M555.66,428.96s-.98,1.06,4,3.28,5.6,2.09,6.42,4.17l3.33-.43-2.51-2.98-7.64-2.26-3.6-1.79Z"/><path class="cls-29" d="M594.16,452.18c-.02,.08-.03,.15-.05,.23-.08,.33-.37,.61-.71,.61-.04,0-.08,.01-.11,0-4.15-.1-20.9-10.18-22.93-12.41-.13-.15-.16-.18-.33-.37,0,0-.18-.19-.19-.21-.14-.09-2.63-1.56-2.94-4.07-2.35-4.14-8.79-4.66-10.29-5.69-1.51-1.04-1.01-1.76-.11-1.86,9.08,2.57,12.07,2.07,13.05,1.51,.36-.2,.45-.41,.46-.47,0-.01,0-.02,0-.02,1.62-1.38,3.96-.89,4.36-.8,.04,.01,.06,.02,.06,.02h.01s.04,.03,.12,.1c.34,.3,.69,.58,1.06,.84,.55,.42,1.12,.79,1.71,1.12,5,2.78,18.55,12.53,16.82,21.47Z"/><g><path class="cls-23" d="M564.09,419.79c-.81,1.54-2.98,2-5.02,1.17-.1-.04-.2-.09-.3-.13-.08-.03-.16-.07-.23-.11-2.19-1.15-3.26-3.43-2.38-5.1s3.37-2.08,5.55-.92c.24,.13,.47,.27,.68,.43,.18,.13,.35,.27,.51,.41,1.35,1.22,1.88,2.94,1.19,4.26Z"/><path class="cls-18" d="M564.09,419.79c-.85,1.61-3.19,2.05-5.33,1.04-.25-1.07,.1-2.5,1.02-3.75,.75-1.01,1.7-1.7,2.61-1.96,1.71,1.23,2.47,3.2,1.69,4.68Z"/><path class="cls-26" d="M564.09,419.79c-.81,1.54-2.98,2-5.02,1.17-.19-1.05,.17-2.41,1.05-3.61,.75-1.01,1.7-1.7,2.61-1.96,.06,.04,.12,.09,.18,.14,1.35,1.22,1.88,2.94,1.19,4.26Z"/><ellipse class="cls-2" cx="560.42" cy="416.43" rx=".78" ry="1.34" transform="translate(-69.3 717.99) rotate(-62.2)"/><circle class="cls-2" cx="558.79" cy="417.2" r=".47"/></g><path class="cls-25" d="M319.14,488.91s-2.86,4.49-1.87,9.61c.75-.54-1.04-3.31,1.87-9.61Z"/><path class="cls-25" d="M322.09,503.99s-1.42,1.61-1.35,3.72c.33-.17-.21-1.38,1.35-3.72Z"/><path class="cls-25" d="M328.36,503.26s-5.04,1.71-9.78-.47c.7-.6,2.96,1.8,9.78,.47Z"/><path class="cls-25" d="M332.12,511.05s-5.04,1.71-9.78-.47c.7-.6,2.96,1.8,9.78,.47Z"/><path class="cls-25" d="M318.89,502.17l-14.37,6.49-1.8,2.42,.98,2.56,9.83-2.56,8.21-5.23,.19-1.96s-.98,1.47-2.04,1.81-10.03,6.15-13.04,5.38c-.74-.39,7.87-5.14,11.88-7.79l.16-1.12Z"/><path class="cls-25" d="M317.07,497.13s-9.74,6.59-14.08,6.2-9.52-.33-17.65,1.49-26.52,1.95-25.88,5.62,6.26,5.16,6.26,5.16c0,0-2.81,.81-1.02,3.49s17.99,8.11,17.99,8.11l8.62-8.11,7.98-6.57s16.66-11.94,16.85-11.94,1.03-2.77,1.03-2.77l-.09-.68Z"/><path class="cls-29" d="M318.12,497.14s-10.59,7.6-15.42,7.47-8.22-2.06-15.79,.84c-7.57,2.9-29,2.2-26.22,5.46,2.79,3.25,15.69,8.83,21.58,8.96,5.89,.13,19.03-2.08,20.53-7.46,1.44-3.57,17.26-10.17,17.26-10.17l-2.15-5.57,.21,.47Z"/><path class="cls-29" d="M322.59,503.99l.18,.49h.03s-.22-.49-.22-.49Z"/><path class="cls-34" d="M268.19,515.62l.63,.47c5.97-1.04,17.62-1.34,22.77-3.32,5.4-2.07,8.68-1.68,11.87-1.24l1.07-1.08s-8.87-.31-13.31,1.61c-3.8,1.13-23.03,3.55-23.03,3.55Z"/><path class="cls-29" d="M322.81,504.46s-10.59,7.6-15.42,7.47-8.22-2.06-15.79,.84c-7.57,2.9-29,2.2-26.22,5.46s15.69,8.83,21.58,8.96c5.89,.13,19.03-2.08,20.53-7.46,1.44-3.57,17.26-10.17,17.26-10.17l-2.15-5.57,.21,.47Z"/><path class="cls-25" d="M302.1,465.23s14.42,.43,40.18-7.8c15.23-4.87,25.99-9.05,29.86-10.6,1.02-.41,2.15-.42,3.18-.03l2.98,1.13,6-8.77h-8.81l-35.25,6.14-32.02,11.36-6.12,8.57Z"/><path class="cls-25" d="M355.75,452.92s29.45,20.97,39.7,59.16l15.87-4.01s-16.91-40.53-41.98-60.14l-13.59,4.99Z"/><path class="cls-6" d="M359.43,430.76s-35,11.55-52.87,31.96c-63.86-1.4-157.98-55.51-182.64-65.57-24.68-10.04-65.05,.69-97.06-2.77-31.99-3.46-18.42-17.28-15.28-24.56,3.15-7.26-1.94-7.36-9.87-17.64-7.66-9.89,13.13-5.2,7.21-19.94-3.56-8.81-10.89-9.25-.1-18.25,16.12-13.5,169.76-22.12,199.56-23.47,29.67-1.36,117.64,45.06,146.95,70.97,.05,1.07-3.34,.55-3.28,1.69l.16,3.34c.78,16.21,5.9,36.36,7.23,64.25Z"/><g><path class="cls-25" d="M295.6,461.99c-.73-.07-1.37-.51-1.7-1.16-.78-1.56-2.42-4.29-4.19-4.17-2.47,.17-12.94-.51-11.23-5.36s6.25-23.7,37.26-35.86c.96-.38,1.54-1.37,1.34-2.39-3.73-19.5-4.51-51.27-4.63-57.64-.01-.7-.36-1.34-.95-1.73-3.28-2.21-13.94-10.19-9.77-18.13,.53-1,1.79-1.37,2.81-.87,1.29,.64,2.85,1.89,4.26,3.16s3.71,.18,3.57-1.75h0c-.12-1.73,1.74-2.88,3.23-2l2.41,1.43c.68,.4,1.09,1.14,1.05,1.94-.2,4.32-.75,18.45,.06,24.82,.22,1.74,.39,3.48,.52,5.12,.17,2.19,3.12,2.76,4.07,.77,3.23-6.8,8.17-14.5,13.07-11.85,8.11,4.39,3.9,24.64-12.39,33.65-.82,.46-1.23,1.41-1.02,2.33,1.13,4.9,2.37,11.26,3.1,15.04,.28,1.49,1.97,2.22,3.25,1.41,4.53-2.86,14.32-7.68,24.92-4.24,.26,.09,.51,.23,.73,.4,14.77,12.06,12.66,21.77,11.74,24.33-.15,.41-.42,.76-.78,1.01l-27.97,19.79c-.19,.13-.39,.23-.61,.3l-38.76,11.82c-.27,.08-.55,.11-.84,.08l-2.53-.25Z"/><path class="cls-9" d="M288.57,454.86c.22-.04,.45-.06,.68-.04,.57,.03,1.12,.23,1.58,.57,3.53,2.61,7.86,8.89,13.51,9.25,6.04,.39,55.96-10.92,84.39-27.19,3.51-2,6.61-4.66,9.01-7.9,7.06-9.52,9.1-20.98,9.6-24.71,.09-.67,.4-1.29,.9-1.74,.03-.04,.08-.08,.12-.11,.5-.41,1.14-1.04,1.69-1.89,1.02-1.59,.28-3.71-1.5-4.35-4.92-1.75-16.39-3.99-31.46,4.99-15.49,9.23-23.75,13.91-26.8,15.62-.9,.51-1.89,.84-2.92,.99-8.44,1.21-49.41,7.69-58.64,20.64-8.49,11.8-5.9,16.98-.17,15.87Z"/><path class="cls-32" d="M288.57,454.86c.22-.04,.45-.06,.68-.04,43.15-12.68,47.79-21.7,57.28-28.12,9.78-6.62,31.28-22.52,42.04-25.04,11.11-1.92,17.08,.05,19.68,1.44,.03-.04,.08-.08,.12-.11,.5-.41,1.14-1.04,1.69-1.89,1.02-1.59,.28-3.71-1.5-4.35-4.92-1.75-16.39-3.99-31.46,4.99-15.49,9.23-23.75,13.91-26.8,15.62-.19,.11-.38,.21-.58,.3-.74,.34-1.53,.58-2.33,.69-8.44,1.21-49.41,7.69-58.64,20.64-3.4,4.72-5.02,8.38-5.38,11-.53,3.93,1.78,5.53,5.21,4.87Z"/><path class="cls-43" d="M346.3,420.96l-15.87,1.58-20.74,5.52-13.53,5.57-9.74,9.69-2.82,5.72-.27,1.2c39.04-2.83,66.25-32.52,66.25-32.52l-3.28,3.24Z"/><path class="cls-9" d="M283.33,450.24s.39-.03,.39-.03c3.07-6.42,10.37-13.14,17.98-17.23,18-8.66,44.6-12.02,44.6-12.02l3.41-3.3c-.74,.34-1.53,.58-2.33,.69-8.44,1.21-49.41,7.69-58.64,20.64-3.4,4.72-5.04,8.63-5.4,11.25Z"/><g><g><path class="cls-26" d="M316.58,357.99c-1.5,16.81,5.79,48.15,9.07,61.12,.92,3.65,1.53,5.85,1.53,5.85l-6.58,1.12s-8.11-41.66-7.03-57.49c1.08-15.83-2.42-48.04-2.42-48.04l2.27-1.78,.92-.72s4.17,18.4,2.25,39.95Z"/><path class="cls-18" d="M316.58,357.99c-1.5,16.81,5.79,48.15,9.07,61.12l-1.42,1.16s-10.64-43.99-8.73-59.61c1.96-23.36-.86-37.23-2.09-41.89l.92-.72s4.17,18.4,2.25,39.95Z"/><path class="cls-26" d="M314.04,339.94s-.81-.18-2.09-.6c-4.81-1.57-16.22-6.44-15.64-17.39,.11-2.06,.55-3.25,1.21-3.76,3.8-2.96,15.01,15.73,15.01,15.73l1.51,6.02Z"/><g><path class="cls-26" d="M324.75,371.28c-3.29,3.65-7.92,5.33-7.92,5.33l-.55-4.41s3.54-8.18,6.76-12.06c2.04-2.47,3.95-3.2,4.74,.99,.81,4.34-.8,7.7-3.02,10.16Z"/><path class="cls-18" d="M324.75,371.28c2.11-3.74,3.62-8.48,1.81-12.24-.8-1.65-3.53,1.1-3.53,1.1h0c2.04-2.47,3.95-3.21,4.74,.99,.81,4.34-.8,7.7-3.02,10.16Z"/></g><g><path class="cls-41" d="M330.54,272.61c-1.14,10.03-8.05,15.17-20.29,17.63-4.39,.88-9.19-.85-13.07-4.12-6.96-5.85-10.98-16.64-4.45-26.21,0,0,4.01-6.17,11.53-8.94,3.02-1.11,6.59-1.67,10.71-1.07,14.36,2.11,16.71,12.68,15.58,22.71Z"/><path class="cls-29" d="M297.18,286.12c-6.96-5.85-10.98-16.64-4.45-26.21,0,0,4.01-6.17,11.53-8.94-7.59,4.95-18.63,16.11-7.08,35.15Z"/></g><path class="cls-20" d="M310.68,273.22c.9,.87,2.37,.72,3.39,.16,.35-.21,.65-.48,.83-.89,.04-.09,.14-.13,.23-.08,.05,.02,.09,.07,.1,.13,.05,.28-.01,.57-.13,.84-.75,1.56-3.13,1.96-4.36,.75-.17-.18-.65-.85-.25-.97,.07-.01,.14,.02,.18,.07h0Z"/><path class="cls-39" d="M312.8,249.69h0c-.16,0-.33-.01-.49-.02-2.13-.06-4.1,.18-5.9,.64-.2,.05-.41,.1-.61,.16-.54-2.9-2.2-12.38-2.36-20.52h0c-.14-7.48,.98-13.83,5.39-12.93,2.3,.47,3.75,2.44,4.62,5.2,2.62,8.27,.04,23.68-.66,27.46Z"/><path class="cls-35" d="M327.69,245.31h0c-2.51,3.6-4.68,6.29-5.18,6.9-.01,.02-.02,.03-.03,.04-.92-.5-1.94-.94-3.06-1.31h0c-.69-.23-1.42-.44-2.19-.62l-1.08-.42s3.52-11.56,8.01-20.26c3.39-6.55,7.34-11.49,10.76-8.63,5.23,4.36-1.78,16.47-7.23,24.29Z"/><path class="cls-8" d="M324.15,229.65c-.89,9.93-4.68,21.29-4.68,21.29h-.06s0,0,0,0c-.69-.23-1.42-.44-2.19-.61-.72-.16-1.47-.31-2.26-.42-.74-.11-1.46-.18-2.16-.22h0c-.16,0-.33-.01-.49-.02-.26-4.32-.91-18.66,1.15-27.44,1.13-4.81,3.08-7.96,6.35-6.85,4.2,1.41,4.94,7.51,4.34,14.27Z"/><path class="cls-33" d="M335.92,250.24c-4.03,2.48-7.87,4.38-9.43,5.13-.12-.13-.24-.26-.37-.39-.98-.99-2.13-1.88-3.5-2.63h0s-.12-.13-.12-.13l-.81-.88s2.51-2.72,6-6.02h0c6.93-6.57,17.7-15.45,20.23-9.85,2.15,4.75-5.2,10.59-12,14.77Z"/><path class="cls-1" d="M359.14,247.96c.38,3.91-3.97,6.8-9.51,8.87h0c-7.12,2.66-16.2,3.98-19.82,4.43-.05-.16-.1-.31-.15-.47-.68-1.99-1.7-3.84-3.16-5.43-.12-.13-.24-.26-.37-.39,1.47-.77,5.27-2.73,9.8-4.74,9.65-4.26,22.59-8.72,23.21-2.27Z"/><path class="cls-13" d="M362.95,273.17c-1.54,4.43-8.57,4.72-15.82,3.71,0,0,0,0,0,0-6.81-.96-13.81-3.06-16.62-3.96,.02-.1,.03-.2,.04-.31,.02-.21,.05-.42,.07-.63,.11-1.17,.18-2.33,.18-3.5,0-.93-.04-1.86-.12-2.77,4.67-.23,20.09-.73,27.89,1.96,3.35,1.16,5.29,2.9,4.39,5.5Z"/><path class="cls-30" d="M366.06,261.46c-.4,3.14-3.39,5.07-7.5,6.21-9.13,2.55-23.78,1.23-27.77,.81,0-.93-.04-1.86-.12-2.77-.14-1.53-.42-3.03-.86-4.46-.05-.16-.1-.31-.15-.47,3.25-.85,11.91-3,19.97-3.96h0c8.92-1.05,17.12-.64,16.44,4.63Z"/><path class="cls-40" d="M359.89,288.27c-1.35,1.9-3.72,2.44-6.59,2.13-8.33-.9-20.82-8.97-24.53-11.47,.06-.11,.11-.22,.16-.34,.78-1.68,1.3-3.57,1.57-5.66,.02-.1,.03-.2,.04-.31,.02-.21,.05-.42,.07-.63,2.55,.6,9.79,2.41,16.51,4.9,0,0,0,0,0,0,8.27,3.07,15.76,7.18,12.76,11.39Z"/><path class="cls-28" d="M344.8,311.3c-5.01,2.56-11.63-4.65-16.63-11.8,0,0,0,0,0,0-4.21-6.02-7.28-11.99-7.28-11.99l1.84-1.89s.07-.05,.11-.07c.9-.6,1.72-1.24,2.46-1.94h0c.21-.2,.42-.4,.62-.61,1.31,1.12,6.16,5.32,10.84,10.2,6.75,7.04,13.15,15.49,8.05,18.1Z"/><path class="cls-11" d="M355.96,297.72c-3.63,4.11-12.06,.14-19.2-4.52-6.39-4.17-11.75-8.88-11.75-8.88l.3-.7h0c.21-.2,.42-.4,.62-.61,1.16-1.2,2.12-2.56,2.86-4.07,.06-.11,.11-.22,.16-.34,4.28,1.52,17.86,6.57,24.37,11.81,3.13,2.52,4.63,5.09,2.65,7.32Z"/><path class="cls-15" d="M327.59,319.53c-2.01,.04-3.65-1.12-5-3.03-4.94-6.96-5.92-23.84-6.09-27.92,.11-.04,.21-.07,.32-.11,2.24-.79,4.21-1.74,5.92-2.86,.03-.02,.07-.05,.11-.07,.43,.98,3.12,7.13,5.34,13.94,0,0,0,0,0,0,3.04,9.34,5.19,19.91-.59,20.03Z"/><path class="cls-44" d="M322.59,316.5c-.05,4.46-1.22,7.55-4.46,7.31-2.24-.17-3.91-1.72-5.16-4.08-4.2-7.94-3.6-25.02-3.37-29.38h0c.22-.03,.43-.07,.64-.11,1-.2,1.96-.42,2.89-.65h0c1.18-.3,2.29-.63,3.36-1,.11-.04,.21-.07,.32-.11,1.23,3.83,5.88,18.84,5.77,28.03Z"/><path class="cls-37" d="M309.25,290.39c-.3,2.9-1.82,16.47-5,25.49-2.03,5.74-4.72,9.64-8.21,7.77-4.91-2.64-3.19-11.67-.31-19.91,2.32-6.66,5.4-12.79,6.32-14.57,.38,.17,.76,.32,1.15,.45,1.89,.67,3.83,.96,5.73,.8,.11,0,.22-.02,.32-.03Z"/><path class="cls-16" d="M315.83,289.65s1.1,21.9-2.86,30.08c-1.15,2.37-2.72,3.59-4.86,2.81-2.39-.87-3.52-3.39-3.86-6.65-.87-8.4,3.43-21.82,4.67-25.46,.11,0,.22-.02,.32-.03,.12-.01,.23-.03,.35-.04h0c.22-.03,.43-.07,.64-.11,1-.2,1.96-.42,2.89-.65h0s2.69,.07,2.69,.07Z"/><path class="cls-27" d="M303.2,289.62c-.77,1.67-3.79,8.06-7.47,14.13-4.74,7.81-10.6,15.1-14.23,11.18-4.31-4.66,3.04-14.76,9.17-21.69,0,0,0,0,0,0,3.09-3.49,5.87-6.18,6.69-6.96,.14,.11,.27,.22,.41,.33h0c1.34,1.06,2.78,1.93,4.27,2.57,.38,.17,.76,.32,1.15,.45Z"/><path class="cls-3" d="M289.46,269.14c-.15,2.29,.15,4.53,.81,6.66-5.74,.46-34.99,2.38-32.22-6.38,1.61-5.09,10.62-4.92,18.83-3.61,5.25,.84,10.17,2.14,12.62,2.84-.02,.16-.03,.32-.04,.48Z"/><path class="cls-7" d="M291.32,262.31c-.06,.12-.12,.24-.18,.37-.93,1.98-1.46,3.99-1.64,5.97-.02,.16-.03,.32-.04,.48-2.23-.49-7.29-1.67-12.58-3.33-9.33-2.91-19.42-7.32-16.15-12.08,2.37-3.45,8.15-2.49,14.14-.16,0,0,0,0,0,0,6.75,2.63,13.76,6.99,16.45,8.74Z"/><path class="cls-38" d="M295.08,257.08c-.11,.11-.21,.21-.3,.32-1.35,1.45-2.04,2.51-2.04,2.51-.54,.79-1.01,1.59-1.41,2.4-.06,.12-.12,.24-.18,.37-2.71-1.3-10.12-4.97-16.27-9.1,0,0,0,0,0,0-6.55-4.4-11.68-9.33-8.22-12.48,5.45-4.97,18.13,5.86,24.67,12.19,0,0,0,0,.01,0,1.82,1.76,3.17,3.17,3.75,3.79Z"/><path class="cls-17" d="M300.37,252.85c-.16,.09-.32,.2-.48,.3-2.03,1.28-3.64,2.72-4.81,3.94-.11,.11-.21,.21-.3,.32-.4-.46-1.71-1.97-3.45-4.11,0,0,0,0-.01-.01-3.25-4-8-10.19-11.13-15.8-3.32-5.95-4.81-11.25-.77-12.61,3.7-1.24,7.46,2.06,10.76,6.8,1.56,2.24,3.02,4.81,4.32,7.37,3.09,6.08,5.29,12.14,5.87,13.8Z"/><path class="cls-22" d="M297.84,286.68s-3.03,2.99-7.17,6.55c0,0,0,0,0,0-7.96,6.85-20.02,15.8-22.5,9.58-2.16-5.42,6.52-11.59,14.31-15.86,4.92-2.69,9.48-4.63,10.75-5.16,.15,.21,.3,.43,.46,.63,1.03,1.37,2.21,2.61,3.49,3.69,.06,.05,.13,.11,.19,.16,.14,.11,.27,.22,.41,.33h0s.06,.08,.06,.08Z"/><path class="cls-19" d="M293.69,282.44c-.68,.31-5.41,2.43-11.21,4.53-10.4,3.77-24.24,7.5-24.43,.72-.27-9.72,26.52-11.56,32.23-11.85,.66,2.14,1.68,4.15,2.95,5.97,.15,.21,.3,.43,.46,.63Z"/><ellipse class="cls-24" cx="301.72" cy="275.83" rx="1.97" ry="1.03" transform="translate(-41.84 54.28) rotate(-9.62)"/><ellipse class="cls-24" cx="324.97" cy="271.89" rx="1.97" ry="1.03" transform="translate(-40.85 58.1) rotate(-9.62)"/><path class="cls-21" d="M306.41,250.31c-.2,.05-.41,.1-.61,.16-.53,.15-1.05,.32-1.54,.5-1.42,.52-2.72,1.17-3.89,1.88-.16,.09-.32,.2-.48,.3-.8-1.81-3.33-7.73-5.39-14.09-2.97-9.18-4.94-19.3,.71-19.44,3.98-.1,6.56,4.56,8.23,10.34h0c2.2,7.61,2.81,17.15,2.96,20.36Z"/><path class="cls-25" d="M303.45,229.95v-1.43s3.41,5.07,3.65,21.63l-.69,.16s1.01-7.99-2.96-20.36Z"/><path class="cls-25" d="M299.89,253.14l-.46,.3s-2.6-4.09-5.7-15.87l1.06,2.37s3.29,9.32,5.1,13.21Z"/><path class="cls-25" d="M324.76,228.52s-.77,9.13-4.55,22.7c-.45-.17-.75-.28-.75-.28,0,0,2-3.68,4.7-21.3l.61-1.13Z"/><path class="cls-25" d="M313.46,222.23l.22-.87s1.3,18.17,.02,28.42l-.9-.09s1.3-6.6,.66-27.46Z"/><path class="cls-25" d="M291.32,253.28l-.72-.69s1.15,2.04,3.97,5.07l.38-.44s-1.74-1.33-3.63-3.93Z"/><path class="cls-25" d="M274.87,253.58l-1.02-.7s7.32,2.57,17.53,9.24l-.23,.56s-9.63-6.07-16.27-9.1Z"/><path class="cls-25" d="M276.88,265.81l-1.54-.23s2.01,1.35,14.1,3.94l.02-.38s-8.22-1.86-12.58-3.33Z"/><path class="cls-25" d="M285.04,276.22s4.04-.33,5.23-.42l.1,.33s-3.37,.5-6.4,.19l1.06-.1Z"/><path class="cls-25" d="M282.29,287.03s6.15-2,11.41-4.6l.28,.35s-4.67,3.08-12.92,4.98l1.24-.73Z"/><path class="cls-25" d="M297.78,286.61s-3.97,2.91-7.11,6.64l-1.41,1.2s2.64-3.38,8.01-8.24c.6,.48,.51,.41,.51,.41Z"/><path class="cls-25" d="M295.73,303.75s6.83-11.79,7.47-14.13l.76,.25s-5.33,10.46-8.68,15.2l.45-1.32Z"/><path class="cls-25" d="M309.25,290.39s-5.41,14.81-5,25.49c-.32,.9-.41,1.12-.41,1.12,0,0-.57-12.01,4.91-26.56l.5-.04Z"/><path class="cls-25" d="M312.97,319.73s5.04-12.82,2.07-30.68c.36-.11,.28-.08,.28-.08,0,0,3.19,15.8-2.19,31.08-.14-.25-.16-.32-.16-.32Z"/><path class="cls-25" d="M322.59,316.5s-5.27-9.2-6.33-16.24v1.02s.37,4.15,6.32,15.71v-.49Z"/><path class="cls-25" d="M322.84,285.55s2.55,5.69,5.34,13.94l.27,.38s-1.91-6.55-5.36-14.49l-.24,.16Z"/><path class="cls-25" d="M336.76,293.19s-8.39-5.75-11.45-9.59l-.24,.23s3.06,3.7,12.99,10.73l-1.29-1.37Z"/><path class="cls-25" d="M328.94,278.59s17.38,5.9,24.37,11.81c.57,.05-4.96-5.12-24.18-12.22l-.18,.41Z"/><path class="cls-25" d="M347.13,276.88s-8.4-1.74-16.52-4.9l-.04,.43s7.56,2.98,17.68,4.89l-1.12-.42Z"/><path class="cls-25" d="M330.67,265.72s18.35-1.53,27.89,1.96l.66-.2s-9.87-3.4-28.61-2.26l.05,.5Z"/><path class="cls-25" d="M327.69,245.31s-1.65,3.99-4.95,7.1c.4,.23,.24,.13,.24,.13,0,0,3.72-4.01,5.48-7.95l-.76,.72Z"/><path class="cls-25" d="M337.18,249.45s-6.52,2.91-10.21,6.47c.17,.21,.17,.21,.17,.21,0,0,4.88-4.14,8.78-5.89l1.26-.79Z"/><path class="cls-25" d="M329.8,261.26s5.93-.63,19.82-4.43l.81-.09s-5.53,2.19-20.48,5.03l-.15-.51Z"/><g><path class="cls-20" d="M306.13,269.06c-.91-1.5-3.17-1.41-4.36-.35-.4,.35-.59,.79-.78,1.28-.07,.22-.32,.34-.53,.25-.47-.24-.22-1.03-.05-1.4,.48-1,1.52-1.67,2.59-1.8,1.37-.2,2.94,.58,3.33,1.93,.03,.12-.14,.19-.2,.08h0Z"/><circle class="cls-20" cx="304.47" cy="269.58" r="1.97"/><circle class="cls-31" cx="302.9" cy="268.82" r=".55"/><circle class="cls-31" cx="303.71" cy="269.59" r=".21"/></g><g><path class="cls-20" d="M317.44,267.1c-.07-1.41,1.15-2.65,2.51-2.92,1.36-.31,3.23,.33,3.58,1.82,.07,.41-.47,.62-.71,.29-1.23-1.86-4.63-1.45-5.16,.81-.02,.12-.21,.11-.22-.01h0Z"/><circle class="cls-20" cx="319.4" cy="267.05" r="1.97"/><circle class="cls-31" cx="320.63" cy="265.82" r=".55"/><circle class="cls-31" cx="320.12" cy="266.81" r=".21"/></g></g><g><path class="cls-36" d="M340.01,428.87l-6.55,4.27c-26.66,16.17-44.85,16.43-44.85,16.43l1.98-4.97s7.22-15.68,11.58-16.55c4.36-.87,3.53-5.76,5.84-4.95,2.32,.81,14.82-8.19,16.1-8.09,.73,.05,2.79-1.9,5.21-3.22,1.8-.99,5.74-4.24,7.53-3.4,4.19,1.96,8.9-3.57,11.74-2.78,2.84,.79,15.07,4.27,15,4.64-.08,.44-11.26,8.47-12.7,9.67-1.73,1.44-2.21,1.94-4.17,3.6-.65,.55-5.59,4.55-6.7,5.34Z"/><g><path class="cls-14" d="M321.11,408.16c3.41,3.04,6,6.78,9.55,9.66-3.96-1-7.93-6.05-9.55-9.66h0Z"/><path class="cls-14" d="M320.71,404.68c4.03,3.94,7.1,8.64,10.69,12.94-3.98-2.21-8.69-8.83-10.69-12.94h0Z"/><path class="cls-14" d="M331.84,416.88c-3.07-2.96-5.43-6.71-7.72-10.28,3.17,1.97,6.37,6.82,7.72,10.28h0Z"/><path class="cls-4" d="M332.23,415.6c-2.93-3.63-5.24-7.6-7.61-11.6,3.48,2.62,6.35,7.46,7.61,11.6h0Z"/><path class="cls-14" d="M333.02,415.93c-.26-2.45-.61-4.81-1.57-7.06-.41-1.05-.97-1.93-1.56-2.96,3.37,1.87,4.61,6.57,3.13,10.03h0Z"/></g><g><path class="cls-14" d="M336.04,394.35c2.22,4.84,3.92,11.89,2.85,17.16-.11,.38-.23,.76-.36,1.13,0-.4,.01-.78,.02-1.16-.25-5.67-1.81-11.49-2.51-17.12h0Z"/><path class="cls-14" d="M332.73,390.99c2.41,5.52,5.62,16.35,4.99,22.26-.6-3.76-1.73-7.39-2.59-11.09-.9-3.7-1.8-7.4-2.4-11.18h0Z"/><path class="cls-14" d="M336.61,413.1c-1.38-2.61-2.36-5.37-3.19-8.18-.77-2.82-1.54-5.73-1.38-8.69,1.67,5.6,3.65,11.08,4.58,16.87h0Z"/><path class="cls-14" d="M334.96,412.43c-3.07-4.94-5.81-12.03-6.03-17.86,1.8,5.27,4.59,12.55,6.03,17.86h0Z"/><path class="cls-14" d="M334.69,413.56c-4.72-1.68-8.38-6.68-7.94-11.76,.51,1.49,.95,2.87,1.69,4.2,1.53,2.94,3.77,5.37,6.26,7.56h0Z"/></g><g><path class="cls-5" d="M351.66,410.04c.19-3.45,.41-8.16,.55-11.61,.08-1.31,.12-2.61,.31-3.93,.9,2.51,1.18,5.2,1.08,7.85-.15,2.65-.6,5.36-1.94,7.69h0Z"/><path class="cls-5" d="M346.88,409.88c-4.73-2.47-6.37-9.23-5.13-14.12,.18,.65,.29,1.29,.41,1.92,.88,4.32,2.02,8.61,4.72,12.2h0Z"/><path class="cls-5" d="M350.06,410.23c-.67-4.24,.09-8.44,.15-12.67,2.02,3.13,1.28,9.36-.15,12.67h0Z"/><path class="cls-14" d="M348.6,409.68c-.96-2.45-1.44-5-1.77-7.59-.29-2.59-.44-5.19-.03-7.79,.81,2.5,1.24,5.03,1.57,7.61,.29,2.58,.48,5.16,.22,7.77h0Z"/><path class="cls-5" d="M347.65,410.51c-2.76-3.29-4.79-8.61-4.07-12.92,1.51,4.31,3.15,8.44,4.07,12.92h0Z"/></g><g><path class="cls-14" d="M303.63,439.99c-1.72-3.72-3.83-7.55-5.75-11.17-.27-.54-.57-1.07-.81-1.64,3.39,3.1,6.29,8.16,6.56,12.81h0Z"/><path class="cls-14" d="M299.73,442.08c-4.89,.09-9.25-4.48-10.68-8.89,.61,.64,1.18,1.39,1.77,2.03,2.47,2.86,5.32,5.47,8.91,6.85h0Z"/><path class="cls-4" d="M302.43,440.89c-1.77-2.38-3.03-5.02-4.36-7.64-.44-.86-.88-1.76-1.42-2.55,2.95,1.63,5.26,6.95,5.79,10.19h0Z"/><path class="cls-14" d="M301.01,441.12c-1.85-1.57-3.4-3.39-4.86-5.3-1.44-1.93-2.78-3.92-3.74-6.15,1.75,1.67,3.26,3.5,4.72,5.41,1.44,1.92,2.8,3.88,3.88,6.04h0Z"/><path class="cls-14" d="M300.64,442.23c-3.66-1.46-7.72-4.73-9.27-8.42,3,2.75,6.46,5.47,9.27,8.42h0Z"/></g><g><path class="cls-14" d="M316.41,423.1c-2.01-1.56-3.5-3.82-4.73-6.13-.9-1.75-1.63-3.6-2.13-5.51-.52-2.34-.57-2.36,.6-.24,1.97,3.67,4.28,8.21,6.26,11.88h0Z"/><path class="cls-14" d="M319.96,421.08c.52-4.28-.44-8.56-1.61-12.77-.17-.62-.36-1.23-.5-1.88,3.01,3.89,4.64,10.59,2.11,14.66h0Z"/><path class="cls-14" d="M317.71,422.64c-2.49-2.41-5.69-7.68-5.49-11.29,1.84,3.77,4.2,7.23,5.49,11.29h0Z"/><path class="cls-14" d="M318.58,421.57c-1.3-2.24-2.25-4.62-3.13-7.05-.85-2.44-1.6-4.87-2.04-7.43,1.42,2.17,2.41,4.56,3.29,6.99,.85,2.45,1.57,4.91,1.88,7.49h0Z"/><path class="cls-14" d="M319.65,421.95c-1.21-4.37-1.71-8.72-2.4-13.17,2.37,3.57,3.1,9.14,2.4,13.17h0Z"/></g><g><path class="cls-14" d="M315.63,437.45c-1.77-1.18-3.03-2.95-4.07-4.77-.75-1.38-1.34-2.85-1.71-4.38-.37-1.87-.42-1.89,.56-.22,1.65,2.89,3.56,6.48,5.22,9.37h0Z"/><path class="cls-14" d="M318.95,435.66c.65-3.49-.04-6.93-.93-10.29-.13-.49-.28-.98-.38-1.5,2.59,3.03,3.8,8.39,1.31,11.8h0Z"/><path class="cls-14" d="M316.83,437.03c-2.17-1.85-4.87-5.99-4.54-8.93,1.52,2.98,3.53,5.69,4.54,8.93h0Z"/><path class="cls-4" d="M317.67,436.12c-1.1-1.76-1.86-3.65-2.56-5.58-.67-1.94-1.25-3.88-1.55-5.94,1.2,1.7,2.01,3.59,2.71,5.53,.67,1.95,1.22,3.92,1.4,5.99h0Z"/><path class="cls-14" d="M318.63,436.38c-.92-3.5-1.2-7-1.64-10.58,2.02,2.8,2.45,7.28,1.64,10.58h0Z"/></g><g><path class="cls-14" d="M304.72,435.31c-1.93-.9-3.45-2.45-4.75-4.09-.95-1.25-1.76-2.61-2.36-4.07-.65-1.79-.7-1.81,.52-.31,2.07,2.61,4.51,5.86,6.59,8.47h0Z"/><path class="cls-14" d="M307.74,433.03c.11-3.55-1.1-6.84-2.49-10.03-.21-.47-.43-.93-.6-1.43,3.03,2.61,5.03,7.7,3.09,11.46h0Z"/><path class="cls-14" d="M305.85,434.7c-2.42-1.49-5.74-5.18-5.85-8.13,1.96,2.71,4.36,5.08,5.85,8.13h0Z"/><path class="cls-14" d="M306.54,433.68c-1.35-1.57-2.4-3.32-3.38-5.13-.96-1.82-1.83-3.65-2.44-5.63,1.45,1.49,2.53,3.24,3.52,5.05,.96,1.82,1.81,3.69,2.3,5.71h0Z"/><path class="cls-14" d="M307.53,433.79c-1.44-3.32-2.25-6.73-3.23-10.2,2.42,2.47,3.52,6.81,3.23,10.2h0Z"/></g></g></g><path class="cls-43" d="M344.45,444.25s-2.95-.19,.85-3.1c3.8-2.91,7.82-4.8,8-3.85s-.25,1.27-.25,1.27l-8.61,5.68Z"/></g><g><path class="cls-36" d="M344.51,444.25s-.59-.33-.61-.93c1.04,.66,.9,.72,.9,.72l-.29,.2Z"/><path class="cls-10" d="M344,443.53c3.66,2.31,50.4,32.59,53.32,72.19,1.45,2.81,10.84,.28,12.62-4.38,.15-.39,.15-1,.09-1.65-.14-1.47-.58-2.89-1.22-4.23-4.33-9.03-27.76-55.94-56.21-67.62-.48-.2-1.02-.12-1.44,.18l-7.16,5.2c-.11,.08-.11,.23,0,.3Z"/><path class="cls-36" d="M397.32,515.72s-2.05-1.96-1.86-3.64l2-.68-.14,4.32Z"/></g><path class="cls-12" d="M487.98,393.76s-9.82,32.18-54.72,41.94c-36.9,10.58-54.96,12.22-54.96,12.22l-12.86-9.13c-5.43-3.86-8.83-9.98-9.23-16.63-1.38-22.99-3.34-41.53-4.02-55.66l-.17-3.07c-.05-1.14,.1-1.16,.04-2.23,.12,.12-.18-1.58-.06-1.49-.69-37.52,24.93-94.67,42.5-108.53,35.2-29.09,18.42-61.51,25.32-132.62,6.9-71.1,31.23-90.02,36.48-105.37,5.27-15.36,9.49,7.95,17.13-7.85,7.64-15.81,15.99,9.49,23.71-.5,7.71-10.02,64.19,70.89,65.91,128.34s-73.88,136.75-82.61,184.11c-8.73,47.35,7.52,76.47,7.52,76.47Z"/><path class="cls-41" d="M594.16,452.18c-2.69-11.85-15.27-19.18-19.18-22.07-.28-.58-.47-1.07-.6-1.48,.04,.01,.06,.02,.06,.02h.01s.04,.03,.12,.1c.34,.3,.69,.58,1.06,.84,.55,.42,1.12,.79,1.71,1.12,5,2.78,18.55,12.53,16.82,21.47Z"/><path class="cls-34" d="M320.88,505.78s-.24,1.53,.31,2.36,1.12,1.39,1.05,2.51l1.27-.57,.35-3.45-2.49-1.28-.49,.41Z"/><path class="cls-34" d="M317.27,497.81s-.24,1.57,.31,2.42,1.12,1.42,1.05,2.58l1.27-.58,.35-3.54-2.49-1.31-.49,.43Z"/><path class="cls-42" d="M318.91,489.85s-2.18,7.12-.82,9.85c1.01,1.14,.88,2.51,1.19,2.9s3.52,.97,5.67,.62"/><path class="cls-42" d="M322.69,503.99s-2.64,1.19-1.01,4.31c.76,.85,.66,1.87,.89,2.17s2.95,.71,4.24,.46"/></g></g></svg>