<?xml version="1.0" encoding="UTF-8"?><svg id="Calque_2" xmlns="http://www.w3.org/2000/svg" viewBox="0 0 671.87 752.83"><defs><style>.cls-1{fill:#82d16f;}.cls-2{fill:#593636;}.cls-3{opacity:.05;}.cls-4{fill:#ffc82c;}.cls-5{fill:#63c6a0;}.cls-6{fill:#302826;}.cls-7{fill:#ff6e79;opacity:.35;}.cls-8{opacity:.03;}.cls-9{fill:#5aba97;}.cls-10{fill:#ffc033;}.cls-11{fill:#efefef;}.cls-12{fill:#ffd655;}.cls-13{fill:#ff2c50;}.cls-14{fill:#4f2f2f;}.cls-15{fill:#ffe9ec;}.cls-16{fill:#e9f4f4;}.cls-17{fill:#ffcd50;}.cls-18{fill:#f5ffff;}</style></defs><g id="Calque_1-2"><g><g><path class="cls-9" d="M145.29,593.47c-7.32,27.88-3.99,82.76-2.17,105.54,.51,6.42,.9,10.29,.9,10.29h-11.41s-1.78-72.49,4.56-98.85c6.34-26.36,9.63-81.61,9.63-81.61l4.34-2.35,1.75-.95s1.77,32.19-7.6,67.93Z"/><path class="cls-5" d="M145.29,593.47c-7.32,27.88-3.99,82.76-2.17,105.54l-2.72,1.54s-5.38-77.13,2.31-102.9c9.96-38.79,9.17-62.95,8.44-71.16l1.75-.95s1.77,32.19-7.6,67.93Z"/><path class="cls-9" d="M164.94,636.82c-11.04,9.51-25.27,12.72-25.27,12.72l.03-13.17s13.46-22.71,24.35-32.94c6.92-6.49,12.81-7.95,13.55,4.67,.77,13.06-5.22,22.32-12.65,28.72Z"/><path class="cls-9" d="M144.36,584.02s-1.01-.41-2.56-1.23c-5.85-3.06-19.46-11.82-16.32-25.77,.59-2.63,1.41-4.06,2.38-4.58,5.53-2.98,15.87,23.5,15.87,23.5l.64,8.07Z"/><path class="cls-1" d="M161.58,641.31c.33-.34,.65-.68,.96-1.02-.31,.37-.64,.7-.96,1.02Z"/><path class="cls-5" d="M164.94,636.82c7.6-10.21,13.81-23.58,9.88-35.3-1.73-5.16-10.78,1.91-10.78,1.91h0c6.92-6.5,12.81-7.95,13.55,4.67,.77,13.06-5.22,22.32-12.65,28.72Z"/><g><path class="cls-17" d="M193.17,453.65c-4.77,16.57-17.89,23.26-39.21,23.9-7.64,.23-15.23-4.06-20.84-10.67-10.05-11.85-13.75-31.17-.01-45.42,0,0,8.52-9.25,21.97-11.77,5.4-1.01,11.58-.93,18.34,1.26,23.58,7.65,24.53,26.13,19.75,42.7Z"/><path class="cls-10" d="M133.13,466.88c-10.05-11.85-13.75-31.17-.01-45.42,0,0,8.52-9.25,21.97-11.77-14.2,6.18-35.98,21.81-21.95,57.18Z"/></g><path class="cls-6" d="M159.54,449.01c1.26,1.73,3.78,1.9,5.66,1.24,.64-.26,1.23-.63,1.66-1.26,.09-.14,.28-.17,.41-.08,.08,.06,.13,.15,.13,.24,0,.48-.19,.96-.46,1.37-1.71,2.41-5.84,2.41-7.55,.02-.24-.36-.85-1.62-.14-1.71,.13,0,.23,.07,.29,.17h0Z"/><path class="cls-6" d="M169.74,443.17c.37-3.58,3.88-6.15,7.39-6.44,2.79-.29,6.01,.81,7.77,3.21,.63,.81,1.07,1.86,.99,2.93-.09,1.5-2.06,2.15-3.02,1.02-.51-.52-.89-1.12-1.2-1.7-.96-1.57-2.58-2.65-4.54-2.91-2.79-.37-5.85,1.21-6.84,4-.1,.31-.58,.2-.54-.12h0Z"/><path class="cls-6" d="M156.12,443.29c-.99-2.79-4.06-4.37-6.84-4-1.95,.26-3.57,1.34-4.54,2.91-.7,1.34-2,3.15-3.65,1.84-1.16-1.13-.42-3.01,.41-4.09,1.76-2.4,4.98-3.49,7.77-3.21,3.51,.29,7.02,2.86,7.39,6.44,.03,.32-.44,.42-.54,.12h0Z"/><path class="cls-18" d="M169.84,409.97h0c-.27-.06-.55-.12-.82-.17-3.57-.71-6.96-.86-10.12-.61-.36,.02-.71,.06-1.07,.1-.08-5.04-.17-21.47,1.89-35.23h0c1.89-12.64,5.59-23.02,12.77-20.24,3.74,1.45,5.62,5.18,6.3,10.09,2.04,14.68-6.7,39.89-8.94,46.06Z"/><path class="cls-18" d="M196.16,406.85h0c-5.25,5.35-9.68,9.26-10.7,10.14-.02,.02-.05,.05-.07,.06-1.41-1.1-3-2.13-4.77-3.08h0c-1.1-.59-2.26-1.15-3.51-1.66l-1.7-1.02s9.22-18.47,19.28-31.84c7.58-10.07,15.64-17.25,20.59-11.46,7.56,8.84-7.7,27.23-19.1,38.85Z"/><path class="cls-18" d="M194.67,379.46c-4.33,16.48-13.96,34.53-13.96,34.53h-.09s0-.02,0-.02c-1.1-.59-2.26-1.14-3.51-1.66-1.16-.48-2.39-.94-3.68-1.36-1.22-.39-2.41-.72-3.58-.98h0c-.27-.06-.55-.12-.82-.17,.8-7.36,3.79-31.69,9.77-45.89,3.28-7.79,7.46-12.53,12.66-9.73,6.67,3.58,6.18,14.07,3.24,25.28Z"/><path class="cls-18" d="M208.63,417.5c-7.5,3.03-14.51,5.13-17.35,5.94-.16-.26-.33-.51-.51-.76-1.36-1.95-3.06-3.77-5.14-5.43h0s-.17-.26-.17-.26l-1.12-1.71s5.01-3.86,11.82-8.43h0c13.54-9.09,34.22-20.97,36.89-10.81,2.26,8.62-11.77,16.36-24.43,21.46Z"/><path class="cls-18" d="M248.37,420.29c-.48,6.7-8.62,10.32-18.55,12.22h0c-12.75,2.45-28.43,2.08-34.64,1.81-.03-.28-.08-.56-.12-.83-.58-3.55-1.77-6.95-3.77-10.05-.16-.26-.33-.51-.51-.76,2.69-.88,9.65-3.1,17.85-5.18,17.47-4.43,40.54-8.24,39.75,2.79Z"/><path class="cls-18" d="M247.6,463.84c-3.86,7.02-15.79,5.5-27.71,1.73,0,0,0,0,0,0-11.2-3.55-22.4-9.09-26.86-11.41,.05-.17,.1-.34,.15-.51,.1-.35,.2-.69,.29-1.05,.53-1.93,.97-3.88,1.31-5.84,.27-1.57,.47-3.14,.58-4.7,7.93,.95,34.05,4.5,46.42,11.26,5.31,2.9,8.09,6.39,5.82,10.51Z"/><path class="cls-18" d="M256.19,445.01c-1.57,5.18-7.16,7.57-14.41,8.32-16.11,1.68-40.41-4.71-47-6.56,.27-1.57,.47-3.14,.58-4.7,.2-2.63,.16-5.23-.18-7.75-.03-.28-.08-.56-.12-.83,5.71-.51,20.91-1.66,34.76-.97h0c15.33,.77,29.01,3.81,26.37,12.49Z"/><path class="cls-18" d="M238.14,488.4c-2.82,2.81-6.97,3.04-11.7,1.7-13.77-3.9-32.51-21.05-38.04-26.33,.12-.17,.24-.34,.36-.52,1.79-2.62,3.21-5.63,4.25-9.09,.05-.17,.1-.34,.15-.51,.1-.35,.2-.69,.29-1.05,4.13,1.75,15.8,6.85,26.42,12.96,0,0,0,0,0,0,13.06,7.53,24.5,16.59,18.25,22.83Z"/><path class="cls-18" d="M206.16,522.88c-9.18,2.89-18.26-11.16-24.64-24.62,0,0,0,0,0,0-5.38-11.34-8.85-22.27-8.85-22.27l3.64-2.66c.06-.03,.13-.06,.2-.09,1.68-.75,3.25-1.6,4.71-2.57h0c.42-.27,.81-.56,1.21-.85,1.89,2.26,8.85,10.72,15.34,20.27,9.37,13.79,17.73,29.84,8.39,32.78Z"/><path class="cls-18" d="M228.82,503.19c-7.29,5.88-20.35-3.21-31.05-13.09-9.57-8.84-17.26-18.32-17.26-18.32l.7-1.1h0c.42-.27,.81-.56,1.21-.85,2.3-1.69,4.29-3.7,5.98-6.05,.12-.17,.24-.34,.36-.52,6.77,3.77,28.21,16.17,37.67,26.85,4.56,5.14,6.34,9.89,2.38,13.08Z"/><path class="cls-18" d="M174.81,531.84c-3.39-.5-5.83-2.93-7.56-6.53-6.33-13.14-3.18-41.84-2.29-48.76,.19-.03,.38-.06,.57-.09,4-.69,7.59-1.72,10.79-3.12,.06-.03,.13-.06,.2-.09,.45,1.77,3.22,12.91,5.01,25.01,0,0,0,0,0,0,2.45,16.6,3.06,35.02-6.71,33.58Z"/><path class="cls-18" d="M167.25,525.31c-1.36,7.5-4.21,12.37-9.59,11.04-3.72-.92-6.1-4.01-7.53-8.34-4.81-14.57,1.08-43.17,2.72-50.45h0c.37,0,.74,0,1.12,0,1.74-.05,3.42-.14,5.05-.28h0c2.07-.17,4.05-.41,5.94-.72,.19-.03,.38-.06,.57-.09,.99,6.8,4.53,33.41,1.73,48.86Z"/><path class="cls-18" d="M152.23,477.53c-1.33,4.8-7.76,27.22-15.69,41.51-5.05,9.09-10.71,14.89-16.04,10.74-7.52-5.85-2.04-20.57,5.15-33.62,5.81-10.55,12.75-20,14.81-22.74,.59,.39,1.19,.75,1.8,1.08,3,1.66,6.18,2.72,9.42,2.99,.18,.02,.37,.03,.56,.04Z"/><path class="cls-18" d="M163.53,478.16s-4.39,37.2-13.41,49.85c-2.61,3.66-5.6,5.27-8.99,3.34-3.78-2.15-4.96-6.71-4.6-12.31,.93-14.39,12.01-35.77,15.14-41.55,.18,.02,.37,.03,.56,.04,.2,.01,.4,.02,.61,.02h0c.37,0,.74,0,1.12,0,1.74-.05,3.42-.14,5.05-.28h0l4.52,.88Z"/><path class="cls-18" d="M142.26,474.5c-1.78,2.6-8.68,12.49-16.61,21.66-10.22,11.8-22.16,22.42-27.16,14.77-5.94-9.09,9.33-23.99,21.64-33.91,0,0,0,0,.01,0,6.2-5,11.65-8.73,13.26-9.81,.2,.23,.39,.45,.6,.67h0c1.96,2.16,4.14,4.04,6.46,5.55,.59,.39,1.19,.75,1.8,1.08Z"/><path class="cls-18" d="M124.97,436.08c-.9,3.81-1.04,7.68-.54,11.45-9.8-.86-59.62-5.98-52.45-19.93,4.16-8.11,19.29-5.26,32.74-.71,8.6,2.91,16.52,6.51,20.44,8.39-.07,.27-.14,.54-.2,.8Z"/><path class="cls-18" d="M130.05,425.11c-.14,.19-.27,.38-.4,.57-2.14,3.07-3.6,6.3-4.47,9.59-.07,.27-.14,.54-.2,.8-3.62-1.47-11.8-4.89-20.24-9.19-14.89-7.57-30.62-17.86-23.76-24.96,4.97-5.14,14.44-1.87,23.86,3.77,0,0,0,0,0,0,10.62,6.35,21.19,15.71,25.21,19.41Z"/><path class="cls-18" d="M137.87,417.37c-.21,.15-.41,.3-.6,.45-2.69,2.05-4.16,3.65-4.16,3.65-1.14,1.18-2.16,2.4-3.06,3.64-.14,.19-.27,.38-.4,.57-4.19-2.96-15.62-11.26-24.81-19.98,0,0,0,0,0,0-9.78-9.29-17.01-19.05-10.28-23.37,10.61-6.82,28.86,15.04,38.08,27.57,0,0,0,.01,.01,.02,2.56,3.48,4.43,6.24,5.23,7.46Z"/><path class="cls-18" d="M147.99,411.75c-.3,.11-.6,.24-.89,.36-3.78,1.58-6.9,3.54-9.23,5.26-.21,.15-.41,.3-.6,.45-.55-.89-2.32-3.81-4.63-7.9,0,0,0-.01-.01-.02-8.93-15.79-25.91-49.05-11.93-51.24,9.7-1.52,16.81,13.58,21.35,28.18,3.46,11.12,5.44,21.96,5.95,24.92Z"/><path class="cls-18" d="M134.08,468.02s-5.95,4.17-13.94,8.99c0,0,0,0-.01,0-15.37,9.27-38.23,20.91-40.63,9.72-2.09-9.75,14.28-17.66,28.63-22.63,9.05-3.13,17.3-5.1,19.59-5.62,.18,.4,.38,.8,.59,1.2,1.35,2.6,2.97,5.03,4.82,7.2,.09,.1,.18,.21,.27,.32,.2,.23,.39,.45,.6,.67h0s.08,.15,.08,.15Z"/><path class="cls-18" d="M128.31,459.68c-1.24,.32-9.8,2.54-20.18,4.43-18.59,3.39-42.97,5.72-41.36-5.75,2.32-16.44,47.96-11.91,57.67-10.76,.5,3.79,1.64,7.48,3.27,10.89,.18,.4,.38,.8,.59,1.2Z"/><ellipse class="cls-7" cx="143.72" cy="450.85" rx="3.36" ry="1.76"/><ellipse class="cls-7" cx="184" cy="450.85" rx="3.36" ry="1.76"/><path class="cls-18" d="M158.89,409.19c-.36,.02-.71,.06-1.07,.1-.94,.1-1.85,.24-2.74,.41-2.55,.48-4.92,1.2-7.09,2.05-.3,.11-.6,.24-.89,.36-.82-3.28-3.41-13.97-5.06-25.28-2.38-16.31-2.82-33.92,6.75-32.54,6.74,.97,9.75,9.55,10.91,19.76h0c1.53,13.44-.16,29.7-.82,35.14Z"/><path class="cls-16" d="M159.71,374.06l.39-2.41s4.31,9.51,0,37.47l-1.21,.08s3.98-13.17,.82-35.14Z"/><path class="cls-16" d="M147.1,412.11l-.86,.37s-3.21-7.64-5.07-28.36l1.11,4.29s2.89,16.64,4.82,23.7Z"/><path class="cls-16" d="M196.02,377.73s-3.9,15.16-14.15,36.94c-.71-.42-1.18-.68-1.18-.68,0,0,4.42-5.63,13.99-34.53l1.34-1.73Z"/><path class="cls-16" d="M178.78,363.91l.61-1.4s-3,30.97-8.07,47.87l-1.49-.41s4.07-10.75,8.95-46.06Z"/><path class="cls-16" d="M132.62,409.9l-1.02-1.37s1.36,3.76,5.25,9.67l.77-.64s-2.55-2.73-5-7.66Z"/><path class="cls-16" d="M104.84,405.7l-1.53-1.47s11.6,6.41,26.89,20.57l-.55,.87s-14.49-12.98-24.81-19.98Z"/><path class="cls-16" d="M104.73,426.88l-2.54-.83s3.01,2.85,22.63,10.66l.14-.63s-13.31-5.48-20.24-9.19Z"/><path class="cls-16" d="M115.5,446.74s6.9,.59,8.93,.79l.08,.58s-5.82-.13-10.83-1.5l1.82,.13Z"/><path class="cls-16" d="M107.78,464.17s10.92-1.61,20.52-4.49l.36,.67s-8.75,3.86-23.18,4.69l2.29-.88Z"/><path class="cls-16" d="M134,467.87s-7.52,3.76-13.87,9.15l-2.72,1.62s5.41-4.94,15.85-11.6c.87,.99,.74,.84,.74,.84Z"/><path class="cls-16" d="M125.65,496.16s14.86-17.91,16.61-21.66l1.21,.63s-11.95,16.1-18.95,23.12l1.13-2.09Z"/><path class="cls-16" d="M152.23,477.53s-13.34,23.39-15.69,41.51c-.8,1.42-1.01,1.76-1.01,1.76,0,0,2.46-20.4,15.85-43.34l.86,.07Z"/><path class="cls-16" d="M150.13,528s12.16-20.16,12.24-51.08c.64-.08,.49-.06,.49-.06,0,0,.87,27.52-12.55,51.73-.17-.47-.18-.59-.18-.59Z"/><path class="cls-16" d="M167.25,525.31s-6.25-17-6.03-29.17l-.3,1.72s-.56,7.1,6.18,28.26l.16-.81Z"/><path class="cls-16" d="M176.51,473.24s2.68,10.32,5.01,25.01l.35,.72s-1.35-11.58-4.9-25.94l-.46,.21Z"/><path class="cls-16" d="M197.77,490.09s-12.5-12.07-16.56-19.42l-.47,.32s4.09,7.11,18.82,21.77l-1.79-2.68Z"/><path class="cls-16" d="M188.77,463.26s27.59,14.9,37.67,26.85c.94,.25-6.9-10.04-37.25-27.49l-.42,.64Z"/><path class="cls-16" d="M219.89,465.57s-13.66-5.32-26.43-12.97l-.2,.71s11.87,7.18,28.39,13.29l-1.76-1.03Z"/><path class="cls-16" d="M195.35,442.07s31.35,2.65,46.42,11.26l1.17-.14s-15.66-8.55-47.54-11.97l-.06,.85Z"/><path class="cls-16" d="M196.16,406.85s-3.92,6.24-10.36,10.54c.6,.51,.36,.29,.36,.29,0,0,7.41-5.69,11.49-11.83l-1.49,.99Z"/><path class="cls-16" d="M210.97,416.53s-11.81,3.05-19.04,7.99c.23,.4,.22,.39,.22,.39,0,0,9.4-5.58,16.47-7.41l2.35-.97Z"/><path class="cls-16" d="M195.17,434.32s10.16,.64,34.64-1.81l1.39,.08s-9.94,2.11-35.92,2.62l-.11-.9Z"/></g><g><path class="cls-9" d="M560.65,615.83c-7.32,27.88-3.99,82.76-2.17,105.54,.51,6.42,.9,10.29,.9,10.29h-11.41s-1.78-72.49,4.56-98.85c6.34-26.36,9.63-81.61,9.63-81.61l4.34-2.35,1.75-.95s1.77,32.19-7.6,67.93Z"/><path class="cls-5" d="M560.65,615.83c-7.32,27.88-3.99,82.76-2.17,105.54l-2.72,1.54s-5.38-77.13,2.31-102.9c9.96-38.79,9.17-62.95,8.44-71.16l1.75-.95s1.77,32.19-7.6,67.93Z"/><path class="cls-9" d="M580.3,659.17c-11.04,9.51-25.27,12.72-25.27,12.72l.03-13.17s13.46-22.71,24.35-32.94c6.92-6.49,12.81-7.95,13.55,4.67,.77,13.06-5.22,22.32-12.65,28.72Z"/><path class="cls-9" d="M559.72,606.38s-1.01-.41-2.56-1.23c-5.85-3.06-19.46-11.82-16.32-25.77,.59-2.63,1.41-4.06,2.38-4.58,5.53-2.98,15.87,23.5,15.87,23.5l.64,8.07Z"/><path class="cls-1" d="M576.93,663.67c.33-.34,.65-.68,.96-1.02-.31,.37-.64,.7-.96,1.02Z"/><path class="cls-5" d="M580.3,659.17c7.6-10.21,13.81-23.58,9.88-35.3-1.73-5.16-10.78,1.91-10.78,1.91h0c6.92-6.5,12.81-7.95,13.55,4.67,.77,13.06-5.22,22.32-12.65,28.72Z"/><g><path class="cls-17" d="M608.53,476.01c-4.77,16.57-17.89,23.26-39.21,23.9-7.64,.23-15.23-4.06-20.84-10.67-10.05-11.85-13.75-31.17-.01-45.42,0,0,8.52-9.25,21.97-11.77,5.4-1.01,11.58-.93,18.34,1.26,23.58,7.65,24.53,26.13,19.75,42.7Z"/><path class="cls-10" d="M548.48,489.24c-10.05-11.85-13.75-31.17-.01-45.42,0,0,8.52-9.25,21.97-11.77-14.2,6.18-35.98,21.81-21.95,57.18Z"/></g><path class="cls-6" d="M574.9,471.36c1.26,1.73,3.78,1.9,5.66,1.24,.64-.26,1.23-.63,1.66-1.26,.09-.14,.28-.17,.41-.08,.08,.06,.13,.15,.13,.24,0,.48-.19,.96-.46,1.37-1.71,2.41-5.84,2.41-7.55,.02-.24-.36-.85-1.62-.14-1.71,.13,0,.23,.07,.29,.17h0Z"/><path class="cls-6" d="M585.1,465.53c.37-3.58,3.88-6.15,7.39-6.44,2.79-.29,6.01,.81,7.77,3.21,.63,.81,1.07,1.86,.99,2.93-.09,1.5-2.06,2.15-3.02,1.02-.51-.52-.89-1.12-1.2-1.7-.96-1.57-2.58-2.65-4.54-2.91-2.79-.37-5.85,1.21-6.84,4-.1,.31-.58,.2-.54-.12h0Z"/><path class="cls-6" d="M571.48,465.64c-.99-2.79-4.06-4.37-6.84-4-1.95,.26-3.57,1.34-4.54,2.91-.7,1.34-2,3.15-3.65,1.84-1.16-1.13-.42-3.01,.41-4.09,1.76-2.4,4.98-3.49,7.77-3.21,3.51,.29,7.02,2.86,7.39,6.44,.03,.32-.44,.42-.54,.12h0Z"/><path class="cls-18" d="M585.19,432.33h0c-.27-.06-.55-.12-.82-.17-3.57-.71-6.96-.86-10.12-.61-.36,.02-.71,.06-1.07,.1-.08-5.04-.17-21.47,1.89-35.23h0c1.89-12.64,5.59-23.02,12.77-20.24,3.74,1.45,5.62,5.18,6.3,10.09,2.04,14.68-6.7,39.89-8.94,46.06Z"/><path class="cls-18" d="M611.52,429.2h0c-5.25,5.35-9.68,9.26-10.7,10.14-.02,.02-.05,.05-.07,.06-1.41-1.1-3-2.13-4.77-3.08h0c-1.1-.59-2.26-1.15-3.51-1.66l-1.7-1.02s9.22-18.47,19.28-31.84c7.58-10.07,15.64-17.25,20.59-11.46,7.56,8.84-7.7,27.23-19.1,38.85Z"/><path class="cls-18" d="M610.03,401.81c-4.33,16.48-13.96,34.53-13.96,34.53h-.09s0-.02,0-.02c-1.1-.59-2.26-1.14-3.51-1.66-1.16-.48-2.39-.94-3.68-1.36-1.22-.39-2.41-.72-3.58-.98h0c-.27-.06-.55-.12-.82-.17,.8-7.36,3.79-31.69,9.77-45.89,3.28-7.79,7.46-12.53,12.66-9.73,6.67,3.58,6.18,14.07,3.24,25.28Z"/><path class="cls-18" d="M623.98,439.85c-7.5,3.03-14.51,5.13-17.35,5.94-.16-.26-.33-.51-.51-.76-1.36-1.95-3.06-3.77-5.14-5.43h0s-.17-.26-.17-.26l-1.12-1.71s5.01-3.86,11.82-8.43h0c13.54-9.09,34.22-20.97,36.89-10.81,2.26,8.62-11.77,16.36-24.43,21.46Z"/><path class="cls-18" d="M663.73,442.65c-.48,6.7-8.62,10.32-18.55,12.22h0c-12.75,2.45-28.43,2.08-34.64,1.81-.03-.28-.08-.56-.12-.83-.58-3.55-1.77-6.95-3.77-10.05-.16-.26-.33-.51-.51-.76,2.69-.88,9.65-3.1,17.85-5.18,17.47-4.43,40.54-8.24,39.75,2.79Z"/><path class="cls-18" d="M662.95,486.2c-3.86,7.02-15.79,5.5-27.71,1.73,0,0,0,0,0,0-11.2-3.55-22.4-9.09-26.86-11.41,.05-.17,.1-.34,.15-.51,.1-.35,.2-.69,.29-1.05,.53-1.93,.97-3.88,1.31-5.84,.27-1.57,.47-3.14,.58-4.7,7.93,.95,34.05,4.5,46.42,11.26,5.31,2.9,8.09,6.39,5.82,10.51Z"/><path class="cls-18" d="M671.55,467.36c-1.57,5.18-7.16,7.57-14.41,8.32-16.11,1.68-40.41-4.71-47-6.56,.27-1.57,.47-3.14,.58-4.7,.2-2.63,.16-5.23-.18-7.75-.03-.28-.08-.56-.12-.83,5.71-.51,20.91-1.66,34.76-.97h0c15.33,.77,29.01,3.81,26.37,12.49Z"/><path class="cls-18" d="M653.49,510.76c-2.82,2.81-6.97,3.04-11.7,1.7-13.77-3.9-32.51-21.05-38.04-26.33,.12-.17,.24-.34,.36-.52,1.79-2.62,3.21-5.63,4.25-9.09,.05-.17,.1-.34,.15-.51,.1-.35,.2-.69,.29-1.05,4.13,1.75,15.8,6.85,26.42,12.96,0,0,0,0,0,0,13.06,7.53,24.5,16.59,18.25,22.83Z"/><path class="cls-18" d="M621.51,545.23c-9.18,2.89-18.26-11.16-24.64-24.62,0,0,0,0,0,0-5.38-11.34-8.85-22.27-8.85-22.27l3.64-2.66c.06-.03,.13-.06,.2-.09,1.68-.75,3.25-1.6,4.71-2.57h0c.42-.27,.81-.56,1.21-.85,1.89,2.26,8.85,10.72,15.34,20.27,9.37,13.79,17.73,29.84,8.39,32.78Z"/><path class="cls-18" d="M644.18,525.54c-7.29,5.88-20.35-3.21-31.05-13.09-9.57-8.84-17.26-18.32-17.26-18.32l.7-1.1h0c.42-.27,.81-.56,1.21-.85,2.3-1.69,4.29-3.7,5.98-6.05,.12-.17,.24-.34,.36-.52,6.77,3.77,28.21,16.17,37.67,26.85,4.56,5.14,6.34,9.89,2.38,13.08Z"/><path class="cls-18" d="M590.16,554.19c-3.39-.5-5.83-2.93-7.56-6.53-6.33-13.14-3.18-41.84-2.29-48.76,.19-.03,.38-.06,.57-.09,4-.69,7.59-1.72,10.79-3.12,.06-.03,.13-.06,.2-.09,.45,1.77,3.22,12.91,5.01,25.01,0,0,0,0,0,0,2.45,16.6,3.06,35.02-6.71,33.58Z"/><path class="cls-18" d="M582.6,547.66c-1.36,7.5-4.21,12.37-9.59,11.04-3.72-.92-6.1-4.01-7.53-8.34-4.81-14.57,1.08-43.17,2.72-50.45h0c.37,0,.74,0,1.12,0,1.74-.05,3.42-.14,5.05-.28h0c2.07-.17,4.05-.41,5.94-.72,.19-.03,.38-.06,.57-.09,.99,6.8,4.53,33.41,1.73,48.86Z"/><path class="cls-18" d="M567.59,499.88c-1.33,4.8-7.76,27.22-15.69,41.51-5.05,9.09-10.71,14.89-16.04,10.74-7.52-5.85-2.04-20.57,5.15-33.62,5.81-10.55,12.75-20,14.81-22.74,.59,.39,1.19,.75,1.8,1.08,3,1.66,6.18,2.72,9.42,2.99,.18,.02,.37,.03,.56,.04Z"/><path class="cls-18" d="M578.89,500.51s-4.39,37.2-13.41,49.85c-2.61,3.66-5.6,5.27-8.99,3.34-3.78-2.15-4.96-6.71-4.6-12.31,.93-14.39,12.01-35.77,15.14-41.55,.18,.02,.37,.03,.56,.04,.2,.01,.4,.02,.61,.02h0c.37,0,.74,0,1.12,0,1.74-.05,3.42-.14,5.05-.28h0l4.52,.88Z"/><path class="cls-18" d="M557.62,496.85c-1.78,2.6-8.68,12.49-16.61,21.66-10.22,11.8-22.16,22.42-27.16,14.77-5.94-9.09,9.33-23.99,21.64-33.91,0,0,0,0,.01,0,6.2-5,11.65-8.73,13.26-9.81,.2,.23,.39,.45,.6,.67h0c1.96,2.16,4.14,4.04,6.46,5.55,.59,.39,1.19,.75,1.8,1.08Z"/><path class="cls-18" d="M540.33,458.43c-.9,3.81-1.04,7.68-.54,11.45-9.8-.86-59.62-5.98-52.45-19.93,4.16-8.11,19.29-5.26,32.74-.71,8.6,2.91,16.52,6.51,20.44,8.39-.07,.27-.14,.54-.2,.8Z"/><path class="cls-18" d="M545.4,447.47c-.14,.19-.27,.38-.4,.57-2.14,3.07-3.6,6.3-4.47,9.59-.07,.27-.14,.54-.2,.8-3.62-1.47-11.8-4.89-20.24-9.19-14.89-7.57-30.62-17.86-23.76-24.96,4.97-5.14,14.44-1.87,23.86,3.77,0,0,0,0,0,0,10.62,6.35,21.19,15.71,25.21,19.41Z"/><path class="cls-18" d="M553.23,439.73c-.21,.15-.41,.3-.6,.45-2.69,2.05-4.16,3.65-4.16,3.65-1.14,1.18-2.16,2.4-3.06,3.64-.14,.19-.27,.38-.4,.57-4.19-2.96-15.62-11.26-24.81-19.98,0,0,0,0,0,0-9.78-9.29-17.01-19.05-10.28-23.37,10.61-6.82,28.86,15.04,38.08,27.57,0,0,0,.01,.01,.02,2.56,3.48,4.43,6.24,5.23,7.46Z"/><path class="cls-18" d="M563.35,434.11c-.3,.11-.6,.24-.89,.36-3.78,1.58-6.9,3.54-9.23,5.26-.21,.15-.41,.3-.6,.45-.55-.89-2.32-3.81-4.63-7.9,0,0,0-.01-.01-.02-8.93-15.79-25.91-49.05-11.93-51.24,9.7-1.52,16.81,13.58,21.35,28.18,3.46,11.12,5.44,21.96,5.95,24.92Z"/><path class="cls-18" d="M549.44,490.37s-5.95,4.17-13.94,8.99c0,0,0,0-.01,0-15.37,9.27-38.23,20.91-40.63,9.72-2.09-9.75,14.28-17.66,28.63-22.63,9.05-3.13,17.3-5.1,19.59-5.62,.18,.4,.38,.8,.59,1.2,1.35,2.6,2.97,5.03,4.82,7.2,.09,.1,.18,.21,.27,.32,.2,.23,.39,.45,.6,.67h0s.08,.15,.08,.15Z"/><path class="cls-18" d="M543.66,482.04c-1.24,.32-9.8,2.54-20.18,4.43-18.59,3.39-42.97,5.72-41.36-5.75,2.32-16.44,47.96-11.91,57.67-10.76,.5,3.79,1.64,7.48,3.27,10.89,.18,.4,.38,.8,.59,1.2Z"/><ellipse class="cls-7" cx="559.07" cy="473.2" rx="3.36" ry="1.76"/><ellipse class="cls-7" cx="599.35" cy="473.2" rx="3.36" ry="1.76"/><path class="cls-18" d="M574.25,431.55c-.36,.02-.71,.06-1.07,.1-.94,.1-1.85,.24-2.74,.41-2.55,.48-4.92,1.2-7.09,2.05-.3,.11-.6,.24-.89,.36-.82-3.28-3.41-13.97-5.06-25.28-2.38-16.31-2.82-33.92,6.75-32.54,6.74,.97,9.75,9.55,10.91,19.76h0c1.53,13.44-.16,29.7-.82,35.14Z"/><path class="cls-16" d="M575.07,396.41l.39-2.41s4.31,9.51,0,37.47l-1.21,.08s3.98-13.17,.82-35.14Z"/><path class="cls-16" d="M562.46,434.47l-.86,.37s-3.21-7.64-5.07-28.36l1.11,4.29s2.89,16.64,4.82,23.7Z"/><path class="cls-16" d="M611.37,400.09s-3.9,15.16-14.15,36.94c-.71-.42-1.18-.68-1.18-.68,0,0,4.42-5.63,13.99-34.53l1.34-1.73Z"/><path class="cls-16" d="M594.14,386.27l.61-1.4s-3,30.97-8.07,47.87l-1.49-.41s4.07-10.75,8.95-46.06Z"/><path class="cls-16" d="M547.98,432.25l-1.02-1.37s1.36,3.76,5.25,9.67l.77-.64s-2.55-2.73-5-7.66Z"/><path class="cls-16" d="M520.19,428.06l-1.53-1.47s11.6,6.41,26.89,20.57l-.55,.87s-14.49-12.98-24.81-19.98Z"/><path class="cls-16" d="M520.08,449.24l-2.54-.83s3.01,2.85,22.63,10.66l.14-.63s-13.31-5.48-20.24-9.19Z"/><path class="cls-16" d="M530.86,469.09s6.9,.59,8.93,.79l.08,.58s-5.82-.13-10.83-1.5l1.82,.13Z"/><path class="cls-16" d="M523.14,486.53s10.92-1.61,20.52-4.49l.36,.67s-8.75,3.86-23.18,4.69l2.29-.88Z"/><path class="cls-16" d="M549.35,490.23s-7.52,3.76-13.87,9.15l-2.72,1.62s5.41-4.94,15.85-11.6c.87,.99,.74,.84,.74,.84Z"/><path class="cls-16" d="M541.01,518.51s14.86-17.91,16.61-21.66l1.21,.63s-11.95,16.1-18.95,23.12l1.13-2.09Z"/><path class="cls-16" d="M567.59,499.88s-13.34,23.39-15.69,41.51c-.8,1.42-1.01,1.76-1.01,1.76,0,0,2.46-20.4,15.85-43.34l.86,.07Z"/><path class="cls-16" d="M565.48,550.36s12.16-20.16,12.24-51.08c.64-.08,.49-.06,.49-.06,0,0,.87,27.52-12.55,51.73-.17-.47-.18-.59-.18-.59Z"/><path class="cls-16" d="M582.6,547.66s-6.25-17-6.03-29.17l-.3,1.72s-.56,7.1,6.18,28.26l.16-.81Z"/><path class="cls-16" d="M591.86,495.6s2.68,10.32,5.01,25.01l.35,.72s-1.35-11.58-4.9-25.94l-.46,.21Z"/><path class="cls-16" d="M613.13,512.45s-12.5-12.07-16.56-19.42l-.47,.32s4.09,7.11,18.82,21.77l-1.79-2.68Z"/><path class="cls-16" d="M604.12,485.61s27.59,14.9,37.67,26.85c.94,.25-6.9-10.04-37.25-27.49l-.42,.64Z"/><path class="cls-16" d="M635.25,487.93s-13.66-5.32-26.43-12.97l-.2,.71s11.87,7.18,28.39,13.29l-1.76-1.03Z"/><path class="cls-16" d="M610.71,464.43s31.35,2.65,46.42,11.26l1.17-.14s-15.66-8.55-47.54-11.97l-.06,.85Z"/><path class="cls-16" d="M611.52,429.2s-3.92,6.24-10.36,10.54c.6,.51,.36,.29,.36,.29,0,0,7.41-5.69,11.49-11.83l-1.49,.99Z"/><path class="cls-16" d="M626.33,438.88s-11.81,3.05-19.04,7.99c.23,.4,.22,.39,.22,.39,0,0,9.4-5.58,16.47-7.41l2.35-.97Z"/><path class="cls-16" d="M610.52,456.67s10.16,.64,34.64-1.81l1.39,.08s-9.94,2.11-35.92,2.62l-.11-.9Z"/></g><g><path class="cls-9" d="M346.33,484.91c-14.74,56.17-8.03,166.74-4.37,212.63,1.03,12.93,1.82,20.73,1.82,20.73h-22.98s-3.58-146.04,9.19-199.15c12.77-53.1,19.4-164.42,19.4-164.42l8.74-4.73,3.52-1.91s3.57,64.85-15.32,136.85Z"/><path class="cls-5" d="M346.33,484.91c-14.74,56.17-8.03,166.74-4.37,212.63l-5.48,3.11s-10.83-155.4,4.65-207.31c20.07-78.15,18.48-126.83,17-143.37l3.52-1.91s3.57,64.85-15.32,136.85Z"/><path class="cls-9" d="M326.27,580.26s-3.12-1.27-7.92-3.79c-18.08-9.47-60.19-36.56-50.49-79.7,1.83-8.14,4.36-12.54,7.35-14.15,17.12-9.21,49.09,72.68,49.09,72.68l1.96,24.96Z"/><path class="cls-1" d="M379.14,581.29c.66-.69,1.31-1.38,1.94-2.05-.63,.74-1.28,1.42-1.94,2.05Z"/><g><path class="cls-9" d="M388.79,399.03c-13.51,10.68-30.48,13.77-30.48,13.77l.69-15.56s17.01-26.16,30.38-37.69c8.5-7.32,15.52-8.75,15.77,6.19,.26,15.47-7.26,26.1-16.36,33.3Z"/><path class="cls-5" d="M388.79,399.03c9.48-11.68,17.47-27.16,13.41-41.2-1.79-6.18-12.82,1.72-12.82,1.72h0c8.5-7.33,15.52-8.76,15.77,6.18,.26,15.47-7.26,26.1-16.36,33.3Z"/></g><g><path class="cls-17" d="M442.8,203.21c-9.62,33.38-36.04,46.86-79,48.15-15.39,.46-30.68-8.17-41.98-21.49-20.25-23.87-27.7-62.79-.03-91.5,0,0,17.16-18.63,44.26-23.71,10.87-2.03,23.34-1.88,36.95,2.53,47.51,15.41,49.43,52.64,39.8,86.02Z"/><path class="cls-10" d="M321.82,229.87c-20.25-23.87-27.7-62.79-.03-91.5,0,0,17.16-18.63,44.26-23.71-28.6,12.45-72.48,43.95-44.23,115.21Z"/></g><path class="cls-15" d="M395.78,115.21h-.01c-.55-.12-1.1-.24-1.65-.35-7.2-1.44-14.02-1.73-20.39-1.22-.72,.05-1.44,.12-2.15,.2-.17-10.15-.34-43.26,3.8-70.98h0c3.81-25.47,11.27-46.38,25.73-40.77,7.53,2.92,11.32,10.43,12.69,20.32,4.12,29.58-13.49,80.37-18.02,92.8Z"/><path class="cls-15" d="M448.82,108.91h-.01c-10.58,10.78-19.51,18.66-21.55,20.43-.05,.05-.1,.1-.14,.13-2.85-2.22-6.04-4.3-9.62-6.2h-.02c-2.22-1.19-4.56-2.31-7.07-3.35l-3.43-2.05s18.58-37.21,38.84-64.14c15.28-20.29,31.51-34.76,41.49-23.09,15.23,17.81-15.52,54.86-38.49,78.27Z"/><path class="cls-15" d="M445.82,53.73c-8.72,33.2-28.13,69.57-28.13,69.57l-.19-.03h-.02c-2.22-1.19-4.56-2.31-7.07-3.35-2.34-.97-4.81-1.89-7.41-2.73-2.45-.79-4.85-1.45-7.22-1.98h-.01c-.55-.12-1.1-.24-1.65-.35,1.61-14.82,7.64-63.85,19.68-92.45,6.6-15.69,15.02-25.24,25.5-19.61,13.44,7.21,12.46,28.34,6.52,50.93Z"/><path class="cls-15" d="M473.93,130.37c-15.11,6.1-29.23,10.33-34.95,11.97-.33-.52-.67-1.03-1.02-1.53-2.75-3.93-6.16-7.6-10.35-10.94h-.01s-.34-.53-.34-.53l-2.26-3.44s10.09-7.78,23.81-16.98h.01c27.28-18.32,68.94-42.24,74.32-21.78,4.56,17.36-23.72,32.96-49.21,43.23Z"/><path class="cls-15" d="M554.01,136c-.97,13.5-17.37,20.79-37.38,24.62h-.02c-25.68,4.94-57.27,4.2-69.79,3.64-.07-.56-.16-1.12-.25-1.68-1.16-7.16-3.56-14-7.59-20.24-.33-.52-.67-1.03-1.02-1.53,5.42-1.78,19.45-6.24,35.97-10.44,35.2-8.92,81.68-16.6,80.08,5.63Z"/><path class="cls-15" d="M552.45,223.74c-7.78,14.15-31.81,11.08-55.82,3.49-.01,0-.02-.01-.02-.01-22.57-7.16-45.12-18.32-54.12-22.98,.11-.34,.21-.68,.31-1.03,.2-.7,.4-1.4,.59-2.11,1.06-3.89,1.95-7.82,2.63-11.76,.54-3.16,.94-6.32,1.17-9.46,15.98,1.91,68.6,9.07,93.53,22.68,10.7,5.85,16.3,12.87,11.73,21.18Z"/><path class="cls-15" d="M569.76,185.79c-3.17,10.43-14.43,15.25-29.04,16.77-32.46,3.39-81.42-9.49-94.7-13.22,.54-3.16,.94-6.32,1.17-9.46,.4-5.29,.32-10.53-.37-15.62-.07-.56-.16-1.12-.25-1.68,11.51-1.02,42.13-3.35,70.04-1.96h.02c30.88,1.56,58.45,7.67,53.13,25.17Z"/><path class="cls-15" d="M533.39,273.22c-5.68,5.67-14.04,6.13-23.57,3.43-27.74-7.85-65.49-42.41-76.63-53.04,.25-.34,.49-.69,.73-1.05,3.61-5.27,6.47-11.35,8.57-18.32,.11-.34,.21-.68,.31-1.03,.2-.7,.4-1.4,.59-2.11,8.32,3.52,31.84,13.8,53.22,26.12,0,0,.01,.01,.02,.01,26.31,15.17,49.36,33.42,36.76,45.99Z"/><path class="cls-15" d="M468.96,342.68c-18.49,5.82-36.79-22.48-49.64-49.6,0-.01-.01-.01-.01-.01-10.84-22.85-17.83-44.86-17.83-44.86l7.34-5.35c.13-.06,.27-.12,.4-.18,3.39-1.51,6.55-3.22,9.48-5.17h.01c.84-.55,1.64-1.12,2.44-1.72,3.8,4.55,17.84,21.6,30.91,40.84,18.87,27.78,35.72,60.12,16.9,66.05Z"/><path class="cls-15" d="M514.62,303.01c-14.68,11.85-40.99-6.46-62.56-26.38-19.28-17.81-34.77-36.9-34.77-36.9l1.41-2.22h.01c.84-.55,1.64-1.12,2.44-1.72,4.64-3.41,8.65-7.46,12.04-12.18,.25-.34,.49-.69,.73-1.05,13.64,7.6,56.83,32.57,75.9,54.09,9.18,10.36,12.78,19.92,4.8,26.36Z"/><path class="cls-15" d="M405.8,360.73c-6.83-1.01-11.75-5.91-15.23-13.15-12.76-26.47-6.4-84.3-4.62-98.24,.38-.06,.76-.12,1.14-.19,8.05-1.4,15.3-3.47,21.73-6.29,.13-.06,.27-.12,.4-.18,.91,3.56,6.49,26,10.09,50.39,0,0,.01,0,.01,.01,4.94,33.45,6.17,70.56-13.52,67.65Z"/><path class="cls-15" d="M390.57,347.58c-2.74,15.12-8.49,24.92-19.32,22.24-7.5-1.85-12.29-8.08-15.18-16.81-9.7-29.35,2.18-86.98,5.47-101.65h.01c.75,.02,1.5,.02,2.25,0,3.5-.1,6.89-.29,10.17-.56h.01c4.17-.34,8.15-.83,11.97-1.46,.38-.06,.76-.12,1.14-.19,1.99,13.69,9.12,67.32,3.48,98.43Z"/><path class="cls-15" d="M360.32,251.31c-2.68,9.68-15.64,54.85-31.62,83.63-10.18,18.32-21.57,29.99-32.32,21.64-15.16-11.78-4.11-41.45,10.38-67.73,11.71-21.26,25.68-40.29,29.84-45.82,1.19,.78,2.4,1.51,3.63,2.18,6.04,3.35,12.46,5.47,18.97,6.02,.37,.04,.75,.06,1.12,.08Z"/><path class="cls-15" d="M383.08,252.58s-8.84,74.94-27.01,100.43c-5.26,7.37-11.29,10.61-18.11,6.73-7.62-4.34-9.99-13.51-9.26-24.8,1.88-29,24.2-72.07,30.5-83.71,.37,.04,.75,.06,1.12,.08,.4,.03,.81,.04,1.22,.05h.01c.75,.02,1.5,.02,2.25,0,3.5-.1,6.89-.29,10.17-.56h.01l9.1,1.78Z"/><path class="cls-15" d="M340.23,245.21c-3.58,5.23-17.48,25.16-33.47,43.64-20.59,23.78-44.65,45.16-54.72,29.76-11.96-18.31,18.79-48.33,43.59-68.32,0-.01,.02-.01,.03-.02,12.49-10.07,23.48-17.59,26.71-19.76,.4,.46,.79,.9,1.2,1.34h0c3.95,4.36,8.34,8.14,13.02,11.18,1.19,.78,2.4,1.51,3.63,2.18Z"/><path class="cls-15" d="M305.39,167.8c-1.82,7.68-2.09,15.47-1.08,23.07-19.75-1.74-120.11-12.05-105.67-40.16,8.39-16.34,38.86-10.59,65.97-1.43,17.33,5.86,33.28,13.12,41.19,16.9-.15,.54-.28,1.08-.41,1.62Z"/><path class="cls-15" d="M315.62,145.71c-.28,.38-.55,.76-.81,1.15-4.31,6.19-7.25,12.7-9.01,19.32-.15,.54-.28,1.08-.41,1.62-7.29-2.96-23.77-9.86-40.78-18.52-30-15.25-61.7-35.99-47.87-50.28,10.02-10.35,29.09-3.76,48.07,7.6,0,0,.01,.01,.02,.01,21.4,12.8,42.69,31.65,50.79,39.1Z"/><path class="cls-15" d="M331.38,130.12c-.42,.3-.82,.6-1.21,.9-5.41,4.13-8.38,7.35-8.38,7.35-2.29,2.38-4.35,4.83-6.17,7.34-.28,.38-.55,.76-.81,1.15-8.45-5.97-31.47-22.68-49.98-40.25,0,0-.02-.01-.02-.01-19.7-18.71-34.28-38.38-20.72-47.09,21.37-13.74,58.14,30.31,76.72,55.55,.01,0,.02,.03,.03,.04,5.16,7.02,8.92,12.57,10.54,15.02Z"/><path class="cls-15" d="M351.77,118.78c-.6,.23-1.2,.48-1.79,.73-7.62,3.19-13.91,7.14-18.6,10.6-.42,.3-.82,.6-1.21,.9-1.1-1.8-4.67-7.68-9.33-15.92-.01-.01-.02-.03-.03-.04-8.74-15.44-21.29-39.18-28.68-60.02-7.83-22.1-9.85-40.95,4.65-43.22,13.27-2.08,24.13,11.27,32.59,29.26,4.01,8.51,7.48,18.06,10.42,27.51,6.98,22.41,10.96,44.24,11.98,50.2Z"/><path class="cls-15" d="M323.75,232.15s-11.99,8.41-28.09,18.12c-.01,.01-.02,.01-.03,.02-30.96,18.68-77.03,42.12-81.86,19.58-4.22-19.65,28.78-35.57,57.69-45.59,18.24-6.31,34.85-10.27,39.46-11.33,.37,.81,.77,1.62,1.19,2.41,2.71,5.24,5.99,10.13,9.71,14.51,.18,.21,.37,.43,.55,.64,.4,.46,.79,.9,1.2,1.34h0s.17,.3,.17,.3Z"/><path class="cls-15" d="M312.11,215.36c-2.49,.65-19.75,5.12-40.65,8.92-37.45,6.82-86.57,11.53-83.32-11.59,4.67-33.13,96.63-24,116.19-21.68,1.01,7.63,3.3,15.06,6.59,21.94,.37,.81,.77,1.62,1.19,2.41Z"/><path class="cls-15" d="M373.73,113.64c-.72,.05-1.44,.12-2.15,.2-1.89,.21-3.73,.48-5.53,.82-5.13,.96-9.91,2.41-14.28,4.13-.6,.23-1.2,.48-1.79,.73-1.66-6.61-6.87-28.14-10.19-50.93-4.79-32.85-5.68-68.34,13.6-65.55,13.57,1.96,19.65,19.24,21.99,39.81h0c3.08,27.08-.32,59.83-1.65,70.79Z"/><ellipse class="cls-7" cx="343.16" cy="197.56" rx="6.78" ry="3.54"/><ellipse class="cls-7" cx="424.31" cy="197.56" rx="6.78" ry="3.54"/><path class="cls-8" d="M375.38,42.85l.78-4.86s8.69,19.17,0,75.5l-2.43,.15s8.02-26.53,1.65-70.79Z"/><path class="cls-8" d="M349.98,119.52l-1.73,.75s-6.46-15.39-10.21-57.13l2.23,8.64s5.82,33.52,9.71,47.74Z"/><path class="cls-8" d="M448.52,50.25s-7.86,30.55-28.51,74.42c-1.44-.85-2.38-1.37-2.38-1.37,0,0,8.9-11.35,28.18-69.57l2.71-3.48Z"/><path class="cls-8" d="M413.8,22.41l1.24-2.82s-6.05,62.4-16.26,96.44l-3-.82s8.21-21.66,18.03-92.8Z"/><path class="cls-8" d="M320.81,115.06l-2.05-2.77s2.74,7.57,10.57,19.49l1.55-1.29s-5.14-5.51-10.07-15.43Z"/><path class="cls-8" d="M264.83,106.61l-3.07-2.96s23.38,12.92,54.17,41.45l-1.11,1.76s-29.2-26.14-49.98-40.25Z"/><path class="cls-8" d="M264.61,149.28l-5.11-1.67s6.06,5.74,45.6,21.47l.29-1.28s-26.81-11.04-40.78-18.52Z"/><path class="cls-8" d="M286.31,189.28s13.9,1.19,18,1.59l.16,1.17s-11.73-.26-21.82-3.03l3.66,.26Z"/><path class="cls-8" d="M270.76,224.4s22-3.25,41.35-9.05l.73,1.36s-17.63,7.77-46.7,9.46l4.62-1.77Z"/><path class="cls-8" d="M323.58,231.86s-15.15,7.58-27.95,18.43l-5.48,3.26s10.89-9.96,31.93-23.37c1.76,1.99,1.5,1.68,1.5,1.68Z"/><path class="cls-8" d="M306.76,288.85s29.95-36.08,33.47-43.64l2.43,1.27s-24.08,32.43-38.18,46.59l2.28-4.22Z"/><path class="cls-8" d="M360.32,251.31s-26.88,47.13-31.62,83.63c-1.61,2.86-2.04,3.55-2.04,3.55,0,0,4.96-41.09,31.93-87.31l1.73,.14Z"/><path class="cls-8" d="M356.07,353.01s24.49-40.61,24.66-102.91c1.28-.17,.98-.13,.98-.13,0,0,1.76,55.45-25.29,104.22-.33-.94-.35-1.18-.35-1.18Z"/><path class="cls-8" d="M390.57,347.58s-12.59-34.25-12.15-58.77l-.61,3.47s-1.12,14.3,12.45,56.94l.31-1.64Z"/><path class="cls-8" d="M409.22,242.68s5.39,20.79,10.09,50.39l.7,1.45s-2.72-23.34-9.87-52.26l-.92,.42Z"/><path class="cls-8" d="M452.06,276.63s-25.18-24.33-33.36-39.12l-.95,.65s8.24,14.33,37.91,43.87l-3.6-5.4Z"/><path class="cls-8" d="M433.92,222.56s55.59,30.02,75.9,54.09c1.89,.5-13.9-20.23-75.04-55.38l-.86,1.29Z"/><path class="cls-8" d="M496.63,227.23s-27.52-10.72-53.24-26.13l-.4,1.44s23.92,14.47,57.19,26.77l-3.55-2.08Z"/><path class="cls-8" d="M447.19,179.88s63.16,5.35,93.53,22.68l2.36-.28s-31.55-17.22-95.78-24.12l-.11,1.72Z"/><path class="cls-8" d="M448.82,108.91s-7.89,12.58-20.87,21.24c1.21,1.02,.73,.59,.73,.59,0,0,14.93-11.47,23.15-23.83l-3.01,2Z"/><path class="cls-8" d="M478.66,128.41s-23.8,6.14-38.36,16.09c.46,.81,.45,.79,.45,.79,0,0,18.95-11.25,33.18-14.93l4.73-1.96Z"/><path class="cls-8" d="M446.82,164.26s20.48,1.29,69.79-3.64l2.81,.16s-20.03,4.26-72.38,5.29l-.22-1.81Z"/><g><path class="cls-6" d="M362.07,177.03c-2.79-5.91-12.34-5.98-16.52-1.71-1,.89-1.73,3.5-3.47,2.43-1.37-1.18-.01-3.54,.85-4.64,2.32-2.86,6.13-4.24,9.67-4.07,4.5,.15,9.48,3.15,10.19,7.82,.06,.43-.58,.59-.73,.18h0Z"/><ellipse class="cls-6" cx="356.06" cy="176.82" rx="6.77" ry="4.18"/><circle class="cls-11" cx="351.18" cy="174.45" r="1.88"/><circle class="cls-11" cx="353.47" cy="177.52" r=".71"/></g><g><path class="cls-6" d="M400.07,176.85c1.33-7.29,11.17-9.82,17.05-6.15,2.07,1.26,4.16,3.31,4.24,5.92,.01,1.43-1.9,1.88-2.57,.65-3.24-6.2-14.87-6.86-17.99-.23-.14,.41-.79,.24-.73-.18h0Z"/><ellipse class="cls-6" cx="406.81" cy="176.82" rx="6.77" ry="4.18"/><circle class="cls-11" cx="411.69" cy="174.45" r="1.88"/><circle class="cls-11" cx="409.4" cy="177.52" r=".71"/></g><path class="cls-6" d="M372.2,199.01c2.92,.13,5.85,.16,8.78,.18,1.94,0,3.69,.13,4.96-.93,.2-.24,.12-.43,.19-.71,.5-2.52,4.18-2.09,4.1,.46-.26,3.82-4.71,5.01-7.82,4.56-.35-.03-1.27-.13-1.63-.15-2.9-.26-5.8-.52-8.71-.68-.75-.04-1.33-.68-1.29-1.44,.04-.75,.68-1.32,1.42-1.29h0Z"/></g><g><path class="cls-9" d="M345.3,483.74c-14.74,56.17-8.03,166.74-4.37,212.63,1.03,12.93,1.82,20.73,1.82,20.73h-22.98s-3.58-146.04,9.19-199.15c12.77-53.1,19.4-164.42,19.4-164.42l8.74-4.73,3.52-1.91s3.57,64.85-15.32,136.85Z"/><path class="cls-5" d="M345.3,483.74c-14.74,56.17-8.03,166.74-4.37,212.63l-5.48,3.11s-10.83-155.4,4.65-207.31c20.07-78.15,18.48-126.83,17-143.37l3.52-1.91s3.57,64.85-15.32,136.85Z"/><path class="cls-9" d="M325.25,579.09s-3.12-1.27-7.92-3.79c-18.08-9.47-60.19-36.56-50.49-79.7,1.83-8.14,4.36-12.54,7.35-14.15,17.12-9.21,49.09,72.68,49.09,72.68l1.96,24.96Z"/><path class="cls-1" d="M378.11,580.12c.66-.69,1.31-1.38,1.94-2.05-.63,.74-1.28,1.42-1.94,2.05Z"/><g><path class="cls-9" d="M387.77,397.86c-13.51,10.68-30.48,13.77-30.48,13.77l.69-15.56s17.01-26.16,30.38-37.69c8.5-7.32,15.52-8.75,15.77,6.19,.26,15.47-7.26,26.1-16.36,33.3Z"/><path class="cls-5" d="M387.77,397.86c9.48-11.68,17.47-27.16,13.41-41.2-1.79-6.18-12.82,1.72-12.82,1.72h0c8.5-7.33,15.52-8.76,15.77,6.18,.26,15.47-7.26,26.1-16.36,33.3Z"/></g><g><path class="cls-12" d="M441.77,202.04c-9.62,33.38-36.04,46.86-79,48.15-15.39,.46-30.68-8.17-41.98-21.49-20.25-23.87-27.7-62.79-.03-91.5,0,0,17.16-18.63,44.26-23.71,10.87-2.03,23.34-1.88,36.95,2.53,47.51,15.41,49.43,52.64,39.8,86.02Z"/><path class="cls-4" d="M320.79,228.7c-20.25-23.87-27.7-62.79-.03-91.5,0,0,17.16-18.63,44.26-23.71-28.6,12.45-72.48,43.95-44.23,115.21Z"/></g><g><path class="cls-13" d="M394.75,114.04h-.01c-.55-.12-1.1-.24-1.65-.35-7.2-1.44-14.02-1.73-20.39-1.22-.72,.05-1.44,.12-2.15,.2-.17-10.15-.34-43.26,3.8-70.98h0c3.81-25.47,11.27-46.38,25.73-40.77,7.53,2.92,11.32,10.43,12.69,20.32,4.12,29.58-13.49,80.37-18.02,92.8Z"/><path class="cls-13" d="M447.79,107.74h-.01c-10.58,10.78-19.51,18.66-21.55,20.43-.05,.05-.1,.1-.14,.13-2.85-2.22-6.04-4.3-9.62-6.2h-.02c-2.22-1.19-4.56-2.31-7.07-3.35l-3.43-2.05s18.58-37.21,38.84-64.14c15.28-20.29,31.51-34.76,41.49-23.09,15.23,17.81-15.52,54.86-38.49,78.27Z"/><path class="cls-13" d="M444.79,52.56c-8.72,33.2-28.13,69.57-28.13,69.57l-.19-.03h-.02c-2.22-1.19-4.56-2.31-7.07-3.35-2.34-.97-4.81-1.89-7.41-2.73-2.45-.79-4.85-1.45-7.22-1.98h-.01c-.55-.12-1.1-.24-1.65-.35,1.61-14.82,7.64-63.85,19.68-92.45,6.6-15.69,15.02-25.24,25.5-19.61,13.44,7.21,12.46,28.34,6.52,50.93Z"/><path class="cls-13" d="M472.9,129.2c-15.11,6.1-29.23,10.33-34.95,11.97-.33-.52-.67-1.03-1.02-1.53-2.75-3.93-6.16-7.6-10.35-10.94h-.01s-.34-.53-.34-.53l-2.26-3.44s10.09-7.78,23.81-16.98h.01c27.28-18.32,68.94-42.24,74.32-21.78,4.56,17.36-23.72,32.96-49.21,43.23Z"/><path class="cls-13" d="M552.98,134.83c-.97,13.5-17.37,20.79-37.38,24.62h-.02c-25.68,4.94-57.27,4.2-69.79,3.64-.07-.56-.16-1.12-.25-1.68-1.16-7.16-3.56-14-7.59-20.24-.33-.52-.67-1.03-1.02-1.53,5.42-1.78,19.45-6.24,35.97-10.44,35.2-8.92,81.68-16.6,80.08,5.63Z"/><path class="cls-13" d="M551.42,222.57c-7.78,14.15-31.81,11.08-55.82,3.49-.01,0-.02-.01-.02-.01-22.57-7.16-45.12-18.32-54.12-22.98,.11-.34,.21-.68,.31-1.03,.2-.7,.4-1.4,.59-2.11,1.06-3.89,1.95-7.82,2.63-11.76,.54-3.16,.94-6.32,1.17-9.46,15.98,1.91,68.6,9.07,93.53,22.68,10.7,5.85,16.3,12.87,11.73,21.18Z"/><path class="cls-13" d="M568.73,184.62c-3.17,10.43-14.43,15.25-29.04,16.77-32.46,3.39-81.42-9.49-94.7-13.22,.54-3.16,.94-6.32,1.17-9.46,.4-5.29,.32-10.53-.37-15.62-.07-.56-.16-1.12-.25-1.68,11.51-1.02,42.13-3.35,70.04-1.96h.02c30.88,1.56,58.45,7.67,53.13,25.17Z"/><path class="cls-13" d="M532.36,272.05c-5.68,5.67-14.04,6.13-23.57,3.43-27.74-7.85-65.49-42.41-76.63-53.04,.25-.34,.49-.69,.73-1.05,3.61-5.27,6.47-11.35,8.57-18.32,.11-.34,.21-.68,.31-1.03,.2-.7,.4-1.4,.59-2.11,8.32,3.52,31.84,13.8,53.22,26.12,0,0,.01,.01,.02,.01,26.31,15.17,49.36,33.42,36.76,45.99Z"/><path class="cls-13" d="M467.93,341.51c-18.49,5.82-36.79-22.48-49.64-49.6,0-.01-.01-.01-.01-.01-10.84-22.85-17.83-44.86-17.83-44.86l7.34-5.35c.13-.06,.27-.12,.4-.18,3.39-1.51,6.55-3.22,9.48-5.17h.01c.84-.55,1.64-1.12,2.44-1.72,3.8,4.55,17.84,21.6,30.91,40.84,18.87,27.78,35.72,60.12,16.9,66.05Z"/><path class="cls-13" d="M513.59,301.84c-14.68,11.85-40.99-6.46-62.56-26.38-19.28-17.81-34.77-36.9-34.77-36.9l1.41-2.22h.01c.84-.55,1.64-1.12,2.44-1.72,4.64-3.41,8.65-7.46,12.04-12.18,.25-.34,.49-.69,.73-1.05,13.64,7.6,56.83,32.57,75.9,54.09,9.18,10.36,12.78,19.92,4.8,26.36Z"/><path class="cls-13" d="M404.77,359.56c-6.83-1.01-11.75-5.91-15.23-13.15-12.76-26.47-6.4-84.3-4.62-98.24,.38-.06,.76-.12,1.14-.19,8.05-1.4,15.3-3.47,21.73-6.29,.13-.06,.27-.12,.4-.18,.91,3.56,6.49,26,10.09,50.39,0,0,.01,0,.01,.01,4.94,33.45,6.17,70.56-13.52,67.65Z"/><path class="cls-13" d="M389.54,346.41c-2.74,15.12-8.49,24.92-19.32,22.24-7.5-1.85-12.29-8.08-15.18-16.81-9.7-29.35,2.18-86.98,5.47-101.65h.01c.75,.02,1.5,.02,2.25,0,3.5-.1,6.89-.29,10.17-.56h.01c4.17-.34,8.15-.83,11.97-1.46,.38-.06,.76-.12,1.14-.19,1.99,13.69,9.12,67.32,3.48,98.43Z"/><path class="cls-13" d="M359.29,250.14c-2.68,9.68-15.64,54.85-31.62,83.63-10.18,18.32-21.57,29.99-32.32,21.64-15.16-11.78-4.11-41.45,10.38-67.73,11.71-21.26,25.68-40.29,29.84-45.82,1.19,.78,2.4,1.51,3.63,2.18,6.04,3.35,12.46,5.47,18.97,6.02,.37,.04,.75,.06,1.12,.08Z"/><path class="cls-13" d="M382.05,251.41s-8.84,74.94-27.01,100.43c-5.26,7.37-11.29,10.61-18.11,6.73-7.62-4.34-9.99-13.51-9.26-24.8,1.88-29,24.2-72.07,30.5-83.71,.37,.04,.75,.06,1.12,.08,.4,.03,.81,.04,1.22,.05h.01c.75,.02,1.5,.02,2.25,0,3.5-.1,6.89-.29,10.17-.56h.01l9.1,1.78Z"/><path class="cls-13" d="M339.2,244.04c-3.58,5.23-17.48,25.16-33.47,43.64-20.59,23.78-44.65,45.16-54.72,29.76-11.96-18.31,18.79-48.33,43.59-68.32,0-.01,.02-.01,.03-.02,12.49-10.07,23.48-17.59,26.71-19.76,.4,.46,.79,.9,1.2,1.34h0c3.95,4.36,8.34,8.14,13.02,11.18,1.19,.78,2.4,1.51,3.63,2.18Z"/><path class="cls-13" d="M304.36,166.63c-1.82,7.68-2.09,15.47-1.08,23.07-19.75-1.74-120.11-12.05-105.67-40.16,8.39-16.34,38.86-10.59,65.97-1.43,17.33,5.86,33.28,13.12,41.19,16.9-.15,.54-.28,1.08-.41,1.62Z"/><path class="cls-13" d="M314.59,144.54c-.28,.38-.55,.76-.81,1.15-4.31,6.19-7.25,12.7-9.01,19.32-.15,.54-.28,1.08-.41,1.62-7.29-2.96-23.77-9.86-40.78-18.52-30-15.25-61.7-35.99-47.87-50.28,10.02-10.35,29.09-3.76,48.07,7.6,0,0,.01,.01,.02,.01,21.4,12.8,42.69,31.65,50.79,39.1Z"/><path class="cls-13" d="M330.35,128.95c-.42,.3-.82,.6-1.21,.9-5.41,4.13-8.38,7.35-8.38,7.35-2.29,2.38-4.35,4.83-6.17,7.34-.28,.38-.55,.76-.81,1.15-8.45-5.97-31.47-22.68-49.98-40.25,0,0-.02-.01-.02-.01-19.7-18.71-34.28-38.38-20.72-47.09,21.37-13.74,58.14,30.31,76.72,55.55,.01,0,.02,.03,.03,.04,5.16,7.02,8.92,12.57,10.54,15.02Z"/><path class="cls-13" d="M350.74,117.61c-.6,.23-1.2,.48-1.79,.73-7.62,3.19-13.91,7.14-18.6,10.6-.42,.3-.82,.6-1.21,.9-1.1-1.8-4.67-7.68-9.33-15.92-.01-.01-.02-.03-.03-.04-8.74-15.44-21.29-39.18-28.68-60.02-7.83-22.1-9.85-40.95,4.65-43.22,13.27-2.08,24.13,11.27,32.59,29.26,4.01,8.51,7.48,18.06,10.42,27.51,6.98,22.41,10.96,44.24,11.98,50.2Z"/><path class="cls-13" d="M322.72,230.98s-11.99,8.41-28.09,18.12c-.01,.01-.02,.01-.03,.02-30.96,18.68-77.03,42.12-81.86,19.58-4.22-19.65,28.78-35.57,57.69-45.59,18.24-6.31,34.85-10.27,39.46-11.33,.37,.81,.77,1.62,1.19,2.41,2.71,5.24,5.99,10.13,9.71,14.51,.18,.21,.37,.43,.55,.64,.4,.46,.79,.9,1.2,1.34h0s.17,.3,.17,.3Z"/><path class="cls-13" d="M311.08,214.19c-2.49,.65-19.75,5.12-40.65,8.92-37.45,6.82-86.57,11.53-83.32-11.59,4.67-33.13,96.63-24,116.19-21.68,1.01,7.63,3.3,15.06,6.59,21.94,.37,.81,.77,1.62,1.19,2.41Z"/><path class="cls-13" d="M372.7,112.47c-.72,.05-1.44,.12-2.15,.2-1.89,.21-3.73,.48-5.53,.82-5.13,.96-9.91,2.41-14.28,4.13-.6,.23-1.2,.48-1.79,.73-1.66-6.61-6.87-28.14-10.19-50.93-4.79-32.85-5.68-68.34,13.6-65.55,13.57,1.96,19.65,19.24,21.99,39.81h0c3.08,27.08-.32,59.83-1.65,70.79Z"/></g><ellipse class="cls-7" cx="346.7" cy="195.35" rx="7.88" ry="4.12"/><ellipse class="cls-7" cx="429.05" cy="195.35" rx="7.88" ry="4.12"/><path class="cls-3" d="M374.35,41.68l.78-4.86s8.69,19.17,0,75.5l-2.43,.15s8.02-26.53,1.65-70.79Z"/><path class="cls-3" d="M348.95,118.35l-1.73,.75s-6.46-15.39-10.21-57.13l2.23,8.64s5.82,33.52,9.71,47.74Z"/><path class="cls-3" d="M447.5,49.08s-7.86,30.55-28.51,74.42c-1.44-.85-2.38-1.37-2.38-1.37,0,0,8.9-11.35,28.18-69.57l2.71-3.48Z"/><path class="cls-3" d="M412.77,21.24l1.24-2.82s-6.05,62.4-16.26,96.44l-3-.82s8.21-21.66,18.03-92.8Z"/><path class="cls-3" d="M319.78,113.89l-2.05-2.77s2.74,7.57,10.57,19.49l1.55-1.29s-5.14-5.51-10.07-15.43Z"/><path class="cls-3" d="M263.8,105.44l-3.07-2.96s23.38,12.92,54.17,41.45l-1.11,1.76s-29.2-26.14-49.98-40.25Z"/><path class="cls-3" d="M263.58,148.11l-5.11-1.67s6.06,5.74,45.6,21.47l.29-1.28s-26.81-11.04-40.78-18.52Z"/><path class="cls-3" d="M285.29,188.11s13.9,1.19,18,1.59l.16,1.17s-11.73-.26-21.82-3.03l3.66,.26Z"/><path class="cls-3" d="M269.73,223.24s22-3.25,41.35-9.05l.73,1.36s-17.63,7.77-46.7,9.46l4.62-1.77Z"/><path class="cls-3" d="M322.55,230.69s-15.15,7.58-27.95,18.43l-5.48,3.26s10.89-9.96,31.93-23.37c1.76,1.99,1.5,1.68,1.5,1.68Z"/><path class="cls-3" d="M305.73,287.68s29.95-36.08,33.47-43.64l2.43,1.27s-24.08,32.43-38.18,46.59l2.28-4.22Z"/><path class="cls-3" d="M359.29,250.14s-26.88,47.13-31.62,83.63c-1.61,2.86-2.04,3.55-2.04,3.55,0,0,4.96-41.09,31.93-87.31l1.73,.14Z"/><path class="cls-3" d="M355.04,351.84s24.49-40.61,24.66-102.91c1.28-.17,.98-.13,.98-.13,0,0,1.76,55.45-25.29,104.22-.33-.94-.35-1.18-.35-1.18Z"/><path class="cls-3" d="M389.54,346.41s-12.59-34.25-12.15-58.77l-.61,3.47s-1.12,14.3,12.45,56.94l.31-1.64Z"/><path class="cls-3" d="M408.19,241.51s5.39,20.79,10.09,50.39l.7,1.45s-2.72-23.34-9.87-52.26l-.92,.42Z"/><path class="cls-3" d="M451.03,275.46s-25.18-24.33-33.36-39.12l-.95,.65s8.24,14.33,37.91,43.87l-3.6-5.4Z"/><path class="cls-3" d="M432.89,221.39s55.59,30.02,75.9,54.09c1.89,.5-13.9-20.23-75.04-55.38l-.86,1.29Z"/><path class="cls-3" d="M495.6,226.06s-27.52-10.72-53.24-26.13l-.4,1.44s23.92,14.47,57.19,26.77l-3.55-2.08Z"/><path class="cls-3" d="M446.16,178.71s63.16,5.35,93.53,22.68l2.36-.28s-31.55-17.22-95.78-24.12l-.11,1.72Z"/><path class="cls-3" d="M447.79,107.74s-7.89,12.58-20.87,21.24c1.21,1.02,.73,.59,.73,.59,0,0,14.93-11.47,23.15-23.83l-3.01,2Z"/><path class="cls-3" d="M477.63,127.24s-23.8,6.14-38.36,16.09c.46,.81,.45,.79,.45,.79,0,0,18.95-11.25,33.18-14.93l4.73-1.96Z"/><path class="cls-3" d="M445.79,163.09s20.48,1.29,69.79-3.64l2.81,.16s-20.03,4.26-72.38,5.29l-.22-1.81Z"/><g><path class="cls-6" d="M368.76,179.83c-3.52-7.95-17.55-7.33-21.19,.23-.65,1.3-2.64,.79-2.57-.65,.17-2.94,2.5-5.26,4.86-6.69,4.72-2.77,10.92-2.54,15.34,.57,2.13,1.53,3.92,3.77,4.28,6.35,.07,.43-.58,.59-.73,.18h0Z"/><ellipse class="cls-6" cx="361.71" cy="179.6" rx="7.88" ry="4.86"/><circle class="cls-11" cx="356.03" cy="176.85" r="2.19"/><circle class="cls-11" cx="358.7" cy="180.42" r=".82"/></g><g><path class="cls-6" d="M400.92,179.65c1.65-8.31,12.9-11.08,19.62-6.92,2.36,1.42,4.7,3.74,4.86,6.69,.05,1.46-1.93,1.93-2.57,.65-3.64-7.56-17.66-8.19-21.19-.23-.13,.42-.8,.25-.73-.18h0Z"/><ellipse class="cls-6" cx="408.7" cy="179.6" rx="7.88" ry="4.86"/><circle class="cls-11" cx="414.38" cy="176.85" r="2.19"/><circle class="cls-11" cx="411.71" cy="180.42" r=".82"/></g><path class="cls-6" d="M380.38,198.05c5.53,3.43,12.73,1.8,16.02-3.9,1.57-2.24,4.92-.01,3.44,2.3-3.95,5.76-12.03,8.03-18.41,5.19-1.18-.61-4.03-1.36-3-3.23,.42-.66,1.32-.82,1.95-.36h0Z"/><path class="cls-13" d="M356.86,162.99c4.86,5.61,11.05,10.48,18.08,13.07,1.37,.47,.73,2.52-.67,2.12-7.78-2.3-14.58-6.97-20.27-12.7-1.76-1.92,1.19-4.51,2.86-2.49h0Z"/><path class="cls-13" d="M393.71,173.06c3.95-7.16,11.77-11.37,19.78-11.88,0,0,1.85-.11,1.85-.11,2.09,.15,5.83-.72,5.9,2.37-.01,1.45-1.42,2.48-2.81,2.15-1.53-.25-3.26-.56-4.83-.57-.49-.04-1.14-.05-1.62,0-6.42,.11-12.96,3.45-16.26,9.05-.66,1.36-2.7,.37-2.01-1h0Z"/></g><g><path class="cls-14" d="M544.06,752.72h-.03c-190.19,.86-544.03-3.82-544.03-3.82l25.06-8.18s71.18-43.56,101.25-41.51c30.1,2.04,36.11-12.94,49.12-8.18,13.05,4.76,55.16-2.56,63.17-.94,4.59,.92,22.38-2.58,40.99-3.84,13.9-.98,28.27-.7,37.84,3.6,22.41,10.04,45.71-9.32,62.14-4.06,16.43,5.24,112.67,1.16,114.68,9.32,2,8.18,89.23,28.59,103.25,38.13,14.05,9.52,56.16,6.8,64.17,15.65,2.18,2.42-46.15,3.5-117.62,3.82Z"/><path class="cls-2" d="M544.06,752.72h-.03s-27.83-16.07-31.6-17.09c-3.77-1.02-48.5-34.71-56.01-28.59-7.51,6.12-77.07-10.98-82.34-15.87-5.27-4.9-36.08,14.34-48.5,4.9-12.4-9.44-45.97-9.8-45.97-9.8,13.9-.98,28.27-.7,37.84,3.6,22.41,10.04,45.71-9.32,62.14-4.06,16.43,5.24,112.67,1.16,114.68,9.32,2,8.18,89.23,28.59,103.25,38.13,14.05,9.52,56.16,6.8,64.17,15.65,2.18,2.42-46.15,3.5-117.62,3.82Z"/></g></g></g></svg>