<?xml version="1.0" encoding="UTF-8"?><svg id="Calque_2" xmlns="http://www.w3.org/2000/svg" xmlns:xlink="http://www.w3.org/1999/xlink" viewBox="0 0 679.21 757.15"><defs><style>.cls-1{fill:url(#Dégradé_sans_nom_19-5);}.cls-2{fill:url(#Dégradé_sans_nom_19-41);}.cls-3{fill:url(#Dégradé_sans_nom_19-27);}.cls-4{fill:url(#Dégradé_sans_nom_19-42);}.cls-5{fill:url(#Dégradé_sans_nom_19-44);}.cls-6{fill:url(#Dégradé_sans_nom_19-16);}.cls-7{fill:url(#Dégradé_sans_nom_19-34);}.cls-8{fill:url(#Dégradé_sans_nom_19-25);}.cls-9{fill:url(#Dégradé_sans_nom_19-33);}.cls-10{fill:#82d16f;}.cls-11{fill:url(#Dégradé_sans_nom_19-30);}.cls-12{fill:url(#Dégradé_sans_nom_19-17);}.cls-13{fill:url(#Dégradé_sans_nom_19-3);}.cls-14{fill:#593636;}.cls-15{fill:url(#Dégradé_sans_nom_19-10);}.cls-16{fill:url(#Dégradé_sans_nom_19-37);}.cls-17{fill:url(#Dégradé_sans_nom_19-6);}.cls-18{opacity:.05;}.cls-19{fill:#ffc82c;}.cls-20{fill:url(#Dégradé_sans_nom_19-23);}.cls-21{fill:url(#Dégradé_sans_nom_19-11);}.cls-22{fill:url(#Dégradé_sans_nom_19-14);}.cls-23{fill:url(#Dégradé_sans_nom_19-38);}.cls-24{fill:url(#Dégradé_sans_nom_19-19);}.cls-25{fill:#63c6a0;}.cls-26{fill:url(#Dégradé_sans_nom_19-21);}.cls-27{fill:#302826;}.cls-28{fill:url(#Dégradé_sans_nom_19-28);}.cls-29{fill:url(#Dégradé_sans_nom_19-26);}.cls-30{fill:url(#Dégradé_sans_nom_19-22);}.cls-31{fill:url(#Dégradé_sans_nom_19-20);}.cls-32{fill:url(#Dégradé_sans_nom_19-24);}.cls-33{fill:url(#Dégradé_sans_nom_19-31);}.cls-34{fill:url(#Dégradé_sans_nom_19-43);}.cls-35{fill:#ff6e79;opacity:.35;}.cls-36{opacity:.03;}.cls-37{fill:#5aba97;}.cls-38{fill:url(#Dégradé_sans_nom_19-15);}.cls-39{fill:url(#Dégradé_sans_nom_19-9);}.cls-40{fill:url(#Dégradé_sans_nom_19-36);}.cls-41{fill:url(#Dégradé_sans_nom_19-39);}.cls-42{fill:#ffc033;}.cls-43{fill:url(#Dégradé_sans_nom_19-7);}.cls-44{fill:#efefef;}.cls-45{fill:url(#Dégradé_sans_nom_19-32);}.cls-46{fill:url(#Dégradé_sans_nom_19-35);}.cls-47{fill:url(#Dégradé_sans_nom_19-4);}.cls-48{fill:#ffd655;}.cls-49{fill:url(#Dégradé_sans_nom_19-2);}.cls-50{fill:#ff2c50;}.cls-51{fill:#4f2f2f;}.cls-52{fill:url(#Dégradé_sans_nom_19-13);}.cls-53{fill:url(#Dégradé_sans_nom_19-18);}.cls-54{fill:url(#Dégradé_sans_nom_19);}.cls-55{fill:url(#Dégradé_sans_nom_19-40);}.cls-56{fill:url(#Dégradé_sans_nom_19-8);}.cls-57{fill:#ffcd50;}.cls-58{fill:url(#Dégradé_sans_nom_19-29);}.cls-59{fill:url(#Dégradé_sans_nom_19-12);}</style><linearGradient id="Dégradé_sans_nom_19" x1="173.21" y1="347.83" x2="164.04" y2="411.48" gradientUnits="userSpaceOnUse"><stop offset="0" stop-color="#cc275a"/><stop offset=".02" stop-color="#cf3967"/><stop offset=".06" stop-color="#d76287"/><stop offset=".11" stop-color="#de87a4"/><stop offset=".17" stop-color="#e4a8bc"/><stop offset=".23" stop-color="#e9c3d1"/><stop offset=".3" stop-color="#edd9e2"/><stop offset=".38" stop-color="#f1eaef"/><stop offset=".48" stop-color="#f3f6f8"/><stop offset=".61" stop-color="#f4fdfd"/><stop offset="1" stop-color="#f5ffff"/></linearGradient><linearGradient id="Dégradé_sans_nom_19-2" x1="223.38" y1="359.24" x2="178.34" y2="418.3" xlink:href="#Dégradé_sans_nom_19"/><linearGradient id="Dégradé_sans_nom_19-3" x1="196.03" y1="345.37" x2="172.57" y2="417.37" xlink:href="#Dégradé_sans_nom_19"/><linearGradient id="Dégradé_sans_nom_19-4" x1="239.8" y1="393.71" x2="193.41" y2="417.98" xlink:href="#Dégradé_sans_nom_19"/><linearGradient id="Dégradé_sans_nom_19-5" x1="263.19" y1="420.37" x2="182.28" y2="430.08" xlink:href="#Dégradé_sans_nom_19"/><linearGradient id="Dégradé_sans_nom_19-6" x1="258.23" y1="470.57" x2="191.35" y2="446.57" xlink:href="#Dégradé_sans_nom_19"/><linearGradient id="Dégradé_sans_nom_19-7" x1="276.03" y1="448.52" x2="184.34" y2="440.7" xlink:href="#Dégradé_sans_nom_19"/><linearGradient id="Dégradé_sans_nom_19-8" x1="249.68" y1="496.48" x2="191.16" y2="461.42" xlink:href="#Dégradé_sans_nom_19"/><linearGradient id="Dégradé_sans_nom_19-9" x1="211.42" y1="534.64" x2="177.98" y2="475.58" xlink:href="#Dégradé_sans_nom_19"/><linearGradient id="Dégradé_sans_nom_19-10" x1="238.55" y1="514.86" x2="187.04" y2="470.63" xlink:href="#Dégradé_sans_nom_19"/><linearGradient id="Dégradé_sans_nom_19-11" x1="176.66" y1="545.75" x2="170.73" y2="479.41" xlink:href="#Dégradé_sans_nom_19"/><linearGradient id="Dégradé_sans_nom_19-12" x1="156.71" y1="551.25" x2="159.68" y2="478.98" xlink:href="#Dégradé_sans_nom_19"/><linearGradient id="Dégradé_sans_nom_19-13" x1="113.58" y1="545.54" x2="147.29" y2="476.5" xlink:href="#Dégradé_sans_nom_19"/><linearGradient id="Dégradé_sans_nom_19-14" x1="138.24" y1="543.97" x2="157.66" y2="481.68" xlink:href="#Dégradé_sans_nom_19"/><linearGradient id="Dégradé_sans_nom_19-15" x1="89.17" y1="521.79" x2="139.06" y2="472.98" xlink:href="#Dégradé_sans_nom_19"/><linearGradient id="Dégradé_sans_nom_19-16" x1="61.73" y1="425.32" x2="126.46" y2="447.44" xlink:href="#Dégradé_sans_nom_19"/><linearGradient id="Dégradé_sans_nom_19-17" x1="73.26" y1="399.5" x2="125.04" y2="432.13" xlink:href="#Dégradé_sans_nom_19"/><linearGradient id="Dégradé_sans_nom_19-18" x1="87.89" y1="377.31" x2="133.73" y2="425.05" xlink:href="#Dégradé_sans_nom_19"/><linearGradient id="Dégradé_sans_nom_19-19" x1="116.73" y1="352.96" x2="141.72" y2="414.62" xlink:href="#Dégradé_sans_nom_19"/><linearGradient id="Dégradé_sans_nom_19-20" x1="68.92" y1="495.32" x2="129.87" y2="464.58" xlink:href="#Dégradé_sans_nom_19"/><linearGradient id="Dégradé_sans_nom_19-21" x1="56" y1="463.68" x2="123.69" y2="454.24" xlink:href="#Dégradé_sans_nom_19"/><linearGradient id="Dégradé_sans_nom_19-22" x1="146.85" y1="346.08" x2="153.5" y2="413.14" xlink:href="#Dégradé_sans_nom_19"/><linearGradient id="Dégradé_sans_nom_19-23" x1="589.86" y1="372.04" x2="580.69" y2="435.69" xlink:href="#Dégradé_sans_nom_19"/><linearGradient id="Dégradé_sans_nom_19-24" x1="640.02" y1="383.45" x2="594.99" y2="442.51" xlink:href="#Dégradé_sans_nom_19"/><linearGradient id="Dégradé_sans_nom_19-25" x1="612.68" y1="369.58" x2="589.22" y2="441.58" xlink:href="#Dégradé_sans_nom_19"/><linearGradient id="Dégradé_sans_nom_19-26" x1="656.45" y1="417.92" x2="610.06" y2="442.19" xlink:href="#Dégradé_sans_nom_19"/><linearGradient id="Dégradé_sans_nom_19-27" x1="679.83" y1="444.59" x2="598.93" y2="454.29" xlink:href="#Dégradé_sans_nom_19"/><linearGradient id="Dégradé_sans_nom_19-28" x1="674.87" y1="494.78" x2="608" y2="470.78" xlink:href="#Dégradé_sans_nom_19"/><linearGradient id="Dégradé_sans_nom_19-29" x1="692.68" y1="472.73" x2="600.99" y2="464.91" xlink:href="#Dégradé_sans_nom_19"/><linearGradient id="Dégradé_sans_nom_19-30" x1="666.33" y1="520.69" x2="607.81" y2="485.63" xlink:href="#Dégradé_sans_nom_19"/><linearGradient id="Dégradé_sans_nom_19-31" x1="628.06" y1="558.85" x2="594.62" y2="499.79" xlink:href="#Dégradé_sans_nom_19"/><linearGradient id="Dégradé_sans_nom_19-32" x1="655.2" y1="539.07" x2="603.69" y2="494.84" xlink:href="#Dégradé_sans_nom_19"/><linearGradient id="Dégradé_sans_nom_19-33" x1="593.31" y1="569.96" x2="587.38" y2="503.62" xlink:href="#Dégradé_sans_nom_19"/><linearGradient id="Dégradé_sans_nom_19-34" x1="573.36" y1="575.47" x2="576.33" y2="503.19" xlink:href="#Dégradé_sans_nom_19"/><linearGradient id="Dégradé_sans_nom_19-35" x1="530.23" y1="569.75" x2="563.93" y2="500.72" xlink:href="#Dégradé_sans_nom_19"/><linearGradient id="Dégradé_sans_nom_19-36" x1="554.89" y1="568.19" x2="574.31" y2="505.89" xlink:href="#Dégradé_sans_nom_19"/><linearGradient id="Dégradé_sans_nom_19-37" x1="505.82" y1="546" x2="555.71" y2="497.19" xlink:href="#Dégradé_sans_nom_19"/><linearGradient id="Dégradé_sans_nom_19-38" x1="478.38" y1="449.54" x2="543.1" y2="471.65" xlink:href="#Dégradé_sans_nom_19"/><linearGradient id="Dégradé_sans_nom_19-39" x1="489.91" y1="423.71" x2="541.69" y2="456.34" xlink:href="#Dégradé_sans_nom_19"/><linearGradient id="Dégradé_sans_nom_19-40" x1="504.53" y1="401.53" x2="550.38" y2="449.26" xlink:href="#Dégradé_sans_nom_19"/><linearGradient id="Dégradé_sans_nom_19-41" x1="533.37" y1="377.17" x2="558.36" y2="438.83" xlink:href="#Dégradé_sans_nom_19"/><linearGradient id="Dégradé_sans_nom_19-42" x1="485.57" y1="519.53" x2="546.52" y2="488.79" xlink:href="#Dégradé_sans_nom_19"/><linearGradient id="Dégradé_sans_nom_19-43" x1="472.65" y1="487.89" x2="540.34" y2="478.45" xlink:href="#Dégradé_sans_nom_19"/><linearGradient id="Dégradé_sans_nom_19-44" x1="563.5" y1="370.29" x2="570.15" y2="437.35" xlink:href="#Dégradé_sans_nom_19"/></defs><g id="Calque_1-2"><g><g><path class="cls-37" d="M144.21,605.15c-7.78,29.66-4.24,88.06-2.31,112.29,.54,6.83,.96,10.95,.96,10.95h-12.14s-1.89-77.13,4.85-105.17c6.74-28.04,10.25-86.83,10.25-86.83l4.62-2.5,1.86-1.01s1.89,34.25-8.09,72.27Z"/><path class="cls-25" d="M144.21,605.15c-7.78,29.66-4.24,88.06-2.31,112.29l-2.89,1.64s-5.72-82.07,2.46-109.48c10.6-41.27,9.76-66.98,8.98-75.72l1.86-1.01s1.89,34.25-8.09,72.27Z"/><path class="cls-37" d="M145.15,572.03s-1.4-.57-3.57-1.71c-8.15-4.27-27.12-16.47-22.75-35.91,.82-3.67,1.96-5.65,3.31-6.38,7.71-4.15,22.12,32.75,22.12,32.75l.89,11.25Z"/><g><path class="cls-37" d="M154.82,631.45c-7.01,5.55-15.82,7.15-15.82,7.15l.36-8.07s8.83-13.58,15.77-19.57c4.41-3.8,8.05-4.54,8.19,3.21,.14,8.03-3.77,13.55-8.49,17.28Z"/><path class="cls-25" d="M154.82,631.45c4.92-6.06,9.07-14.1,6.96-21.39-.93-3.21-6.65,.89-6.65,.89h0c4.41-3.81,8.05-4.55,8.19,3.21,.14,8.03-3.77,13.55-8.49,17.28Z"/></g><g><path class="cls-57" d="M195.16,456.38c-5.08,17.63-19.03,24.75-41.72,25.43-8.13,.24-16.2-4.31-22.17-11.35-10.69-12.61-14.63-33.16-.02-48.32,0,0,9.06-9.84,23.37-12.52,5.74-1.07,12.33-.99,19.51,1.34,25.09,8.14,26.1,27.8,21.02,45.43Z"/><path class="cls-42" d="M131.27,470.46c-10.69-12.61-14.63-33.16-.02-48.32,0,0,9.06-9.84,23.37-12.52-15.1,6.58-38.28,23.21-23.36,60.84Z"/></g><path class="cls-27" d="M159.38,451.44c1.34,1.84,4.02,2.02,6.02,1.32,.68-.27,1.31-.67,1.76-1.34,.1-.14,.3-.18,.44-.08,.09,.06,.14,.16,.14,.26,0,.51-.2,1.02-.48,1.46-1.81,2.56-6.21,2.57-8.04,.02-.26-.38-.91-1.72-.15-1.82,.13,0,.25,.07,.31,.18h0Z"/><path class="cls-54" d="M170.33,409.91h0c-.29-.06-.58-.13-.87-.18-3.8-.76-7.4-.91-10.77-.64-.38,.03-.76,.06-1.14,.11-.09-5.36-.18-22.85,2.01-37.49h0c2.01-13.45,5.95-24.49,13.59-21.53,3.98,1.54,5.98,5.51,6.7,10.73,2.18,15.62-7.12,42.44-9.52,49.01Z"/><path class="cls-49" d="M198.34,406.58h0c-5.59,5.69-10.3,9.85-11.38,10.79-.03,.03-.05,.05-.07,.07-1.51-1.17-3.19-2.27-5.08-3.27h-.01c-1.17-.63-2.41-1.22-3.73-1.77l-1.81-1.08s9.81-19.65,20.51-33.87c8.07-10.72,16.64-18.36,21.91-12.19,8.04,9.41-8.2,28.97-20.33,41.34Z"/><path class="cls-13" d="M196.76,377.44c-4.61,17.53-14.86,36.74-14.86,36.74l-.1-.02h-.01c-1.17-.63-2.41-1.22-3.73-1.77-1.24-.51-2.54-1-3.91-1.44-1.29-.42-2.56-.77-3.81-1.05h0c-.29-.06-.58-.13-.87-.18,.85-7.83,4.03-33.72,10.39-48.82,3.49-8.29,7.93-13.33,13.47-10.36,7.1,3.81,6.58,14.97,3.44,26.9Z"/><path class="cls-47" d="M211.6,417.92c-7.98,3.22-15.44,5.46-18.46,6.32-.17-.27-.35-.54-.54-.81-1.45-2.08-3.25-4.01-5.47-5.78h0s-.18-.28-.18-.28l-1.19-1.82s5.33-4.11,12.57-8.97h0c14.41-9.68,36.41-22.31,39.25-11.5,2.41,9.17-12.53,17.41-25.99,22.83Z"/><path class="cls-1" d="M253.89,420.89c-.51,7.13-9.17,10.98-19.74,13h-.01c-13.56,2.61-30.25,2.22-36.86,1.92-.04-.3-.08-.59-.13-.89-.61-3.78-1.88-7.39-4.01-10.69-.17-.27-.35-.54-.54-.81,2.86-.94,10.27-3.3,19-5.51,18.59-4.71,43.14-8.77,42.29,2.97Z"/><path class="cls-17" d="M253.07,467.23c-4.11,7.47-16.8,5.85-29.48,1.84,0,0-.01,0-.01,0-11.92-3.78-23.83-9.68-28.58-12.14,.06-.18,.11-.36,.16-.54,.11-.37,.21-.74,.31-1.11,.56-2.05,1.03-4.13,1.39-6.21,.29-1.67,.5-3.34,.62-5,8.44,1.01,36.23,4.79,49.39,11.98,5.65,3.09,8.61,6.8,6.19,11.19Z"/><path class="cls-43" d="M262.21,447.18c-1.67,5.51-7.62,8.05-15.34,8.86-17.14,1.79-43-5.01-50.01-6.98,.29-1.67,.5-3.34,.62-5,.21-2.79,.17-5.56-.2-8.25-.04-.3-.08-.59-.13-.89,6.08-.54,22.25-1.77,36.99-1.04h.01c16.31,.82,30.87,4.05,28.06,13.29Z"/><path class="cls-56" d="M243,493.36c-3,2.99-7.41,3.24-12.45,1.81-14.65-4.15-34.59-22.4-40.47-28.01,.13-.18,.26-.36,.39-.55,1.91-2.78,3.42-5.99,4.53-9.68,.06-.18,.11-.36,.16-.54,.11-.37,.21-.74,.31-1.11,4.39,1.86,16.82,7.29,28.11,13.79,0,0,0,0,.01,0,13.89,8.01,26.07,17.65,19.41,24.29Z"/><path class="cls-39" d="M208.98,530.04c-9.76,3.07-19.43-11.87-26.22-26.19,0,0,0,0,0,0-5.72-12.07-9.42-23.69-9.42-23.69l3.88-2.83c.07-.03,.14-.06,.21-.1,1.79-.8,3.46-1.7,5.01-2.73h0c.44-.29,.87-.59,1.29-.91,2.01,2.4,9.42,11.41,16.32,21.57,9.97,14.67,18.86,31.75,8.93,34.88Z"/><path class="cls-15" d="M233.09,509.09c-7.75,6.26-21.65-3.41-33.04-13.93-10.18-9.41-18.36-19.49-18.36-19.49l.74-1.17h0c.44-.29,.87-.59,1.29-.91,2.45-1.8,4.57-3.94,6.36-6.43,.13-.18,.26-.36,.39-.55,7.2,4.01,30.01,17.2,40.08,28.57,4.85,5.47,6.75,10.52,2.53,13.92Z"/><path class="cls-21" d="M175.62,539.57c-3.61-.53-6.21-3.12-8.04-6.94-6.74-13.98-3.38-44.52-2.44-51.88,.2-.03,.4-.06,.6-.1,4.25-.74,8.08-1.83,11.48-3.32,.07-.03,.14-.06,.21-.1,.48,1.88,3.43,13.73,5.33,26.61,0,0,0,0,0,0,2.61,17.67,3.26,37.26-7.14,35.73Z"/><path class="cls-59" d="M167.58,532.63c-1.45,7.99-4.48,13.16-10.2,11.75-3.96-.98-6.49-4.27-8.02-8.88-5.12-15.5,1.15-45.94,2.89-53.68h0c.4,.01,.79,.01,1.19,0,1.85-.05,3.64-.15,5.37-.3h0c2.2-.18,4.3-.44,6.32-.77,.2-.03,.4-.06,.6-.1,1.05,7.23,4.82,35.55,1.84,51.98Z"/><path class="cls-52" d="M151.6,481.79c-1.42,5.11-8.26,28.97-16.7,44.17-5.38,9.68-11.39,15.84-17.07,11.43-8.01-6.22-2.17-21.89,5.48-35.77,6.18-11.23,13.56-21.28,15.76-24.2,.63,.41,1.27,.8,1.92,1.15,3.19,1.77,6.58,2.89,10.02,3.18,.2,.02,.4,.03,.59,.04Z"/><path class="cls-22" d="M163.62,482.46s-4.67,39.58-14.26,53.04c-2.78,3.89-5.96,5.6-9.56,3.55-4.02-2.29-5.28-7.13-4.89-13.1,.99-15.32,12.78-38.06,16.11-44.21,.2,.02,.4,.03,.59,.04,.21,.02,.43,.02,.64,.03h0c.4,.01,.79,.01,1.19,0,1.85-.05,3.64-.15,5.37-.3h0l4.81,.94Z"/><path class="cls-38" d="M140.99,478.56c-1.89,2.76-9.23,13.29-17.68,23.05-10.87,12.56-23.58,23.85-28.9,15.72-6.32-9.67,9.92-25.52,23.02-36.08,0,0,.01,0,.02-.01,6.6-5.32,12.4-9.29,14.11-10.44,.21,.24,.42,.48,.63,.71h0c2.09,2.3,4.4,4.3,6.88,5.9,.63,.41,1.27,.8,1.92,1.15Z"/><path class="cls-6" d="M122.59,437.68c-.96,4.06-1.1,8.17-.57,12.18-10.43-.92-63.43-6.36-55.81-21.21,4.43-8.63,20.52-5.59,34.84-.76,9.15,3.09,17.58,6.93,21.75,8.93-.08,.29-.15,.57-.22,.86Z"/><path class="cls-12" d="M128,426.02c-.15,.2-.29,.4-.43,.61-2.28,3.27-3.83,6.71-4.76,10.2-.08,.29-.15,.57-.22,.86-3.85-1.56-12.55-5.21-21.54-9.78-15.84-8.05-32.58-19.01-25.28-26.55,5.29-5.47,15.36-1.99,25.39,4.01,0,0,0,0,.01,0,11.3,6.76,22.55,16.71,26.82,20.65Z"/><path class="cls-53" d="M136.32,417.78c-.22,.16-.43,.32-.64,.48-2.86,2.18-4.43,3.88-4.43,3.88-1.21,1.26-2.3,2.55-3.26,3.88-.15,.2-.29,.4-.43,.61-4.46-3.15-16.62-11.98-26.4-21.26,0,0-.01,0-.01,0-10.4-9.88-18.1-20.27-10.94-24.87,11.29-7.26,30.7,16.01,40.52,29.34,0,0,.01,.02,.02,.02,2.73,3.71,4.71,6.64,5.57,7.93Z"/><path class="cls-24" d="M147.09,411.8c-.32,.12-.63,.25-.95,.39-4.02,1.68-7.35,3.77-9.82,5.6-.22,.16-.43,.32-.64,.48-.58-.95-2.47-4.06-4.93-8.41,0,0-.01-.02-.02-.02-4.62-8.15-11.24-20.69-15.15-31.7-4.14-11.67-5.2-21.63,2.46-22.83,7.01-1.1,12.74,5.95,17.21,15.45,2.12,4.49,3.95,9.54,5.5,14.53,3.69,11.84,5.79,23.36,6.33,26.51Z"/><path class="cls-31" d="M132.29,471.67s-6.33,4.44-14.83,9.57c0,0-.01,0-.02,.01-16.35,9.87-40.68,22.24-43.23,10.34-2.23-10.38,15.2-18.79,30.47-24.08,9.63-3.33,18.4-5.42,20.84-5.98,.2,.43,.41,.86,.63,1.27,1.43,2.77,3.16,5.35,5.13,7.66,.1,.11,.2,.23,.29,.34,.21,.24,.42,.48,.63,.71h0s.09,.16,.09,.16Z"/><path class="cls-26" d="M126.14,462.8c-1.32,.34-10.43,2.7-21.47,4.71-19.78,3.6-45.72,6.09-44-6.12,2.47-17.5,51.03-12.67,61.36-11.45,.53,4.03,1.74,7.95,3.48,11.59,.2,.43,.41,.86,.63,1.27Z"/><ellipse class="cls-35" cx="142.54" cy="453.4" rx="3.58" ry="1.87"/><ellipse class="cls-35" cx="185.4" cy="453.4" rx="3.58" ry="1.87"/><path class="cls-30" d="M158.69,409.08c-.38,.03-.76,.06-1.14,.11-1,.11-1.97,.25-2.92,.43-2.71,.51-5.23,1.27-7.54,2.18-.32,.12-.63,.25-.95,.39-.88-3.49-3.63-14.86-5.38-26.9-2.53-17.35-3-36.09,7.18-34.62,7.17,1.04,10.38,10.16,11.61,21.02h0c1.63,14.3-.17,31.6-.87,37.39Z"/><path class="cls-36" d="M159.56,371.69l.41-2.57s4.59,10.12,0,39.87l-1.29,.08s4.24-14.01,.87-37.39Z"/><path class="cls-36" d="M146.14,412.19l-.92,.4s-3.41-8.13-5.39-30.17l1.18,4.56s3.07,17.7,5.13,25.21Z"/><path class="cls-36" d="M198.19,375.6s-4.15,16.13-15.06,39.3c-.76-.45-1.26-.72-1.26-.72,0,0,4.7-5.99,14.88-36.74l1.43-1.84Z"/><path class="cls-36" d="M179.85,360.9l.65-1.49s-3.2,32.95-8.59,50.93l-1.59-.44s4.33-11.44,9.52-49.01Z"/><path class="cls-36" d="M130.74,409.83l-1.09-1.46s1.45,4,5.58,10.29l.82-.68s-2.71-2.91-5.32-8.15Z"/><path class="cls-36" d="M101.17,405.37l-1.62-1.56s12.35,6.82,28.61,21.89l-.59,.93s-15.42-13.81-26.4-21.26Z"/><path class="cls-36" d="M101.06,427.9l-2.7-.88s3.2,3.03,24.08,11.34l.15-.67s-14.16-5.83-21.54-9.78Z"/><path class="cls-36" d="M112.52,449.03s7.34,.63,9.5,.84l.09,.62s-6.2-.14-11.53-1.6l1.93,.14Z"/><path class="cls-36" d="M104.31,467.58s11.62-1.72,21.84-4.78l.39,.72s-9.31,4.1-24.66,4.99l2.44-.93Z"/><path class="cls-36" d="M132.2,471.51s-8,4-14.76,9.73l-2.89,1.72s5.75-5.26,16.86-12.34c.93,1.05,.79,.89,.79,.89Z"/><path class="cls-36" d="M123.32,501.61s15.82-19.06,17.68-23.05l1.28,.67s-12.72,17.13-20.16,24.6l1.2-2.23Z"/><path class="cls-36" d="M151.6,481.79s-14.2,24.89-16.7,44.17c-.85,1.51-1.08,1.87-1.08,1.87,0,0,2.62-21.7,16.86-46.11l.91,.07Z"/><path class="cls-36" d="M149.36,535.5s12.93-21.45,13.02-54.35c.68-.09,.52-.07,.52-.07,0,0,.93,29.28-13.35,55.04-.18-.49-.19-.62-.19-.62Z"/><path class="cls-36" d="M167.58,532.63s-6.65-18.09-6.42-31.04l-.32,1.83s-.59,7.55,6.57,30.07l.17-.87Z"/><path class="cls-36" d="M177.43,477.23s2.85,10.98,5.33,26.61l.37,.77s-1.44-12.33-5.21-27.6l-.48,.22Z"/><path class="cls-36" d="M200.05,495.16s-13.3-12.85-17.62-20.66l-.5,.34s4.35,7.57,20.02,23.17l-1.9-2.85Z"/><path class="cls-36" d="M190.47,466.6s29.36,15.86,40.08,28.57c1,.26-7.34-10.69-39.63-29.25l-.45,.68Z"/><path class="cls-36" d="M223.59,469.07s-14.53-5.66-28.12-13.8l-.21,.76s12.63,7.64,30.2,14.14l-1.88-1.1Z"/><path class="cls-36" d="M197.48,444.06s33.35,2.82,49.39,11.98l1.25-.15s-16.66-9.1-50.58-12.74l-.06,.91Z"/><path class="cls-36" d="M198.34,406.58s-4.17,6.64-11.02,11.22c.64,.54,.38,.31,.38,.31,0,0,7.88-6.06,12.23-12.59l-1.59,1.06Z"/><path class="cls-36" d="M214.1,416.88s-12.57,3.24-20.26,8.5c.24,.43,.24,.42,.24,.42,0,0,10.01-5.94,17.52-7.89l2.5-1.03Z"/><path class="cls-36" d="M197.29,435.81s10.81,.68,36.86-1.92l1.48,.09s-10.58,2.25-38.22,2.79l-.12-.96Z"/><g><path class="cls-27" d="M152.49,442.61c-1.18-2.96-5.26-3.5-7.7-1.95-.83,.5-1.3,1.24-1.79,2.06-.19,.38-.67,.52-1.03,.29-.76-.57-.08-1.9,.34-2.52,1.16-1.65,3.23-2.54,5.19-2.44,2.51,.06,5.09,1.93,5.38,4.47,.03,.23-.31,.3-.39,.09h0Z"/><circle class="cls-27" cx="149.36" cy="443.04" r="3.58"/><circle class="cls-44" cx="146.78" cy="441.2" r="1"/><circle class="cls-44" cx="147.99" cy="442.82" r=".37"/></g><g><path class="cls-27" d="M173.36,442.53c.29-2.54,2.87-4.41,5.38-4.47,2.53-.15,5.69,1.58,5.86,4.36,0,.76-1.03,.97-1.36,.31-1.64-3.7-7.87-4.01-9.5-.11-.07,.22-.42,.14-.39-.09h0Z"/><circle class="cls-27" cx="176.88" cy="443.04" r="3.58"/><circle class="cls-44" cx="179.47" cy="441.2" r="1"/><circle class="cls-44" cx="178.25" cy="442.82" r=".37"/></g></g><g><path class="cls-37" d="M560.86,629.37c-7.78,29.66-4.24,88.06-2.31,112.29,.54,6.83,.96,10.95,.96,10.95h-12.14s-1.89-77.13,4.85-105.17c6.74-28.04,10.25-86.83,10.25-86.83l4.62-2.5,1.86-1.01s1.89,34.25-8.09,72.27Z"/><path class="cls-25" d="M560.86,629.37c-7.78,29.66-4.24,88.06-2.31,112.29l-2.89,1.64s-5.72-82.07,2.46-109.48c10.6-41.27,9.76-66.98,8.98-75.72l1.86-1.01s1.89,34.25-8.09,72.27Z"/><path class="cls-37" d="M561.79,596.24s-1.4-.57-3.57-1.71c-8.15-4.27-27.12-16.47-22.75-35.91,.82-3.67,1.96-5.65,3.31-6.38,7.71-4.15,22.12,32.75,22.12,32.75l.89,11.25Z"/><g><path class="cls-37" d="M571.47,655.66c-7.01,5.55-15.82,7.15-15.82,7.15l.36-8.07s8.83-13.58,15.77-19.57c4.41-3.8,8.05-4.54,8.19,3.21,.14,8.03-3.77,13.55-8.49,17.28Z"/><path class="cls-25" d="M571.47,655.66c4.92-6.06,9.07-14.1,6.96-21.39-.93-3.21-6.65,.89-6.65,.89h0c4.41-3.81,8.05-4.55,8.19,3.21,.14,8.03-3.77,13.55-8.49,17.28Z"/></g><g><path class="cls-57" d="M611.81,480.59c-5.08,17.63-19.03,24.75-41.72,25.43-8.13,.24-16.2-4.31-22.17-11.35-10.69-12.61-14.63-33.16-.02-48.32,0,0,9.06-9.84,23.37-12.52,5.74-1.07,12.33-.99,19.51,1.34,25.09,8.14,26.1,27.8,21.02,45.43Z"/><path class="cls-42" d="M547.92,494.67c-10.69-12.61-14.63-33.16-.02-48.32,0,0,9.06-9.84,23.37-12.52-15.1,6.58-38.28,23.21-23.36,60.84Z"/></g><path class="cls-27" d="M576.03,475.65c1.34,1.84,4.02,2.02,6.02,1.32,.68-.27,1.31-.67,1.76-1.34,.1-.14,.3-.18,.44-.08,.09,.06,.14,.16,.14,.26,0,.51-.2,1.02-.48,1.46-1.81,2.56-6.21,2.57-8.04,.02-.26-.38-.91-1.72-.15-1.82,.13,0,.25,.07,.31,.18h0Z"/><path class="cls-20" d="M586.98,434.12h0c-.29-.06-.58-.13-.87-.18-3.8-.76-7.4-.91-10.77-.64-.38,.03-.76,.06-1.14,.11-.09-5.36-.18-22.85,2.01-37.49h0c2.01-13.45,5.95-24.49,13.59-21.53,3.98,1.54,5.98,5.51,6.7,10.73,2.18,15.62-7.12,42.44-9.52,49.01Z"/><path class="cls-32" d="M614.99,430.79h0c-5.59,5.69-10.3,9.85-11.38,10.79-.03,.03-.05,.05-.07,.07-1.51-1.17-3.19-2.27-5.08-3.27h-.01c-1.17-.63-2.41-1.22-3.73-1.77l-1.81-1.08s9.81-19.65,20.51-33.87c8.07-10.72,16.64-18.36,21.91-12.19,8.04,9.41-8.2,28.97-20.33,41.34Z"/><path class="cls-8" d="M613.4,401.65c-4.61,17.53-14.86,36.74-14.86,36.74l-.1-.02h-.01c-1.17-.63-2.41-1.22-3.73-1.77-1.24-.51-2.54-1-3.91-1.44-1.29-.42-2.56-.77-3.81-1.05h0c-.29-.06-.58-.13-.87-.18,.85-7.83,4.03-33.72,10.39-48.82,3.49-8.29,7.93-13.33,13.47-10.36,7.1,3.81,6.58,14.97,3.44,26.9Z"/><path class="cls-29" d="M628.25,442.13c-7.98,3.22-15.44,5.46-18.46,6.32-.17-.27-.35-.54-.54-.81-1.45-2.08-3.25-4.01-5.47-5.78h0s-.18-.28-.18-.28l-1.19-1.82s5.33-4.11,12.57-8.97h0c14.41-9.68,36.41-22.31,39.25-11.5,2.41,9.17-12.53,17.41-25.99,22.83Z"/><path class="cls-3" d="M670.54,445.1c-.51,7.13-9.17,10.98-19.74,13h-.01c-13.56,2.61-30.25,2.22-36.86,1.92-.04-.3-.08-.59-.13-.89-.61-3.78-1.88-7.39-4.01-10.69-.17-.27-.35-.54-.54-.81,2.86-.94,10.27-3.3,19-5.51,18.59-4.71,43.14-8.77,42.29,2.97Z"/><path class="cls-28" d="M669.72,491.44c-4.11,7.47-16.8,5.85-29.48,1.84,0,0-.01,0-.01,0-11.92-3.78-23.83-9.68-28.58-12.14,.06-.18,.11-.36,.16-.54,.11-.37,.21-.74,.31-1.11,.56-2.05,1.03-4.13,1.39-6.21,.29-1.67,.5-3.34,.62-5,8.44,1.01,36.23,4.79,49.39,11.98,5.65,3.09,8.61,6.8,6.19,11.19Z"/><path class="cls-58" d="M678.86,471.4c-1.67,5.51-7.62,8.05-15.34,8.86-17.14,1.79-43-5.01-50.01-6.98,.29-1.67,.5-3.34,.62-5,.21-2.79,.17-5.56-.2-8.25-.04-.3-.08-.59-.13-.89,6.08-.54,22.25-1.77,36.99-1.04h.01c16.31,.82,30.87,4.05,28.06,13.29Z"/><path class="cls-11" d="M659.65,517.57c-3,2.99-7.41,3.24-12.45,1.81-14.65-4.15-34.59-22.4-40.47-28.01,.13-.18,.26-.36,.39-.55,1.91-2.78,3.42-5.99,4.53-9.68,.06-.18,.11-.36,.16-.54,.11-.37,.21-.74,.31-1.11,4.39,1.86,16.82,7.29,28.11,13.79,0,0,0,0,.01,0,13.89,8.01,26.07,17.65,19.41,24.29Z"/><path class="cls-33" d="M625.63,554.25c-9.76,3.07-19.43-11.87-26.22-26.19,0,0,0,0,0,0-5.72-12.07-9.42-23.69-9.42-23.69l3.88-2.83c.07-.03,.14-.06,.21-.1,1.79-.8,3.46-1.7,5.01-2.73h0c.44-.29,.87-.59,1.29-.91,2.01,2.4,9.42,11.41,16.32,21.57,9.97,14.67,18.86,31.75,8.93,34.88Z"/><path class="cls-45" d="M649.74,533.3c-7.75,6.26-21.65-3.41-33.04-13.93-10.18-9.41-18.36-19.49-18.36-19.49l.74-1.17h0c.44-.29,.87-.59,1.29-.91,2.45-1.8,4.57-3.94,6.36-6.43,.13-.18,.26-.36,.39-.55,7.2,4.01,30.01,17.2,40.08,28.57,4.85,5.47,6.75,10.52,2.53,13.92Z"/><path class="cls-9" d="M592.27,563.78c-3.61-.53-6.21-3.12-8.04-6.94-6.74-13.98-3.38-44.52-2.44-51.88,.2-.03,.4-.06,.6-.1,4.25-.74,8.08-1.83,11.48-3.32,.07-.03,.14-.06,.21-.1,.48,1.88,3.43,13.73,5.33,26.61,0,0,0,0,0,0,2.61,17.67,3.26,37.26-7.14,35.73Z"/><path class="cls-7" d="M584.23,556.84c-1.45,7.99-4.48,13.16-10.2,11.75-3.96-.98-6.49-4.27-8.02-8.88-5.12-15.5,1.15-45.94,2.89-53.68h0c.4,.01,.79,.01,1.19,0,1.85-.05,3.64-.15,5.37-.3h0c2.2-.18,4.3-.44,6.32-.77,.2-.03,.4-.06,.6-.1,1.05,7.23,4.82,35.55,1.84,51.98Z"/><path class="cls-46" d="M568.25,506c-1.42,5.11-8.26,28.97-16.7,44.17-5.38,9.68-11.39,15.84-17.07,11.43-8.01-6.22-2.17-21.89,5.48-35.77,6.18-11.23,13.56-21.28,15.76-24.2,.63,.41,1.27,.8,1.92,1.15,3.19,1.77,6.58,2.89,10.02,3.18,.2,.02,.4,.03,.59,.04Z"/><path class="cls-40" d="M580.27,506.67s-4.67,39.58-14.26,53.04c-2.78,3.89-5.96,5.6-9.56,3.55-4.02-2.29-5.28-7.13-4.89-13.1,.99-15.32,12.78-38.06,16.11-44.21,.2,.02,.4,.03,.59,.04,.21,.02,.43,.02,.64,.03h0c.4,.01,.79,.01,1.19,0,1.85-.05,3.64-.15,5.37-.3h0l4.81,.94Z"/><path class="cls-16" d="M557.64,502.78c-1.89,2.76-9.23,13.29-17.68,23.05-10.87,12.56-23.58,23.85-28.9,15.72-6.32-9.67,9.92-25.52,23.02-36.08,0,0,.01,0,.02-.01,6.6-5.32,12.4-9.29,14.11-10.44,.21,.24,.42,.48,.63,.71h0c2.09,2.3,4.4,4.3,6.88,5.9,.63,.41,1.27,.8,1.92,1.15Z"/><path class="cls-23" d="M539.24,461.89c-.96,4.06-1.1,8.17-.57,12.18-10.43-.92-63.43-6.36-55.81-21.21,4.43-8.63,20.52-5.59,34.84-.76,9.15,3.09,17.58,6.93,21.75,8.93-.08,.29-.15,.57-.22,.86Z"/><path class="cls-41" d="M544.64,450.23c-.15,.2-.29,.4-.43,.61-2.28,3.27-3.83,6.71-4.76,10.2-.08,.29-.15,.57-.22,.86-3.85-1.56-12.55-5.21-21.54-9.78-15.84-8.05-32.58-19.01-25.28-26.55,5.29-5.47,15.36-1.99,25.39,4.01,0,0,0,0,.01,0,11.3,6.76,22.55,16.71,26.82,20.65Z"/><path class="cls-55" d="M552.97,441.99c-.22,.16-.43,.32-.64,.48-2.86,2.18-4.43,3.88-4.43,3.88-1.21,1.26-2.3,2.55-3.26,3.88-.15,.2-.29,.4-.43,.61-4.46-3.15-16.62-11.98-26.4-21.26,0,0-.01,0-.01,0-10.4-9.88-18.1-20.27-10.94-24.87,11.29-7.26,30.7,16.01,40.52,29.34,0,0,.01,.02,.02,.02,2.73,3.71,4.71,6.64,5.57,7.93Z"/><path class="cls-2" d="M563.74,436.01c-.32,.12-.63,.25-.95,.39-4.02,1.68-7.35,3.77-9.82,5.6-.22,.16-.43,.32-.64,.48-.58-.95-2.47-4.06-4.93-8.41,0,0-.01-.02-.02-.02-4.62-8.15-11.24-20.69-15.15-31.7-4.14-11.67-5.2-21.63,2.46-22.83,7.01-1.1,12.74,5.95,17.21,15.45,2.12,4.49,3.95,9.54,5.5,14.53,3.69,11.84,5.79,23.36,6.33,26.51Z"/><path class="cls-4" d="M548.94,495.88s-6.33,4.44-14.83,9.57c0,0-.01,0-.02,.01-16.35,9.87-40.68,22.24-43.23,10.34-2.23-10.38,15.2-18.79,30.47-24.08,9.63-3.33,18.4-5.42,20.84-5.98,.2,.43,.41,.86,.63,1.27,1.43,2.77,3.16,5.35,5.13,7.66,.1,.11,.2,.23,.29,.34,.21,.24,.42,.48,.63,.71h0s.09,.16,.09,.16Z"/><path class="cls-34" d="M542.79,487.01c-1.32,.34-10.43,2.7-21.47,4.71-19.78,3.6-45.72,6.09-44-6.12,2.47-17.5,51.03-12.67,61.36-11.45,.53,4.03,1.74,7.95,3.48,11.59,.2,.43,.41,.86,.63,1.27Z"/><ellipse class="cls-35" cx="559.19" cy="477.61" rx="3.58" ry="1.87"/><ellipse class="cls-35" cx="602.04" cy="477.61" rx="3.58" ry="1.87"/><path class="cls-5" d="M575.33,433.29c-.38,.03-.76,.06-1.14,.11-1,.11-1.97,.25-2.92,.43-2.71,.51-5.23,1.27-7.54,2.18-.32,.12-.63,.25-.95,.39-.88-3.49-3.63-14.86-5.38-26.9-2.53-17.35-3-36.09,7.18-34.62,7.17,1.04,10.38,10.16,11.61,21.02h0c1.63,14.3-.17,31.6-.87,37.39Z"/><path class="cls-36" d="M576.2,395.91l.41-2.57s4.59,10.12,0,39.87l-1.29,.08s4.24-14.01,.87-37.39Z"/><path class="cls-36" d="M562.79,436.4l-.92,.4s-3.41-8.13-5.39-30.17l1.18,4.56s3.07,17.7,5.13,25.21Z"/><path class="cls-36" d="M614.83,399.82s-4.15,16.13-15.06,39.3c-.76-.45-1.26-.72-1.26-.72,0,0,4.7-5.99,14.88-36.74l1.43-1.84Z"/><path class="cls-36" d="M596.49,385.11l.65-1.49s-3.2,32.95-8.59,50.93l-1.59-.44s4.33-11.44,9.52-49.01Z"/><path class="cls-36" d="M547.38,434.04l-1.09-1.46s1.45,4,5.58,10.29l.82-.68s-2.71-2.91-5.32-8.15Z"/><path class="cls-36" d="M517.82,429.58l-1.62-1.56s12.35,6.82,28.61,21.89l-.59,.93s-15.42-13.81-26.4-21.26Z"/><path class="cls-36" d="M517.7,452.11l-2.7-.88s3.2,3.03,24.08,11.34l.15-.67s-14.16-5.83-21.54-9.78Z"/><path class="cls-36" d="M529.17,473.24s7.34,.63,9.5,.84l.09,.62s-6.2-.14-11.53-1.6l1.93,.14Z"/><path class="cls-36" d="M520.95,491.79s11.62-1.72,21.84-4.78l.39,.72s-9.31,4.1-24.66,4.99l2.44-.93Z"/><path class="cls-36" d="M548.85,495.73s-8,4-14.76,9.73l-2.89,1.72s5.75-5.26,16.86-12.34c.93,1.05,.79,.89,.79,.89Z"/><path class="cls-36" d="M539.96,525.82s15.82-19.06,17.68-23.05l1.28,.67s-12.72,17.13-20.16,24.6l1.2-2.23Z"/><path class="cls-36" d="M568.25,506s-14.2,24.89-16.7,44.17c-.85,1.51-1.08,1.87-1.08,1.87,0,0,2.62-21.7,16.86-46.11l.91,.07Z"/><path class="cls-36" d="M566.01,559.71s12.93-21.45,13.02-54.35c.68-.09,.52-.07,.52-.07,0,0,.93,29.28-13.35,55.04-.18-.49-.19-.62-.19-.62Z"/><path class="cls-36" d="M584.23,556.84s-6.65-18.09-6.42-31.04l-.32,1.83s-.59,7.55,6.57,30.07l.17-.87Z"/><path class="cls-36" d="M594.08,501.44s2.85,10.98,5.33,26.61l.37,.77s-1.44-12.33-5.21-27.6l-.48,.22Z"/><path class="cls-36" d="M616.7,519.37s-13.3-12.85-17.62-20.66l-.5,.34s4.35,7.57,20.02,23.17l-1.9-2.85Z"/><path class="cls-36" d="M607.12,490.81s29.36,15.86,40.08,28.57c1,.26-7.34-10.69-39.63-29.25l-.45,.68Z"/><path class="cls-36" d="M640.24,493.28s-14.53-5.66-28.12-13.8l-.21,.76s12.63,7.64,30.2,14.14l-1.88-1.1Z"/><path class="cls-36" d="M614.13,468.27s33.35,2.82,49.39,11.98l1.25-.15s-16.66-9.1-50.58-12.74l-.06,.91Z"/><path class="cls-36" d="M614.99,430.79s-4.17,6.64-11.02,11.22c.64,.54,.38,.31,.38,.31,0,0,7.88-6.06,12.23-12.59l-1.59,1.06Z"/><path class="cls-36" d="M630.75,441.09s-12.57,3.24-20.26,8.5c.24,.43,.24,.42,.24,.42,0,0,10.01-5.94,17.52-7.89l2.5-1.03Z"/><path class="cls-36" d="M613.93,460.02s10.81,.68,36.86-1.92l1.48,.09s-10.58,2.25-38.22,2.79l-.12-.96Z"/><g><path class="cls-27" d="M569.14,466.83c-1.18-2.96-5.26-3.5-7.7-1.95-.83,.5-1.3,1.24-1.79,2.06-.19,.38-.67,.52-1.03,.29-.76-.57-.08-1.9,.34-2.52,1.16-1.65,3.23-2.54,5.19-2.44,2.51,.06,5.09,1.93,5.38,4.47,.03,.23-.31,.3-.39,.09h0Z"/><circle class="cls-27" cx="566" cy="467.25" r="3.58"/><circle class="cls-44" cx="563.42" cy="465.41" r="1"/><circle class="cls-44" cx="564.64" cy="467.03" r=".37"/></g><g><path class="cls-27" d="M590.01,466.74c.29-2.54,2.87-4.41,5.38-4.47,2.53-.15,5.69,1.58,5.86,4.36,0,.76-1.03,.97-1.36,.31-1.64-3.7-7.87-4.01-9.5-.11-.07,.22-.42,.14-.39-.09h0Z"/><circle class="cls-27" cx="593.53" cy="467.25" r="3.58"/><circle class="cls-44" cx="596.11" cy="465.41" r="1"/><circle class="cls-44" cx="594.9" cy="467.03" r=".37"/></g></g><g><path class="cls-37" d="M354.56,483.74c-14.74,56.17-8.03,166.74-4.37,212.63,1.03,12.93,1.82,20.73,1.82,20.73h-22.98s-3.58-146.04,9.19-199.15c12.77-53.1,19.4-164.42,19.4-164.42l8.74-4.73,3.52-1.91s3.57,64.85-15.32,136.85Z"/><path class="cls-25" d="M354.56,483.74c-14.74,56.17-8.03,166.74-4.37,212.63l-5.48,3.11s-10.83-155.4,4.65-207.31c20.07-78.15,18.48-126.83,17-143.37l3.52-1.91s3.57,64.85-15.32,136.85Z"/><path class="cls-37" d="M334.5,579.09s-3.12-1.27-7.92-3.79c-18.08-9.47-60.19-36.56-50.49-79.7,1.83-8.14,4.36-12.54,7.35-14.15,17.12-9.21,49.09,72.68,49.09,72.68l1.96,24.96Z"/><path class="cls-10" d="M387.37,580.12c.66-.69,1.31-1.38,1.94-2.05-.63,.74-1.28,1.42-1.94,2.05Z"/><g><path class="cls-37" d="M397.03,397.86c-13.51,10.68-30.48,13.77-30.48,13.77l.69-15.56s17.01-26.16,30.38-37.69c8.5-7.32,15.52-8.75,15.77,6.19,.26,15.47-7.26,26.1-16.36,33.3Z"/><path class="cls-25" d="M397.03,397.86c9.48-11.68,17.47-27.16,13.41-41.2-1.79-6.18-12.82,1.72-12.82,1.72h0c8.5-7.33,15.52-8.76,15.77,6.18,.26,15.47-7.26,26.1-16.36,33.3Z"/></g><g><path class="cls-48" d="M451.03,202.04c-9.62,33.38-36.04,46.86-79,48.15-15.39,.46-30.68-8.17-41.98-21.49-20.25-23.87-27.7-62.79-.03-91.5,0,0,17.16-18.63,44.26-23.71,10.87-2.03,23.34-1.88,36.95,2.53,47.51,15.41,49.43,52.64,39.8,86.02Z"/><path class="cls-19" d="M330.05,228.7c-20.25-23.87-27.7-62.79-.03-91.5,0,0,17.16-18.63,44.26-23.71-28.6,12.45-72.48,43.95-44.23,115.21Z"/></g><g><path class="cls-50" d="M404.01,114.04h-.01c-.55-.12-1.1-.24-1.65-.35-7.2-1.44-14.02-1.73-20.39-1.22-.72,.05-1.44,.12-2.15,.2-.17-10.15-.34-43.26,3.8-70.98h0c3.81-25.47,11.27-46.38,25.73-40.77,7.53,2.92,11.32,10.43,12.69,20.32,4.12,29.58-13.49,80.37-18.02,92.8Z"/><path class="cls-50" d="M457.05,107.74h-.01c-10.58,10.78-19.51,18.66-21.55,20.43-.05,.05-.1,.1-.14,.13-2.85-2.22-6.04-4.3-9.62-6.2h-.02c-2.22-1.19-4.56-2.31-7.07-3.35l-3.43-2.05s18.58-37.21,38.84-64.14c15.28-20.29,31.51-34.76,41.49-23.09,15.23,17.81-15.52,54.86-38.49,78.27Z"/><path class="cls-50" d="M454.05,52.56c-8.72,33.2-28.13,69.57-28.13,69.57l-.19-.03h-.02c-2.22-1.19-4.56-2.31-7.07-3.35-2.34-.97-4.81-1.89-7.41-2.73-2.45-.79-4.85-1.45-7.22-1.98h-.01c-.55-.12-1.1-.24-1.65-.35,1.61-14.82,7.64-63.85,19.68-92.45,6.6-15.69,15.02-25.24,25.5-19.61,13.44,7.21,12.46,28.34,6.52,50.93Z"/><path class="cls-50" d="M482.16,129.2c-15.11,6.1-29.23,10.33-34.95,11.97-.33-.52-.67-1.03-1.02-1.53-2.75-3.93-6.16-7.6-10.35-10.94h-.01s-.34-.53-.34-.53l-2.26-3.44s10.09-7.78,23.81-16.98h.01c27.28-18.32,68.94-42.24,74.32-21.78,4.56,17.36-23.72,32.96-49.21,43.23Z"/><path class="cls-50" d="M562.24,134.83c-.97,13.5-17.37,20.79-37.38,24.62h-.02c-25.68,4.94-57.27,4.2-69.79,3.64-.07-.56-.16-1.12-.25-1.68-1.16-7.16-3.56-14-7.59-20.24-.33-.52-.67-1.03-1.02-1.53,5.42-1.78,19.45-6.24,35.97-10.44,35.2-8.92,81.68-16.6,80.08,5.63Z"/><path class="cls-50" d="M560.68,222.57c-7.78,14.15-31.81,11.08-55.82,3.49-.01,0-.02-.01-.02-.01-22.57-7.16-45.12-18.32-54.12-22.98,.11-.34,.21-.68,.31-1.03,.2-.7,.4-1.4,.59-2.11,1.06-3.89,1.95-7.82,2.63-11.76,.54-3.16,.94-6.32,1.17-9.46,15.98,1.91,68.6,9.07,93.53,22.68,10.7,5.85,16.3,12.87,11.73,21.18Z"/><path class="cls-50" d="M577.99,184.62c-3.17,10.43-14.43,15.25-29.04,16.77-32.46,3.39-81.42-9.49-94.7-13.22,.54-3.16,.94-6.32,1.17-9.46,.4-5.29,.32-10.53-.37-15.62-.07-.56-.16-1.12-.25-1.68,11.51-1.02,42.13-3.35,70.04-1.96h.02c30.88,1.56,58.45,7.67,53.13,25.17Z"/><path class="cls-50" d="M541.62,272.05c-5.68,5.67-14.04,6.13-23.57,3.43-27.74-7.85-65.49-42.41-76.63-53.04,.25-.34,.49-.69,.73-1.05,3.61-5.27,6.47-11.35,8.57-18.32,.11-.34,.21-.68,.31-1.03,.2-.7,.4-1.4,.59-2.11,8.32,3.52,31.84,13.8,53.22,26.12,0,0,.01,.01,.02,.01,26.31,15.17,49.36,33.42,36.76,45.99Z"/><path class="cls-50" d="M477.19,341.51c-18.49,5.82-36.79-22.48-49.64-49.6,0-.01-.01-.01-.01-.01-10.84-22.85-17.83-44.86-17.83-44.86l7.34-5.35c.13-.06,.27-.12,.4-.18,3.39-1.51,6.55-3.22,9.48-5.17h.01c.84-.55,1.64-1.12,2.44-1.72,3.8,4.55,17.84,21.6,30.91,40.84,18.87,27.78,35.72,60.12,16.9,66.05Z"/><path class="cls-50" d="M522.85,301.84c-14.68,11.85-40.99-6.46-62.56-26.38-19.28-17.81-34.77-36.9-34.77-36.9l1.41-2.22h.01c.84-.55,1.64-1.12,2.44-1.72,4.64-3.41,8.65-7.46,12.04-12.18,.25-.34,.49-.69,.73-1.05,13.64,7.6,56.83,32.57,75.9,54.09,9.18,10.36,12.78,19.92,4.8,26.36Z"/><path class="cls-50" d="M414.03,359.56c-6.83-1.01-11.75-5.91-15.23-13.15-12.76-26.47-6.4-84.3-4.62-98.24,.38-.06,.76-.12,1.14-.19,8.05-1.4,15.3-3.47,21.73-6.29,.13-.06,.27-.12,.4-.18,.91,3.56,6.49,26,10.09,50.39,0,0,.01,0,.01,.01,4.94,33.45,6.17,70.56-13.52,67.65Z"/><path class="cls-50" d="M398.8,346.41c-2.74,15.12-8.49,24.92-19.32,22.24-7.5-1.85-12.29-8.08-15.18-16.81-9.7-29.35,2.18-86.98,5.47-101.65h.01c.75,.02,1.5,.02,2.25,0,3.5-.1,6.89-.29,10.17-.56h.01c4.17-.34,8.15-.83,11.97-1.46,.38-.06,.76-.12,1.14-.19,1.99,13.69,9.12,67.32,3.48,98.43Z"/><path class="cls-50" d="M368.55,250.14c-2.68,9.68-15.64,54.85-31.62,83.63-10.18,18.32-21.57,29.99-32.32,21.64-15.16-11.78-4.11-41.45,10.38-67.73,11.71-21.26,25.68-40.29,29.84-45.82,1.19,.78,2.4,1.51,3.63,2.18,6.04,3.35,12.46,5.47,18.97,6.02,.37,.04,.75,.06,1.12,.08Z"/><path class="cls-50" d="M391.31,251.41s-8.84,74.94-27.01,100.43c-5.26,7.37-11.29,10.61-18.11,6.73-7.62-4.34-9.99-13.51-9.26-24.8,1.88-29,24.2-72.07,30.5-83.71,.37,.04,.75,.06,1.12,.08,.4,.03,.81,.04,1.22,.05h.01c.75,.02,1.5,.02,2.25,0,3.5-.1,6.89-.29,10.17-.56h.01l9.1,1.78Z"/><path class="cls-50" d="M348.46,244.04c-3.58,5.23-17.48,25.16-33.47,43.64-20.59,23.78-44.65,45.16-54.72,29.76-11.96-18.31,18.79-48.33,43.59-68.32,0-.01,.02-.01,.03-.02,12.49-10.07,23.48-17.59,26.71-19.76,.4,.46,.79,.9,1.2,1.34h0c3.95,4.36,8.34,8.14,13.02,11.18,1.19,.78,2.4,1.51,3.63,2.18Z"/><path class="cls-50" d="M313.62,166.63c-1.82,7.68-2.09,15.47-1.08,23.07-19.75-1.74-120.11-12.05-105.67-40.16,8.39-16.34,38.86-10.59,65.97-1.43,17.33,5.86,33.28,13.12,41.19,16.9-.15,.54-.28,1.08-.41,1.62Z"/><path class="cls-50" d="M323.85,144.54c-.28,.38-.55,.76-.81,1.15-4.31,6.19-7.25,12.7-9.01,19.32-.15,.54-.28,1.08-.41,1.62-7.29-2.96-23.77-9.86-40.78-18.52-30-15.25-61.7-35.99-47.87-50.28,10.02-10.35,29.09-3.76,48.07,7.6,0,0,.01,.01,.02,.01,21.4,12.8,42.69,31.65,50.79,39.1Z"/><path class="cls-50" d="M339.61,128.95c-.42,.3-.82,.6-1.21,.9-5.41,4.13-8.38,7.35-8.38,7.35-2.29,2.38-4.35,4.83-6.17,7.34-.28,.38-.55,.76-.81,1.15-8.45-5.97-31.47-22.68-49.98-40.25,0,0-.02-.01-.02-.01-19.7-18.71-34.28-38.38-20.72-47.09,21.37-13.74,58.14,30.31,76.72,55.55,.01,0,.02,.03,.03,.04,5.16,7.02,8.92,12.57,10.54,15.02Z"/><path class="cls-50" d="M360,117.61c-.6,.23-1.2,.48-1.79,.73-7.62,3.19-13.91,7.14-18.6,10.6-.42,.3-.82,.6-1.21,.9-1.1-1.8-4.67-7.68-9.33-15.92-.01-.01-.02-.03-.03-.04-8.74-15.44-21.29-39.18-28.68-60.02-7.83-22.1-9.85-40.95,4.65-43.22,13.27-2.08,24.13,11.27,32.59,29.26,4.01,8.51,7.48,18.06,10.42,27.51,6.98,22.41,10.96,44.24,11.98,50.2Z"/><path class="cls-50" d="M331.98,230.98s-11.99,8.41-28.09,18.12c-.01,.01-.02,.01-.03,.02-30.96,18.68-77.03,42.12-81.86,19.58-4.22-19.65,28.78-35.57,57.69-45.59,18.24-6.31,34.85-10.27,39.46-11.33,.37,.81,.77,1.62,1.19,2.41,2.71,5.24,5.99,10.13,9.71,14.51,.18,.21,.37,.43,.55,.64,.4,.46,.79,.9,1.2,1.34h0s.17,.3,.17,.3Z"/><path class="cls-50" d="M320.34,214.19c-2.49,.65-19.75,5.12-40.65,8.92-37.45,6.82-86.57,11.53-83.32-11.59,4.67-33.13,96.63-24,116.19-21.68,1.01,7.63,3.3,15.06,6.59,21.94,.37,.81,.77,1.62,1.19,2.41Z"/><path class="cls-50" d="M381.96,112.47c-.72,.05-1.44,.12-2.15,.2-1.89,.21-3.73,.48-5.53,.82-5.13,.96-9.91,2.41-14.28,4.13-.6,.23-1.2,.48-1.79,.73-1.66-6.61-6.87-28.14-10.19-50.93-4.79-32.85-5.68-68.34,13.6-65.55,13.57,1.96,19.65,19.24,21.99,39.81h0c3.08,27.08-.32,59.83-1.65,70.79Z"/></g><ellipse class="cls-35" cx="355.96" cy="195.35" rx="7.88" ry="4.12"/><ellipse class="cls-35" cx="438.31" cy="195.35" rx="7.88" ry="4.12"/><path class="cls-18" d="M383.61,41.68l.78-4.86s8.69,19.17,0,75.5l-2.43,.15s8.02-26.53,1.65-70.79Z"/><path class="cls-18" d="M358.21,118.35l-1.73,.75s-6.46-15.39-10.21-57.13l2.23,8.64s5.82,33.52,9.71,47.74Z"/><path class="cls-18" d="M456.76,49.08s-7.86,30.55-28.51,74.42c-1.44-.85-2.38-1.37-2.38-1.37,0,0,8.9-11.35,28.18-69.57l2.71-3.48Z"/><path class="cls-18" d="M422.03,21.24l1.24-2.82s-6.05,62.4-16.26,96.44l-3-.82s8.21-21.66,18.03-92.8Z"/><path class="cls-18" d="M329.04,113.89l-2.05-2.77s2.74,7.57,10.57,19.49l1.55-1.29s-5.14-5.51-10.07-15.43Z"/><path class="cls-18" d="M273.06,105.44l-3.07-2.96s23.38,12.92,54.17,41.45l-1.11,1.76s-29.2-26.14-49.98-40.25Z"/><path class="cls-18" d="M272.84,148.11l-5.11-1.67s6.06,5.74,45.6,21.47l.29-1.28s-26.81-11.04-40.78-18.52Z"/><path class="cls-18" d="M294.54,188.11s13.9,1.19,18,1.59l.16,1.17s-11.73-.26-21.82-3.03l3.66,.26Z"/><path class="cls-18" d="M278.99,223.24s22-3.25,41.35-9.05l.73,1.36s-17.63,7.77-46.7,9.46l4.62-1.77Z"/><path class="cls-18" d="M331.81,230.69s-15.15,7.58-27.95,18.43l-5.48,3.26s10.89-9.96,31.93-23.37c1.76,1.99,1.5,1.68,1.5,1.68Z"/><path class="cls-18" d="M314.99,287.68s29.95-36.08,33.47-43.64l2.43,1.27s-24.08,32.43-38.18,46.59l2.28-4.22Z"/><path class="cls-18" d="M368.55,250.14s-26.88,47.13-31.62,83.63c-1.61,2.86-2.04,3.55-2.04,3.55,0,0,4.96-41.09,31.93-87.31l1.73,.14Z"/><path class="cls-18" d="M364.3,351.84s24.49-40.61,24.66-102.91c1.28-.17,.98-.13,.98-.13,0,0,1.76,55.45-25.29,104.22-.33-.94-.35-1.18-.35-1.18Z"/><path class="cls-18" d="M398.8,346.41s-12.59-34.25-12.15-58.77l-.61,3.47s-1.12,14.3,12.45,56.94l.31-1.64Z"/><path class="cls-18" d="M417.45,241.51s5.39,20.79,10.09,50.39l.7,1.45s-2.72-23.34-9.87-52.26l-.92,.42Z"/><path class="cls-18" d="M460.29,275.46s-25.18-24.33-33.36-39.12l-.95,.65s8.24,14.33,37.91,43.87l-3.6-5.4Z"/><path class="cls-18" d="M442.15,221.39s55.59,30.02,75.9,54.09c1.89,.5-13.9-20.23-75.04-55.38l-.86,1.29Z"/><path class="cls-18" d="M504.86,226.06s-27.52-10.72-53.24-26.13l-.4,1.44s23.92,14.47,57.19,26.77l-3.55-2.08Z"/><path class="cls-18" d="M455.42,178.71s63.16,5.35,93.53,22.68l2.36-.28s-31.55-17.22-95.78-24.12l-.11,1.72Z"/><path class="cls-18" d="M457.05,107.74s-7.89,12.58-20.87,21.24c1.21,1.02,.73,.59,.73,.59,0,0,14.93-11.47,23.15-23.83l-3.01,2Z"/><path class="cls-18" d="M486.89,127.24s-23.8,6.14-38.36,16.09c.46,.81,.45,.79,.45,.79,0,0,18.95-11.25,33.18-14.93l4.73-1.96Z"/><path class="cls-18" d="M455.05,163.09s20.48,1.29,69.79-3.64l2.81,.16s-20.03,4.26-72.38,5.29l-.22-1.81Z"/><g><path class="cls-27" d="M378.02,179.83c-3.52-7.95-17.55-7.33-21.19,.23-.65,1.3-2.64,.79-2.57-.65,.17-2.94,2.5-5.26,4.86-6.69,4.72-2.77,10.92-2.54,15.34,.57,2.13,1.53,3.92,3.77,4.28,6.35,.07,.43-.58,.59-.73,.18h0Z"/><ellipse class="cls-27" cx="370.97" cy="179.6" rx="7.88" ry="4.86"/><circle class="cls-44" cx="365.29" cy="176.85" r="2.19"/><circle class="cls-44" cx="367.96" cy="180.42" r=".82"/></g><g><path class="cls-27" d="M410.18,179.65c1.65-8.31,12.9-11.08,19.62-6.92,2.36,1.42,4.7,3.74,4.86,6.69,.05,1.46-1.93,1.93-2.57,.65-3.64-7.56-17.66-8.19-21.19-.23-.13,.42-.8,.25-.73-.18h0Z"/><ellipse class="cls-27" cx="417.95" cy="179.6" rx="7.88" ry="4.86"/><circle class="cls-44" cx="423.64" cy="176.85" r="2.19"/><circle class="cls-44" cx="420.97" cy="180.42" r=".82"/></g><path class="cls-27" d="M389.63,198.05c5.53,3.43,12.73,1.8,16.02-3.9,1.57-2.24,4.92-.01,3.44,2.3-3.95,5.76-12.03,8.03-18.41,5.19-1.18-.61-4.03-1.36-3-3.23,.42-.66,1.32-.82,1.95-.36h0Z"/><path class="cls-50" d="M366.12,162.99c4.86,5.61,11.05,10.48,18.08,13.07,1.37,.47,.73,2.52-.67,2.12-7.78-2.3-14.58-6.97-20.27-12.7-1.76-1.92,1.19-4.51,2.86-2.49h0Z"/><path class="cls-50" d="M402.97,173.06c3.95-7.16,11.77-11.37,19.78-11.88l1.85-.11c2.09,.15,5.83-.72,5.9,2.37-.01,1.45-1.42,2.48-2.81,2.15-1.53-.25-3.26-.56-4.83-.57-.49-.04-1.14-.05-1.62,0-6.42,.11-12.96,3.45-16.26,9.05-.66,1.36-2.7,.37-2.01-1h0Z"/></g><g><path class="cls-51" d="M544.06,757.05h-.03c-190.19,.86-544.03-3.82-544.03-3.82l25.06-8.18s71.18-43.56,101.25-41.51c30.1,2.04,36.11-12.94,49.12-8.18,13.05,4.76,55.16-2.56,63.17-.94,4.59,.92,22.38-2.58,40.99-3.84,13.9-.98,28.27-.7,37.84,3.6,22.41,10.04,45.71-9.32,62.14-4.06,16.43,5.24,112.67,1.16,114.68,9.32,2,8.18,89.23,28.59,103.25,38.13,14.05,9.52,56.16,6.8,64.17,15.65,2.18,2.42-46.15,3.5-117.62,3.82Z"/><path class="cls-14" d="M544.06,757.05h-.03s-27.83-16.07-31.6-17.09c-3.77-1.02-48.5-34.71-56.01-28.59-7.51,6.12-77.07-10.98-82.34-15.87-5.27-4.9-36.08,14.34-48.5,4.9-12.4-9.44-45.97-9.8-45.97-9.8,13.9-.98,28.27-.7,37.84,3.6,22.41,10.04,45.71-9.32,62.14-4.06,16.43,5.24,112.67,1.16,114.68,9.32,2,8.18,89.23,28.59,103.25,38.13,14.05,9.52,56.16,6.8,64.17,15.65,2.18,2.42-46.15,3.5-117.62,3.82Z"/></g></g></g></svg>