<?xml version="1.0" encoding="UTF-8"?><svg id="Calque_2" xmlns="http://www.w3.org/2000/svg" viewBox="0 0 668.34 755.2"><defs><style>.cls-1{fill:#82d16f;}.cls-2{fill:#593636;}.cls-3{opacity:.05;}.cls-4{fill:#ffc82c;}.cls-5{fill:#63c6a0;}.cls-6{fill:#302826;}.cls-7{fill:#ff6e79;opacity:.35;}.cls-8{fill:#5aba97;}.cls-9{fill:#efefef;}.cls-10{fill:#ffd655;}.cls-11{fill:#ff2c50;}.cls-12{fill:#4f2f2f;}</style></defs><g id="Calque_1-2"><g><g><path class="cls-8" d="M145.61,593.04c-7.06,26.91-3.85,79.89-2.09,101.87,.49,6.19,.87,9.93,.87,9.93h-11.01s-1.72-69.97,4.4-95.41c6.12-25.44,9.29-78.77,9.29-78.77l4.19-2.27,1.69-.92s1.71,31.07-7.34,65.57Z"/><path class="cls-5" d="M145.61,593.04c-7.06,26.91-3.85,79.89-2.09,101.87l-2.63,1.49s-5.19-74.45,2.23-99.32c9.62-37.44,8.85-60.76,8.14-68.69l1.69-.92s1.71,31.07-7.34,65.57Z"/><path class="cls-8" d="M136,638.73s-1.49-.61-3.79-1.82c-8.66-4.54-28.84-17.52-24.19-38.18,.88-3.9,2.09-6.01,3.52-6.78,8.2-4.41,23.52,34.82,23.52,34.82l.94,11.96Z"/><path class="cls-1" d="M161.32,639.22c.32-.33,.63-.66,.93-.98-.3,.35-.61,.68-.93,.98Z"/><g><path class="cls-8" d="M165.95,551.9c-6.47,5.12-14.6,6.6-14.6,6.6l.33-7.45s8.15-12.53,14.56-18.06c4.07-3.51,7.43-4.19,7.56,2.96,.13,7.41-3.48,12.51-7.84,15.95Z"/><path class="cls-5" d="M165.95,551.9c4.54-5.6,8.37-13.01,6.43-19.74-.86-2.96-6.14,.83-6.14,.83h0c4.07-3.51,7.43-4.2,7.56,2.96,.13,7.41-3.48,12.51-7.84,15.95Z"/></g><g><path class="cls-10" d="M191.82,458.08c-4.61,15.99-17.27,22.45-37.85,23.07-7.37,.22-14.7-3.91-20.11-10.3-9.7-11.44-13.27-30.08-.01-43.84,0,0,8.22-8.93,21.21-11.36,5.21-.97,11.18-.9,17.7,1.21,22.76,7.38,23.68,25.22,19.07,41.21Z"/><path class="cls-4" d="M133.86,470.85c-9.7-11.44-13.27-30.08-.01-43.84,0,0,8.22-8.93,21.21-11.36-13.7,5.96-34.73,21.06-21.19,55.2Z"/></g><g><path class="cls-11" d="M169.3,415.92h0c-.26-.06-.53-.11-.79-.17-3.45-.69-6.72-.83-9.77-.58-.34,.02-.69,.06-1.03,.1-.08-4.86-.16-20.73,1.82-34.01h0c1.83-12.2,5.4-22.22,12.33-19.53,3.61,1.4,5.42,5,6.08,9.74,1.97,14.17-6.46,38.51-8.63,44.46Z"/><path class="cls-11" d="M194.71,412.9h0c-5.07,5.16-9.35,8.94-10.32,9.79-.02,.02-.05,.05-.07,.06-1.37-1.06-2.89-2.06-4.61-2.97h0c-1.06-.57-2.18-1.11-3.39-1.6l-1.64-.98s8.9-17.83,18.61-30.73c7.32-9.72,15.1-16.65,19.88-11.06,7.3,8.53-7.44,26.28-18.44,37.5Z"/><path class="cls-11" d="M193.27,386.46c-4.18,15.91-13.48,33.33-13.48,33.33h-.09s0-.02,0-.02c-1.06-.57-2.18-1.1-3.39-1.6-1.12-.46-2.3-.91-3.55-1.31-1.17-.38-2.32-.69-3.46-.95h0c-.26-.06-.53-.11-.79-.17,.77-7.1,3.66-30.59,9.43-44.29,3.16-7.52,7.2-12.09,12.22-9.4,6.44,3.45,5.97,13.58,3.12,24.4Z"/><path class="cls-11" d="M206.74,423.18c-7.24,2.92-14,4.95-16.74,5.73-.16-.25-.32-.49-.49-.73-1.32-1.88-2.95-3.64-4.96-5.24h0s-.16-.25-.16-.25l-1.08-1.65s4.83-3.73,11.41-8.14h0c13.07-8.78,33.03-20.24,35.61-10.43,2.18,8.32-11.36,15.79-23.58,20.71Z"/><path class="cls-11" d="M245.11,425.88c-.46,6.47-8.32,9.96-17.91,11.8h0c-12.3,2.37-27.44,2.01-33.44,1.74-.03-.27-.08-.54-.12-.8-.56-3.43-1.71-6.71-3.64-9.7-.16-.25-.32-.49-.49-.73,2.6-.85,9.32-2.99,17.23-5,16.86-4.27,39.13-7.95,38.37,2.7Z"/><path class="cls-11" d="M244.36,467.91c-3.73,6.78-15.24,5.31-26.74,1.67,0,0,0,0,0,0-10.81-3.43-21.62-8.78-25.93-11.01,.05-.16,.1-.33,.15-.49,.1-.34,.19-.67,.28-1.01,.51-1.86,.93-3.75,1.26-5.63,.26-1.51,.45-3.03,.56-4.53,7.66,.92,32.87,4.35,44.81,10.87,5.13,2.8,7.81,6.17,5.62,10.15Z"/><path class="cls-11" d="M252.65,449.73c-1.52,5-6.91,7.31-13.91,8.03-15.55,1.62-39.01-4.55-45.37-6.33,.26-1.51,.45-3.03,.56-4.53,.19-2.53,.15-5.04-.18-7.48-.03-.27-.08-.54-.12-.8,5.51-.49,20.18-1.6,33.56-.94h0c14.79,.75,28,3.67,25.45,12.06Z"/><path class="cls-11" d="M235.23,491.62c-2.72,2.72-6.73,2.94-11.29,1.64-13.29-3.76-31.38-20.32-36.71-25.41,.12-.16,.23-.33,.35-.5,1.73-2.52,3.1-5.44,4.11-8.78,.05-.16,.1-.33,.15-.49,.1-.34,.19-.67,.28-1.01,3.99,1.69,15.25,6.61,25.5,12.51,0,0,0,0,0,0,12.61,7.27,23.65,16.01,17.61,22.03Z"/><path class="cls-11" d="M204.36,524.9c-8.86,2.79-17.63-10.77-23.78-23.76,0,0,0,0,0,0-5.19-10.95-8.54-21.49-8.54-21.49l3.52-2.56c.06-.03,.13-.06,.19-.09,1.62-.72,3.14-1.54,4.54-2.48h0c.4-.26,.79-.54,1.17-.82,1.82,2.18,8.55,10.35,14.81,19.57,9.04,13.31,17.11,28.8,8.1,31.64Z"/><path class="cls-11" d="M226.23,505.89c-7.03,5.68-19.64-3.09-29.97-12.64-9.24-8.53-16.66-17.68-16.66-17.68l.68-1.06h0c.4-.26,.79-.54,1.17-.82,2.22-1.63,4.14-3.57,5.77-5.84,.12-.16,.23-.33,.35-.5,6.54,3.64,27.23,15.6,36.36,25.91,4.4,4.96,6.12,9.54,2.3,12.63Z"/><path class="cls-11" d="M174.1,533.55c-3.27-.48-5.63-2.83-7.3-6.3-6.11-12.68-3.07-40.39-2.21-47.07,.18-.03,.36-.06,.55-.09,3.86-.67,7.33-1.66,10.41-3.01,.06-.03,.13-.06,.19-.09,.44,1.71,3.11,12.46,4.83,24.14,0,0,0,0,0,0,2.37,16.03,2.96,33.81-6.48,32.41Z"/><path class="cls-11" d="M166.8,527.25c-1.31,7.24-4.07,11.94-9.26,10.66-3.59-.89-5.89-3.87-7.27-8.05-4.65-14.06,1.04-41.67,2.62-48.7h0c.36,0,.72,0,1.08,0,1.68-.05,3.3-.14,4.87-.27h0c2-.16,3.9-.4,5.73-.7,.18-.03,.36-.06,.55-.09,.95,6.56,4.37,32.25,1.67,47.16Z"/><path class="cls-11" d="M152.31,481.12c-1.28,4.64-7.49,26.28-15.15,40.07-4.88,8.78-10.33,14.37-15.48,10.37-7.26-5.64-1.97-19.86,4.97-32.45,5.61-10.19,12.3-19.3,14.3-21.95,.57,.37,1.15,.72,1.74,1.04,2.89,1.61,5.97,2.62,9.09,2.88,.18,.02,.36,.03,.54,.04Z"/><path class="cls-11" d="M163.21,481.73s-4.24,35.9-12.94,48.12c-2.52,3.53-5.41,5.08-8.68,3.22-3.65-2.08-4.79-6.47-4.44-11.88,.9-13.89,11.59-34.53,14.61-40.11,.18,.02,.36,.03,.54,.04,.19,.01,.39,.02,.58,.02h0c.36,0,.72,0,1.08,0,1.68-.05,3.3-.14,4.87-.27h0l4.36,.85Z"/><path class="cls-11" d="M142.68,478.2c-1.72,2.51-8.37,12.05-16.04,20.91-9.86,11.39-21.39,21.64-26.22,14.26-5.73-8.77,9-23.16,20.88-32.73,0,0,0,0,.01,0,5.98-4.82,11.25-8.43,12.8-9.47,.19,.22,.38,.43,.57,.64h0c1.89,2.09,4,3.9,6.24,5.36,.57,.37,1.15,.72,1.74,1.04Z"/><path class="cls-11" d="M125.99,441.11c-.87,3.68-1,7.41-.52,11.05-9.46-.83-57.55-5.77-50.63-19.24,4.02-7.83,18.62-5.07,31.61-.69,8.3,2.81,15.94,6.29,19.73,8.1-.07,.26-.13,.52-.2,.78Z"/><path class="cls-11" d="M130.89,430.53c-.13,.18-.26,.36-.39,.55-2.06,2.97-3.47,6.08-4.32,9.26-.07,.26-.13,.52-.2,.78-3.49-1.42-11.39-4.72-19.54-8.87-14.37-7.31-29.56-17.24-22.93-24.09,4.8-4.96,13.94-1.8,23.03,3.64,0,0,0,0,0,0,10.25,6.13,20.45,15.16,24.33,18.73Z"/><path class="cls-11" d="M138.44,423.06c-.2,.14-.39,.29-.58,.43-2.59,1.98-4.01,3.52-4.01,3.52-1.1,1.14-2.08,2.31-2.96,3.52-.13,.18-.26,.36-.39,.55-4.05-2.86-15.08-10.87-23.95-19.28,0,0,0,0,0,0-9.44-8.96-16.42-18.39-9.93-22.56,10.24-6.58,27.86,14.52,36.76,26.61,0,0,0,.01,.01,.02,2.47,3.36,4.27,6.02,5.05,7.2Z"/><path class="cls-11" d="M148.21,417.63c-.29,.11-.57,.23-.86,.35-3.65,1.53-6.66,3.42-8.91,5.08-.2,.14-.39,.29-.58,.43-.53-.86-2.24-3.68-4.47-7.63,0,0,0-.01-.01-.02-4.19-7.4-10.2-18.77-13.74-28.76-3.75-10.59-4.72-19.62,2.23-20.71,6.36-1,11.56,5.4,15.61,14.02,1.92,4.08,3.58,8.65,4.99,13.18,3.34,10.74,5.25,21.2,5.74,24.05Z"/><path class="cls-11" d="M134.79,471.94s-5.74,4.03-13.46,8.68c0,0,0,0-.01,0-14.83,8.95-36.91,20.18-39.22,9.38-2.02-9.41,13.79-17.04,27.64-21.84,8.74-3.02,16.7-4.92,18.91-5.43,.18,.39,.37,.78,.57,1.15,1.3,2.51,2.87,4.85,4.65,6.95,.09,.1,.18,.21,.26,.31,.19,.22,.38,.43,.57,.64h0s.08,.14,.08,.14Z"/><path class="cls-11" d="M129.21,463.9c-1.19,.31-9.46,2.45-19.48,4.27-17.94,3.27-41.48,5.52-39.92-5.55,2.24-15.87,46.3-11.5,55.67-10.39,.48,3.66,1.58,7.22,3.16,10.51,.18,.39,.37,.78,.57,1.15Z"/><path class="cls-11" d="M158.73,415.17c-.34,.02-.69,.06-1.03,.1-.91,.1-1.79,.23-2.65,.39-2.46,.46-4.75,1.15-6.84,1.98-.29,.11-.57,.23-.86,.35-.8-3.17-3.29-13.48-4.88-24.4-2.29-15.74-2.72-32.74,6.52-31.41,6.5,.94,9.41,9.22,10.54,19.07h0c1.48,12.97-.15,28.66-.79,33.92Z"/></g><ellipse class="cls-7" cx="146.28" cy="454.87" rx="3.78" ry="1.97"/><ellipse class="cls-7" cx="185.73" cy="454.87" rx="3.78" ry="1.97"/><path class="cls-3" d="M159.52,381.25l.38-2.33s4.16,9.18,0,36.17l-1.17,.07s3.84-12.71,.79-33.92Z"/><path class="cls-3" d="M147.35,417.98l-.83,.36s-3.09-7.37-4.89-27.37l1.07,4.14s2.79,16.06,4.65,22.87Z"/><path class="cls-3" d="M194.57,384.8s-3.77,14.63-13.66,35.65c-.69-.41-1.14-.66-1.14-.66,0,0,4.26-5.44,13.5-33.33l1.3-1.67Z"/><path class="cls-3" d="M177.93,371.46l.59-1.35s-2.9,29.9-7.79,46.21l-1.44-.39s3.93-10.38,8.64-44.46Z"/><path class="cls-3" d="M133.38,415.85l-.98-1.33s1.31,3.63,5.06,9.34l.74-.62s-2.46-2.64-4.82-7.39Z"/><path class="cls-3" d="M106.56,411.8l-1.47-1.42s11.2,6.19,25.95,19.86l-.53,.84s-13.99-12.52-23.95-19.28Z"/><path class="cls-3" d="M106.45,432.24l-2.45-.8s2.9,2.75,21.85,10.29l.14-.61s-12.84-5.29-19.54-8.87Z"/><path class="cls-3" d="M116.85,451.4s6.66,.57,8.62,.76l.08,.56s-5.62-.12-10.46-1.45l1.75,.13Z"/><path class="cls-3" d="M109.4,468.23s10.54-1.56,19.81-4.33l.35,.65s-8.45,3.72-22.37,4.53l2.21-.85Z"/><path class="cls-3" d="M134.71,471.8s-7.26,3.63-13.39,8.83l-2.62,1.56s5.22-4.77,15.3-11.2c.84,.95,.72,.81,.72,.81Z"/><path class="cls-3" d="M126.65,499.11s14.35-17.29,16.04-20.91l1.16,.61s-11.54,15.54-18.29,22.32l1.09-2.02Z"/><path class="cls-3" d="M152.31,481.12s-12.88,22.58-15.15,40.07c-.77,1.37-.98,1.7-.98,1.7,0,0,2.38-19.69,15.3-41.83l.83,.07Z"/><path class="cls-3" d="M150.27,529.85s11.73-19.46,11.81-49.31c.62-.08,.47-.06,.47-.06,0,0,.84,26.56-12.12,49.93-.16-.45-.17-.57-.17-.57Z"/><path class="cls-3" d="M166.8,527.25s-6.03-16.41-5.82-28.16l-.29,1.66s-.54,6.85,5.96,27.28l.15-.79Z"/><path class="cls-3" d="M175.74,476.99s2.58,9.96,4.83,24.14l.33,.7s-1.3-11.18-4.73-25.04l-.44,.2Z"/><path class="cls-3" d="M196.26,493.25s-12.06-11.65-15.98-18.74l-.45,.31s3.95,6.87,18.16,21.02l-1.73-2.59Z"/><path class="cls-3" d="M187.57,467.35s26.63,14.38,36.36,25.91c.91,.24-6.66-9.69-35.95-26.53l-.41,.62Z"/><path class="cls-3" d="M217.61,469.59s-13.18-5.14-25.51-12.52l-.19,.69s11.46,6.93,27.4,12.83l-1.7-1Z"/><path class="cls-3" d="M193.93,446.9s30.26,2.56,44.81,10.87l1.13-.13s-15.11-8.25-45.89-11.55l-.05,.82Z"/><path class="cls-3" d="M194.71,412.9s-3.78,6.03-10,10.18c.58,.49,.35,.28,.35,.28,0,0,7.15-5.49,11.09-11.42l-1.44,.96Z"/><path class="cls-3" d="M209.01,422.24s-11.4,2.94-18.38,7.71c.22,.39,.21,.38,.21,.38,0,0,9.08-5.39,15.9-7.15l2.27-.94Z"/><path class="cls-3" d="M193.75,439.42s9.81,.62,33.44-1.74l1.34,.08s-9.59,2.04-34.68,2.53l-.1-.87Z"/><g><path class="cls-6" d="M156.84,447.44c-1.69-3.81-8.41-3.51-10.15,.11-.31,.62-1.26,.38-1.23-.31,.08-1.41,1.2-2.52,2.33-3.2,2.26-1.33,5.23-1.22,7.35,.27,1.02,.73,1.88,1.8,2.05,3.04,.03,.21-.28,.28-.35,.09h0Z"/><ellipse class="cls-6" cx="153.47" cy="447.33" rx="3.77" ry="2.33"/><circle class="cls-9" cx="150.74" cy="446.01" r="1.05"/><circle class="cls-9" cx="152.02" cy="447.72" r=".39"/></g><g><path class="cls-6" d="M172.25,447.35c.79-3.98,6.18-5.31,9.4-3.31,1.13,.68,2.25,1.79,2.33,3.2,.03,.7-.93,.93-1.23,.31-1.74-3.62-8.46-3.92-10.15-.11-.06,.2-.38,.12-.35-.09h0Z"/><ellipse class="cls-6" cx="175.98" cy="447.33" rx="3.77" ry="2.33"/><circle class="cls-9" cx="178.7" cy="446.01" r="1.05"/><circle class="cls-9" cx="177.42" cy="447.72" r=".39"/></g><path class="cls-6" d="M162.41,456.17c2.65,1.64,6.1,.86,7.68-1.87,.75-1.07,2.36,0,1.65,1.1-1.89,2.76-5.76,3.84-8.82,2.49-.56-.29-1.93-.65-1.44-1.55,.2-.31,.63-.39,.93-.17h0Z"/><path class="cls-11" d="M151.14,439.37c2.33,2.69,5.29,5.02,8.66,6.26,.65,.23,.35,1.21-.32,1.02-3.73-1.1-6.99-3.34-9.71-6.09-.85-.92,.57-2.16,1.37-1.19h0Z"/><path class="cls-11" d="M168.8,444.2c1.89-3.43,5.64-5.45,9.48-5.69,0,0,.89-.05,.89-.05,1,.07,2.79-.34,2.83,1.14,0,.69-.68,1.19-1.35,1.03-.73-.12-1.56-.27-2.31-.27-.23-.02-.55-.02-.78,0-3.08,.06-6.21,1.65-7.79,4.33-.32,.65-1.3,.18-.96-.48h0Z"/></g><g><path class="cls-8" d="M560.97,611.87c-7.06,26.91-3.85,79.89-2.09,101.87,.49,6.19,.87,9.93,.87,9.93h-11.01s-1.72-69.97,4.4-95.41c6.12-25.44,9.29-78.77,9.29-78.77l4.19-2.27,1.69-.92s1.71,31.07-7.34,65.57Z"/><path class="cls-5" d="M560.97,611.87c-7.06,26.91-3.85,79.89-2.09,101.87l-2.63,1.49s-5.19-74.45,2.23-99.32c9.62-37.44,8.85-60.76,8.14-68.69l1.69-.92s1.71,31.07-7.34,65.57Z"/><path class="cls-8" d="M551.36,657.56s-1.49-.61-3.79-1.82c-8.66-4.54-28.84-17.52-24.19-38.18,.88-3.9,2.09-6.01,3.52-6.78,8.2-4.41,23.52,34.82,23.52,34.82l.94,11.96Z"/><path class="cls-1" d="M576.69,658.05c.32-.33,.63-.66,.93-.98-.3,.35-.61,.68-.93,.98Z"/><g><path class="cls-8" d="M581.32,570.73c-6.47,5.12-14.6,6.6-14.6,6.6l.33-7.45s8.15-12.53,14.56-18.06c4.07-3.51,7.43-4.19,7.56,2.96,.13,7.41-3.48,12.51-7.84,15.95Z"/><path class="cls-5" d="M581.32,570.73c4.54-5.6,8.37-13.01,6.43-19.74-.86-2.96-6.14,.83-6.14,.83h0c4.07-3.51,7.43-4.2,7.56,2.96,.13,7.41-3.48,12.51-7.84,15.95Z"/></g><g><path class="cls-10" d="M607.19,476.91c-4.61,15.99-17.27,22.45-37.85,23.07-7.37,.22-14.7-3.91-20.11-10.3-9.7-11.44-13.27-30.08-.01-43.84,0,0,8.22-8.93,21.21-11.36,5.21-.97,11.18-.9,17.7,1.21,22.76,7.38,23.68,25.22,19.07,41.21Z"/><path class="cls-4" d="M549.23,489.68c-9.7-11.44-13.27-30.08-.01-43.84,0,0,8.22-8.93,21.21-11.36-13.7,5.96-34.73,21.06-21.19,55.2Z"/></g><g><path class="cls-11" d="M584.67,434.75h0c-.26-.06-.53-.11-.79-.17-3.45-.69-6.72-.83-9.77-.58-.34,.02-.69,.06-1.03,.1-.08-4.86-.16-20.73,1.82-34.01h0c1.83-12.2,5.4-22.22,12.33-19.53,3.61,1.4,5.42,5,6.08,9.74,1.97,14.17-6.46,38.51-8.63,44.46Z"/><path class="cls-11" d="M610.08,431.73h0c-5.07,5.16-9.35,8.94-10.32,9.79-.02,.02-.05,.05-.07,.06-1.37-1.06-2.89-2.06-4.61-2.97h0c-1.06-.57-2.18-1.11-3.39-1.6l-1.64-.98s8.9-17.83,18.61-30.73c7.32-9.72,15.1-16.65,19.88-11.06,7.3,8.53-7.44,26.28-18.44,37.5Z"/><path class="cls-11" d="M608.64,405.29c-4.18,15.91-13.48,33.33-13.48,33.33h-.09s0-.02,0-.02c-1.06-.57-2.18-1.1-3.39-1.6-1.12-.46-2.3-.91-3.55-1.31-1.17-.38-2.32-.69-3.46-.95h0c-.26-.06-.53-.11-.79-.17,.77-7.1,3.66-30.59,9.43-44.29,3.16-7.52,7.2-12.09,12.22-9.4,6.44,3.45,5.97,13.58,3.12,24.4Z"/><path class="cls-11" d="M622.11,442.01c-7.24,2.92-14,4.95-16.74,5.73-.16-.25-.32-.49-.49-.73-1.32-1.88-2.95-3.64-4.96-5.24h0s-.16-.25-.16-.25l-1.08-1.65s4.83-3.73,11.41-8.14h0c13.07-8.78,33.03-20.24,35.61-10.43,2.18,8.32-11.36,15.79-23.58,20.71Z"/><path class="cls-11" d="M660.47,444.71c-.46,6.47-8.32,9.96-17.91,11.8h0c-12.3,2.37-27.44,2.01-33.44,1.74-.03-.27-.08-.54-.12-.8-.56-3.43-1.71-6.71-3.64-9.7-.16-.25-.32-.49-.49-.73,2.6-.85,9.32-2.99,17.23-5,16.86-4.27,39.13-7.95,38.37,2.7Z"/><path class="cls-11" d="M659.73,486.75c-3.73,6.78-15.24,5.31-26.74,1.67,0,0,0,0,0,0-10.81-3.43-21.62-8.78-25.93-11.01,.05-.16,.1-.33,.15-.49,.1-.34,.19-.67,.28-1.01,.51-1.86,.93-3.75,1.26-5.63,.26-1.51,.45-3.03,.56-4.53,7.66,.92,32.87,4.35,44.81,10.87,5.13,2.8,7.81,6.17,5.62,10.15Z"/><path class="cls-11" d="M668.02,468.56c-1.52,5-6.91,7.31-13.91,8.03-15.55,1.62-39.01-4.55-45.37-6.33,.26-1.51,.45-3.03,.56-4.53,.19-2.53,.15-5.04-.18-7.48-.03-.27-.08-.54-.12-.8,5.51-.49,20.18-1.6,33.56-.94h0c14.79,.75,28,3.67,25.45,12.06Z"/><path class="cls-11" d="M650.59,510.45c-2.72,2.72-6.73,2.94-11.29,1.64-13.29-3.76-31.38-20.32-36.71-25.41,.12-.16,.23-.33,.35-.5,1.73-2.52,3.1-5.44,4.11-8.78,.05-.16,.1-.33,.15-.49,.1-.34,.19-.67,.28-1.01,3.99,1.69,15.25,6.61,25.5,12.51,0,0,0,0,0,0,12.61,7.27,23.65,16.01,17.61,22.03Z"/><path class="cls-11" d="M619.73,543.73c-8.86,2.79-17.63-10.77-23.78-23.76,0,0,0,0,0,0-5.19-10.95-8.54-21.49-8.54-21.49l3.52-2.56c.06-.03,.13-.06,.19-.09,1.62-.72,3.14-1.54,4.54-2.48h0c.4-.26,.79-.54,1.17-.82,1.82,2.18,8.55,10.35,14.81,19.57,9.04,13.31,17.11,28.8,8.1,31.64Z"/><path class="cls-11" d="M641.6,524.73c-7.03,5.68-19.64-3.09-29.97-12.64-9.24-8.53-16.66-17.68-16.66-17.68l.68-1.06h0c.4-.26,.79-.54,1.17-.82,2.22-1.63,4.14-3.57,5.77-5.84,.12-.16,.23-.33,.35-.5,6.54,3.64,27.23,15.6,36.36,25.91,4.4,4.96,6.12,9.54,2.3,12.63Z"/><path class="cls-11" d="M589.47,552.38c-3.27-.48-5.63-2.83-7.3-6.3-6.11-12.68-3.07-40.39-2.21-47.07,.18-.03,.36-.06,.55-.09,3.86-.67,7.33-1.66,10.41-3.01,.06-.03,.13-.06,.19-.09,.44,1.71,3.11,12.46,4.83,24.14,0,0,0,0,0,0,2.37,16.03,2.96,33.81-6.48,32.41Z"/><path class="cls-11" d="M582.17,546.08c-1.31,7.24-4.07,11.94-9.26,10.66-3.59-.89-5.89-3.87-7.27-8.05-4.65-14.06,1.04-41.67,2.62-48.7h0c.36,0,.72,0,1.08,0,1.68-.05,3.3-.14,4.87-.27h0c2-.16,3.9-.4,5.73-.7,.18-.03,.36-.06,.55-.09,.95,6.56,4.37,32.25,1.67,47.16Z"/><path class="cls-11" d="M567.68,499.96c-1.28,4.64-7.49,26.28-15.15,40.07-4.88,8.78-10.33,14.37-15.48,10.37-7.26-5.64-1.97-19.86,4.97-32.45,5.61-10.19,12.3-19.3,14.3-21.95,.57,.37,1.15,.72,1.74,1.04,2.89,1.61,5.97,2.62,9.09,2.88,.18,.02,.36,.03,.54,.04Z"/><path class="cls-11" d="M578.58,500.56s-4.24,35.9-12.94,48.12c-2.52,3.53-5.41,5.08-8.68,3.22-3.65-2.08-4.79-6.47-4.44-11.88,.9-13.89,11.59-34.53,14.61-40.11,.18,.02,.36,.03,.54,.04,.19,.01,.39,.02,.58,.02h0c.36,0,.72,0,1.08,0,1.68-.05,3.3-.14,4.87-.27h0l4.36,.85Z"/><path class="cls-11" d="M558.05,497.03c-1.72,2.51-8.37,12.05-16.04,20.91-9.86,11.39-21.39,21.64-26.22,14.26-5.73-8.77,9-23.16,20.88-32.73,0,0,0,0,.01,0,5.98-4.82,11.25-8.43,12.8-9.47,.19,.22,.38,.43,.57,.64h0c1.89,2.09,4,3.9,6.24,5.36,.57,.37,1.15,.72,1.74,1.04Z"/><path class="cls-11" d="M541.36,459.95c-.87,3.68-1,7.41-.52,11.05-9.46-.83-57.55-5.77-50.63-19.24,4.02-7.83,18.62-5.07,31.61-.69,8.3,2.81,15.94,6.29,19.73,8.1-.07,.26-.13,.52-.2,.78Z"/><path class="cls-11" d="M546.26,449.36c-.13,.18-.26,.36-.39,.55-2.06,2.97-3.47,6.08-4.32,9.26-.07,.26-.13,.52-.2,.78-3.49-1.42-11.39-4.72-19.54-8.87-14.37-7.31-29.56-17.24-22.93-24.09,4.8-4.96,13.94-1.8,23.03,3.64,0,0,0,0,0,0,10.25,6.13,20.45,15.16,24.33,18.73Z"/><path class="cls-11" d="M553.81,441.89c-.2,.14-.39,.29-.58,.43-2.59,1.98-4.01,3.52-4.01,3.52-1.1,1.14-2.08,2.31-2.96,3.52-.13,.18-.26,.36-.39,.55-4.05-2.86-15.08-10.87-23.95-19.28,0,0,0,0,0,0-9.44-8.96-16.42-18.39-9.93-22.56,10.24-6.58,27.86,14.52,36.76,26.61,0,0,0,.01,.01,.02,2.47,3.36,4.27,6.02,5.05,7.2Z"/><path class="cls-11" d="M563.58,436.46c-.29,.11-.57,.23-.86,.35-3.65,1.53-6.66,3.42-8.91,5.08-.2,.14-.39,.29-.58,.43-.53-.86-2.24-3.68-4.47-7.63,0,0,0-.01-.01-.02-4.19-7.4-10.2-18.77-13.74-28.76-3.75-10.59-4.72-19.62,2.23-20.71,6.36-1,11.56,5.4,15.61,14.02,1.92,4.08,3.58,8.65,4.99,13.18,3.34,10.74,5.25,21.2,5.74,24.05Z"/><path class="cls-11" d="M550.16,490.78s-5.74,4.03-13.46,8.68c0,0,0,0-.01,0-14.83,8.95-36.91,20.18-39.22,9.38-2.02-9.41,13.79-17.04,27.64-21.84,8.74-3.02,16.7-4.92,18.91-5.43,.18,.39,.37,.78,.57,1.15,1.3,2.51,2.87,4.85,4.65,6.95,.09,.1,.18,.21,.26,.31,.19,.22,.38,.43,.57,.64h0s.08,.14,.08,.14Z"/><path class="cls-11" d="M544.58,482.73c-1.19,.31-9.46,2.45-19.48,4.27-17.94,3.27-41.48,5.52-39.92-5.55,2.24-15.87,46.3-11.5,55.67-10.39,.48,3.66,1.58,7.22,3.16,10.51,.18,.39,.37,.78,.57,1.15Z"/><path class="cls-11" d="M574.1,434c-.34,.02-.69,.06-1.03,.1-.91,.1-1.79,.23-2.65,.39-2.46,.46-4.75,1.15-6.84,1.98-.29,.11-.57,.23-.86,.35-.8-3.17-3.29-13.48-4.88-24.4-2.29-15.74-2.72-32.74,6.52-31.41,6.5,.94,9.41,9.22,10.54,19.07h0c1.48,12.97-.15,28.66-.79,33.92Z"/></g><ellipse class="cls-7" cx="561.64" cy="473.71" rx="3.78" ry="1.97"/><ellipse class="cls-7" cx="601.1" cy="473.71" rx="3.78" ry="1.97"/><path class="cls-3" d="M574.89,400.08l.38-2.33s4.16,9.18,0,36.17l-1.17,.07s3.84-12.71,.79-33.92Z"/><path class="cls-3" d="M562.72,436.81l-.83,.36s-3.09-7.37-4.89-27.37l1.07,4.14s2.79,16.06,4.65,22.87Z"/><path class="cls-3" d="M609.94,403.63s-3.77,14.63-13.66,35.65c-.69-.41-1.14-.66-1.14-.66,0,0,4.26-5.44,13.5-33.33l1.3-1.67Z"/><path class="cls-3" d="M593.3,390.29l.59-1.35s-2.9,29.9-7.79,46.21l-1.44-.39s3.93-10.38,8.64-44.46Z"/><path class="cls-3" d="M548.75,434.68l-.98-1.33s1.31,3.63,5.06,9.34l.74-.62s-2.46-2.64-4.82-7.39Z"/><path class="cls-3" d="M521.93,430.63l-1.47-1.42s11.2,6.19,25.95,19.86l-.53,.84s-13.99-12.52-23.95-19.28Z"/><path class="cls-3" d="M521.82,451.07l-2.45-.8s2.9,2.75,21.85,10.29l.14-.61s-12.84-5.29-19.54-8.87Z"/><path class="cls-3" d="M532.22,470.24s6.66,.57,8.62,.76l.08,.56s-5.62-.12-10.46-1.45l1.75,.13Z"/><path class="cls-3" d="M524.77,487.07s10.54-1.56,19.81-4.33l.35,.65s-8.45,3.72-22.37,4.53l2.21-.85Z"/><path class="cls-3" d="M550.07,490.64s-7.26,3.63-13.39,8.83l-2.62,1.56s5.22-4.77,15.3-11.2c.84,.95,.72,.81,.72,.81Z"/><path class="cls-3" d="M542.02,517.94s14.35-17.29,16.04-20.91l1.16,.61s-11.54,15.54-18.29,22.32l1.09-2.02Z"/><path class="cls-3" d="M567.68,499.96s-12.88,22.58-15.15,40.07c-.77,1.37-.98,1.7-.98,1.7,0,0,2.38-19.69,15.3-41.83l.83,.07Z"/><path class="cls-3" d="M565.64,548.68s11.73-19.46,11.81-49.31c.62-.08,.47-.06,.47-.06,0,0,.84,26.56-12.12,49.93-.16-.45-.17-.57-.17-.57Z"/><path class="cls-3" d="M582.17,546.08s-6.03-16.41-5.82-28.16l-.29,1.66s-.54,6.85,5.96,27.28l.15-.79Z"/><path class="cls-3" d="M591.1,495.82s2.58,9.96,4.83,24.14l.33,.7s-1.3-11.18-4.73-25.04l-.44,.2Z"/><path class="cls-3" d="M611.63,512.09s-12.06-11.65-15.98-18.74l-.45,.31s3.95,6.87,18.16,21.02l-1.73-2.59Z"/><path class="cls-3" d="M602.94,486.18s26.63,14.38,36.36,25.91c.91,.24-6.66-9.69-35.95-26.53l-.41,.62Z"/><path class="cls-3" d="M632.98,488.42s-13.18-5.14-25.51-12.52l-.19,.69s11.46,6.93,27.4,12.83l-1.7-1Z"/><path class="cls-3" d="M609.3,465.73s30.26,2.56,44.81,10.87l1.13-.13s-15.11-8.25-45.89-11.55l-.05,.82Z"/><path class="cls-3" d="M610.08,431.73s-3.78,6.03-10,10.18c.58,.49,.35,.28,.35,.28,0,0,7.15-5.49,11.09-11.42l-1.44,.96Z"/><path class="cls-3" d="M624.37,441.08s-11.4,2.94-18.38,7.71c.22,.39,.21,.38,.21,.38,0,0,9.08-5.39,15.9-7.15l2.27-.94Z"/><path class="cls-3" d="M609.12,458.25s9.81,.62,33.44-1.74l1.34,.08s-9.59,2.04-34.68,2.53l-.1-.87Z"/><g><path class="cls-6" d="M572.21,466.27c-1.69-3.81-8.41-3.51-10.15,.11-.31,.62-1.26,.38-1.23-.31,.08-1.41,1.2-2.52,2.33-3.2,2.26-1.33,5.23-1.22,7.35,.27,1.02,.73,1.88,1.8,2.05,3.04,.03,.21-.28,.28-.35,.09h0Z"/><ellipse class="cls-6" cx="568.84" cy="466.16" rx="3.77" ry="2.33"/><circle class="cls-9" cx="566.11" cy="464.84" r="1.05"/><circle class="cls-9" cx="567.39" cy="466.55" r=".39"/></g><g><path class="cls-6" d="M587.62,466.19c.79-3.98,6.18-5.31,9.4-3.31,1.13,.68,2.25,1.79,2.33,3.2,.03,.7-.93,.93-1.23,.31-1.74-3.62-8.46-3.92-10.15-.11-.06,.2-.38,.12-.35-.09h0Z"/><ellipse class="cls-6" cx="591.35" cy="466.16" rx="3.77" ry="2.33"/><circle class="cls-9" cx="594.07" cy="464.84" r="1.05"/><circle class="cls-9" cx="592.79" cy="466.55" r=".39"/></g><path class="cls-6" d="M577.78,475c2.65,1.64,6.1,.86,7.68-1.87,.75-1.07,2.36,0,1.65,1.1-1.89,2.76-5.76,3.84-8.82,2.49-.56-.29-1.93-.65-1.44-1.55,.2-.31,.63-.39,.93-.17h0Z"/><path class="cls-11" d="M566.51,458.2c2.33,2.69,5.29,5.02,8.66,6.26,.65,.23,.35,1.21-.32,1.02-3.73-1.1-6.99-3.34-9.71-6.09-.85-.92,.57-2.16,1.37-1.19h0Z"/><path class="cls-11" d="M584.17,463.03c1.89-3.43,5.64-5.45,9.48-5.69,0,0,.89-.05,.89-.05,1,.07,2.79-.34,2.83,1.14,0,.69-.68,1.19-1.35,1.03-.73-.12-1.56-.27-2.31-.27-.23-.02-.55-.02-.78,0-3.08,.06-6.21,1.65-7.79,4.33-.32,.65-1.3,.18-.96-.48h0Z"/></g><g><path class="cls-8" d="M350.82,483.74c-14.74,56.17-8.03,166.74-4.37,212.63,1.03,12.93,1.82,20.73,1.82,20.73h-22.98s-3.58-146.04,9.19-199.15c12.77-53.1,19.4-164.42,19.4-164.42l8.74-4.73,3.52-1.91s3.57,64.85-15.32,136.85Z"/><path class="cls-5" d="M350.82,483.74c-14.74,56.17-8.03,166.74-4.37,212.63l-5.48,3.11s-10.83-155.4,4.65-207.31c20.07-78.15,18.48-126.83,17-143.37l3.52-1.91s3.57,64.85-15.32,136.85Z"/><path class="cls-8" d="M330.77,579.09s-3.12-1.27-7.92-3.79c-18.08-9.47-60.19-36.56-50.49-79.7,1.83-8.14,4.36-12.54,7.35-14.15,17.12-9.21,49.09,72.68,49.09,72.68l1.96,24.96Z"/><path class="cls-1" d="M383.63,580.12c.66-.69,1.31-1.38,1.94-2.05-.63,.74-1.28,1.42-1.94,2.05Z"/><g><path class="cls-8" d="M393.29,397.86c-13.51,10.68-30.48,13.77-30.48,13.77l.69-15.56s17.01-26.16,30.38-37.69c8.5-7.32,15.52-8.75,15.77,6.19,.26,15.47-7.26,26.1-16.36,33.3Z"/><path class="cls-5" d="M393.29,397.86c9.48-11.68,17.47-27.16,13.41-41.2-1.79-6.18-12.82,1.72-12.82,1.72h0c8.5-7.33,15.52-8.76,15.77,6.18,.26,15.47-7.26,26.1-16.36,33.3Z"/></g><g><path class="cls-10" d="M447.29,202.04c-9.62,33.38-36.04,46.86-79,48.15-15.39,.46-30.68-8.17-41.98-21.49-20.25-23.87-27.7-62.79-.03-91.5,0,0,17.16-18.63,44.26-23.71,10.87-2.03,23.34-1.88,36.95,2.53,47.51,15.41,49.43,52.64,39.8,86.02Z"/><path class="cls-4" d="M326.31,228.7c-20.25-23.87-27.7-62.79-.03-91.5,0,0,17.16-18.63,44.26-23.71-28.6,12.45-72.48,43.95-44.23,115.21Z"/></g><g><path class="cls-11" d="M400.27,114.04h-.01c-.55-.12-1.1-.24-1.65-.35-7.2-1.44-14.02-1.73-20.39-1.22-.72,.05-1.44,.12-2.15,.2-.17-10.15-.34-43.26,3.8-70.98h0c3.81-25.47,11.27-46.38,25.73-40.77,7.53,2.92,11.32,10.43,12.69,20.32,4.12,29.58-13.49,80.37-18.02,92.8Z"/><path class="cls-11" d="M453.31,107.74h-.01c-10.58,10.78-19.51,18.66-21.55,20.43-.05,.05-.1,.1-.14,.13-2.85-2.22-6.04-4.3-9.62-6.2h-.02c-2.22-1.19-4.56-2.31-7.07-3.35l-3.43-2.05s18.58-37.21,38.84-64.14c15.28-20.29,31.51-34.76,41.49-23.09,15.23,17.81-15.52,54.86-38.49,78.27Z"/><path class="cls-11" d="M450.31,52.56c-8.72,33.2-28.13,69.57-28.13,69.57l-.19-.03h-.02c-2.22-1.19-4.56-2.31-7.07-3.35-2.34-.97-4.81-1.89-7.41-2.73-2.45-.79-4.85-1.45-7.22-1.98h-.01c-.55-.12-1.1-.24-1.65-.35,1.61-14.82,7.64-63.85,19.68-92.45,6.6-15.69,15.02-25.24,25.5-19.61,13.44,7.21,12.46,28.34,6.52,50.93Z"/><path class="cls-11" d="M478.42,129.2c-15.11,6.1-29.23,10.33-34.95,11.97-.33-.52-.67-1.03-1.02-1.53-2.75-3.93-6.16-7.6-10.35-10.94h-.01s-.34-.53-.34-.53l-2.26-3.44s10.09-7.78,23.81-16.98h.01c27.28-18.32,68.94-42.24,74.32-21.78,4.56,17.36-23.72,32.96-49.21,43.23Z"/><path class="cls-11" d="M558.5,134.83c-.97,13.5-17.37,20.79-37.38,24.62h-.02c-25.68,4.94-57.27,4.2-69.79,3.64-.07-.56-.16-1.12-.25-1.68-1.16-7.16-3.56-14-7.59-20.24-.33-.52-.67-1.03-1.02-1.53,5.42-1.78,19.45-6.24,35.97-10.44,35.2-8.92,81.68-16.6,80.08,5.63Z"/><path class="cls-11" d="M556.94,222.57c-7.78,14.15-31.81,11.08-55.82,3.49-.01,0-.02-.01-.02-.01-22.57-7.16-45.12-18.32-54.12-22.98,.11-.34,.21-.68,.31-1.03,.2-.7,.4-1.4,.59-2.11,1.06-3.89,1.95-7.82,2.63-11.76,.54-3.16,.94-6.32,1.17-9.46,15.98,1.91,68.6,9.07,93.53,22.68,10.7,5.85,16.3,12.87,11.73,21.18Z"/><path class="cls-11" d="M574.25,184.62c-3.17,10.43-14.43,15.25-29.04,16.77-32.46,3.39-81.42-9.49-94.7-13.22,.54-3.16,.94-6.32,1.17-9.46,.4-5.29,.32-10.53-.37-15.62-.07-.56-.16-1.12-.25-1.68,11.51-1.02,42.13-3.35,70.04-1.96h.02c30.88,1.56,58.45,7.67,53.13,25.17Z"/><path class="cls-11" d="M537.88,272.05c-5.68,5.67-14.04,6.13-23.57,3.43-27.74-7.85-65.49-42.41-76.63-53.04,.25-.34,.49-.69,.73-1.05,3.61-5.27,6.47-11.35,8.57-18.32,.11-.34,.21-.68,.31-1.03,.2-.7,.4-1.4,.59-2.11,8.32,3.52,31.84,13.8,53.22,26.12,0,0,.01,.01,.02,.01,26.31,15.17,49.36,33.42,36.76,45.99Z"/><path class="cls-11" d="M473.45,341.51c-18.49,5.82-36.79-22.48-49.64-49.6,0-.01-.01-.01-.01-.01-10.84-22.85-17.83-44.86-17.83-44.86l7.34-5.35c.13-.06,.27-.12,.4-.18,3.39-1.51,6.55-3.22,9.48-5.17h.01c.84-.55,1.64-1.12,2.44-1.72,3.8,4.55,17.84,21.6,30.91,40.84,18.87,27.78,35.72,60.12,16.9,66.05Z"/><path class="cls-11" d="M519.11,301.84c-14.68,11.85-40.99-6.46-62.56-26.38-19.28-17.81-34.77-36.9-34.77-36.9l1.41-2.22h.01c.84-.55,1.64-1.12,2.44-1.72,4.64-3.41,8.65-7.46,12.04-12.18,.25-.34,.49-.69,.73-1.05,13.64,7.6,56.83,32.57,75.9,54.09,9.18,10.36,12.78,19.92,4.8,26.36Z"/><path class="cls-11" d="M410.29,359.56c-6.83-1.01-11.75-5.91-15.23-13.15-12.76-26.47-6.4-84.3-4.62-98.24,.38-.06,.76-.12,1.14-.19,8.05-1.4,15.3-3.47,21.73-6.29,.13-.06,.27-.12,.4-.18,.91,3.56,6.49,26,10.09,50.39,0,0,.01,0,.01,.01,4.94,33.45,6.17,70.56-13.52,67.65Z"/><path class="cls-11" d="M395.06,346.41c-2.74,15.12-8.49,24.92-19.32,22.24-7.5-1.85-12.29-8.08-15.18-16.81-9.7-29.35,2.18-86.98,5.47-101.65h.01c.75,.02,1.5,.02,2.25,0,3.5-.1,6.89-.29,10.17-.56h.01c4.17-.34,8.15-.83,11.97-1.46,.38-.06,.76-.12,1.14-.19,1.99,13.69,9.12,67.32,3.48,98.43Z"/><path class="cls-11" d="M364.81,250.14c-2.68,9.68-15.64,54.85-31.62,83.63-10.18,18.32-21.57,29.99-32.32,21.64-15.16-11.78-4.11-41.45,10.38-67.73,11.71-21.26,25.68-40.29,29.84-45.82,1.19,.78,2.4,1.51,3.63,2.18,6.04,3.35,12.46,5.47,18.97,6.02,.37,.04,.75,.06,1.12,.08Z"/><path class="cls-11" d="M387.57,251.41s-8.84,74.94-27.01,100.43c-5.26,7.37-11.29,10.61-18.11,6.73-7.62-4.34-9.99-13.51-9.26-24.8,1.88-29,24.2-72.07,30.5-83.71,.37,.04,.75,.06,1.12,.08,.4,.03,.81,.04,1.22,.05h.01c.75,.02,1.5,.02,2.25,0,3.5-.1,6.89-.29,10.17-.56h.01l9.1,1.78Z"/><path class="cls-11" d="M344.72,244.04c-3.58,5.23-17.48,25.16-33.47,43.64-20.59,23.78-44.65,45.16-54.72,29.76-11.96-18.31,18.79-48.33,43.59-68.32,0-.01,.02-.01,.03-.02,12.49-10.07,23.48-17.59,26.71-19.76,.4,.46,.79,.9,1.2,1.34h0c3.95,4.36,8.34,8.14,13.02,11.18,1.19,.78,2.4,1.51,3.63,2.18Z"/><path class="cls-11" d="M309.88,166.63c-1.82,7.68-2.09,15.47-1.08,23.07-19.75-1.74-120.11-12.05-105.67-40.16,8.39-16.34,38.86-10.59,65.97-1.43,17.33,5.86,33.28,13.12,41.19,16.9-.15,.54-.28,1.08-.41,1.62Z"/><path class="cls-11" d="M320.11,144.54c-.28,.38-.55,.76-.81,1.15-4.31,6.19-7.25,12.7-9.01,19.32-.15,.54-.28,1.08-.41,1.62-7.29-2.96-23.77-9.86-40.78-18.52-30-15.25-61.7-35.99-47.87-50.28,10.02-10.35,29.09-3.76,48.07,7.6,0,0,.01,.01,.02,.01,21.4,12.8,42.69,31.65,50.79,39.1Z"/><path class="cls-11" d="M335.87,128.95c-.42,.3-.82,.6-1.21,.9-5.41,4.13-8.38,7.35-8.38,7.35-2.29,2.38-4.35,4.83-6.17,7.34-.28,.38-.55,.76-.81,1.15-8.45-5.97-31.47-22.68-49.98-40.25,0,0-.02-.01-.02-.01-19.7-18.71-34.28-38.38-20.72-47.09,21.37-13.74,58.14,30.31,76.72,55.55,.01,0,.02,.03,.03,.04,5.16,7.02,8.92,12.57,10.54,15.02Z"/><path class="cls-11" d="M356.26,117.61c-.6,.23-1.2,.48-1.79,.73-7.62,3.19-13.91,7.14-18.6,10.6-.42,.3-.82,.6-1.21,.9-1.1-1.8-4.67-7.68-9.33-15.92-.01-.01-.02-.03-.03-.04-8.74-15.44-21.29-39.18-28.68-60.02-7.83-22.1-9.85-40.95,4.65-43.22,13.27-2.08,24.13,11.27,32.59,29.26,4.01,8.51,7.48,18.06,10.42,27.51,6.98,22.41,10.96,44.24,11.98,50.2Z"/><path class="cls-11" d="M328.24,230.98s-11.99,8.41-28.09,18.12c-.01,.01-.02,.01-.03,.02-30.96,18.68-77.03,42.12-81.86,19.58-4.22-19.65,28.78-35.57,57.69-45.59,18.24-6.31,34.85-10.27,39.46-11.33,.37,.81,.77,1.62,1.19,2.41,2.71,5.24,5.99,10.13,9.71,14.51,.18,.21,.37,.43,.55,.64,.4,.46,.79,.9,1.2,1.34h0s.17,.3,.17,.3Z"/><path class="cls-11" d="M316.6,214.19c-2.49,.65-19.75,5.12-40.65,8.92-37.45,6.82-86.57,11.53-83.32-11.59,4.67-33.13,96.63-24,116.19-21.68,1.01,7.63,3.3,15.06,6.59,21.94,.37,.81,.77,1.62,1.19,2.41Z"/><path class="cls-11" d="M378.22,112.47c-.72,.05-1.44,.12-2.15,.2-1.89,.21-3.73,.48-5.53,.82-5.13,.96-9.91,2.41-14.28,4.13-.6,.23-1.2,.48-1.79,.73-1.66-6.61-6.87-28.14-10.19-50.93-4.79-32.85-5.68-68.34,13.6-65.55,13.57,1.96,19.65,19.24,21.99,39.81h0c3.08,27.08-.32,59.83-1.65,70.79Z"/></g><ellipse class="cls-7" cx="352.22" cy="195.35" rx="7.88" ry="4.12"/><ellipse class="cls-7" cx="434.57" cy="195.35" rx="7.88" ry="4.12"/><path class="cls-3" d="M379.87,41.68l.78-4.86s8.69,19.17,0,75.5l-2.43,.15s8.02-26.53,1.65-70.79Z"/><path class="cls-3" d="M354.47,118.35l-1.73,.75s-6.46-15.39-10.21-57.13l2.23,8.64s5.82,33.52,9.71,47.74Z"/><path class="cls-3" d="M453.02,49.08s-7.86,30.55-28.51,74.42c-1.44-.85-2.38-1.37-2.38-1.37,0,0,8.9-11.35,28.18-69.57l2.71-3.48Z"/><path class="cls-3" d="M418.29,21.24l1.24-2.82s-6.05,62.4-16.26,96.44l-3-.82s8.21-21.66,18.03-92.8Z"/><path class="cls-3" d="M325.3,113.89l-2.05-2.77s2.74,7.57,10.57,19.49l1.55-1.29s-5.14-5.51-10.07-15.43Z"/><path class="cls-3" d="M269.32,105.44l-3.07-2.96s23.38,12.92,54.17,41.45l-1.11,1.76s-29.2-26.14-49.98-40.25Z"/><path class="cls-3" d="M269.1,148.11l-5.11-1.67s6.06,5.74,45.6,21.47l.29-1.28s-26.81-11.04-40.78-18.52Z"/><path class="cls-3" d="M290.81,188.11s13.9,1.19,18,1.59l.16,1.17s-11.73-.26-21.82-3.03l3.66,.26Z"/><path class="cls-3" d="M275.25,223.24s22-3.25,41.35-9.05l.73,1.36s-17.63,7.77-46.7,9.46l4.62-1.77Z"/><path class="cls-3" d="M328.07,230.69s-15.15,7.58-27.95,18.43l-5.48,3.26s10.89-9.96,31.93-23.37c1.76,1.99,1.5,1.68,1.5,1.68Z"/><path class="cls-3" d="M311.25,287.68s29.95-36.08,33.47-43.64l2.43,1.27s-24.08,32.43-38.18,46.59l2.28-4.22Z"/><path class="cls-3" d="M364.81,250.14s-26.88,47.13-31.62,83.63c-1.61,2.86-2.04,3.55-2.04,3.55,0,0,4.96-41.09,31.93-87.31l1.73,.14Z"/><path class="cls-3" d="M360.56,351.84s24.49-40.61,24.66-102.91c1.28-.17,.98-.13,.98-.13,0,0,1.76,55.45-25.29,104.22-.33-.94-.35-1.18-.35-1.18Z"/><path class="cls-3" d="M395.06,346.41s-12.59-34.25-12.15-58.77l-.61,3.47s-1.12,14.3,12.45,56.94l.31-1.64Z"/><path class="cls-3" d="M413.71,241.51s5.39,20.79,10.09,50.39l.7,1.45s-2.72-23.34-9.87-52.26l-.92,.42Z"/><path class="cls-3" d="M456.55,275.46s-25.18-24.33-33.36-39.12l-.95,.65s8.24,14.33,37.91,43.87l-3.6-5.4Z"/><path class="cls-3" d="M438.41,221.39s55.59,30.02,75.9,54.09c1.89,.5-13.9-20.23-75.04-55.38l-.86,1.29Z"/><path class="cls-3" d="M501.12,226.06s-27.52-10.72-53.24-26.13l-.4,1.44s23.92,14.47,57.19,26.77l-3.55-2.08Z"/><path class="cls-3" d="M451.68,178.71s63.16,5.35,93.53,22.68l2.36-.28s-31.55-17.22-95.78-24.12l-.11,1.72Z"/><path class="cls-3" d="M453.31,107.74s-7.89,12.58-20.87,21.24c1.21,1.02,.73,.59,.73,.59,0,0,14.93-11.47,23.15-23.83l-3.01,2Z"/><path class="cls-3" d="M483.15,127.24s-23.8,6.14-38.36,16.09c.46,.81,.45,.79,.45,.79,0,0,18.95-11.25,33.18-14.93l4.73-1.96Z"/><path class="cls-3" d="M451.31,163.09s20.48,1.29,69.79-3.64l2.81,.16s-20.03,4.26-72.38,5.29l-.22-1.81Z"/><g><path class="cls-6" d="M374.28,179.83c-3.52-7.95-17.55-7.33-21.19,.23-.65,1.3-2.64,.79-2.57-.65,.17-2.94,2.5-5.26,4.86-6.69,4.72-2.77,10.92-2.54,15.34,.57,2.13,1.53,3.92,3.77,4.28,6.35,.07,.43-.58,.59-.73,.18h0Z"/><ellipse class="cls-6" cx="367.23" cy="179.6" rx="7.88" ry="4.86"/><circle class="cls-9" cx="361.55" cy="176.85" r="2.19"/><circle class="cls-9" cx="364.22" cy="180.42" r=".82"/></g><g><path class="cls-6" d="M406.44,179.65c1.65-8.31,12.9-11.08,19.62-6.92,2.36,1.42,4.7,3.74,4.86,6.69,.05,1.46-1.93,1.93-2.57,.65-3.64-7.56-17.66-8.19-21.19-.23-.13,.42-.8,.25-.73-.18h0Z"/><ellipse class="cls-6" cx="414.22" cy="179.6" rx="7.88" ry="4.86"/><circle class="cls-9" cx="419.9" cy="176.85" r="2.19"/><circle class="cls-9" cx="417.23" cy="180.42" r=".82"/></g><path class="cls-6" d="M385.9,198.05c5.53,3.43,12.73,1.8,16.02-3.9,1.57-2.24,4.92-.01,3.44,2.3-3.95,5.76-12.03,8.03-18.41,5.19-1.18-.61-4.03-1.36-3-3.23,.42-.66,1.32-.82,1.95-.36h0Z"/><path class="cls-11" d="M362.38,162.99c4.86,5.61,11.05,10.48,18.08,13.07,1.37,.47,.73,2.52-.67,2.12-7.78-2.3-14.58-6.97-20.27-12.7-1.76-1.92,1.19-4.51,2.86-2.49h0Z"/><path class="cls-11" d="M399.23,173.06c3.95-7.16,11.77-11.37,19.78-11.88,0,0,1.85-.11,1.85-.11,2.09,.15,5.83-.72,5.9,2.37-.01,1.45-1.42,2.48-2.81,2.15-1.53-.25-3.26-.56-4.83-.57-.49-.04-1.14-.05-1.62,0-6.42,.11-12.96,3.45-16.26,9.05-.66,1.36-2.7,.37-2.01-1h0Z"/></g><g><path class="cls-12" d="M544.06,755.09h-.03c-190.19,.86-544.03-3.82-544.03-3.82l25.06-8.18s71.18-43.56,101.25-41.51c30.1,2.04,36.11-12.94,49.12-8.18,13.05,4.76,55.16-2.56,63.17-.94,4.59,.92,22.38-2.58,40.99-3.84,13.9-.98,28.27-.7,37.84,3.6,22.41,10.04,45.71-9.32,62.14-4.06,16.43,5.24,112.67,1.16,114.68,9.32,2,8.18,89.23,28.59,103.25,38.13,14.05,9.52,56.16,6.8,64.17,15.65,2.18,2.42-46.15,3.5-117.62,3.82Z"/><path class="cls-2" d="M544.06,755.09h-.03s-27.83-16.07-31.6-17.09c-3.77-1.02-48.5-34.71-56.01-28.59-7.51,6.12-77.07-10.98-82.34-15.87s-36.08,14.34-48.5,4.9c-12.4-9.44-45.97-9.8-45.97-9.8,13.9-.98,28.27-.7,37.84,3.6,22.41,10.04,45.71-9.32,62.14-4.06,16.43,5.24,112.67,1.16,114.68,9.32,2,8.18,89.23,28.59,103.25,38.13,14.05,9.52,56.16,6.8,64.17,15.65,2.18,2.42-46.15,3.5-117.62,3.82Z"/></g></g></g></svg>