<?xml version="1.0" encoding="UTF-8"?><svg id="Calque_2" xmlns="http://www.w3.org/2000/svg" viewBox="0 0 661.75 752.66"><defs><style>.cls-1{fill:#82d16f;}.cls-2{fill:#593636;}.cls-3{fill:#efedee;}.cls-4{opacity:.05;}.cls-5{fill:#ffc82c;}.cls-6{fill:#63c6a0;}.cls-7{fill:#302826;}.cls-8{fill:#ff6e79;opacity:.35;}.cls-9{fill:#5aba97;}.cls-10{fill:#efefef;}.cls-11{fill:#ffd655;}.cls-12{fill:#ff2c50;}.cls-13{fill:#4f2f2f;}.cls-14{fill:#f5ffff;}</style></defs><g id="Calque_1-2"><g><g><path class="cls-9" d="M144.34,586.21c-7.96,30.34-4.34,90.07-2.36,114.86,.56,6.98,.98,11.2,.98,11.2h-12.41s-1.93-78.89,4.96-107.58c6.9-28.68,12.39-103.61,12.39-103.61l4.72-2.56,1.9-1.03s.02,49.82-10.19,88.72Z"/><path class="cls-6" d="M144.34,586.21c-7.96,30.34-4.34,90.07-2.36,114.86l-2.96,1.68s-5.85-83.95,2.51-111.99c10.84-42.22,11.89-79.92,11.09-88.86l1.9-1.03s.02,46.44-10.19,85.34Z"/><path class="cls-9" d="M142.41,571.64s-1-.41-2.55-1.22c-5.82-3.05-19.39-11.78-16.26-25.67,.59-2.62,1.4-4.04,2.37-4.56,5.51-2.97,15.81,23.41,15.81,23.41l.63,8.04Z"/><path class="cls-1" d="M162.06,638.28c.36-.37,.71-.75,1.05-1.11-.34,.4-.69,.77-1.05,1.11Z"/><g><path class="cls-9" d="M163.14,570.68c-8.21,4.03-17.36,3.72-17.36,3.72l2.1-8s11.77-11.66,20-16.15c5.23-2.85,9.04-2.8,7.49,4.98-1.6,8.06-6.7,12.73-12.23,15.44Z"/><path class="cls-6" d="M163.14,570.68c6.23-5,12.12-12.13,11.59-19.87-.23-3.41-6.85-.55-6.85-.55h0c5.23-2.85,9.04-2.8,7.49,4.98-1.6,8.06-6.7,12.73-12.23,15.44Z"/></g><g><g><path class="cls-14" d="M240.7,432.66c-1.43,1.67-4.36,2.79-3.36,3.6,1.03,.81,2.96,3.43,2.03,4.05-.91,.6-3.55,3.15-3.65,3.15s-1.03,1.6-1.03,1.6c0,0,4.39,5.3,2.86,5.8-1.53,.52-1.03,3.67-1.84,4.08-.81,.41,.95,4.36-1.72,3.65-2.67-.72,1.41,3.1-.1,4.01-1.53,.91-2.19,6.34-3.27,5.63-.54-.37-1.7-.12-2.7,.21s-1.6,1.39-1.38,2.43c.47,2.28,1.02,6.01-.35,6.16-.82,.1-1.86,.12-2.79,.1-1.25-.02-2.25,1.04-2.13,2.29,.18,1.93,.21,4.29-.7,4-.85-.25-2.31-.22-3.43-.13-.9,.07-1.66,.69-1.89,1.57-.37,1.42-.96,3.45-1.45,3.74-.45,.28-2.05,.6-3.28,.82-.88,.16-1.57,.84-1.72,1.72-.17,1.01-.47,2.28-1.01,2.87-1,1.07-1.29,1.45-2.6,1.98-.68,.28-2.06,.26-3.2,.18-.96-.07-1.85,.53-2.14,1.45-.15,.47-.37,.87-.67,.87-.76,0-3.72,3.89-4.79,3.51-1.07-.38-5.63,2.12-6.39,1.6-.76-.52-2-.91-2-.91,0,0-5.89,6.94-8.01,6.03-1.51-.64-3.77-1.7-4.98-2.27-.54-.26-1.15-.27-1.7-.04-2.42,1.02-9.12,3.78-8.95,3.12,.19-.81-1.74,.1-2.74-.41-1.03-.5-1.84-2.34-1.84-2.34,0,0-5.68,3.65-7.11,2.84-1.41-.81-2.53-2.74-3.34-2.84-.81-.1-1.36-1.65-1.36-1.65,0,0-1.48,2.15-3.1,1.65-1.65-.5-3.96,.81-5.08,0s-3.24-2.34-3.77-3.55c-.5-1.22-4.15,1.79-5.27,.26-1.12-1.53-8.11-2.6-6.75-4.51,1.36-1.93,.86-3.27,.86-3.27,0,0-3.39,2.03-5.41,.93-1.16-.63-1.61-2.42-1.8-3.87-.13-1.06-1.06-1.83-2.13-1.81-.85,.02-1.76-.08-2.32-.48-1.26-.91-4.46-1.62-4.82-2.53-.36-.91-2.29-3.05-2.1-4.05,.21-1.03-.36-4.65-.36-4.65,0,0-1.55,2.65-3.08,1.26-1.04-.92-1.46-4.24-1.62-6.27-.07-.9-.73-1.65-1.61-1.86-.56-.14-1.01-.34-.8-.62,.45-.6-.12-3.22-.12-3.22,0,0-6.2,2.46-6.13-1.34,.07-3.82-2.22-6.87-1.74-6.87s.21-4.41,.84-5.01c.6-.62,.52-2.15,.52-2.15,0,0-5.7-2.19-5.18-3.72,.34-.98,1.72-3.85,2.67-5.77,.49-1,.12-2.19-.84-2.75-1.37-.8-3.02-2-2.9-3.08,.15-1.12,1.78-2.61,3.04-3.61,.83-.66,1.04-1.82,.49-2.73-.92-1.54-2.26-3.67-2.82-4.11-1.88-1.47,.55-5.3,.74-5.74,.84-1.98,3.96-2.29,3.96-2.29,0,0-2.88-2.47-2.21-3.9,.54-1.15,.58-5.63,1.73-5.63s2.77-1.11,2.77-1.11c0,0-2.17-3.6-1.51-4.12,.69-.55,1.14-6.54,2.74-7.16,1.6-.6,4.6-2.39,5.07-2.54,.45-.17,.91-1.01,.91-1.01l.25-1.88s-8.31-7.05-2.68-7.98c2.23-.36,4.13-.43,5.61-.39s2.48-1.37,2.03-2.74c-.47-1.45-.56-2.97,.73-3.54,1.74-.77,4.75-1.02,6.71-1.09,1.05-.04,1.91-.86,2-1.91,.19-2.29,.75-5.85,2.41-5.85,.91,0,1.95,.23,2.89,.51,1.36,.41,2.71-.67,2.7-2.09-.04-2.92,.27-6.63,2.17-5.58,1.04,.58,2.12,1.24,3.09,1.87,1.37,.88,3.19-.07,3.23-1.7,.09-3.11,.63-6.7,2.81-5.35,3.65,2.29,5.8,1.69,7.16,2.29,.59,.27,1.35,.71,2.02,1.12,.92,.57,2.11,.36,2.77-.5,1.25-1.61,3.27-3.79,4.65-3.2,1.05,.45,1.98,1.2,2.65,1.84s1.77,.74,2.57,.21c1.67-1.1,4.38-2.72,5.89-2.82,1.19-.09,2.2,.83,2.91,1.74s1.87,1.09,2.8,.51c2.12-1.32,5.54-3.18,6.76-2.25,.84,.62,1.68,1.69,2.34,2.67,.54,.79,1.56,1.2,2.43,.81,.51-.23,1.27-.34,2.38-.14,2.22,.41,3.71,1.96,4.46,2.96,.42,.55,1.09,.84,1.78,.8,1.91-.12,5.55-.32,6.86-.11,1.84,.31,4.72-.45,4.89,.62,.07,.51,.2,1.8,.33,3.03,.14,1.34,1.47,2.2,2.75,1.79,1.8-.58,3.91-1.11,3.91-.41,0,1.22-.45,3.96,1.07,3.96s7.16-.62,6.08,.31c-1.07,.91-1.86,4.87,.14,4.87s5.34-.62,5.03,1.07c-.22,1.16-.12,3.88-.04,5.42,.04,.69,.4,1.31,.99,1.68,1.18,.74,3.11,2.01,3.32,2.64,.15,.45,.3,1.18,.42,1.82,.13,.73,.63,1.34,1.34,1.6,1.78,.65,5.05,2.06,5.33,3.67,.23,1.35-.06,3.19-.32,4.42-.17,.82,.15,1.65,.83,2.14,1.58,1.15,4.22,3.28,4.05,4.62-.08,.72-.32,1.36-.59,1.9-.45,.89-.29,1.96,.46,2.61,1.11,.96,2.45,2.31,2.49,3.17,.04,.88-.46,2.37-.89,3.46-.29,.76-.16,1.62,.41,2.2,.79,.81,1.89,2.23,2.6,4.43,.43,1.3,.31,2.28-.04,2.99-.5,1.04,.09,2.26,1.15,2.72,.72,.31,1.25,.69,1.14,1.09-.31,1.12,2.03,1,.62,2.7Z"/><path class="cls-3" d="M151.18,510.28c-.31,0-.57-.05-.79-.17-.76-.44-1.41-1.13-1.98-1.74-.37-.4-.94-1.01-1.16-1.03-.65-.08-1.13-.66-1.43-1.19-.66,.68-1.82,1.57-3.13,1.17-.65-.2-1.49-.04-2.32,.1-1.05,.19-2.14,.38-2.92-.18-1.64-1.18-3.39-2.52-3.94-3.75-.25-.05-1,.24-1.46,.41-1.3,.48-2.91,1.08-3.76-.07-.36-.49-1.77-1.03-3.02-1.52-1.95-.75-3.63-1.41-3.95-2.47-.08-.27-.11-.69,.22-1.15,.63-.89,.81-1.62,.84-2.1-1.18,.57-3.54,1.46-5.22,.56-1.1-.6-1.8-2.04-2.07-4.27-.1-.76-.76-1.33-1.55-1.33-.01,0-.02,0-.03,0-1.17,.02-2.07-.17-2.65-.58-.48-.34-1.33-.68-2.15-1.01-1.37-.55-2.56-1.02-2.85-1.76-.1-.26-.43-.75-.75-1.21-.76-1.12-1.54-2.27-1.38-3.14,.11-.51-.02-1.95-.18-3.22-.4,.39-.91,.76-1.51,.86-.56,.08-1.11-.09-1.58-.52-.9-.8-1.51-3.03-1.8-6.63-.05-.66-.53-1.22-1.2-1.38-.73-.18-1.09-.41-1.22-.76-.08-.23-.04-.49,.11-.7,.13-.22,.08-1.17-.09-2.18-1.21,.4-3.84,1.08-5.29,.08-.46-.32-.99-.95-.97-2.15,.05-2.39-.91-4.52-1.42-5.66-.36-.8-.51-1.13-.29-1.46,.04-.06,.09-.12,.15-.16,.07-.31,.12-1.08,.16-1.67,.12-1.93,.23-2.89,.66-3.3,.23-.24,.34-.87,.36-1.39-1.99-.8-5.74-2.55-5.15-4.27,.34-.98,1.65-3.72,2.69-5.83,.37-.74,.1-1.62-.63-2.04-2.26-1.32-3.29-2.5-3.16-3.61,.13-1.04,1.22-2.37,3.24-3.97,.62-.49,.77-1.35,.37-2.03-1.95-3.24-2.55-3.85-2.69-3.96-2.01-1.57-.17-5,.44-6.12,.06-.12,.11-.21,.13-.25,.62-1.46,2.23-2.12,3.32-2.41-.92-.95-2.15-2.55-1.56-3.8,.16-.34,.29-1.2,.42-2.02,.31-2.02,.6-3.92,1.8-3.92,.61,0,1.48-.42,2.04-.74-2.09-3.59-1.35-4.17-1.11-4.37,.14-.18,.39-1.3,.58-2.12,.62-2.71,1.14-4.66,2.3-5.11,.94-.35,2.42-1.15,3.51-1.74,.92-.5,1.37-.74,1.61-.81,.09-.04,.36-.35,.55-.67l.2-1.48c-1.11-.98-5.18-4.74-4.53-7.09,.24-.87,1.03-1.42,2.33-1.64,1.96-.32,3.89-.45,5.71-.4,.52,.02,.96-.21,1.27-.61,.31-.41,.4-.93,.24-1.42-.87-2.71,.08-3.78,1.03-4.2,1.78-.79,4.74-1.05,6.91-1.14,.78-.03,1.42-.64,1.48-1.42,.35-4.21,1.34-6.34,2.94-6.34,.85,0,1.87,.18,3.04,.54,.46,.14,.95,.05,1.35-.25,.41-.31,.66-.8,.65-1.32-.07-5.23,1.04-5.9,1.41-6.12,.32-.19,.85-.34,1.56,.06,.93,.52,1.98,1.15,3.12,1.89,.48,.31,1.07,.33,1.57,.07,.5-.27,.81-.76,.83-1.32,.09-3.44,.67-5.4,1.75-5.98,.39-.21,1.03-.34,1.89,.19,2.37,1.48,4.09,1.71,5.34,1.87,.66,.09,1.23,.16,1.75,.38,.53,.24,1.23,.63,2.09,1.16,.68,.42,1.57,.26,2.06-.37,2.18-2.8,3.95-3.94,5.28-3.37,.93,.4,1.88,1.05,2.82,1.95,.51,.49,1.29,.55,1.9,.15,1.94-1.27,4.57-2.81,6.15-2.9,1.14-.09,2.31,.59,3.37,1.94,.51,.65,1.41,.82,2.09,.39,5.66-3.53,6.95-2.54,7.37-2.22,.75,.55,1.58,1.5,2.46,2.79,.42,.62,1.18,.88,1.76,.62,.7-.31,1.6-.37,2.7-.18,2.45,.45,4.05,2.18,4.8,3.17,.3,.4,.79,.62,1.31,.58,2.02-.13,5.62-.31,6.98-.1,.64,.11,1.43,.08,2.2,.04,1.52-.06,2.96-.12,3.14,1.03,.06,.44,.17,1.44,.33,3.06,.05,.47,.3,.89,.7,1.15,.4,.26,.89,.33,1.35,.18,3.08-.99,3.89-.84,4.28-.55,.22,.16,.33,.39,.33,.66,0,.21-.01,.47-.03,.76-.04,.81-.11,2.15,.27,2.56,.05,.05,.12,.11,.29,.11,.36,0,.97-.04,1.67-.08,3.72-.22,4.76-.19,5.03,.47,.06,.14,.14,.5-.27,.86-.61,.52-1.15,2.5-.79,3.47,.14,.39,.37,.45,.58,.45,.4,0,.85-.03,1.33-.05,1.67-.09,3.26-.18,3.95,.6,.19,.21,.39,.59,.28,1.16-.15,.81-.16,2.74-.03,5.29,.03,.52,.29,.97,.74,1.25,3.24,2.02,3.46,2.67,3.55,2.92,.14,.39,.28,1.03,.44,1.9,.1,.55,.47,.99,.99,1.18,2.42,.89,5.37,2.32,5.67,4.08,.24,1.42-.04,3.3-.32,4.63-.13,.61,.11,1.23,.61,1.6,2.98,2.17,4.42,3.89,4.27,5.12-.08,.68-.29,1.38-.65,2.07-.35,.69-.22,1.48,.33,1.96,2.62,2.28,2.67,3.24,2.68,3.55,.04,.78-.27,2.02-.92,3.68-.22,.58-.11,1.21,.3,1.62,.84,.85,1.99,2.35,2.72,4.64,.42,1.28,.4,2.42-.07,3.39-.2,.41-.13,.79-.04,1.03,.16,.42,.49,.77,.92,.95,.42,.18,1.71,.74,1.44,1.73-.02,.08-.03,.11,.33,.4,.3,.23,.7,.55,.76,1.09,.05,.43-.14,.88-.57,1.41h0c-.6,.71-1.42,1.3-2.15,1.82-.44,.32-1.09,.79-1.26,1.04,.9,.74,2.5,2.73,2.45,3.99-.02,.39-.19,.71-.49,.91-.53,.35-1.78,1.48-2.6,2.24-.57,.52-.85,.77-1.01,.89-.12,.16-.42,.64-.7,1.12,1.2,1.48,3.39,4.41,3.02,5.69-.09,.32-.32,.56-.65,.67-.58,.2-.75,1.21-.9,2.1-.14,.85-.27,1.58-.78,1.9-.04,.18,0,.65,.01,.97,.07,.94,.14,2-.54,2.56-.39,.33-.95,.39-1.66,.21-.07-.02-.13-.03-.18-.04,.09,.23,.26,.55,.38,.79,.54,1.06,1.28,2.51,.13,3.2-.58,.34-1.13,1.9-1.54,3.04-.56,1.57-.91,2.47-1.55,2.69-.25,.08-.52,.05-.76-.11-.08-.05-.54-.28-2.24,.27-.74,.24-1.18,1.02-1.02,1.81,1.02,4.97,.3,5.96,.06,6.28-.22,.3-.53,.49-.88,.52-.72,.09-1.68,.12-2.86,.1-.44-.01-.87,.17-1.18,.5-.3,.33-.45,.75-.41,1.2,.3,3.29-.12,4.08-.52,4.41-.25,.2-.56,.26-.88,.16-.6-.18-1.75-.22-3.23-.11-.67,.05-1.24,.52-1.41,1.16-.93,3.61-1.45,3.92-1.7,4.07-.15,.09-.62,.39-3.46,.89-.66,.12-1.17,.63-1.28,1.28-.25,1.53-.64,2.59-1.15,3.15l-.22,.24c-.86,.93-1.25,1.35-2.58,1.88-.63,.26-1.79,.33-3.43,.22-.73-.05-1.38,.39-1.59,1.08-.25,.8-.64,1.22-1.14,1.24-.25,.1-.96,.79-1.49,1.3-1.62,1.56-2.66,2.49-3.54,2.18-.37-.12-1.96,.48-2.91,.84-1.97,.74-3.02,1.1-3.61,.7-.46-.31-1.13-.58-1.53-.72-1.43,1.65-6.18,6.85-8.4,5.9-1.51-.64-3.78-1.7-5-2.28-.4-.19-.85-.2-1.26-.03-8.8,3.7-9.17,3.38-9.49,3.1-.09-.08-.15-.18-.18-.29-.14,0-.31,.03-.46,.04-.62,.07-1.39,.15-2.01-.15-.81-.4-1.46-1.4-1.81-2.05-1.52,.94-4.6,2.71-6.37,2.71Zm11.7-.64s0,.02,0,.03c0,0,0-.02,0-.03Zm-16.76-5.66l.35,.99c.21,.58,.64,1.26,.91,1.29,.61,.07,1.15,.64,1.82,1.37,.52,.56,1.11,1.19,1.72,1.54,.68,.39,3.94-1.15,6.55-2.82l.53-.34,.26,.58c.2,.46,.89,1.73,1.58,2.07,.33,.16,.93,.1,1.41,.05,.61-.07,1.14-.13,1.46,.24,.03,.03,.06,.07,.09,.13,.94-.21,3.68-1.2,8.28-3.14,.7-.29,1.46-.28,2.14,.05,1.21,.57,3.46,1.63,4.96,2.26,1.09,.46,4.68-2.7,7.39-5.89l.23-.27,.34,.1c.05,.02,1.29,.4,2.12,.95,.37,.06,1.74-.45,2.65-.8,1.82-.68,2.97-1.08,3.65-.84,0,0,0,0,.01,0,.41,0,1.76-1.31,2.41-1.94,1.06-1.03,1.62-1.55,2.12-1.6,.04-.05,.13-.18,.23-.49,.37-1.16,1.48-1.91,2.7-1.83,1.94,.13,2.68-.03,2.96-.15,1.1-.44,1.38-.74,2.19-1.62l.22-.23c.35-.39,.67-1.31,.88-2.59,.18-1.1,1.05-1.97,2.16-2.17,2.51-.44,3.01-.7,3.09-.75,.01-.01,.44-.4,1.21-3.42,.28-1.1,1.24-1.89,2.37-1.97,1.6-.12,2.79-.07,3.55,.13,.1-.2,.32-.95,.09-3.41-.07-.75,.18-1.49,.69-2.03,.51-.55,1.22-.85,1.99-.85,1.12,.02,2.04-.02,2.72-.1,.03,0,.07,0,.13-.09,.33-.45,.44-2.11-.25-5.43-.27-1.33,.48-2.64,1.75-3.05,1.42-.46,2.42-.54,3.03-.22,.24-.31,.59-1.29,.83-1.96,.54-1.51,1.09-3.06,2-3.61,.29-.17-.25-1.22-.54-1.78-.45-.87-.8-1.56-.38-2.07,.39-.48,1.15-.28,1.43-.21,.33,.09,.58,.09,.69,0,.25-.21,.19-1.08,.15-1.65-.06-.85-.12-1.66,.5-1.97,.1-.11,.21-.74,.28-1.16,.19-1.12,.42-2.51,1.58-2.93,.07-.59-1.33-2.86-3.07-4.95l-.24-.29,.19-.33c.82-1.41,1.07-1.76,1.28-1.84,.16-.14,.51-.46,.83-.75,.9-.82,2.14-1.95,2.73-2.34,.19-.37-1.01-2.34-2.07-3.18-.35-.28-.42-.6-.41-.81,.02-.69,.74-1.2,1.74-1.92,.67-.48,1.43-1.03,1.95-1.64,.33-.4,.33-.57,.33-.6,0-.09-.2-.24-.35-.36-.34-.27-.9-.71-.72-1.48-.05-.06-.23-.25-.82-.5-.7-.3-1.24-.88-1.5-1.57-.23-.63-.2-1.29,.08-1.88,.34-.71,.35-1.58,.01-2.59-.68-2.09-1.72-3.45-2.47-4.22-.7-.71-.91-1.8-.53-2.77,.58-1.48,.88-2.63,.85-3.24-.02-.39-.64-1.34-2.31-2.79-.92-.8-1.16-2.14-.59-3.27,.29-.58,.47-1.15,.54-1.71,.07-.57-.89-1.99-3.83-4.12-.85-.61-1.25-1.67-1.04-2.69,.37-1.75,.48-3.25,.31-4.22-.16-.94-2.07-2.18-4.98-3.25-.88-.32-1.51-1.07-1.68-2.01-.15-.8-.28-1.4-.4-1.74-.08-.21-.83-.94-3.1-2.35-.73-.46-1.2-1.25-1.24-2.11-.1-1.89-.17-4.38,.05-5.54,.03-.18-.01-.23-.03-.25-.34-.39-1.99-.3-3.08-.24-.5,.03-.96,.05-1.39,.05-.76,0-1.33-.41-1.6-1.16-.45-1.22,0-3.17,.71-4.21-.91-.05-2.65,.05-3.6,.1-.72,.04-1.35,.08-1.74,.08-.43,0-.8-.15-1.07-.44-.7-.74-.63-2.19-.57-3.36,0-.18,.02-.34,.02-.49-.29-.02-1.11,.04-3.2,.71-.77,.25-1.6,.14-2.27-.3-.67-.44-1.1-1.15-1.18-1.94-.16-1.59-.27-2.61-.33-3.02-.18-.18-1.34-.13-2.03-.1-.82,.03-1.67,.07-2.42-.06-.91-.14-3.36-.1-6.73,.11-.89,.06-1.73-.32-2.25-1.01-.65-.86-2.04-2.37-4.12-2.75-.87-.16-1.57-.12-2.06,.1-1.07,.48-2.38,.06-3.1-1-.8-1.18-1.57-2.06-2.22-2.54-.55-.42-2.45-.04-6.15,2.27-1.16,.72-2.67,.45-3.52-.64-.58-.74-1.48-1.6-2.45-1.53-1.04,.06-3.09,1.06-5.63,2.73-1.03,.68-2.36,.57-3.24-.27-.83-.79-1.69-1.39-2.49-1.74-.76-.33-2.3,.84-4.01,3.04-.83,1.07-2.33,1.34-3.49,.62-.82-.51-1.48-.87-1.96-1.09-.37-.16-.84-.22-1.45-.3-1.36-.18-3.21-.42-5.78-2.02-.51-.31-.73-.2-.8-.16-.25,.13-1.07,.89-1.18,5.06-.03,.96-.55,1.8-1.4,2.25-.86,.45-1.85,.41-2.66-.11-1.12-.72-2.15-1.34-3.06-1.85-.32-.18-.44-.1-.48-.07-.16,.09-.94,.78-.88,5.18,.01,.86-.39,1.68-1.08,2.2-.67,.51-1.52,.66-2.31,.42-1.07-.32-1.99-.49-2.73-.49-.86,0-1.6,2.1-1.87,5.35-.11,1.32-1.19,2.35-2.52,2.4-2.93,.11-5.24,.48-6.51,1.04-.79,.35-.94,1.32-.44,2.89,.26,.82,.11,1.72-.4,2.4-.52,.69-1.32,1.07-2.16,1.05-1.76-.05-3.61,.08-5.51,.39-.85,.14-1.35,.43-1.47,.86-.4,1.43,2.5,4.55,4.41,6.17l.23,.19-.31,2.27-.05,.09c-.13,.24-.6,1.04-1.2,1.26-.18,.06-.85,.42-1.43,.74-1.17,.64-2.64,1.43-3.64,1.8-.71,.28-1.31,2.92-1.63,4.34-.34,1.52-.54,2.31-.89,2.66-.03,.44,.68,2.03,1.56,3.49l.27,.44-.42,.29c-.18,.12-1.8,1.2-3.08,1.2-.3,.21-.59,2.1-.73,3-.15,.99-.28,1.84-.51,2.32-.34,.72,1.04,2.37,2.07,3.26l.95,.82-1.25,.13s-2.82,.31-3.52,1.96c-.03,.06-.09,.18-.18,.34-1.34,2.48-1.58,4.09-.73,4.76,.19,.15,.75,.59,2.95,4.26,.68,1.13,.41,2.61-.62,3.43-1.71,1.36-2.75,2.55-2.84,3.26-.05,.45,.61,1.36,2.63,2.54,1.22,.71,1.67,2.2,1.05,3.45-1.45,2.95-2.39,4.98-2.64,5.71-.16,.47,1.97,1.93,4.86,3.04l.33,.13,.02,.35c0,.18,.06,1.78-.68,2.55-.2,.28-.29,1.79-.34,2.61-.07,1.15-.12,1.89-.34,2.26,.06,.14,.15,.34,.23,.52,.55,1.22,1.56,3.49,1.51,6.13-.01,.59,.15,1,.51,1.24,1.14,.79,3.98-.06,4.88-.42l.59-.23,.14,.62c.16,.75,.47,2.44,.19,3.33,.08,.03,.19,.06,.34,.1,1.11,.28,1.92,1.22,2.01,2.34,.25,3.12,.79,5.33,1.44,5.91,.31,.28,.54,.28,.69,.26,.67-.1,1.37-1.06,1.56-1.39l.76-1.3,.23,1.48c.06,.38,.58,3.76,.35,4.85-.08,.42,.73,1.61,1.21,2.32,.38,.56,.71,1.05,.86,1.42,.13,.31,1.46,.84,2.25,1.15,.88,.35,1.8,.71,2.38,1.13,.37,.26,1.09,.4,2,.38,.02,0,.04,0,.05,0,1.34,0,2.46,.97,2.62,2.28,.23,1.82,.77,3.05,1.52,3.46,1.43,.78,4.01-.4,4.88-.92l.56-.33,.23,.61c.02,.07,.58,1.63-.92,3.77-.09,.13-.08,.19-.07,.22,.17,.56,2.06,1.29,3.31,1.77,1.59,.62,2.96,1.15,3.51,1.89,.36,.5,1.56,.05,2.51-.3,1.12-.42,2.39-.89,2.82,.15,.46,1.06,2.54,2.57,3.55,3.3,.44,.32,1.27,.18,2.14,.02,.9-.16,1.93-.34,2.82-.07,1.21,.38,2.49-1.42,2.5-1.44l.6-.86Zm53.06-4.94h0Zm-108.72-93.97s0,0,0,0c0,0,0,0,0,0Z"/></g><path class="cls-3" d="M119.75,396.91c-1.21,0-2.41-.47-3.31-1.37l-2.03-2.03c-.21-.21-.21-.55,0-.76s.55-.21,.76,0l2.03,2.03c1.08,1.08,2.73,1.36,4.11,.7l1.62-.78c.27-.13,.59-.02,.72,.25,.13,.27,.02,.59-.25,.72l-1.62,.78c-.65,.31-1.34,.46-2.03,.46Z"/><path class="cls-3" d="M115.7,422.68c-.06,0-.13,0-.19,0l-2.87-.12c-.3-.01-.53-.26-.52-.56s.27-.55,.56-.52l2.87,.12c1.52,.07,2.93-.85,3.49-2.27l.66-1.67c.11-.28,.42-.41,.7-.3,.28,.11,.41,.42,.3,.7l-.66,1.67c-.71,1.79-2.44,2.96-4.35,2.96Z"/><path class="cls-3" d="M106.3,458.75c-.21,0-.4-.12-.49-.32-.12-.27,0-.59,.27-.72l2.62-1.19c1.39-.63,2.23-2.08,2.09-3.6l-.17-1.79c-.03-.3,.19-.56,.49-.59,.3-.03,.56,.19,.59,.49l.17,1.79c.18,1.98-.91,3.86-2.72,4.68l-2.62,1.19c-.07,.03-.15,.05-.22,.05Z"/><path class="cls-3" d="M144.44,380.58c-.26,0-.48-.18-.53-.44-.05-.29,.14-.58,.43-.63l2.83-.53c1.5-.28,2.67-1.48,2.9-2.99l.27-1.77c.04-.29,.32-.5,.62-.45,.29,.04,.5,.32,.45,.62l-.27,1.77c-.3,1.96-1.81,3.53-3.77,3.89l-2.83,.53s-.07,0-.1,0Z"/><path class="cls-3" d="M179.06,369.33c-.71,0-1.42-.16-2.08-.49l-2.58-1.28c-.27-.13-.38-.46-.24-.72,.13-.27,.46-.38,.72-.24l2.58,1.28c1.37,.68,3.02,.42,4.11-.65l1.29-1.25c.21-.21,.56-.2,.76,0s.2,.56,0,.76l-1.29,1.25c-.89,.87-2.07,1.33-3.27,1.33Z"/><path class="cls-3" d="M194.48,390.6c-1.35,0-2.67-.59-3.58-1.66l-1.86-2.2c-.19-.23-.16-.57,.06-.76,.23-.19,.57-.16,.76,.06l1.86,2.2c.99,1.17,2.61,1.58,4.03,1.04l1.68-.64c.28-.11,.59,.03,.7,.31,.11,.28-.03,.59-.31,.7l-1.68,.64c-.54,.21-1.11,.31-1.67,.31Z"/><path class="cls-3" d="M219.09,419.29c-.09,0-.19-.02-.28-.08l-1.54-.92c-1.7-1.02-2.58-3.02-2.17-4.96l.58-2.82c.06-.29,.35-.48,.64-.42,.29,.06,.48,.35,.42,.64l-.58,2.82c-.31,1.5,.36,3.03,1.67,3.81l1.54,.92c.26,.15,.34,.49,.19,.74-.1,.17-.28,.26-.46,.26Z"/><path class="cls-3" d="M196.47,432.87c-1.22,0-2.41-.47-3.31-1.37l-2.03-2.03c-.21-.21-.21-.55,0-.76s.55-.21,.76,0l2.03,2.03c1.08,1.08,2.73,1.36,4.11,.7l1.62-.78c.27-.13,.59-.02,.72,.25,.13,.27,.02,.59-.25,.72l-1.62,.78c-.65,.31-1.34,.46-2.03,.46Z"/><path class="cls-3" d="M163.62,409.5c-.57,0-1.15-.1-1.7-.32l-2.68-1.05c-.28-.11-.42-.42-.31-.7,.11-.28,.42-.42,.7-.31l2.68,1.05c1.42,.56,3.05,.15,4.04-1.01l1.17-1.36c.19-.23,.54-.25,.76-.06,.23,.19,.25,.53,.06,.76l-1.17,1.36c-.91,1.06-2.22,1.63-3.56,1.63Z"/><path class="cls-3" d="M136.58,438.46c-.12,0-.25-.04-.35-.13-.23-.19-.26-.53-.06-.76l1.86-2.19c.99-1.16,1.13-2.83,.36-4.15l-.91-1.55c-.15-.26-.06-.59,.19-.74,.26-.15,.59-.06,.74,.19l.91,1.55c1.01,1.71,.82,3.88-.47,5.4l-1.86,2.19c-.11,.13-.26,.19-.41,.19Z"/><path class="cls-3" d="M158.36,447.69c-1.84,0-3.52-1.08-4.28-2.78l-1.17-2.63c-.12-.27,0-.59,.27-.71,.27-.12,.59,0,.71,.27l1.17,2.63c.62,1.4,2.05,2.26,3.58,2.13l1.79-.15c.3-.02,.56,.2,.58,.49,.02,.3-.2,.56-.49,.58l-1.79,.15c-.13,.01-.25,.02-.38,.02Z"/><path class="cls-3" d="M152.06,478.69c-.2,0-.39-.11-.49-.31l-.78-1.62c-.86-1.79-.5-3.93,.91-5.34l2.03-2.03c.21-.21,.55-.21,.76,0s.21,.55,0,.76l-2.03,2.03c-1.08,1.08-1.36,2.73-.7,4.11l.78,1.62c.13,.27,.02,.59-.25,.72-.08,.04-.16,.05-.23,.05Z"/><path class="cls-3" d="M149.19,501.42c-.06,0-.13-.01-.19-.03-.28-.1-.42-.41-.32-.69l.62-1.68c.68-1.84,2.43-3.07,4.39-3.07,.02,0,.05,0,.07,0l2.88,.05c.3,0,.54,.25,.53,.55s-.24,.52-.55,.53l-2.88-.05c-1.54-.04-2.91,.92-3.43,2.36l-.62,1.68c-.08,.22-.29,.35-.51,.35Z"/><path class="cls-3" d="M191.39,494.37c-.27,0-.5-.2-.53-.47l-.23-1.78c-.26-1.97,.76-3.89,2.53-4.79l2.57-1.29c.26-.13,.59-.03,.73,.24,.13,.27,.03,.59-.24,.73l-2.57,1.29c-1.36,.69-2.15,2.17-1.95,3.68l.23,1.78c.04,.3-.17,.57-.47,.61-.02,0-.05,0-.07,0Z"/><path class="cls-3" d="M184.5,465.4c-.83,0-1.66-.22-2.41-.67l-2.47-1.48c-.26-.15-.34-.49-.19-.74,.15-.26,.48-.34,.74-.19l2.47,1.48c1.31,.79,2.98,.66,4.15-.32l1.38-1.15c.23-.19,.57-.16,.76,.07,.19,.23,.16,.57-.07,.76l-1.38,1.15c-.86,.72-1.92,1.08-2.99,1.08Z"/><path class="cls-3" d="M215.6,452.29c-1.95,0-3.7-1.22-4.38-3.05l-1-2.7c-.1-.28,.04-.59,.32-.69,.28-.1,.59,.04,.69,.32l1,2.7c.53,1.43,1.93,2.38,3.44,2.34l1.79-.03h.01c.29,0,.53,.24,.54,.53,0,.3-.23,.54-.53,.55l-1.79,.03s-.06,0-.09,0Z"/><path class="cls-3" d="M212.29,472.54s-.09,0-.13-.02c-.29-.07-.47-.37-.39-.65l.43-1.74c.48-1.93,2.13-3.35,4.11-3.53l2.86-.27c.29-.03,.56,.19,.59,.49,.03,.3-.19,.56-.49,.59l-2.86,.27c-1.52,.14-2.79,1.23-3.16,2.71l-.43,1.74c-.06,.25-.28,.41-.52,.41Z"/><path class="cls-3" d="M121.63,478.69c-.12,0-.25-.04-.35-.13-.23-.19-.26-.53-.06-.76l1.16-1.37c1.28-1.52,3.39-2.05,5.25-1.34l2.68,1.03c.28,.11,.42,.42,.31,.7-.11,.28-.42,.42-.7,.31l-2.68-1.03c-1.43-.55-3.05-.13-4.04,1.03l-1.16,1.37c-.11,.13-.26,.19-.41,.19Z"/><path class="cls-3" d="M95.75,435.16s-.04,0-.06,0c-.3-.03-.51-.3-.48-.6l.31-2.86c.16-1.52-.65-2.98-2.03-3.64l-1.62-.77c-.27-.13-.38-.45-.26-.72,.13-.27,.45-.38,.72-.26l1.62,.77c1.79,.85,2.85,2.75,2.64,4.73l-.31,2.86c-.03,.28-.26,.48-.54,.48Z"/></g><path class="cls-7" d="M159.82,445.27c1.1,.51,2.72,.47,3.98,.51,1.28-.04,2.89,.03,4.02-.5,.26-.21,.63-.06,.55,.29-1.1,2.79-8.05,2.8-9.17,.02-.1-.28,.24-.55,.49-.4l.13,.07h0Z"/><g><circle class="cls-7" cx="149.6" cy="434.29" r="4.9"/><circle class="cls-10" cx="146.06" cy="431.77" r="1.36"/><circle class="cls-10" cx="147.72" cy="433.99" r=".51"/></g><g><circle class="cls-7" cx="177.9" cy="434.29" r="4.9"/><circle class="cls-10" cx="181.44" cy="431.77" r="1.36"/><circle class="cls-10" cx="179.77" cy="433.99" r=".51"/></g><ellipse class="cls-8" cx="142.62" cy="446.05" rx="3.66" ry="1.91"/><ellipse class="cls-8" cx="186.46" cy="446.05" rx="3.66" ry="1.91"/></g><g><path class="cls-9" d="M558.06,617.71c-7.96,30.34-4.34,90.07-2.36,114.86,.56,6.98,.98,11.2,.98,11.2h-12.41s-1.93-78.89,4.96-107.58c6.9-28.68,12.39-103.61,12.39-103.61l4.72-2.56,1.9-1.03s.02,49.82-10.19,88.72Z"/><path class="cls-6" d="M558.06,617.71c-7.96,30.34-4.34,90.07-2.36,114.86l-2.96,1.68s-5.85-83.95,2.51-111.99c10.84-42.22,11.89-79.92,11.09-88.86l1.9-1.03s.02,46.44-10.19,85.34Z"/><path class="cls-9" d="M556.13,603.13s-1-.41-2.55-1.22c-5.82-3.05-19.39-11.78-16.26-25.67,.59-2.62,1.4-4.04,2.37-4.56,5.51-2.97,15.81,23.41,15.81,23.41l.63,8.04Z"/><path class="cls-1" d="M575.78,669.77c.36-.37,.71-.75,1.05-1.11-.34,.4-.69,.77-1.05,1.11Z"/><g><path class="cls-9" d="M576.86,602.17c-8.21,4.03-17.36,3.72-17.36,3.72l2.1-8s11.77-11.66,20-16.15c5.23-2.85,9.04-2.8,7.49,4.98-1.6,8.06-6.7,12.73-12.23,15.44Z"/><path class="cls-6" d="M576.86,602.17c6.23-5,12.12-12.13,11.59-19.87-.23-3.41-6.85-.55-6.85-.55h0c5.23-2.85,9.04-2.8,7.49,4.98-1.6,8.06-6.7,12.73-12.23,15.44Z"/></g><g><g><path class="cls-14" d="M654.42,464.16c-1.43,1.67-4.36,2.79-3.36,3.6,1.03,.81,2.96,3.43,2.03,4.05-.91,.6-3.55,3.15-3.65,3.15s-1.03,1.6-1.03,1.6c0,0,4.39,5.3,2.86,5.8-1.53,.52-1.03,3.67-1.84,4.08-.81,.41,.95,4.36-1.72,3.65-2.67-.72,1.41,3.1-.1,4.01-1.53,.91-2.19,6.34-3.27,5.63-.54-.37-1.7-.12-2.7,.21s-1.6,1.39-1.38,2.43c.47,2.28,1.02,6.01-.35,6.16-.82,.1-1.86,.12-2.79,.1-1.25-.02-2.25,1.04-2.13,2.29,.18,1.93,.21,4.29-.7,4-.85-.25-2.31-.22-3.43-.13-.9,.07-1.66,.69-1.89,1.57-.37,1.42-.96,3.45-1.45,3.74-.45,.28-2.05,.6-3.28,.82-.88,.16-1.57,.84-1.72,1.72-.17,1.01-.47,2.28-1.01,2.87-1,1.07-1.29,1.45-2.6,1.98-.68,.28-2.06,.26-3.2,.18-.96-.07-1.85,.53-2.14,1.45-.15,.47-.37,.87-.67,.87-.76,0-3.72,3.89-4.79,3.51-1.07-.38-5.63,2.12-6.39,1.6-.76-.52-2-.91-2-.91,0,0-5.89,6.94-8.01,6.03-1.51-.64-3.77-1.7-4.98-2.27-.54-.26-1.15-.27-1.7-.04-2.42,1.02-9.12,3.78-8.95,3.12,.19-.81-1.74,.1-2.74-.41-1.03-.5-1.84-2.34-1.84-2.34,0,0-5.68,3.65-7.11,2.84-1.41-.81-2.53-2.74-3.34-2.84-.81-.1-1.36-1.65-1.36-1.65,0,0-1.48,2.15-3.1,1.65-1.65-.5-3.96,.81-5.08,0s-3.24-2.34-3.77-3.55c-.5-1.22-4.15,1.79-5.27,.26-1.12-1.53-8.11-2.6-6.75-4.51,1.36-1.93,.86-3.27,.86-3.27,0,0-3.39,2.03-5.41,.93-1.16-.63-1.61-2.42-1.8-3.87-.13-1.06-1.06-1.83-2.13-1.81-.85,.02-1.76-.08-2.32-.48-1.26-.91-4.46-1.62-4.82-2.53-.36-.91-2.29-3.05-2.1-4.05,.21-1.03-.36-4.65-.36-4.65,0,0-1.55,2.65-3.08,1.26-1.04-.92-1.46-4.24-1.62-6.27-.07-.9-.73-1.65-1.61-1.86-.56-.14-1.01-.34-.8-.62,.45-.6-.12-3.22-.12-3.22,0,0-6.2,2.46-6.13-1.34,.07-3.82-2.22-6.87-1.74-6.87s.21-4.41,.84-5.01c.6-.62,.52-2.15,.52-2.15,0,0-5.7-2.19-5.18-3.72,.34-.98,1.72-3.85,2.67-5.77,.49-1,.12-2.19-.84-2.75-1.37-.8-3.02-2-2.9-3.08,.15-1.12,1.78-2.61,3.04-3.61,.83-.66,1.04-1.82,.49-2.73-.92-1.54-2.26-3.67-2.82-4.11-1.88-1.47,.55-5.3,.74-5.74,.84-1.98,3.96-2.29,3.96-2.29,0,0-2.88-2.47-2.21-3.9,.54-1.15,.58-5.63,1.73-5.63s2.77-1.11,2.77-1.11c0,0-2.17-3.6-1.51-4.12,.69-.55,1.14-6.54,2.74-7.16,1.6-.6,4.6-2.39,5.07-2.54,.45-.17,.91-1.01,.91-1.01l.25-1.88s-8.31-7.05-2.68-7.98c2.23-.36,4.13-.43,5.61-.39s2.48-1.37,2.03-2.74c-.47-1.45-.56-2.97,.73-3.54,1.74-.77,4.75-1.02,6.71-1.09,1.05-.04,1.91-.86,2-1.91,.19-2.29,.75-5.85,2.41-5.85,.91,0,1.95,.23,2.89,.51,1.36,.41,2.71-.67,2.7-2.09-.04-2.92,.27-6.63,2.17-5.58,1.04,.58,2.12,1.24,3.09,1.87,1.37,.88,3.19-.07,3.23-1.7,.09-3.11,.63-6.7,2.81-5.35,3.65,2.29,5.8,1.69,7.16,2.29,.59,.27,1.35,.71,2.02,1.12,.92,.57,2.11,.36,2.77-.5,1.25-1.61,3.27-3.79,4.65-3.2,1.05,.45,1.98,1.2,2.65,1.84,.7,.67,1.77,.74,2.57,.21,1.67-1.1,4.38-2.72,5.89-2.82,1.19-.09,2.2,.83,2.91,1.74s1.87,1.09,2.8,.51c2.12-1.32,5.54-3.18,6.76-2.25,.84,.62,1.68,1.69,2.34,2.67,.54,.79,1.56,1.2,2.43,.81,.51-.23,1.27-.34,2.38-.14,2.22,.41,3.71,1.96,4.46,2.96,.42,.55,1.09,.84,1.78,.8,1.91-.12,5.55-.32,6.86-.11,1.84,.31,4.72-.45,4.89,.62,.07,.51,.2,1.8,.33,3.03,.14,1.34,1.47,2.2,2.75,1.79,1.8-.58,3.91-1.11,3.91-.41,0,1.22-.45,3.96,1.07,3.96s7.16-.62,6.08,.31c-1.07,.91-1.86,4.87,.14,4.87s5.34-.62,5.03,1.07c-.22,1.16-.12,3.88-.04,5.42,.04,.69,.4,1.31,.99,1.68,1.18,.74,3.11,2.01,3.32,2.64,.15,.45,.3,1.18,.42,1.82,.13,.73,.63,1.34,1.34,1.6,1.78,.65,5.05,2.06,5.33,3.67,.23,1.35-.06,3.19-.32,4.42-.17,.82,.15,1.65,.83,2.14,1.58,1.15,4.22,3.28,4.05,4.62-.08,.72-.32,1.36-.59,1.9-.45,.89-.29,1.96,.46,2.61,1.11,.96,2.45,2.31,2.49,3.17,.04,.88-.46,2.37-.89,3.46-.29,.76-.16,1.62,.41,2.2,.79,.81,1.89,2.23,2.6,4.43,.43,1.3,.31,2.28-.04,2.99-.5,1.04,.09,2.26,1.15,2.72,.72,.31,1.25,.69,1.14,1.09-.31,1.12,2.03,1,.62,2.7Z"/><path class="cls-3" d="M564.9,541.77c-.31,0-.57-.05-.79-.17-.76-.44-1.41-1.13-1.98-1.74-.37-.4-.94-1.01-1.16-1.03-.65-.08-1.13-.66-1.43-1.19-.66,.68-1.82,1.57-3.13,1.17-.65-.2-1.49-.04-2.32,.1-1.05,.19-2.14,.38-2.92-.18-1.64-1.18-3.39-2.52-3.94-3.75-.25-.05-1,.24-1.46,.41-1.3,.48-2.91,1.08-3.76-.07-.36-.49-1.77-1.03-3.02-1.52-1.95-.75-3.63-1.41-3.95-2.47-.08-.27-.11-.69,.22-1.15,.63-.89,.81-1.62,.84-2.1-1.18,.57-3.54,1.46-5.22,.56-1.1-.6-1.8-2.04-2.07-4.27-.1-.76-.76-1.33-1.55-1.33-.01,0-.02,0-.03,0-1.17,.02-2.07-.17-2.65-.58-.48-.34-1.33-.68-2.15-1.01-1.37-.55-2.56-1.02-2.85-1.76-.1-.26-.43-.75-.75-1.21-.76-1.12-1.54-2.27-1.38-3.14,.11-.51-.02-1.95-.18-3.22-.4,.39-.91,.76-1.51,.86-.56,.08-1.11-.09-1.58-.52-.9-.8-1.51-3.03-1.8-6.63-.05-.66-.53-1.22-1.2-1.38-.73-.18-1.09-.41-1.22-.76-.08-.23-.04-.49,.11-.7,.13-.22,.08-1.17-.09-2.18-1.21,.4-3.84,1.08-5.29,.08-.46-.32-.99-.95-.97-2.15,.05-2.39-.91-4.52-1.42-5.66-.36-.8-.51-1.13-.29-1.46,.04-.06,.09-.12,.15-.16,.07-.31,.12-1.08,.16-1.67,.12-1.93,.23-2.89,.66-3.3,.23-.24,.34-.87,.36-1.39-1.99-.8-5.74-2.55-5.15-4.27,.34-.98,1.65-3.72,2.69-5.83,.37-.74,.1-1.62-.63-2.04-2.26-1.32-3.29-2.5-3.16-3.61,.13-1.04,1.22-2.37,3.24-3.97,.62-.49,.77-1.35,.37-2.03-1.95-3.24-2.55-3.85-2.69-3.96-2.01-1.57-.17-5,.44-6.12,.06-.12,.11-.21,.13-.25,.62-1.46,2.23-2.12,3.32-2.41-.92-.95-2.15-2.55-1.56-3.8,.16-.34,.29-1.2,.42-2.02,.31-2.02,.6-3.92,1.8-3.92,.61,0,1.48-.42,2.04-.74-2.09-3.59-1.35-4.17-1.11-4.37,.14-.18,.39-1.3,.58-2.12,.62-2.71,1.14-4.66,2.3-5.11,.94-.35,2.42-1.15,3.51-1.74,.92-.5,1.37-.74,1.61-.81,.09-.04,.36-.35,.55-.67l.2-1.48c-1.11-.98-5.18-4.74-4.53-7.09,.24-.87,1.03-1.42,2.33-1.64,1.96-.32,3.89-.45,5.71-.4,.52,.02,.96-.21,1.27-.61,.31-.41,.4-.93,.24-1.42-.87-2.71,.08-3.78,1.03-4.2,1.78-.79,4.74-1.05,6.91-1.14,.78-.03,1.42-.64,1.48-1.42,.35-4.21,1.34-6.34,2.94-6.34,.85,0,1.87,.18,3.04,.54,.46,.14,.95,.05,1.35-.25,.41-.31,.66-.8,.65-1.32-.07-5.23,1.04-5.9,1.41-6.12,.32-.19,.85-.34,1.56,.06,.93,.52,1.98,1.15,3.12,1.89,.48,.31,1.07,.33,1.57,.07,.5-.27,.81-.76,.83-1.32,.09-3.44,.67-5.4,1.75-5.98,.39-.21,1.03-.34,1.89,.19,2.37,1.48,4.09,1.71,5.34,1.87,.66,.09,1.23,.16,1.75,.38,.53,.24,1.23,.63,2.09,1.16,.68,.42,1.57,.26,2.06-.37,2.18-2.8,3.95-3.94,5.28-3.37,.93,.4,1.88,1.05,2.82,1.95,.51,.49,1.29,.55,1.9,.15,1.94-1.27,4.57-2.81,6.15-2.9,1.14-.09,2.31,.59,3.37,1.94,.51,.65,1.41,.82,2.09,.39,5.66-3.53,6.95-2.54,7.37-2.22,.75,.55,1.58,1.5,2.46,2.79,.42,.62,1.18,.88,1.76,.62,.7-.31,1.6-.37,2.7-.18,2.45,.45,4.05,2.18,4.8,3.17,.3,.4,.79,.62,1.31,.58,2.02-.13,5.62-.31,6.98-.1,.64,.11,1.43,.08,2.2,.04,1.52-.06,2.96-.12,3.14,1.03,.06,.44,.17,1.44,.33,3.06,.05,.47,.3,.89,.7,1.15,.4,.26,.89,.33,1.35,.18,3.08-.99,3.89-.84,4.28-.55,.22,.16,.33,.39,.33,.66,0,.21-.01,.47-.03,.76-.04,.81-.11,2.15,.27,2.56,.05,.05,.12,.11,.29,.11,.36,0,.97-.04,1.67-.08,3.72-.22,4.76-.19,5.03,.47,.06,.14,.14,.5-.27,.86-.61,.52-1.15,2.5-.79,3.47,.14,.39,.37,.45,.58,.45,.4,0,.85-.03,1.33-.05,1.67-.09,3.26-.18,3.95,.6,.19,.21,.39,.59,.28,1.16-.15,.81-.16,2.74-.03,5.29,.03,.52,.29,.97,.74,1.25,3.24,2.02,3.46,2.67,3.55,2.92,.14,.39,.28,1.03,.44,1.9,.1,.55,.47,.99,.99,1.18,2.42,.89,5.37,2.32,5.67,4.08,.24,1.42-.04,3.3-.32,4.63-.13,.61,.11,1.23,.61,1.6,2.98,2.17,4.42,3.89,4.27,5.12-.08,.68-.29,1.38-.65,2.07-.35,.69-.22,1.48,.33,1.96,2.62,2.28,2.67,3.24,2.68,3.55,.04,.78-.27,2.02-.92,3.68-.22,.58-.11,1.21,.3,1.62,.84,.85,1.99,2.35,2.72,4.64,.42,1.28,.4,2.42-.07,3.39-.2,.41-.13,.79-.04,1.03,.16,.42,.49,.77,.92,.95,.42,.18,1.71,.74,1.44,1.73-.02,.08-.03,.11,.33,.4,.3,.23,.7,.55,.76,1.09,.05,.43-.14,.88-.57,1.41h0c-.6,.71-1.42,1.3-2.15,1.82-.44,.32-1.09,.79-1.26,1.04,.9,.74,2.5,2.73,2.45,3.99-.02,.39-.19,.71-.49,.91-.53,.35-1.78,1.48-2.6,2.24-.57,.52-.85,.77-1.01,.89-.12,.16-.42,.64-.7,1.12,1.2,1.48,3.39,4.41,3.02,5.69-.09,.32-.32,.56-.65,.67-.58,.2-.75,1.21-.9,2.1-.14,.85-.27,1.58-.78,1.9-.04,.18,0,.65,.01,.97,.07,.94,.14,2-.54,2.56-.39,.33-.95,.39-1.66,.21-.07-.02-.13-.03-.18-.04,.09,.23,.26,.55,.38,.79,.54,1.06,1.28,2.51,.13,3.2-.58,.34-1.13,1.9-1.54,3.04-.56,1.57-.91,2.47-1.55,2.69-.25,.08-.52,.05-.76-.11-.08-.05-.54-.28-2.24,.27-.74,.24-1.18,1.02-1.02,1.81,1.02,4.97,.3,5.96,.06,6.28-.22,.3-.53,.49-.88,.52-.72,.09-1.68,.12-2.86,.1-.44-.01-.87,.17-1.18,.5-.3,.33-.45,.75-.41,1.2,.3,3.29-.12,4.08-.52,4.41-.25,.2-.56,.26-.88,.16-.6-.18-1.75-.22-3.23-.11-.67,.05-1.24,.52-1.41,1.16-.93,3.61-1.45,3.92-1.7,4.07-.15,.09-.62,.39-3.46,.89-.66,.12-1.17,.63-1.28,1.28-.25,1.53-.64,2.59-1.15,3.15l-.22,.24c-.86,.93-1.25,1.35-2.58,1.88-.63,.26-1.79,.33-3.43,.22-.73-.05-1.38,.39-1.59,1.08-.25,.8-.64,1.22-1.14,1.24-.25,.1-.96,.79-1.49,1.3-1.62,1.56-2.66,2.49-3.54,2.18-.37-.12-1.96,.48-2.91,.84-1.97,.74-3.02,1.1-3.61,.7-.46-.31-1.13-.58-1.53-.72-1.43,1.65-6.18,6.85-8.4,5.9-1.51-.64-3.78-1.7-5-2.28-.4-.19-.85-.2-1.26-.03-8.8,3.7-9.17,3.38-9.49,3.1-.09-.08-.15-.18-.18-.29-.14,0-.31,.03-.46,.04-.62,.07-1.39,.15-2.01-.15-.81-.4-1.46-1.4-1.81-2.05-1.52,.94-4.6,2.71-6.37,2.71Zm11.7-.64s0,.02,0,.03c0,0,0-.02,0-.03Zm-16.76-5.66l.35,.99c.21,.58,.64,1.26,.91,1.29,.61,.07,1.15,.64,1.82,1.37,.52,.56,1.11,1.19,1.72,1.54,.68,.39,3.94-1.15,6.55-2.82l.53-.34,.26,.58c.2,.46,.89,1.73,1.58,2.07,.33,.16,.93,.1,1.41,.05,.61-.07,1.14-.13,1.46,.24,.03,.03,.06,.07,.09,.13,.94-.21,3.68-1.2,8.28-3.14,.7-.29,1.46-.28,2.14,.05,1.21,.57,3.46,1.63,4.96,2.26,1.09,.46,4.68-2.7,7.39-5.89l.23-.27,.34,.1c.05,.02,1.29,.4,2.12,.95,.37,.06,1.74-.45,2.65-.8,1.82-.68,2.97-1.08,3.65-.84,0,0,0,0,.01,0,.41,0,1.76-1.31,2.41-1.94,1.06-1.03,1.62-1.55,2.12-1.6,.04-.05,.13-.18,.23-.49,.37-1.16,1.48-1.91,2.7-1.83,1.94,.13,2.68-.03,2.96-.15,1.1-.44,1.38-.74,2.19-1.62l.22-.23c.35-.39,.67-1.31,.88-2.59,.18-1.1,1.05-1.97,2.16-2.17,2.51-.44,3.01-.7,3.09-.75,.01-.01,.44-.4,1.21-3.42,.28-1.1,1.24-1.89,2.37-1.97,1.6-.12,2.79-.07,3.55,.13,.1-.2,.32-.95,.09-3.41-.07-.75,.18-1.49,.69-2.03,.51-.55,1.22-.85,1.99-.85,1.12,.02,2.04-.02,2.72-.1,.03,0,.07,0,.13-.09,.33-.45,.44-2.11-.25-5.43-.27-1.33,.48-2.64,1.75-3.05,1.42-.46,2.42-.54,3.03-.22,.24-.31,.59-1.29,.83-1.96,.54-1.51,1.09-3.06,2-3.61,.29-.17-.25-1.22-.54-1.78-.45-.87-.8-1.56-.38-2.07,.39-.48,1.15-.28,1.43-.21,.33,.09,.58,.09,.69,0,.25-.21,.19-1.08,.15-1.65-.06-.85-.12-1.66,.5-1.97,.1-.11,.21-.74,.28-1.16,.19-1.12,.42-2.51,1.58-2.93,.07-.59-1.33-2.86-3.07-4.95l-.24-.29,.19-.33c.82-1.41,1.07-1.76,1.28-1.84,.16-.14,.51-.46,.83-.75,.9-.82,2.14-1.95,2.73-2.34,.19-.37-1.01-2.34-2.07-3.18-.35-.28-.42-.6-.41-.81,.02-.69,.74-1.2,1.74-1.92,.67-.48,1.43-1.03,1.95-1.64,.33-.4,.33-.57,.33-.6,0-.09-.2-.24-.35-.36-.34-.27-.9-.71-.72-1.48-.05-.06-.23-.25-.82-.5-.7-.3-1.24-.88-1.5-1.57-.23-.63-.2-1.29,.08-1.88,.34-.71,.35-1.58,.01-2.59-.68-2.09-1.72-3.45-2.47-4.22-.7-.71-.91-1.8-.53-2.77,.58-1.48,.88-2.63,.85-3.24-.02-.39-.64-1.34-2.31-2.79-.92-.8-1.16-2.14-.59-3.27,.29-.58,.47-1.15,.54-1.71,.07-.57-.89-1.99-3.83-4.12-.85-.61-1.25-1.67-1.04-2.69,.37-1.75,.48-3.25,.31-4.22-.16-.94-2.07-2.18-4.98-3.25-.88-.32-1.51-1.07-1.68-2.01-.15-.8-.28-1.4-.4-1.74-.08-.21-.83-.94-3.1-2.35-.73-.46-1.2-1.25-1.24-2.11-.1-1.89-.17-4.38,.05-5.54,.03-.18-.01-.23-.03-.25-.34-.39-1.99-.3-3.08-.24-.5,.03-.96,.05-1.39,.05-.76,0-1.33-.41-1.6-1.16-.45-1.22,0-3.17,.71-4.21-.91-.05-2.65,.05-3.6,.1-.72,.04-1.35,.08-1.74,.08-.43,0-.8-.15-1.07-.44-.7-.74-.63-2.19-.57-3.36,0-.18,.02-.34,.02-.49-.29-.02-1.11,.04-3.2,.71-.77,.25-1.6,.14-2.27-.3-.67-.44-1.1-1.15-1.18-1.94-.16-1.59-.27-2.61-.33-3.02-.18-.18-1.34-.13-2.03-.1-.82,.03-1.67,.07-2.42-.06-.91-.14-3.36-.1-6.73,.11-.89,.06-1.73-.32-2.25-1.01-.65-.86-2.04-2.37-4.12-2.75-.87-.16-1.57-.12-2.06,.1-1.07,.48-2.38,.06-3.1-1-.8-1.18-1.57-2.06-2.22-2.54-.55-.42-2.45-.04-6.15,2.27-1.16,.72-2.67,.45-3.52-.64-.58-.74-1.48-1.6-2.45-1.53-1.04,.06-3.09,1.06-5.63,2.73-1.03,.68-2.36,.57-3.24-.27-.83-.79-1.69-1.39-2.49-1.74-.76-.33-2.3,.84-4.01,3.04-.83,1.07-2.33,1.34-3.49,.62-.82-.51-1.48-.87-1.96-1.09-.37-.16-.84-.22-1.45-.3-1.36-.18-3.21-.42-5.78-2.02-.51-.31-.73-.2-.8-.16-.25,.13-1.07,.89-1.18,5.06-.03,.96-.55,1.8-1.4,2.25-.86,.45-1.85,.41-2.66-.11-1.12-.72-2.15-1.34-3.06-1.85-.32-.18-.44-.1-.48-.07-.16,.09-.94,.78-.88,5.18,.01,.86-.39,1.68-1.08,2.2-.67,.51-1.52,.66-2.31,.42-1.07-.32-1.99-.49-2.73-.49-.86,0-1.6,2.1-1.87,5.35-.11,1.32-1.19,2.35-2.52,2.4-2.93,.11-5.24,.48-6.51,1.04-.79,.35-.94,1.32-.44,2.89,.26,.82,.11,1.72-.4,2.4-.52,.69-1.32,1.07-2.16,1.05-1.76-.05-3.61,.08-5.51,.39-.85,.14-1.35,.43-1.47,.86-.4,1.43,2.5,4.55,4.41,6.17l.23,.19-.31,2.27-.05,.09c-.13,.24-.6,1.04-1.2,1.26-.18,.06-.85,.42-1.43,.74-1.17,.64-2.64,1.43-3.64,1.8-.71,.28-1.31,2.92-1.63,4.34-.34,1.52-.54,2.31-.89,2.66-.03,.44,.68,2.03,1.56,3.49l.27,.44-.42,.29c-.18,.12-1.8,1.2-3.08,1.2-.3,.21-.59,2.1-.73,3-.15,.99-.28,1.84-.51,2.32-.34,.72,1.04,2.37,2.07,3.26l.95,.82-1.25,.13s-2.82,.31-3.52,1.96c-.03,.06-.09,.18-.18,.34-1.34,2.48-1.58,4.09-.73,4.76,.19,.15,.75,.59,2.95,4.26,.68,1.13,.41,2.61-.62,3.43-1.71,1.36-2.75,2.55-2.84,3.26-.05,.45,.61,1.36,2.63,2.54,1.22,.71,1.67,2.2,1.05,3.45-1.45,2.95-2.39,4.98-2.64,5.71-.16,.47,1.97,1.93,4.86,3.04l.33,.13,.02,.35c0,.18,.06,1.78-.68,2.55-.2,.28-.29,1.79-.34,2.61-.07,1.15-.12,1.89-.34,2.26,.06,.14,.15,.34,.23,.52,.55,1.22,1.56,3.49,1.51,6.13-.01,.59,.15,1,.51,1.24,1.14,.79,3.98-.06,4.88-.42l.59-.23,.14,.62c.16,.75,.47,2.44,.19,3.33,.08,.03,.19,.06,.34,.1,1.11,.28,1.92,1.22,2.01,2.34,.25,3.12,.79,5.33,1.44,5.91,.31,.28,.54,.28,.69,.26,.67-.1,1.37-1.06,1.56-1.39l.76-1.3,.23,1.48c.06,.38,.58,3.76,.35,4.85-.08,.42,.73,1.61,1.21,2.32,.38,.56,.71,1.05,.86,1.42,.13,.31,1.46,.84,2.25,1.15,.88,.35,1.8,.71,2.38,1.13,.37,.26,1.09,.4,2,.38,.02,0,.04,0,.05,0,1.34,0,2.46,.97,2.62,2.28,.23,1.82,.77,3.05,1.52,3.46,1.43,.78,4.01-.4,4.88-.92l.56-.33,.23,.61c.02,.07,.58,1.63-.92,3.77-.09,.13-.08,.19-.07,.22,.17,.56,2.06,1.29,3.31,1.77,1.59,.62,2.96,1.15,3.51,1.89,.36,.5,1.56,.05,2.51-.3,1.12-.42,2.39-.89,2.82,.15,.46,1.06,2.54,2.57,3.55,3.3,.44,.32,1.27,.18,2.14,.02,.9-.16,1.93-.34,2.82-.07,1.21,.38,2.49-1.42,2.5-1.44l.6-.86Zm53.06-4.94h0Zm-108.72-93.97s0,0,0,0c0,0,0,0,0,0Z"/></g><path class="cls-3" d="M533.47,428.4c-1.21,0-2.41-.47-3.31-1.37l-2.03-2.03c-.21-.21-.21-.55,0-.76s.55-.21,.76,0l2.03,2.03c1.08,1.08,2.73,1.36,4.11,.7l1.62-.78c.27-.13,.59-.02,.72,.25,.13,.27,.02,.59-.25,.72l-1.62,.78c-.65,.31-1.34,.46-2.03,.46Z"/><path class="cls-3" d="M529.42,454.17c-.06,0-.13,0-.19,0l-2.87-.12c-.3-.01-.53-.26-.52-.56s.27-.55,.56-.52l2.87,.12c1.52,.07,2.93-.85,3.49-2.27l.66-1.67c.11-.28,.42-.41,.7-.3,.28,.11,.41,.42,.3,.7l-.66,1.67c-.71,1.79-2.44,2.96-4.35,2.96Z"/><path class="cls-3" d="M520.02,490.25c-.21,0-.4-.12-.49-.32-.12-.27,0-.59,.27-.72l2.62-1.19c1.39-.63,2.23-2.08,2.09-3.6l-.17-1.79c-.03-.3,.19-.56,.49-.59,.3-.03,.56,.19,.59,.49l.17,1.79c.18,1.98-.91,3.86-2.72,4.68l-2.62,1.19c-.07,.03-.15,.05-.22,.05Z"/><path class="cls-3" d="M558.16,412.07c-.26,0-.48-.18-.53-.44-.05-.29,.14-.58,.43-.63l2.83-.53c1.5-.28,2.67-1.48,2.9-2.99l.27-1.77c.04-.29,.32-.5,.62-.45,.29,.04,.5,.32,.45,.62l-.27,1.77c-.3,1.96-1.81,3.53-3.77,3.89l-2.83,.53s-.07,0-.1,0Z"/><path class="cls-3" d="M592.78,400.82c-.71,0-1.42-.16-2.08-.49l-2.58-1.28c-.27-.13-.38-.46-.24-.72,.13-.27,.46-.38,.72-.24l2.58,1.28c1.37,.68,3.02,.42,4.11-.65l1.29-1.25c.21-.21,.56-.2,.76,0s.2,.56,0,.76l-1.29,1.25c-.89,.87-2.07,1.33-3.27,1.33Z"/><path class="cls-3" d="M608.2,422.1c-1.35,0-2.67-.59-3.58-1.66l-1.86-2.2c-.19-.23-.16-.57,.06-.76,.23-.19,.57-.16,.76,.06l1.86,2.2c.99,1.17,2.61,1.58,4.03,1.04l1.68-.64c.28-.11,.59,.03,.7,.31,.11,.28-.03,.59-.31,.7l-1.68,.64c-.54,.21-1.11,.31-1.67,.31Z"/><path class="cls-3" d="M632.81,450.78c-.09,0-.19-.02-.28-.08l-1.54-.92c-1.7-1.02-2.58-3.02-2.17-4.96l.58-2.82c.06-.29,.35-.48,.64-.42,.29,.06,.48,.35,.42,.64l-.58,2.82c-.31,1.5,.36,3.03,1.67,3.81l1.54,.92c.26,.15,.34,.49,.19,.74-.1,.17-.28,.26-.46,.26Z"/><path class="cls-3" d="M610.19,464.37c-1.22,0-2.41-.47-3.31-1.37l-2.03-2.03c-.21-.21-.21-.55,0-.76s.55-.21,.76,0l2.03,2.03c1.08,1.08,2.73,1.36,4.11,.7l1.62-.78c.27-.13,.59-.02,.72,.25,.13,.27,.02,.59-.25,.72l-1.62,.78c-.65,.31-1.34,.46-2.03,.46Z"/><path class="cls-3" d="M577.34,441c-.57,0-1.15-.1-1.7-.32l-2.68-1.05c-.28-.11-.42-.42-.31-.7,.11-.28,.42-.42,.7-.31l2.68,1.05c1.42,.56,3.05,.15,4.04-1.01l1.17-1.36c.19-.23,.54-.25,.76-.06,.23,.19,.25,.53,.06,.76l-1.17,1.36c-.91,1.06-2.22,1.63-3.56,1.63Z"/><path class="cls-3" d="M550.3,469.96c-.12,0-.25-.04-.35-.13-.23-.19-.26-.53-.06-.76l1.86-2.19c.99-1.16,1.13-2.83,.36-4.15l-.91-1.55c-.15-.26-.06-.59,.19-.74,.26-.15,.59-.06,.74,.19l.91,1.55c1.01,1.71,.82,3.88-.47,5.4l-1.86,2.19c-.11,.13-.26,.19-.41,.19Z"/><path class="cls-3" d="M572.08,479.18c-1.84,0-3.52-1.08-4.28-2.78l-1.17-2.63c-.12-.27,0-.59,.27-.71,.27-.12,.59,0,.71,.27l1.17,2.63c.62,1.4,2.05,2.26,3.58,2.13l1.79-.15c.3-.02,.56,.2,.58,.49,.02,.3-.2,.56-.49,.58l-1.79,.15c-.13,.01-.25,.02-.38,.02Z"/><path class="cls-3" d="M565.78,510.18c-.2,0-.39-.11-.49-.31l-.78-1.62c-.86-1.79-.5-3.93,.91-5.34l2.03-2.03c.21-.21,.55-.21,.76,0s.21,.55,0,.76l-2.03,2.03c-1.08,1.08-1.36,2.73-.7,4.11l.78,1.62c.13,.27,.02,.59-.25,.72-.08,.04-.16,.05-.23,.05Z"/><path class="cls-3" d="M562.91,532.91c-.06,0-.13-.01-.19-.03-.28-.1-.42-.41-.32-.69l.62-1.68c.68-1.84,2.43-3.07,4.39-3.07,.02,0,.05,0,.07,0l2.88,.05c.3,0,.54,.25,.53,.55s-.24,.52-.55,.53l-2.88-.05c-1.54-.04-2.91,.92-3.43,2.36l-.62,1.68c-.08,.22-.29,.35-.51,.35Z"/><path class="cls-3" d="M605.11,525.86c-.27,0-.5-.2-.53-.47l-.23-1.78c-.26-1.97,.76-3.89,2.53-4.79l2.57-1.29c.26-.13,.59-.03,.73,.24,.13,.27,.03,.59-.24,.73l-2.57,1.29c-1.36,.69-2.15,2.17-1.95,3.68l.23,1.78c.04,.3-.17,.57-.47,.61-.02,0-.05,0-.07,0Z"/><path class="cls-3" d="M598.22,496.89c-.83,0-1.66-.22-2.41-.67l-2.47-1.48c-.26-.15-.34-.49-.19-.74,.15-.26,.48-.34,.74-.19l2.47,1.48c1.31,.79,2.98,.66,4.15-.32l1.38-1.15c.23-.19,.57-.16,.76,.07,.19,.23,.16,.57-.07,.76l-1.38,1.15c-.86,.72-1.92,1.08-2.99,1.08Z"/><path class="cls-3" d="M629.32,483.78c-1.95,0-3.7-1.22-4.38-3.05l-1-2.7c-.1-.28,.04-.59,.32-.69,.28-.1,.59,.04,.69,.32l1,2.7c.53,1.43,1.93,2.38,3.44,2.34l1.79-.03h.01c.29,0,.53,.24,.54,.53,0,.3-.23,.54-.53,.55l-1.79,.03s-.06,0-.09,0Z"/><path class="cls-3" d="M626.01,504.03s-.09,0-.13-.02c-.29-.07-.47-.37-.39-.65l.43-1.74c.48-1.93,2.13-3.35,4.11-3.53l2.86-.27c.29-.03,.56,.19,.59,.49,.03,.3-.19,.56-.49,.59l-2.86,.27c-1.52,.14-2.79,1.23-3.16,2.71l-.43,1.74c-.06,.25-.28,.41-.52,.41Z"/><path class="cls-3" d="M535.35,510.18c-.12,0-.25-.04-.35-.13-.23-.19-.26-.53-.06-.76l1.16-1.37c1.28-1.52,3.39-2.05,5.25-1.34l2.68,1.03c.28,.11,.42,.42,.31,.7-.11,.28-.42,.42-.7,.31l-2.68-1.03c-1.43-.55-3.05-.13-4.04,1.03l-1.16,1.37c-.11,.13-.26,.19-.41,.19Z"/><path class="cls-3" d="M509.47,466.65s-.04,0-.06,0c-.3-.03-.51-.3-.48-.6l.31-2.86c.16-1.52-.65-2.98-2.03-3.64l-1.62-.77c-.27-.13-.38-.45-.26-.72,.13-.27,.45-.38,.72-.26l1.62,.77c1.79,.85,2.85,2.75,2.64,4.73l-.31,2.86c-.03,.28-.26,.48-.54,.48Z"/></g><path class="cls-7" d="M573.54,476.77c1.1,.51,2.72,.47,3.98,.51,1.28-.04,2.89,.03,4.02-.5,.26-.21,.63-.06,.55,.29-1.1,2.79-8.05,2.8-9.17,.02-.1-.28,.24-.55,.49-.4l.13,.07h0Z"/><g><circle class="cls-7" cx="563.32" cy="465.79" r="4.9"/><circle class="cls-10" cx="559.78" cy="463.26" r="1.36"/><circle class="cls-10" cx="561.44" cy="465.48" r=".51"/></g><g><circle class="cls-7" cx="591.62" cy="465.79" r="4.9"/><circle class="cls-10" cx="595.16" cy="463.26" r="1.36"/><circle class="cls-10" cx="593.49" cy="465.48" r=".51"/></g><ellipse class="cls-8" cx="556.34" cy="477.54" rx="3.66" ry="1.91"/><ellipse class="cls-8" cx="600.18" cy="477.54" rx="3.66" ry="1.91"/></g><g><path class="cls-9" d="M349.36,483.74c-14.74,56.17-8.03,166.74-4.37,212.63,1.03,12.93,1.82,20.73,1.82,20.73h-22.98s-3.58-146.04,9.19-199.15c12.77-53.1,19.4-164.42,19.4-164.42l8.74-4.73,3.52-1.91s3.57,64.85-15.32,136.85Z"/><path class="cls-6" d="M349.36,483.74c-14.74,56.17-8.03,166.74-4.37,212.63l-5.48,3.11s-10.83-155.4,4.65-207.31c20.07-78.15,18.48-126.83,17-143.37l3.52-1.91s3.57,64.85-15.32,136.85Z"/><path class="cls-9" d="M329.3,579.09s-3.12-1.27-7.92-3.79c-18.08-9.47-60.19-36.56-50.49-79.7,1.83-8.14,4.36-12.54,7.35-14.15,17.12-9.21,49.09,72.68,49.09,72.68l1.96,24.96Z"/><path class="cls-1" d="M382.17,580.12c.66-.69,1.31-1.38,1.94-2.05-.63,.74-1.28,1.42-1.94,2.05Z"/><g><path class="cls-9" d="M391.82,397.86c-13.51,10.68-30.48,13.77-30.48,13.77l.69-15.56s17.01-26.16,30.38-37.69c8.5-7.32,15.52-8.75,15.77,6.19,.26,15.47-7.26,26.1-16.36,33.3Z"/><path class="cls-6" d="M391.82,397.86c9.48-11.68,17.47-27.16,13.41-41.2-1.79-6.18-12.82,1.72-12.82,1.72h0c8.5-7.33,15.52-8.76,15.77,6.18,.26,15.47-7.26,26.1-16.36,33.3Z"/></g><g><path class="cls-11" d="M445.83,202.04c-9.62,33.38-36.04,46.86-79,48.15-15.39,.46-30.68-8.17-41.98-21.49-20.25-23.87-27.7-62.79-.03-91.5,0,0,17.16-18.63,44.26-23.71,10.87-2.03,23.34-1.88,36.95,2.53,47.51,15.41,49.43,52.64,39.8,86.02Z"/><path class="cls-5" d="M324.85,228.7c-20.25-23.87-27.7-62.79-.03-91.5,0,0,17.16-18.63,44.26-23.71-28.6,12.45-72.48,43.95-44.23,115.21Z"/></g><g><path class="cls-12" d="M398.81,114.04h-.01c-.55-.12-1.1-.24-1.65-.35-7.2-1.44-14.02-1.73-20.39-1.22-.72,.05-1.44,.12-2.15,.2-.17-10.15-.34-43.26,3.8-70.98h0c3.81-25.47,11.27-46.38,25.73-40.77,7.53,2.92,11.32,10.43,12.69,20.32,4.12,29.58-13.49,80.37-18.02,92.8Z"/><path class="cls-12" d="M451.85,107.74h-.01c-10.58,10.78-19.51,18.66-21.55,20.43-.05,.05-.1,.1-.14,.13-2.85-2.22-6.04-4.3-9.62-6.2h-.02c-2.22-1.19-4.56-2.31-7.07-3.35l-3.43-2.05s18.58-37.21,38.84-64.14c15.28-20.29,31.51-34.76,41.49-23.09,15.23,17.81-15.52,54.86-38.49,78.27Z"/><path class="cls-12" d="M448.85,52.56c-8.72,33.2-28.13,69.57-28.13,69.57l-.19-.03h-.02c-2.22-1.19-4.56-2.31-7.07-3.35-2.34-.97-4.81-1.89-7.41-2.73-2.45-.79-4.85-1.45-7.22-1.98h-.01c-.55-.12-1.1-.24-1.65-.35,1.61-14.82,7.64-63.85,19.68-92.45,6.6-15.69,15.02-25.24,25.5-19.61,13.44,7.21,12.46,28.34,6.52,50.93Z"/><path class="cls-12" d="M476.95,129.2c-15.11,6.1-29.23,10.33-34.95,11.97-.33-.52-.67-1.03-1.02-1.53-2.75-3.93-6.16-7.6-10.35-10.94h-.01s-.34-.53-.34-.53l-2.26-3.44s10.09-7.78,23.81-16.98h.01c27.28-18.32,68.94-42.24,74.32-21.78,4.56,17.36-23.72,32.96-49.21,43.23Z"/><path class="cls-12" d="M557.04,134.83c-.97,13.5-17.37,20.79-37.38,24.62h-.02c-25.68,4.94-57.27,4.2-69.79,3.64-.07-.56-.16-1.12-.25-1.68-1.16-7.16-3.56-14-7.59-20.24-.33-.52-.67-1.03-1.02-1.53,5.42-1.78,19.45-6.24,35.97-10.44,35.2-8.92,81.68-16.6,80.08,5.63Z"/><path class="cls-12" d="M555.48,222.57c-7.78,14.15-31.81,11.08-55.82,3.49-.01,0-.02-.01-.02-.01-22.57-7.16-45.12-18.32-54.12-22.98,.11-.34,.21-.68,.31-1.03,.2-.7,.4-1.4,.59-2.11,1.06-3.89,1.95-7.82,2.63-11.76,.54-3.16,.94-6.32,1.17-9.46,15.98,1.91,68.6,9.07,93.53,22.68,10.7,5.85,16.3,12.87,11.73,21.18Z"/><path class="cls-12" d="M572.79,184.62c-3.17,10.43-14.43,15.25-29.04,16.77-32.46,3.39-81.42-9.49-94.7-13.22,.54-3.16,.94-6.32,1.17-9.46,.4-5.29,.32-10.53-.37-15.62-.07-.56-.16-1.12-.25-1.68,11.51-1.02,42.13-3.35,70.04-1.96h.02c30.88,1.56,58.45,7.67,53.13,25.17Z"/><path class="cls-12" d="M536.41,272.05c-5.68,5.67-14.04,6.13-23.57,3.43-27.74-7.85-65.49-42.41-76.63-53.04,.25-.34,.49-.69,.73-1.05,3.61-5.27,6.47-11.35,8.57-18.32,.11-.34,.21-.68,.31-1.03,.2-.7,.4-1.4,.59-2.11,8.32,3.52,31.84,13.8,53.22,26.12,0,0,.01,.01,.02,.01,26.31,15.17,49.36,33.42,36.76,45.99Z"/><path class="cls-12" d="M471.99,341.51c-18.49,5.82-36.79-22.48-49.64-49.6,0-.01-.01-.01-.01-.01-10.84-22.85-17.83-44.86-17.83-44.86l7.34-5.35c.13-.06,.27-.12,.4-.18,3.39-1.51,6.55-3.22,9.48-5.17h.01c.84-.55,1.64-1.12,2.44-1.72,3.8,4.55,17.84,21.6,30.91,40.84,18.87,27.78,35.72,60.12,16.9,66.05Z"/><path class="cls-12" d="M517.65,301.84c-14.68,11.85-40.99-6.46-62.56-26.38-19.28-17.81-34.77-36.9-34.77-36.9l1.41-2.22h.01c.84-.55,1.64-1.12,2.44-1.72,4.64-3.41,8.65-7.46,12.04-12.18,.25-.34,.49-.69,.73-1.05,13.64,7.6,56.83,32.57,75.9,54.09,9.18,10.36,12.78,19.92,4.8,26.36Z"/><path class="cls-12" d="M408.83,359.56c-6.83-1.01-11.75-5.91-15.23-13.15-12.76-26.47-6.4-84.3-4.62-98.24,.38-.06,.76-.12,1.14-.19,8.05-1.4,15.3-3.47,21.73-6.29,.13-.06,.27-.12,.4-.18,.91,3.56,6.49,26,10.09,50.39,0,0,.01,0,.01,.01,4.94,33.45,6.17,70.56-13.52,67.65Z"/><path class="cls-12" d="M393.6,346.41c-2.74,15.12-8.49,24.92-19.32,22.24-7.5-1.85-12.29-8.08-15.18-16.81-9.7-29.35,2.18-86.98,5.47-101.65h.01c.75,.02,1.5,.02,2.25,0,3.5-.1,6.89-.29,10.17-.56h.01c4.17-.34,8.15-.83,11.97-1.46,.38-.06,.76-.12,1.14-.19,1.99,13.69,9.12,67.32,3.48,98.43Z"/><path class="cls-12" d="M363.35,250.14c-2.68,9.68-15.64,54.85-31.62,83.63-10.18,18.32-21.57,29.99-32.32,21.64-15.16-11.78-4.11-41.45,10.38-67.73,11.71-21.26,25.68-40.29,29.84-45.82,1.19,.78,2.4,1.51,3.63,2.18,6.04,3.35,12.46,5.47,18.97,6.02,.37,.04,.75,.06,1.12,.08Z"/><path class="cls-12" d="M386.11,251.41s-8.84,74.94-27.01,100.43c-5.26,7.37-11.29,10.61-18.11,6.73-7.62-4.34-9.99-13.51-9.26-24.8,1.88-29,24.2-72.07,30.5-83.71,.37,.04,.75,.06,1.12,.08,.4,.03,.81,.04,1.22,.05h.01c.75,.02,1.5,.02,2.25,0,3.5-.1,6.89-.29,10.17-.56h.01l9.1,1.78Z"/><path class="cls-12" d="M343.26,244.04c-3.58,5.23-17.48,25.16-33.47,43.64-20.59,23.78-44.65,45.16-54.72,29.76-11.96-18.31,18.79-48.33,43.59-68.32,0-.01,.02-.01,.03-.02,12.49-10.07,23.48-17.59,26.71-19.76,.4,.46,.79,.9,1.2,1.34h0c3.95,4.36,8.34,8.14,13.02,11.18,1.19,.78,2.4,1.51,3.63,2.18Z"/><path class="cls-12" d="M308.42,166.63c-1.82,7.68-2.09,15.47-1.08,23.07-19.75-1.74-120.11-12.05-105.67-40.16,8.39-16.34,38.86-10.59,65.97-1.43,17.33,5.86,33.28,13.12,41.19,16.9-.15,.54-.28,1.08-.41,1.62Z"/><path class="cls-12" d="M318.65,144.54c-.28,.38-.55,.76-.81,1.15-4.31,6.19-7.25,12.7-9.01,19.32-.15,.54-.28,1.08-.41,1.62-7.29-2.96-23.77-9.86-40.78-18.52-30-15.25-61.7-35.99-47.87-50.28,10.02-10.35,29.09-3.76,48.07,7.6,0,0,.01,.01,.02,.01,21.4,12.8,42.69,31.65,50.79,39.1Z"/><path class="cls-12" d="M334.41,128.95c-.42,.3-.82,.6-1.21,.9-5.41,4.13-8.38,7.35-8.38,7.35-2.29,2.38-4.35,4.83-6.17,7.34-.28,.38-.55,.76-.81,1.15-8.45-5.97-31.47-22.68-49.98-40.25,0,0-.02-.01-.02-.01-19.7-18.71-34.28-38.38-20.72-47.09,21.37-13.74,58.14,30.31,76.72,55.55,.01,0,.02,.03,.03,.04,5.16,7.02,8.92,12.57,10.54,15.02Z"/><path class="cls-12" d="M354.8,117.61c-.6,.23-1.2,.48-1.79,.73-7.62,3.19-13.91,7.14-18.6,10.6-.42,.3-.82,.6-1.21,.9-1.1-1.8-4.67-7.68-9.33-15.92-.01-.01-.02-.03-.03-.04-8.74-15.44-21.29-39.18-28.68-60.02-7.83-22.1-9.85-40.95,4.65-43.22,13.27-2.08,24.13,11.27,32.59,29.26,4.01,8.51,7.48,18.06,10.42,27.51,6.98,22.41,10.96,44.24,11.98,50.2Z"/><path class="cls-12" d="M326.78,230.98s-11.99,8.41-28.09,18.12c-.01,.01-.02,.01-.03,.02-30.96,18.68-77.03,42.12-81.86,19.58-4.22-19.65,28.78-35.57,57.69-45.59,18.24-6.31,34.85-10.27,39.46-11.33,.37,.81,.77,1.62,1.19,2.41,2.71,5.24,5.99,10.13,9.71,14.51,.18,.21,.37,.43,.55,.64,.4,.46,.79,.9,1.2,1.34h0s.17,.3,.17,.3Z"/><path class="cls-12" d="M315.14,214.19c-2.49,.65-19.75,5.12-40.65,8.92-37.45,6.82-86.57,11.53-83.32-11.59,4.67-33.13,96.63-24,116.19-21.68,1.01,7.63,3.3,15.06,6.59,21.94,.37,.81,.77,1.62,1.19,2.41Z"/><path class="cls-12" d="M376.76,112.47c-.72,.05-1.44,.12-2.15,.2-1.89,.21-3.73,.48-5.53,.82-5.13,.96-9.91,2.41-14.28,4.13-.6,.23-1.2,.48-1.79,.73-1.66-6.61-6.87-28.14-10.19-50.93-4.79-32.85-5.68-68.34,13.6-65.55,13.57,1.96,19.65,19.24,21.99,39.81h0c3.08,27.08-.32,59.83-1.65,70.79Z"/></g><ellipse class="cls-8" cx="350.76" cy="195.35" rx="7.88" ry="4.12"/><ellipse class="cls-8" cx="433.1" cy="195.35" rx="7.88" ry="4.12"/><path class="cls-4" d="M378.41,41.68l.78-4.86s8.69,19.17,0,75.5l-2.43,.15s8.02-26.53,1.65-70.79Z"/><path class="cls-4" d="M353.01,118.35l-1.73,.75s-6.46-15.39-10.21-57.13l2.23,8.64s5.82,33.52,9.71,47.74Z"/><path class="cls-4" d="M451.55,49.08s-7.86,30.55-28.51,74.42c-1.44-.85-2.38-1.37-2.38-1.37,0,0,8.9-11.35,28.18-69.57l2.71-3.48Z"/><path class="cls-4" d="M416.83,21.24l1.24-2.82s-6.05,62.4-16.26,96.44l-3-.82s8.21-21.66,18.03-92.8Z"/><path class="cls-4" d="M323.84,113.89l-2.05-2.77s2.74,7.57,10.57,19.49l1.55-1.29s-5.14-5.51-10.07-15.43Z"/><path class="cls-4" d="M267.86,105.44l-3.07-2.96s23.38,12.92,54.17,41.45l-1.11,1.76s-29.2-26.14-49.98-40.25Z"/><path class="cls-4" d="M267.64,148.11l-5.11-1.67s6.06,5.74,45.6,21.47l.29-1.28s-26.81-11.04-40.78-18.52Z"/><path class="cls-4" d="M289.34,188.11s13.9,1.19,18,1.59l.16,1.17s-11.73-.26-21.82-3.03l3.66,.26Z"/><path class="cls-4" d="M273.79,223.24s22-3.25,41.35-9.05l.73,1.36s-17.63,7.77-46.7,9.46l4.62-1.77Z"/><path class="cls-4" d="M326.61,230.69s-15.15,7.58-27.95,18.43l-5.48,3.26s10.89-9.96,31.93-23.37c1.76,1.99,1.5,1.68,1.5,1.68Z"/><path class="cls-4" d="M309.79,287.68s29.95-36.08,33.47-43.64l2.43,1.27s-24.08,32.43-38.18,46.59l2.28-4.22Z"/><path class="cls-4" d="M363.35,250.14s-26.88,47.13-31.62,83.63c-1.61,2.86-2.04,3.55-2.04,3.55,0,0,4.96-41.09,31.93-87.31l1.73,.14Z"/><path class="cls-4" d="M359.1,351.84s24.49-40.61,24.66-102.91c1.28-.17,.98-.13,.98-.13,0,0,1.76,55.45-25.29,104.22-.33-.94-.35-1.18-.35-1.18Z"/><path class="cls-4" d="M393.6,346.41s-12.59-34.25-12.15-58.77l-.61,3.47s-1.12,14.3,12.45,56.94l.31-1.64Z"/><path class="cls-4" d="M412.25,241.51s5.39,20.79,10.09,50.39l.7,1.45s-2.72-23.34-9.87-52.26l-.92,.42Z"/><path class="cls-4" d="M455.09,275.46s-25.18-24.33-33.36-39.12l-.95,.65s8.24,14.33,37.91,43.87l-3.6-5.4Z"/><path class="cls-4" d="M436.94,221.39s55.59,30.02,75.9,54.09c1.89,.5-13.9-20.23-75.04-55.38l-.86,1.29Z"/><path class="cls-4" d="M499.66,226.06s-27.52-10.72-53.24-26.13l-.4,1.44s23.92,14.47,57.19,26.77l-3.55-2.08Z"/><path class="cls-4" d="M450.21,178.71s63.16,5.35,93.53,22.68l2.36-.28s-31.55-17.22-95.78-24.12l-.11,1.72Z"/><path class="cls-4" d="M451.85,107.74s-7.89,12.58-20.87,21.24c1.21,1.02,.73,.59,.73,.59,0,0,14.93-11.47,23.15-23.83l-3.01,2Z"/><path class="cls-4" d="M481.69,127.24s-23.8,6.14-38.36,16.09c.46,.81,.45,.79,.45,.79,0,0,18.95-11.25,33.18-14.93l4.73-1.96Z"/><path class="cls-4" d="M449.85,163.09s20.48,1.29,69.79-3.64l2.81,.16s-20.03,4.26-72.38,5.29l-.22-1.81Z"/><g><path class="cls-7" d="M372.81,179.83c-3.52-7.95-17.55-7.33-21.19,.23-.65,1.3-2.64,.79-2.57-.65,.17-2.94,2.5-5.26,4.86-6.69,4.72-2.77,10.92-2.54,15.34,.57,2.13,1.53,3.92,3.77,4.28,6.35,.07,.43-.58,.59-.73,.18h0Z"/><ellipse class="cls-7" cx="365.77" cy="179.6" rx="7.88" ry="4.86"/><circle class="cls-10" cx="360.08" cy="176.85" r="2.19"/><circle class="cls-10" cx="362.75" cy="180.42" r=".82"/></g><g><path class="cls-7" d="M404.98,179.65c1.65-8.31,12.9-11.08,19.62-6.92,2.36,1.42,4.7,3.74,4.86,6.69,.05,1.46-1.93,1.93-2.57,.65-3.64-7.56-17.66-8.19-21.19-.23-.13,.42-.8,.25-.73-.18h0Z"/><ellipse class="cls-7" cx="412.75" cy="179.6" rx="7.88" ry="4.86"/><circle class="cls-10" cx="418.43" cy="176.85" r="2.19"/><circle class="cls-10" cx="415.76" cy="180.42" r=".82"/></g><path class="cls-7" d="M384.43,198.05c5.53,3.43,12.73,1.8,16.02-3.9,1.57-2.24,4.92-.01,3.44,2.3-3.95,5.76-12.03,8.03-18.41,5.19-1.18-.61-4.03-1.36-3-3.23,.42-.66,1.32-.82,1.95-.36h0Z"/><path class="cls-12" d="M360.92,162.99c4.86,5.61,11.05,10.48,18.08,13.07,1.37,.47,.73,2.52-.67,2.12-7.78-2.3-14.58-6.97-20.27-12.7-1.76-1.92,1.19-4.51,2.86-2.49h0Z"/><path class="cls-12" d="M397.77,173.06c3.95-7.16,11.77-11.37,19.78-11.88l1.85-.11c2.09,.15,5.83-.72,5.9,2.37-.01,1.45-1.42,2.48-2.81,2.15-1.53-.25-3.26-.56-4.83-.57-.49-.04-1.14-.05-1.62,0-6.42,.11-12.96,3.45-16.26,9.05-.66,1.36-2.7,.37-2.01-1h0Z"/></g><g><path class="cls-13" d="M544.06,752.55h-.03c-190.19,.86-544.03-3.82-544.03-3.82l25.06-8.18s71.18-43.56,101.25-41.51c30.1,2.04,36.11-12.94,49.12-8.18,13.05,4.76,55.16-2.56,63.17-.94,4.59,.92,22.38-2.58,40.99-3.84,13.9-.98,28.27-.7,37.84,3.6,22.41,10.04,45.71-9.32,62.14-4.06,16.43,5.24,112.67,1.16,114.68,9.32,2,8.18,89.23,28.59,103.25,38.13,14.05,9.52,56.16,6.8,64.17,15.65,2.18,2.42-46.15,3.5-117.62,3.82Z"/><path class="cls-2" d="M544.06,752.55h-.03s-27.83-16.07-31.6-17.09c-3.77-1.02-48.5-34.71-56.01-28.59-7.51,6.12-77.07-10.98-82.34-15.87-5.27-4.9-36.08,14.34-48.5,4.9-12.4-9.44-45.97-9.8-45.97-9.8,13.9-.98,28.27-.7,37.84,3.6,22.41,10.04,45.71-9.32,62.14-4.06,16.43,5.24,112.67,1.16,114.68,9.32,2,8.18,89.23,28.59,103.25,38.13,14.05,9.52,56.16,6.8,64.17,15.65,2.18,2.42-46.15,3.5-117.62,3.82Z"/></g></g></g></svg>