<svg width="150" height="79" viewBox="0 0 150 79" fill="none" xmlns="http://www.w3.org/2000/svg">
    <g filter="url(#filter0_d_254_923)">
        <rect x="4" width="142" height="71" rx="35.5" fill="#4D997A" fill-opacity="0.69"/>
        <circle cx="109" cy="36" r="32" fill="url(#paint0_linear_254_923)"/>
        <g clip-path="url(#clip0_254_923)">
            <path d="M111.374 26.5509L111.164 26.5055C110.312 26.3326 109.442 26.2806 108.577 26.3494C108.486 26.3494 108.394 26.3645 108.303 26.3746C108.282 25.0786 108.26 20.8534 108.786 17.313C109.269 14.0697 110.215 11.4006 112.051 12.1174C113.007 12.4901 113.489 13.4486 113.661 14.711C114.185 18.4864 111.949 24.9695 111.374 26.5509Z"
                  fill="#F5FFFF"/>
            <path d="M118.105 25.7515C116.762 27.1263 115.628 28.1319 115.37 28.3585L115.352 28.3753C114.968 28.0765 114.56 27.8113 114.131 27.5846C113.849 27.4335 113.552 27.2909 113.234 27.1582L112.798 26.9031C112.798 26.9031 115.156 22.154 117.728 18.716C119.667 16.1258 121.728 14.2792 122.994 15.7682C124.922 18.0345 121.02 22.7634 118.105 25.7515Z"
                  fill="#F5FFFF"/>
            <path d="M117.725 18.7081C116.618 22.9452 114.154 27.5884 114.154 27.5884H114.131C113.849 27.4374 113.552 27.2947 113.234 27.1621C112.937 27.0345 112.623 26.9203 112.293 26.8129C111.983 26.7122 111.678 26.6282 111.377 26.5577L111.168 26.5124C111.372 24.6205 112.137 18.3623 113.665 14.7128C114.502 12.7101 115.568 11.4914 116.901 12.2098C118.603 13.1281 118.479 15.8291 117.725 18.7081Z"
                  fill="#F5FFFF"/>
            <path d="M121.292 28.4914C119.373 29.2703 117.582 29.8092 116.856 30.0224C116.814 29.9552 116.772 29.8914 116.729 29.8276C116.36 29.3005 115.917 28.8305 115.415 28.431L115.372 28.3638L115.08 27.919C115.08 27.919 116.361 26.9252 118.102 25.7484C121.567 23.4133 126.854 20.3598 127.537 22.9752C128.115 25.1877 124.527 27.1787 121.292 28.4897V28.4914Z"
                  fill="#F5FFFF"/>
            <path d="M131.454 29.2099C131.327 30.9323 129.249 31.864 126.71 32.3525C123.45 32.9837 119.442 32.888 117.852 32.8175C117.844 32.7453 117.832 32.6748 117.82 32.6026C117.683 31.6827 117.354 30.803 116.858 30.0191C116.816 29.9519 116.774 29.8881 116.73 29.8243C117.418 29.5977 119.199 29.0286 121.3 28.4914C125.759 27.3533 131.659 26.3729 131.454 29.2099Z"
                  fill="#F5FFFF"/>
            <path d="M131.258 40.4086C130.27 42.2149 127.22 41.8221 124.173 40.8534C121.308 39.9402 118.446 38.515 117.304 37.9174C117.317 37.8738 117.331 37.8301 117.342 37.7898C117.368 37.7008 117.393 37.6119 117.418 37.5212C117.552 37.0243 117.671 36.5224 117.752 36.0205C117.82 35.6176 117.871 35.213 117.901 34.8135C119.932 35.0569 126.608 35.9718 129.772 37.7076C131.127 38.4512 131.835 39.3477 131.258 40.4086Z"
                  fill="#F5FFFF"/>
            <path d="M133.455 35.5643C133.052 36.8955 131.624 37.5116 129.774 37.7047C125.653 38.1378 119.44 36.4926 117.755 36.0176C117.824 35.6147 117.874 35.2101 117.904 34.8106C117.958 34.1458 117.943 33.4777 117.857 32.8163C117.849 32.7441 117.837 32.6736 117.825 32.6014C119.286 32.4738 123.173 32.1733 126.71 32.3462C130.632 32.5494 134.131 33.33 133.455 35.5643Z"
                  fill="#F5FFFF"/>
            <path d="M128.838 46.7243C128.117 47.4478 127.061 47.5065 125.846 47.1624C122.326 46.1602 117.534 41.7486 116.12 40.3972C116.152 40.3536 116.182 40.3099 116.212 40.2629C116.693 39.5444 117.059 38.7554 117.3 37.9245C117.314 37.8808 117.327 37.8372 117.339 37.7969C117.364 37.7079 117.389 37.619 117.415 37.5283C118.471 37.9782 121.456 39.2893 124.169 40.8622C127.518 42.7911 130.436 45.1211 128.838 46.7243Z"
                  fill="#F5FFFF"/>
            <path d="M120.665 55.589C118.318 56.3326 115.996 52.7201 114.364 49.2586C113.495 47.3952 112.737 45.4815 112.097 43.5258L113.029 42.8426L113.08 42.8191C113.499 42.6328 113.901 42.4128 114.282 42.1594C114.389 42.0889 114.49 42.0167 114.592 41.9395C115.075 42.5203 116.856 44.6959 118.515 47.1518C120.911 50.7023 123.049 54.8302 120.665 55.5873V55.589Z"
                  fill="#F5FFFF"/>
            <path d="M126.457 50.5262C124.594 52.0387 121.253 49.7019 118.516 47.1587C116.948 45.6831 115.474 44.1102 114.102 42.4482L114.282 42.1645C114.389 42.094 114.49 42.0219 114.592 41.9446C115.177 41.5098 115.692 40.9861 116.115 40.3902C116.147 40.3465 116.177 40.3029 116.207 40.2559C117.938 41.2261 123.42 44.4123 125.84 47.1604C127.01 48.4832 127.468 49.7036 126.455 50.5245L126.457 50.5262Z"
                  fill="#F5FFFF"/>
            <path d="M112.645 57.8942C111.778 57.7666 111.154 57.1405 110.712 56.2155C109.092 52.8363 109.9 45.455 110.125 43.6756L110.269 43.6521C111.216 43.4977 112.144 43.2274 113.027 42.8497L113.078 42.8262C113.193 43.2811 113.901 46.145 114.359 49.2573C114.988 53.5279 115.144 58.2652 112.645 57.8942Z"
                  fill="#F5FFFF"/>
            <path d="M110.712 56.2158C110.364 58.1463 109.633 59.3969 108.26 59.0544C107.307 58.8177 106.7 58.0237 106.333 56.9091C105.102 53.1622 106.61 45.8044 107.027 43.9344H107.312C107.757 43.9209 108.186 43.8974 108.604 43.8622C109.133 43.8185 109.638 43.7564 110.126 43.6758L110.27 43.6523C110.522 45.3999 111.426 52.2456 110.712 56.2158Z"
                  fill="#F5FFFF"/>
            <path d="M106.873 43.9277C106.533 45.1632 104.887 50.9279 102.86 54.6026C101.569 56.941 100.123 58.4317 98.758 57.364C96.8345 55.8599 98.2365 52.0728 100.076 48.7187C101.21 46.6875 102.476 44.7335 103.863 42.8701C104.014 42.9692 104.168 43.0632 104.324 43.1488C105.065 43.5735 105.887 43.8337 106.735 43.9143C106.779 43.9227 106.833 43.9243 106.875 43.9277H106.873Z"
                  fill="#F5FFFF"/>
            <path d="M109.761 44.0896C109.761 44.0896 108.639 53.6549 106.335 56.9082C105.667 57.8483 104.902 58.2629 104.035 57.7677C103.068 57.2137 102.766 56.0437 102.86 54.6017C103.098 50.9001 105.932 45.4024 106.73 43.9167C106.777 43.9167 106.826 43.9251 106.873 43.9268C106.92 43.9302 106.975 43.9268 107.027 43.9335H107.312C107.757 43.9201 108.186 43.8966 108.604 43.8613L109.759 44.088L109.761 44.0896Z"
                  fill="#F5FFFF"/>
            <path d="M104.322 43.143C103.002 45.0718 101.585 46.9318 100.074 48.7129C97.4617 51.748 94.4079 54.4776 93.13 52.5118C91.6073 50.175 95.5147 46.3426 98.6624 43.7909C100.247 42.5051 101.642 41.5465 102.053 41.2695C102.104 41.3283 102.154 41.3837 102.206 41.4408C102.692 41.9847 103.247 42.4648 103.856 42.866C104.015 42.9701 104.166 43.0624 104.324 43.143H104.322Z"
                  fill="#F5FFFF"/>
            <path d="M99.9017 33.267C99.6769 34.2323 99.6317 35.2294 99.7641 36.2115C97.2571 35.9949 84.5203 34.6738 86.3516 31.0847C87.4165 28.9998 91.2836 29.7333 94.7282 30.9017C96.5091 31.5195 98.2532 32.2396 99.952 33.0572C99.9335 33.1277 99.9168 33.1965 99.9 33.2653L99.9017 33.267Z"
                  fill="#F5FFFF"/>
            <path d="M101.2 30.4491C101.164 30.4978 101.129 30.5464 101.097 30.5951C100.576 31.3438 100.19 32.1781 99.9554 33.0611C99.9369 33.13 99.9201 33.1988 99.9034 33.2676C98.9777 32.8849 96.8865 32.0086 94.7282 30.904C90.9198 28.9567 86.8967 26.3094 88.6525 24.4863C89.922 23.1652 92.3452 24.0062 94.7534 25.4566C97.4701 27.0917 100.173 29.4973 101.201 30.4491H101.2Z"
                  fill="#F5FFFF"/>
            <path d="M103.2 28.4645C103.147 28.5031 103.096 28.5418 103.046 28.5787C102.667 28.8624 102.311 29.1763 101.983 29.5171C101.701 29.8109 101.439 30.1231 101.2 30.4538C101.164 30.5025 101.129 30.5512 101.097 30.5998C100.024 29.8344 97.1028 27.7058 94.7516 25.463C92.2512 23.0675 90.4015 20.5562 92.1221 19.4449C94.8338 17.6906 99.5009 23.3143 101.859 26.5357C102.516 27.4439 102.994 28.1456 103.2 28.4645Z"
                  fill="#F5FFFF"/>
            <path d="M105.788 27.013C105.712 27.0416 105.635 27.0751 105.561 27.107C104.725 27.4629 103.931 27.9162 103.2 28.4601C103.147 28.4987 103.096 28.5373 103.046 28.5742C102.907 28.3442 102.454 27.5939 101.862 26.543C99.578 22.4805 95.2346 13.9292 98.815 13.3652C101.297 12.974 103.113 16.8569 104.272 20.6105C104.906 22.7122 105.412 24.8492 105.786 27.013H105.788Z"
                  fill="#F5FFFF"/>
            <path d="M102.231 41.4851C102.231 41.4851 100.708 42.5578 98.6657 43.7983C94.7315 46.1821 88.8923 49.1752 88.2768 46.2979C87.7418 43.7899 91.9293 41.757 95.5985 40.4795C97.242 39.9138 98.9139 39.4304 100.606 39.0342C100.653 39.1383 100.703 39.2407 100.757 39.3414C101.097 40.0028 101.51 40.6256 101.99 41.193L102.06 41.2752C102.11 41.334 102.161 41.3894 102.213 41.4465L102.231 41.4868V41.4851Z"
                  fill="#F5FFFF"/>
            <path d="M100.754 39.3391C100.438 39.4214 98.2465 39.9921 95.5935 40.4773C90.8392 41.3485 84.6075 41.9495 85.0201 38.9983C85.612 34.7697 97.2839 35.9347 99.7675 36.2318C99.8983 37.2038 100.182 38.1489 100.604 39.0319C100.651 39.136 100.702 39.2384 100.755 39.3391H100.754Z"
                  fill="#F5FFFF"/>
            <path d="M108.575 26.3547C108.485 26.3547 108.392 26.3698 108.302 26.3798C108.062 26.4067 107.827 26.4403 107.599 26.4839C106.98 26.6014 106.373 26.7777 105.786 27.011C105.711 27.0396 105.634 27.0715 105.56 27.105C105.349 26.2607 104.688 23.5126 104.267 20.6051C103.658 16.4117 103.546 11.8826 105.993 12.2385C107.715 12.4936 108.486 14.6944 108.785 17.3199C109.174 20.7763 108.743 24.9563 108.573 26.3563L108.575 26.3547Z"
                  fill="#F5FFFF"/>
            <path d="M108.785 17.3194L108.885 16.6982C108.885 16.6982 109.989 19.1441 108.885 26.3357L108.575 26.3541C108.575 26.3541 109.595 22.9682 108.785 17.3177V17.3194Z"
                  fill="#E9F4F4"/>
            <path d="M105.561 27.1063L105.342 27.202C105.342 27.202 104.52 25.2379 104.044 19.9131L104.327 21.0143C104.327 21.0143 105.065 25.2883 105.561 27.1046V27.1063Z"
                  fill="#E9F4F4"/>
            <path d="M118.069 18.2646C118.069 18.2646 117.071 22.1643 114.446 27.7644C114.263 27.657 114.144 27.5898 114.144 27.5898C114.144 27.5898 115.275 26.1411 117.721 18.7095L118.069 18.2646Z"
                  fill="#E9F4F4"/>
            <path d="M113.66 14.7108L113.817 14.3516C113.817 14.3516 113.049 22.317 111.753 26.6615L111.372 26.5574C111.372 26.5574 112.414 23.7926 113.66 14.7125V14.7108Z"
                  fill="#E9F4F4"/>
            <path d="M101.859 26.5358L101.605 26.1816C101.605 26.1816 101.953 27.1486 102.947 28.6695L103.143 28.505C102.632 27.9073 102.199 27.2459 101.859 26.5358Z"
                  fill="#E9F4F4"/>
            <path d="M94.7533 25.4579L94.3643 25.0752C94.3643 25.0752 97.3308 26.7237 101.238 30.3665L101.097 30.5914C101.097 30.5914 97.3912 27.2592 94.7533 25.4596V25.4579Z"
                  fill="#E9F4F4"/>
            <path d="M94.7248 30.9036L94.0775 30.6904C94.0775 30.6904 94.8389 31.4223 99.8648 33.4301L99.9 33.2672C99.9 33.2672 96.4974 31.8588 94.7248 30.9036Z"
                  fill="#E9F4F4"/>
            <path d="M97.4801 36.0107C97.4801 36.0107 99.2427 36.1618 99.7642 36.2138L99.786 36.3632C98.8519 36.3347 97.9229 36.2054 97.0156 35.9805L97.4801 36.0107Z"
                  fill="#E9F4F4"/>
            <path d="M95.5063 40.4938C97.2772 40.2185 99.0296 39.8324 100.754 39.3389L100.847 39.5118C100.847 39.5118 98.6104 40.5039 94.921 40.7188L95.508 40.4938H95.5063Z"
                  fill="#E9F4F4"/>
            <path d="M102.209 41.4444C100.948 42.1024 99.7592 42.8914 98.6624 43.7962L97.9681 44.2125C97.9681 44.2125 99.35 42.9367 102.021 41.2295L102.211 41.4444H102.209Z"
                  fill="#E9F4F4"/>
            <path d="M100.074 48.7184C100.074 48.7184 103.883 44.1137 104.322 43.1484L104.631 43.3113C104.631 43.3113 101.575 47.451 99.7843 49.2589L100.074 48.7201V48.7184Z"
                  fill="#E9F4F4"/>
            <path d="M106.873 43.9269C106.873 43.9269 103.462 49.9434 102.86 54.6018C102.655 54.9661 102.607 55.0551 102.607 55.0551C102.607 55.0551 103.241 49.8108 106.66 43.9102L106.875 43.9286L106.873 43.9269Z"
                  fill="#E9F4F4"/>
            <path d="M106.333 56.9085C106.333 56.9085 109.44 51.7247 109.462 43.7726L109.59 43.7559C109.59 43.7559 109.813 50.8316 106.38 57.0579C106.36 57.0092 106.345 56.9589 106.333 56.9068V56.9085Z"
                  fill="#E9F4F4"/>
            <path d="M110.712 56.215C110.712 56.215 109.115 51.8437 109.169 48.7129L109.092 49.1561C109.092 49.1561 108.949 50.9825 110.671 56.4232L110.71 56.2133L110.712 56.215Z"
                  fill="#E9F4F4"/>
            <path d="M113.079 42.8259C113.079 42.8259 113.765 45.4799 114.361 49.257L114.45 49.4417C114.158 47.1956 113.74 44.9696 113.197 42.7705L113.079 42.8242V42.8259Z"
                  fill="#E9F4F4"/>
            <path d="M118.516 47.1585C118.516 47.1585 115.322 44.0529 114.282 42.166L114.154 42.2483C114.154 42.2483 115.201 44.0781 118.966 47.8484L118.515 47.1585H118.516Z"
                  fill="#E9F4F4"/>
            <path d="M116.214 40.2573C116.214 40.2573 123.269 44.0864 125.846 47.1618C126.086 47.2256 124.082 44.5799 116.328 40.0928L116.214 40.2573Z"
                  fill="#E9F4F4"/>
            <path d="M124.173 40.8532C121.842 39.9097 119.583 38.7951 117.416 37.5176L117.366 37.7006C119.685 39.0452 122.113 40.1884 124.626 41.1167L124.174 40.8515L124.173 40.8532Z"
                  fill="#E9F4F4"/>
            <path d="M117.897 34.81C117.897 34.81 125.913 35.4916 129.769 37.7041L130.069 37.6689C130.069 37.6689 126.064 35.4698 117.913 34.5918L117.897 34.81Z"
                  fill="#E9F4F4"/>
            <path d="M118.105 25.7515C117.401 26.8158 116.506 27.7358 115.463 28.4643C115.617 28.5919 115.555 28.5399 115.555 28.5399C115.555 28.5399 117.45 27.076 118.493 25.498L118.105 25.7515Z"
                  fill="#E9F4F4"/>
            <path d="M121.892 28.2412C121.892 28.2412 118.872 29.0252 117.024 30.2959L117.081 30.3967C117.081 30.3967 119.486 28.9614 121.292 28.4913L121.892 28.2412Z"
                  fill="#E9F4F4"/>
            <path d="M117.85 32.8156C117.85 32.8156 120.45 32.9801 126.708 32.3506L127.066 32.3707C127.066 32.3707 124.527 32.9146 117.879 33.0456L117.85 32.8139V32.8156Z"
                  fill="#E9F4F4"/>
            <path d="M124.451 39.9376C122.208 47.7668 116.054 50.9287 106.026 51.231C102.436 51.339 98.8707 49.3153 96.2298 46.1904C91.5056 40.5915 89.7707 31.4636 96.2298 24.7295C96.2298 24.7295 100.233 20.3584 106.553 19.1677C109.428 18.6309 112.393 18.8376 115.166 19.7661C126.248 23.3846 126.698 32.1176 124.451 39.9376Z"
                  fill="#FFCD50"/>
            <path d="M96.2358 46.2005C91.5116 40.6016 89.7766 31.4737 96.2358 24.7396C96.2358 24.7396 100.239 20.3685 106.559 19.1777C99.8813 22.099 89.6472 29.4871 96.2358 46.2005Z"
                  fill="#FFC033"/>
            <path d="M108.652 37.7513C109.244 38.5687 110.427 38.6459 111.311 38.3405C111.626 38.2294 111.897 38.0196 112.091 37.7482C112.113 37.7173 112.143 37.6957 112.18 37.6896C112.217 37.6834 112.254 37.6896 112.285 37.7112C112.304 37.7235 112.319 37.742 112.328 37.7605C112.338 37.779 112.344 37.8037 112.344 37.8253C112.334 38.0567 112.261 38.2849 112.128 38.4762C111.327 39.6145 109.385 39.6176 108.578 38.4762C108.464 38.3065 108.177 37.7112 108.513 37.668C108.541 37.668 108.569 37.6772 108.593 37.6896C108.618 37.705 108.637 37.7235 108.652 37.7482V37.7543V37.7513Z"
                  fill="#302826"/>
            <path d="M113.444 34.9929C113.619 33.3024 115.268 32.087 116.917 31.9451C118.226 31.8094 119.743 32.3245 120.565 33.4597C120.886 33.8484 121.052 34.342 121.031 34.8448C121.015 35.0052 120.957 35.1564 120.858 35.2798C120.76 35.4062 120.627 35.4988 120.476 35.5512C120.325 35.6037 120.165 35.6067 120.011 35.5666C119.857 35.5265 119.718 35.4432 119.61 35.3229C119.385 35.0823 119.194 34.814 119.046 34.5209C118.815 34.1445 118.507 33.8268 118.137 33.5893C117.767 33.3518 117.351 33.2006 116.917 33.1482C115.607 32.9723 114.168 33.7189 113.7 35.0391C113.687 35.07 113.666 35.0947 113.638 35.107C113.61 35.1224 113.576 35.1255 113.545 35.1193C113.515 35.1132 113.487 35.0947 113.468 35.07C113.45 35.0453 113.441 35.0145 113.441 34.9805V34.9867L113.444 34.9929Z"
                  fill="#302826"/>
            <path d="M107.04 35.0471C106.575 33.7299 105.133 32.9803 103.823 33.1561C103.388 33.2085 102.969 33.3597 102.603 33.5972C102.233 33.8348 101.922 34.1525 101.694 34.5258C101.364 35.1581 100.76 36.0126 99.9802 35.3926C99.4316 34.8589 99.7829 33.9705 100.171 33.4584C101 32.3232 102.504 31.8173 103.82 31.9438C105.469 32.0795 107.12 33.2949 107.296 34.9916C107.296 35.0224 107.287 35.0533 107.268 35.081C107.25 35.1057 107.222 35.1242 107.191 35.1304C107.16 35.1365 107.126 35.1304 107.099 35.118C107.071 35.1026 107.049 35.0779 107.037 35.0502V35.044L107.04 35.0471Z"
                  fill="#302826"/>
            <path opacity="0.35"
                  d="M101.213 39.4555C102.085 39.4555 102.793 39.0823 102.793 38.6257C102.793 38.1692 102.085 37.7959 101.213 37.7959C100.34 37.7959 99.6317 38.1692 99.6317 38.6257C99.6317 39.0823 100.34 39.4555 101.213 39.4555Z"
                  fill="#FF6E79"/>
            <path opacity="0.35"
                  d="M120.14 39.4555C121.012 39.4555 121.721 39.0823 121.721 38.6257C121.721 38.1692 121.012 37.7959 120.14 37.7959C119.268 37.7959 118.559 38.1692 118.559 38.6257C118.559 39.0823 119.268 39.4555 120.14 39.4555Z"
                  fill="#FF6E79"/>
        </g>
    </g>
    <defs>
        <filter id="filter0_d_254_923" x="0" y="0" width="150" height="79" filterUnits="userSpaceOnUse"
                color-interpolation-filters="sRGB">
            <feFlood flood-opacity="0" result="BackgroundImageFix"/>
            <feColorMatrix in="SourceAlpha" type="matrix" values="0 0 0 0 0 0 0 0 0 0 0 0 0 0 0 0 0 0 127 0"
                           result="hardAlpha"/>
            <feColorMatrix type="matrix" values="0 0 0 0 0 0 0 0 0 0 0 0 0 0 0 0 0 0 0.25 0"/>
            <feBlend mode="normal" in2="BackgroundImageFix" result="effect1_dropShadow_254_923"/>
            <feBlend mode="normal" in="SourceGraphic" in2="effect1_dropShadow_254_923" result="shape"/>
        </filter>
        <linearGradient id="paint0_linear_254_923" x1="109" y1="4" x2="109" y2="68" gradientUnits="userSpaceOnUse">
            <stop stop-color="#CDDDA7"/>
            <stop offset="1" stop-color="#A2DAAF"/>
        </linearGradient>
        <clipPath id="clip0_254_923">
            <rect width="48.5387" height="47.1111" fill="white" transform="translate(85 12)"/>
        </clipPath>
    </defs>
</svg>
