<svg width="72" height="72" viewBox="0 0 72 72" fill="none" xmlns="http://www.w3.org/2000/svg">
<circle cx="36" cy="36" r="36" fill="url(#paint0_linear_216_1242)"/>
<g clip-path="url(#clip0_216_1242)">
<path d="M38.6707 25.3697L38.4349 25.3187C37.4765 25.1242 36.4973 25.0657 35.5238 25.1431C35.422 25.1431 35.3182 25.1601 35.2163 25.1714C35.1918 23.7135 35.1673 18.96 35.7597 14.9771C36.303 11.3284 37.3671 8.32565 39.4329 9.13206C40.5083 9.55132 41.0497 10.6297 41.244 12.0499C41.8327 16.2972 39.3178 23.5907 38.6707 25.3697Z" fill="#F5FFFF"/>
<path d="M46.2436 24.4712C44.7324 26.0179 43.4571 27.1491 43.1665 27.4041L43.1458 27.4229C42.7137 27.0868 42.2553 26.7884 41.7723 26.5334C41.4554 26.3635 41.1214 26.2029 40.763 26.0538L40.2725 25.7667C40.2725 25.7667 42.925 20.424 45.8191 16.5563C48 13.6423 50.3187 11.5649 51.7431 13.24C53.9127 15.7895 49.5225 21.1096 46.2436 24.4712Z" fill="#F5FFFF"/>
<path d="M45.8154 16.5464C44.5702 21.3131 41.7988 26.5368 41.7988 26.5368H41.7724C41.4554 26.3668 41.1215 26.2063 40.763 26.0571C40.4291 25.9135 40.0763 25.7851 39.7046 25.6642C39.3556 25.5509 39.0123 25.4565 38.6745 25.3772L38.4387 25.3262C38.6689 23.1978 39.5292 16.1573 41.2479 12.0517C42.1893 9.79862 43.3892 8.42754 44.889 9.23584C46.804 10.2689 46.6643 13.3075 45.8154 16.5464Z" fill="#F5FFFF"/>
<path d="M49.8281 27.5526C47.6698 28.4289 45.6549 29.0351 44.838 29.2749C44.7908 29.1994 44.7437 29.1276 44.6946 29.0559C44.2796 28.4629 43.7815 27.9341 43.2174 27.4846L43.1684 27.4091L42.8401 26.9086C42.8401 26.9086 44.2815 25.7906 46.2398 24.4667C50.1375 21.8397 56.086 18.4045 56.8538 21.3468C57.5047 23.8359 53.4674 26.0757 49.8281 27.5507V27.5526Z" fill="#F5FFFF"/>
<path d="M61.261 28.3613C61.1176 30.2989 58.7801 31.3471 55.9238 31.8966C52.2562 32.6067 47.7472 32.4991 45.9587 32.4198C45.9492 32.3386 45.936 32.2592 45.9228 32.178C45.7681 31.1431 45.3984 30.1535 44.8399 29.2716C44.7927 29.196 44.7456 29.1243 44.6965 29.0525C45.47 28.7975 47.4736 28.1573 49.8375 27.553C54.854 26.2726 61.4911 25.1697 61.261 28.3613Z" fill="#F5FFFF"/>
<path d="M61.0403 40.9595C59.9291 42.9916 56.4973 42.5497 53.0694 41.46C49.847 40.4326 46.6266 38.8293 45.3418 38.157C45.3569 38.1078 45.372 38.0587 45.3852 38.0134C45.4135 37.9133 45.4418 37.8132 45.4701 37.7113C45.621 37.1522 45.755 36.5876 45.8455 36.0229C45.9229 35.5697 45.9795 35.1145 46.0134 34.665C48.2981 34.9389 55.8087 35.9681 59.3687 37.9209C60.8931 38.7575 61.6893 39.766 61.0403 40.9595Z" fill="#F5FFFF"/>
<path d="M63.5118 35.5092C63.059 37.0069 61.4516 37.7 59.3707 37.9171C54.7353 38.4044 47.7454 36.5536 45.8494 36.0192C45.9267 35.5659 45.9833 35.1108 46.0173 34.6613C46.0776 33.9134 46.0607 33.1618 45.9644 32.4177C45.955 32.3365 45.9418 32.2572 45.9286 32.176C47.5718 32.0324 51.945 31.6944 55.9239 31.8889C60.3366 32.1174 64.2721 32.9956 63.5118 35.5092Z" fill="#F5FFFF"/>
<path d="M58.3178 48.0642C57.5066 48.8781 56.318 48.9442 54.9521 48.5571C50.9921 47.4296 45.6002 42.4665 44.0098 40.9463C44.0456 40.8972 44.0796 40.8481 44.1135 40.7952C44.655 39.9869 45.0663 39.0993 45.3379 38.1644C45.353 38.1153 45.3681 38.0662 45.3813 38.0209C45.4096 37.9208 45.4379 37.8207 45.4662 37.7188C46.6548 38.2249 50.013 39.6998 53.0655 41.4694C56.8331 43.6393 60.1158 46.2606 58.3178 48.0642Z" fill="#F5FFFF"/>
<path d="M49.1226 58.0374C46.4832 58.874 43.8703 54.8098 42.0346 50.9157C41.0573 48.8194 40.2046 46.6665 39.4839 44.4663L40.5328 43.6977L40.5894 43.6712C41.0611 43.4616 41.5139 43.2142 41.9421 42.929C42.0629 42.8497 42.1761 42.7685 42.2912 42.6816C42.8345 43.3351 44.8381 45.7826 46.7039 48.5456C49.3999 52.5398 51.8053 57.1837 49.1226 58.0355V58.0374Z" fill="#F5FFFF"/>
<path d="M55.6389 52.3422C53.5429 54.0437 49.7847 51.4149 46.7058 48.5538C44.9418 46.8937 43.2835 45.1242 41.7402 43.2545L41.9421 42.9354C42.0628 42.856 42.176 42.7748 42.2911 42.688C42.9496 42.1988 43.5287 41.6096 44.0042 40.9392C44.04 40.8901 44.074 40.841 44.1079 40.7881C46.0549 41.8797 52.2222 45.4641 54.9446 48.5557C56.2615 50.0438 56.7765 51.4168 55.637 52.3403L55.6389 52.3422Z" fill="#F5FFFF"/>
<path d="M40.1008 60.6312C39.1254 60.4877 38.4236 59.7833 37.9256 58.7427C36.1031 54.9411 37.0124 46.6371 37.2652 44.6353L37.4275 44.6088C38.4934 44.4351 39.5367 44.131 40.531 43.7061L40.5876 43.6797C40.7177 44.1915 41.5139 47.4133 42.0289 50.9147C42.7364 55.7191 42.9119 61.0486 40.1008 60.6312Z" fill="#F5FFFF"/>
<path d="M37.9254 58.7422C37.5349 60.9141 36.7123 62.321 35.1672 61.9358C34.0956 61.6695 33.4126 60.7762 32.9995 59.5222C31.6147 55.307 33.3107 47.0295 33.7805 44.9257H34.1012C34.6012 44.9106 35.0842 44.8841 35.5539 44.8445C36.1501 44.7954 36.718 44.7255 37.267 44.6348L37.4292 44.6084C37.7122 46.5744 38.7291 54.2758 37.9254 58.7422Z" fill="#F5FFFF"/>
<path d="M33.607 44.9183C33.224 46.3083 31.3732 52.7935 29.0923 56.9275C27.6396 59.5583 26.0134 61.2353 24.4777 60.0342C22.3137 58.342 23.8909 54.0815 25.9605 50.3082C27.2359 48.0231 28.6603 45.8248 30.2205 43.7285C30.3903 43.8399 30.5639 43.9457 30.7393 44.042C31.5732 44.5198 32.4977 44.8125 33.4523 44.9032C33.5013 44.9126 33.5617 44.9145 33.6089 44.9183H33.607Z" fill="#F5FFFF"/>
<path d="M36.8557 45.1016C36.8557 45.1016 35.5936 55.8625 33.0014 59.5225C32.2505 60.58 31.3902 61.0465 30.4148 60.4894C29.3262 59.8662 28.9866 58.5499 29.0923 56.9276C29.3602 52.7634 32.5486 46.5784 33.4466 44.907C33.4994 44.907 33.5541 44.9165 33.607 44.9184C33.6598 44.9222 33.722 44.9184 33.7805 44.9259H34.1012C34.6012 44.9108 35.0842 44.8844 35.5539 44.8447L36.8538 45.0997L36.8557 45.1016Z" fill="#F5FFFF"/>
<path d="M30.7376 44.0363C29.2529 46.2063 27.6587 48.2988 25.9588 50.3025C23.0195 53.717 19.584 56.7877 18.1464 54.5763C16.4333 51.9474 20.8291 47.6359 24.3703 44.7653C26.1532 43.3187 27.7228 42.2403 28.185 41.9287C28.2416 41.9948 28.2982 42.0571 28.3567 42.1213C28.9038 42.7332 29.5283 43.2734 30.2132 43.7247C30.3924 43.8418 30.5622 43.9457 30.7395 44.0363H30.7376Z" fill="#F5FFFF"/>
<path d="M25.7644 32.9255C25.5116 34.0114 25.4607 35.1332 25.6097 36.238C22.7893 35.9944 8.46045 34.5081 10.5206 30.4704C11.7186 28.1248 16.0692 28.9501 19.9443 30.2646C21.9478 30.9595 23.9099 31.7697 25.821 32.6894C25.8003 32.7688 25.7814 32.8462 25.7626 32.9236L25.7644 32.9255Z" fill="#F5FFFF"/>
<path d="M27.2245 29.7553C27.1849 29.8101 27.1453 29.8649 27.1095 29.9196C26.5227 30.7619 26.0888 31.7005 25.8247 32.6939C25.8039 32.7713 25.7851 32.8488 25.7662 32.9262C24.7248 32.4956 22.3722 31.5098 19.9441 30.2671C15.6596 28.0764 11.1336 25.0982 13.1089 23.0472C14.5371 21.561 17.2632 22.5071 19.9724 24.1388C23.0287 25.9783 26.0699 28.6845 27.2264 29.7553H27.2245Z" fill="#F5FFFF"/>
<path d="M29.4754 27.5231C29.415 27.5665 29.3584 27.61 29.3018 27.6515C28.8754 27.9707 28.4755 28.3238 28.1057 28.7072C27.7887 29.0377 27.4944 29.389 27.2246 29.761C27.185 29.8158 27.1454 29.8705 27.1096 29.9253C25.9021 29.0641 22.6157 26.6695 19.9706 24.1464C17.1577 21.4514 15.0768 18.6262 17.0124 17.376C20.0631 15.4024 25.3135 21.729 27.9661 25.3532C28.7056 26.3749 29.2433 27.1643 29.4754 27.5231Z" fill="#F5FFFF"/>
<path d="M32.3864 25.8894C32.3015 25.9215 32.2147 25.9593 32.1317 25.9952C31.1903 26.3955 30.2979 26.9054 29.4753 27.5173C29.4149 27.5608 29.3584 27.6042 29.3018 27.6458C29.1452 27.387 28.6358 26.5428 27.9698 25.3606C25.4002 20.7903 20.5139 11.1701 24.5418 10.5356C27.334 10.0955 29.3772 14.4637 30.6809 18.6865C31.394 21.051 31.9638 23.4551 32.3845 25.8894H32.3864Z" fill="#F5FFFF"/>
<path d="M28.385 42.1704C28.385 42.1704 26.672 43.3771 24.3741 44.7728C19.9481 47.4545 13.3789 50.8218 12.6865 47.5848C12.0847 44.7633 16.7956 42.4763 20.9235 41.0391C22.7724 40.4027 24.6533 39.8588 26.5569 39.4131C26.6097 39.5302 26.6663 39.6454 26.7267 39.7587C27.1097 40.5028 27.5738 41.2034 28.1134 41.8417L28.1926 41.9343C28.2492 42.0004 28.3058 42.0627 28.3643 42.1269L28.385 42.1722V42.1704Z" fill="#F5FFFF"/>
<path d="M26.7228 39.7565C26.3681 39.849 23.9023 40.4911 20.9177 41.0369C15.5692 42.0171 8.55852 42.6932 9.02263 39.3731C9.6886 34.6159 22.8194 35.9265 25.6135 36.2608C25.7606 37.3543 26.0795 38.4175 26.5549 39.4109C26.6077 39.528 26.6643 39.6432 26.7247 39.7565H26.7228Z" fill="#F5FFFF"/>
<path d="M35.5219 25.149C35.42 25.149 35.3162 25.166 35.2143 25.1773C34.9446 25.2075 34.6804 25.2453 34.4239 25.2944C33.7277 25.4266 33.0447 25.6249 32.3844 25.8874C32.2995 25.9195 32.2127 25.9554 32.1297 25.9932C31.892 25.0432 31.1487 21.9517 30.6752 18.6807C29.9903 13.9632 29.8639 8.86789 32.6165 9.26826C34.554 9.55532 35.4219 12.0312 35.7577 14.9849C36.1954 18.8734 35.7105 23.5758 35.52 25.1509L35.5219 25.149Z" fill="#F5FFFF"/>
<path d="M35.7578 14.9849L35.871 14.2861C35.871 14.2861 37.1124 17.0377 35.871 25.1282L35.522 25.149C35.522 25.149 36.669 21.3398 35.7578 14.983V14.9849Z" fill="#E9F4F4"/>
<path d="M32.1317 25.9947L31.8846 26.1024C31.8846 26.1024 30.9601 23.8928 30.4243 17.9023L30.7432 19.1412C30.7432 19.1412 31.5733 23.9495 32.1317 25.9929V25.9947Z" fill="#E9F4F4"/>
<path d="M46.202 16.0479C46.202 16.0479 45.0795 20.4349 42.1269 26.7351C41.9213 26.6142 41.7874 26.5387 41.7874 26.5387C41.7874 26.5387 43.0589 24.9089 45.8115 16.5483L46.202 16.0479Z" fill="#E9F4F4"/>
<path d="M41.2423 12.0497L41.4196 11.6455C41.4196 11.6455 40.5556 20.6066 39.0972 25.4942L38.6689 25.3771C38.6689 25.3771 39.8405 22.2667 41.2423 12.0515V12.0497Z" fill="#E9F4F4"/>
<path d="M27.966 25.3526L27.6812 24.9541C27.6812 24.9541 28.0717 26.0419 29.1904 27.7529L29.4112 27.5678C28.8358 26.8955 28.349 26.1514 27.966 25.3526Z" fill="#E9F4F4"/>
<path d="M19.9726 24.1405L19.5349 23.71C19.5349 23.71 22.8723 25.5645 27.2681 29.6626L27.1097 29.9157C27.1097 29.9157 22.9402 26.167 19.9726 24.1424V24.1405Z" fill="#E9F4F4"/>
<path d="M19.9404 30.2672L19.2122 30.0273C19.2122 30.0273 20.0687 30.8507 25.7229 33.1094L25.7625 32.9263C25.7625 32.9263 21.9345 31.3418 19.9404 30.2672Z" fill="#E9F4F4"/>
<path d="M23.0402 36.0115C23.0402 36.0115 25.023 36.1815 25.6097 36.24L25.6343 36.4081C24.5834 36.376 23.5382 36.2306 22.5176 35.9775L23.0402 36.0115Z" fill="#E9F4F4"/>
<path d="M20.8196 41.0562C22.8118 40.7464 24.7833 40.3121 26.7228 39.7568L26.8284 39.9514C26.8284 39.9514 24.3117 41.0675 20.1611 41.3092L20.8214 41.0562H20.8196Z" fill="#E9F4F4"/>
<path d="M28.3603 42.1245C26.9416 42.8649 25.604 43.7525 24.3702 44.7704L23.5891 45.2387C23.5891 45.2387 25.1437 43.8035 28.149 41.8828L28.3622 42.1245H28.3603Z" fill="#E9F4F4"/>
<path d="M25.9587 50.3082C25.9587 50.3082 30.2432 45.1279 30.7375 44.042L31.0846 44.2252C31.0846 44.2252 27.6472 48.8823 25.6323 50.9163L25.9587 50.3101V50.3082Z" fill="#E9F4F4"/>
<path d="M33.6072 44.9183C33.6072 44.9183 29.7698 51.6868 29.0925 56.9275C28.8623 57.3373 28.8076 57.4374 28.8076 57.4374C28.8076 57.4374 29.5208 51.5376 33.3676 44.8994L33.609 44.9202L33.6072 44.9183Z" fill="#E9F4F4"/>
<path d="M32.9995 59.5223C32.9995 59.5223 36.4954 53.6905 36.5199 44.7445L36.6633 44.7256C36.6633 44.7256 36.9142 52.6858 33.0523 59.6904C33.0297 59.6356 33.0127 59.579 32.9995 59.5204V59.5223Z" fill="#E9F4F4"/>
<path d="M37.9256 58.7426C37.9256 58.7426 36.1295 53.8249 36.1899 50.3027L36.1031 50.8013C36.1031 50.8013 35.9427 52.856 37.8803 58.9768L37.9237 58.7407L37.9256 58.7426Z" fill="#E9F4F4"/>
<path d="M40.5894 43.6795C40.5894 43.6795 41.361 46.6653 42.0307 50.9145L42.1307 51.1222C41.8024 48.5954 41.3327 46.0912 40.7214 43.6172L40.5894 43.6776V43.6795Z" fill="#E9F4F4"/>
<path d="M46.7059 48.554C46.7059 48.554 43.1119 45.0602 41.9422 42.9375L41.7988 43.03C41.7988 43.03 42.9761 45.0885 47.2115 49.3302L46.704 48.554H46.7059Z" fill="#E9F4F4"/>
<path d="M44.1155 40.7896C44.1155 40.7896 52.0525 45.0973 54.9522 48.5571C55.222 48.6289 52.9675 45.6526 44.2438 40.6045L44.1155 40.7896Z" fill="#E9F4F4"/>
<path d="M53.0694 41.4605C50.447 40.3992 47.9057 39.1452 45.4682 37.708L45.4116 37.9139C48.0208 39.4266 50.7526 40.7127 53.5788 41.757L53.0713 41.4586L53.0694 41.4605Z" fill="#E9F4F4"/>
<path d="M46.0095 34.6615C46.0095 34.6615 55.0275 35.4283 59.3648 37.9174L59.7025 37.8777C59.7025 37.8777 55.1973 35.4037 46.0265 34.416L46.0095 34.6615Z" fill="#E9F4F4"/>
<path d="M46.2436 24.4707C45.4512 25.6681 44.4437 26.703 43.2703 27.5226C43.4438 27.6661 43.374 27.6076 43.374 27.6076C43.374 27.6076 45.5059 25.9608 46.6794 24.1855L46.2436 24.4707Z" fill="#E9F4F4"/>
<path d="M50.5034 27.2715C50.5034 27.2715 47.1057 28.1534 45.0266 29.5831L45.0908 29.6964C45.0908 29.6964 47.7962 28.0817 49.828 27.5529L50.5034 27.2715Z" fill="#E9F4F4"/>
<path d="M45.9568 32.4177C45.9568 32.4177 48.881 32.6027 55.9219 31.8945L56.3237 31.9172C56.3237 31.9172 53.4674 32.5291 45.9889 32.6764L45.9568 32.4158V32.4177Z" fill="#E9F4F4"/>
<path d="M53.3829 40.4306C50.859 49.2385 43.9357 52.7956 32.6546 53.1357C28.6157 53.2572 24.6045 50.9806 21.6335 47.4651C16.3188 41.1663 14.3669 30.8975 21.6335 23.3216C21.6335 23.3216 26.1369 18.404 33.2474 17.0645C36.482 16.4606 39.8171 16.6931 42.9372 17.7377C55.404 21.8085 55.9102 31.6332 53.3829 40.4306Z" fill="#FFCD50"/>
<path d="M21.64 47.4758C16.3254 41.1771 14.3735 30.9082 21.64 23.3323C21.64 23.3323 26.1435 18.4148 33.254 17.0752C25.7413 20.3617 14.2279 28.6733 21.64 47.4758Z" fill="#FFC033"/>
<path d="M35.6082 37.9716C36.2738 38.8913 37.6051 38.978 38.6001 38.6345C38.9537 38.5095 39.2588 38.2736 39.4772 37.9682C39.5015 37.9335 39.5361 37.9092 39.5777 37.9022C39.6193 37.8953 39.6609 37.9022 39.6956 37.9265C39.7164 37.9404 39.7338 37.9612 39.7442 37.982C39.7546 38.0029 39.7615 38.0306 39.7615 38.0549C39.7511 38.3152 39.6679 38.572 39.5188 38.7872C38.6174 40.0678 36.4333 40.0712 35.525 38.7872C35.3967 38.5963 35.0743 37.9265 35.4522 37.8779C35.4834 37.8779 35.5146 37.8883 35.5423 37.9022C35.5701 37.9196 35.5909 37.9404 35.6082 37.9682V37.9751V37.9716Z" fill="#302826"/>
<path d="M40.9991 34.8677C41.1967 32.9659 43.0514 31.5986 44.9062 31.439C46.3796 31.2863 48.0853 31.8658 49.011 33.1429C49.3715 33.5802 49.5587 34.1355 49.5345 34.7011C49.5171 34.8816 49.4513 35.0516 49.3403 35.1905C49.2294 35.3327 49.0803 35.4369 48.9104 35.4958C48.7405 35.5548 48.5603 35.5583 48.3869 35.5132C48.2136 35.4681 48.0576 35.3744 47.9362 35.239C47.6832 34.9684 47.4682 34.6664 47.3018 34.3367C47.0418 33.9134 46.6951 33.5559 46.2791 33.2887C45.8631 33.0215 45.395 32.8514 44.9062 32.7924C43.4328 32.5946 41.8138 33.4344 41.2868 34.9198C41.273 34.9545 41.2487 34.9822 41.2175 34.9961C41.1863 35.0135 41.1482 35.0169 41.1135 35.01C41.0788 35.0031 41.0476 34.9822 41.0268 34.9545C41.006 34.9267 40.9956 34.892 40.9956 34.8538V34.8608L40.9991 34.8677Z" fill="#302826"/>
<path d="M33.7951 34.9286C33.2716 33.4467 31.6491 32.6034 30.1757 32.8012C29.6869 32.8602 29.2154 33.0303 28.8029 33.2975C28.3868 33.5647 28.0367 33.9222 27.7801 34.3421C27.4092 35.0535 26.7297 36.0148 25.8526 35.3173C25.2355 34.7169 25.6307 33.7174 26.0675 33.1413C27.0001 31.8642 28.6919 31.2951 30.1723 31.4374C32.027 31.5901 33.8853 32.9574 34.0829 34.8661C34.0829 34.9008 34.0725 34.9355 34.0517 34.9668C34.0309 34.9945 33.9997 35.0153 33.965 35.0223C33.9303 35.0292 33.8922 35.0223 33.861 35.0084C33.8298 34.991 33.8055 34.9633 33.7917 34.932V34.9251L33.7951 34.9286Z" fill="#302826"/>
<path opacity="0.35" d="M27.2392 39.8886C28.2203 39.8886 29.0177 39.4686 29.0177 38.955C29.0177 38.4414 28.2203 38.0215 27.2392 38.0215C26.2581 38.0215 25.4607 38.4414 25.4607 38.955C25.4607 39.4686 26.2581 39.8886 27.2392 39.8886Z" fill="#FF6E79"/>
<path opacity="0.35" d="M48.5326 39.8886C49.5138 39.8886 50.3111 39.4686 50.3111 38.955C50.3111 38.4414 49.5138 38.0215 48.5326 38.0215C47.5515 38.0215 46.7542 38.4414 46.7542 38.955C46.7542 39.4686 47.5515 39.8886 48.5326 39.8886Z" fill="#FF6E79"/>
</g>
<defs>
<linearGradient id="paint0_linear_216_1242" x1="36" y1="0" x2="36" y2="72" gradientUnits="userSpaceOnUse">
<stop stop-color="#CDDDA7"/>
<stop offset="1" stop-color="#A2DAAF"/>
</linearGradient>
<clipPath id="clip0_216_1242">
<rect width="54.6061" height="53" fill="white" transform="translate(9 9)"/>
</clipPath>
</defs>
</svg>
