<svg width="55" height="53" viewBox="0 0 55 53" fill="none" xmlns="http://www.w3.org/2000/svg">
<g clip-path="url(#clip0_216_4349)">
<path d="M29.6707 16.3697L29.4349 16.3187C28.4765 16.1242 27.4973 16.0657 26.5238 16.1431C26.422 16.1431 26.3182 16.1601 26.2163 16.1714C26.1918 14.7135 26.1673 9.96003 26.7597 5.97709C27.303 2.32843 28.3671 -0.674346 30.4329 0.132061C31.5083 0.551317 32.0497 1.62967 32.244 3.04986C32.8327 7.29718 30.3178 14.5907 29.6707 16.3697Z" fill="#F5FFFF"/>
<path d="M37.2436 15.4712C35.7324 17.0179 34.4571 18.1491 34.1665 18.4041L34.1458 18.4229C33.7137 18.0868 33.2553 17.7884 32.7723 17.5334C32.4554 17.3635 32.1214 17.2029 31.763 17.0538L31.2725 16.7667C31.2725 16.7667 33.925 11.424 36.8191 7.55628C39 4.64226 41.3187 2.56487 42.7431 4.24C44.9127 6.78953 40.5225 12.1096 37.2436 15.4712Z" fill="#F5FFFF"/>
<path d="M36.8154 7.54638C35.5702 12.3131 32.7988 17.5368 32.7988 17.5368H32.7724C32.4554 17.3668 32.1215 17.2063 31.763 17.0571C31.4291 16.9135 31.0763 16.7851 30.7046 16.6642C30.3556 16.5509 30.0123 16.4565 29.6745 16.3772L29.4387 16.3262C29.6689 14.1978 30.5292 7.15734 32.2479 3.05165C33.1893 0.798622 34.3892 -0.572459 35.889 0.235837C37.804 1.26887 37.6643 4.30753 36.8154 7.54638Z" fill="#F5FFFF"/>
<path d="M40.8281 18.5526C38.6698 19.4289 36.6549 20.0351 35.838 20.2749C35.7908 20.1994 35.7437 20.1276 35.6946 20.0559C35.2796 19.4629 34.7815 18.9341 34.2174 18.4846L34.1684 18.4091L33.8401 17.9086C33.8401 17.9086 35.2815 16.7906 37.2398 15.4667C41.1375 12.8397 47.086 9.40449 47.8538 12.3468C48.5047 14.8359 44.4674 17.0757 40.8281 18.5507V18.5526Z" fill="#F5FFFF"/>
<path d="M52.261 19.3613C52.1176 21.2989 49.7801 22.3471 46.9238 22.8966C43.2562 23.6067 38.7472 23.4991 36.9587 23.4198C36.9492 23.3386 36.936 23.2592 36.9228 23.178C36.7681 22.1431 36.3984 21.1535 35.8399 20.2716C35.7927 20.196 35.7456 20.1243 35.6965 20.0525C36.47 19.7975 38.4736 19.1573 40.8375 18.553C45.854 17.2726 52.4911 16.1697 52.261 19.3613Z" fill="#F5FFFF"/>
<path d="M52.0403 31.9595C50.9291 33.9916 47.4973 33.5497 44.0694 32.46C40.847 31.4326 37.6266 29.8293 36.3418 29.157C36.3569 29.1078 36.372 29.0587 36.3852 29.0134C36.4135 28.9133 36.4418 28.8132 36.4701 28.7113C36.621 28.1522 36.755 27.5876 36.8455 27.0229C36.9229 26.5697 36.9795 26.1145 37.0134 25.665C39.2981 25.9389 46.8087 26.9681 50.3687 28.9209C51.8931 29.7575 52.6893 30.766 52.0403 31.9595Z" fill="#F5FFFF"/>
<path d="M54.5117 26.5092C54.0589 28.0069 52.4515 28.7 50.3706 28.9171C45.7352 29.4044 38.7453 27.5536 36.8492 27.0192C36.9266 26.5659 36.9832 26.1108 37.0172 25.6613C37.0775 24.9134 37.0605 24.1618 36.9643 23.4177C36.9549 23.3365 36.9417 23.2572 36.9285 23.176C38.5717 23.0324 42.9449 22.6944 46.9237 22.8889C51.3365 23.1174 55.272 23.9956 54.5117 26.5092Z" fill="#F5FFFF"/>
<path d="M49.3179 39.0642C48.5067 39.8781 47.3181 39.9442 45.9522 39.5571C41.9922 38.4296 36.6003 33.4665 35.0099 31.9463C35.0457 31.8972 35.0797 31.8481 35.1136 31.7952C35.6551 30.9869 36.0664 30.0993 36.3381 29.1644C36.3532 29.1153 36.3682 29.0662 36.3815 29.0209C36.4098 28.9208 36.438 28.8207 36.4663 28.7188C37.6549 29.2249 41.0131 30.6998 44.0656 32.4694C47.8332 34.6393 51.1159 37.2606 49.3179 39.0642Z" fill="#F5FFFF"/>
<path d="M40.1226 49.0374C37.4832 49.874 34.8703 45.8098 33.0346 41.9157C32.0573 39.8194 31.2046 37.6665 30.4839 35.4663L31.5328 34.6977L31.5894 34.6712C32.0611 34.4616 32.5139 34.2142 32.9421 33.929C33.0629 33.8497 33.1761 33.7685 33.2912 33.6816C33.8345 34.3351 35.8381 36.7826 37.7039 39.5456C40.3999 43.5398 42.8053 48.1837 40.1226 49.0355V49.0374Z" fill="#F5FFFF"/>
<path d="M46.6389 43.3422C44.5429 45.0437 40.7847 42.4149 37.7058 39.5538C35.9418 37.8937 34.2835 36.1242 32.7402 34.2545L32.9421 33.9354C33.0628 33.856 33.176 33.7748 33.2911 33.688C33.9496 33.1988 34.5287 32.6096 35.0042 31.9392C35.04 31.8901 35.074 31.841 35.1079 31.7881C37.0549 32.8797 43.2222 36.4641 45.9446 39.5557C47.2615 41.0438 47.7765 42.4168 46.637 43.3403L46.6389 43.3422Z" fill="#F5FFFF"/>
<path d="M31.1008 51.6312C30.1254 51.4877 29.4236 50.7833 28.9256 49.7427C27.1031 45.9411 28.0124 37.6371 28.2652 35.6353L28.4275 35.6088C29.4934 35.4351 30.5367 35.131 31.531 34.7061L31.5876 34.6797C31.7177 35.1915 32.5139 38.4133 33.0289 41.9147C33.7364 46.7191 33.9119 52.0486 31.1008 51.6312Z" fill="#F5FFFF"/>
<path d="M28.9255 49.7422C28.535 51.9141 27.7124 53.321 26.1673 52.9358C25.0957 52.6695 24.4127 51.7762 23.9996 50.5222C22.6148 46.307 24.3109 38.0295 24.7806 35.9257H25.1014C25.6013 35.9106 26.0843 35.8841 26.5541 35.8445C27.1502 35.7954 27.7181 35.7255 28.2671 35.6348L28.4293 35.6084C28.7123 37.5744 29.7292 45.2758 28.9255 49.7422Z" fill="#F5FFFF"/>
<path d="M24.6071 35.9183C24.2241 37.3083 22.3734 43.7935 20.0924 47.9275C18.6398 50.5583 17.0135 52.2353 15.4778 51.0342C13.3139 49.342 14.8911 45.0815 16.9607 41.3082C18.236 39.0231 19.6604 36.8248 21.2206 34.7285C21.3904 34.8399 21.564 34.9457 21.7395 35.042C22.5733 35.5198 23.4978 35.8125 24.4524 35.9032C24.5015 35.9126 24.5618 35.9145 24.609 35.9183H24.6071Z" fill="#F5FFFF"/>
<path d="M27.8558 36.1016C27.8558 36.1016 26.5937 46.8625 24.0015 50.5225C23.2506 51.58 22.3903 52.0465 21.4149 51.4894C20.3264 50.8662 19.9868 49.5499 20.0924 47.9276C20.3603 43.7634 23.5487 37.5784 24.4467 35.907C24.4995 35.907 24.5543 35.9165 24.6071 35.9184C24.6599 35.9222 24.7222 35.9184 24.7806 35.9259H25.1014C25.6013 35.9108 26.0843 35.8844 26.5541 35.8447L27.8539 36.0997L27.8558 36.1016Z" fill="#F5FFFF"/>
<path d="M21.7375 35.0363C20.2527 37.2063 18.6586 39.2988 16.9587 41.3025C14.0194 44.717 10.5839 47.7877 9.14627 45.5763C7.43322 42.9474 11.829 38.6359 15.3702 35.7653C17.153 34.3187 18.7227 33.2403 19.1849 32.9287C19.2415 32.9948 19.2981 33.0571 19.3566 33.1213C19.9037 33.7332 20.5282 34.2734 21.213 34.7247C21.3923 34.8418 21.5621 34.9457 21.7394 35.0363H21.7375Z" fill="#F5FFFF"/>
<path d="M16.7644 23.9255C16.5116 25.0114 16.4607 26.1332 16.6097 27.238C13.7893 26.9944 -0.539549 25.5081 1.52063 21.4704C2.71863 19.1248 7.06915 19.9501 10.9443 21.2646C12.9478 21.9595 14.9099 22.7697 16.821 23.6894C16.8003 23.7688 16.7814 23.8462 16.7626 23.9236L16.7644 23.9255Z" fill="#F5FFFF"/>
<path d="M18.2247 20.7553C18.185 20.8101 18.1454 20.8649 18.1096 20.9196C17.5228 21.7619 17.0889 22.7005 16.8248 23.6939C16.804 23.7713 16.7852 23.8488 16.7663 23.9262C15.7249 23.4956 13.3723 22.5098 10.9442 21.2671C6.65974 19.0764 2.13377 16.0982 4.10905 14.0472C5.53721 12.561 8.26336 13.5071 10.9725 15.1388C14.0288 16.9783 17.0701 19.6845 18.2266 20.7553H18.2247Z" fill="#F5FFFF"/>
<path d="M20.4754 18.5231C20.415 18.5665 20.3584 18.61 20.3018 18.6515C19.8754 18.9707 19.4755 19.3238 19.1057 19.7072C18.7887 20.0377 18.4944 20.389 18.2246 20.761C18.185 20.8158 18.1454 20.8705 18.1096 20.9253C16.9021 20.0641 13.6157 17.6695 10.9706 15.1464C8.15769 12.4514 6.07676 9.62617 8.01242 8.37596C11.0631 6.40244 16.3135 12.729 18.9661 16.3532C19.7056 17.3749 20.2433 18.1643 20.4754 18.5231Z" fill="#F5FFFF"/>
<path d="M23.3865 16.8894C23.3016 16.9215 23.2148 16.9593 23.1318 16.9952C22.1904 17.3955 21.298 17.9054 20.4754 18.5173C20.4151 18.5608 20.3585 18.6042 20.3019 18.6458C20.1453 18.387 19.6359 17.5428 18.9699 16.3606C16.4004 11.7903 11.514 2.17013 15.542 1.53558C18.3341 1.09555 20.3773 5.46374 21.681 9.68652C22.3941 12.051 22.9639 14.4551 23.3846 16.8894H23.3865Z" fill="#F5FFFF"/>
<path d="M19.3849 33.1704C19.3849 33.1704 17.6719 34.3771 15.374 35.7728C10.948 38.4545 4.3788 41.8218 3.68641 38.5848C3.08458 35.7633 7.79545 33.4763 11.9234 32.0391C13.7722 31.4027 15.6532 30.8588 17.5568 30.4131C17.6096 30.5302 17.6662 30.6454 17.7266 30.7587C18.1096 31.5028 18.5737 32.2034 19.1132 32.8417L19.1925 32.9343C19.2491 33.0004 19.3057 33.0627 19.3641 33.1269L19.3849 33.1722V33.1704Z" fill="#F5FFFF"/>
<path d="M17.7228 30.7565C17.3681 30.849 14.9023 31.4911 11.9177 32.0369C6.56916 33.0171 -0.44148 33.6932 0.0226261 30.3731C0.6886 25.6159 13.8194 26.9265 16.6135 27.2608C16.7606 28.3543 17.0795 29.4175 17.5549 30.4109C17.6077 30.528 17.6643 30.6432 17.7247 30.7565H17.7228Z" fill="#F5FFFF"/>
<path d="M26.522 16.149C26.4201 16.149 26.3163 16.166 26.2145 16.1773C25.9447 16.2075 25.6806 16.2453 25.424 16.2944C24.7278 16.4266 24.0449 16.6249 23.3845 16.8874C23.2996 16.9195 23.2129 16.9554 23.1299 16.9932C22.8921 16.0432 22.1488 12.9517 21.6753 9.68075C20.9904 4.96317 20.864 -0.132108 23.6166 0.268262C25.5542 0.55532 26.422 3.0312 26.7578 5.98487C27.1955 9.87338 26.7106 14.5758 26.5201 16.1509L26.522 16.149Z" fill="#F5FFFF"/>
<path d="M26.7578 5.98489L26.871 5.28613C26.871 5.28613 28.1124 8.03774 26.871 16.1282L26.522 16.149C26.522 16.149 27.669 12.3398 26.7578 5.983V5.98489Z" fill="#E9F4F4"/>
<path d="M23.1317 16.9947L22.8846 17.1024C22.8846 17.1024 21.9601 14.8928 21.4243 8.90234L21.7432 10.1412C21.7432 10.1412 22.5733 14.9495 23.1317 16.9929V16.9947Z" fill="#E9F4F4"/>
<path d="M37.202 7.04785C37.202 7.04785 36.0795 11.4349 33.1269 17.7351C32.9213 17.6142 32.7874 17.5387 32.7874 17.5387C32.7874 17.5387 34.0589 15.9089 36.8115 7.54831L37.202 7.04785Z" fill="#E9F4F4"/>
<path d="M32.2422 3.04966L32.4195 2.64551C32.4195 2.64551 31.5554 11.6066 30.0971 16.4942L29.6688 16.3771C29.6688 16.3771 30.8404 13.2667 32.2422 3.05154V3.04966Z" fill="#E9F4F4"/>
<path d="M18.9662 16.3526L18.6813 15.9541C18.6813 15.9541 19.0718 17.0419 20.1906 18.7529L20.4113 18.5678C19.8359 17.8955 19.3491 17.1514 18.9662 16.3526Z" fill="#E9F4F4"/>
<path d="M10.9725 15.1405L10.5348 14.71C10.5348 14.71 13.8722 16.5645 18.268 20.6626L18.1095 20.9157C18.1095 20.9157 13.9401 17.167 10.9725 15.1424V15.1405Z" fill="#E9F4F4"/>
<path d="M10.9405 21.2672L10.2123 21.0273C10.2123 21.0273 11.0688 21.8507 16.723 24.1094L16.7626 23.9263C16.7626 23.9263 12.9347 22.3418 10.9405 21.2672Z" fill="#E9F4F4"/>
<path d="M14.0402 27.0115C14.0402 27.0115 16.023 27.1815 16.6097 27.24L16.6343 27.4081C15.5834 27.376 14.5382 27.2306 13.5176 26.9775L14.0402 27.0115Z" fill="#E9F4F4"/>
<path d="M11.8196 32.0562C13.8118 31.7464 15.7833 31.3121 17.7228 30.7568L17.8284 30.9514C17.8284 30.9514 15.3117 32.0675 11.1611 32.3092L11.8214 32.0562H11.8196Z" fill="#E9F4F4"/>
<path d="M19.3603 33.1245C17.9416 33.8649 16.604 34.7525 15.3702 35.7704L14.5891 36.2387C14.5891 36.2387 16.1437 34.8035 19.149 32.8828L19.3622 33.1245H19.3603Z" fill="#E9F4F4"/>
<path d="M16.9587 41.3082C16.9587 41.3082 21.2432 36.1279 21.7375 35.042L22.0846 35.2252C22.0846 35.2252 18.6472 39.8823 16.6323 41.9163L16.9587 41.3101V41.3082Z" fill="#E9F4F4"/>
<path d="M24.607 35.9183C24.607 35.9183 20.7697 42.6868 20.0924 47.9275C19.8622 48.3373 19.8075 48.4374 19.8075 48.4374C19.8075 48.4374 20.5206 42.5376 24.3674 35.8994L24.6089 35.9202L24.607 35.9183Z" fill="#E9F4F4"/>
<path d="M23.9995 50.5223C23.9995 50.5223 27.4954 44.6905 27.5199 35.7445L27.6633 35.7256C27.6633 35.7256 27.9142 43.6858 24.0523 50.6904C24.0297 50.6356 24.0127 50.579 23.9995 50.5204V50.5223Z" fill="#E9F4F4"/>
<path d="M28.9256 49.7426C28.9256 49.7426 27.1295 44.8249 27.1899 41.3027L27.1031 41.8013C27.1031 41.8013 26.9427 43.856 28.8803 49.9768L28.9237 49.7407L28.9256 49.7426Z" fill="#E9F4F4"/>
<path d="M31.5894 34.6795C31.5894 34.6795 32.361 37.6653 33.0307 41.9145L33.1307 42.1222C32.8024 39.5954 32.3327 37.0912 31.7214 34.6172L31.5894 34.6776V34.6795Z" fill="#E9F4F4"/>
<path d="M37.7058 39.554C37.7058 39.554 34.1118 36.0602 32.9421 33.9375L32.7987 34.03C32.7987 34.03 33.9759 36.0885 38.2114 40.3302L37.7039 39.554H37.7058Z" fill="#E9F4F4"/>
<path d="M35.1155 31.7896C35.1155 31.7896 43.0525 36.0973 45.9522 39.5571C46.222 39.6289 43.9675 36.6526 35.2438 31.6045L35.1155 31.7896Z" fill="#E9F4F4"/>
<path d="M44.0694 32.4605C41.447 31.3992 38.9057 30.1452 36.4682 28.708L36.4116 28.9139C39.0208 30.4266 41.7526 31.7127 44.5788 32.757L44.0713 32.4586L44.0694 32.4605Z" fill="#E9F4F4"/>
<path d="M37.0096 25.6615C37.0096 25.6615 46.0276 26.4283 50.365 28.9174L50.7027 28.8777C50.7027 28.8777 46.1974 26.4037 37.0266 25.416L37.0096 25.6615Z" fill="#E9F4F4"/>
<path d="M37.2436 15.4707C36.4512 16.6681 35.4437 17.703 34.2703 18.5226C34.4438 18.6661 34.374 18.6076 34.374 18.6076C34.374 18.6076 36.5059 16.9608 37.6794 15.1855L37.2436 15.4707Z" fill="#E9F4F4"/>
<path d="M41.5036 18.2715C41.5036 18.2715 38.1058 19.1534 36.0267 20.5831L36.0909 20.6964C36.0909 20.6964 38.7963 19.0817 40.8282 18.5529L41.5036 18.2715Z" fill="#E9F4F4"/>
<path d="M36.9568 23.4177C36.9568 23.4177 39.881 23.6027 46.9219 22.8945L47.3237 22.9172C47.3237 22.9172 44.4674 23.5291 36.9889 23.6764L36.9568 23.4158V23.4177Z" fill="#E9F4F4"/>
<path d="M44.383 31.4306C41.8591 40.2385 34.9358 43.7956 23.6547 44.1357C19.6158 44.2572 15.6047 41.9806 12.6336 38.4651C7.3189 32.1663 5.36706 21.8975 12.6336 14.3216C12.6336 14.3216 17.137 9.40403 24.2475 8.06446C27.4821 7.46061 30.8172 7.69313 33.9374 8.73772C46.4041 12.8085 46.9103 22.6332 44.383 31.4306Z" fill="#FFCD50"/>
<path d="M12.6403 38.4758C7.32561 32.1771 5.37378 21.9082 12.6403 14.3323C12.6403 14.3323 17.1437 9.41477 24.2542 8.0752C16.7416 11.3617 5.22817 19.6733 12.6403 38.4758Z" fill="#FFC033"/>
<path d="M26.6084 28.9716C27.2741 29.8913 28.6054 29.978 29.6003 29.6345C29.954 29.5095 30.259 29.2736 30.4775 28.9682C30.5017 28.9335 30.5364 28.9092 30.578 28.9022C30.6196 28.8953 30.6612 28.9022 30.6959 28.9265C30.7167 28.9404 30.734 28.9612 30.7444 28.982C30.7548 29.0029 30.7617 29.0306 30.7617 29.0549C30.7513 29.3152 30.6681 29.572 30.5191 29.7872C29.6177 31.0678 27.4336 31.0712 26.5252 29.7872C26.397 29.5963 26.0746 28.9265 26.4524 28.8779C26.4836 28.8779 26.5148 28.8883 26.5426 28.9022C26.5703 28.9196 26.5911 28.9404 26.6084 28.9682V28.9751V28.9716Z" fill="#302826"/>
<path d="M31.9993 25.8677C32.1969 23.9659 34.0517 22.5986 35.9065 22.439C37.3799 22.2863 39.0856 22.8658 40.0112 24.1429C40.3718 24.5802 40.559 25.1355 40.5347 25.7011C40.5174 25.8816 40.4515 26.0516 40.3406 26.1905C40.2296 26.3327 40.0805 26.4369 39.9107 26.4958C39.7408 26.5548 39.5605 26.5583 39.3872 26.5132C39.2138 26.4681 39.0578 26.3744 38.9365 26.239C38.6834 25.9684 38.4685 25.6664 38.302 25.3367C38.042 24.9134 37.6953 24.5559 37.2793 24.2887C36.8633 24.0215 36.3953 23.8514 35.9065 23.7924C34.433 23.5946 32.814 24.4344 32.2871 25.9198C32.2732 25.9545 32.2489 25.9822 32.2177 25.9961C32.1865 26.0135 32.1484 26.0169 32.1137 26.01C32.0791 26.0031 32.0479 25.9822 32.0271 25.9545C32.0063 25.9267 31.9958 25.892 31.9958 25.8538V25.8608L31.9993 25.8677Z" fill="#302826"/>
<path d="M24.7952 25.9286C24.2717 24.4467 22.6493 23.6034 21.1759 23.8012C20.687 23.8602 20.2155 24.0303 19.803 24.2975C19.387 24.5647 19.0368 24.9222 18.7803 25.3421C18.4093 26.0535 17.7298 27.0148 16.8527 26.3173C16.2356 25.7169 16.6308 24.7174 17.0676 24.1413C18.0002 22.8642 19.692 22.2951 21.1724 22.4374C23.0271 22.5901 24.8854 23.9574 25.083 25.8661C25.083 25.9008 25.0726 25.9355 25.0518 25.9668C25.031 25.9945 24.9998 26.0153 24.9651 26.0223C24.9304 26.0292 24.8923 26.0223 24.8611 26.0084C24.8299 25.991 24.8056 25.9633 24.7918 25.932V25.9251L24.7952 25.9286Z" fill="#302826"/>
<path opacity="0.35" d="M18.2392 30.8886C19.2203 30.8886 20.0177 30.4686 20.0177 29.955C20.0177 29.4414 19.2203 29.0215 18.2392 29.0215C17.2581 29.0215 16.4607 29.4414 16.4607 29.955C16.4607 30.4686 17.2581 30.8886 18.2392 30.8886Z" fill="#FF6E79"/>
<path opacity="0.35" d="M39.5329 30.8886C40.514 30.8886 41.3114 30.4686 41.3114 29.955C41.3114 29.4414 40.514 29.0215 39.5329 29.0215C38.5518 29.0215 37.7544 29.4414 37.7544 29.955C37.7544 30.4686 38.5518 30.8886 39.5329 30.8886Z" fill="#FF6E79"/>
</g>
<defs>
<clipPath id="clip0_216_4349">
<rect width="54.6061" height="53" fill="white"/>
</clipPath>
</defs>
</svg>
