<?xml version="1.0" encoding="UTF-8"?>
<svg id="Calque_2" data-name="Calque 2" xmlns="http://www.w3.org/2000/svg" xmlns:xlink="http://www.w3.org/1999/xlink" viewBox="0 0 142 71">
  <defs>
    <style>
      .cls-1 {
        fill: none;
      }

      .cls-2 {
        clip-path: url(#clippath);
      }

      .cls-3 {
        fill: #e9f4f4;
      }

      .cls-4 {
        fill: #f5ffff;
      }

      .cls-5 {
        fill: #cecece;
      }

      .cls-6 {
        fill: #9a9a9a;
      }

      .cls-7 {
        fill: #302826;
      }

      .cls-8 {
        fill: silver;
        isolation: isolate;
        opacity: .35;
      }

      .cls-9 {
        fill: url(#Dégradé_sans_nom_4);
      }
    </style>
    <linearGradient id="Dégradé_sans_nom_4" x1="-137" y1="-2374.57" x2="-137" y2="-2438.57" gradientTransform="translate(176 -2371.57) scale(1 -1)" gradientUnits="userSpaceOnUse">
      <stop offset="0" stop-color="#c7c7c7"/>
      <stop offset="1" stop-color="#d3d3d3"/>
    </linearGradient>
    <clipPath id="clippath">
      <rect class="cls-1" x="15" y="11" width="48.54" height="47.11"/>
    </clipPath>
  </defs>
  <g id="Calque_1-2" >
    <path class="cls-6" d="M35.5,0H106.5c19.61,0,35.5,15.89,35.5,35.5h0c0,19.61-15.89,35.5-35.5,35.5H35.5C15.89,71,0,55.11,0,35.5H0C0,15.89,15.89,0,35.5,0Z"/>
    <circle class="cls-9" cx="39" cy="35" r="32"/>
    <g class="cls-2">
      <g>
        <path class="cls-4" d="M41.37,25.55l-.21-.05c-.85-.17-1.72-.22-2.59-.16-.09,0-.18,.02-.27,.03-.02-1.3-.04-5.52,.48-9.06,.48-3.24,1.43-5.91,3.27-5.2,.96,.37,1.44,1.33,1.61,2.59,.52,3.78-1.71,10.26-2.29,11.84h0Z"/>
        <path class="cls-4" d="M48.11,24.75c-1.34,1.37-2.48,2.38-2.74,2.61l-.02,.02c-.38-.3-.79-.56-1.22-.79-.28-.15-.58-.29-.9-.43l-.44-.26s2.36-4.75,4.93-8.19c1.94-2.59,4-4.44,5.27-2.95,1.93,2.27-1.97,7-4.89,9.98Z"/>
        <path class="cls-4" d="M47.72,17.71c-1.11,4.24-3.57,8.88-3.57,8.88h-.02c-.28-.15-.58-.29-.9-.43-.3-.13-.61-.24-.94-.35-.31-.1-.62-.18-.92-.26l-.21-.05c.2-1.89,.97-8.15,2.5-11.8,.84-2,1.9-3.22,3.24-2.5,1.7,.92,1.58,3.62,.82,6.5h0Z"/>
        <path class="cls-4" d="M51.29,27.49c-1.92,.78-3.71,1.32-4.44,1.53-.04-.07-.08-.13-.13-.19-.37-.53-.81-1-1.31-1.4l-.04-.07-.29-.44s1.28-.99,3.02-2.17c3.46-2.34,8.75-5.39,9.43-2.77,.58,2.21-3.01,4.2-6.25,5.51h0Z"/>
        <path class="cls-4" d="M61.45,28.21c-.13,1.72-2.21,2.65-4.74,3.14-3.26,.63-7.27,.54-8.86,.46,0-.07-.02-.14-.03-.21-.14-.92-.47-1.8-.96-2.58-.04-.07-.08-.13-.13-.19,.69-.23,2.47-.8,4.57-1.33,4.46-1.14,10.36-2.12,10.15,.72Z"/>
        <path class="cls-4" d="M61.26,39.41c-.99,1.81-4.04,1.41-7.09,.44-2.86-.91-5.73-2.34-6.87-2.94,.01-.04,.03-.09,.04-.13,.03-.09,.05-.18,.08-.27,.13-.5,.25-1,.33-1.5,.07-.4,.12-.81,.15-1.21,2.03,.24,8.71,1.16,11.87,2.89,1.35,.74,2.06,1.64,1.49,2.7h0Z"/>
        <path class="cls-4" d="M63.45,34.56c-.4,1.33-1.83,1.95-3.68,2.14-4.12,.43-10.33-1.21-12.02-1.69,.07-.4,.12-.81,.15-1.21,.05-.66,.04-1.33-.05-1.99,0-.07-.02-.14-.03-.21,1.46-.13,5.35-.43,8.88-.26,3.92,.2,7.42,.98,6.74,3.22h0Z"/>
        <path class="cls-4" d="M58.84,45.72c-.72,.72-1.78,.78-2.99,.44-3.52-1-8.31-5.41-9.73-6.77,.03-.04,.06-.09,.09-.13,.48-.72,.85-1.51,1.09-2.34,.01-.04,.03-.09,.04-.13,.03-.09,.05-.18,.08-.27,1.06,.45,4.04,1.76,6.75,3.33,3.35,1.93,6.27,4.26,4.67,5.86h0Z"/>
        <path class="cls-4" d="M50.66,54.59c-2.35,.74-4.67-2.87-6.3-6.33-.87-1.86-1.63-3.78-2.27-5.73l.93-.68,.05-.02c.42-.19,.82-.41,1.2-.66,.11-.07,.21-.14,.31-.22,.48,.58,2.26,2.76,3.92,5.21,2.4,3.55,4.53,7.68,2.15,8.44h0Z"/>
        <path class="cls-4" d="M56.46,49.53c-1.86,1.51-5.2-.82-7.94-3.37-1.57-1.48-3.04-3.05-4.41-4.71l.18-.28c.11-.07,.21-.14,.31-.22,.59-.43,1.1-.96,1.52-1.55,.03-.04,.06-.09,.09-.13,1.73,.97,7.21,4.16,9.63,6.9,1.17,1.32,1.63,2.54,.62,3.36h0Z"/>
        <path class="cls-4" d="M42.65,56.89c-.87-.13-1.49-.75-1.93-1.68-1.62-3.38-.81-10.76-.59-12.54l.14-.02c.95-.15,1.87-.42,2.76-.8l.05-.02c.12,.45,.82,3.32,1.28,6.43,.63,4.27,.78,9.01-1.71,8.64h0Z"/>
        <path class="cls-4" d="M40.71,55.22c-.35,1.93-1.08,3.18-2.45,2.84-.95-.24-1.56-1.03-1.93-2.15-1.23-3.75,.28-11.1,.69-12.97h.29c.44-.01,.87-.04,1.29-.07,.53-.04,1.03-.11,1.52-.19l.14-.02c.25,1.75,1.16,8.59,.44,12.56Z"/>
        <path class="cls-4" d="M36.87,42.93c-.34,1.24-1.99,7-4.01,10.67-1.29,2.34-2.74,3.83-4.1,2.76-1.92-1.5-.52-5.29,1.32-8.65,1.13-2.03,2.4-3.99,3.79-5.85,.15,.1,.31,.19,.46,.28,.74,.42,1.56,.68,2.41,.77,.04,0,.1,.01,.14,.01h0Z"/>
        <path class="cls-4" d="M39.76,43.09s-1.12,9.57-3.43,12.82c-.67,.94-1.43,1.35-2.3,.86-.97-.55-1.27-1.72-1.18-3.17,.24-3.7,3.07-9.2,3.87-10.69,.05,0,.1,0,.14,.01,.05,0,.1,0,.15,0h.29c.44-.01,.87-.04,1.29-.07l1.16,.23h0Z"/>
        <path class="cls-4" d="M34.32,42.14c-1.32,1.93-2.74,3.79-4.25,5.57-2.61,3.04-5.67,5.76-6.94,3.8-1.52-2.34,2.38-6.17,5.53-8.72,1.58-1.29,2.98-2.24,3.39-2.52,.05,.06,.1,.11,.15,.17,.49,.54,1.04,1.02,1.65,1.43,.16,.1,.31,.2,.47,.28h0Z"/>
        <path class="cls-4" d="M29.9,32.27c-.22,.97-.27,1.96-.14,2.94-2.51-.22-15.24-1.54-13.41-5.13,1.06-2.08,4.93-1.35,8.38-.18,1.78,.62,3.52,1.34,5.22,2.16-.02,.07-.04,.14-.05,.21h0Z"/>
        <path class="cls-4" d="M31.2,29.45s-.07,.1-.1,.15c-.52,.75-.91,1.58-1.14,2.47-.02,.07-.04,.14-.05,.21-.93-.38-3.02-1.26-5.18-2.36-3.81-1.95-7.83-4.59-6.08-6.42,1.27-1.32,3.69-.48,6.1,.97,2.72,1.64,5.42,4.04,6.45,4.99h0Z"/>
        <path class="cls-4" d="M33.2,27.46c-.05,.04-.1,.08-.15,.11-.38,.28-.73,.6-1.06,.94-.28,.29-.54,.61-.78,.94-.04,.05-.07,.1-.1,.15-1.07-.77-3.99-2.89-6.35-5.14-2.5-2.4-4.35-4.91-2.63-6.02,2.71-1.75,7.38,3.87,9.74,7.09,.66,.91,1.14,1.61,1.34,1.93h0Z"/>
        <path class="cls-4" d="M35.79,26.01c-.08,.03-.15,.06-.23,.09-.84,.36-1.63,.81-2.36,1.35-.05,.04-.1,.08-.15,.11-.14-.23-.59-.98-1.18-2.03-2.28-4.06-6.63-12.61-3.05-13.18,2.48-.39,4.3,3.49,5.46,7.25,.63,2.1,1.14,4.24,1.51,6.4h0Z"/>
        <path class="cls-4" d="M32.23,40.49s-1.52,1.07-3.57,2.31c-3.93,2.38-9.77,5.38-10.39,2.5-.53-2.51,3.65-4.54,7.32-5.82,1.64-.57,3.32-1.05,5.01-1.45,.05,.1,.1,.21,.15,.31,.34,.66,.75,1.28,1.23,1.85l.07,.08c.05,.06,.1,.11,.15,.17l.02,.04h0Z"/>
        <path class="cls-4" d="M30.75,38.34c-.32,.08-2.51,.65-5.16,1.14-4.75,.87-10.99,1.47-10.57-1.48,.59-4.23,12.26-3.06,14.75-2.77,.13,.97,.41,1.92,.84,2.8,.05,.1,.1,.21,.15,.31h0Z"/>
        <path class="cls-4" d="M38.58,25.35c-.09,0-.18,.02-.27,.03-.24,.03-.47,.06-.7,.1-.62,.12-1.23,.29-1.81,.53-.08,.03-.15,.06-.23,.09-.21-.84-.87-3.59-1.29-6.5-.61-4.19-.72-8.72,1.73-8.37,1.72,.26,2.49,2.46,2.79,5.08,.39,3.46-.04,7.64-.21,9.04h0Z"/>
        <path class="cls-3" d="M38.78,16.32l.1-.62s1.1,2.45,0,9.64l-.31,.02s1.02-3.39,.21-9.04h0Z"/>
        <path class="cls-3" d="M35.56,26.11l-.22,.1s-.82-1.96-1.3-7.29l.28,1.1s.74,4.27,1.23,6.09h0Z"/>
        <path class="cls-3" d="M48.07,17.26s-1,3.9-3.62,9.5c-.18-.11-.3-.17-.3-.17,0,0,1.13-1.45,3.58-8.88l.35-.44h0Z"/>
        <path class="cls-3" d="M43.66,13.71l.16-.36s-.77,7.97-2.06,12.31l-.38-.1s1.04-2.76,2.29-11.84h0Z"/>
        <path class="cls-3" d="M31.86,25.54l-.25-.35s.35,.97,1.34,2.49l.2-.16c-.51-.6-.94-1.26-1.28-1.97Z"/>
        <path class="cls-3" d="M24.75,24.46l-.39-.38s2.97,1.65,6.87,5.29l-.14,.22s-3.71-3.33-6.34-5.13h0Z"/>
        <path class="cls-3" d="M24.72,29.9l-.65-.21s.76,.73,5.79,2.74l.04-.16s-3.4-1.41-5.18-2.36h0Z"/>
        <path class="cls-3" d="M27.48,35.01s1.76,.15,2.28,.2l.02,.15c-.93-.03-1.86-.16-2.77-.38l.46,.03Z"/>
        <path class="cls-3" d="M25.51,39.49c1.77-.28,3.52-.66,5.25-1.15l.09,.17s-2.24,.99-5.93,1.21l.59-.22h0Z"/>
        <path class="cls-3" d="M32.21,40.44c-1.26,.66-2.45,1.45-3.55,2.35l-.69,.42s1.38-1.28,4.05-2.98l.19,.21h0Z"/>
        <path class="cls-3" d="M30.07,47.72s3.81-4.6,4.25-5.57l.31,.16s-3.06,4.14-4.85,5.95l.29-.54h0Z"/>
        <path class="cls-3" d="M36.87,42.93s-3.41,6.02-4.01,10.67c-.2,.36-.25,.45-.25,.45,0,0,.63-5.24,4.05-11.14l.21,.02h0Z"/>
        <path class="cls-3" d="M36.33,55.91s3.11-5.18,3.13-13.14l.13-.02s.22,7.08-3.21,13.3c-.02-.05-.04-.1-.05-.15h0Z"/>
        <path class="cls-3" d="M40.71,55.22s-1.6-4.37-1.54-7.5l-.08,.44s-.14,1.83,1.58,7.27l.04-.21h0Z"/>
        <path class="cls-3" d="M43.08,41.83s.69,2.65,1.28,6.43l.09,.18c-.29-2.25-.71-4.47-1.25-6.67l-.12,.05h0Z"/>
        <path class="cls-3" d="M48.52,46.16s-3.19-3.11-4.23-4.99l-.13,.08s1.05,1.83,4.81,5.6l-.45-.69h0Z"/>
        <path class="cls-3" d="M46.21,39.26s7.06,3.83,9.63,6.9c.24,.06-1.76-2.58-9.52-7.07l-.11,.16Z"/>
        <path class="cls-3" d="M54.17,39.85c-2.33-.94-4.59-2.06-6.76-3.34l-.05,.18c2.32,1.34,4.75,2.49,7.26,3.42l-.45-.27h0Z"/>
        <path class="cls-3" d="M47.9,33.81s8.02,.68,11.87,2.89l.3-.04s-4-2.2-12.16-3.08l-.02,.22Z"/>
        <path class="cls-3" d="M48.11,24.75c-.7,1.06-1.6,1.98-2.64,2.71,.15,.13,.09,.08,.09,.08,0,0,1.9-1.46,2.94-3.04l-.39,.25h0Z"/>
        <path class="cls-3" d="M51.89,27.24s-3.02,.78-4.87,2.05l.06,.1s2.4-1.44,4.21-1.91l.6-.25h0Z"/>
        <path class="cls-3" d="M47.85,31.82s2.6,.16,8.86-.47l.36,.02s-2.54,.54-9.19,.67l-.03-.23h0Z"/>
        <path class="cls-5" d="M54.45,38.94c-2.24,7.83-8.4,10.99-18.43,11.29-3.59,.11-7.16-1.92-9.8-5.04-4.72-5.6-6.46-14.73,0-21.46,0,0,4-4.37,10.32-5.56,2.88-.54,5.84-.33,8.61,.6,11.08,3.62,11.53,12.35,9.28,20.17h0Z"/>
        <path class="cls-5" d="M26.24,45.2c-4.72-5.6-6.46-14.73,0-21.46,0,0,4-4.37,10.32-5.56-6.68,2.92-16.91,10.31-10.32,27.02h0Z"/>
        <path class="cls-7" d="M38.65,36.75c.59,.82,1.77,.89,2.66,.59,.31-.11,.59-.32,.78-.59,.02-.03,.05-.05,.09-.06,.04,0,.07,0,.1,.02,.02,.01,.03,.03,.04,.05,0,.02,.02,.04,.02,.06,0,.23-.08,.46-.22,.65-.8,1.14-2.74,1.14-3.55,0-.11-.17-.4-.76-.06-.81,.03,0,.06,0,.08,.02,.02,.02,.04,.03,.06,.06h0s0,0,0,0Z"/>
        <path class="cls-7" d="M43.44,33.99c.18-1.69,1.82-2.91,3.47-3.05,1.31-.14,2.83,.38,3.65,1.51,.32,.39,.49,.88,.47,1.39-.02,.16-.07,.31-.17,.44-.1,.13-.23,.22-.38,.27-.15,.05-.31,.06-.47,.02-.15-.04-.29-.12-.4-.24-.22-.24-.42-.51-.56-.8-.23-.38-.54-.69-.91-.93-.37-.24-.79-.39-1.22-.44-1.31-.18-2.75,.57-3.22,1.89-.01,.03-.03,.06-.06,.07-.03,.02-.06,.02-.09,.01-.03,0-.06-.02-.08-.05-.02-.02-.03-.06-.03-.09h0s0,.01,0,.01Z"/>
        <path class="cls-7" d="M37.04,34.05c-.47-1.32-1.91-2.07-3.22-1.89-.43,.05-.85,.2-1.22,.44-.37,.24-.68,.56-.91,.93-.33,.63-.93,1.49-1.71,.87-.55-.53-.2-1.42,.19-1.93,.83-1.14,2.33-1.64,3.65-1.51,1.65,.14,3.3,1.35,3.48,3.05,0,.03,0,.06-.03,.09-.02,.02-.05,.04-.08,.05-.03,0-.06,0-.09-.01-.03-.02-.05-.04-.06-.07h0s0,0,0,0Z"/>
        <path class="cls-8" d="M31.21,38.46c.87,0,1.58-.37,1.58-.83s-.71-.83-1.58-.83-1.58,.37-1.58,.83,.71,.83,1.58,.83Z"/>
        <path class="cls-8" d="M50.14,38.46c.87,0,1.58-.37,1.58-.83s-.71-.83-1.58-.83-1.58,.37-1.58,.83,.71,.83,1.58,.83Z"/>
      </g>
    </g>
  </g>
</svg>