<svg xmlns="http://www.w3.org/2000/svg" viewBox="0 0 661.75 703.84"><defs><style>.cls-1{fill:#5aba97;}.cls-2{fill:#63c6a0;}.cls-3{fill:#82d16f;}.cls-4,.cls-9{fill:#f5ffff;}.cls-5{fill:#efedee;}.cls-6{fill:#302826;}.cls-7{fill:#efefef;}.cls-8{fill:#ff6e79;opacity:0.35;}.cls-10,.cls-9{stroke:#efedee;stroke-miterlimit:10;stroke-width:2px;}.cls-10{fill:none;stroke-linecap:round;}.cls-11{fill:#4f2f2f;}.cls-12{fill:#593636;}</style></defs><g id="Calque_2" data-name="Calque 2"><g id="Calque_1-2" data-name="Calque 1"><path class="cls-1" d="M144.34,537.4c-8,30.34-4.34,90.07-2.36,114.86.55,7,1,11.2,1,11.2H130.54s-1.93-78.89,5-107.58S147.9,452.27,147.9,452.27l4.72-2.56,1.9-1S154.54,498.5,144.34,537.4Z"/><path class="cls-2" d="M144.34,537.4c-8,30.34-4.34,90.07-2.36,114.86l-3,1.68s-5.86-83.94,2.51-112c10.84-42.21,11.89-79.92,11.09-88.86l1.9-1S154.54,498.5,144.34,537.4Z"/><path class="cls-1" d="M142.41,522.82s-1-.41-2.55-1.22c-5.83-3.05-19.39-11.77-16.26-25.67.58-2.62,1.4-4,2.36-4.56,5.52-3,15.82,23.41,15.82,23.41Z"/><path class="cls-3" d="M162.06,589.46l1.05-1.1A13.8,13.8,0,0,1,162.06,589.46Z"/><path class="cls-1" d="M163.14,521.86a41.38,41.38,0,0,1-17.37,3.73l2.11-8s11.76-11.66,20-16.15c5.23-2.85,9-2.8,7.49,5C173.77,514.48,168.67,519.15,163.14,521.86Z"/><path class="cls-2" d="M163.14,521.86c6.23-5,12.11-12.13,11.58-19.87-.23-3.41-6.84-.55-6.84-.55h0c5.23-2.85,9-2.8,7.49,5C173.77,514.48,168.67,519.15,163.14,521.86Z"/><path class="cls-4" d="M240.7,383.85c-1.43,1.67-4.36,2.79-3.36,3.6s2.95,3.43,2,4.05-3.55,3.15-3.64,3.15a14.36,14.36,0,0,0-1,1.6s4.39,5.3,2.86,5.8-1,3.67-1.83,4.08.95,4.36-1.72,3.64,1.41,3.11-.1,4-2.19,6.35-3.27,5.63c-.53-.37-1.69-.12-2.7.21a2.09,2.09,0,0,0-1.38,2.43c.47,2.28,1,6-.35,6.16a21.07,21.07,0,0,1-2.8.1,2.11,2.11,0,0,0-2.13,2.29c.18,1.94.21,4.29-.7,4a11.61,11.61,0,0,0-3.43-.13,2.09,2.09,0,0,0-1.89,1.57c-.37,1.42-1,3.45-1.45,3.74a15,15,0,0,1-3.28.82,2.12,2.12,0,0,0-1.72,1.72,6.34,6.34,0,0,1-1,2.87,5.79,5.79,0,0,1-2.6,2,8.86,8.86,0,0,1-3.2.19,2.1,2.1,0,0,0-2.15,1.45c-.15.48-.36.87-.67.87-.76,0-3.72,3.89-4.79,3.5s-5.63,2.13-6.39,1.6a9.16,9.16,0,0,0-2-.9s-5.89,6.94-8,6c-1.51-.64-3.76-1.69-5-2.27a2.06,2.06,0,0,0-1.7,0c-2.42,1-9.12,3.79-8.94,3.12s-1.74.1-2.75-.4a5.65,5.65,0,0,1-1.83-2.34s-5.68,3.65-7.11,2.84-2.53-2.75-3.34-2.84-1.36-1.65-1.36-1.65-1.48,2.15-3.1,1.65-4,.81-5.08,0-3.24-2.34-3.77-3.56-4.15,1.79-5.27.27-8.11-2.6-6.75-4.51.86-3.27.86-3.27-3.39,2-5.42.93c-1.15-.63-1.61-2.42-1.79-3.86a2.09,2.09,0,0,0-2.13-1.81,4.05,4.05,0,0,1-2.32-.48c-1.27-.91-4.46-1.62-4.82-2.53s-2.29-3.05-2.1-4.06a24.57,24.57,0,0,0-.36-4.65s-1.55,2.65-3.08,1.27c-1-.93-1.45-4.24-1.62-6.27a2.11,2.11,0,0,0-1.6-1.87c-.56-.13-1-.34-.81-.62.46-.59-.12-3.22-.12-3.22s-6.2,2.46-6.13-1.33-2.21-6.87-1.74-6.87.22-4.41.84-5a3.66,3.66,0,0,0,.52-2.15s-5.7-2.19-5.17-3.72c.33-1,1.72-3.85,2.66-5.77a2.11,2.11,0,0,0-.83-2.75c-1.37-.8-3-2-2.9-3.07s1.78-2.62,3-3.62a2.09,2.09,0,0,0,.49-2.73,24.62,24.62,0,0,0-2.82-4.11c-1.88-1.47.55-5.3.74-5.73.83-2,4-2.29,4-2.29s-2.88-2.47-2.21-3.9c.54-1.15.58-5.64,1.72-5.64a6.63,6.63,0,0,0,2.78-1.1s-2.18-3.6-1.51-4.12,1.14-6.54,2.74-7.16,4.6-2.39,5.08-2.54.91-1,.91-1l.25-1.88s-8.31-7.05-2.68-8a30.12,30.12,0,0,1,5.61-.39,2.09,2.09,0,0,0,2-2.74c-.46-1.45-.56-3,.73-3.55a21.68,21.68,0,0,1,6.71-1.09,2.09,2.09,0,0,0,2-1.91c.19-2.28.76-5.85,2.41-5.85a10.31,10.31,0,0,1,2.89.52,2.12,2.12,0,0,0,2.69-2.09c0-2.92.27-6.63,2.17-5.58,1,.58,2.12,1.24,3.09,1.87a2.1,2.1,0,0,0,3.23-1.7c.09-3.11.63-6.7,2.82-5.35,3.64,2.29,5.79,1.7,7.15,2.29a19.42,19.42,0,0,1,2,1.13,2.12,2.12,0,0,0,2.78-.5c1.25-1.61,3.27-3.79,4.65-3.2a9.1,9.1,0,0,1,2.65,1.84,2.07,2.07,0,0,0,2.57.21c1.68-1.1,4.38-2.72,5.89-2.82a3.69,3.69,0,0,1,2.91,1.74,2.13,2.13,0,0,0,2.81.51c2.11-1.32,5.54-3.18,6.76-2.25a11.8,11.8,0,0,1,2.34,2.67,2,2,0,0,0,2.43.81,4,4,0,0,1,2.38-.14,7.43,7.43,0,0,1,4.46,3,2,2,0,0,0,1.78.8,48.81,48.81,0,0,1,6.86-.11c1.83.31,4.72-.45,4.89.62.06.51.2,1.81.32,3a2.11,2.11,0,0,0,2.75,1.79c1.8-.57,3.91-1.1,3.91-.41,0,1.22-.45,4,1.08,4s7.15-.62,6.08.31-1.86,4.87.14,4.87,5.34-.62,5,1.07a34.6,34.6,0,0,0,0,5.42,2.11,2.11,0,0,0,1,1.68c1.19.74,3.11,2,3.32,2.63a12.84,12.84,0,0,1,.42,1.83,2.11,2.11,0,0,0,1.34,1.59c1.78.65,5.05,2.06,5.33,3.67a13.25,13.25,0,0,1-.32,4.42,2.11,2.11,0,0,0,.83,2.15c1.58,1.15,4.21,3.27,4,4.62a5.59,5.59,0,0,1-.59,1.89,2.14,2.14,0,0,0,.46,2.61c1.11,1,2.45,2.31,2.5,3.18a10.91,10.91,0,0,1-.89,3.46,2,2,0,0,0,.41,2.2,11.23,11.23,0,0,1,2.6,4.42,3.93,3.93,0,0,1,0,3,2,2,0,0,0,1.14,2.71c.73.32,1.25.69,1.14,1.09C239.77,382.27,242.11,382.15,240.7,383.85Z"/><path class="cls-5" d="M151.18,461.46a1.62,1.62,0,0,1-.79-.17,9.39,9.39,0,0,1-2-1.74c-.38-.4-.94-1-1.16-1a2.12,2.12,0,0,1-1.43-1.18,3.21,3.21,0,0,1-3.13,1.16,5.42,5.42,0,0,0-2.31.11,3.88,3.88,0,0,1-2.93-.18c-1.63-1.19-3.38-2.52-3.93-3.75a4.89,4.89,0,0,0-1.46.41c-1.3.48-2.92,1.08-3.77-.07a9,9,0,0,0-3-1.52c-2-.76-3.63-1.41-4-2.47a1.28,1.28,0,0,1,.22-1.15,4.12,4.12,0,0,0,.84-2.11c-1.18.57-3.54,1.46-5.21.56-1.1-.6-1.8-2-2.08-4.28a1.54,1.54,0,0,0-1.55-1.33h0a4.5,4.5,0,0,1-2.65-.58,11.49,11.49,0,0,0-2.15-1c-1.38-.55-2.56-1-2.86-1.76a8.22,8.22,0,0,0-.74-1.21c-.76-1.12-1.55-2.28-1.38-3.15a15.7,15.7,0,0,0-.19-3.22,2.84,2.84,0,0,1-1.5.86,1.92,1.92,0,0,1-1.58-.52c-.9-.81-1.51-3-1.8-6.63a1.55,1.55,0,0,0-1.19-1.38c-.73-.18-1.09-.41-1.22-.77a.7.7,0,0,1,.11-.69,5.42,5.42,0,0,0-.1-2.18c-1.21.4-3.84,1.08-5.28.08a2.4,2.4,0,0,1-1-2.15,13.21,13.21,0,0,0-1.42-5.67c-.35-.79-.5-1.12-.28-1.46a.57.57,0,0,1,.15-.16,14.24,14.24,0,0,0,.15-1.67c.13-1.93.23-2.88.66-3.3a2.53,2.53,0,0,0,.36-1.39c-2-.79-5.73-2.55-5.14-4.26.33-1,1.65-3.72,2.69-5.84a1.55,1.55,0,0,0-.63-2c-2.25-1.32-3.29-2.5-3.16-3.61s1.23-2.37,3.24-4a1.54,1.54,0,0,0,.37-2c-2-3.24-2.55-3.85-2.69-4-2-1.58-.17-5,.44-6.12l.13-.25a4.8,4.8,0,0,1,3.32-2.41c-.91-.95-2.15-2.55-1.56-3.8a11,11,0,0,0,.42-2c.31-2,.6-3.92,1.79-3.92a5,5,0,0,0,2-.74c-2.08-3.6-1.35-4.17-1.1-4.37a13,13,0,0,0,.57-2.12c.62-2.71,1.14-4.66,2.31-5.11a36.64,36.64,0,0,0,3.51-1.74,13.2,13.2,0,0,1,1.6-.81,2.29,2.29,0,0,0,.55-.68l.2-1.48c-1.11-1-5.18-4.75-4.53-7.09.24-.87,1-1.43,2.33-1.64a30.51,30.51,0,0,1,5.71-.4,1.47,1.47,0,0,0,1.27-.61,1.56,1.56,0,0,0,.24-1.43c-.87-2.71.07-3.78,1-4.2a21.85,21.85,0,0,1,6.91-1.14,1.54,1.54,0,0,0,1.48-1.41c.36-4.21,1.35-6.35,3-6.35a10.67,10.67,0,0,1,3,.54,1.49,1.49,0,0,0,1.35-.25,1.59,1.59,0,0,0,.65-1.31c-.06-5.24,1-5.9,1.41-6.12a1.47,1.47,0,0,1,1.56.06c.93.51,2,1.15,3.12,1.88a1.57,1.57,0,0,0,1.58.07,1.52,1.52,0,0,0,.82-1.33c.1-3.44.67-5.39,1.75-6a1.83,1.83,0,0,1,1.89.19,11.76,11.76,0,0,0,5.34,1.87,6.35,6.35,0,0,1,1.75.39,18.32,18.32,0,0,1,2.09,1.16,1.57,1.57,0,0,0,2.06-.37c2.18-2.8,4-3.94,5.29-3.37a9.53,9.53,0,0,1,2.81,1.95,1.54,1.54,0,0,0,1.91.15c1.93-1.27,4.57-2.81,6.15-2.91a4.13,4.13,0,0,1,3.37,1.95,1.58,1.58,0,0,0,2.09.38c5.66-3.52,6.95-2.54,7.37-2.22a12,12,0,0,1,2.47,2.8,1.49,1.49,0,0,0,1.76.62,4.61,4.61,0,0,1,2.7-.18,8,8,0,0,1,4.79,3.17,1.51,1.51,0,0,0,1.31.58,49,49,0,0,1,7-.1,11.34,11.34,0,0,0,2.2,0c1.52-.06,3-.12,3.14,1,.06.44.17,1.43.33,3.06a1.57,1.57,0,0,0,2,1.33c3.08-1,3.89-.84,4.28-.55a.77.77,0,0,1,.33.65c0,.22,0,.48,0,.76,0,.81-.12,2.15.27,2.56a.36.36,0,0,0,.29.1c.36,0,1,0,1.67-.07,3.72-.23,4.77-.19,5,.47a.74.74,0,0,1-.28.86,4.23,4.23,0,0,0-.79,3.47c.14.4.36.45.58.45.4,0,.85,0,1.33-.05,1.68-.1,3.26-.18,3.95.6a1.33,1.33,0,0,1,.29,1.16,29,29,0,0,0,0,5.29,1.55,1.55,0,0,0,.74,1.25c3.24,2,3.46,2.67,3.55,2.92a15.52,15.52,0,0,1,.44,1.9,1.53,1.53,0,0,0,1,1.18c2.42.89,5.37,2.32,5.67,4.09a13.79,13.79,0,0,1-.32,4.63,1.56,1.56,0,0,0,.61,1.59c3,2.17,4.42,3.89,4.27,5.12a6,6,0,0,1-.65,2.07,1.61,1.61,0,0,0,.33,2c2.62,2.27,2.67,3.23,2.69,3.55a10.48,10.48,0,0,1-.93,3.68,1.53,1.53,0,0,0,.3,1.63,11.79,11.79,0,0,1,2.72,4.64,4.38,4.38,0,0,1-.07,3.39,1.31,1.31,0,0,0,0,1,1.71,1.71,0,0,0,.92.95c.42.18,1.71.74,1.44,1.73,0,.07,0,.11.33.39a1.66,1.66,0,0,1,.76,1.1,1.94,1.94,0,0,1-.57,1.4h0A11.93,11.93,0,0,1,239,386a7.47,7.47,0,0,0-1.26,1c.91.74,2.5,2.73,2.45,4a1.11,1.11,0,0,1-.49.91c-.52.35-1.77,1.49-2.6,2.24-.57.52-.85.77-1,.89s-.42.64-.7,1.12c1.2,1.48,3.39,4.41,3,5.69a1,1,0,0,1-.65.67c-.58.2-.75,1.21-.9,2.1s-.27,1.58-.78,1.9a5.3,5.3,0,0,0,0,1c.07.94.14,2-.54,2.56a1.78,1.78,0,0,1-1.65.21l-.18-.05c.09.23.25.55.37.79.54,1.06,1.28,2.51.13,3.2-.58.35-1.13,1.91-1.54,3-.56,1.58-.9,2.48-1.55,2.69a.81.81,0,0,1-.75-.11c-.08-.05-.54-.28-2.24.27a1.55,1.55,0,0,0-1,1.81c1,5,.3,6,.06,6.28a1.23,1.23,0,0,1-.88.53,21.53,21.53,0,0,1-2.86.1,1.56,1.56,0,0,0-1.59,1.71c.3,3.29-.12,4.08-.52,4.4a.92.92,0,0,1-.88.16,10.58,10.58,0,0,0-3.24-.11,1.57,1.57,0,0,0-1.4,1.16c-.93,3.62-1.45,3.93-1.7,4.07s-.62.39-3.46.89a1.57,1.57,0,0,0-1.28,1.28,6.3,6.3,0,0,1-1.15,3.15l-.22.23a5.81,5.81,0,0,1-2.57,1.89,9,9,0,0,1-3.44.22,1.55,1.55,0,0,0-1.59,1.07c-.26.81-.64,1.22-1.14,1.25a10.54,10.54,0,0,0-1.49,1.29c-1.61,1.57-2.65,2.49-3.53,2.18a10.27,10.27,0,0,0-2.91.84c-2,.74-3,1.1-3.61.7a7.1,7.1,0,0,0-1.52-.72c-1.43,1.64-6.18,6.84-8.4,5.9-1.51-.64-3.78-1.7-5-2.28a1.54,1.54,0,0,0-1.26,0c-8.8,3.7-9.17,3.38-9.49,3.1a.59.59,0,0,1-.18-.29l-.46,0a3.73,3.73,0,0,1-2-.15,5,5,0,0,1-1.81-2.05C156,459.7,153,461.46,151.18,461.46Zm11.7-.64v0Zm-16.76-5.66.35,1c.21.58.64,1.26.91,1.29.62.07,1.15.65,1.83,1.37a8.85,8.85,0,0,0,1.72,1.54c.68.39,3.94-1.15,6.55-2.83l.53-.34.25.58a5,5,0,0,0,1.58,2.07,3,3,0,0,0,1.41.05c.61-.07,1.15-.13,1.47.23l.08.13a71.52,71.52,0,0,0,8.28-3.14,2.62,2.62,0,0,1,2.14,0c1.21.58,3.47,1.63,5,2.26,1.09.46,4.68-2.69,7.39-5.88l.23-.27.34.1a9.55,9.55,0,0,1,2.12.95,10.85,10.85,0,0,0,2.65-.79c1.82-.68,3-1.09,3.65-.84h0c.41,0,1.76-1.31,2.41-1.94,1.07-1,1.62-1.55,2.12-1.6a1.53,1.53,0,0,0,.23-.49,2.64,2.64,0,0,1,2.69-1.83,7.53,7.53,0,0,0,3-.15,4.78,4.78,0,0,0,2.19-1.61l.22-.23a5.76,5.76,0,0,0,.88-2.59,2.65,2.65,0,0,1,2.15-2.17,11.62,11.62,0,0,0,3.09-.75s.44-.4,1.21-3.42a2.66,2.66,0,0,1,2.38-2,11.65,11.65,0,0,1,3.54.13c.1-.2.32-.94.09-3.41a2.66,2.66,0,0,1,2.68-2.88,21.2,21.2,0,0,0,2.72-.09.19.19,0,0,0,.14-.09c.32-.45.43-2.12-.25-5.43a2.65,2.65,0,0,1,1.75-3.06,4.29,4.29,0,0,1,3-.22,10.64,10.64,0,0,0,.83-2c.53-1.5,1.08-3.06,2-3.6.28-.18-.25-1.22-.54-1.79-.44-.87-.8-1.56-.38-2.07s1.14-.28,1.43-.21a.93.93,0,0,0,.69,0c.25-.21.19-1.08.15-1.65-.06-.85-.12-1.66.49-2a4.06,4.06,0,0,0,.29-1.16c.18-1.12.42-2.51,1.58-2.93.07-.59-1.33-2.86-3.07-4.95l-.24-.3.19-.32c.83-1.41,1.07-1.76,1.28-1.84l.83-.75c.91-.82,2.14-1.94,2.74-2.34.19-.37-1-2.34-2.07-3.18a1,1,0,0,1-.41-.81c0-.69.74-1.2,1.74-1.92a11.67,11.67,0,0,0,2-1.64c.33-.4.33-.57.32-.6s-.2-.24-.35-.36a1.4,1.4,0,0,1-.71-1.48,2.27,2.27,0,0,0-.82-.5,2.78,2.78,0,0,1-1.5-1.57,2.4,2.4,0,0,1,.08-1.88,3.39,3.39,0,0,0,0-2.59,10.67,10.67,0,0,0-2.46-4.22,2.6,2.6,0,0,1-.53-2.77,10.23,10.23,0,0,0,.85-3.24c0-.39-.64-1.33-2.31-2.79a2.7,2.7,0,0,1-.59-3.27,5.22,5.22,0,0,0,.54-1.71c.07-.57-.89-2-3.83-4.11a2.68,2.68,0,0,1-1-2.7,12.54,12.54,0,0,0,.32-4.22c-.17-.94-2.07-2.18-5-3.25a2.64,2.64,0,0,1-1.68-2,12.27,12.27,0,0,0-.4-1.74c-.08-.21-.83-.94-3.09-2.35a2.66,2.66,0,0,1-1.25-2.11,33.25,33.25,0,0,1,0-5.55c0-.17,0-.22,0-.25-.34-.39-2-.29-3.08-.23-.49,0-1,.05-1.39.05a1.63,1.63,0,0,1-1.6-1.16,5.41,5.41,0,0,1,.71-4.2c-.9-.06-2.65.05-3.59.1-.73,0-1.35.08-1.74.08a1.42,1.42,0,0,1-1.07-.44c-.71-.74-.63-2.19-.57-3.36,0-.17,0-.34,0-.49a10.9,10.9,0,0,0-3.2.72,2.64,2.64,0,0,1-2.27-.31,2.6,2.6,0,0,1-1.18-1.94c-.17-1.59-.28-2.61-.33-3a6,6,0,0,0-2-.1,12,12,0,0,1-2.41-.06,44.37,44.37,0,0,0-6.74.12,2.55,2.55,0,0,1-2.24-1,7,7,0,0,0-4.13-2.76,3.67,3.67,0,0,0-2.06.1,2.54,2.54,0,0,1-3.1-1,10.89,10.89,0,0,0-2.22-2.53c-.55-.42-2.44,0-6.15,2.27a2.66,2.66,0,0,1-3.51-.64,3.28,3.28,0,0,0-2.45-1.53c-1,.07-3.09,1.06-5.63,2.73a2.59,2.59,0,0,1-3.24-.27,9,9,0,0,0-2.5-1.74c-.76-.33-2.3.84-4,3a2.65,2.65,0,0,1-3.49.62,18.19,18.19,0,0,0-2-1.08,5.31,5.31,0,0,0-1.45-.3,12.84,12.84,0,0,1-5.77-2c-.51-.31-.73-.19-.8-.16-.25.14-1.07.9-1.19,5.06a2.59,2.59,0,0,1-1.4,2.25,2.61,2.61,0,0,1-2.66-.11c-1.12-.72-2.15-1.34-3.06-1.85-.32-.17-.44-.1-.49-.07s-.93.78-.88,5.17a2.72,2.72,0,0,1-1.08,2.2,2.56,2.56,0,0,1-2.31.41,9.93,9.93,0,0,0-2.73-.49c-.86,0-1.6,2.11-1.87,5.36a2.62,2.62,0,0,1-2.52,2.4,19.68,19.68,0,0,0-6.51,1.05c-.79.35-.94,1.32-.43,2.88a2.64,2.64,0,0,1-.41,2.4,2.59,2.59,0,0,1-2.16,1.05,29,29,0,0,0-5.5.39c-.86.14-1.35.43-1.47.86-.4,1.43,2.5,4.54,4.41,6.17l.23.19-.31,2.27,0,.09a3,3,0,0,1-1.21,1.26c-.18.06-.84.42-1.43.74a38,38,0,0,1-3.64,1.8c-.71.27-1.31,2.92-1.63,4.34a6.53,6.53,0,0,1-.89,2.66,11,11,0,0,0,1.56,3.49l.26.44-.42.29a6.9,6.9,0,0,1-3.08,1.19c-.3.22-.59,2.1-.73,3a10.74,10.74,0,0,1-.5,2.32c-.34.72,1,2.37,2.07,3.26l1,.81-1.25.13s-2.81.31-3.51,2l-.18.34c-1.34,2.48-1.58,4.09-.73,4.76.19.14.76.59,3,4.26a2.64,2.64,0,0,1-.62,3.42c-1.72,1.37-2.75,2.55-2.84,3.27-.06.45.61,1.35,2.63,2.54a2.62,2.62,0,0,1,1.05,3.45c-1.45,2.95-2.39,5-2.64,5.71-.16.47,2,1.93,4.86,3l.33.13v.35a4,4,0,0,1-.67,2.55,10.21,10.21,0,0,0-.35,2.6,6.13,6.13,0,0,1-.34,2.27l.23.51a14.28,14.28,0,0,1,1.51,6.13,1.37,1.37,0,0,0,.51,1.24c1.14.79,4-.06,4.89-.42l.59-.23.13.62A8,8,0,0,1,97.4,423l.34.1a2.65,2.65,0,0,1,2,2.34c.25,3.12.79,5.33,1.44,5.91a.8.8,0,0,0,.69.26c.67-.1,1.37-1.06,1.56-1.39l.77-1.3.23,1.49a22.82,22.82,0,0,1,.36,4.85c-.08.41.73,1.61,1.21,2.32a9.21,9.21,0,0,1,.86,1.42,6.93,6.93,0,0,0,2.25,1.15,12.92,12.92,0,0,1,2.38,1.14,3.64,3.64,0,0,0,2,.38h0a2.63,2.63,0,0,1,2.63,2.28c.22,1.82.76,3,1.51,3.46,1.44.78,4-.4,4.88-.92l.56-.33.22.6c0,.07.59,1.63-.92,3.77-.09.13-.08.19-.07.22.17.56,2.06,1.29,3.31,1.77,1.59.62,3,1.15,3.51,1.89.36.49,1.55.05,2.51-.3,1.12-.42,2.39-.89,2.82.15s2.55,2.57,3.55,3.29c.44.33,1.27.18,2.14,0a6.25,6.25,0,0,1,2.82-.07c1.2.38,2.48-1.42,2.5-1.43Zm53.06-4.94h0Zm-108.72-94Z"/><path class="cls-5" d="M119.75,348.09a4.65,4.65,0,0,1-3.31-1.37l-2-2a.54.54,0,1,1,.77-.77l2,2a3.61,3.61,0,0,0,4.11.7l1.61-.78a.54.54,0,1,1,.47,1l-1.61.78A4.7,4.7,0,0,1,119.75,348.09Z"/><path class="cls-5" d="M115.7,373.86h-.19l-2.88-.12a.54.54,0,0,1,.05-1.08l2.87.12a3.59,3.59,0,0,0,3.49-2.27l.66-1.67a.54.54,0,0,1,1,.4l-.66,1.67A4.69,4.69,0,0,1,115.7,373.86Z"/><path class="cls-5" d="M106.3,409.94a.53.53,0,0,1-.49-.32.54.54,0,0,1,.26-.72l2.62-1.19a3.6,3.6,0,0,0,2.09-3.6l-.17-1.79a.55.55,0,0,1,.49-.59.54.54,0,0,1,.59.49l.17,1.79a4.67,4.67,0,0,1-2.72,4.68l-2.62,1.2A.59.59,0,0,1,106.3,409.94Z"/><path class="cls-5" d="M144.44,331.76a.54.54,0,0,1-.53-.44.55.55,0,0,1,.43-.63l2.83-.53a3.61,3.61,0,0,0,2.9-3l.27-1.77A.52.52,0,0,1,151,325a.54.54,0,0,1,.46.61l-.28,1.78a4.69,4.69,0,0,1-3.76,3.89l-2.83.52Z"/><path class="cls-5" d="M179.06,320.51A4.63,4.63,0,0,1,177,320l-2.58-1.28a.54.54,0,0,1,.48-1l2.58,1.28a3.59,3.59,0,0,0,4.11-.65l1.29-1.26a.54.54,0,0,1,.75.78l-1.29,1.25A4.67,4.67,0,0,1,179.06,320.51Z"/><path class="cls-5" d="M194.48,341.79a4.71,4.71,0,0,1-3.58-1.66l-1.85-2.2a.53.53,0,0,1,.06-.76.55.55,0,0,1,.76.06l1.86,2.2a3.6,3.6,0,0,0,4,1l1.68-.64a.54.54,0,0,1,.7.31.55.55,0,0,1-.32.7l-1.67.64A4.66,4.66,0,0,1,194.48,341.79Z"/><path class="cls-5" d="M219.09,370.47a.55.55,0,0,1-.28-.07l-1.54-.93a4.67,4.67,0,0,1-2.17-5l.58-2.81a.54.54,0,1,1,1.06.22l-.58,2.81a3.59,3.59,0,0,0,1.67,3.82l1.53.92a.54.54,0,0,1,.19.74A.53.53,0,0,1,219.09,370.47Z"/><path class="cls-5" d="M196.47,384.06a4.68,4.68,0,0,1-3.31-1.37l-2-2a.54.54,0,0,1,.76-.76l2,2a3.63,3.63,0,0,0,4.11.69l1.62-.78a.54.54,0,0,1,.47,1l-1.62.78A4.57,4.57,0,0,1,196.47,384.06Z"/><path class="cls-5" d="M163.62,360.69a4.83,4.83,0,0,1-1.7-.32l-2.67-1.05a.54.54,0,0,1-.31-.7.55.55,0,0,1,.7-.31l2.68,1.05a3.6,3.6,0,0,0,4-1l1.17-1.36a.54.54,0,0,1,.76-.06.55.55,0,0,1,.06.76l-1.17,1.36A4.7,4.7,0,0,1,163.62,360.69Z"/><path class="cls-5" d="M136.58,389.65a.51.51,0,0,1-.35-.13.53.53,0,0,1-.06-.76l1.86-2.19a3.61,3.61,0,0,0,.36-4.15l-.91-1.55a.55.55,0,0,1,.19-.74.54.54,0,0,1,.74.19l.91,1.55a4.68,4.68,0,0,1-.47,5.4L137,389.46A.56.56,0,0,1,136.58,389.65Z"/><path class="cls-5" d="M158.36,398.88a4.7,4.7,0,0,1-4.28-2.79l-1.16-2.62a.55.55,0,0,1,.27-.72.54.54,0,0,1,.71.28l1.17,2.63a3.6,3.6,0,0,0,3.58,2.12l1.79-.14a.54.54,0,1,1,.09,1.07l-1.79.15Z"/><path class="cls-5" d="M152.06,429.87a.53.53,0,0,1-.48-.3L150.8,428a4.68,4.68,0,0,1,.9-5.34l2-2a.54.54,0,0,1,.76.76l-2,2a3.61,3.61,0,0,0-.7,4.11l.78,1.62a.54.54,0,0,1-.25.72A.69.69,0,0,1,152.06,429.87Z"/><path class="cls-5" d="M149.19,452.6a.63.63,0,0,1-.19,0,.54.54,0,0,1-.32-.69l.62-1.69a4.68,4.68,0,0,1,4.39-3.07h.07l2.88.05a.53.53,0,0,1,.53.55.54.54,0,0,1-.55.53l-2.87,0a3.58,3.58,0,0,0-3.44,2.35l-.62,1.69A.53.53,0,0,1,149.19,452.6Z"/><path class="cls-5" d="M191.39,445.56a.53.53,0,0,1-.53-.47l-.24-1.78a4.68,4.68,0,0,1,2.54-4.79l2.57-1.29a.54.54,0,1,1,.48,1l-2.57,1.3a3.61,3.61,0,0,0-1.95,3.68l.24,1.78a.54.54,0,0,1-.47.6Z"/><path class="cls-5" d="M184.5,416.58a4.75,4.75,0,0,1-2.41-.66l-2.46-1.48a.54.54,0,1,1,.55-.93l2.47,1.48a3.59,3.59,0,0,0,4.15-.32l1.38-1.15a.54.54,0,1,1,.69.83l-1.38,1.15A4.64,4.64,0,0,1,184.5,416.58Z"/><path class="cls-5" d="M215.6,403.47a4.67,4.67,0,0,1-4.38-3.05l-1-2.69a.54.54,0,1,1,1-.38l1,2.7a3.59,3.59,0,0,0,3.44,2.34l1.79,0h0a.54.54,0,0,1,.54.53.55.55,0,0,1-.53.55l-1.8,0Z"/><path class="cls-5" d="M212.29,423.72a.34.34,0,0,1-.14,0,.54.54,0,0,1-.39-.65l.43-1.74a4.68,4.68,0,0,1,4.11-3.53l2.86-.27a.54.54,0,1,1,.1,1.08l-2.86.26a3.63,3.63,0,0,0-3.16,2.72l-.43,1.74A.53.53,0,0,1,212.29,423.72Z"/><path class="cls-5" d="M121.63,429.87a.53.53,0,0,1-.35-.13.54.54,0,0,1-.06-.76l1.16-1.37a4.7,4.7,0,0,1,5.25-1.34l2.68,1a.53.53,0,0,1,.31.69.55.55,0,0,1-.7.32l-2.68-1a3.61,3.61,0,0,0-4,1L122,429.68A.52.52,0,0,1,121.63,429.87Z"/><path class="cls-5" d="M95.75,386.34h-.06a.54.54,0,0,1-.48-.6l.31-2.86a3.59,3.59,0,0,0-2-3.63l-1.62-.77a.55.55,0,0,1-.26-.72.54.54,0,0,1,.72-.26l1.63.77A4.7,4.7,0,0,1,96.6,383l-.31,2.86A.54.54,0,0,1,95.75,386.34Z"/><path class="cls-6" d="M159.82,396.46a11.12,11.12,0,0,0,4,.51,10.88,10.88,0,0,0,4-.5c.26-.21.63-.06.55.29-1.1,2.79-8.05,2.81-9.17,0a.35.35,0,0,1,.49-.4l.13.08Z"/><circle class="cls-6" cx="149.6" cy="385.48" r="4.9"/><circle class="cls-7" cx="146.06" cy="382.95" r="1.36"/><circle class="cls-7" cx="147.72" cy="385.18" r="0.51"/><circle class="cls-6" cx="177.9" cy="385.48" r="4.9"/><circle class="cls-7" cx="181.44" cy="382.95" r="1.36"/><circle class="cls-7" cx="179.77" cy="385.18" r="0.51"/><ellipse class="cls-8" cx="142.62" cy="397.24" rx="3.66" ry="1.91"/><ellipse class="cls-8" cx="186.46" cy="397.24" rx="3.66" ry="1.91"/><path class="cls-1" d="M558.06,568.89c-8,30.35-4.34,90.08-2.36,114.87.55,7,1,11.19,1,11.19H544.26s-1.93-78.89,5-107.58,12.39-103.61,12.39-103.61l4.72-2.55,1.9-1S568.26,530,558.06,568.89Z"/><path class="cls-2" d="M558.06,568.89c-8,30.35-4.34,90.08-2.36,114.87l-3,1.68s-5.86-84,2.51-112c10.84-42.22,11.89-79.93,11.09-88.86l1.9-1S568.26,530,558.06,568.89Z"/><path class="cls-1" d="M556.13,554.32s-1-.41-2.55-1.22c-5.83-3.05-19.39-11.78-16.26-25.67.58-2.63,1.4-4,2.36-4.56,5.52-3,15.82,23.41,15.82,23.41Z"/><path class="cls-3" d="M575.78,621l1.05-1.11A14,14,0,0,1,575.78,621Z"/><path class="cls-1" d="M576.86,553.36a41.46,41.46,0,0,1-17.37,3.72l2.11-8s11.76-11.66,20-16.15c5.23-2.84,9-2.8,7.49,5C587.49,546,582.39,550.65,576.86,553.36Z"/><path class="cls-2" d="M576.86,553.36c6.23-5,12.11-12.14,11.58-19.88-.23-3.4-6.84-.54-6.84-.54h0c5.23-2.84,9-2.8,7.49,5C587.49,546,582.39,550.65,576.86,553.36Z"/><path class="cls-4" d="M654.42,415.34c-1.43,1.67-4.36,2.79-3.36,3.6s3,3.44,2,4.06-3.55,3.15-3.64,3.15a14.26,14.26,0,0,0-1,1.59s4.39,5.3,2.86,5.8-1,3.67-1.83,4.08.95,4.36-1.72,3.65,1.41,3.1-.1,4-2.19,6.35-3.27,5.63c-.53-.36-1.69-.12-2.7.21a2.1,2.1,0,0,0-1.38,2.43c.47,2.28,1,6-.35,6.16a22.83,22.83,0,0,1-2.8.11A2.1,2.1,0,0,0,635,462.1c.18,1.93.21,4.28-.7,4a11.25,11.25,0,0,0-3.43-.14,2.1,2.1,0,0,0-1.89,1.57c-.37,1.42-1,3.45-1.45,3.74a14.47,14.47,0,0,1-3.28.82,2.12,2.12,0,0,0-1.72,1.73,6.43,6.43,0,0,1-1,2.87,5.94,5.94,0,0,1-2.6,2,8.88,8.88,0,0,1-3.2.18,2.11,2.11,0,0,0-2.15,1.45c-.15.48-.36.87-.67.87-.76,0-3.72,3.89-4.79,3.51s-5.63,2.12-6.39,1.6a8.9,8.9,0,0,0-2-.91s-5.89,6.94-8,6c-1.51-.63-3.76-1.69-5-2.27a2.06,2.06,0,0,0-1.7,0c-2.42,1-9.12,3.78-8.94,3.11s-1.74.1-2.75-.4a5.65,5.65,0,0,1-1.83-2.34s-5.68,3.65-7.11,2.84-2.53-2.74-3.34-2.84-1.36-1.64-1.36-1.64-1.48,2.14-3.1,1.64-4,.81-5.08,0-3.24-2.34-3.77-3.55-4.15,1.79-5.27.26-8.11-2.6-6.75-4.51.86-3.27.86-3.27-3.39,2-5.42.93c-1.15-.63-1.61-2.42-1.79-3.86a2.09,2.09,0,0,0-2.13-1.81,4.05,4.05,0,0,1-2.32-.48c-1.27-.91-4.46-1.62-4.82-2.53s-2.29-3-2.1-4a24.49,24.49,0,0,0-.36-4.65s-1.55,2.64-3.08,1.26c-1-.92-1.45-4.24-1.62-6.27a2.09,2.09,0,0,0-1.6-1.86c-.56-.14-1-.34-.81-.62.46-.6-.12-3.22-.12-3.22s-6.2,2.45-6.13-1.34-2.21-6.87-1.74-6.87.22-4.41.84-5a3.64,3.64,0,0,0,.52-2.14s-5.7-2.2-5.17-3.72c.33-1,1.72-3.86,2.66-5.78a2.1,2.1,0,0,0-.83-2.74c-1.37-.81-3-2-2.9-3.08s1.78-2.62,3-3.61a2.09,2.09,0,0,0,.49-2.73,24.19,24.19,0,0,0-2.82-4.11c-1.88-1.48.55-5.3.74-5.74.83-2,4-2.29,4-2.29s-2.88-2.47-2.21-3.9c.54-1.15.58-5.63,1.72-5.63a6.59,6.59,0,0,0,2.78-1.11s-2.18-3.6-1.51-4.12,1.14-6.54,2.74-7.16,4.6-2.39,5.08-2.53.91-1,.91-1l.25-1.88s-8.31-7-2.68-8a31,31,0,0,1,5.61-.39,2.09,2.09,0,0,0,2-2.74c-.46-1.45-.56-3,.73-3.54a21.11,21.11,0,0,1,6.71-1.09,2.09,2.09,0,0,0,2-1.91c.19-2.29.76-5.85,2.41-5.85a10.66,10.66,0,0,1,2.89.51,2.12,2.12,0,0,0,2.69-2.09c0-2.91.27-6.62,2.17-5.58,1,.58,2.12,1.24,3.09,1.87a2.1,2.1,0,0,0,3.23-1.7c.09-3.11.63-6.7,2.82-5.34,3.64,2.29,5.79,1.69,7.15,2.29a17.56,17.56,0,0,1,2,1.12,2.1,2.1,0,0,0,2.78-.5c1.25-1.6,3.27-3.79,4.65-3.2a9.5,9.5,0,0,1,2.65,1.84,2.07,2.07,0,0,0,2.57.21c1.68-1.1,4.38-2.72,5.89-2.81a3.67,3.67,0,0,1,2.91,1.73,2.13,2.13,0,0,0,2.81.52c2.11-1.32,5.54-3.18,6.76-2.25a11.74,11.74,0,0,1,2.34,2.66,2,2,0,0,0,2.43.81,4.06,4.06,0,0,1,2.38-.13,7.42,7.42,0,0,1,4.46,2.95,2,2,0,0,0,1.78.8,48.68,48.68,0,0,1,6.86-.1c1.83.31,4.72-.46,4.89.62.06.5.2,1.8.32,3a2.11,2.11,0,0,0,2.75,1.79c1.8-.58,3.91-1.11,3.91-.41,0,1.21-.45,4,1.08,4s7.15-.62,6.08.31-1.86,4.86.14,4.86,5.35-.62,5,1.08a34.46,34.46,0,0,0,0,5.41,2.08,2.08,0,0,0,1,1.68c1.19.74,3.11,2,3.32,2.64a12.36,12.36,0,0,1,.42,1.82,2.09,2.09,0,0,0,1.34,1.59c1.78.66,5,2.06,5.33,3.67a13.33,13.33,0,0,1-.32,4.43,2.1,2.1,0,0,0,.83,2.14c1.58,1.15,4.21,3.28,4,4.62a5.59,5.59,0,0,1-.59,1.89,2.16,2.16,0,0,0,.46,2.62c1.11,1,2.45,2.3,2.5,3.17a10.59,10.59,0,0,1-.89,3.46,2,2,0,0,0,.41,2.2,11.21,11.21,0,0,1,2.6,4.43,3.91,3.91,0,0,1,0,3,2,2,0,0,0,1.14,2.72c.73.31,1.25.69,1.14,1.09C653.49,413.77,655.83,413.65,654.42,415.34Z"/><path class="cls-5" d="M564.9,493a1.62,1.62,0,0,1-.79-.17,9.39,9.39,0,0,1-2-1.74c-.38-.4-.94-1-1.16-1a2.13,2.13,0,0,1-1.43-1.19,3.24,3.24,0,0,1-3.13,1.17,5.25,5.25,0,0,0-2.31.1,3.88,3.88,0,0,1-2.93-.18c-1.63-1.18-3.38-2.52-3.93-3.75a4.89,4.89,0,0,0-1.46.41c-1.3.48-2.92,1.08-3.76-.07a9.38,9.38,0,0,0-3-1.52c-2-.75-3.63-1.4-4-2.47a1.28,1.28,0,0,1,.22-1.15,4.12,4.12,0,0,0,.84-2.11c-1.18.57-3.54,1.47-5.21.56-1.1-.6-1.8-2-2.08-4.27a1.54,1.54,0,0,0-1.55-1.34h0a4.5,4.5,0,0,1-2.65-.58,12.16,12.16,0,0,0-2.15-1c-1.38-.54-2.56-1-2.86-1.76a9.43,9.43,0,0,0-.74-1.21c-.76-1.12-1.55-2.28-1.38-3.14a15.79,15.79,0,0,0-.19-3.23,2.77,2.77,0,0,1-1.5.86,1.88,1.88,0,0,1-1.58-.52c-.9-.8-1.51-3-1.8-6.63a1.56,1.56,0,0,0-1.19-1.38c-.73-.18-1.09-.41-1.22-.76a.72.72,0,0,1,.11-.7A5.42,5.42,0,0,0,510,452c-1.21.4-3.84,1.08-5.28.08a2.4,2.4,0,0,1-1-2.15,13.16,13.16,0,0,0-1.42-5.66c-.35-.8-.5-1.13-.28-1.47a.75.75,0,0,1,.15-.16,14.25,14.25,0,0,0,.15-1.66c.13-1.93.23-2.89.66-3.31a2.5,2.5,0,0,0,.36-1.38c-2-.8-5.73-2.55-5.14-4.27.33-1,1.65-3.72,2.69-5.83a1.56,1.56,0,0,0-.63-2c-2.25-1.32-3.29-2.5-3.16-3.6s1.23-2.38,3.24-4a1.54,1.54,0,0,0,.37-2c-2-3.24-2.55-3.85-2.69-4-2-1.57-.17-5,.44-6.12l.13-.25a4.8,4.8,0,0,1,3.32-2.41c-.91-.95-2.15-2.55-1.56-3.8a10.87,10.87,0,0,0,.42-2c.31-2,.6-3.92,1.79-3.92a4.87,4.87,0,0,0,2-.75c-2.08-3.59-1.35-4.17-1.1-4.37a13,13,0,0,0,.57-2.12c.62-2.71,1.14-4.66,2.31-5.11a34.43,34.43,0,0,0,3.51-1.74,13.2,13.2,0,0,1,1.6-.81,2.21,2.21,0,0,0,.55-.67l.2-1.49c-1.11-1-5.18-4.74-4.53-7.09.24-.87,1-1.42,2.33-1.64a31.37,31.37,0,0,1,5.71-.4,1.45,1.45,0,0,0,1.27-.61,1.54,1.54,0,0,0,.24-1.42c-.87-2.71.07-3.79,1-4.21a21.57,21.57,0,0,1,6.91-1.13,1.54,1.54,0,0,0,1.48-1.42c.36-4.21,1.35-6.34,3-6.34a11,11,0,0,1,3,.53A1.49,1.49,0,0,0,534,351a1.61,1.61,0,0,0,.65-1.32c-.06-5.23,1-5.9,1.41-6.12a1.5,1.5,0,0,1,1.56.06c.93.52,2,1.15,3.12,1.88a1.54,1.54,0,0,0,1.58.07,1.51,1.51,0,0,0,.82-1.32c.1-3.44.67-5.4,1.75-6a1.78,1.78,0,0,1,1.89.19,12,12,0,0,0,5.34,1.87,6.36,6.36,0,0,1,1.75.38,20,20,0,0,1,2.09,1.16,1.57,1.57,0,0,0,2.06-.37c2.18-2.8,4-3.94,5.29-3.37a9.73,9.73,0,0,1,2.81,1.95,1.54,1.54,0,0,0,1.91.15c1.93-1.27,4.57-2.8,6.15-2.9,1.13-.09,2.31.58,3.37,1.94a1.59,1.59,0,0,0,2.09.39c5.66-3.53,7-2.55,7.37-2.22a11.67,11.67,0,0,1,2.47,2.79,1.47,1.47,0,0,0,1.76.62,4.69,4.69,0,0,1,2.7-.18,8.07,8.07,0,0,1,4.79,3.17,1.48,1.48,0,0,0,1.31.58,49,49,0,0,1,7-.1,10.6,10.6,0,0,0,2.2,0c1.52-.06,3-.12,3.14,1,.06.44.17,1.44.33,3.06a1.57,1.57,0,0,0,2,1.33c3.08-1,3.89-.83,4.28-.55a.78.78,0,0,1,.33.66c0,.21,0,.47,0,.75-.05.81-.12,2.16.27,2.56a.36.36,0,0,0,.29.11c.36,0,1,0,1.67-.08,3.72-.22,4.77-.19,5,.47a.76.76,0,0,1-.28.87,4.21,4.21,0,0,0-.79,3.47.55.55,0,0,0,.58.44c.4,0,.85,0,1.33,0,1.68-.09,3.26-.18,3.95.6a1.33,1.33,0,0,1,.29,1.16,29.12,29.12,0,0,0,0,5.3,1.55,1.55,0,0,0,.74,1.24c3.24,2,3.46,2.68,3.55,2.92a16.5,16.5,0,0,1,.44,1.9,1.55,1.55,0,0,0,1,1.19c2.42.89,5.37,2.31,5.67,4.08a13.77,13.77,0,0,1-.32,4.63,1.56,1.56,0,0,0,.61,1.59c3,2.17,4.42,3.89,4.27,5.13a6,6,0,0,1-.65,2.07,1.6,1.6,0,0,0,.33,2c2.62,2.28,2.67,3.24,2.69,3.55a10.56,10.56,0,0,1-.93,3.69,1.52,1.52,0,0,0,.3,1.62,11.79,11.79,0,0,1,2.72,4.64,4.38,4.38,0,0,1-.07,3.39,1.31,1.31,0,0,0,0,1,1.68,1.68,0,0,0,.92.95c.42.19,1.71.75,1.44,1.73,0,.08,0,.11.33.4a1.64,1.64,0,0,1,.76,1.09,2,2,0,0,1-.57,1.41h0a11.59,11.59,0,0,1-2.15,1.82,7.49,7.49,0,0,0-1.26,1c.91.75,2.5,2.73,2.45,4a1.14,1.14,0,0,1-.49.92c-.52.34-1.77,1.48-2.6,2.23-.57.53-.85.78-1,.9s-.42.63-.7,1.11c1.2,1.48,3.39,4.41,3,5.7a1,1,0,0,1-.65.66c-.58.2-.75,1.21-.9,2.1s-.27,1.58-.78,1.91a5.2,5.2,0,0,0,0,1c.07.94.15,2-.54,2.56a1.75,1.75,0,0,1-1.65.21l-.18,0c.09.23.25.55.37.78.54,1.06,1.28,2.51.13,3.21-.58.34-1.13,1.9-1.54,3-.56,1.57-.9,2.47-1.55,2.69a.85.85,0,0,1-.75-.12c-.08-.05-.54-.28-2.24.27a1.56,1.56,0,0,0-1,1.81c1,5,.3,6,.06,6.29a1.26,1.26,0,0,1-.88.52,21.27,21.27,0,0,1-2.86.11,1.54,1.54,0,0,0-1.18.5,1.51,1.51,0,0,0-.41,1.2c.3,3.29-.12,4.08-.52,4.41a.92.92,0,0,1-.88.15,10.58,10.58,0,0,0-3.24-.11,1.57,1.57,0,0,0-1.4,1.17c-.93,3.61-1.45,3.92-1.7,4.07s-.62.39-3.46.89a1.56,1.56,0,0,0-1.28,1.27,6.3,6.3,0,0,1-1.15,3.15l-.21.24a6,6,0,0,1-2.58,1.88,8.82,8.82,0,0,1-3.44.22,1.55,1.55,0,0,0-1.59,1.08c-.26.8-.64,1.22-1.14,1.24a10.26,10.26,0,0,0-1.48,1.3c-1.62,1.56-2.66,2.49-3.54,2.18A10.18,10.18,0,0,0,605,486c-2,.74-3,1.11-3.61.7a7.62,7.62,0,0,0-1.52-.72c-1.43,1.65-6.18,6.85-8.4,5.9-1.51-.64-3.78-1.7-5-2.28a1.54,1.54,0,0,0-1.26,0c-8.8,3.71-9.17,3.38-9.49,3.1a.59.59,0,0,1-.18-.29l-.46.05a3.74,3.74,0,0,1-2-.16,5,5,0,0,1-1.81-2C569.75,491.19,566.67,493,564.9,493Zm11.7-.64v0Zm-16.76-5.65.35,1c.21.58.64,1.25.91,1.29.62.07,1.15.64,1.83,1.36a8.24,8.24,0,0,0,1.72,1.54c.68.39,3.94-1.15,6.55-2.82l.53-.34.25.57a5,5,0,0,0,1.58,2.07,3,3,0,0,0,1.41.05c.61-.07,1.15-.12,1.47.24l.08.12a72.61,72.61,0,0,0,8.28-3.13,2.54,2.54,0,0,1,2.14,0c1.21.57,3.47,1.63,5,2.26,1.09.46,4.68-2.7,7.39-5.89l.23-.27.34.1a9.28,9.28,0,0,1,2.12,1,11,11,0,0,0,2.65-.8c1.82-.68,3-1.08,3.65-.84h0c.41,0,1.76-1.31,2.41-1.94,1.07-1,1.62-1.55,2.12-1.6a1.3,1.3,0,0,0,.23-.49,2.64,2.64,0,0,1,2.69-1.83,7.43,7.43,0,0,0,3-.14,4.8,4.8,0,0,0,2.19-1.62l.22-.23a5.76,5.76,0,0,0,.88-2.59,2.65,2.65,0,0,1,2.15-2.17,11.62,11.62,0,0,0,3.09-.75s.44-.4,1.21-3.41a2.64,2.64,0,0,1,2.38-2,11.34,11.34,0,0,1,3.54.13c.1-.2.32-.95.09-3.41a2.68,2.68,0,0,1,.7-2,2.61,2.61,0,0,1,2-.84,22.86,22.86,0,0,0,2.72-.1.19.19,0,0,0,.14-.09c.32-.45.43-2.11-.25-5.43a2.63,2.63,0,0,1,1.75-3,4.25,4.25,0,0,1,3-.23,10.81,10.81,0,0,0,.83-1.95c.53-1.51,1.08-3.07,2-3.61.28-.17-.25-1.22-.54-1.78-.44-.88-.8-1.57-.38-2.08s1.14-.28,1.43-.2.58.09.69,0,.19-1.07.15-1.65c-.06-.85-.12-1.66.49-2a4.15,4.15,0,0,0,.29-1.17c.18-1.11.42-2.5,1.58-2.93.07-.59-1.33-2.86-3.07-5l-.24-.29.19-.33c.83-1.41,1.07-1.75,1.28-1.84s.52-.46.83-.75a33.65,33.65,0,0,1,2.74-2.33c.19-.38-1-2.35-2.07-3.18a1,1,0,0,1-.41-.82c0-.68.74-1.2,1.74-1.92a10.79,10.79,0,0,0,2-1.64c.33-.39.33-.57.32-.6s-.2-.23-.35-.35a1.41,1.41,0,0,1-.71-1.48,2.07,2.07,0,0,0-.82-.51,2.76,2.76,0,0,1-1.5-1.57,2.41,2.41,0,0,1,.08-1.88,3.4,3.4,0,0,0,0-2.58,10.71,10.71,0,0,0-2.47-4.22,2.61,2.61,0,0,1-.53-2.78,10.23,10.23,0,0,0,.85-3.24c0-.39-.64-1.33-2.31-2.79a2.69,2.69,0,0,1-.59-3.26,5.29,5.29,0,0,0,.54-1.71c.07-.57-.89-2-3.83-4.12a2.66,2.66,0,0,1-1-2.69A12.58,12.58,0,0,0,642,377c-.17-.93-2.07-2.18-5-3.25a2.6,2.6,0,0,1-1.68-2,12.27,12.27,0,0,0-.4-1.74c-.08-.21-.83-.94-3.09-2.35a2.66,2.66,0,0,1-1.25-2.11,33.11,33.11,0,0,1,0-5.54c0-.18,0-.23,0-.25-.34-.39-2-.3-3.08-.24-.49,0-1,.05-1.39.05a1.63,1.63,0,0,1-1.6-1.15,5.43,5.43,0,0,1,.71-4.21c-.9-.05-2.65.05-3.59.11-.73,0-1.35.08-1.74.08a1.42,1.42,0,0,1-1.07-.45c-.71-.74-.63-2.19-.57-3.35,0-.18,0-.34,0-.49a10.3,10.3,0,0,0-3.2.71,2.64,2.64,0,0,1-3.45-2.25c-.17-1.59-.28-2.6-.33-3a5.9,5.9,0,0,0-2-.11,12,12,0,0,1-2.41-.05,43.87,43.87,0,0,0-6.74.11,2.55,2.55,0,0,1-2.24-1,7,7,0,0,0-4.13-2.75,3.5,3.5,0,0,0-2.06.1,2.54,2.54,0,0,1-3.1-1,10.77,10.77,0,0,0-2.22-2.54c-.55-.42-2.44,0-6.15,2.27a2.66,2.66,0,0,1-3.51-.64c-.58-.73-1.48-1.6-2.45-1.52s-3.09,1.06-5.63,2.73a2.61,2.61,0,0,1-3.24-.28,8.75,8.75,0,0,0-2.5-1.73c-.76-.33-2.29.84-4,3a2.66,2.66,0,0,1-3.49.63,16.93,16.93,0,0,0-2-1.09,5.71,5.71,0,0,0-1.45-.3,12.84,12.84,0,0,1-5.77-2c-.51-.31-.73-.19-.8-.15-.25.13-1.07.89-1.19,5.06a2.63,2.63,0,0,1-4.06,2.13c-1.12-.72-2.15-1.34-3.06-1.85-.32-.17-.44-.1-.49-.07s-.93.78-.88,5.18a2.71,2.71,0,0,1-1.08,2.19,2.56,2.56,0,0,1-2.31.42,9.57,9.57,0,0,0-2.73-.49c-.86,0-1.6,2.1-1.87,5.35a2.63,2.63,0,0,1-2.52,2.41,20,20,0,0,0-6.51,1c-.79.35-.94,1.32-.43,2.89a2.65,2.65,0,0,1-.41,2.4,2.61,2.61,0,0,1-2.16,1,29,29,0,0,0-5.5.39c-.86.14-1.35.43-1.47.86-.4,1.43,2.5,4.55,4.41,6.17l.23.19-.31,2.27,0,.09a3,3,0,0,1-1.21,1.26c-.18.06-.84.42-1.43.74a32.93,32.93,0,0,1-3.64,1.8c-.71.28-1.31,2.92-1.63,4.34a6.66,6.66,0,0,1-.89,2.67,11,11,0,0,0,1.56,3.48l.27.44-.43.29a6.88,6.88,0,0,1-3.08,1.2c-.3.21-.59,2.09-.73,3a10.6,10.6,0,0,1-.5,2.32c-.34.72,1,2.37,2.07,3.26l.95.82-1.25.13s-2.81.3-3.51,2l-.18.34c-1.34,2.49-1.58,4.09-.73,4.76.19.15.76.59,3,4.26a2.66,2.66,0,0,1-.62,3.43c-1.72,1.36-2.75,2.55-2.84,3.26-.06.45.61,1.36,2.63,2.54a2.62,2.62,0,0,1,1.05,3.45c-1.45,3-2.39,5-2.64,5.71-.16.47,2,1.93,4.86,3l.33.13v.35a4,4,0,0,1-.67,2.55,10.3,10.3,0,0,0-.35,2.61,6.11,6.11,0,0,1-.34,2.26l.23.52a14.27,14.27,0,0,1,1.51,6.12,1.36,1.36,0,0,0,.51,1.24c1.14.79,4-.06,4.89-.41l.59-.24.13.62a8,8,0,0,1,.19,3.33,2.08,2.08,0,0,0,.34.1,2.65,2.65,0,0,1,2,2.35c.25,3.12.79,5.33,1.44,5.91a.82.82,0,0,0,.69.25c.67-.1,1.37-1.06,1.57-1.39l.76-1.29.23,1.48a22.88,22.88,0,0,1,.36,4.85c-.08.42.73,1.61,1.21,2.32a9.21,9.21,0,0,1,.86,1.42c.13.32,1.46.84,2.25,1.16a12.31,12.31,0,0,1,2.38,1.13,3.55,3.55,0,0,0,2,.38h0a2.63,2.63,0,0,1,2.63,2.28c.22,1.82.76,3.05,1.51,3.46,1.44.78,4-.4,4.88-.92l.56-.33.23.61c0,.06.58,1.62-.93,3.76-.09.14-.08.19-.07.22.17.56,2.06,1.29,3.31,1.77,1.59.62,3,1.15,3.51,1.89.36.5,1.55.05,2.51-.3,1.12-.42,2.39-.89,2.82.15s2.55,2.57,3.55,3.3c.44.32,1.27.17,2.14,0a6.11,6.11,0,0,1,2.82-.08c1.2.38,2.48-1.41,2.5-1.43Zm53.06-5h0Zm-108.72-94Z"/><path class="cls-5" d="M533.47,379.58a4.68,4.68,0,0,1-3.31-1.36l-2-2a.54.54,0,0,1,0-.76.55.55,0,0,1,.77,0l2,2a3.61,3.61,0,0,0,4.11.7l1.61-.78a.54.54,0,1,1,.47,1l-1.61.78A4.7,4.7,0,0,1,533.47,379.58Z"/><path class="cls-5" d="M529.42,405.36h-.19l-2.88-.12a.54.54,0,0,1,0-1.08l2.87.12a3.59,3.59,0,0,0,3.49-2.27l.66-1.67a.55.55,0,0,1,.71-.3.54.54,0,0,1,.3.7l-.66,1.67A4.69,4.69,0,0,1,529.42,405.36Z"/><path class="cls-5" d="M520,441.43a.53.53,0,0,1-.49-.32.53.53,0,0,1,.26-.71l2.62-1.2a3.6,3.6,0,0,0,2.09-3.6l-.17-1.79a.54.54,0,0,1,.49-.58.54.54,0,0,1,.59.48l.17,1.79a4.69,4.69,0,0,1-2.72,4.69l-2.62,1.19A.59.59,0,0,1,520,441.43Z"/><path class="cls-5" d="M558.16,363.26a.55.55,0,0,1-.1-1.08l2.83-.52a3.61,3.61,0,0,0,2.9-3l.27-1.78a.53.53,0,0,1,.61-.45.54.54,0,0,1,.46.61l-.28,1.78a4.68,4.68,0,0,1-3.76,3.89l-2.83.53Z"/><path class="cls-5" d="M592.78,352a4.75,4.75,0,0,1-2.07-.48l-2.58-1.28a.54.54,0,0,1-.24-.73.52.52,0,0,1,.72-.24l2.58,1.28a3.59,3.59,0,0,0,4.11-.65l1.29-1.25a.53.53,0,0,1,.76,0,.54.54,0,0,1,0,.76l-1.29,1.26A4.66,4.66,0,0,1,592.78,352Z"/><path class="cls-5" d="M608.2,373.28a4.67,4.67,0,0,1-3.58-1.66l-1.85-2.2a.53.53,0,0,1,.06-.76.54.54,0,0,1,.76.07l1.86,2.19a3.59,3.59,0,0,0,4,1l1.68-.64a.54.54,0,1,1,.38,1l-1.67.64A4.66,4.66,0,0,1,608.2,373.28Z"/><path class="cls-5" d="M632.81,402a.57.57,0,0,1-.28-.08L631,401a4.68,4.68,0,0,1-2.17-5l.58-2.82a.54.54,0,1,1,1.06.22l-.58,2.82a3.6,3.6,0,0,0,1.67,3.81l1.53.92a.54.54,0,0,1-.27,1Z"/><path class="cls-5" d="M610.19,415.55a4.68,4.68,0,0,1-3.31-1.37l-2-2a.55.55,0,0,1,0-.77.54.54,0,0,1,.76,0l2,2a3.58,3.58,0,0,0,4.1.69l1.62-.78a.55.55,0,0,1,.72.26.54.54,0,0,1-.25.72l-1.62.78A4.7,4.7,0,0,1,610.19,415.55Z"/><path class="cls-5" d="M577.34,392.18a4.61,4.61,0,0,1-1.7-.32L573,390.81a.54.54,0,0,1-.31-.7.54.54,0,0,1,.7-.3l2.68,1a3.6,3.6,0,0,0,4-1l1.17-1.36a.54.54,0,0,1,.76-.06.55.55,0,0,1,.06.76l-1.17,1.37A4.72,4.72,0,0,1,577.34,392.18Z"/><path class="cls-5" d="M550.3,421.14a.54.54,0,0,1-.41-.89l1.86-2.19a3.61,3.61,0,0,0,.36-4.15l-.91-1.55a.55.55,0,0,1,.19-.74.54.54,0,0,1,.74.2l.91,1.54a4.67,4.67,0,0,1-.47,5.4L550.71,421A.53.53,0,0,1,550.3,421.14Z"/><path class="cls-5" d="M572.08,430.37a4.69,4.69,0,0,1-4.28-2.78L566.64,425a.54.54,0,0,1,1-.44l1.16,2.63a3.61,3.61,0,0,0,3.58,2.13l1.79-.15a.54.54,0,0,1,.09,1.08l-1.79.14Z"/><path class="cls-5" d="M565.78,461.37a.54.54,0,0,1-.48-.31l-.78-1.62a4.68,4.68,0,0,1,.9-5.34l2-2a.54.54,0,0,1,.76.76l-2,2a3.6,3.6,0,0,0-.7,4.1l.78,1.62a.55.55,0,0,1-.49.78Z"/><path class="cls-5" d="M562.91,484.09a.63.63,0,0,1-.19,0,.54.54,0,0,1-.32-.69l.62-1.69a4.67,4.67,0,0,1,4.39-3.06h.07l2.88,0a.54.54,0,0,1,0,1.08l-2.87,0a3.57,3.57,0,0,0-3.44,2.36l-.62,1.68A.53.53,0,0,1,562.91,484.09Z"/><path class="cls-5" d="M605.11,477.05a.53.53,0,0,1-.53-.47l-.24-1.78a4.69,4.69,0,0,1,2.54-4.79l2.57-1.29a.54.54,0,0,1,.48,1L607.36,471a3.62,3.62,0,0,0-2,3.68l.24,1.78a.53.53,0,0,1-.47.6Z"/><path class="cls-5" d="M598.22,448.08a4.67,4.67,0,0,1-2.41-.67l-2.46-1.48a.54.54,0,0,1,.55-.93l2.47,1.48a3.59,3.59,0,0,0,4.15-.32L601.9,445a.53.53,0,0,1,.76.07.54.54,0,0,1-.07.76L601.21,447A4.65,4.65,0,0,1,598.22,448.08Z"/><path class="cls-5" d="M629.32,435a4.68,4.68,0,0,1-4.38-3.05l-1-2.7a.52.52,0,0,1,.31-.69.55.55,0,0,1,.7.31l1,2.7a3.61,3.61,0,0,0,3.44,2.35l1.79,0h0a.54.54,0,0,1,0,1.08l-1.8,0Z"/><path class="cls-5" d="M626,455.21h-.14a.55.55,0,0,1-.39-.66l.43-1.74a4.68,4.68,0,0,1,4.11-3.53l2.86-.27a.54.54,0,1,1,.1,1.08l-2.86.27a3.6,3.6,0,0,0-3.16,2.71l-.43,1.74A.53.53,0,0,1,626,455.21Z"/><path class="cls-5" d="M535.35,461.37a.58.58,0,0,1-.35-.13.54.54,0,0,1-.06-.76l1.16-1.37a4.66,4.66,0,0,1,5.25-1.34l2.68,1a.54.54,0,0,1,.31.7.55.55,0,0,1-.7.31l-2.68-1a3.6,3.6,0,0,0-4,1l-1.16,1.36A.53.53,0,0,1,535.35,461.37Z"/><path class="cls-5" d="M509.47,417.84h-.06a.54.54,0,0,1-.48-.59l.31-2.86a3.6,3.6,0,0,0-2-3.64l-1.62-.77a.54.54,0,0,1,.46-1l1.63.78a4.68,4.68,0,0,1,2.64,4.72l-.31,2.86A.55.55,0,0,1,509.47,417.84Z"/><path class="cls-6" d="M573.54,428a11.12,11.12,0,0,0,4,.51,10.87,10.87,0,0,0,4-.49c.26-.21.63-.06.55.29-1.1,2.78-8.05,2.8-9.17,0a.34.34,0,0,1,.49-.39l.13.07Z"/><circle class="cls-6" cx="563.32" cy="416.97" r="4.9"/><circle class="cls-7" cx="559.78" cy="414.44" r="1.36"/><circle class="cls-7" cx="561.44" cy="416.67" r="0.51"/><circle class="cls-6" cx="591.62" cy="416.97" r="4.9"/><circle class="cls-7" cx="595.16" cy="414.44" r="1.36"/><circle class="cls-7" cx="593.49" cy="416.67" r="0.51"/><ellipse class="cls-8" cx="556.34" cy="428.73" rx="3.66" ry="1.91"/><ellipse class="cls-8" cx="600.18" cy="428.73" rx="3.66" ry="1.91"/><path class="cls-1" d="M353,429.16c-14.74,56.17-8,166.74-4.37,212.63,1,12.93,1.82,20.73,1.82,20.73h-23s-3.58-146,9.19-199.15,22.94-191.79,22.94-191.79l8.74-4.73,3.52-1.91S371.85,357.16,353,429.16Z"/><path class="cls-2" d="M353,429.16c-14.74,56.17-8,166.74-4.37,212.63l-5.48,3.11s-10.83-155.4,4.65-207.31c20.07-78.15,22-147.95,20.54-164.49l3.52-1.91S371.85,357.16,353,429.16Z"/><path class="cls-1" d="M349.4,402.18s-1.86-.76-4.73-2.26c-10.78-5.64-35.88-21.8-30.1-47.52,1.09-4.85,2.6-7.48,4.38-8.44,10.21-5.49,29.27,43.34,29.27,43.34Z"/><path class="cls-3" d="M385.77,525.54l1.94-2A27.27,27.27,0,0,1,385.77,525.54Z"/><path class="cls-1" d="M387.77,400.41c-15.21,7.45-32.14,6.89-32.14,6.89l3.89-14.8s21.78-21.6,37-29.9c9.69-5.27,16.73-5.18,13.87,9.22C407.44,386.73,398,395.39,387.77,400.41Z"/><path class="cls-2" d="M387.77,400.41c11.53-9.25,22.42-22.46,21.44-36.79-.43-6.31-12.67-1-12.67-1h0c9.69-5.27,16.73-5.18,13.87,9.22C407.44,386.73,398,395.39,387.77,400.41Z"/><path class="cls-9" d="M531.35,144.92c-2.65,3.09-8.08,5.16-6.23,6.66s5.48,6.36,3.76,7.51-6.58,5.83-6.76,5.83a27.24,27.24,0,0,0-1.9,3s8.13,9.8,5.3,10.73-1.9,6.8-3.4,7.55,1.77,8.08-3.18,6.75,2.61,5.74-.18,7.42-4.06,11.74-6,10.42c-1-.68-3.14-.22-5,.38a3.89,3.89,0,0,0-2.56,4.5c.87,4.22,1.89,11.14-.65,11.41a39.21,39.21,0,0,1-5.17.19,3.89,3.89,0,0,0-3.95,4.24c.33,3.58.4,7.93-1.3,7.4a21.48,21.48,0,0,0-6.35-.24,3.88,3.88,0,0,0-3.5,2.9c-.68,2.63-1.78,6.39-2.69,6.93s-3.78,1.11-6.07,1.52a3.88,3.88,0,0,0-3.17,3.19c-.31,1.87-.88,4.21-1.88,5.31-1.86,2-2.39,2.69-4.82,3.66-1.26.52-3.8.49-5.91.34a3.89,3.89,0,0,0-4,2.69c-.28.88-.68,1.61-1.24,1.61-1.42,0-6.89,7.2-8.88,6.49s-10.42,3.93-11.83,3a16.61,16.61,0,0,0-3.71-1.68s-10.91,12.85-14.83,11.17c-2.79-1.18-7-3.14-9.22-4.2a3.81,3.81,0,0,0-3.15-.07c-4.48,1.88-16.88,7-16.55,5.77.35-1.5-3.23.18-5.08-.75s-3.4-4.33-3.4-4.33-10.51,6.76-13.16,5.26-4.68-5.08-6.18-5.26-2.52-3-2.52-3-2.74,4-5.74,3-7.33,1.51-9.4,0-6-4.32-7-6.57-7.68,3.31-9.76.48-15-4.81-12.49-8.34,1.59-6,1.59-6-6.27,3.75-10,1.72c-2.13-1.17-3-4.49-3.32-7.16a3.86,3.86,0,0,0-3.94-3.34,7.58,7.58,0,0,1-4.3-.89c-2.34-1.68-8.26-3-8.92-4.68s-4.24-5.65-3.89-7.51-.66-8.61-.66-8.61-2.87,4.9-5.7,2.34c-1.92-1.71-2.69-7.85-3-11.6a3.87,3.87,0,0,0-3-3.45c-1-.26-1.87-.63-1.49-1.15.84-1.11-.22-6-.22-6s-11.48,4.55-11.35-2.48-4.1-12.71-3.22-12.71.4-8.17,1.55-9.27,1-4,1-4-10.55-4.06-9.58-6.88c.62-1.82,3.19-7.13,4.93-10.69a3.89,3.89,0,0,0-1.55-5.09c-2.53-1.48-5.59-3.7-5.36-5.69s3.3-4.84,5.63-6.69a3.87,3.87,0,0,0,.91-5c-1.71-2.85-4.17-6.79-5.22-7.61-3.48-2.73,1-9.81,1.36-10.62,1.55-3.66,7.33-4.24,7.33-4.24s-5.33-4.57-4.09-7.22c1-2.13,1.08-10.43,3.2-10.43s5.13-2,5.13-2-4-6.66-2.79-7.63,2.12-12.1,5.08-13.25,8.51-4.43,9.39-4.7,1.69-1.88,1.69-1.88l.47-3.47s-15.38-13-5-14.77a55,55,0,0,1,10.37-.73,3.87,3.87,0,0,0,3.77-5.07c-.86-2.68-1.05-5.5,1.35-6.57,3.23-1.43,8.79-1.88,12.42-2a3.86,3.86,0,0,0,3.7-3.54c.36-4.23,1.4-10.83,4.46-10.83a19.64,19.64,0,0,1,5.35.95,3.92,3.92,0,0,0,5-3.86c-.07-5.4.5-12.27,4-10.33,1.93,1.07,3.92,2.3,5.72,3.45a3.88,3.88,0,0,0,6-3.14c.16-5.75,1.17-12.4,5.21-9.89,6.76,4.24,10.73,3.13,13.25,4.24a35.3,35.3,0,0,1,3.74,2.07,3.89,3.89,0,0,0,5.14-.92c2.31-3,6-7,8.6-5.92a17,17,0,0,1,4.91,3.41,3.86,3.86,0,0,0,4.77.39c3.1-2,8.11-5,10.9-5.22C385.1,1.3,387,3,388.3,4.68a3.93,3.93,0,0,0,5.19,1C397.41,3.18,403.74-.26,406,1.46a21.9,21.9,0,0,1,4.34,4.94,3.74,3.74,0,0,0,4.5,1.5,7.43,7.43,0,0,1,4.4-.25,13.75,13.75,0,0,1,8.26,5.47,3.78,3.78,0,0,0,3.29,1.48c3.53-.23,10.26-.58,12.69-.2,3.4.57,8.75-.84,9,1.15.13.94.38,3.34.61,5.61a3.91,3.91,0,0,0,5.1,3.31c3.32-1.07,7.23-2,7.23-.75,0,2.25-.84,7.33,2,7.33s13.24-1.15,11.26.57-3.45,9,.26,9,9.89-1.15,9.32,2c-.4,2.16-.22,7.18-.08,10a3.87,3.87,0,0,0,1.83,3.11c2.2,1.36,5.76,3.73,6.15,4.88A26.59,26.59,0,0,1,497,64a3.84,3.84,0,0,0,2.47,3c3.3,1.21,9.35,3.82,9.87,6.79a24.79,24.79,0,0,1-.59,8.19,3.88,3.88,0,0,0,1.53,4c2.92,2.13,7.8,6.07,7.49,8.55a10.41,10.41,0,0,1-1.1,3.51,4,4,0,0,0,.85,4.83c2,1.79,4.54,4.27,4.62,5.88s-.85,4.38-1.64,6.41a3.81,3.81,0,0,0,.76,4.07,20.66,20.66,0,0,1,4.81,8.19,7.12,7.12,0,0,1-.08,5.54,3.8,3.8,0,0,0,2.13,5c1.33.59,2.3,1.28,2.1,2C529.63,142,534,141.78,531.35,144.92Z"/><path class="cls-10" d="M298.26,71.72,302,75.49A7.66,7.66,0,0,0,310.77,77l3-1.44"/><path class="cls-10" d="M294.32,125.21l5.32.22a7.66,7.66,0,0,0,7.43-4.84l1.23-3.09"/><path class="cls-10" d="M282.55,192.21l4.84-2.21a7.65,7.65,0,0,0,4.45-7.67l-.3-3.31"/><path class="cls-10" d="M353.16,47.5l5.23-1a7.65,7.65,0,0,0,6.17-6.37l.5-3.28"/><path class="cls-10" d="M409.08,23.5l4.77,2.37a7.67,7.67,0,0,0,8.76-1.37L425,22.17"/><path class="cls-10" d="M436.49,59.27l3.44,4.07a7.65,7.65,0,0,0,8.59,2.21l3.1-1.18"/><path class="cls-10" d="M486,104.12l-1.08,5.21a7.66,7.66,0,0,0,3.56,8.12l2.85,1.71"/><path class="cls-10" d="M440.29,138.3l3.76,3.76a7.66,7.66,0,0,0,8.74,1.49l3-1.45"/><path class="cls-10" d="M380.93,98.58l5,1.94a7.67,7.67,0,0,0,8.6-2.15l2.16-2.52"/><path class="cls-10" d="M338.6,154.66l3.45-4.06a7.68,7.68,0,0,0,.77-8.84l-1.69-2.86"/><path class="cls-10" d="M369.76,162.32l2.16,4.86a7.65,7.65,0,0,0,7.63,4.53l3.31-.27"/><path class="cls-10" d="M371.07,213.61l-3.76,3.77a7.65,7.65,0,0,0-1.49,8.74l1.45,3"/><path class="cls-10" d="M375.72,263.14l-5.32-.09a7.66,7.66,0,0,0-7.31,5l-1.15,3.12"/><path class="cls-10" d="M448.54,244.62l-4.75,2.4a7.63,7.63,0,0,0-4.15,7.83l.43,3.3"/><path class="cls-10" d="M418.81,200.69l4.56,2.74a7.66,7.66,0,0,0,8.84-.69l2.56-2.12"/><path class="cls-10" d="M475.85,170.26l1.85,5a7.67,7.67,0,0,0,7.33,5l3.33-.07"/><path class="cls-10" d="M491.57,208.23l-5.3.49a7.65,7.65,0,0,0-6.72,5.78l-.8,3.23"/><path class="cls-10" d="M326.64,226.3l-5-1.91a7.66,7.66,0,0,0-8.59,2.19l-2.15,2.54"/><path class="cls-10" d="M263,148.54l.58-5.3a7.67,7.67,0,0,0-4.33-7.74l-3-1.43"/><path class="cls-6" d="M381.62,168.26c2,.94,5,.88,7.38,1s5.35,0,7.44-.92c.47-.39,1.16-.11,1,.54-2,5.16-14.91,5.19-17,0a.63.63,0,0,1,.9-.73l.24.13Z"/><circle class="cls-6" cx="362.7" cy="147.93" r="9.08"/><circle class="cls-7" cx="356.15" cy="143.26" r="2.53"/><circle class="cls-7" cx="359.23" cy="147.38" r="0.95"/><circle class="cls-6" cx="415.09" cy="147.93" r="9.08"/><circle class="cls-7" cx="421.64" cy="143.26" r="2.53"/><circle class="cls-7" cx="418.56" cy="147.38" r="0.95"/><ellipse class="cls-8" cx="349.79" cy="169.7" rx="6.78" ry="3.54"/><ellipse class="cls-8" cx="430.94" cy="169.7" rx="6.78" ry="3.54"/><path class="cls-11" d="M544.06,703.74h0c-190.19.86-544-3.82-544-3.82l25.06-8.18s71.18-43.56,101.25-41.5,36.11-12.94,49.12-8.18,55.16-2.56,63.17-.94c4.6.92,22.38-2.58,41-3.84,13.9-1,28.27-.7,37.84,3.6,22.41,10,45.71-9.32,62.14-4.06s112.67,1.16,114.68,9.32,89.23,28.59,103.25,38.13,56.16,6.79,64.17,15.65C663.86,702.34,615.53,703.42,544.06,703.74Z"/><path class="cls-12" d="M544.06,703.74h0s-27.83-16.08-31.6-17.1-48.51-34.7-56-28.59-77.07-11-82.34-15.87-36.07,14.33-48.5,4.9-46-9.8-46-9.8c13.9-1,28.27-.7,37.84,3.6,22.41,10,45.71-9.32,62.14-4.06s112.67,1.16,114.68,9.32,89.23,28.59,103.25,38.13,56.16,6.79,64.17,15.65C663.86,702.34,615.53,703.42,544.06,703.74Z"/></g></g></svg>