<svg xmlns="http://www.w3.org/2000/svg" xmlns:xlink="http://www.w3.org/1999/xlink" viewBox="0 0 679.21 701.66"><defs><style>.cls-1{fill:#5aba97;}.cls-2{fill:#63c6a0;}.cls-3{fill:#ffcd50;}.cls-4{fill:#ffc033;}.cls-5{fill:#302826;}.cls-6{fill:url(#Dégradé_sans_nom_19);}.cls-7{fill:url(#Dégradé_sans_nom_19-2);}.cls-8{fill:url(#Dégradé_sans_nom_19-3);}.cls-9{fill:url(#Dégradé_sans_nom_19-4);}.cls-10{fill:url(#Dégradé_sans_nom_19-5);}.cls-11{fill:url(#Dégradé_sans_nom_19-6);}.cls-12{fill:url(#Dégradé_sans_nom_19-7);}.cls-13{fill:url(#Dégradé_sans_nom_19-8);}.cls-14{fill:url(#Dégradé_sans_nom_19-9);}.cls-15{fill:url(#Dégradé_sans_nom_19-10);}.cls-16{fill:url(#Dégradé_sans_nom_19-11);}.cls-17{fill:url(#Dégradé_sans_nom_19-12);}.cls-18{fill:url(#Dégradé_sans_nom_19-13);}.cls-19{fill:url(#Dégradé_sans_nom_19-14);}.cls-20{fill:url(#Dégradé_sans_nom_19-15);}.cls-21{fill:url(#Dégradé_sans_nom_19-16);}.cls-22{fill:url(#Dégradé_sans_nom_19-17);}.cls-23{fill:url(#Dégradé_sans_nom_19-18);}.cls-24{fill:url(#Dégradé_sans_nom_19-19);}.cls-25{fill:url(#Dégradé_sans_nom_19-20);}.cls-26{fill:url(#Dégradé_sans_nom_19-21);}.cls-27{fill:#ff6e79;opacity:0.35;}.cls-28{fill:url(#Dégradé_sans_nom_19-22);}.cls-29{opacity:0.03;}.cls-30{fill:#efefef;}.cls-31{fill:url(#Dégradé_sans_nom_19-23);}.cls-32{fill:url(#Dégradé_sans_nom_19-24);}.cls-33{fill:url(#Dégradé_sans_nom_19-25);}.cls-34{fill:url(#Dégradé_sans_nom_19-26);}.cls-35{fill:url(#Dégradé_sans_nom_19-27);}.cls-36{fill:url(#Dégradé_sans_nom_19-28);}.cls-37{fill:url(#Dégradé_sans_nom_19-29);}.cls-38{fill:url(#Dégradé_sans_nom_19-30);}.cls-39{fill:url(#Dégradé_sans_nom_19-31);}.cls-40{fill:url(#Dégradé_sans_nom_19-32);}.cls-41{fill:url(#Dégradé_sans_nom_19-33);}.cls-42{fill:url(#Dégradé_sans_nom_19-34);}.cls-43{fill:url(#Dégradé_sans_nom_19-35);}.cls-44{fill:url(#Dégradé_sans_nom_19-36);}.cls-45{fill:url(#Dégradé_sans_nom_19-37);}.cls-46{fill:url(#Dégradé_sans_nom_19-38);}.cls-47{fill:url(#Dégradé_sans_nom_19-39);}.cls-48{fill:url(#Dégradé_sans_nom_19-40);}.cls-49{fill:url(#Dégradé_sans_nom_19-41);}.cls-50{fill:url(#Dégradé_sans_nom_19-42);}.cls-51{fill:url(#Dégradé_sans_nom_19-43);}.cls-52{fill:url(#Dégradé_sans_nom_19-44);}.cls-53{fill:#82d16f;}.cls-54{fill:#f5ffff;}.cls-54,.cls-55{stroke:#efedee;stroke-miterlimit:10;stroke-width:2px;}.cls-55{fill:none;stroke-linecap:round;}.cls-56{fill:#4f2f2f;}.cls-57{fill:#593636;}</style><linearGradient id="Dégradé_sans_nom_19" x1="173.21" y1="292.34" x2="164.04" y2="355.98" gradientUnits="userSpaceOnUse"><stop offset="0" stop-color="#cc275a"/><stop offset="0.02" stop-color="#cf3968"/><stop offset="0.06" stop-color="#d76287"/><stop offset="0.11" stop-color="#de88a4"/><stop offset="0.17" stop-color="#e5a8bd"/><stop offset="0.23" stop-color="#eac4d2"/><stop offset="0.3" stop-color="#eedae2"/><stop offset="0.38" stop-color="#f1ebef"/><stop offset="0.48" stop-color="#f3f6f8"/><stop offset="0.61" stop-color="#f5fdfe"/><stop offset="1" stop-color="#f5ffff"/></linearGradient><linearGradient id="Dégradé_sans_nom_19-2" x1="223.38" y1="303.75" x2="178.34" y2="362.81" xlink:href="#Dégradé_sans_nom_19"/><linearGradient id="Dégradé_sans_nom_19-3" x1="196.03" y1="289.88" x2="172.57" y2="361.88" xlink:href="#Dégradé_sans_nom_19"/><linearGradient id="Dégradé_sans_nom_19-4" x1="239.8" y1="338.22" x2="193.41" y2="362.49" xlink:href="#Dégradé_sans_nom_19"/><linearGradient id="Dégradé_sans_nom_19-5" x1="263.19" y1="364.88" x2="182.28" y2="374.59" xlink:href="#Dégradé_sans_nom_19"/><linearGradient id="Dégradé_sans_nom_19-6" x1="258.23" y1="415.07" x2="191.35" y2="391.07" xlink:href="#Dégradé_sans_nom_19"/><linearGradient id="Dégradé_sans_nom_19-7" x1="276.03" y1="393.03" x2="184.34" y2="385.21" xlink:href="#Dégradé_sans_nom_19"/><linearGradient id="Dégradé_sans_nom_19-8" x1="249.68" y1="440.99" x2="191.16" y2="405.93" xlink:href="#Dégradé_sans_nom_19"/><linearGradient id="Dégradé_sans_nom_19-9" x1="211.42" y1="479.14" x2="177.98" y2="420.09" xlink:href="#Dégradé_sans_nom_19"/><linearGradient id="Dégradé_sans_nom_19-10" x1="238.55" y1="459.36" x2="187.04" y2="415.14" xlink:href="#Dégradé_sans_nom_19"/><linearGradient id="Dégradé_sans_nom_19-11" x1="176.66" y1="490.25" x2="170.73" y2="423.91" xlink:href="#Dégradé_sans_nom_19"/><linearGradient id="Dégradé_sans_nom_19-12" x1="156.71" y1="495.76" x2="159.68" y2="423.49" xlink:href="#Dégradé_sans_nom_19"/><linearGradient id="Dégradé_sans_nom_19-13" x1="113.58" y1="490.05" x2="147.29" y2="421.01" xlink:href="#Dégradé_sans_nom_19"/><linearGradient id="Dégradé_sans_nom_19-14" x1="138.24" y1="488.48" x2="157.66" y2="426.18" xlink:href="#Dégradé_sans_nom_19"/><linearGradient id="Dégradé_sans_nom_19-15" x1="89.17" y1="466.3" x2="139.06" y2="417.48" xlink:href="#Dégradé_sans_nom_19"/><linearGradient id="Dégradé_sans_nom_19-16" x1="61.73" y1="369.83" x2="126.46" y2="391.94" xlink:href="#Dégradé_sans_nom_19"/><linearGradient id="Dégradé_sans_nom_19-17" x1="73.26" y1="344.01" x2="125.04" y2="376.64" xlink:href="#Dégradé_sans_nom_19"/><linearGradient id="Dégradé_sans_nom_19-18" x1="87.89" y1="321.82" x2="133.73" y2="369.55" xlink:href="#Dégradé_sans_nom_19"/><linearGradient id="Dégradé_sans_nom_19-19" x1="116.73" y1="297.46" x2="141.72" y2="359.13" xlink:href="#Dégradé_sans_nom_19"/><linearGradient id="Dégradé_sans_nom_19-20" x1="68.92" y1="439.83" x2="129.87" y2="409.08" xlink:href="#Dégradé_sans_nom_19"/><linearGradient id="Dégradé_sans_nom_19-21" x1="56" y1="408.19" x2="123.69" y2="398.75" xlink:href="#Dégradé_sans_nom_19"/><linearGradient id="Dégradé_sans_nom_19-22" x1="146.85" y1="290.59" x2="153.5" y2="357.65" xlink:href="#Dégradé_sans_nom_19"/><linearGradient id="Dégradé_sans_nom_19-23" x1="589.86" y1="316.55" x2="580.69" y2="380.19" xlink:href="#Dégradé_sans_nom_19"/><linearGradient id="Dégradé_sans_nom_19-24" x1="640.02" y1="327.96" x2="594.99" y2="387.02" xlink:href="#Dégradé_sans_nom_19"/><linearGradient id="Dégradé_sans_nom_19-25" x1="612.68" y1="314.09" x2="589.22" y2="386.09" xlink:href="#Dégradé_sans_nom_19"/><linearGradient id="Dégradé_sans_nom_19-26" x1="656.45" y1="362.43" x2="610.06" y2="386.7" xlink:href="#Dégradé_sans_nom_19"/><linearGradient id="Dégradé_sans_nom_19-27" x1="679.83" y1="389.09" x2="598.93" y2="398.8" xlink:href="#Dégradé_sans_nom_19"/><linearGradient id="Dégradé_sans_nom_19-28" x1="674.87" y1="439.28" x2="608" y2="415.28" xlink:href="#Dégradé_sans_nom_19"/><linearGradient id="Dégradé_sans_nom_19-29" x1="692.68" y1="417.24" x2="600.99" y2="409.42" xlink:href="#Dégradé_sans_nom_19"/><linearGradient id="Dégradé_sans_nom_19-30" x1="666.33" y1="465.2" x2="607.81" y2="430.14" xlink:href="#Dégradé_sans_nom_19"/><linearGradient id="Dégradé_sans_nom_19-31" x1="628.06" y1="503.36" x2="594.62" y2="444.3" xlink:href="#Dégradé_sans_nom_19"/><linearGradient id="Dégradé_sans_nom_19-32" x1="655.2" y1="483.57" x2="603.69" y2="439.35" xlink:href="#Dégradé_sans_nom_19"/><linearGradient id="Dégradé_sans_nom_19-33" x1="593.31" y1="514.47" x2="587.38" y2="448.13" xlink:href="#Dégradé_sans_nom_19"/><linearGradient id="Dégradé_sans_nom_19-34" x1="573.36" y1="519.97" x2="576.33" y2="447.7" xlink:href="#Dégradé_sans_nom_19"/><linearGradient id="Dégradé_sans_nom_19-35" x1="530.23" y1="514.26" x2="563.93" y2="445.22" xlink:href="#Dégradé_sans_nom_19"/><linearGradient id="Dégradé_sans_nom_19-36" x1="554.89" y1="512.69" x2="574.31" y2="450.4" xlink:href="#Dégradé_sans_nom_19"/><linearGradient id="Dégradé_sans_nom_19-37" x1="505.82" y1="490.51" x2="555.71" y2="441.7" xlink:href="#Dégradé_sans_nom_19"/><linearGradient id="Dégradé_sans_nom_19-38" x1="478.38" y1="394.04" x2="543.1" y2="416.16" xlink:href="#Dégradé_sans_nom_19"/><linearGradient id="Dégradé_sans_nom_19-39" x1="489.91" y1="368.22" x2="541.69" y2="400.85" xlink:href="#Dégradé_sans_nom_19"/><linearGradient id="Dégradé_sans_nom_19-40" x1="504.53" y1="346.03" x2="550.38" y2="393.76" xlink:href="#Dégradé_sans_nom_19"/><linearGradient id="Dégradé_sans_nom_19-41" x1="533.37" y1="321.67" x2="558.36" y2="383.34" xlink:href="#Dégradé_sans_nom_19"/><linearGradient id="Dégradé_sans_nom_19-42" x1="485.57" y1="464.04" x2="546.52" y2="433.3" xlink:href="#Dégradé_sans_nom_19"/><linearGradient id="Dégradé_sans_nom_19-43" x1="472.65" y1="432.4" x2="540.34" y2="422.96" xlink:href="#Dégradé_sans_nom_19"/><linearGradient id="Dégradé_sans_nom_19-44" x1="563.5" y1="314.8" x2="570.15" y2="381.86" xlink:href="#Dégradé_sans_nom_19"/></defs><g id="Calque_2" data-name="Calque 2"><g id="Calque_1-2" data-name="Calque 1"><path class="cls-1" d="M144.21,549.66c-7.78,29.66-4.24,88.06-2.3,112.29.54,6.83,1,10.95,1,10.95H130.73s-1.89-77.12,4.86-105.17,10.24-86.84,10.24-86.84l4.62-2.49,1.86-1A261.75,261.75,0,0,1,144.21,549.66Z"/><path class="cls-2" d="M144.21,549.66c-7.78,29.66-4.24,88.06-2.3,112.29L139,663.6s-5.72-82.07,2.46-109.49c10.6-41.27,9.76-67,9-75.71l1.86-1A261.75,261.75,0,0,1,144.21,549.66Z"/><path class="cls-1" d="M145.15,516.53s-1.41-.57-3.57-1.7c-8.15-4.27-27.12-16.48-22.75-35.91.83-3.67,2-5.65,3.32-6.38,7.71-4.15,22.11,32.75,22.11,32.75Z"/><path class="cls-1" d="M154.82,576A40.39,40.39,0,0,1,139,583.1l.35-8.07s8.84-13.58,15.77-19.57c4.42-3.8,8.06-4.54,8.19,3.21C163.45,566.7,159.54,572.22,154.82,576Z"/><path class="cls-2" d="M154.82,576c4.92-6.06,9.07-14.09,7-21.38-.93-3.21-6.66.89-6.66.89h0c4.42-3.8,8.06-4.54,8.19,3.21C163.45,566.7,159.54,572.22,154.82,576Z"/><path class="cls-3" d="M195.16,400.89c-5.08,17.63-19,24.75-41.72,25.43-8.13.24-16.2-4.32-22.17-11.35-10.69-12.61-14.63-33.16,0-48.32a46.32,46.32,0,0,1,23.38-12.53,39.17,39.17,0,0,1,19.51,1.34C199.23,363.6,200.25,383.26,195.16,400.89Z"/><path class="cls-4" d="M131.27,415c-10.69-12.61-14.63-33.16,0-48.32a46.32,46.32,0,0,1,23.38-12.53C139.53,360.7,116.35,377.34,131.27,415Z"/><path class="cls-5" d="M159.38,396c1.34,1.84,4,2,6,1.32a3.59,3.59,0,0,0,1.76-1.34.32.32,0,0,1,.44-.08.31.31,0,0,1,.14.26,2.73,2.73,0,0,1-.48,1.46,5.17,5.17,0,0,1-8,0c-.26-.38-.91-1.72-.15-1.82a.37.37,0,0,1,.31.18Z"/><path class="cls-6" d="M170.33,354.42h0l-.87-.19a38.79,38.79,0,0,0-10.76-.64c-.39,0-.77.06-1.14.1-.09-5.36-.18-22.84,2-37.48h0c2-13.45,5.95-24.49,13.58-21.53,4,1.55,6,5.51,6.71,10.74C182,321,172.72,347.85,170.33,354.42Z"/><path class="cls-7" d="M198.34,351.09h0c-5.59,5.69-10.31,9.85-11.38,10.79l-.08.07a34.43,34.43,0,0,0-5.08-3.28h0c-1.17-.63-2.41-1.22-3.73-1.77l-1.81-1.08s9.81-19.65,20.51-33.87c8.07-10.72,16.64-18.36,21.91-12.2C226.71,319.16,210.47,338.72,198.34,351.09Z"/><path class="cls-8" d="M196.76,322c-4.61,17.53-14.86,36.74-14.86,36.74l-.1,0h0c-1.17-.63-2.41-1.22-3.73-1.77s-2.54-1-3.92-1.44-2.56-.76-3.81-1h0l-.87-.19c.85-7.83,4-33.72,10.4-48.82,3.48-8.29,7.93-13.33,13.46-10.36C200.41,298.86,199.89,310,196.76,322Z"/><path class="cls-9" d="M211.6,362.42a192.9,192.9,0,0,1-18.46,6.32c-.17-.27-.35-.54-.53-.8a27.73,27.73,0,0,0-5.47-5.78h0l-.17-.27-1.2-1.82s5.33-4.11,12.58-9h0c14.41-9.67,36.41-22.3,39.25-11.5C240,348.76,225.06,357,211.6,362.42Z"/><path class="cls-10" d="M253.89,365.39c-.51,7.13-9.17,11-19.74,13h0c-13.56,2.61-30.24,2.22-36.85,1.92,0-.3-.09-.59-.14-.89a27.6,27.6,0,0,0-4-10.69c-.17-.27-.35-.54-.53-.8,2.86-.94,10.27-3.3,19-5.52C230.19,357.71,254.74,353.65,253.89,365.39Z"/><path class="cls-11" d="M253.07,411.73c-4.11,7.47-16.8,5.85-29.48,1.84h0A196.7,196.7,0,0,1,195,401.43c.06-.18.11-.36.16-.54.11-.37.21-.74.31-1.11.56-2.06,1-4.13,1.39-6.22a50,50,0,0,0,.62-5c8.44,1,36.23,4.79,49.4,12C252.53,403.64,255.48,407.34,253.07,411.73Z"/><path class="cls-12" d="M262.21,391.69c-1.67,5.51-7.62,8.05-15.33,8.86-17.15,1.79-43-5-50-7a50,50,0,0,0,.62-5,39.76,39.76,0,0,0-.19-8.25c0-.3-.09-.59-.14-.89a291.32,291.32,0,0,1,37-1h0C250.46,379.22,265,382.45,262.21,391.69Z"/><path class="cls-13" d="M243,437.86c-3,3-7.41,3.24-12.44,1.81-14.65-4.14-34.59-22.39-40.47-28,.13-.18.26-.36.38-.55a34.59,34.59,0,0,0,4.53-9.68c.06-.18.11-.36.16-.54.11-.37.21-.74.31-1.11a273.53,273.53,0,0,1,28.11,13.79h0C237.49,421.59,249.66,431.22,243,437.86Z"/><path class="cls-14" d="M209,474.55c-9.77,3.07-19.43-11.88-26.22-26.2h0a211.94,211.94,0,0,1-9.42-23.7l3.88-2.82.21-.1a32.79,32.79,0,0,0,5-2.73h0q.66-.44,1.29-.9c2,2.4,9.42,11.4,16.32,21.56C210,454.34,218.92,471.41,209,474.55Z"/><path class="cls-15" d="M233.09,453.6c-7.75,6.25-21.65-3.42-33-13.94a211.53,211.53,0,0,1-18.36-19.48l.74-1.18h0q.66-.44,1.29-.9a28.79,28.79,0,0,0,6.36-6.44c.13-.18.26-.36.38-.55,7.21,4,30,17.2,40.09,28.56C235.4,445.15,237.31,450.19,233.09,453.6Z"/><path class="cls-16" d="M175.62,484.08c-3.61-.53-6.2-3.12-8-6.95-6.74-14-3.38-44.52-2.44-51.88l.6-.1a49.87,49.87,0,0,0,11.48-3.32l.21-.1c.48,1.88,3.43,13.74,5.33,26.62h0C185.37,466,186,485.62,175.62,484.08Z"/><path class="cls-17" d="M167.58,477.13c-1.45,8-4.49,13.16-10.2,11.75-4-1-6.5-4.27-8-8.88-5.12-15.5,1.15-45.93,2.89-53.68h1.19q2.77-.07,5.37-.3h0c2.2-.18,4.3-.44,6.32-.77l.6-.1C166.79,432.38,170.56,460.7,167.58,477.13Z"/><path class="cls-18" d="M151.6,426.29c-1.41,5.11-8.26,29-16.7,44.17-5.37,9.67-11.39,15.84-17.06,11.43-8-6.22-2.18-21.89,5.48-35.77a218.92,218.92,0,0,1,15.76-24.2c.62.41,1.26.8,1.91,1.15a25.06,25.06,0,0,0,10,3.18Z"/><path class="cls-19" d="M163.62,427s-4.67,39.58-14.26,53c-2.78,3.89-6,5.6-9.57,3.56-4-2.3-5.27-7.14-4.89-13.1,1-15.32,12.78-38.06,16.11-44.21l.59,0c.21,0,.43,0,.65,0h1.19q2.77-.07,5.37-.3h0Z"/><path class="cls-20" d="M141,423.07a281.31,281.31,0,0,1-17.67,23.05c-10.88,12.56-23.58,23.85-28.9,15.71-6.32-9.67,9.92-25.52,23-36.08h0c6.59-5.32,12.4-9.29,14.1-10.43l.63.7h0a35.35,35.35,0,0,0,6.88,5.9C139.7,422.33,140.34,422.72,141,423.07Z"/><path class="cls-21" d="M122.59,382.19a33.62,33.62,0,0,0-.57,12.18c-10.43-.92-63.43-6.36-55.8-21.21,4.43-8.63,20.52-5.59,34.84-.75a206.94,206.94,0,0,1,21.75,8.92C122.73,381.62,122.66,381.9,122.59,382.19Z"/><path class="cls-22" d="M128,370.52c-.15.2-.29.4-.43.61a32.31,32.31,0,0,0-4.76,10.2c-.08.29-.15.57-.22.86-3.85-1.56-12.55-5.21-21.53-9.78-15.85-8.06-32.59-19-25.28-26.56,5.29-5.46,15.36-2,25.38,4h0C112.47,356.63,123.72,366.59,128,370.52Z"/><path class="cls-23" d="M136.32,362.29l-.64.47a38,38,0,0,0-4.43,3.89,37.24,37.24,0,0,0-3.25,3.87c-.15.2-.29.4-.43.61a258.37,258.37,0,0,1-26.4-21.26h0C90.76,340,83.06,329.6,90.22,325c11.29-7.26,30.7,16,40.52,29.34v0C133.48,358.06,135.46,361,136.32,362.29Z"/><path class="cls-24" d="M147.09,356.3l-1,.39a47.53,47.53,0,0,0-9.82,5.6l-.64.47c-.58-.95-2.47-4.05-4.93-8.4v0c-4.62-8.15-11.25-20.69-15.15-31.69-4.13-11.68-5.2-21.63,2.46-22.83,7-1.1,12.74,5.95,17.21,15.45a114,114,0,0,1,5.5,14.53A222.37,222.37,0,0,1,147.09,356.3Z"/><path class="cls-25" d="M132.29,416.17s-6.33,4.44-14.83,9.57h0c-16.35,9.87-40.68,22.25-43.23,10.34C72,425.72,89.41,417.31,104.67,412a214.26,214.26,0,0,1,20.84-6c.2.43.41.86.63,1.28a41.14,41.14,0,0,0,5.13,7.66l.29.34.63.7h0Z"/><path class="cls-26" d="M126.14,407.31c-1.31.34-10.43,2.7-21.47,4.71-19.77,3.6-45.71,6.09-44-6.12,2.47-17.5,51-12.68,61.36-11.45A39.08,39.08,0,0,0,125.51,406C125.71,406.46,125.92,406.89,126.14,407.31Z"/><ellipse class="cls-27" cx="142.54" cy="397.9" rx="3.58" ry="1.87"/><ellipse class="cls-27" cx="185.4" cy="397.9" rx="3.58" ry="1.87"/><path class="cls-28" d="M158.69,353.59c-.39,0-.77.06-1.14.1-1,.11-2,.26-2.92.43a41.52,41.52,0,0,0-7.54,2.19l-1,.38c-.87-3.49-3.63-14.86-5.38-26.9-2.53-17.34-3-36.09,7.18-34.61,7.17,1,10.38,10.16,11.62,21h0C161.18,330.5,159.39,347.8,158.69,353.59Z"/><path class="cls-29" d="M159.56,316.2l.41-2.57s4.59,10.12,0,39.88l-1.28.08S162.92,339.58,159.56,316.2Z"/><path class="cls-29" d="M146.14,356.69l-.91.4s-3.41-8.13-5.4-30.17l1.18,4.56S144.09,349.18,146.14,356.69Z"/><path class="cls-29" d="M198.19,320.11s-4.15,16.13-15.06,39.3l-1.26-.72s4.7-6,14.89-36.74Z"/><path class="cls-29" d="M179.85,305.41l.65-1.49s-3.2,32.95-8.59,50.93l-1.59-.43S174.66,343,179.85,305.41Z"/><path class="cls-29" d="M130.74,354.34l-1.09-1.47a56,56,0,0,0,5.58,10.3l.82-.69A37.22,37.22,0,0,1,130.74,354.34Z"/><path class="cls-29" d="M101.17,349.87l-1.62-1.56s12.35,6.82,28.61,21.89l-.59.93S112.15,357.32,101.17,349.87Z"/><path class="cls-29" d="M101.06,372.41l-2.7-.88s3.2,3,24.08,11.33l.15-.67S108.43,376.36,101.06,372.41Z"/><path class="cls-29" d="M112.52,393.53s7.34.63,9.5.84l.09.62a54.82,54.82,0,0,1-11.53-1.6Z"/><path class="cls-29" d="M104.31,412.08a179.54,179.54,0,0,0,21.83-4.77l.39.71s-9.31,4.11-24.66,5Z"/><path class="cls-29" d="M132.2,416a84.58,84.58,0,0,0-14.76,9.73l-2.89,1.72a133.55,133.55,0,0,1,16.86-12.34Z"/><path class="cls-29" d="M123.32,446.12s15.81-19.06,17.67-23.05l1.29.67s-12.72,17.13-20.17,24.6Z"/><path class="cls-29" d="M151.6,426.29s-14.19,24.89-16.7,44.17c-.85,1.51-1.07,1.87-1.07,1.87s2.62-21.7,16.86-46.11Z"/><path class="cls-29" d="M149.36,480s12.93-21.45,13-54.35l.52-.07s.93,29.29-13.35,55.05A3.28,3.28,0,0,1,149.36,480Z"/><path class="cls-29" d="M167.58,477.13s-6.65-18.08-6.42-31l-.32,1.83s-.59,7.56,6.57,30.07Z"/><path class="cls-29" d="M177.43,421.73s2.85,11,5.33,26.62l.37.76a248,248,0,0,0-5.22-27.6Z"/><path class="cls-29" d="M200.05,439.66S186.76,426.82,182.43,419l-.5.35s4.36,7.57,20,23.17Z"/><path class="cls-29" d="M190.47,411.11s29.36,15.86,40.09,28.56c1,.27-7.34-10.68-39.64-29.24Z"/><path class="cls-29" d="M223.59,413.57a213.33,213.33,0,0,1-28.12-13.79l-.21.76a195.57,195.57,0,0,0,30.21,14.13Z"/><path class="cls-29" d="M197.48,388.57s33.35,2.82,49.4,12l1.24-.15s-16.66-9.1-50.58-12.74Z"/><path class="cls-29" d="M198.34,351.09a42.1,42.1,0,0,1-11,11.22c.64.54.38.31.38.31s7.89-6.06,12.23-12.59Z"/><path class="cls-29" d="M214.1,361.39s-12.57,3.24-20.26,8.5l.24.42s10-5.94,17.52-7.89Z"/><path class="cls-29" d="M197.29,380.32s10.81.68,36.85-1.92l1.48.08s-10.57,2.25-38.22,2.79Z"/><path class="cls-5" d="M152.49,387.12c-1.18-3-5.26-3.5-7.7-1.95a5.48,5.48,0,0,0-1.79,2.06.72.72,0,0,1-1,.29c-.77-.57-.08-1.9.33-2.52a6.1,6.1,0,0,1,5.19-2.44c2.51.07,5.09,1.93,5.39,4.47a.2.2,0,0,1-.39.09Z"/><circle class="cls-5" cx="149.36" cy="387.55" r="3.58"/><circle class="cls-30" cx="146.78" cy="385.7" r="1"/><circle class="cls-30" cx="147.99" cy="387.33" r="0.37"/><path class="cls-5" d="M173.36,387c.3-2.54,2.88-4.4,5.39-4.47s5.69,1.58,5.86,4.36a.72.72,0,0,1-1.36.31c-1.65-3.7-7.87-4-9.5-.11a.2.2,0,0,1-.39-.09Z"/><circle class="cls-5" cx="176.88" cy="387.55" r="3.58"/><circle class="cls-30" cx="179.47" cy="385.7" r="1"/><circle class="cls-30" cx="178.25" cy="387.33" r="0.37"/><path class="cls-1" d="M560.86,573.87c-7.78,29.67-4.24,88.06-2.31,112.3.55,6.82,1,10.94,1,10.94H547.38s-1.89-77.12,4.85-105.17,10.25-86.83,10.25-86.83l4.61-2.5,1.86-1A261.5,261.5,0,0,1,560.86,573.87Z"/><path class="cls-2" d="M560.86,573.87c-7.78,29.67-4.24,88.06-2.31,112.3l-2.89,1.64s-5.72-82.07,2.46-109.49c10.6-41.27,9.76-67,9-75.71l1.86-1A261.5,261.5,0,0,1,560.86,573.87Z"/><path class="cls-1" d="M561.79,540.75s-1.4-.58-3.56-1.71c-8.15-4.27-27.12-16.48-22.75-35.91.82-3.67,2-5.65,3.31-6.38,7.71-4.15,22.12,32.75,22.12,32.75Z"/><path class="cls-1" d="M571.47,600.17a40.46,40.46,0,0,1-15.82,7.14l.35-8.07s8.83-13.58,15.77-19.57c4.41-3.8,8.06-4.54,8.19,3.21C580.1,590.91,576.19,596.43,571.47,600.17Z"/><path class="cls-2" d="M571.47,600.17c4.91-6.07,9.06-14.1,7-21.39-.93-3.21-6.66.89-6.66.89h0c4.41-3.8,8.06-4.54,8.19,3.21C580.1,590.91,576.19,596.43,571.47,600.17Z"/><path class="cls-3" d="M611.81,425.1c-5.08,17.63-19,24.75-41.72,25.43-8.13.24-16.2-4.31-22.17-11.35-10.7-12.61-14.63-33.16,0-48.32a46.21,46.21,0,0,1,23.38-12.52,39.05,39.05,0,0,1,19.51,1.33C615.88,387.81,616.9,407.47,611.81,425.1Z"/><path class="cls-4" d="M547.92,439.18c-10.7-12.61-14.63-33.16,0-48.32a46.21,46.21,0,0,1,23.38-12.52C556.17,384.91,533,401.55,547.92,439.18Z"/><path class="cls-5" d="M576,420.16c1.34,1.84,4,2,6,1.32a3.63,3.63,0,0,0,1.76-1.33.32.32,0,0,1,.44-.09.33.33,0,0,1,.14.26,2.66,2.66,0,0,1-.49,1.46,5.16,5.16,0,0,1-8,0c-.26-.38-.91-1.72-.15-1.82a.37.37,0,0,1,.31.18Z"/><path class="cls-31" d="M587,378.63h0l-.87-.19a38.84,38.84,0,0,0-10.77-.64c-.38,0-.76.06-1.13.1-.09-5.36-.18-22.84,2-37.48h0c2-13.44,6-24.49,13.59-21.52,4,1.54,6,5.5,6.7,10.73C598.67,345.24,589.37,372.06,587,378.63Z"/><path class="cls-32" d="M615,375.3h0c-5.58,5.68-10.3,9.84-11.38,10.78a.46.46,0,0,1-.07.07,35.83,35.83,0,0,0-5.08-3.28h0c-1.17-.62-2.41-1.22-3.74-1.77L592.89,380s9.81-19.65,20.51-33.87c8.07-10.72,16.65-18.36,21.92-12.2C643.36,343.37,627.12,362.94,615,375.3Z"/><path class="cls-33" d="M613.4,346.16c-4.6,17.53-14.85,36.74-14.85,36.74l-.1,0h0c-1.17-.62-2.41-1.22-3.74-1.77s-2.54-1-3.91-1.44-2.56-.76-3.81-1h0l-.87-.19c.85-7.82,4-33.72,10.39-48.82,3.49-8.29,7.94-13.33,13.47-10.36C617.06,323.07,616.54,334.23,613.4,346.16Z"/><path class="cls-34" d="M628.25,386.63A193.87,193.87,0,0,1,609.79,393c-.17-.27-.35-.54-.54-.8a27.41,27.41,0,0,0-5.46-5.78h0l-.18-.27-1.19-1.82s5.33-4.11,12.57-9h0c14.41-9.67,36.41-22.3,39.25-11.5C656.65,373,641.71,381.21,628.25,386.63Z"/><path class="cls-35" d="M670.54,389.61c-.51,7.13-9.17,11-19.74,13h0c-13.56,2.61-30.25,2.22-36.86,1.92,0-.29-.08-.59-.13-.89a27.6,27.6,0,0,0-4-10.69c-.17-.27-.35-.54-.54-.8,2.87-.94,10.28-3.3,19-5.52C646.84,381.92,671.39,377.87,670.54,389.61Z"/><path class="cls-36" d="M669.72,435.94c-4.11,7.48-16.8,5.85-29.48,1.85a0,0,0,0,1,0,0,196.91,196.91,0,0,1-28.58-12.13c.05-.18.11-.36.16-.55.11-.37.21-.74.31-1.11.56-2.06,1-4.13,1.39-6.21.29-1.67.5-3.34.62-5,8.44,1,36.23,4.79,49.39,12C669.17,427.85,672.13,431.55,669.72,435.94Z"/><path class="cls-37" d="M678.86,415.9c-1.67,5.51-7.62,8.06-15.34,8.86-17.14,1.79-43-5-50-7,.29-1.67.5-3.34.62-5a39.09,39.09,0,0,0-.2-8.25c0-.29-.08-.59-.13-.89a293.24,293.24,0,0,1,37-1h0C667.11,403.43,681.67,406.66,678.86,415.9Z"/><path class="cls-38" d="M659.65,462.07c-3,3-7.41,3.24-12.45,1.82-14.65-4.15-34.58-22.4-40.47-28,.14-.17.26-.36.39-.55a34.53,34.53,0,0,0,4.53-9.67c.05-.18.11-.36.16-.55.11-.37.21-.74.31-1.11a275.69,275.69,0,0,1,28.11,13.79,0,0,0,0,0,0,0C654.13,445.8,666.31,455.44,659.65,462.07Z"/><path class="cls-39" d="M625.63,498.76c-9.77,3.07-19.43-11.87-26.22-26.2h0A213.27,213.27,0,0,1,590,448.87l3.87-2.83.22-.09a34.19,34.19,0,0,0,5-2.73h0c.44-.29.86-.6,1.29-.91,2,2.4,9.42,11.4,16.32,21.57C626.67,478.55,635.56,495.63,625.63,498.76Z"/><path class="cls-40" d="M649.74,477.81c-7.75,6.26-21.65-3.41-33-13.93a212.36,212.36,0,0,1-18.36-19.49l.74-1.17h0c.44-.29.86-.6,1.29-.91a28.54,28.54,0,0,0,6.35-6.44c.14-.17.26-.36.39-.55,7.2,4,30,17.2,40.08,28.57C652.05,469.36,654,474.41,649.74,477.81Z"/><path class="cls-41" d="M592.27,508.29c-3.61-.53-6.21-3.12-8-6.94-6.74-14-3.38-44.52-2.44-51.89l.6-.1A49.64,49.64,0,0,0,593.86,446l.22-.09c.48,1.88,3.42,13.73,5.32,26.61h0C602,490.23,602.67,509.83,592.27,508.29Z"/><path class="cls-42" d="M584.23,501.35c-1.45,8-4.49,13.16-10.21,11.74-4-1-6.49-4.27-8-8.88-5.13-15.5,1.15-45.93,2.88-53.68h0c.4,0,.79,0,1.19,0q2.77-.07,5.37-.3h0c2.21-.18,4.31-.43,6.33-.77l.6-.1C583.44,456.59,587.2,484.92,584.23,501.35Z"/><path class="cls-43" d="M568.25,450.5c-1.41,5.12-8.26,29-16.7,44.17-5.37,9.68-11.39,15.84-17.07,11.43-8-6.22-2.17-21.89,5.48-35.77a222,222,0,0,1,15.76-24.2c.63.41,1.27.8,1.92,1.15a25.06,25.06,0,0,0,10,3.18Z"/><path class="cls-44" d="M580.27,451.17s-4.67,39.58-14.26,53c-2.78,3.9-6,5.61-9.57,3.56-4-2.29-5.27-7.14-4.89-13.1,1-15.32,12.78-38.06,16.11-44.21l.59,0c.21,0,.43,0,.64,0h0c.4,0,.79,0,1.19,0q2.77-.07,5.37-.3h0Z"/><path class="cls-45" d="M557.64,447.28A279.82,279.82,0,0,1,540,470.33c-10.87,12.56-23.58,23.85-28.89,15.72-6.32-9.67,9.92-25.53,23-36.09h0c6.6-5.31,12.4-9.29,14.11-10.43l.63.71h0a35,35,0,0,0,6.87,5.9C556.35,446.54,557,446.93,557.64,447.28Z"/><path class="cls-46" d="M539.24,406.4a33.63,33.63,0,0,0-.57,12.18c-10.43-.91-63.43-6.36-55.81-21.2,4.44-8.63,20.53-5.6,34.84-.76a203.83,203.83,0,0,1,21.76,8.93C539.38,405.83,539.31,406.12,539.24,406.4Z"/><path class="cls-47" d="M544.64,394.73c-.14.21-.29.41-.42.61a32.26,32.26,0,0,0-4.76,10.21c-.08.28-.15.57-.22.85-3.85-1.56-12.55-5.21-21.54-9.78-15.84-8.05-32.58-19-25.28-26.55,5.3-5.47,15.37-2,25.39,4h0C529.12,380.84,540.37,390.8,544.64,394.73Z"/><path class="cls-48" d="M553,386.5c-.23.16-.44.32-.64.48a37.49,37.49,0,0,0-4.43,3.88,36.15,36.15,0,0,0-3.26,3.87c-.14.21-.29.41-.42.61a258.24,258.24,0,0,1-26.4-21.25h0c-10.4-9.88-18.1-20.27-10.94-24.87,11.28-7.26,30.7,16,40.51,29.34l0,0C550.13,382.28,552.11,385.21,553,386.5Z"/><path class="cls-49" d="M563.74,380.52l-1,.38a47.72,47.72,0,0,0-9.82,5.6l-.64.47c-.58-1-2.47-4.05-4.93-8.4v0c-4.62-8.16-11.25-20.7-15.15-31.7-4.14-11.67-5.2-21.63,2.45-22.83,7-1.1,12.75,6,17.22,15.46a114.78,114.78,0,0,1,5.5,14.52A221.91,221.91,0,0,1,563.74,380.52Z"/><path class="cls-50" d="M548.94,440.38s-6.33,4.45-14.84,9.57h0c-16.35,9.87-40.68,22.25-43.24,10.35-2.22-10.38,15.2-18.79,30.47-24.08a212.32,212.32,0,0,1,20.84-6c.2.42.41.85.63,1.27a40.34,40.34,0,0,0,5.13,7.66l.29.34.63.71h0Z"/><path class="cls-51" d="M542.79,431.52c-1.32.34-10.43,2.7-21.47,4.71-19.78,3.6-45.72,6.09-44-6.12,2.47-17.5,51-12.68,61.36-11.45a38.64,38.64,0,0,0,3.48,11.59C542.36,430.67,542.57,431.1,542.79,431.52Z"/><ellipse class="cls-27" cx="559.19" cy="422.12" rx="3.58" ry="1.87"/><ellipse class="cls-27" cx="602.04" cy="422.12" rx="3.58" ry="1.87"/><path class="cls-52" d="M575.33,377.8c-.38,0-.76.06-1.13.1-1,.11-2,.26-2.92.44a40.51,40.51,0,0,0-7.54,2.18l-1,.38c-.88-3.49-3.63-14.86-5.38-26.89-2.53-17.35-3-36.1,7.18-34.62,7.17,1,10.38,10.16,11.61,21h0C577.83,354.71,576,372,575.33,377.8Z"/><path class="cls-29" d="M576.2,340.41l.42-2.57s4.59,10.13,0,39.88l-1.29.08S579.57,363.79,576.2,340.41Z"/><path class="cls-29" d="M562.79,380.9l-.92.4s-3.41-8.13-5.39-30.17l1.18,4.56S560.73,373.39,562.79,380.9Z"/><path class="cls-29" d="M614.83,344.32s-4.15,16.13-15.05,39.3l-1.26-.72s4.7-6,14.88-36.74Z"/><path class="cls-29" d="M596.49,329.62l.66-1.49s-3.2,32.95-8.59,50.93l-1.59-.43S591.31,367.19,596.49,329.62Z"/><path class="cls-29" d="M547.38,378.55l-1.08-1.46a56.15,56.15,0,0,0,5.58,10.29l.82-.68A37.37,37.37,0,0,1,547.38,378.55Z"/><path class="cls-29" d="M517.82,374.09l-1.62-1.57s12.34,6.82,28.6,21.89l-.58.93S528.8,381.54,517.82,374.09Z"/><path class="cls-29" d="M517.7,396.62l-2.69-.88s3.2,3,24.08,11.34l.15-.68S525.08,400.57,517.7,396.62Z"/><path class="cls-29" d="M529.17,417.74s7.33.63,9.5.84l.09.62a54.82,54.82,0,0,1-11.53-1.6Z"/><path class="cls-29" d="M521,436.3a181,181,0,0,0,21.84-4.78l.39.72s-9.31,4.1-24.67,5Z"/><path class="cls-29" d="M548.85,440.23A85.26,85.26,0,0,0,534.09,450l-2.9,1.73a133.56,133.56,0,0,1,16.87-12.35Z"/><path class="cls-29" d="M540,470.33s15.82-19.06,17.68-23.05l1.28.67s-12.72,17.13-20.16,24.61Z"/><path class="cls-29" d="M568.25,450.5s-14.2,24.89-16.7,44.17c-.85,1.51-1.07,1.87-1.07,1.87s2.62-21.7,16.86-46.11Z"/><path class="cls-29" d="M566,504.21s12.93-21.45,13-54.35l.52-.06s.93,29.28-13.36,55A3.49,3.49,0,0,1,566,504.21Z"/><path class="cls-29" d="M584.23,501.35s-6.65-18.09-6.42-31l-.32,1.83s-.6,7.56,6.57,30.07Z"/><path class="cls-29" d="M594.08,446s2.84,11,5.32,26.61l.37.76a246,246,0,0,0-5.21-27.59Z"/><path class="cls-29" d="M616.7,463.88S603.4,451,599.08,443.22l-.5.34s4.36,7.57,20,23.17Z"/><path class="cls-29" d="M607.12,435.32s29.36,15.86,40.08,28.57c1,.26-7.34-10.69-39.63-29.25Z"/><path class="cls-29" d="M640.24,437.79A214.14,214.14,0,0,1,612.12,424l-.21.76a195.68,195.68,0,0,0,30.2,14.14Z"/><path class="cls-29" d="M614.13,412.78s33.35,2.82,49.39,12l1.25-.15s-16.66-9.1-50.58-12.74Z"/><path class="cls-29" d="M615,375.3a42.23,42.23,0,0,1-11,11.22c.64.54.39.31.39.31s7.88-6.06,12.23-12.59Z"/><path class="cls-29" d="M630.75,385.6s-12.57,3.24-20.26,8.5l.23.42s10-5.94,17.53-7.89Z"/><path class="cls-29" d="M613.93,404.53s10.82.68,36.86-1.92l1.48.09s-10.57,2.24-38.22,2.79Z"/><path class="cls-5" d="M569.14,411.33c-1.18-3-5.26-3.5-7.71-1.95a5.66,5.66,0,0,0-1.79,2.06.72.72,0,0,1-1,.29c-.76-.57-.08-1.9.34-2.51a6.06,6.06,0,0,1,5.19-2.44c2.51.06,5.09,1.92,5.38,4.46a.2.2,0,0,1-.38.09Z"/><circle class="cls-5" cx="566" cy="411.76" r="3.58"/><circle class="cls-30" cx="563.42" cy="409.91" r="1"/><circle class="cls-30" cx="564.64" cy="411.54" r="0.37"/><path class="cls-5" d="M590,411.24c.29-2.54,2.88-4.4,5.38-4.46s5.7,1.57,5.87,4.35a.72.72,0,0,1-1.37.31c-1.64-3.7-7.86-4-9.49-.11a.2.2,0,0,1-.39-.09Z"/><circle class="cls-5" cx="593.53" cy="411.76" r="3.58"/><circle class="cls-30" cx="596.11" cy="409.91" r="1"/><circle class="cls-30" cx="594.9" cy="411.54" r="0.37"/><path class="cls-1" d="M342.83,429.16c-14.74,56.17-8,166.74-4.37,212.63,1,12.93,1.82,20.73,1.82,20.73h-23s-3.58-146,9.19-199.15,22.94-191.79,22.94-191.79l8.74-4.73,3.52-1.91S361.72,357.16,342.83,429.16Z"/><path class="cls-2" d="M342.83,429.16c-14.74,56.17-8,166.74-4.37,212.63L333,644.9s-10.83-155.4,4.65-207.31c20.07-78.15,22-147.95,20.54-164.49l3.52-1.91S361.72,357.16,342.83,429.16Z"/><path class="cls-1" d="M339.26,402.18s-1.86-.76-4.72-2.26c-10.78-5.64-35.89-21.8-30.1-47.52,1.08-4.85,2.59-7.48,4.38-8.44,10.2-5.49,29.27,43.34,29.27,43.34Z"/><path class="cls-53" d="M375.64,525.54l1.94-2A27.27,27.27,0,0,1,375.64,525.54Z"/><path class="cls-1" d="M377.63,400.41c-15.2,7.45-32.14,6.89-32.14,6.89l3.89-14.8s21.79-21.6,37-29.9c9.68-5.27,16.72-5.18,13.86,9.22C397.31,386.73,387.87,395.39,377.63,400.41Z"/><path class="cls-2" d="M377.63,400.41c11.53-9.25,22.43-22.46,21.45-36.79-.43-6.31-12.68-1-12.68-1h0c9.68-5.27,16.72-5.18,13.86,9.22C397.31,386.73,387.87,395.39,377.63,400.41Z"/><path class="cls-54" d="M521.21,144.92c-2.65,3.09-8.08,5.16-6.22,6.66s5.47,6.36,3.75,7.51-6.58,5.83-6.76,5.83a28.71,28.71,0,0,0-1.89,3s8.12,9.8,5.29,10.73-1.89,6.8-3.4,7.55,1.77,8.08-3.17,6.75,2.6,5.74-.18,7.42-4.06,11.74-6.05,10.42c-1-.68-3.14-.22-5,.38a3.89,3.89,0,0,0-2.56,4.5c.86,4.22,1.89,11.14-.65,11.41a39.28,39.28,0,0,1-5.17.19,3.88,3.88,0,0,0-3.95,4.24c.32,3.58.39,7.93-1.3,7.4a21.55,21.55,0,0,0-6.36-.24,3.89,3.89,0,0,0-3.5,2.9c-.67,2.63-1.78,6.39-2.68,6.93s-3.79,1.11-6.07,1.52a3.89,3.89,0,0,0-3.18,3.19c-.31,1.87-.88,4.21-1.88,5.31-1.85,2-2.38,2.69-4.81,3.66-1.27.52-3.81.49-5.92.34a3.89,3.89,0,0,0-4,2.69c-.28.88-.68,1.61-1.24,1.61-1.41,0-6.89,7.2-8.87,6.49s-10.42,3.93-11.84,3a16.63,16.63,0,0,0-3.7-1.68S409,287.4,405.09,285.72c-2.79-1.18-7-3.14-9.21-4.2a3.81,3.81,0,0,0-3.15-.07c-4.48,1.88-16.89,7-16.56,5.77.35-1.5-3.22.18-5.08-.75s-3.4-4.33-3.4-4.33-10.51,6.76-13.16,5.26-4.68-5.08-6.18-5.26-2.51-3-2.51-3-2.74,4-5.74,3-7.33,1.51-9.41,0-6-4.32-7-6.57-7.69,3.31-9.76.48-15-4.81-12.5-8.34,1.59-6,1.59-6-6.27,3.75-10,1.72c-2.14-1.17-3-4.49-3.32-7.16a3.87,3.87,0,0,0-3.95-3.34,7.6,7.6,0,0,1-4.3-.89c-2.34-1.68-8.26-3-8.92-4.68s-4.24-5.65-3.88-7.51-.66-8.61-.66-8.61-2.87,4.9-5.7,2.34c-1.92-1.71-2.7-7.85-3-11.6a3.88,3.88,0,0,0-3-3.45c-1-.26-1.87-.63-1.49-1.15.84-1.11-.22-6-.22-6s-11.48,4.55-11.35-2.48-4.11-12.71-3.22-12.71.39-8.17,1.54-9.27,1-4,1-4S232,178.87,233,176.05c.63-1.82,3.19-7.13,4.94-10.69a3.9,3.9,0,0,0-1.55-5.09c-2.54-1.48-5.6-3.7-5.36-5.69s3.3-4.84,5.63-6.69a3.88,3.88,0,0,0,.91-5c-1.71-2.85-4.18-6.79-5.23-7.61-3.47-2.73,1-9.81,1.37-10.62,1.55-3.66,7.33-4.24,7.33-4.24s-5.34-4.57-4.09-7.22c1-2.13,1.07-10.43,3.19-10.43s5.14-2,5.14-2-4-6.66-2.79-7.63,2.11-12.1,5.07-13.25,8.51-4.43,9.4-4.7,1.69-1.88,1.69-1.88l.47-3.47s-15.39-13-5-14.77a55,55,0,0,1,10.38-.73,3.86,3.86,0,0,0,3.76-5.07c-.86-2.68-1-5.5,1.36-6.57,3.23-1.43,8.79-1.88,12.41-2a3.87,3.87,0,0,0,3.71-3.54c.35-4.23,1.4-10.83,4.45-10.83a19.64,19.64,0,0,1,5.35.95,3.92,3.92,0,0,0,5-3.86c-.07-5.4.5-12.27,4-10.33,1.93,1.07,3.93,2.3,5.72,3.45a3.88,3.88,0,0,0,6-3.14c.16-5.75,1.16-12.4,5.2-9.89,6.76,4.24,10.73,3.13,13.25,4.24a35.38,35.38,0,0,1,3.75,2.07,3.88,3.88,0,0,0,5.13-.92c2.31-3,6.05-7,8.61-5.92a17.18,17.18,0,0,1,4.91,3.41,3.84,3.84,0,0,0,4.76.39c3.1-2,8.11-5,10.9-5.22C375,1.3,376.85,3,378.16,4.68a3.93,3.93,0,0,0,5.19,1c3.92-2.45,10.26-5.89,12.51-4.17A21.66,21.66,0,0,1,400.2,6.4a3.74,3.74,0,0,0,4.5,1.5,7.47,7.47,0,0,1,4.41-.25,13.72,13.72,0,0,1,8.25,5.47,3.78,3.78,0,0,0,3.29,1.48c3.54-.23,10.27-.58,12.7-.2,3.4.57,8.74-.84,9,1.15.12.94.38,3.34.61,5.61a3.89,3.89,0,0,0,5.09,3.31c3.33-1.07,7.24-2,7.24-.75,0,2.25-.84,7.33,2,7.33s13.25-1.15,11.26.57-3.44,9,.27,9,9.89-1.15,9.31,2c-.4,2.16-.22,7.18-.07,10a3.85,3.85,0,0,0,1.83,3.11c2.19,1.36,5.75,3.73,6.15,4.88a26.72,26.72,0,0,1,.77,3.37,3.86,3.86,0,0,0,2.48,3c3.29,1.21,9.35,3.82,9.86,6.79a24.27,24.27,0,0,1-.59,8.19,3.88,3.88,0,0,0,1.53,4c2.93,2.13,7.8,6.07,7.49,8.55A10.41,10.41,0,0,1,506.52,98a3.94,3.94,0,0,0,.85,4.83c2,1.79,4.54,4.27,4.61,5.88s-.85,4.38-1.64,6.41a3.83,3.83,0,0,0,.77,4.07,20.66,20.66,0,0,1,4.8,8.19,7.17,7.17,0,0,1-.07,5.54,3.79,3.79,0,0,0,2.12,5c1.34.59,2.31,1.28,2.1,2C519.49,142,523.82,141.78,521.21,144.92Z"/><path class="cls-55" d="M288.13,71.72l3.76,3.77A7.67,7.67,0,0,0,300.63,77l3-1.44"/><path class="cls-55" d="M284.18,125.21l5.32.22a7.68,7.68,0,0,0,7.44-4.84l1.22-3.09"/><path class="cls-55" d="M272.41,192.21l4.85-2.21a7.68,7.68,0,0,0,4.45-7.67L281.4,179"/><path class="cls-55" d="M343,47.5l5.24-1a7.64,7.64,0,0,0,6.16-6.37l.51-3.28"/><path class="cls-55" d="M398.94,23.5l4.77,2.37a7.66,7.66,0,0,0,8.76-1.37l2.38-2.33"/><path class="cls-55" d="M426.36,59.27l3.43,4.07a7.65,7.65,0,0,0,8.59,2.21l3.11-1.18"/><path class="cls-55" d="M475.88,104.12l-1.08,5.21a7.66,7.66,0,0,0,3.55,8.12l2.85,1.71"/><path class="cls-55" d="M430.15,138.3l3.77,3.76a7.65,7.65,0,0,0,8.74,1.49l3-1.45"/><path class="cls-55" d="M370.79,98.58l5,1.94a7.67,7.67,0,0,0,8.6-2.15l2.17-2.52"/><path class="cls-55" d="M328.47,154.66l3.44-4.06a7.66,7.66,0,0,0,.77-8.84L331,138.9"/><path class="cls-55" d="M359.63,162.32l2.16,4.86a7.64,7.64,0,0,0,7.62,4.53l3.31-.27"/><path class="cls-55" d="M360.94,213.61l-3.77,3.77a7.65,7.65,0,0,0-1.48,8.74l1.44,3"/><path class="cls-55" d="M365.59,263.14l-5.33-.09a7.68,7.68,0,0,0-7.31,5l-1.14,3.12"/><path class="cls-55" d="M438.41,244.62l-4.76,2.4a7.65,7.65,0,0,0-4.15,7.83l.43,3.3"/><path class="cls-55" d="M408.67,200.69l4.57,2.74a7.66,7.66,0,0,0,8.84-.69l2.55-2.12"/><path class="cls-55" d="M465.72,170.26l1.85,5a7.66,7.66,0,0,0,7.33,5l3.32-.07"/><path class="cls-55" d="M481.44,208.23l-5.3.49a7.66,7.66,0,0,0-6.73,5.78l-.8,3.23"/><path class="cls-55" d="M316.51,226.3l-5-1.91a7.66,7.66,0,0,0-8.59,2.19l-2.15,2.54"/><path class="cls-55" d="M252.89,148.54l.57-5.3a7.66,7.66,0,0,0-4.32-7.74l-3-1.43"/><path class="cls-5" d="M371.49,168.26c2,.94,5,.88,7.37,1s5.36,0,7.44-.92c.48-.39,1.17-.11,1,.54-2.05,5.16-14.91,5.19-17,0a.63.63,0,0,1,.9-.73l.24.13Z"/><circle class="cls-5" cx="352.56" cy="147.93" r="9.08"/><circle class="cls-30" cx="346.01" cy="143.26" r="2.53"/><circle class="cls-30" cx="349.09" cy="147.38" r="0.95"/><circle class="cls-5" cx="404.95" cy="147.93" r="9.08"/><circle class="cls-30" cx="411.5" cy="143.26" r="2.53"/><circle class="cls-30" cx="408.43" cy="147.38" r="0.95"/><ellipse class="cls-27" cx="339.66" cy="169.7" rx="6.78" ry="3.54"/><ellipse class="cls-27" cx="420.81" cy="169.7" rx="6.78" ry="3.54"/><path class="cls-56" d="M544.06,701.56h0c-190.19.85-544-3.82-544-3.82l25.06-8.18S96.24,646,126.31,648.05s36.11-12.93,49.12-8.17,55.16-2.56,63.17-.94c4.6.92,22.38-2.58,41-3.84,13.9-1,28.27-.7,37.84,3.6,22.41,10,45.71-9.32,62.14-4.06S492.25,635.8,494.26,644s89.23,28.6,103.25,38.13,56.16,6.8,64.17,15.66C663.86,700.16,615.53,701.24,544.06,701.56Z"/><path class="cls-57" d="M544.06,701.56h0s-27.83-16.08-31.6-17.1-48.51-34.71-56-28.59-77.07-11-82.34-15.87-36.07,14.33-48.5,4.89-46-9.79-46-9.79c13.9-1,28.27-.7,37.84,3.6,22.41,10,45.71-9.32,62.14-4.06S492.25,635.8,494.26,644s89.23,28.6,103.25,38.13,56.16,6.8,64.17,15.66C663.86,700.16,615.53,701.24,544.06,701.56Z"/></g></g></svg>