<?xml version="1.0" encoding="UTF-8"?><svg id="Calque_2" xmlns="http://www.w3.org/2000/svg" viewBox="0 0 665.8 703.84"><defs><style>.cls-1{fill:#82d16f;}.cls-2{fill:#593636;}.cls-3{opacity:.05;}.cls-4{fill:#ffc82c;}.cls-5{fill:#63c6a0;}.cls-6{fill:#302826;}.cls-7{fill:#ff6e79;opacity:.35;}.cls-8{fill:#5aba97;}.cls-9{fill:#f5ffff;}.cls-9,.cls-10{stroke:#efedee;stroke-miterlimit:10;stroke-width:2px;}.cls-11{fill:#efefef;}.cls-12{fill:#ffd655;}.cls-13{fill:#ff2c50;}.cls-14{fill:#4f2f2f;}.cls-10{fill:none;stroke-linecap:round;}</style></defs><g id="Calque_1-2"><g><g><path class="cls-8" d="M143.07,542.47c-7.06,26.91-3.85,79.89-2.09,101.87,.49,6.19,.87,9.93,.87,9.93h-11.01s-1.72-69.97,4.4-95.41c6.12-25.44,9.29-78.77,9.29-78.77l4.19-2.27,1.69-.92s1.71,31.07-7.34,65.57Z"/><path class="cls-5" d="M143.07,542.47c-7.06,26.91-3.85,79.89-2.09,101.87l-2.63,1.49s-5.19-74.45,2.23-99.32c9.62-37.44,8.85-60.76,8.14-68.69l1.69-.92s1.71,31.07-7.34,65.57Z"/><path class="cls-8" d="M133.46,588.15s-1.49-.61-3.79-1.82c-8.66-4.54-28.84-17.52-24.19-38.18,.88-3.9,2.09-6.01,3.52-6.78,8.2-4.41,23.52,34.82,23.52,34.82l.94,11.96Z"/><path class="cls-1" d="M158.79,588.64c.32-.33,.63-.66,.93-.98-.3,.35-.61,.68-.93,.98Z"/><g><path class="cls-8" d="M163.41,501.32c-6.47,5.12-14.6,6.6-14.6,6.6l.33-7.45s8.15-12.53,14.56-18.06c4.07-3.51,7.43-4.19,7.56,2.96,.13,7.41-3.48,12.51-7.84,15.95Z"/><path class="cls-5" d="M163.41,501.32c4.54-5.6,8.37-13.01,6.43-19.74-.86-2.96-6.14,.83-6.14,.83h0c4.07-3.51,7.43-4.2,7.56,2.96,.13,7.41-3.48,12.51-7.84,15.95Z"/></g><g><path class="cls-12" d="M189.29,407.5c-4.61,15.99-17.27,22.45-37.85,23.07-7.37,.22-14.7-3.91-20.11-10.3-9.7-11.44-13.27-30.08-.01-43.84,0,0,8.22-8.93,21.21-11.36,5.21-.97,11.18-.9,17.7,1.21,22.76,7.38,23.68,25.22,19.07,41.21Z"/><path class="cls-4" d="M131.32,420.27c-9.7-11.44-13.27-30.08-.01-43.84,0,0,8.22-8.93,21.21-11.36-13.7,5.96-34.73,21.06-21.19,55.2Z"/></g><g><path class="cls-13" d="M166.76,365.34h0c-.26-.06-.53-.11-.79-.17-3.45-.69-6.72-.83-9.77-.58-.34,.02-.69,.06-1.03,.1-.08-4.86-.16-20.73,1.82-34.01h0c1.83-12.2,5.4-22.22,12.33-19.53,3.61,1.4,5.42,5,6.08,9.74,1.97,14.17-6.46,38.51-8.63,44.46Z"/><path class="cls-13" d="M192.17,362.32h0c-5.07,5.16-9.35,8.94-10.32,9.79-.02,.02-.05,.05-.07,.06-1.37-1.06-2.89-2.06-4.61-2.97h0c-1.06-.57-2.18-1.11-3.39-1.6l-1.64-.98s8.9-17.83,18.61-30.73c7.32-9.72,15.1-16.65,19.88-11.06,7.3,8.53-7.44,26.28-18.44,37.5Z"/><path class="cls-13" d="M190.73,335.88c-4.18,15.91-13.48,33.33-13.48,33.33h-.09s0-.02,0-.02c-1.06-.57-2.18-1.1-3.39-1.6-1.12-.46-2.3-.91-3.55-1.31-1.17-.38-2.32-.69-3.46-.95h0c-.26-.06-.53-.11-.79-.17,.77-7.1,3.66-30.59,9.43-44.29,3.16-7.52,7.2-12.09,12.22-9.4,6.44,3.45,5.97,13.58,3.12,24.4Z"/><path class="cls-13" d="M204.2,372.6c-7.24,2.92-14,4.95-16.74,5.73-.16-.25-.32-.49-.49-.73-1.32-1.88-2.95-3.64-4.96-5.24h0s-.16-.25-.16-.25l-1.08-1.65s4.83-3.73,11.41-8.14h0c13.07-8.78,33.03-20.24,35.61-10.43,2.18,8.32-11.36,15.79-23.58,20.71Z"/><path class="cls-13" d="M242.57,375.3c-.46,6.47-8.32,9.96-17.91,11.8h0c-12.3,2.37-27.44,2.01-33.44,1.74-.03-.27-.08-.54-.12-.8-.56-3.43-1.71-6.71-3.64-9.7-.16-.25-.32-.49-.49-.73,2.6-.85,9.32-2.99,17.23-5,16.86-4.27,39.13-7.95,38.37,2.7Z"/><path class="cls-13" d="M241.82,417.34c-3.73,6.78-15.24,5.31-26.74,1.67,0,0,0,0,0,0-10.81-3.43-21.62-8.78-25.93-11.01,.05-.16,.1-.33,.15-.49,.1-.34,.19-.67,.28-1.01,.51-1.86,.93-3.75,1.26-5.63,.26-1.51,.45-3.03,.56-4.53,7.66,.92,32.87,4.35,44.81,10.87,5.13,2.8,7.81,6.17,5.62,10.15Z"/><path class="cls-13" d="M250.11,399.16c-1.52,5-6.91,7.31-13.91,8.03-15.55,1.62-39.01-4.55-45.37-6.33,.26-1.51,.45-3.03,.56-4.53,.19-2.53,.15-5.04-.18-7.48-.03-.27-.08-.54-.12-.8,5.51-.49,20.18-1.6,33.56-.94h0c14.79,.75,28,3.67,25.45,12.06Z"/><path class="cls-13" d="M232.69,441.04c-2.72,2.72-6.73,2.94-11.29,1.64-13.29-3.76-31.38-20.32-36.71-25.41,.12-.16,.23-.33,.35-.5,1.73-2.52,3.1-5.44,4.11-8.78,.05-.16,.1-.33,.15-.49,.1-.34,.19-.67,.28-1.01,3.99,1.69,15.25,6.61,25.5,12.51,0,0,0,0,0,0,12.61,7.27,23.65,16.01,17.61,22.03Z"/><path class="cls-13" d="M201.82,474.32c-8.86,2.79-17.63-10.77-23.78-23.76,0,0,0,0,0,0-5.19-10.95-8.54-21.49-8.54-21.49l3.52-2.56c.06-.03,.13-.06,.19-.09,1.62-.72,3.14-1.54,4.54-2.48h0c.4-.26,.79-.54,1.17-.82,1.82,2.18,8.55,10.35,14.81,19.57,9.04,13.31,17.11,28.8,8.1,31.64Z"/><path class="cls-13" d="M223.69,455.32c-7.03,5.68-19.64-3.09-29.97-12.64-9.24-8.53-16.66-17.68-16.66-17.68l.68-1.06h0c.4-.26,.79-.54,1.17-.82,2.22-1.63,4.14-3.57,5.77-5.84,.12-.16,.23-.33,.35-.5,6.54,3.64,27.23,15.6,36.36,25.91,4.4,4.96,6.12,9.54,2.3,12.63Z"/><path class="cls-13" d="M171.56,482.97c-3.27-.48-5.63-2.83-7.3-6.3-6.11-12.68-3.07-40.39-2.21-47.07,.18-.03,.36-.06,.55-.09,3.86-.67,7.33-1.66,10.41-3.01,.06-.03,.13-.06,.19-.09,.44,1.71,3.11,12.46,4.83,24.14,0,0,0,0,0,0,2.37,16.03,2.96,33.81-6.48,32.41Z"/><path class="cls-13" d="M164.26,476.67c-1.31,7.24-4.07,11.94-9.26,10.66-3.59-.89-5.89-3.87-7.27-8.05-4.65-14.06,1.04-41.67,2.62-48.7h0c.36,0,.72,0,1.08,0,1.68-.05,3.3-.14,4.87-.27h0c2-.16,3.9-.4,5.73-.7,.18-.03,.36-.06,.55-.09,.95,6.56,4.37,32.25,1.67,47.16Z"/><path class="cls-13" d="M149.77,430.55c-1.28,4.64-7.49,26.28-15.15,40.07-4.88,8.78-10.33,14.37-15.48,10.37-7.26-5.64-1.97-19.86,4.97-32.45,5.61-10.19,12.3-19.3,14.3-21.95,.57,.37,1.15,.72,1.74,1.04,2.89,1.61,5.97,2.62,9.09,2.88,.18,.02,.36,.03,.54,.04Z"/><path class="cls-13" d="M160.67,431.15s-4.24,35.9-12.94,48.12c-2.52,3.53-5.41,5.08-8.68,3.22-3.65-2.08-4.79-6.47-4.44-11.88,.9-13.89,11.59-34.53,14.61-40.11,.18,.02,.36,.03,.54,.04,.19,.01,.39,.02,.58,.02h0c.36,0,.72,0,1.08,0,1.68-.05,3.3-.14,4.87-.27h0l4.36,.85Z"/><path class="cls-13" d="M140.14,427.62c-1.72,2.51-8.37,12.05-16.04,20.91-9.86,11.39-21.39,21.64-26.22,14.26-5.73-8.77,9-23.16,20.88-32.73,0,0,0,0,.01,0,5.98-4.82,11.25-8.43,12.8-9.47,.19,.22,.38,.43,.57,.64h0c1.89,2.09,4,3.9,6.24,5.36,.57,.37,1.15,.72,1.74,1.04Z"/><path class="cls-13" d="M123.45,390.54c-.87,3.68-1,7.41-.52,11.05-9.46-.83-57.55-5.77-50.63-19.24,4.02-7.83,18.62-5.07,31.61-.69,8.3,2.81,15.94,6.29,19.73,8.1-.07,.26-.13,.52-.2,.78Z"/><path class="cls-13" d="M128.35,379.95c-.13,.18-.26,.36-.39,.55-2.06,2.97-3.47,6.08-4.32,9.26-.07,.26-.13,.52-.2,.78-3.49-1.42-11.39-4.72-19.54-8.87-14.37-7.31-29.56-17.24-22.93-24.09,4.8-4.96,13.94-1.8,23.03,3.64,0,0,0,0,0,0,10.25,6.13,20.45,15.16,24.33,18.73Z"/><path class="cls-13" d="M135.9,372.48c-.2,.14-.39,.29-.58,.43-2.59,1.98-4.01,3.52-4.01,3.52-1.1,1.14-2.08,2.31-2.96,3.52-.13,.18-.26,.36-.39,.55-4.05-2.86-15.08-10.87-23.95-19.28,0,0,0,0,0,0-9.44-8.96-16.42-18.39-9.93-22.56,10.24-6.58,27.86,14.52,36.76,26.61,0,0,0,.01,.01,.02,2.47,3.36,4.27,6.02,5.05,7.2Z"/><path class="cls-13" d="M145.67,367.05c-.29,.11-.57,.23-.86,.35-3.65,1.53-6.66,3.42-8.91,5.08-.2,.14-.39,.29-.58,.43-.53-.86-2.24-3.68-4.47-7.63,0,0,0-.01-.01-.02-4.19-7.4-10.2-18.77-13.74-28.76-3.75-10.59-4.72-19.62,2.23-20.71,6.36-1,11.56,5.4,15.61,14.02,1.92,4.08,3.58,8.65,4.99,13.18,3.34,10.74,5.25,21.2,5.74,24.05Z"/><path class="cls-13" d="M132.25,421.37s-5.74,4.03-13.46,8.68c0,0,0,0-.01,0-14.83,8.95-36.91,20.18-39.22,9.38-2.02-9.41,13.79-17.04,27.64-21.84,8.74-3.02,16.7-4.92,18.91-5.43,.18,.39,.37,.78,.57,1.15,1.3,2.51,2.87,4.85,4.65,6.95,.09,.1,.18,.21,.26,.31,.19,.22,.38,.43,.57,.64h0s.08,.14,.08,.14Z"/><path class="cls-13" d="M126.67,413.32c-1.19,.31-9.46,2.45-19.48,4.27-17.94,3.27-41.48,5.52-39.92-5.55,2.24-15.87,46.3-11.5,55.67-10.39,.48,3.66,1.58,7.22,3.16,10.51,.18,.39,.37,.78,.57,1.15Z"/><path class="cls-13" d="M156.19,364.59c-.34,.02-.69,.06-1.03,.1-.91,.1-1.79,.23-2.65,.39-2.46,.46-4.75,1.15-6.84,1.98-.29,.11-.57,.23-.86,.35-.8-3.17-3.29-13.48-4.88-24.4-2.29-15.74-2.72-32.74,6.52-31.41,6.5,.94,9.41,9.22,10.54,19.07h0c1.48,12.97-.15,28.66-.79,33.92Z"/></g><ellipse class="cls-7" cx="143.74" cy="404.3" rx="3.78" ry="1.97"/><ellipse class="cls-7" cx="183.19" cy="404.3" rx="3.78" ry="1.97"/><path class="cls-3" d="M156.98,330.67l.38-2.33s4.16,9.18,0,36.17l-1.17,.07s3.84-12.71,.79-33.92Z"/><path class="cls-3" d="M144.81,367.41l-.83,.36s-3.09-7.37-4.89-27.37l1.07,4.14s2.79,16.06,4.65,22.87Z"/><path class="cls-3" d="M192.03,334.22s-3.77,14.63-13.66,35.65c-.69-.41-1.14-.66-1.14-.66,0,0,4.26-5.44,13.5-33.33l1.3-1.67Z"/><path class="cls-3" d="M175.39,320.88l.59-1.35s-2.9,29.9-7.79,46.21l-1.44-.39s3.93-10.38,8.64-44.46Z"/><path class="cls-3" d="M130.84,365.27l-.98-1.33s1.31,3.63,5.06,9.34l.74-.62s-2.46-2.64-4.82-7.39Z"/><path class="cls-3" d="M104.02,361.22l-1.47-1.42s11.2,6.19,25.95,19.86l-.53,.84s-13.99-12.52-23.95-19.28Z"/><path class="cls-3" d="M103.91,381.66l-2.45-.8s2.9,2.75,21.85,10.29l.14-.61s-12.84-5.29-19.54-8.87Z"/><path class="cls-3" d="M114.31,400.83s6.66,.57,8.62,.76l.08,.56s-5.62-.12-10.46-1.45l1.75,.13Z"/><path class="cls-3" d="M106.86,417.66s10.54-1.56,19.81-4.33l.35,.65s-8.45,3.72-22.37,4.53l2.21-.85Z"/><path class="cls-3" d="M132.17,421.23s-7.26,3.63-13.39,8.83l-2.62,1.56s5.22-4.77,15.3-11.2c.84,.95,.72,.81,.72,.81Z"/><path class="cls-3" d="M124.11,448.53s14.35-17.29,16.04-20.91l1.16,.61s-11.54,15.54-18.29,22.32l1.09-2.02Z"/><path class="cls-3" d="M149.77,430.55s-12.88,22.58-15.15,40.07c-.77,1.37-.98,1.7-.98,1.7,0,0,2.38-19.69,15.3-41.83l.83,.07Z"/><path class="cls-3" d="M147.73,479.27s11.73-19.46,11.81-49.31c.62-.08,.47-.06,.47-.06,0,0,.84,26.56-12.12,49.93-.16-.45-.17-.57-.17-.57Z"/><path class="cls-3" d="M164.26,476.67s-6.03-16.41-5.82-28.16l-.29,1.66s-.54,6.85,5.96,27.28l.15-.79Z"/><path class="cls-3" d="M173.2,426.41s2.58,9.96,4.83,24.14l.33,.7s-1.3-11.18-4.73-25.04l-.44,.2Z"/><path class="cls-3" d="M193.72,442.68s-12.06-11.65-15.98-18.74l-.45,.31s3.95,6.87,18.16,21.02l-1.73-2.59Z"/><path class="cls-3" d="M185.03,416.77s26.63,14.38,36.36,25.91c.91,.24-6.66-9.69-35.95-26.53l-.41,.62Z"/><path class="cls-3" d="M215.08,419.01s-13.18-5.14-25.51-12.52l-.19,.69s11.46,6.93,27.4,12.83l-1.7-1Z"/><path class="cls-3" d="M191.39,396.32s30.26,2.56,44.81,10.87l1.13-.13s-15.11-8.25-45.89-11.55l-.05,.82Z"/><path class="cls-3" d="M192.17,362.32s-3.78,6.03-10,10.18c.58,.49,.35,.28,.35,.28,0,0,7.15-5.49,11.09-11.42l-1.44,.96Z"/><path class="cls-3" d="M206.47,371.67s-11.4,2.94-18.38,7.71c.22,.39,.21,.38,.21,.38,0,0,9.08-5.39,15.9-7.15l2.27-.94Z"/><path class="cls-3" d="M191.21,388.84s9.81,.62,33.44-1.74l1.34,.08s-9.59,2.04-34.68,2.53l-.1-.87Z"/><g><path class="cls-6" d="M154.3,396.86c-1.69-3.81-8.41-3.51-10.15,.11-.31,.62-1.26,.38-1.23-.31,.08-1.41,1.2-2.52,2.33-3.2,2.26-1.33,5.23-1.22,7.35,.27,1.02,.73,1.88,1.8,2.05,3.04,.03,.21-.28,.28-.35,.09h0Z"/><ellipse class="cls-6" cx="150.93" cy="396.75" rx="3.77" ry="2.33"/><circle class="cls-11" cx="148.21" cy="395.43" r="1.05"/><circle class="cls-11" cx="149.48" cy="397.15" r=".39"/></g><g><path class="cls-6" d="M169.72,396.78c.79-3.98,6.18-5.31,9.4-3.31,1.13,.68,2.25,1.79,2.33,3.2,.03,.7-.93,.93-1.23,.31-1.74-3.62-8.46-3.92-10.15-.11-.06,.2-.38,.12-.35-.09h0Z"/><ellipse class="cls-6" cx="173.44" cy="396.75" rx="3.77" ry="2.33"/><circle class="cls-11" cx="176.16" cy="395.43" r="1.05"/><circle class="cls-11" cx="174.88" cy="397.15" r=".39"/></g><path class="cls-6" d="M159.87,405.59c2.65,1.64,6.1,.86,7.68-1.87,.75-1.07,2.36,0,1.65,1.1-1.89,2.76-5.76,3.84-8.82,2.49-.56-.29-1.93-.65-1.44-1.55,.2-.31,.63-.39,.93-.17h0Z"/><path class="cls-13" d="M148.61,388.79c2.33,2.69,5.29,5.02,8.66,6.26,.65,.23,.35,1.21-.32,1.02-3.73-1.1-6.99-3.34-9.71-6.09-.85-.92,.57-2.16,1.37-1.19h0Z"/><path class="cls-13" d="M166.26,393.62c1.89-3.43,5.64-5.45,9.48-5.69,0,0,.89-.05,.89-.05,1,.07,2.79-.34,2.83,1.14,0,.69-.68,1.19-1.35,1.03-.73-.12-1.56-.27-2.31-.27-.23-.02-.55-.02-.78,0-3.08,.06-6.21,1.65-7.79,4.33-.32,.65-1.3,.18-.96-.48h0Z"/></g><g><path class="cls-8" d="M558.43,561.3c-7.06,26.91-3.85,79.89-2.09,101.87,.49,6.19,.87,9.93,.87,9.93h-11.01s-1.72-69.97,4.4-95.41c6.12-25.44,9.29-78.77,9.29-78.77l4.19-2.27,1.69-.92s1.71,31.07-7.34,65.57Z"/><path class="cls-5" d="M558.43,561.3c-7.06,26.91-3.85,79.89-2.09,101.87l-2.63,1.49s-5.19-74.45,2.23-99.32c9.62-37.44,8.85-60.76,8.14-68.69l1.69-.92s1.71,31.07-7.34,65.57Z"/><path class="cls-8" d="M548.83,606.98s-1.49-.61-3.79-1.82c-8.66-4.54-28.84-17.52-24.19-38.18,.88-3.9,2.09-6.01,3.52-6.78,8.2-4.41,23.52,34.82,23.52,34.82l.94,11.96Z"/><path class="cls-1" d="M574.15,607.47c.32-.33,.63-.66,.93-.98-.3,.35-.61,.68-.93,.98Z"/><g><path class="cls-8" d="M578.78,520.15c-6.47,5.12-14.6,6.6-14.6,6.6l.33-7.45s8.15-12.53,14.56-18.06c4.07-3.51,7.43-4.19,7.56,2.96,.13,7.41-3.48,12.51-7.84,15.95Z"/><path class="cls-5" d="M578.78,520.15c4.54-5.6,8.37-13.01,6.43-19.74-.86-2.96-6.14,.83-6.14,.83h0c4.07-3.51,7.43-4.2,7.56,2.96,.13,7.41-3.48,12.51-7.84,15.95Z"/></g><g><path class="cls-12" d="M604.65,426.33c-4.61,15.99-17.27,22.45-37.85,23.07-7.37,.22-14.7-3.91-20.11-10.3-9.7-11.44-13.27-30.08-.01-43.84,0,0,8.22-8.93,21.21-11.36,5.21-.97,11.18-.9,17.7,1.21,22.76,7.38,23.68,25.22,19.07,41.21Z"/><path class="cls-4" d="M546.69,439.11c-9.7-11.44-13.27-30.08-.01-43.84,0,0,8.22-8.93,21.21-11.36-13.7,5.96-34.73,21.06-21.19,55.2Z"/></g><g><path class="cls-13" d="M582.13,384.17h0c-.26-.06-.53-.11-.79-.17-3.45-.69-6.72-.83-9.77-.58-.34,.02-.69,.06-1.03,.1-.08-4.86-.16-20.73,1.82-34.01h0c1.83-12.2,5.4-22.22,12.33-19.53,3.61,1.4,5.42,5,6.08,9.74,1.97,14.17-6.46,38.51-8.63,44.46Z"/><path class="cls-13" d="M607.54,381.15h0c-5.07,5.16-9.35,8.94-10.32,9.79-.02,.02-.05,.05-.07,.06-1.37-1.06-2.89-2.06-4.61-2.97h0c-1.06-.57-2.18-1.11-3.39-1.6l-1.64-.98s8.9-17.83,18.61-30.73c7.32-9.72,15.1-16.65,19.88-11.06,7.3,8.53-7.44,26.28-18.44,37.5Z"/><path class="cls-13" d="M606.1,354.72c-4.18,15.91-13.48,33.33-13.48,33.33h-.09s0-.02,0-.02c-1.06-.57-2.18-1.1-3.39-1.6-1.12-.46-2.3-.91-3.55-1.31-1.17-.38-2.32-.69-3.46-.95h0c-.26-.06-.53-.11-.79-.17,.77-7.1,3.66-30.59,9.43-44.29,3.16-7.52,7.2-12.09,12.22-9.4,6.44,3.45,5.97,13.58,3.12,24.4Z"/><path class="cls-13" d="M619.57,391.44c-7.24,2.92-14,4.95-16.74,5.73-.16-.25-.32-.49-.49-.73-1.32-1.88-2.95-3.64-4.96-5.24h0s-.16-.25-.16-.25l-1.08-1.65s4.83-3.73,11.41-8.14h0c13.07-8.78,33.03-20.24,35.61-10.43,2.18,8.32-11.36,15.79-23.58,20.71Z"/><path class="cls-13" d="M657.93,394.13c-.46,6.47-8.32,9.96-17.91,11.8h0c-12.3,2.37-27.44,2.01-33.44,1.74-.03-.27-.08-.54-.12-.8-.56-3.43-1.71-6.71-3.64-9.7-.16-.25-.32-.49-.49-.73,2.6-.85,9.32-2.99,17.23-5,16.86-4.27,39.13-7.95,38.37,2.7Z"/><path class="cls-13" d="M657.19,436.17c-3.73,6.78-15.24,5.31-26.74,1.67,0,0,0,0,0,0-10.81-3.43-21.62-8.78-25.93-11.01,.05-.16,.1-.33,.15-.49,.1-.34,.19-.67,.28-1.01,.51-1.86,.93-3.75,1.26-5.63,.26-1.51,.45-3.03,.56-4.53,7.66,.92,32.87,4.35,44.81,10.87,5.13,2.8,7.81,6.17,5.62,10.15Z"/><path class="cls-13" d="M665.48,417.99c-1.52,5-6.91,7.31-13.91,8.03-15.55,1.62-39.01-4.55-45.37-6.33,.26-1.51,.45-3.03,.56-4.53,.19-2.53,.15-5.04-.18-7.48-.03-.27-.08-.54-.12-.8,5.51-.49,20.18-1.6,33.56-.94h0c14.79,.75,28,3.67,25.45,12.06Z"/><path class="cls-13" d="M648.06,459.88c-2.72,2.72-6.73,2.94-11.29,1.64-13.29-3.76-31.38-20.32-36.71-25.41,.12-.16,.23-.33,.35-.5,1.73-2.52,3.1-5.44,4.11-8.78,.05-.16,.1-.33,.15-.49,.1-.34,.19-.67,.28-1.01,3.99,1.69,15.25,6.61,25.5,12.51,0,0,0,0,0,0,12.61,7.27,23.65,16.01,17.61,22.03Z"/><path class="cls-13" d="M617.19,493.15c-8.86,2.79-17.63-10.77-23.78-23.76,0,0,0,0,0,0-5.19-10.95-8.54-21.49-8.54-21.49l3.52-2.56c.06-.03,.13-.06,.19-.09,1.62-.72,3.14-1.54,4.54-2.48h0c.4-.26,.79-.54,1.17-.82,1.82,2.18,8.55,10.35,14.81,19.57,9.04,13.31,17.11,28.8,8.1,31.64Z"/><path class="cls-13" d="M639.06,474.15c-7.03,5.68-19.64-3.09-29.97-12.64-9.24-8.53-16.66-17.68-16.66-17.68l.68-1.06h0c.4-.26,.79-.54,1.17-.82,2.22-1.63,4.14-3.57,5.77-5.84,.12-.16,.23-.33,.35-.5,6.54,3.64,27.23,15.6,36.36,25.91,4.4,4.96,6.12,9.54,2.3,12.63Z"/><path class="cls-13" d="M586.93,501.8c-3.27-.48-5.63-2.83-7.3-6.3-6.11-12.68-3.07-40.39-2.21-47.07,.18-.03,.36-.06,.55-.09,3.86-.67,7.33-1.66,10.41-3.01,.06-.03,.13-.06,.19-.09,.44,1.71,3.11,12.46,4.83,24.14,0,0,0,0,0,0,2.37,16.03,2.96,33.81-6.48,32.41Z"/><path class="cls-13" d="M579.63,495.5c-1.31,7.24-4.07,11.94-9.26,10.66-3.59-.89-5.89-3.87-7.27-8.05-4.65-14.06,1.04-41.67,2.62-48.7h0c.36,0,.72,0,1.08,0,1.68-.05,3.3-.14,4.87-.27h0c2-.16,3.9-.4,5.73-.7,.18-.03,.36-.06,.55-.09,.95,6.56,4.37,32.25,1.67,47.16Z"/><path class="cls-13" d="M565.14,449.38c-1.28,4.64-7.49,26.28-15.15,40.07-4.88,8.78-10.33,14.37-15.48,10.37-7.26-5.64-1.97-19.86,4.97-32.45,5.61-10.19,12.3-19.3,14.3-21.95,.57,.37,1.15,.72,1.74,1.04,2.89,1.61,5.97,2.62,9.09,2.88,.18,.02,.36,.03,.54,.04Z"/><path class="cls-13" d="M576.04,449.99s-4.24,35.9-12.94,48.12c-2.52,3.53-5.41,5.08-8.68,3.22-3.65-2.08-4.79-6.47-4.44-11.88,.9-13.89,11.59-34.53,14.61-40.11,.18,.02,.36,.03,.54,.04,.19,.01,.39,.02,.58,.02h0c.36,0,.72,0,1.08,0,1.68-.05,3.3-.14,4.87-.27h0l4.36,.85Z"/><path class="cls-13" d="M555.51,446.46c-1.72,2.51-8.37,12.05-16.04,20.91-9.86,11.39-21.39,21.64-26.22,14.26-5.73-8.77,9-23.16,20.88-32.73,0,0,0,0,.01,0,5.98-4.82,11.25-8.43,12.8-9.47,.19,.22,.38,.43,.57,.64h0c1.89,2.09,4,3.9,6.24,5.36,.57,.37,1.15,.72,1.74,1.04Z"/><path class="cls-13" d="M538.82,409.37c-.87,3.68-1,7.41-.52,11.05-9.46-.83-57.55-5.77-50.63-19.24,4.02-7.83,18.62-5.07,31.61-.69,8.3,2.81,15.94,6.29,19.73,8.1-.07,.26-.13,.52-.2,.78Z"/><path class="cls-13" d="M543.72,398.79c-.13,.18-.26,.36-.39,.55-2.06,2.97-3.47,6.08-4.32,9.26-.07,.26-.13,.52-.2,.78-3.49-1.42-11.39-4.72-19.54-8.87-14.37-7.31-29.56-17.24-22.93-24.09,4.8-4.96,13.94-1.8,23.03,3.64,0,0,0,0,0,0,10.25,6.13,20.45,15.16,24.33,18.73Z"/><path class="cls-13" d="M551.27,391.32c-.2,.14-.39,.29-.58,.43-2.59,1.98-4.01,3.52-4.01,3.52-1.1,1.14-2.08,2.31-2.96,3.52-.13,.18-.26,.36-.39,.55-4.05-2.86-15.08-10.87-23.95-19.28,0,0,0,0,0,0-9.44-8.96-16.42-18.39-9.93-22.56,10.24-6.58,27.86,14.52,36.76,26.61,0,0,0,.01,.01,.02,2.47,3.36,4.27,6.02,5.05,7.2Z"/><path class="cls-13" d="M561.04,385.89c-.29,.11-.57,.23-.86,.35-3.65,1.53-6.66,3.42-8.91,5.08-.2,.14-.39,.29-.58,.43-.53-.86-2.24-3.68-4.47-7.63,0,0,0-.01-.01-.02-4.19-7.4-10.2-18.77-13.74-28.76-3.75-10.59-4.72-19.62,2.23-20.71,6.36-1,11.56,5.4,15.61,14.02,1.92,4.08,3.58,8.65,4.99,13.18,3.34,10.74,5.25,21.2,5.74,24.05Z"/><path class="cls-13" d="M547.62,440.2s-5.74,4.03-13.46,8.68c0,0,0,0-.01,0-14.83,8.95-36.91,20.18-39.22,9.38-2.02-9.41,13.79-17.04,27.64-21.84,8.74-3.02,16.7-4.92,18.91-5.43,.18,.39,.37,.78,.57,1.15,1.3,2.51,2.87,4.85,4.65,6.95,.09,.1,.18,.21,.26,.31,.19,.22,.38,.43,.57,.64h0s.08,.14,.08,.14Z"/><path class="cls-13" d="M542.04,432.16c-1.19,.31-9.46,2.45-19.48,4.27-17.94,3.27-41.48,5.52-39.92-5.55,2.24-15.87,46.3-11.5,55.67-10.39,.48,3.66,1.58,7.22,3.16,10.51,.18,.39,.37,.78,.57,1.15Z"/><path class="cls-13" d="M571.56,383.42c-.34,.02-.69,.06-1.03,.1-.91,.1-1.79,.23-2.65,.39-2.46,.46-4.75,1.15-6.84,1.98-.29,.11-.57,.23-.86,.35-.8-3.17-3.29-13.48-4.88-24.4-2.29-15.74-2.72-32.74,6.52-31.41,6.5,.94,9.41,9.22,10.54,19.07h0c1.48,12.97-.15,28.66-.79,33.92Z"/></g><ellipse class="cls-7" cx="559.11" cy="423.13" rx="3.78" ry="1.97"/><ellipse class="cls-7" cx="598.56" cy="423.13" rx="3.78" ry="1.97"/><path class="cls-3" d="M572.35,349.5l.38-2.33s4.16,9.18,0,36.17l-1.17,.07s3.84-12.71,.79-33.92Z"/><path class="cls-3" d="M560.18,386.24l-.83,.36s-3.09-7.37-4.89-27.37l1.07,4.14s2.79,16.06,4.65,22.87Z"/><path class="cls-3" d="M607.4,353.05s-3.77,14.63-13.66,35.65c-.69-.41-1.14-.66-1.14-.66,0,0,4.26-5.44,13.5-33.33l1.3-1.67Z"/><path class="cls-3" d="M590.76,339.71l.59-1.35s-2.9,29.9-7.79,46.21l-1.44-.39s3.93-10.38,8.64-44.46Z"/><path class="cls-3" d="M546.21,384.1l-.98-1.33s1.31,3.63,5.06,9.34l.74-.62s-2.46-2.64-4.82-7.39Z"/><path class="cls-3" d="M519.39,380.05l-1.47-1.42s11.2,6.19,25.95,19.86l-.53,.84s-13.99-12.52-23.95-19.28Z"/><path class="cls-3" d="M519.28,400.5l-2.45-.8s2.9,2.75,21.85,10.29l.14-.61s-12.84-5.29-19.54-8.87Z"/><path class="cls-3" d="M529.68,419.66s6.66,.57,8.62,.76l.08,.56s-5.62-.12-10.46-1.45l1.75,.13Z"/><path class="cls-3" d="M522.23,436.49s10.54-1.56,19.81-4.33l.35,.65s-8.45,3.72-22.37,4.53l2.21-.85Z"/><path class="cls-3" d="M547.53,440.06s-7.26,3.63-13.39,8.83l-2.62,1.56s5.22-4.77,15.3-11.2c.84,.95,.72,.81,.72,.81Z"/><path class="cls-3" d="M539.48,467.36s14.35-17.29,16.04-20.91l1.16,.61s-11.54,15.54-18.29,22.32l1.09-2.02Z"/><path class="cls-3" d="M565.14,449.38s-12.88,22.58-15.15,40.07c-.77,1.37-.98,1.7-.98,1.7,0,0,2.38-19.69,15.3-41.83l.83,.07Z"/><path class="cls-3" d="M563.1,498.1s11.73-19.46,11.81-49.31c.62-.08,.47-.06,.47-.06,0,0,.84,26.56-12.12,49.93-.16-.45-.17-.57-.17-.57Z"/><path class="cls-3" d="M579.63,495.5s-6.03-16.41-5.82-28.16l-.29,1.66s-.54,6.85,5.96,27.28l.15-.79Z"/><path class="cls-3" d="M588.57,445.24s2.58,9.96,4.83,24.14l.33,.7s-1.3-11.18-4.73-25.04l-.44,.2Z"/><path class="cls-3" d="M609.09,461.51s-12.06-11.65-15.98-18.74l-.45,.31s3.95,6.87,18.16,21.02l-1.73-2.59Z"/><path class="cls-3" d="M600.4,435.6s26.63,14.38,36.36,25.91c.91,.24-6.66-9.69-35.95-26.53l-.41,.62Z"/><path class="cls-3" d="M630.44,437.84s-13.18-5.14-25.51-12.52l-.19,.69s11.46,6.93,27.4,12.83l-1.7-1Z"/><path class="cls-3" d="M606.76,415.16s30.26,2.56,44.81,10.87l1.13-.13s-15.11-8.25-45.89-11.55l-.05,.82Z"/><path class="cls-3" d="M607.54,381.15s-3.78,6.03-10,10.18c.58,.49,.35,.28,.35,.28,0,0,7.15-5.49,11.09-11.42l-1.44,.96Z"/><path class="cls-3" d="M621.83,390.5s-11.4,2.94-18.38,7.71c.22,.39,.21,.38,.21,.38,0,0,9.08-5.39,15.9-7.15l2.27-.94Z"/><path class="cls-3" d="M606.58,407.67s9.81,.62,33.44-1.74l1.34,.08s-9.59,2.04-34.68,2.53l-.1-.87Z"/><g><path class="cls-6" d="M569.67,415.7c-1.69-3.81-8.41-3.51-10.15,.11-.31,.62-1.26,.38-1.23-.31,.08-1.41,1.2-2.52,2.33-3.2,2.26-1.33,5.23-1.22,7.35,.27,1.02,.73,1.88,1.8,2.05,3.04,.03,.21-.28,.28-.35,.09h0Z"/><ellipse class="cls-6" cx="566.3" cy="415.58" rx="3.77" ry="2.33"/><circle class="cls-11" cx="563.57" cy="414.27" r="1.05"/><circle class="cls-11" cx="564.85" cy="415.98" r=".39"/></g><g><path class="cls-6" d="M585.08,415.61c.79-3.98,6.18-5.31,9.4-3.31,1.13,.68,2.25,1.79,2.33,3.2,.03,.7-.93,.93-1.23,.31-1.74-3.62-8.46-3.92-10.15-.11-.06,.2-.38,.12-.35-.09h0Z"/><ellipse class="cls-6" cx="588.81" cy="415.58" rx="3.77" ry="2.33"/><circle class="cls-11" cx="591.53" cy="414.27" r="1.05"/><circle class="cls-11" cx="590.25" cy="415.98" r=".39"/></g><path class="cls-6" d="M575.24,424.42c2.65,1.64,6.1,.86,7.68-1.87,.75-1.07,2.36,0,1.65,1.1-1.89,2.76-5.76,3.84-8.82,2.49-.56-.29-1.93-.65-1.44-1.55,.2-.31,.63-.39,.93-.17h0Z"/><path class="cls-13" d="M563.97,407.63c2.33,2.69,5.29,5.02,8.66,6.26,.65,.23,.35,1.21-.32,1.02-3.73-1.1-6.99-3.34-9.71-6.09-.85-.92,.57-2.16,1.37-1.19h0Z"/><path class="cls-13" d="M581.63,412.45c1.89-3.43,5.64-5.45,9.48-5.69,0,0,.89-.05,.89-.05,1,.07,2.79-.34,2.83,1.14,0,.69-.68,1.19-1.35,1.03-.73-.12-1.56-.27-2.31-.27-.23-.02-.55-.02-.78,0-3.08,.06-6.21,1.65-7.79,4.33-.32,.65-1.3,.18-.96-.48h0Z"/></g><g><path class="cls-8" d="M344.61,429.16c-14.74,56.17-8.03,166.74-4.37,212.63,1.03,12.93,1.82,20.73,1.82,20.73h-22.98s-3.58-146.04,9.19-199.15c12.77-53.1,22.94-191.8,22.94-191.8l8.74-4.73,3.52-1.91s.03,92.23-18.86,164.23Z"/><path class="cls-5" d="M344.61,429.16c-14.74,56.17-8.03,166.74-4.37,212.63l-5.48,3.11s-10.83-155.4,4.65-207.31c20.07-78.15,22.02-147.95,20.54-164.49l3.52-1.91s.03,85.97-18.86,157.97Z"/><path class="cls-8" d="M341.05,402.18s-1.86-.76-4.72-2.26c-10.78-5.65-35.89-21.8-30.1-47.52,1.09-4.85,2.6-7.48,4.38-8.44,10.21-5.49,29.27,43.34,29.27,43.34l1.17,14.88Z"/><path class="cls-1" d="M377.42,525.54c.66-.69,1.31-1.38,1.94-2.05-.63,.74-1.28,1.42-1.94,2.05Z"/><g><path class="cls-8" d="M379.42,400.41c-15.2,7.46-32.14,6.89-32.14,6.89l3.89-14.8s21.78-21.59,37.02-29.9c9.69-5.27,16.73-5.18,13.87,9.22-2.96,14.91-12.41,23.57-22.64,28.58Z"/><path class="cls-5" d="M379.42,400.41c11.53-9.25,22.43-22.46,21.45-36.79-.43-6.3-12.67-1.01-12.67-1.01h0c9.69-5.28,16.73-5.19,13.87,9.22-2.96,14.91-12.41,23.57-22.64,28.58Z"/></g><g><path class="cls-9" d="M523,144.92c-2.65,3.09-8.08,5.17-6.23,6.67,1.9,1.5,5.47,6.36,3.75,7.51-1.68,1.1-6.58,5.83-6.76,5.83s-1.9,2.96-1.9,2.96c0,0,8.12,9.8,5.3,10.73-2.83,.97-1.9,6.8-3.4,7.55-1.5,.75,1.77,8.08-3.18,6.76-4.95-1.32,2.6,5.74-.18,7.42-2.83,1.68-4.06,11.74-6.05,10.42-.99-.68-3.14-.22-5,.38s-2.96,2.56-2.56,4.5c.87,4.22,1.89,11.13-.65,11.41-1.52,.18-3.44,.21-5.17,.19-2.32-.04-4.16,1.93-3.95,4.24,.33,3.58,.39,7.93-1.3,7.4-1.58-.47-4.28-.4-6.36-.25-1.67,.12-3.08,1.28-3.5,2.9-.68,2.63-1.78,6.39-2.68,6.93-.83,.52-3.79,1.12-6.07,1.52-1.63,.29-2.91,1.55-3.18,3.19-.31,1.87-.88,4.21-1.88,5.31-1.85,1.99-2.38,2.69-4.81,3.66-1.26,.52-3.81,.48-5.92,.34-1.79-.12-3.43,.98-3.97,2.69-.28,.88-.68,1.61-1.24,1.61-1.41,0-6.89,7.2-8.87,6.49-1.99-.71-10.42,3.93-11.83,2.96-1.41-.97-3.71-1.68-3.71-1.68,0,0-10.91,12.85-14.83,11.17-2.79-1.18-6.97-3.14-9.22-4.2-1-.48-2.12-.5-3.15-.07-4.48,1.89-16.89,7-16.56,5.77,.35-1.5-3.22,.18-5.08-.75-1.9-.93-3.4-4.33-3.4-4.33,0,0-10.51,6.76-13.16,5.25-2.6-1.5-4.68-5.08-6.18-5.25-1.5-.18-2.52-3.05-2.52-3.05,0,0-2.74,3.97-5.74,3.05-3.05-.93-7.33,1.5-9.41,0s-6-4.33-6.98-6.58c-.93-2.25-7.68,3.31-9.76,.49-2.08-2.83-15.01-4.81-12.49-8.34,2.52-3.58,1.59-6.05,1.59-6.05,0,0-6.27,3.75-10.02,1.72-2.14-1.17-2.99-4.48-3.32-7.16-.25-1.96-1.97-3.38-3.95-3.34-1.57,.03-3.26-.15-4.3-.89-2.34-1.68-8.26-3-8.92-4.68-.66-1.68-4.24-5.65-3.89-7.51,.4-1.9-.66-8.61-.66-8.61,0,0-2.87,4.9-5.7,2.34-1.92-1.71-2.7-7.85-3-11.61-.13-1.67-1.34-3.05-2.97-3.45-1.03-.25-1.87-.63-1.49-1.15,.84-1.1-.22-5.96-.22-5.96,0,0-11.48,4.55-11.35-2.47,.13-7.06-4.11-12.72-3.22-12.72s.4-8.17,1.55-9.27c1.1-1.15,.97-3.97,.97-3.97,0,0-10.55-4.06-9.58-6.89,.63-1.82,3.19-7.13,4.94-10.69,.91-1.85,.22-4.05-1.55-5.09-2.53-1.48-5.6-3.71-5.36-5.69,.27-2.07,3.3-4.84,5.63-6.69,1.53-1.22,1.92-3.37,.91-5.05-1.71-2.85-4.17-6.79-5.23-7.61-3.48-2.72,1.02-9.81,1.36-10.62,1.55-3.66,7.33-4.24,7.33-4.24,0,0-5.33-4.57-4.09-7.22,1-2.12,1.07-10.43,3.19-10.43s5.14-2.05,5.14-2.05c0,0-4.02-6.66-2.79-7.63,1.28-1.02,2.11-12.1,5.07-13.25,2.96-1.1,8.51-4.43,9.39-4.7,.84-.31,1.69-1.88,1.69-1.88l.47-3.48s-15.39-13.05-4.97-14.77c4.13-.67,7.64-.8,10.38-.73,2.67,.07,4.58-2.53,3.76-5.07-.86-2.68-1.05-5.5,1.35-6.56,3.23-1.43,8.79-1.88,12.41-2.02,1.95-.07,3.54-1.59,3.71-3.53,.35-4.23,1.4-10.83,4.45-10.83,1.69,0,3.61,.42,5.35,.95,2.51,.76,5.02-1.24,4.99-3.86-.07-5.4,.5-12.27,4.01-10.33,1.93,1.07,3.93,2.3,5.72,3.46,2.53,1.63,5.9-.13,5.99-3.14,.16-5.75,1.17-12.4,5.21-9.89,6.76,4.24,10.73,3.13,13.25,4.24,1.1,.49,2.5,1.31,3.75,2.08,1.7,1.05,3.91,.66,5.14-.92,2.31-2.97,6.05-7.02,8.6-5.93,1.94,.83,3.66,2.22,4.91,3.41s3.27,1.37,4.76,.39c3.1-2.03,8.11-5.04,10.9-5.21,2.19-.16,4.08,1.54,5.39,3.21,1.25,1.6,3.47,2.03,5.19,.95,3.92-2.44,10.26-5.88,12.51-4.16,1.55,1.15,3.1,3.12,4.34,4.94,.99,1.46,2.89,2.22,4.5,1.5,.95-.43,2.35-.62,4.41-.25,4.12,.76,6.86,3.62,8.25,5.48,.77,1.03,2.01,1.56,3.29,1.48,3.53-.23,10.27-.58,12.69-.2,3.4,.57,8.74-.84,9.05,1.15,.13,.94,.38,3.34,.61,5.61,.25,2.48,2.72,4.07,5.09,3.31,3.32-1.07,7.24-2.05,7.24-.76,0,2.25-.84,7.33,1.99,7.33s13.25-1.15,11.26,.57c-1.99,1.68-3.44,9.01,.27,9.01s9.89-1.15,9.32,1.99c-.4,2.15-.22,7.18-.08,10.03,.07,1.28,.74,2.43,1.83,3.11,2.19,1.37,5.75,3.73,6.15,4.88,.28,.82,.56,2.19,.78,3.37,.25,1.36,1.17,2.48,2.47,2.95,3.29,1.21,9.35,3.81,9.86,6.79,.43,2.49-.1,5.9-.59,8.19-.32,1.52,.27,3.06,1.53,3.97,2.93,2.13,7.8,6.07,7.49,8.55-.15,1.32-.6,2.52-1.1,3.51-.84,1.65-.54,3.62,.85,4.84,2.05,1.78,4.54,4.27,4.62,5.87,.08,1.62-.85,4.39-1.64,6.41-.55,1.4-.29,3,.76,4.07,1.47,1.5,3.5,4.14,4.81,8.2,.8,2.41,.57,4.21-.08,5.54-.93,1.93,.16,4.18,2.13,5.03,1.33,.58,2.31,1.27,2.1,2.01-.57,2.08,3.75,1.85,1.15,4.99Z"/><path class="cls-10" d="M289.91,71.72l3.76,3.76c2.3,2.3,5.81,2.9,8.74,1.48l2.99-1.44"/><path class="cls-10" d="M285.97,125.21l5.32,.22c3.25,.13,6.24-1.8,7.43-4.83l1.22-3.09"/><path class="cls-10" d="M274.2,192.21l4.84-2.21c2.96-1.35,4.75-4.43,4.45-7.67l-.3-3.31"/><path class="cls-10" d="M344.81,47.5l5.23-.98c3.2-.6,5.68-3.15,6.17-6.37l.5-3.29"/><path class="cls-10" d="M400.73,23.5l4.77,2.37c2.92,1.45,6.43,.9,8.76-1.38l2.38-2.32"/><path class="cls-10" d="M428.14,59.27l3.44,4.07c2.1,2.49,5.55,3.37,8.59,2.21l3.1-1.19"/><path class="cls-10" d="M477.66,104.12l-1.08,5.21c-.66,3.19,.76,6.45,3.56,8.12l2.85,1.71"/><path class="cls-10" d="M431.94,138.3l3.76,3.76c2.3,2.3,5.81,2.9,8.74,1.48l2.99-1.44"/><path class="cls-10" d="M372.58,98.58l4.96,1.94c3.03,1.18,6.48,.32,8.6-2.15l2.16-2.52"/><path class="cls-10" d="M330.25,154.66l3.45-4.06c2.11-2.48,2.41-6.03,.77-8.83l-1.68-2.87"/><path class="cls-10" d="M361.41,162.32l2.16,4.87c1.32,2.98,4.38,4.79,7.62,4.53l3.31-.27"/><path class="cls-10" d="M362.72,213.61l-3.76,3.76c-2.3,2.3-2.9,5.81-1.48,8.74l1.44,2.99"/><path class="cls-10" d="M367.37,263.14l-5.32-.08c-3.26-.05-6.19,1.96-7.31,5.02l-1.15,3.12"/><path class="cls-10" d="M440.19,244.62l-4.76,2.39c-2.91,1.46-4.57,4.61-4.15,7.84l.43,3.3"/><path class="cls-10" d="M410.46,200.69l4.57,2.74c2.79,1.68,6.34,1.4,8.84-.68l2.55-2.13"/><path class="cls-10" d="M467.5,170.26l1.85,4.99c1.13,3.05,4.07,5.06,7.33,4.99l3.32-.06"/><path class="cls-10" d="M483.22,208.23l-5.3,.49c-3.24,.3-5.94,2.62-6.72,5.78l-.8,3.23"/><path class="cls-10" d="M318.29,226.3l-4.97-1.91c-3.04-1.17-6.49-.29-8.59,2.19l-2.15,2.53"/><path class="cls-10" d="M254.67,148.54l.57-5.29c.35-3.24-1.38-6.34-4.32-7.74l-3-1.43"/></g><path class="cls-6" d="M373.27,168.26c2.03,.94,5.03,.88,7.38,.95,2.38-.07,5.36,.05,7.44-.92,.48-.39,1.16-.11,1.02,.54-2.04,5.16-14.91,5.19-16.98,.03-.18-.52,.44-1.01,.9-.73,0,0,.24,.13,.24,.13h0Z"/><g><circle class="cls-6" cx="354.35" cy="147.93" r="9.08"/><circle class="cls-11" cx="347.8" cy="143.26" r="2.53"/><circle class="cls-11" cx="350.88" cy="147.38" r=".95"/></g><g><circle class="cls-6" cx="406.74" cy="147.93" r="9.08"/><circle class="cls-11" cx="413.29" cy="143.26" r="2.53"/><circle class="cls-11" cx="410.21" cy="147.38" r=".95"/></g><ellipse class="cls-7" cx="341.44" cy="169.7" rx="6.78" ry="3.54"/><ellipse class="cls-7" cx="422.59" cy="169.7" rx="6.78" ry="3.54"/></g><g><path class="cls-14" d="M544.06,703.74h-.03c-190.19,.86-544.03-3.82-544.03-3.82l25.06-8.18s71.18-43.56,101.25-41.51c30.1,2.04,36.11-12.94,49.12-8.18,13.05,4.76,55.16-2.56,63.17-.94,4.59,.92,22.38-2.58,40.99-3.84,13.9-.98,28.27-.7,37.84,3.6,22.41,10.04,45.71-9.32,62.14-4.06,16.43,5.24,112.67,1.16,114.68,9.32,2,8.18,89.23,28.59,103.25,38.13,14.05,9.52,56.16,6.8,64.17,15.65,2.18,2.42-46.15,3.5-117.62,3.82Z"/><path class="cls-2" d="M544.06,703.74h-.03s-27.83-16.07-31.6-17.09c-3.77-1.02-48.5-34.71-56.01-28.59-7.51,6.12-77.07-10.98-82.34-15.87s-36.08,14.34-48.5,4.9c-12.4-9.44-45.97-9.8-45.97-9.8,13.9-.98,28.27-.7,37.84,3.6,22.41,10.04,45.71-9.32,62.14-4.06,16.43,5.24,112.67,1.16,114.68,9.32,2,8.18,89.23,28.59,103.25,38.13,14.05,9.52,56.16,6.8,64.17,15.65,2.18,2.42-46.15,3.5-117.62,3.82Z"/></g></g></g></svg>