<svg xmlns="http://www.w3.org/2000/svg" viewBox="0 0 671.87 703.68"><defs><style>.cls-1{fill:#5aba97;}.cls-2{fill:#63c6a0;}.cls-3{fill:#82d16f;}.cls-4{fill:#ffcd50;}.cls-5{fill:#ffc033;}.cls-6{fill:#302826;}.cls-10,.cls-7{fill:#f5ffff;}.cls-8{fill:#ff6e79;opacity:0.35;}.cls-9{fill:#e9f4f4;}.cls-10,.cls-11{stroke:#efedee;stroke-miterlimit:10;stroke-width:2px;}.cls-11{fill:none;stroke-linecap:round;}.cls-12{fill:#efefef;}.cls-13{fill:#4f2f2f;}.cls-14{fill:#593636;}</style></defs><g id="Calque_2" data-name="Calque 2"><g id="Calque_1-2" data-name="Calque 1"><path class="cls-1" d="M145.29,544.33c-7.32,27.88-4,82.76-2.17,105.54.51,6.42.91,10.29.91,10.29H132.62s-1.78-72.49,4.56-98.85,9.63-81.61,9.63-81.61l4.34-2.35,1.75-.94A245.92,245.92,0,0,1,145.29,544.33Z"/><path class="cls-2" d="M145.29,544.33c-7.32,27.88-4,82.76-2.17,105.54l-2.72,1.54s-5.37-77.13,2.31-102.9c10-38.78,9.17-62.95,8.44-71.16l1.75-.94A245.92,245.92,0,0,1,145.29,544.33Z"/><path class="cls-1" d="M164.94,587.68c-11,9.51-25.27,12.71-25.27,12.71l0-13.17s13.45-22.71,24.34-32.94c6.93-6.49,12.81-7.94,13.55,4.67C178.36,572,172.38,581.27,164.94,587.68Z"/><path class="cls-1" d="M144.36,534.88s-1-.41-2.56-1.23c-5.85-3.06-19.46-11.82-16.32-25.77.59-2.63,1.41-4.05,2.37-4.57,5.54-3,15.88,23.5,15.88,23.5Z"/><path class="cls-3" d="M161.58,592.17l1-1A13.52,13.52,0,0,1,161.58,592.17Z"/><path class="cls-2" d="M164.94,587.68c7.6-10.21,13.81-23.58,9.88-35.3-1.73-5.16-10.78,1.91-10.78,1.91h0c6.93-6.49,12.81-7.94,13.55,4.67C178.36,572,172.38,581.27,164.94,587.68Z"/><path class="cls-4" d="M193.17,404.51c-4.77,16.57-17.88,23.26-39.21,23.9-7.64.23-15.23-4.06-20.83-10.67-10.06-11.85-13.75-31.16,0-45.41a43.46,43.46,0,0,1,22-11.77,36.78,36.78,0,0,1,18.34,1.25C197,369.46,198,387.94,193.17,404.51Z"/><path class="cls-5" d="M133.13,417.74c-10.06-11.85-13.75-31.16,0-45.41a43.46,43.46,0,0,1,22-11.77C140.88,366.74,119.1,382.37,133.13,417.74Z"/><path class="cls-6" d="M159.54,399.87c1.27,1.73,3.78,1.89,5.66,1.24a3.51,3.51,0,0,0,1.66-1.26.29.29,0,0,1,.41-.07.29.29,0,0,1,.13.24,2.63,2.63,0,0,1-.45,1.37,4.87,4.87,0,0,1-7.56,0c-.24-.36-.85-1.62-.14-1.71a.31.31,0,0,1,.29.17Z"/><path class="cls-6" d="M169.74,394c.38-3.58,3.89-6.15,7.4-6.44a8.72,8.72,0,0,1,7.77,3.21,4.28,4.28,0,0,1,1,2.93,1.74,1.74,0,0,1-3,1,7.32,7.32,0,0,1-1.2-1.7,6.19,6.19,0,0,0-4.54-2.9,6.42,6.42,0,0,0-6.84,4,.28.28,0,0,1-.55-.11Z"/><path class="cls-6" d="M156.12,394.14a6.42,6.42,0,0,0-6.84-4,6.17,6.17,0,0,0-4.54,2.9c-.7,1.34-2,3.15-3.65,1.84-1.16-1.13-.41-3,.41-4.09a8.71,8.71,0,0,1,7.77-3.21c3.51.29,7,2.86,7.39,6.44a.28.28,0,0,1-.54.11Z"/><path class="cls-7" d="M169.84,360.83h0l-.82-.17a36.44,36.44,0,0,0-10.12-.61l-1.07.1c-.08-5-.16-21.47,1.89-35.23h0c1.89-12.64,5.59-23,12.77-20.24,3.74,1.45,5.62,5.18,6.3,10.09C180.82,329.45,172.08,354.66,169.84,360.83Z"/><path class="cls-7" d="M196.16,357.7h0c-5.25,5.34-9.69,9.26-10.7,10.13l-.07.07a32.63,32.63,0,0,0-4.77-3.08h0c-1.11-.59-2.27-1.15-3.51-1.66l-1.71-1s9.23-18.47,19.28-31.83c7.59-10.08,15.64-17.26,20.6-11.47C222.83,327.69,207.56,346.08,196.16,357.7Z"/><path class="cls-7" d="M194.67,330.32c-4.33,16.47-14,34.53-14,34.53l-.09,0h0c-1.11-.59-2.27-1.15-3.51-1.66s-2.39-.94-3.68-1.36-2.41-.72-3.58-1h0l-.82-.17c.8-7.36,3.79-31.69,9.77-45.89,3.28-7.79,7.45-12.53,12.66-9.73C198.11,308.62,197.62,319.1,194.67,330.32Z"/><path class="cls-7" d="M208.63,368.36c-7.5,3-14.51,5.12-17.35,5.94-.17-.26-.33-.51-.51-.76a25.92,25.92,0,0,0-5.14-5.43h0l-.17-.26-1.12-1.7s5-3.86,11.82-8.43h0c13.54-9.08,34.22-21,36.89-10.8C235.31,355.51,221.28,363.26,208.63,368.36Z"/><path class="cls-7" d="M248.37,371.15c-.48,6.7-8.62,10.32-18.55,12.22h0c-12.75,2.45-28.43,2.08-34.64,1.81l-.12-.84a26,26,0,0,0-3.77-10c-.17-.26-.33-.51-.51-.76,2.69-.89,9.66-3.1,17.86-5.18C226.1,363.93,249.17,360.12,248.37,371.15Z"/><path class="cls-7" d="M247.6,414.7c-3.86,7-15.79,5.5-27.71,1.73h0A186.35,186.35,0,0,1,193,405l.15-.51.3-1.05c.52-1.93,1-3.88,1.3-5.83.27-1.57.47-3.14.58-4.7,7.93.95,34.05,4.5,46.43,11.26C247.09,407.09,249.87,410.57,247.6,414.7Z"/><path class="cls-7" d="M256.19,395.86c-1.57,5.18-7.16,7.57-14.41,8.33-16.12,1.68-40.42-4.71-47-6.56.27-1.57.47-3.14.58-4.7a37,37,0,0,0-.18-7.75l-.12-.84a276.12,276.12,0,0,1,34.76-1h0C245.15,384.14,258.83,387.18,256.19,395.86Z"/><path class="cls-7" d="M238.14,439.26c-2.82,2.81-7,3-11.7,1.7-13.77-3.9-32.51-21-38-26.32.13-.17.25-.35.37-.53A32.45,32.45,0,0,0,193,405l.15-.51.3-1.05a260.36,260.36,0,0,1,26.41,13h0C233,424,244.39,433,238.14,439.26Z"/><path class="cls-7" d="M206.16,473.74c-9.18,2.88-18.26-11.16-24.64-24.62h0a200.07,200.07,0,0,1-8.85-22.26l3.65-2.66.2-.09a31.58,31.58,0,0,0,4.7-2.57h0c.41-.27.81-.55,1.21-.85,1.88,2.26,8.85,10.72,15.34,20.27C207.14,454.74,215.5,470.79,206.16,473.74Z"/><path class="cls-7" d="M228.82,454.05c-7.28,5.88-20.34-3.21-31-13.1a199.53,199.53,0,0,1-17.26-18.31l.7-1.11h0c.41-.27.81-.55,1.21-.85a26.94,26.94,0,0,0,6-6c.13-.17.25-.35.37-.53,6.77,3.78,28.2,16.17,37.67,26.85C231,446.1,232.78,450.85,228.82,454.05Z"/><path class="cls-7" d="M174.81,482.69c-3.39-.5-5.83-2.93-7.56-6.52-6.33-13.14-3.18-41.84-2.29-48.76l.56-.1a46.46,46.46,0,0,0,10.79-3.12l.2-.09c.45,1.77,3.22,12.91,5,25h0C184,465.72,184.58,484.14,174.81,482.69Z"/><path class="cls-7" d="M167.25,476.17c-1.36,7.5-4.21,12.37-9.59,11-3.72-.92-6.1-4-7.53-8.35-4.82-14.57,1.08-43.17,2.71-50.45H154c1.74-.05,3.42-.15,5-.28h0q3.09-.25,5.94-.72l.56-.1C166.51,434.11,170.05,460.73,167.25,476.17Z"/><path class="cls-7" d="M152.23,428.38c-1.33,4.81-7.76,27.23-15.69,41.51-5,9.1-10.71,14.89-16,10.74-7.53-5.84-2-20.57,5.15-33.61a207.53,207.53,0,0,1,14.81-22.75c.59.39,1.19.75,1.8,1.09a23.59,23.59,0,0,0,9.42,3Z"/><path class="cls-7" d="M163.53,429s-4.39,37.2-13.4,49.85c-2.62,3.66-5.61,5.27-9,3.34-3.79-2.15-5-6.7-4.6-12.31.93-14.39,12-35.77,15.14-41.55l.55,0c.2,0,.41,0,.61,0H154c1.74-.05,3.42-.15,5-.28h0Z"/><path class="cls-7" d="M142.26,425.36A263.43,263.43,0,0,1,125.65,447c-10.22,11.8-22.16,22.41-27.16,14.77-5.94-9.09,9.33-24,21.64-33.91h0c6.2-5,11.66-8.73,13.26-9.81.2.23.39.45.59.66h0a33,33,0,0,0,6.46,5.54C141.05,424.66,141.65,425,142.26,425.36Z"/><path class="cls-7" d="M125,386.93a31.63,31.63,0,0,0-.54,11.45c-9.8-.86-59.61-6-52.44-19.93,4.16-8.11,19.28-5.26,32.74-.71a192.52,192.52,0,0,1,20.44,8.39C125.1,386.4,125,386.67,125,386.93Z"/><path class="cls-7" d="M130.05,376l-.4.57a30.46,30.46,0,0,0-4.48,9.59c-.07.27-.13.54-.2.8-3.62-1.47-11.8-4.89-20.24-9.19C89.84,370.17,74.1,359.88,81,352.79c5-5.14,14.44-1.87,23.86,3.77h0C115.46,362.92,126,372.27,130.05,376Z"/><path class="cls-7" d="M137.87,368.23l-.6.45a34.7,34.7,0,0,0-4.16,3.65,33,33,0,0,0-3.06,3.64l-.4.57a241.88,241.88,0,0,1-24.81-20h0c-9.78-9.29-17-19.05-10.29-23.38,10.61-6.82,28.86,15.05,38.08,27.58l0,0C135.2,364.26,137.07,367,137.87,368.23Z"/><path class="cls-7" d="M148,362.61c-.3.11-.59.24-.89.36a44.65,44.65,0,0,0-9.23,5.26l-.6.45c-.55-.9-2.32-3.81-4.63-7.9l0,0c-8.93-15.8-25.91-49.05-11.92-51.25,9.7-1.52,16.8,13.58,21.34,28.18A208.39,208.39,0,0,1,148,362.61Z"/><path class="cls-7" d="M134.08,418.87s-6,4.18-13.94,9h0c-15.37,9.27-38.24,20.9-40.63,9.72-2.1-9.76,14.28-17.66,28.63-22.63,9.05-3.13,17.3-5.1,19.59-5.63.18.41.38.81.59,1.2a37.87,37.87,0,0,0,4.82,7.2,4.15,4.15,0,0,0,.27.32c.2.23.39.45.59.66h0Z"/><path class="cls-7" d="M128.31,410.54c-1.24.32-9.81,2.54-20.18,4.43-18.59,3.38-43,5.72-41.36-5.76,2.32-16.44,48-11.91,57.67-10.76a36.41,36.41,0,0,0,3.28,10.89C127.9,409.75,128.1,410.15,128.31,410.54Z"/><ellipse class="cls-8" cx="143.72" cy="401.7" rx="3.36" ry="1.76"/><ellipse class="cls-8" cx="184" cy="401.7" rx="3.36" ry="1.76"/><path class="cls-7" d="M158.89,360.05l-1.07.1c-.93.11-1.85.24-2.74.41a37.88,37.88,0,0,0-7.09,2.05c-.3.11-.59.24-.89.36-.82-3.28-3.41-14-5.06-25.28-2.37-16.3-2.81-33.92,6.76-32.53,6.73,1,9.75,9.55,10.91,19.76h0C161.24,338.36,159.55,354.61,158.89,360.05Z"/><path class="cls-9" d="M159.71,324.92l.39-2.42s4.31,9.51,0,37.48l-1.21.07S162.87,346.88,159.71,324.92Z"/><path class="cls-9" d="M147.1,363l-.86.37S143,355.7,141.17,335l1.11,4.28S145.17,355.91,147.1,363Z"/><path class="cls-9" d="M196,328.59s-3.91,15.16-14.15,36.94l-1.18-.68s4.41-5.64,14-34.53Z"/><path class="cls-9" d="M178.78,314.77l.61-1.4s-3,31-8.07,47.87l-1.49-.41S173.9,350.08,178.78,314.77Z"/><path class="cls-9" d="M132.62,360.76l-1-1.38a52,52,0,0,0,5.25,9.67l.77-.64A34.9,34.9,0,0,1,132.62,360.76Z"/><path class="cls-9" d="M104.84,356.56l-1.53-1.47s11.61,6.41,26.89,20.58l-.55.87S115.15,363.56,104.84,356.56Z"/><path class="cls-9" d="M104.73,377.74l-2.54-.83s3,2.85,22.64,10.66l.14-.64S111.66,381.46,104.73,377.74Z"/><path class="cls-9" d="M115.5,397.59s6.9.6,8.93.79l.09.59a51.9,51.9,0,0,1-10.84-1.51Z"/><path class="cls-9" d="M107.78,415a169.14,169.14,0,0,0,20.53-4.49l.36.67s-8.75,3.86-23.18,4.7Z"/><path class="cls-9" d="M134,418.73a79.27,79.27,0,0,0-13.87,9.15l-2.72,1.62a124.87,124.87,0,0,1,15.85-11.61Z"/><path class="cls-9" d="M125.65,447s14.87-17.91,16.61-21.66l1.21.63s-12,16.09-19,23.12Z"/><path class="cls-9" d="M152.23,428.38s-13.34,23.4-15.69,41.51c-.8,1.42-1,1.76-1,1.76s2.46-20.39,15.85-43.33Z"/><path class="cls-9" d="M150.13,478.86s12.15-20.16,12.24-51.08l.48-.06s.88,27.52-12.55,51.73A3.38,3.38,0,0,1,150.13,478.86Z"/><path class="cls-9" d="M167.25,476.17s-6.25-17-6-29.17l-.31,1.72s-.55,7.1,6.18,28.26Z"/><path class="cls-9" d="M176.51,424.1s2.67,10.32,5,25l.35.72a232.81,232.81,0,0,0-4.9-25.94Z"/><path class="cls-9" d="M197.77,441s-12.5-12.07-16.56-19.42l-.47.33s4.09,7.11,18.82,21.77Z"/><path class="cls-9" d="M188.77,414.11S216.36,429,226.44,441c.94.25-6.9-10-37.25-27.49Z"/><path class="cls-9" d="M219.89,416.43a199.28,199.28,0,0,1-26.42-13l-.2.72a183.34,183.34,0,0,0,28.39,13.28Z"/><path class="cls-9" d="M195.35,392.93s31.35,2.65,46.43,11.26l1.17-.14s-15.66-8.55-47.54-12Z"/><path class="cls-9" d="M196.16,357.7a39.46,39.46,0,0,1-10.36,10.55c.6.51.36.29.36.29s7.41-5.69,11.49-11.83Z"/><path class="cls-9" d="M211,367.38s-11.81,3.05-19,8l.22.4s9.41-5.58,16.48-7.41Z"/><path class="cls-9" d="M195.17,385.18s10.16.64,34.64-1.81l1.39.08s-9.94,2.11-35.92,2.62Z"/><path class="cls-1" d="M560.65,566.69c-7.32,27.88-4,82.76-2.17,105.53.51,6.42.9,10.29.9,10.29H548s-1.77-72.48,4.57-98.84,9.63-81.61,9.63-81.61l4.33-2.35,1.75-.95A246.19,246.19,0,0,1,560.65,566.69Z"/><path class="cls-2" d="M560.65,566.69c-7.32,27.88-4,82.76-2.17,105.53l-2.72,1.55s-5.38-77.13,2.31-102.9c10-38.79,9.17-62.95,8.43-71.16l1.75-.95A246.19,246.19,0,0,1,560.65,566.69Z"/><path class="cls-1" d="M580.3,610c-11,9.51-25.28,12.72-25.28,12.72l0-13.17s13.46-22.72,24.35-32.94c6.92-6.49,12.8-7.95,13.55,4.67C593.72,594.37,587.73,603.63,580.3,610Z"/><path class="cls-1" d="M559.72,557.24s-1-.42-2.56-1.23c-5.85-3.06-19.46-11.82-16.33-25.77.59-2.63,1.41-4.06,2.38-4.58,5.53-3,15.87,23.5,15.87,23.5Z"/><path class="cls-3" d="M576.93,614.52l1-1A13.23,13.23,0,0,1,576.93,614.52Z"/><path class="cls-2" d="M580.3,610c7.59-10.2,13.8-23.57,9.87-35.3-1.72-5.15-10.77,1.91-10.77,1.91h0c6.92-6.49,12.8-7.95,13.55,4.67C593.72,594.37,587.73,603.63,580.3,610Z"/><path class="cls-4" d="M608.53,426.86c-4.78,16.57-17.89,23.26-39.21,23.9-7.64.23-15.23-4.05-20.84-10.66-10.05-11.85-13.75-31.17,0-45.42a43.4,43.4,0,0,1,22-11.77,36.89,36.89,0,0,1,18.34,1.26C612.36,391.82,613.31,410.3,608.53,426.86Z"/><path class="cls-5" d="M548.48,440.1c-10.05-11.85-13.75-31.17,0-45.42a43.4,43.4,0,0,1,22-11.77C556.24,389.09,534.46,404.73,548.48,440.1Z"/><path class="cls-6" d="M574.9,422.22c1.26,1.73,3.78,1.9,5.66,1.24a3.36,3.36,0,0,0,1.65-1.25.3.3,0,0,1,.42-.08.31.31,0,0,1,.13.25,2.55,2.55,0,0,1-.46,1.37,4.86,4.86,0,0,1-7.55,0c-.24-.35-.86-1.61-.14-1.71a.34.34,0,0,1,.29.17Z"/><path class="cls-6" d="M585.1,416.38c.37-3.58,3.88-6.15,7.39-6.44a8.75,8.75,0,0,1,7.77,3.21,4.38,4.38,0,0,1,1,2.93,1.75,1.75,0,0,1-3,1,7.82,7.82,0,0,1-1.2-1.69,6.21,6.21,0,0,0-4.53-2.91,6.46,6.46,0,0,0-6.85,4,.28.28,0,0,1-.54-.12Z"/><path class="cls-6" d="M571.48,416.5a6.46,6.46,0,0,0-6.85-4,6.21,6.21,0,0,0-4.53,2.91c-.7,1.33-2,3.14-3.65,1.83-1.16-1.12-.42-3,.41-4.09a8.75,8.75,0,0,1,7.77-3.21c3.51.29,7,2.86,7.39,6.44a.28.28,0,0,1-.54.12Z"/><path class="cls-7" d="M585.19,383.19h0l-.82-.18a36.44,36.44,0,0,0-10.12-.6c-.36,0-.72.06-1.07.1-.09-5-.17-21.48,1.89-35.23h0c1.89-12.64,5.59-23,12.77-20.23,3.73,1.45,5.62,5.18,6.3,10.08C596.18,351.81,587.44,377,585.19,383.19Z"/><path class="cls-7" d="M611.52,380.06h0c-5.25,5.35-9.68,9.26-10.69,10.14l-.07.06a32.72,32.72,0,0,0-4.78-3.07h0c-1.1-.58-2.26-1.14-3.51-1.66l-1.7-1S600,366,610,352.67c7.58-10.07,15.64-17.25,20.59-11.46C638.18,350.05,622.92,368.44,611.52,380.06Z"/><path class="cls-7" d="M610,352.67c-4.33,16.48-14,34.53-14,34.53H596c-1.1-.58-2.26-1.14-3.51-1.66s-2.38-.93-3.68-1.35-2.4-.72-3.58-1h0l-.82-.18c.8-7.35,3.79-31.69,9.77-45.89,3.27-7.78,7.45-12.52,12.65-9.73C613.46,331,613,341.46,610,352.67Z"/><path class="cls-7" d="M624,390.71a181.49,181.49,0,0,1-17.35,5.94c-.16-.26-.33-.51-.5-.76a26.18,26.18,0,0,0-5.14-5.43h0l-.16-.26-1.13-1.71s5-3.86,11.82-8.43h0c13.54-9.09,34.22-21,36.89-10.81C650.67,377.87,636.63,385.61,624,390.71Z"/><path class="cls-7" d="M663.73,393.51c-.48,6.7-8.62,10.31-18.56,12.22h0c-12.74,2.45-28.42,2.08-34.64,1.8,0-.28-.07-.55-.12-.83a26,26,0,0,0-3.77-10.05c-.16-.26-.33-.51-.5-.76,2.69-.88,9.65-3.09,17.85-5.18C641.45,386.28,664.52,382.47,663.73,393.51Z"/><path class="cls-7" d="M663,437.05c-3.86,7-15.79,5.5-27.7,1.74a0,0,0,0,1,0,0,184.92,184.92,0,0,1-26.86-11.4l.15-.52c.1-.34.2-.69.29-1q.79-2.9,1.31-5.84c.27-1.57.46-3.14.58-4.7,7.93,1,34,4.51,46.42,11.26C662.44,429.45,665.22,432.93,663,437.05Z"/><path class="cls-7" d="M671.55,418.22c-1.58,5.18-7.17,7.57-14.42,8.32-16.11,1.68-40.41-4.71-47-6.56.27-1.57.46-3.14.58-4.7a36.39,36.39,0,0,0-.19-7.75c0-.28-.07-.55-.12-.83a274.19,274.19,0,0,1,34.76-1h0C660.5,406.5,674.19,409.53,671.55,418.22Z"/><path class="cls-7" d="M653.49,461.61c-2.82,2.82-7,3.05-11.7,1.71-13.76-3.9-32.5-21.05-38-26.33l.36-.52a32.88,32.88,0,0,0,4.26-9.09l.15-.52c.1-.34.2-.69.29-1a259.59,259.59,0,0,1,26.42,13,0,0,0,0,0,0,0C648.31,446.32,659.75,455.37,653.49,461.61Z"/><path class="cls-7" d="M621.51,496.09c-9.17,2.89-18.26-11.16-24.63-24.62h0A200.64,200.64,0,0,1,588,449.2l3.64-2.66.2-.08a32.2,32.2,0,0,0,4.71-2.57h0c.42-.27.82-.56,1.21-.85,1.89,2.25,8.86,10.72,15.35,20.27C622.49,477.1,630.85,493.15,621.51,496.09Z"/><path class="cls-7" d="M644.18,476.4c-7.29,5.88-20.35-3.21-31-13.09A198.88,198.88,0,0,1,595.87,445l.7-1.1h0c.42-.27.82-.56,1.21-.85a27,27,0,0,0,6-6.05l.36-.52c6.77,3.77,28.21,16.17,37.67,26.85C646.35,468.46,648.14,473.2,644.18,476.4Z"/><path class="cls-7" d="M590.16,505.05c-3.39-.5-5.83-2.93-7.56-6.53-6.33-13.14-3.17-41.84-2.29-48.76l.57-.09a47,47,0,0,0,10.78-3.13l.2-.08c.45,1.76,3.22,12.9,5,25h0C599.33,488.07,599.94,506.49,590.16,505.05Z"/><path class="cls-7" d="M582.6,498.52c-1.36,7.51-4.21,12.37-9.58,11-3.73-.92-6.1-4-7.54-8.34-4.81-14.57,1.08-43.17,2.72-50.46h1.12c1.73-.05,3.42-.14,5-.27h0c2.07-.17,4-.42,5.94-.73l.57-.09C581.87,456.46,585.4,483.08,582.6,498.52Z"/><path class="cls-7" d="M567.59,450.74c-1.33,4.8-7.76,27.22-15.69,41.51-5.06,9.09-10.71,14.88-16,10.74-7.52-5.85-2-20.57,5.16-33.62a205.56,205.56,0,0,1,14.81-22.74q.88.58,1.8,1.08a23.56,23.56,0,0,0,9.41,3Z"/><path class="cls-7" d="M578.89,451.37s-4.39,37.2-13.41,49.85c-2.61,3.66-5.6,5.26-9,3.34-3.78-2.16-5-6.71-4.59-12.31.93-14.4,12-35.77,15.13-41.55l.56,0,.61,0h1.12c1.73-.05,3.42-.14,5-.27h0Z"/><path class="cls-7" d="M557.62,447.71A264.64,264.64,0,0,1,541,469.37c-10.22,11.81-22.17,22.42-27.16,14.77-5.94-9.08,9.32-24,21.63-33.91h0c6.2-5,11.65-8.73,13.25-9.81l.6.67h0a33.41,33.41,0,0,0,6.47,5.55Q556.7,447.22,557.62,447.71Z"/><path class="cls-7" d="M540.33,409.29a31.4,31.4,0,0,0-.54,11.45c-9.8-.86-59.62-6-52.45-19.93,4.17-8.11,19.29-5.26,32.74-.71a195.46,195.46,0,0,1,20.45,8.38C540.46,408.75,540.39,409,540.33,409.29Z"/><path class="cls-7" d="M545.4,398.32c-.14.19-.27.38-.4.58a30.26,30.26,0,0,0-4.47,9.58c-.07.27-.14.54-.2.81-3.62-1.47-11.8-4.9-20.25-9.19-14.89-7.57-30.62-17.87-23.76-25,5-5.14,14.44-1.87,23.86,3.77h0C530.82,385.27,541.38,394.63,545.4,398.32Z"/><path class="cls-7" d="M553.23,390.59c-.21.15-.41.29-.6.44a34.7,34.7,0,0,0-4.16,3.65,35.27,35.27,0,0,0-3.07,3.64c-.14.19-.27.38-.4.58a244.41,244.41,0,0,1-24.81-20h0c-9.77-9.28-17-19.05-10.28-23.37,10.61-6.82,28.86,15,38.08,27.57v0C550.56,386.62,552.42,389.37,553.23,390.59Z"/><path class="cls-7" d="M563.35,385l-.89.37a44.39,44.39,0,0,0-9.23,5.26c-.21.15-.41.29-.6.44-.55-.89-2.32-3.81-4.64-7.9v0c-8.93-15.79-25.91-49.05-11.93-51.24,9.71-1.53,16.81,13.58,21.35,28.18A210.47,210.47,0,0,1,563.35,385Z"/><path class="cls-7" d="M549.44,441.23s-6,4.17-13.94,9h0c-15.37,9.27-38.23,20.91-40.63,9.72-2.09-9.75,14.29-17.65,28.63-22.63a203.62,203.62,0,0,1,19.59-5.62c.18.4.38.8.59,1.2a38.67,38.67,0,0,0,4.82,7.2l.27.31.6.67h0Z"/><path class="cls-7" d="M543.66,432.9c-1.23.32-9.8,2.54-20.18,4.42-18.58,3.39-43,5.73-41.35-5.75,2.32-16.44,48-11.91,57.67-10.76a36.48,36.48,0,0,0,3.27,10.89C543.25,432.1,543.45,432.5,543.66,432.9Z"/><ellipse class="cls-8" cx="559.07" cy="424.06" rx="3.36" ry="1.76"/><ellipse class="cls-8" cx="599.35" cy="424.06" rx="3.36" ry="1.76"/><path class="cls-7" d="M574.25,382.41c-.36,0-.72.06-1.07.1-.94.1-1.85.23-2.75.4a39.57,39.57,0,0,0-7.08,2l-.89.37c-.83-3.29-3.41-14-5.06-25.28-2.38-16.31-2.82-33.92,6.75-32.54,6.74,1,9.75,9.55,10.92,19.76h0C576.59,360.71,574.91,377,574.25,382.41Z"/><path class="cls-9" d="M575.07,347.27l.38-2.41s4.32,9.51,0,37.47l-1.2.08S578.23,369.24,575.07,347.27Z"/><path class="cls-9" d="M562.46,385.33l-.86.37s-3.21-7.64-5.07-28.36l1.11,4.29S560.53,378.26,562.46,385.33Z"/><path class="cls-9" d="M611.37,351s-3.9,15.16-14.15,36.93c-.71-.42-1.18-.68-1.18-.68s4.42-5.63,14-34.53Z"/><path class="cls-9" d="M594.14,337.12l.61-1.39s-3,31-8.07,47.87l-1.49-.41S589.26,372.44,594.14,337.12Z"/><path class="cls-9" d="M548,383.11l-1-1.37a52,52,0,0,0,5.25,9.67l.77-.64A35.16,35.16,0,0,1,548,383.11Z"/><path class="cls-9" d="M520.19,378.92l-1.52-1.47s11.6,6.41,26.88,20.57l-.55.88S530.51,385.92,520.19,378.92Z"/><path class="cls-9" d="M520.08,400.1l-2.53-.83s3,2.85,22.63,10.65l.15-.63S527,403.81,520.08,400.1Z"/><path class="cls-9" d="M530.86,420s6.89.59,8.93.79l.08.58a52.23,52.23,0,0,1-10.83-1.5Z"/><path class="cls-9" d="M523.14,437.39a171,171,0,0,0,20.52-4.49l.36.67s-8.75,3.86-23.17,4.69Z"/><path class="cls-9" d="M549.35,441.08a80.36,80.36,0,0,0-13.87,9.15l-2.72,1.62a126.55,126.55,0,0,1,15.85-11.6Z"/><path class="cls-9" d="M541,469.37s14.86-17.91,16.61-21.66l1.2.63s-12,16.1-18.94,23.12Z"/><path class="cls-9" d="M567.59,450.74s-13.34,23.39-15.69,41.51c-.8,1.42-1,1.76-1,1.76s2.47-20.4,15.85-43.34Z"/><path class="cls-9" d="M565.48,501.22s12.16-20.16,12.24-51.08l.49-.07s.87,27.52-12.55,51.73A3,3,0,0,1,565.48,501.22Z"/><path class="cls-9" d="M582.6,498.52s-6.25-17-6-29.17l-.3,1.73s-.56,7.1,6.18,28.26Z"/><path class="cls-9" d="M591.86,446.46s2.68,10.32,5,25l.35.72a232.36,232.36,0,0,0-4.9-25.94Z"/><path class="cls-9" d="M613.13,463.31s-12.5-12.08-16.56-19.42l-.47.32s4.09,7.12,18.81,21.78Z"/><path class="cls-9" d="M604.12,436.47s27.59,14.9,37.67,26.85c.94.24-6.89-10.05-37.24-27.49Z"/><path class="cls-9" d="M635.25,438.79a201.2,201.2,0,0,1-26.43-13l-.2.71A183.34,183.34,0,0,0,637,439.82Z"/><path class="cls-9" d="M610.71,415.28s31.35,2.66,46.42,11.26l1.17-.14s-15.65-8.55-47.54-12Z"/><path class="cls-9" d="M611.52,380.06a39.69,39.69,0,0,1-10.36,10.54c.6.51.36.29.36.29s7.41-5.69,11.49-11.82Z"/><path class="cls-9" d="M626.33,389.74s-11.82,3.05-19,8l.22.39s9.4-5.58,16.47-7.41Z"/><path class="cls-9" d="M610.52,407.53s10.17.64,34.64-1.8l1.4.08s-9.94,2.11-35.93,2.62Z"/><path class="cls-1" d="M338.35,429.16c-14.74,56.17-8,166.74-4.37,212.63,1,12.93,1.82,20.73,1.82,20.73h-23s-3.58-146,9.19-199.15,22.93-191.79,22.93-191.79l8.74-4.73,3.52-1.91S357.24,357.16,338.35,429.16Z"/><path class="cls-2" d="M338.35,429.16c-14.74,56.17-8,166.74-4.37,212.63l-5.48,3.11s-10.83-155.4,4.65-207.31c20.07-78.15,22-147.95,20.53-164.49l3.52-1.91S357.24,357.16,338.35,429.16Z"/><path class="cls-1" d="M334.78,402.18s-1.86-.76-4.72-2.26c-10.79-5.64-35.89-21.8-30.11-47.52,1.09-4.85,2.6-7.48,4.39-8.44,10.2-5.49,29.27,43.34,29.27,43.34Z"/><path class="cls-3" d="M371.16,525.54l1.94-2A27.27,27.27,0,0,1,371.16,525.54Z"/><path class="cls-1" d="M373.15,400.41C357.94,407.86,341,407.3,341,407.3l3.89-14.8s21.78-21.6,37-29.9c9.69-5.27,16.73-5.18,13.87,9.22C392.83,386.73,383.38,395.39,373.15,400.41Z"/><path class="cls-2" d="M373.15,400.41c11.53-9.25,22.43-22.46,21.45-36.79-.44-6.31-12.68-1-12.68-1h0c9.69-5.27,16.73-5.18,13.87,9.22C392.83,386.73,383.38,395.39,373.15,400.41Z"/><path class="cls-10" d="M516.73,144.92c-2.65,3.09-8.08,5.16-6.23,6.66s5.48,6.36,3.76,7.51-6.58,5.83-6.76,5.83a28.84,28.84,0,0,0-1.9,3s8.13,9.8,5.3,10.73-1.9,6.8-3.4,7.55,1.77,8.08-3.18,6.75,2.61,5.74-.17,7.42-4.07,11.74-6,10.42c-1-.68-3.14-.22-5,.38a3.89,3.89,0,0,0-2.57,4.5c.87,4.22,1.89,11.14-.65,11.41a39.21,39.21,0,0,1-5.17.19,3.88,3.88,0,0,0-3.94,4.24c.32,3.58.39,7.93-1.31,7.4a21.48,21.48,0,0,0-6.35-.24,3.89,3.89,0,0,0-3.5,2.9c-.68,2.63-1.78,6.39-2.68,6.93s-3.79,1.11-6.08,1.52a3.88,3.88,0,0,0-3.17,3.19c-.31,1.87-.88,4.21-1.88,5.31-1.86,2-2.39,2.69-4.81,3.66-1.27.52-3.81.49-5.92.34a3.89,3.89,0,0,0-4,2.69c-.28.88-.68,1.61-1.24,1.61-1.41,0-6.89,7.2-8.88,6.49s-10.42,3.93-11.83,3a16.61,16.61,0,0,0-3.71-1.68s-10.9,12.85-14.83,11.17c-2.79-1.18-7-3.14-9.22-4.2a3.78,3.78,0,0,0-3.14-.07c-4.48,1.88-16.89,7-16.56,5.77.35-1.5-3.23.18-5.08-.75s-3.4-4.33-3.4-4.33-10.51,6.76-13.16,5.26-4.68-5.08-6.18-5.26-2.52-3-2.52-3-2.73,4-5.74,3-7.33,1.51-9.4,0-6-4.32-7-6.57-7.68,3.31-9.75.48-15-4.81-12.5-8.34,1.59-6,1.59-6-6.27,3.75-10,1.72c-2.14-1.17-3-4.49-3.33-7.16a3.86,3.86,0,0,0-3.94-3.34A7.6,7.6,0,0,1,277,252c-2.34-1.68-8.26-3-8.92-4.68s-4.24-5.65-3.89-7.51-.66-8.61-.66-8.61-2.87,4.9-5.69,2.34c-1.92-1.71-2.7-7.85-3-11.6a3.9,3.9,0,0,0-3-3.45c-1-.26-1.86-.63-1.49-1.15.84-1.11-.22-6-.22-6s-11.48,4.55-11.34-2.48-4.11-12.71-3.23-12.71.4-8.17,1.55-9.27,1-4,1-4-10.55-4.06-9.58-6.88c.62-1.82,3.19-7.13,4.94-10.69a3.91,3.91,0,0,0-1.55-5.09c-2.54-1.48-5.6-3.7-5.36-5.69s3.29-4.84,5.62-6.69a3.89,3.89,0,0,0,.92-5c-1.71-2.85-4.18-6.79-5.23-7.61-3.48-2.73,1-9.81,1.37-10.62,1.54-3.66,7.32-4.24,7.32-4.24s-5.33-4.57-4.09-7.22c1-2.13,1.08-10.43,3.2-10.43s5.13-2,5.13-2-4-6.66-2.78-7.63S240.1,81,243.06,79.8s8.51-4.43,9.39-4.7,1.69-1.88,1.69-1.88l.47-3.47s-15.38-13-5-14.77A55,55,0,0,1,260,54.25a3.86,3.86,0,0,0,3.76-5.07c-.86-2.68-1-5.5,1.36-6.57,3.22-1.43,8.78-1.88,12.41-2a3.88,3.88,0,0,0,3.71-3.54c.35-4.23,1.39-10.83,4.45-10.83a19.64,19.64,0,0,1,5.35.95,3.92,3.92,0,0,0,5-3.86c-.07-5.4.5-12.27,4-10.33,1.93,1.07,3.93,2.3,5.72,3.45a3.88,3.88,0,0,0,6-3.14c.15-5.75,1.16-12.4,5.2-9.89,6.76,4.24,10.73,3.13,13.25,4.24A35.3,35.3,0,0,1,334,9.72a3.89,3.89,0,0,0,5.14-.92c2.31-3,6.05-7,8.6-5.92a17.23,17.23,0,0,1,4.92,3.41,3.84,3.84,0,0,0,4.76.39c3.1-2,8.11-5,10.9-5.22,2.19-.16,4.08,1.54,5.39,3.22a3.93,3.93,0,0,0,5.19,1c3.92-2.45,10.26-5.89,12.51-4.17a21.66,21.66,0,0,1,4.34,4.94,3.74,3.74,0,0,0,4.5,1.5,7.47,7.47,0,0,1,4.41-.25,13.75,13.75,0,0,1,8.25,5.47,3.78,3.78,0,0,0,3.29,1.48c3.53-.23,10.27-.58,12.7-.2,3.39.57,8.74-.84,9.05,1.15.12.94.37,3.34.61,5.61a3.89,3.89,0,0,0,5.09,3.31c3.32-1.07,7.23-2,7.23-.75,0,2.25-.84,7.33,2,7.33s13.25-1.15,11.26.57-3.44,9,.26,9,9.89-1.15,9.32,2c-.4,2.16-.22,7.18-.08,10a3.89,3.89,0,0,0,1.84,3.11c2.19,1.36,5.75,3.73,6.14,4.88a25,25,0,0,1,.78,3.37,3.86,3.86,0,0,0,2.47,3c3.3,1.21,9.36,3.82,9.87,6.79a24.53,24.53,0,0,1-.59,8.19,3.88,3.88,0,0,0,1.53,4c2.93,2.13,7.8,6.07,7.49,8.55A10.41,10.41,0,0,1,502,98a4,4,0,0,0,.85,4.83c2.05,1.79,4.54,4.27,4.62,5.88s-.85,4.38-1.64,6.41a3.81,3.81,0,0,0,.77,4.07,20.78,20.78,0,0,1,4.8,8.19,7.17,7.17,0,0,1-.07,5.54,3.79,3.79,0,0,0,2.12,5c1.33.59,2.31,1.28,2.1,2C515,142,519.33,141.78,516.73,144.92Z"/><path class="cls-11" d="M283.64,71.72l3.77,3.77A7.67,7.67,0,0,0,296.15,77l3-1.44"/><path class="cls-11" d="M279.7,125.21l5.32.22a7.66,7.66,0,0,0,7.43-4.84l1.23-3.09"/><path class="cls-11" d="M267.93,192.21l4.84-2.21a7.65,7.65,0,0,0,4.45-7.67l-.3-3.31"/><path class="cls-11" d="M338.54,47.5l5.23-1a7.65,7.65,0,0,0,6.17-6.37l.5-3.28"/><path class="cls-11" d="M394.46,23.5l4.77,2.37A7.67,7.67,0,0,0,408,24.5l2.38-2.33"/><path class="cls-11" d="M421.88,59.27l3.43,4.07a7.65,7.65,0,0,0,8.59,2.21l3.1-1.18"/><path class="cls-11" d="M471.4,104.12l-1.09,5.21a7.66,7.66,0,0,0,3.56,8.12l2.85,1.71"/><path class="cls-11" d="M425.67,138.3l3.76,3.76a7.67,7.67,0,0,0,8.75,1.49l3-1.45"/><path class="cls-11" d="M366.31,98.58l5,1.94a7.67,7.67,0,0,0,8.6-2.15L382,95.85"/><path class="cls-11" d="M324,154.66l3.44-4.06a7.66,7.66,0,0,0,.77-8.84l-1.68-2.86"/><path class="cls-11" d="M355.14,162.32l2.16,4.86a7.65,7.65,0,0,0,7.63,4.53l3.31-.27"/><path class="cls-11" d="M356.45,213.61l-3.76,3.77a7.67,7.67,0,0,0-1.49,8.74l1.45,3"/><path class="cls-11" d="M361.1,263.14l-5.32-.09a7.66,7.66,0,0,0-7.31,5l-1.14,3.12"/><path class="cls-11" d="M433.93,244.62l-4.76,2.4a7.65,7.65,0,0,0-4.15,7.83l.43,3.3"/><path class="cls-11" d="M404.19,200.69l4.56,2.74a7.66,7.66,0,0,0,8.84-.69l2.56-2.12"/><path class="cls-11" d="M461.23,170.26l1.86,5a7.65,7.65,0,0,0,7.32,5l3.33-.07"/><path class="cls-11" d="M477,208.23l-5.31.49a7.65,7.65,0,0,0-6.72,5.78l-.8,3.23"/><path class="cls-11" d="M312,226.3l-5-1.91a7.66,7.66,0,0,0-8.59,2.19l-2.15,2.54"/><path class="cls-11" d="M248.4,148.54l.58-5.3a7.67,7.67,0,0,0-4.33-7.74l-3-1.43"/><path class="cls-6" d="M367,168.26c2,.94,5,.88,7.37,1s5.36,0,7.44-.92c.48-.39,1.16-.11,1,.54-2,5.16-14.91,5.19-17,0a.63.63,0,0,1,.91-.73l.24.13Z"/><circle class="cls-6" cx="348.08" cy="147.93" r="9.08"/><circle class="cls-12" cx="341.53" cy="143.26" r="2.53"/><circle class="cls-12" cx="344.61" cy="147.38" r="0.95"/><circle class="cls-6" cx="400.47" cy="147.93" r="9.08"/><circle class="cls-12" cx="407.02" cy="143.26" r="2.53"/><circle class="cls-12" cx="403.94" cy="147.38" r="0.95"/><ellipse class="cls-8" cx="335.18" cy="169.7" rx="6.78" ry="3.54"/><ellipse class="cls-8" cx="416.32" cy="169.7" rx="6.78" ry="3.54"/><path class="cls-13" d="M544.06,703.58h0c-190.19.86-544-3.82-544-3.82l25.06-8.18S96.24,648,126.31,650.08s36.11-12.94,49.12-8.18,55.16-2.56,63.17-.94c4.6.92,22.38-2.58,41-3.84,13.9-1,28.27-.7,37.84,3.6,22.41,10,45.71-9.32,62.14-4.06s112.67,1.16,114.68,9.32,89.23,28.59,103.25,38.12,56.16,6.8,64.17,15.66C663.86,702.18,615.53,703.26,544.06,703.58Z"/><path class="cls-14" d="M544.06,703.58h0s-27.83-16.08-31.6-17.1-48.51-34.7-56-28.59-77.07-11-82.34-15.87-36.07,14.33-48.5,4.9-46-9.8-46-9.8c13.9-1,28.27-.7,37.84,3.6,22.41,10,45.71-9.32,62.14-4.06s112.67,1.16,114.68,9.32,89.23,28.59,103.25,38.12,56.16,6.8,64.17,15.66C663.86,702.18,615.53,703.26,544.06,703.58Z"/></g></g></svg>