<svg xmlns="http://www.w3.org/2000/svg" xmlns:xlink="http://www.w3.org/1999/xlink" viewBox="0 0 679.21 755.75"><defs><style>.cls-1{fill:#5aba97;}.cls-2{fill:#63c6a0;}.cls-3{fill:#ffcd50;}.cls-4{fill:#ffc033;}.cls-5{fill:#302826;}.cls-6{fill:url(#Dégradé_sans_nom_19);}.cls-7{fill:url(#Dégradé_sans_nom_19-2);}.cls-8{fill:url(#Dégradé_sans_nom_19-3);}.cls-9{fill:url(#Dégradé_sans_nom_19-4);}.cls-10{fill:url(#Dégradé_sans_nom_19-5);}.cls-11{fill:url(#Dégradé_sans_nom_19-6);}.cls-12{fill:url(#Dégradé_sans_nom_19-7);}.cls-13{fill:url(#Dégradé_sans_nom_19-8);}.cls-14{fill:url(#Dégradé_sans_nom_19-9);}.cls-15{fill:url(#Dégradé_sans_nom_19-10);}.cls-16{fill:url(#Dégradé_sans_nom_19-11);}.cls-17{fill:url(#Dégradé_sans_nom_19-12);}.cls-18{fill:url(#Dégradé_sans_nom_19-13);}.cls-19{fill:url(#Dégradé_sans_nom_19-14);}.cls-20{fill:url(#Dégradé_sans_nom_19-15);}.cls-21{fill:url(#Dégradé_sans_nom_19-16);}.cls-22{fill:url(#Dégradé_sans_nom_19-17);}.cls-23{fill:url(#Dégradé_sans_nom_19-18);}.cls-24{fill:url(#Dégradé_sans_nom_19-19);}.cls-25{fill:url(#Dégradé_sans_nom_19-20);}.cls-26{fill:url(#Dégradé_sans_nom_19-21);}.cls-27{fill:#ff6e79;opacity:0.35;}.cls-28{fill:url(#Dégradé_sans_nom_19-22);}.cls-29{opacity:0.03;}.cls-30{fill:#efefef;}.cls-31{fill:url(#Dégradé_sans_nom_19-23);}.cls-32{fill:url(#Dégradé_sans_nom_19-24);}.cls-33{fill:url(#Dégradé_sans_nom_19-25);}.cls-34{fill:url(#Dégradé_sans_nom_19-26);}.cls-35{fill:url(#Dégradé_sans_nom_19-27);}.cls-36{fill:url(#Dégradé_sans_nom_19-28);}.cls-37{fill:url(#Dégradé_sans_nom_19-29);}.cls-38{fill:url(#Dégradé_sans_nom_19-30);}.cls-39{fill:url(#Dégradé_sans_nom_19-31);}.cls-40{fill:url(#Dégradé_sans_nom_19-32);}.cls-41{fill:url(#Dégradé_sans_nom_19-33);}.cls-42{fill:url(#Dégradé_sans_nom_19-34);}.cls-43{fill:url(#Dégradé_sans_nom_19-35);}.cls-44{fill:url(#Dégradé_sans_nom_19-36);}.cls-45{fill:url(#Dégradé_sans_nom_19-37);}.cls-46{fill:url(#Dégradé_sans_nom_19-38);}.cls-47{fill:url(#Dégradé_sans_nom_19-39);}.cls-48{fill:url(#Dégradé_sans_nom_19-40);}.cls-49{fill:url(#Dégradé_sans_nom_19-41);}.cls-50{fill:url(#Dégradé_sans_nom_19-42);}.cls-51{fill:url(#Dégradé_sans_nom_19-43);}.cls-52{fill:url(#Dégradé_sans_nom_19-44);}.cls-53{fill:url(#Dégradé_sans_nom_19-45);}.cls-54{fill:url(#Dégradé_sans_nom_19-46);}.cls-55{fill:url(#Dégradé_sans_nom_19-47);}.cls-56{fill:url(#Dégradé_sans_nom_19-48);}.cls-57{fill:url(#Dégradé_sans_nom_19-49);}.cls-58{fill:url(#Dégradé_sans_nom_19-50);}.cls-59{fill:url(#Dégradé_sans_nom_19-51);}.cls-60{fill:url(#Dégradé_sans_nom_19-52);}.cls-61{fill:url(#Dégradé_sans_nom_19-53);}.cls-62{fill:url(#Dégradé_sans_nom_19-54);}.cls-63{fill:url(#Dégradé_sans_nom_19-55);}.cls-64{fill:url(#Dégradé_sans_nom_19-56);}.cls-65{fill:url(#Dégradé_sans_nom_19-57);}.cls-66{fill:url(#Dégradé_sans_nom_19-58);}.cls-67{fill:url(#Dégradé_sans_nom_19-59);}.cls-68{fill:url(#Dégradé_sans_nom_19-60);}.cls-69{fill:url(#Dégradé_sans_nom_19-61);}.cls-70{fill:url(#Dégradé_sans_nom_19-62);}.cls-71{fill:url(#Dégradé_sans_nom_19-63);}.cls-72{fill:url(#Dégradé_sans_nom_19-64);}.cls-73{fill:url(#Dégradé_sans_nom_19-65);}.cls-74{fill:url(#Dégradé_sans_nom_19-66);}.cls-75{fill:#4f2f2f;}.cls-76{fill:#593636;}</style><linearGradient id="Dégradé_sans_nom_19" x1="173.21" y1="346.43" x2="164.04" y2="410.08" gradientUnits="userSpaceOnUse"><stop offset="0" stop-color="#cc275a"/><stop offset="0.02" stop-color="#cf3968"/><stop offset="0.06" stop-color="#d76287"/><stop offset="0.11" stop-color="#de88a4"/><stop offset="0.17" stop-color="#e5a8bd"/><stop offset="0.23" stop-color="#eac4d2"/><stop offset="0.3" stop-color="#eedae2"/><stop offset="0.38" stop-color="#f1ebef"/><stop offset="0.48" stop-color="#f3f6f8"/><stop offset="0.61" stop-color="#f5fdfe"/><stop offset="1" stop-color="#f5ffff"/></linearGradient><linearGradient id="Dégradé_sans_nom_19-2" x1="223.38" y1="357.84" x2="178.34" y2="416.9" xlink:href="#Dégradé_sans_nom_19"/><linearGradient id="Dégradé_sans_nom_19-3" x1="196.03" y1="343.97" x2="172.57" y2="415.97" xlink:href="#Dégradé_sans_nom_19"/><linearGradient id="Dégradé_sans_nom_19-4" x1="239.8" y1="392.31" x2="193.41" y2="416.58" xlink:href="#Dégradé_sans_nom_19"/><linearGradient id="Dégradé_sans_nom_19-5" x1="263.19" y1="418.97" x2="182.28" y2="428.68" xlink:href="#Dégradé_sans_nom_19"/><linearGradient id="Dégradé_sans_nom_19-6" x1="258.23" y1="469.17" x2="191.35" y2="445.17" xlink:href="#Dégradé_sans_nom_19"/><linearGradient id="Dégradé_sans_nom_19-7" x1="276.03" y1="447.12" x2="184.34" y2="439.3" xlink:href="#Dégradé_sans_nom_19"/><linearGradient id="Dégradé_sans_nom_19-8" x1="249.68" y1="495.08" x2="191.16" y2="460.02" xlink:href="#Dégradé_sans_nom_19"/><linearGradient id="Dégradé_sans_nom_19-9" x1="211.42" y1="533.24" x2="177.98" y2="474.18" xlink:href="#Dégradé_sans_nom_19"/><linearGradient id="Dégradé_sans_nom_19-10" x1="238.55" y1="513.46" x2="187.04" y2="469.23" xlink:href="#Dégradé_sans_nom_19"/><linearGradient id="Dégradé_sans_nom_19-11" x1="176.66" y1="544.35" x2="170.73" y2="478.01" xlink:href="#Dégradé_sans_nom_19"/><linearGradient id="Dégradé_sans_nom_19-12" x1="156.71" y1="549.85" x2="159.68" y2="477.58" xlink:href="#Dégradé_sans_nom_19"/><linearGradient id="Dégradé_sans_nom_19-13" x1="113.58" y1="544.14" x2="147.29" y2="475.1" xlink:href="#Dégradé_sans_nom_19"/><linearGradient id="Dégradé_sans_nom_19-14" x1="138.24" y1="542.57" x2="157.66" y2="480.28" xlink:href="#Dégradé_sans_nom_19"/><linearGradient id="Dégradé_sans_nom_19-15" x1="89.17" y1="520.39" x2="139.06" y2="471.58" xlink:href="#Dégradé_sans_nom_19"/><linearGradient id="Dégradé_sans_nom_19-16" x1="61.73" y1="423.92" x2="126.46" y2="446.04" xlink:href="#Dégradé_sans_nom_19"/><linearGradient id="Dégradé_sans_nom_19-17" x1="73.26" y1="398.1" x2="125.04" y2="430.73" xlink:href="#Dégradé_sans_nom_19"/><linearGradient id="Dégradé_sans_nom_19-18" x1="87.89" y1="375.91" x2="133.73" y2="423.65" xlink:href="#Dégradé_sans_nom_19"/><linearGradient id="Dégradé_sans_nom_19-19" x1="116.73" y1="351.56" x2="141.72" y2="413.22" xlink:href="#Dégradé_sans_nom_19"/><linearGradient id="Dégradé_sans_nom_19-20" x1="68.92" y1="493.92" x2="129.87" y2="463.18" xlink:href="#Dégradé_sans_nom_19"/><linearGradient id="Dégradé_sans_nom_19-21" x1="56" y1="462.28" x2="123.69" y2="452.84" xlink:href="#Dégradé_sans_nom_19"/><linearGradient id="Dégradé_sans_nom_19-22" x1="146.85" y1="344.68" x2="153.5" y2="411.74" xlink:href="#Dégradé_sans_nom_19"/><linearGradient id="Dégradé_sans_nom_19-23" x1="589.86" y1="370.64" x2="580.69" y2="434.29" xlink:href="#Dégradé_sans_nom_19"/><linearGradient id="Dégradé_sans_nom_19-24" x1="640.02" y1="382.05" x2="594.99" y2="441.11" xlink:href="#Dégradé_sans_nom_19"/><linearGradient id="Dégradé_sans_nom_19-25" x1="612.68" y1="368.18" x2="589.22" y2="440.18" xlink:href="#Dégradé_sans_nom_19"/><linearGradient id="Dégradé_sans_nom_19-26" x1="656.45" y1="416.52" x2="610.06" y2="440.79" xlink:href="#Dégradé_sans_nom_19"/><linearGradient id="Dégradé_sans_nom_19-27" x1="679.83" y1="443.18" x2="598.93" y2="452.89" xlink:href="#Dégradé_sans_nom_19"/><linearGradient id="Dégradé_sans_nom_19-28" x1="674.87" y1="493.38" x2="608" y2="469.38" xlink:href="#Dégradé_sans_nom_19"/><linearGradient id="Dégradé_sans_nom_19-29" x1="692.68" y1="471.33" x2="600.99" y2="463.51" xlink:href="#Dégradé_sans_nom_19"/><linearGradient id="Dégradé_sans_nom_19-30" x1="666.33" y1="519.29" x2="607.81" y2="484.23" xlink:href="#Dégradé_sans_nom_19"/><linearGradient id="Dégradé_sans_nom_19-31" x1="628.06" y1="557.45" x2="594.62" y2="498.39" xlink:href="#Dégradé_sans_nom_19"/><linearGradient id="Dégradé_sans_nom_19-32" x1="655.2" y1="537.67" x2="603.69" y2="493.44" xlink:href="#Dégradé_sans_nom_19"/><linearGradient id="Dégradé_sans_nom_19-33" x1="593.31" y1="568.56" x2="587.38" y2="502.22" xlink:href="#Dégradé_sans_nom_19"/><linearGradient id="Dégradé_sans_nom_19-34" x1="573.36" y1="574.06" x2="576.33" y2="501.79" xlink:href="#Dégradé_sans_nom_19"/><linearGradient id="Dégradé_sans_nom_19-35" x1="530.23" y1="568.35" x2="563.93" y2="499.31" xlink:href="#Dégradé_sans_nom_19"/><linearGradient id="Dégradé_sans_nom_19-36" x1="554.89" y1="566.78" x2="574.31" y2="504.49" xlink:href="#Dégradé_sans_nom_19"/><linearGradient id="Dégradé_sans_nom_19-37" x1="505.82" y1="544.6" x2="555.71" y2="495.79" xlink:href="#Dégradé_sans_nom_19"/><linearGradient id="Dégradé_sans_nom_19-38" x1="478.38" y1="448.14" x2="543.1" y2="470.25" xlink:href="#Dégradé_sans_nom_19"/><linearGradient id="Dégradé_sans_nom_19-39" x1="489.91" y1="422.31" x2="541.69" y2="454.94" xlink:href="#Dégradé_sans_nom_19"/><linearGradient id="Dégradé_sans_nom_19-40" x1="504.53" y1="400.13" x2="550.38" y2="447.86" xlink:href="#Dégradé_sans_nom_19"/><linearGradient id="Dégradé_sans_nom_19-41" x1="533.37" y1="375.77" x2="558.36" y2="437.43" xlink:href="#Dégradé_sans_nom_19"/><linearGradient id="Dégradé_sans_nom_19-42" x1="485.57" y1="518.13" x2="546.52" y2="487.39" xlink:href="#Dégradé_sans_nom_19"/><linearGradient id="Dégradé_sans_nom_19-43" x1="472.65" y1="486.49" x2="540.34" y2="477.05" xlink:href="#Dégradé_sans_nom_19"/><linearGradient id="Dégradé_sans_nom_19-44" x1="563.5" y1="368.89" x2="570.15" y2="435.95" xlink:href="#Dégradé_sans_nom_19"/><linearGradient id="Dégradé_sans_nom_19-45" x1="400.57" y1="-3.51" x2="383.21" y2="117.01" xlink:href="#Dégradé_sans_nom_19"/><linearGradient id="Dégradé_sans_nom_19-46" x1="495.56" y1="18.1" x2="410.28" y2="129.93" xlink:href="#Dégradé_sans_nom_19"/><linearGradient id="Dégradé_sans_nom_19-47" x1="443.78" y1="-8.17" x2="399.35" y2="128.17" xlink:href="#Dégradé_sans_nom_19"/><linearGradient id="Dégradé_sans_nom_19-48" x1="526.65" y1="83.37" x2="438.82" y2="129.33" xlink:href="#Dégradé_sans_nom_19"/><linearGradient id="Dégradé_sans_nom_19-49" x1="570.93" y1="133.85" x2="417.74" y2="152.24" xlink:href="#Dégradé_sans_nom_19"/><linearGradient id="Dégradé_sans_nom_19-50" x1="561.55" y1="228.9" x2="434.91" y2="183.45" xlink:href="#Dégradé_sans_nom_19"/><linearGradient id="Dégradé_sans_nom_19-51" x1="595.26" y1="187.15" x2="421.64" y2="172.34" xlink:href="#Dégradé_sans_nom_19"/><linearGradient id="Dégradé_sans_nom_19-52" x1="545.37" y1="277.96" x2="434.56" y2="211.58" xlink:href="#Dégradé_sans_nom_19"/><linearGradient id="Dégradé_sans_nom_19-53" x1="472.91" y1="350.22" x2="409.59" y2="238.39" xlink:href="#Dégradé_sans_nom_19"/><linearGradient id="Dégradé_sans_nom_19-54" x1="524.29" y1="312.76" x2="426.76" y2="229.01" xlink:href="#Dégradé_sans_nom_19"/><linearGradient id="Dégradé_sans_nom_19-55" x1="407.1" y1="371.25" x2="395.86" y2="245.64" xlink:href="#Dégradé_sans_nom_19"/><linearGradient id="Dégradé_sans_nom_19-56" x1="369.33" y1="381.68" x2="374.95" y2="244.83" xlink:href="#Dégradé_sans_nom_19"/><linearGradient id="Dégradé_sans_nom_19-57" x1="287.65" y1="370.86" x2="351.48" y2="240.14" xlink:href="#Dégradé_sans_nom_19"/><linearGradient id="Dégradé_sans_nom_19-58" x1="334.35" y1="367.89" x2="371.12" y2="249.94" xlink:href="#Dégradé_sans_nom_19"/><linearGradient id="Dégradé_sans_nom_19-59" x1="241.43" y1="325.89" x2="335.9" y2="233.46" xlink:href="#Dégradé_sans_nom_19"/><linearGradient id="Dégradé_sans_nom_19-60" x1="189.48" y1="143.23" x2="312.04" y2="185.1" xlink:href="#Dégradé_sans_nom_19"/><linearGradient id="Dégradé_sans_nom_19-61" x1="211.31" y1="94.33" x2="309.36" y2="156.12" xlink:href="#Dégradé_sans_nom_19"/><linearGradient id="Dégradé_sans_nom_19-62" x1="239" y1="52.32" x2="325.81" y2="142.7" xlink:href="#Dégradé_sans_nom_19"/><linearGradient id="Dégradé_sans_nom_19-63" x1="293.61" y1="6.2" x2="340.93" y2="122.96" xlink:href="#Dégradé_sans_nom_19"/><linearGradient id="Dégradé_sans_nom_19-64" x1="203.09" y1="275.77" x2="318.5" y2="217.56" xlink:href="#Dégradé_sans_nom_19"/><linearGradient id="Dégradé_sans_nom_19-65" x1="178.63" y1="215.85" x2="306.8" y2="197.98" xlink:href="#Dégradé_sans_nom_19"/><linearGradient id="Dégradé_sans_nom_19-66" x1="350.65" y1="-6.82" x2="363.25" y2="120.16" xlink:href="#Dégradé_sans_nom_19"/></defs><g id="Calque_2" data-name="Calque 2"><g id="Calque_1-2" data-name="Calque 1"><path class="cls-1" d="M144.21,603.75c-7.78,29.67-4.24,88.06-2.3,112.3.54,6.83,1,11,1,11H130.73s-1.89-77.13,4.86-105.18S145.83,535,145.83,535l4.62-2.5,1.86-1A261.75,261.75,0,0,1,144.21,603.75Z"/><path class="cls-2" d="M144.21,603.75c-7.78,29.67-4.24,88.06-2.3,112.3l-2.9,1.64s-5.72-82.07,2.46-109.48c10.6-41.28,9.76-67,9-75.72l1.86-1A261.75,261.75,0,0,1,144.21,603.75Z"/><path class="cls-1" d="M145.15,570.63s-1.41-.58-3.57-1.71c-8.15-4.27-27.12-16.47-22.75-35.91.83-3.66,2-5.65,3.32-6.38,7.71-4.14,22.11,32.75,22.11,32.75Z"/><path class="cls-1" d="M154.82,630.05A40.46,40.46,0,0,1,139,637.19l.35-8.07s8.84-13.58,15.77-19.57c4.42-3.8,8.06-4.54,8.19,3.21C163.45,620.79,159.54,626.31,154.82,630.05Z"/><path class="cls-2" d="M154.82,630.05c4.92-6.06,9.07-14.1,7-21.39-.93-3.2-6.66.9-6.66.9h0c4.42-3.8,8.06-4.54,8.19,3.21C163.45,620.79,159.54,626.31,154.82,630.05Z"/><path class="cls-3" d="M195.16,455c-5.08,17.63-19,24.75-41.72,25.43-8.13.24-16.2-4.31-22.17-11.35-10.69-12.6-14.63-33.16,0-48.32a46.27,46.27,0,0,1,23.38-12.52,39.27,39.27,0,0,1,19.51,1.33C199.23,417.69,200.25,437.35,195.16,455Z"/><path class="cls-4" d="M131.27,469.06c-10.69-12.6-14.63-33.16,0-48.32a46.27,46.27,0,0,1,23.38-12.52C139.53,414.79,116.35,431.43,131.27,469.06Z"/><path class="cls-5" d="M159.38,450c1.34,1.84,4,2,6,1.33a3.71,3.71,0,0,0,1.76-1.34.31.31,0,0,1,.44-.08.31.31,0,0,1,.14.26,2.79,2.79,0,0,1-.48,1.46,5.17,5.17,0,0,1-8,0c-.26-.38-.91-1.72-.15-1.82a.37.37,0,0,1,.31.18Z"/><path class="cls-6" d="M170.33,408.51h0l-.87-.19a38.79,38.79,0,0,0-10.76-.64c-.39,0-.77.06-1.14.11-.09-5.37-.18-22.85,2-37.49h0c2-13.44,5.95-24.48,13.58-21.52,4,1.54,6,5.51,6.71,10.73C182,375.12,172.72,401.94,170.33,408.51Z"/><path class="cls-7" d="M198.34,405.18h0C192.75,410.87,188,415,187,416l-.08.07a34.4,34.4,0,0,0-5.08-3.27h0c-1.17-.62-2.41-1.21-3.73-1.76l-1.81-1.09s9.81-19.65,20.51-33.87c8.07-10.72,16.64-18.36,21.91-12.19C226.71,373.25,210.47,392.82,198.34,405.18Z"/><path class="cls-8" d="M196.76,376c-4.61,17.53-14.86,36.74-14.86,36.74h-.11c-1.17-.62-2.41-1.21-3.73-1.76s-2.54-1-3.92-1.45-2.56-.76-3.81-1h0l-.87-.19c.85-7.82,4-33.72,10.4-48.82,3.48-8.29,7.93-13.33,13.46-10.36C200.41,353,199.89,364.11,196.76,376Z"/><path class="cls-9" d="M211.6,416.52c-8,3.22-15.43,5.45-18.46,6.32-.17-.28-.35-.55-.53-.81a27.73,27.73,0,0,0-5.47-5.78h0L187,416l-1.2-1.82s5.33-4.1,12.58-9h0c14.41-9.67,36.41-22.3,39.25-11.5C240,402.85,225.06,411.09,211.6,416.52Z"/><path class="cls-10" d="M253.89,419.49c-.51,7.13-9.17,11-19.74,13h0c-13.56,2.61-30.24,2.22-36.85,1.92,0-.29-.09-.59-.14-.88a27.48,27.48,0,0,0-4-10.69c-.17-.28-.35-.55-.53-.81,2.86-.94,10.27-3.3,19-5.51C230.19,411.8,254.74,407.75,253.89,419.49Z"/><path class="cls-11" d="M253.07,465.83c-4.11,7.47-16.8,5.85-29.48,1.84h0A196.91,196.91,0,0,1,195,455.53c.06-.18.11-.36.16-.55.11-.37.21-.74.31-1.11.56-2.06,1-4.13,1.39-6.21.29-1.67.5-3.34.62-5,8.44,1,36.23,4.79,49.4,12C252.53,457.73,255.48,461.44,253.07,465.83Z"/><path class="cls-12" d="M262.21,445.78c-1.67,5.51-7.62,8.06-15.33,8.86-17.15,1.79-43-5-50-7,.29-1.67.5-3.34.62-5a39.78,39.78,0,0,0-.19-8.25c0-.29-.09-.59-.14-.88a292.8,292.8,0,0,1,37-1h0C250.46,433.31,265,436.54,262.21,445.78Z"/><path class="cls-13" d="M243,492c-3,3-7.41,3.23-12.44,1.81-14.65-4.15-34.59-22.4-40.47-28,.13-.18.26-.37.38-.56a34.53,34.53,0,0,0,4.53-9.67c.06-.18.11-.36.16-.55.11-.37.21-.74.31-1.11a277.89,277.89,0,0,1,28.11,13.79h0C237.49,475.68,249.66,485.32,243,492Z"/><path class="cls-14" d="M209,528.64c-9.77,3.07-19.43-11.87-26.22-26.2h0a212.23,212.23,0,0,1-9.42-23.69l3.88-2.83.21-.09a33.68,33.68,0,0,0,5-2.73h0c.44-.29.87-.59,1.29-.91,2,2.4,9.42,11.41,16.32,21.57C210,508.43,218.92,525.51,209,528.64Z"/><path class="cls-15" d="M233.09,507.69c-7.75,6.26-21.65-3.41-33-13.93a212.36,212.36,0,0,1-18.36-19.49l.74-1.17h0c.44-.29.87-.59,1.29-.91a28.74,28.74,0,0,0,6.36-6.43c.13-.18.26-.37.38-.56,7.21,4,30,17.2,40.09,28.57C235.4,499.24,237.31,504.29,233.09,507.69Z"/><path class="cls-16" d="M175.62,538.17c-3.61-.53-6.2-3.12-8-6.94-6.74-14-3.38-44.52-2.44-51.88l.6-.11a49.38,49.38,0,0,0,11.48-3.32l.21-.09c.48,1.88,3.43,13.73,5.33,26.61h0C185.37,520.11,186,539.71,175.62,538.17Z"/><path class="cls-17" d="M167.58,531.23c-1.45,8-4.49,13.16-10.2,11.74-4-1-6.5-4.26-8-8.88-5.12-15.5,1.15-45.93,2.89-53.68h1.19c1.85-.05,3.64-.15,5.37-.29h0c2.2-.18,4.3-.44,6.32-.77l.6-.11C166.79,486.47,170.56,514.8,167.58,531.23Z"/><path class="cls-18" d="M151.6,480.39c-1.41,5.11-8.26,29-16.7,44.16-5.37,9.68-11.39,15.84-17.06,11.43-8-6.22-2.18-21.89,5.48-35.77A218.92,218.92,0,0,1,139.08,476c.62.41,1.26.8,1.91,1.15a25.06,25.06,0,0,0,10,3.18Z"/><path class="cls-19" d="M163.62,481.06s-4.67,39.57-14.26,53c-2.78,3.9-6,5.61-9.57,3.56-4-2.29-5.27-7.14-4.89-13.1,1-15.31,12.78-38.06,16.11-44.21l.59.05.65,0h1.19c1.85-.05,3.64-.15,5.37-.29h0Z"/><path class="cls-20" d="M141,477.16a279.53,279.53,0,0,1-17.67,23c-10.88,12.56-23.58,23.85-28.9,15.72-6.32-9.67,9.92-25.53,23-36.08,0,0,0,0,0,0,6.59-5.32,12.4-9.29,14.1-10.44l.63.71h0a35,35,0,0,0,6.88,5.9C139.7,476.42,140.34,476.81,141,477.16Z"/><path class="cls-21" d="M122.59,436.28a33.67,33.67,0,0,0-.57,12.19c-10.43-.92-63.43-6.37-55.8-21.21,4.43-8.63,20.52-5.6,34.84-.76a206.54,206.54,0,0,1,21.75,8.93C122.73,435.71,122.66,436,122.59,436.28Z"/><path class="cls-22" d="M128,424.62l-.43.6a32.26,32.26,0,0,0-4.76,10.21c-.08.28-.15.57-.22.85-3.85-1.56-12.55-5.2-21.53-9.78-15.85-8.05-32.59-19-25.28-26.55,5.29-5.47,15.36-2,25.38,4h0C112.47,410.73,123.72,420.68,128,424.62Z"/><path class="cls-23" d="M136.32,416.38l-.64.48a35.54,35.54,0,0,0-7.68,7.76l-.43.6A257.94,257.94,0,0,1,101.17,404h0c-10.4-9.88-18.1-20.27-10.94-24.87,11.29-7.25,30.7,16,40.52,29.34v0C133.48,412.16,135.46,415.09,136.32,416.38Z"/><path class="cls-24" d="M147.09,410.4l-1,.38a48,48,0,0,0-9.82,5.6l-.64.48c-.58-.95-2.47-4.06-4.93-8.41v0c-4.62-8.16-11.25-20.69-15.15-31.7-4.13-11.67-5.2-21.63,2.46-22.83,7-1.09,12.74,6,17.21,15.46a113.42,113.42,0,0,1,5.5,14.53A221.45,221.45,0,0,1,147.09,410.4Z"/><path class="cls-25" d="M132.29,470.27s-6.33,4.44-14.83,9.57c0,0,0,0,0,0-16.35,9.86-40.68,22.24-43.23,10.34-2.23-10.38,15.2-18.79,30.46-24.08a216.18,216.18,0,0,1,20.84-6c.2.42.41.85.63,1.27a40.81,40.81,0,0,0,5.13,7.66l.29.34.63.71h0Z"/><path class="cls-26" d="M126.14,461.4c-1.31.34-10.43,2.7-21.47,4.71-19.77,3.6-45.71,6.09-44-6.12,2.47-17.5,51-12.68,61.36-11.45a39.23,39.23,0,0,0,3.48,11.59C125.71,460.55,125.92,461,126.14,461.4Z"/><ellipse class="cls-27" cx="142.54" cy="452" rx="3.58" ry="1.87"/><ellipse class="cls-27" cx="185.4" cy="452" rx="3.58" ry="1.87"/><path class="cls-28" d="M158.69,407.68c-.39,0-.77.06-1.14.11-1,.11-2,.25-2.92.43a41.52,41.52,0,0,0-7.54,2.18l-1,.38c-.87-3.49-3.63-14.86-5.38-26.89-2.53-17.35-3-36.09,7.18-34.62,7.17,1,10.38,10.16,11.62,21h0C161.18,384.6,159.39,401.89,158.69,407.68Z"/><path class="cls-29" d="M159.56,370.29l.41-2.56s4.59,10.12,0,39.87l-1.28.08S162.92,393.67,159.56,370.29Z"/><path class="cls-29" d="M146.14,410.78l-.91.4s-3.41-8.13-5.4-30.17l1.18,4.56S144.09,403.27,146.14,410.78Z"/><path class="cls-29" d="M198.19,374.2s-4.15,16.14-15.06,39.31l-1.26-.73s4.7-6,14.89-36.74Z"/><path class="cls-29" d="M179.85,359.5l.65-1.49s-3.2,33-8.59,50.93l-1.59-.43S174.66,397.07,179.85,359.5Z"/><path class="cls-29" d="M130.74,408.43,129.65,407a55.77,55.77,0,0,0,5.58,10.29l.82-.68A37.16,37.16,0,0,1,130.74,408.43Z"/><path class="cls-29" d="M101.17,404l-1.62-1.57s12.35,6.82,28.61,21.89l-.59.93S112.15,411.42,101.17,404Z"/><path class="cls-29" d="M101.06,426.5l-2.7-.88s3.2,3,24.08,11.34l.15-.68S108.43,430.45,101.06,426.5Z"/><path class="cls-29" d="M112.52,447.63s7.34.63,9.5.84l.09.61a55.21,55.21,0,0,1-11.53-1.59Z"/><path class="cls-29" d="M104.31,466.18a180.61,180.61,0,0,0,21.83-4.78l.39.72s-9.31,4.1-24.66,5Z"/><path class="cls-29" d="M132.2,470.11a85,85,0,0,0-14.76,9.74l-2.89,1.72a134.08,134.08,0,0,1,16.86-12.35C132.34,470.28,132.2,470.11,132.2,470.11Z"/><path class="cls-29" d="M123.32,500.21s15.81-19,17.67-23l1.29.67S129.56,495,122.11,502.44Z"/><path class="cls-29" d="M151.6,480.39s-14.19,24.89-16.7,44.16c-.85,1.51-1.07,1.88-1.07,1.88s2.62-21.71,16.86-46.12Z"/><path class="cls-29" d="M149.36,534.09s12.93-21.44,13-54.34l.52-.07s.93,29.28-13.35,55A3,3,0,0,1,149.36,534.09Z"/><path class="cls-29" d="M167.58,531.23s-6.65-18.09-6.42-31l-.32,1.83s-.59,7.56,6.57,30.07Z"/><path class="cls-29" d="M177.43,475.83s2.85,11,5.33,26.61l.37.77a247.54,247.54,0,0,0-5.22-27.6Z"/><path class="cls-29" d="M200.05,493.76s-13.29-12.85-17.62-20.66l-.5.34s4.36,7.57,20,23.17Z"/><path class="cls-29" d="M190.47,465.2s29.36,15.86,40.09,28.57c1,.26-7.34-10.69-39.64-29.25Z"/><path class="cls-29" d="M223.59,467.67a214.14,214.14,0,0,1-28.12-13.8l-.21.76a196.11,196.11,0,0,0,30.21,14.14Z"/><path class="cls-29" d="M197.48,442.66s33.35,2.83,49.4,12l1.24-.15s-16.66-9.09-50.58-12.73Z"/><path class="cls-29" d="M198.34,405.18a41.94,41.94,0,0,1-11,11.22c.64.54.38.31.38.31s7.89-6.06,12.23-12.58Z"/><path class="cls-29" d="M214.1,415.48s-12.57,3.24-20.26,8.5c.24.43.24.42.24.42s10-5.94,17.52-7.88Z"/><path class="cls-29" d="M197.29,434.41s10.81.68,36.85-1.92l1.48.09s-10.57,2.24-38.22,2.79Z"/><path class="cls-5" d="M152.49,441.21c-1.18-2.95-5.26-3.49-7.7-1.94a5.41,5.41,0,0,0-1.79,2.06.73.73,0,0,1-1,.28c-.77-.57-.08-1.9.33-2.51a6.07,6.07,0,0,1,5.19-2.44c2.51.06,5.09,1.92,5.39,4.47a.2.2,0,0,1-.39.08Z"/><circle class="cls-5" cx="149.36" cy="441.64" r="3.58"/><circle class="cls-30" cx="146.78" cy="439.8" r="1"/><circle class="cls-30" cx="147.99" cy="441.42" r="0.37"/><path class="cls-5" d="M173.36,441.13c.3-2.55,2.88-4.41,5.39-4.47s5.69,1.58,5.86,4.35a.72.72,0,0,1-1.36.32c-1.65-3.71-7.87-4-9.5-.12a.2.2,0,0,1-.39-.08Z"/><circle class="cls-5" cx="176.88" cy="441.64" r="3.58"/><circle class="cls-30" cx="179.47" cy="439.8" r="1"/><circle class="cls-30" cx="178.25" cy="441.42" r="0.37"/><path class="cls-1" d="M560.86,628c-7.78,29.66-4.24,88-2.31,112.29.55,6.83,1,11,1,11H547.38s-1.89-77.13,4.85-105.18,10.25-86.83,10.25-86.83l4.61-2.5,1.86-1A261.58,261.58,0,0,1,560.86,628Z"/><path class="cls-2" d="M560.86,628c-7.78,29.66-4.24,88-2.31,112.29l-2.89,1.64s-5.72-82.07,2.46-109.48c10.6-41.28,9.76-67,9-75.72l1.86-1A261.58,261.58,0,0,1,560.86,628Z"/><path class="cls-1" d="M561.79,594.84s-1.4-.58-3.56-1.71c-8.15-4.27-27.12-16.47-22.75-35.91.82-3.66,2-5.65,3.31-6.37,7.71-4.15,22.12,32.74,22.12,32.74Z"/><path class="cls-1" d="M571.47,654.26a40.39,40.39,0,0,1-15.82,7.15l.35-8.08s8.83-13.58,15.77-19.57c4.41-3.8,8.06-4.54,8.19,3.22C580.1,645,576.19,650.52,571.47,654.26Z"/><path class="cls-2" d="M571.47,654.26c4.91-6.06,9.06-14.1,7-21.39-.93-3.2-6.66.9-6.66.9h0c4.41-3.8,8.06-4.54,8.19,3.22C580.1,645,576.19,650.52,571.47,654.26Z"/><path class="cls-3" d="M611.81,479.19c-5.08,17.63-19,24.75-41.72,25.43-8.13.25-16.2-4.31-22.17-11.35-10.7-12.6-14.63-33.16,0-48.32a46.21,46.21,0,0,1,23.38-12.52,39.18,39.18,0,0,1,19.51,1.34C615.88,441.9,616.9,461.57,611.81,479.19Z"/><path class="cls-4" d="M547.92,493.27c-10.7-12.6-14.63-33.16,0-48.32a46.21,46.21,0,0,1,23.38-12.52C556.17,439,533,455.64,547.92,493.27Z"/><path class="cls-5" d="M576,474.25c1.34,1.84,4,2,6,1.33a3.65,3.65,0,0,0,1.76-1.34.32.32,0,0,1,.44-.08.31.31,0,0,1,.14.26,2.72,2.72,0,0,1-.49,1.46,5.16,5.16,0,0,1-8,0c-.26-.38-.91-1.72-.15-1.82a.39.39,0,0,1,.31.18Z"/><path class="cls-31" d="M587,432.72h0c-.29-.06-.58-.13-.87-.18a38.86,38.86,0,0,0-10.77-.65c-.38,0-.76.06-1.13.11-.09-5.36-.18-22.85,2-37.49h0c2-13.45,6-24.49,13.59-21.53,4,1.54,6,5.51,6.7,10.73C598.67,399.33,589.37,426.16,587,432.72Z"/><path class="cls-32" d="M615,429.39h0c-5.58,5.69-10.3,9.85-11.38,10.78l-.07.07a34.94,34.94,0,0,0-5.08-3.27h0c-1.17-.62-2.41-1.21-3.74-1.76l-1.81-1.08s9.81-19.66,20.51-33.88c8.07-10.71,16.65-18.36,21.92-12.19C643.36,397.46,627.12,417,615,429.39Z"/><path class="cls-33" d="M613.4,400.25C608.8,417.79,598.55,437,598.55,437h-.11c-1.17-.62-2.41-1.21-3.74-1.76s-2.54-1-3.91-1.44-2.56-.77-3.81-1h0c-.29-.06-.58-.13-.87-.18.85-7.83,4-33.72,10.39-48.83,3.49-8.29,7.94-13.33,13.47-10.36C617.06,377.16,616.54,388.32,613.4,400.25Z"/><path class="cls-34" d="M628.25,440.73c-8,3.22-15.44,5.45-18.46,6.32q-.25-.42-.54-.81a27.66,27.66,0,0,0-5.46-5.78h0l-.18-.28-1.19-1.81s5.33-4.11,12.57-9h0c14.41-9.67,36.41-22.3,39.25-11.49C656.65,427.06,641.71,435.3,628.25,440.73Z"/><path class="cls-35" d="M670.54,443.7c-.51,7.13-9.17,11-19.74,13h0c-13.56,2.61-30.25,2.22-36.86,1.92,0-.29-.08-.59-.13-.88a27.54,27.54,0,0,0-4-10.69q-.25-.42-.54-.81c2.87-.94,10.28-3.3,19-5.51C646.84,436,671.39,432,670.54,443.7Z"/><path class="cls-36" d="M669.72,490c-4.11,7.47-16.8,5.85-29.48,1.84h0a196.91,196.91,0,0,1-28.58-12.13c.05-.18.11-.36.16-.55.11-.37.21-.73.31-1.11.56-2.05,1-4.13,1.39-6.21.29-1.67.5-3.34.62-5,8.44,1,36.23,4.79,49.39,12C669.17,481.94,672.13,485.65,669.72,490Z"/><path class="cls-37" d="M678.86,470c-1.67,5.51-7.62,8.06-15.34,8.86-17.14,1.79-43-5-50-7,.29-1.67.5-3.34.62-5a39.09,39.09,0,0,0-.2-8.25c0-.29-.08-.59-.13-.88a292.8,292.8,0,0,1,37-1h0C667.11,457.53,681.67,460.75,678.86,470Z"/><path class="cls-38" d="M659.65,516.17c-3,3-7.41,3.24-12.45,1.81-14.65-4.15-34.58-22.4-40.47-28,.14-.18.26-.37.39-.56a34.53,34.53,0,0,0,4.53-9.67c.05-.18.11-.36.16-.55.11-.37.21-.73.31-1.11a277.89,277.89,0,0,1,28.11,13.79h0C654.13,499.89,666.31,509.53,659.65,516.17Z"/><path class="cls-39" d="M625.63,552.85c-9.77,3.07-19.43-11.87-26.22-26.19h0A213.27,213.27,0,0,1,590,503l3.87-2.83.22-.09a34.19,34.19,0,0,0,5-2.73h0c.44-.29.86-.59,1.29-.91,2,2.4,9.42,11.41,16.32,21.57C626.67,532.64,635.56,549.72,625.63,552.85Z"/><path class="cls-40" d="M649.74,531.9c-7.75,6.26-21.65-3.41-33-13.93a212.36,212.36,0,0,1-18.36-19.49l.74-1.17h0c.44-.29.86-.59,1.29-.91a28.7,28.7,0,0,0,6.35-6.43c.14-.18.26-.37.39-.56,7.2,4,30,17.2,40.08,28.57C652.05,523.45,654,528.5,649.74,531.9Z"/><path class="cls-41" d="M592.27,562.38c-3.61-.53-6.21-3.12-8-6.94-6.74-14-3.38-44.52-2.44-51.88l.6-.1a49.64,49.64,0,0,0,11.47-3.33l.22-.09c.48,1.88,3.42,13.73,5.32,26.61h0C602,544.32,602.67,563.92,592.27,562.38Z"/><path class="cls-42" d="M584.23,555.44c-1.45,8-4.49,13.16-10.21,11.74-4-1-6.49-4.26-8-8.87-5.13-15.5,1.15-45.94,2.88-53.69h1.2c1.85-.05,3.64-.15,5.37-.29h0c2.21-.18,4.31-.44,6.33-.77l.6-.1C583.44,510.69,587.2,539,584.23,555.44Z"/><path class="cls-43" d="M568.25,504.6c-1.41,5.11-8.26,29-16.7,44.16-5.37,9.68-11.39,15.84-17.07,11.43-8-6.22-2.17-21.89,5.48-35.77a222,222,0,0,1,15.76-24.2c.63.42,1.27.8,1.92,1.16a25.2,25.2,0,0,0,10,3.17A5.87,5.87,0,0,0,568.25,504.6Z"/><path class="cls-44" d="M580.27,505.27s-4.67,39.57-14.26,53c-2.78,3.89-6,5.6-9.57,3.55-4-2.29-5.27-7.13-4.89-13.1,1-15.31,12.78-38.06,16.11-44.21a5.87,5.87,0,0,0,.59.05l.64,0h1.2c1.85-.05,3.64-.15,5.37-.29h0Z"/><path class="cls-45" d="M557.64,501.38a280.25,280.25,0,0,1-17.68,23c-10.87,12.56-23.58,23.85-28.89,15.72-6.32-9.67,9.92-25.52,23-36.08h0c6.6-5.32,12.4-9.29,14.11-10.44.21.25.42.48.63.71h0a35.24,35.24,0,0,0,6.87,5.89C556.35,500.64,557,501,557.64,501.38Z"/><path class="cls-46" d="M539.24,460.49a33.67,33.67,0,0,0-.57,12.19c-10.43-.92-63.43-6.37-55.81-21.21,4.44-8.63,20.53-5.59,34.84-.76a206,206,0,0,1,21.76,8.93C539.38,459.92,539.31,460.21,539.24,460.49Z"/><path class="cls-47" d="M544.64,448.83c-.14.2-.29.4-.42.61a32.11,32.11,0,0,0-4.76,10.2c-.08.28-.15.57-.22.85-3.85-1.56-12.55-5.2-21.54-9.78-15.84-8-32.58-19-25.28-26.55,5.3-5.47,15.37-2,25.39,4h0C529.12,434.94,540.37,444.89,544.64,448.83Z"/><path class="cls-48" d="M553,440.59c-.23.16-.44.32-.64.48A37.49,37.49,0,0,0,547.9,445a36.24,36.24,0,0,0-3.26,3.88c-.14.2-.29.4-.42.61a258.67,258.67,0,0,1-26.4-21.26h0c-10.4-9.88-18.1-20.27-10.94-24.87,11.28-7.25,30.7,16,40.51,29.34l0,0C550.13,436.37,552.11,439.3,553,440.59Z"/><path class="cls-49" d="M563.74,434.61l-1,.38a48.18,48.18,0,0,0-9.82,5.6l-.64.48c-.58-.95-2.47-4.06-4.93-8.41a0,0,0,0,0,0,0c-4.62-8.16-11.25-20.69-15.15-31.7-4.14-11.67-5.2-21.63,2.45-22.82,7-1.1,12.75,5.95,17.22,15.45a114.93,114.93,0,0,1,5.5,14.53A221.45,221.45,0,0,1,563.74,434.61Z"/><path class="cls-50" d="M548.94,494.48s-6.33,4.44-14.84,9.57h0c-16.35,9.86-40.68,22.24-43.24,10.34-2.22-10.38,15.2-18.79,30.47-24.08a215.34,215.34,0,0,1,20.84-6c.2.43.41.85.63,1.27a40.34,40.34,0,0,0,5.13,7.66c.09.12.19.23.29.34s.42.48.63.71h0Z"/><path class="cls-51" d="M542.79,485.61c-1.32.34-10.43,2.71-21.47,4.71-19.78,3.6-45.72,6.09-44-6.12,2.47-17.5,51-12.67,61.36-11.45a38.56,38.56,0,0,0,3.48,11.59C542.36,484.77,542.57,485.19,542.79,485.61Z"/><ellipse class="cls-27" cx="559.19" cy="476.21" rx="3.58" ry="1.87"/><ellipse class="cls-27" cx="602.04" cy="476.21" rx="3.58" ry="1.87"/><path class="cls-52" d="M575.33,431.89c-.38,0-.76.06-1.13.11-1,.11-2,.25-2.92.43a41.29,41.29,0,0,0-7.54,2.18c-.32.12-.64.25-1,.39-.88-3.49-3.63-14.86-5.38-26.9-2.53-17.35-3-36.09,7.18-34.62,7.17,1,10.38,10.16,11.61,21h0C577.83,408.81,576,426.1,575.33,431.89Z"/><path class="cls-29" d="M576.2,394.51l.42-2.57s4.59,10.12,0,39.87l-1.29.08S579.57,417.88,576.2,394.51Z"/><path class="cls-29" d="M562.79,435l-.92.39s-3.41-8.12-5.39-30.17l1.18,4.56S560.73,427.48,562.79,435Z"/><path class="cls-29" d="M614.83,398.42s-4.15,16.13-15.05,39.3l-1.26-.73s4.7-6,14.88-36.74Z"/><path class="cls-29" d="M596.49,383.71l.66-1.49s-3.2,33-8.59,50.94l-1.59-.44S591.31,421.28,596.49,383.71Z"/><path class="cls-29" d="M547.38,432.64l-1.08-1.46a55.77,55.77,0,0,0,5.58,10.29l.82-.68A37.37,37.37,0,0,1,547.38,432.64Z"/><path class="cls-29" d="M517.82,428.18l-1.62-1.56s12.34,6.82,28.6,21.88l-.58.94S528.8,435.63,517.82,428.18Z"/><path class="cls-29" d="M517.7,450.71l-2.69-.88s3.2,3,24.08,11.34l.15-.68S525.08,454.67,517.7,450.71Z"/><path class="cls-29" d="M529.17,471.84s7.33.63,9.5.84l.09.62a55.58,55.58,0,0,1-11.53-1.6Z"/><path class="cls-29" d="M521,490.39a181,181,0,0,0,21.84-4.78l.39.72s-9.31,4.1-24.67,5Z"/><path class="cls-29" d="M548.85,494.33a84.58,84.58,0,0,0-14.76,9.73l-2.9,1.72a134.26,134.26,0,0,1,16.87-12.34Z"/><path class="cls-29" d="M540,524.42s15.82-19,17.68-23l1.28.67s-12.72,17.12-20.16,24.6Z"/><path class="cls-29" d="M568.25,504.6s-14.2,24.89-16.7,44.16c-.85,1.51-1.07,1.88-1.07,1.88s2.62-21.7,16.86-46.12Z"/><path class="cls-29" d="M566,558.31s12.93-21.45,13-54.35l.52-.07s.93,29.28-13.36,55A3.34,3.34,0,0,1,566,558.31Z"/><path class="cls-29" d="M584.23,555.44s-6.65-18.09-6.42-31l-.32,1.84s-.6,7.55,6.57,30.07Z"/><path class="cls-29" d="M594.08,500s2.84,11,5.32,26.61l.37.77a246,246,0,0,0-5.21-27.6Z"/><path class="cls-29" d="M616.7,518s-13.3-12.85-17.62-20.66l-.5.34s4.36,7.57,20,23.17Z"/><path class="cls-29" d="M607.12,489.41S636.48,505.27,647.2,518c1,.26-7.34-10.69-39.63-29.25Z"/><path class="cls-29" d="M640.24,491.88a212.66,212.66,0,0,1-28.12-13.8l-.21.76A195.68,195.68,0,0,0,642.11,493Z"/><path class="cls-29" d="M614.13,466.87s33.35,2.83,49.39,12l1.25-.15s-16.66-9.09-50.58-12.73Z"/><path class="cls-29" d="M615,429.39a42.07,42.07,0,0,1-11,11.22c.64.54.39.31.39.31s7.88-6.05,12.23-12.58Z"/><path class="cls-29" d="M630.75,439.69s-12.57,3.24-20.26,8.5l.23.42s10-5.94,17.53-7.88Z"/><path class="cls-29" d="M613.93,458.62s10.82.68,36.86-1.92l1.48.09s-10.57,2.25-38.22,2.79Z"/><path class="cls-5" d="M569.14,465.42c-1.18-2.95-5.26-3.49-7.71-1.94a5.58,5.58,0,0,0-1.79,2.06.73.73,0,0,1-1,.29c-.76-.58-.08-1.91.34-2.52a6.06,6.06,0,0,1,5.19-2.44c2.51.06,5.09,1.93,5.38,4.47a.2.2,0,0,1-.38.08Z"/><circle class="cls-5" cx="566" cy="465.85" r="3.58"/><circle class="cls-30" cx="563.42" cy="464.01" r="1"/><circle class="cls-30" cx="564.64" cy="465.63" r="0.37"/><path class="cls-5" d="M590,465.34c.29-2.54,2.88-4.41,5.38-4.47s5.7,1.58,5.87,4.36a.73.73,0,0,1-1.37.31c-1.64-3.71-7.86-4-9.49-.12a.2.2,0,0,1-.39-.08Z"/><circle class="cls-5" cx="593.53" cy="465.85" r="3.58"/><circle class="cls-30" cx="596.11" cy="464.01" r="1"/><circle class="cls-30" cx="594.9" cy="465.63" r="0.37"/><path class="cls-1" d="M345.66,483.74c-14.74,56.17-8,166.74-4.37,212.63,1,12.93,1.82,20.73,1.82,20.73h-23s-3.58-146,9.19-199.15,19.4-164.42,19.4-164.42l8.74-4.73,3.52-1.91S364.55,411.74,345.66,483.74Z"/><path class="cls-2" d="M345.66,483.74c-14.74,56.17-8,166.74-4.37,212.63l-5.48,3.11S325,544.08,340.46,492.17c20.07-78.15,18.48-126.83,17-143.37l3.52-1.91S364.55,411.74,345.66,483.74Z"/><path class="cls-1" d="M347.43,421s-2.66-1.08-6.76-3.23c-15.43-8.08-51.35-31.19-43.07-68,1.56-6.94,3.72-10.7,6.27-12.08,14.6-7.85,41.88,62,41.88,62Z"/><path class="cls-1" d="M365.74,533.53c-13.28,10.5-30,13.53-30,13.53l.68-15.29s16.72-25.71,29.86-37c8.35-7.2,15.25-8.6,15.5,6.08C382.08,516,374.68,526.46,365.74,533.53Z"/><path class="cls-2" d="M365.74,533.53c9.31-11.48,17.17-26.7,13.18-40.5-1.76-6.07-12.6,1.69-12.6,1.69h0c8.35-7.2,15.25-8.6,15.5,6.08C382.08,516,374.68,526.46,365.74,533.53Z"/><path class="cls-3" d="M442.13,202c-9.62,33.38-36,46.86-79,48.15-15.39.46-30.68-8.17-42-21.49-20.25-23.87-27.7-62.79,0-91.5,0,0,17.16-18.63,44.26-23.71A74.18,74.18,0,0,1,402.33,116C449.84,131.43,451.76,168.66,442.13,202Z"/><path class="cls-4" d="M321.15,228.7c-20.25-23.87-27.7-62.79,0-91.5,0,0,17.16-18.63,44.26-23.71C336.78,125.94,292.9,157.44,321.15,228.7Z"/><path class="cls-5" d="M374.37,192.68c2.55,3.49,7.62,3.82,11.4,2.51a6.83,6.83,0,0,0,3.34-2.53.59.59,0,0,1,.83-.16.61.61,0,0,1,.26.49,5.08,5.08,0,0,1-.91,2.77c-3.44,4.85-11.76,4.86-15.22,0-.49-.72-1.72-3.26-.28-3.45a.68.68,0,0,1,.58.34Z"/><path class="cls-53" d="M395.11,114h0l-1.65-.35a73.59,73.59,0,0,0-20.39-1.22c-.72,0-1.44.12-2.15.2-.17-10.15-.34-43.26,3.8-71h0C378.52,16.22,386-4.69,400.44.92c7.53,2.92,11.32,10.43,12.69,20.32C417.25,50.82,399.64,101.61,395.11,114Z"/><path class="cls-54" d="M448.15,107.74h0c-10.58,10.77-19.51,18.65-21.55,20.42l-.14.13a65.78,65.78,0,0,0-9.62-6.2h0c-2.22-1.18-4.56-2.3-7.07-3.34l-3.43-2s18.58-37.21,38.84-64.14c15.28-20.29,31.51-34.76,41.49-23.09C501.87,47.28,471.12,84.33,448.15,107.74Z"/><path class="cls-55" d="M445.15,52.56C436.43,85.76,417,122.13,417,122.13l-.19,0h0c-2.22-1.18-4.56-2.3-7.07-3.34-2.34-1-4.81-1.89-7.41-2.73-2.45-.79-4.85-1.45-7.22-2h0l-1.65-.35c1.61-14.82,7.64-63.85,19.68-92.45,6.6-15.69,15-25.24,25.5-19.61C452.07,8.84,451.09,30,445.15,52.56Z"/><path class="cls-56" d="M473.26,129.2c-15.11,6.1-29.23,10.33-34.95,12q-.49-.78-1-1.53a52.32,52.32,0,0,0-10.35-10.94h0l-.34-.52-2.26-3.44s10.09-7.78,23.81-17h0C475.43,89.43,517.09,65.51,522.47,86,527,103.33,498.75,118.93,473.26,129.2Z"/><path class="cls-57" d="M553.34,134.83c-1,13.5-17.37,20.79-37.38,24.62h0c-25.68,4.94-57.27,4.2-69.79,3.64-.07-.56-.16-1.12-.25-1.68a52.3,52.3,0,0,0-7.59-20.24q-.49-.78-1-1.53c5.42-1.78,19.45-6.24,36-10.44C508.46,120.28,554.94,112.6,553.34,134.83Z"/><path class="cls-58" d="M551.78,222.57C544,236.72,520,233.65,496,226.06h0c-22.57-7.16-45.12-18.32-54.12-23,.11-.34.21-.68.31-1,.2-.7.4-1.4.59-2.11,1.06-3.89,1.95-7.82,2.63-11.76.54-3.16.94-6.32,1.17-9.46,16,1.91,68.6,9.07,93.53,22.68C550.75,207.24,556.35,214.26,551.78,222.57Z"/><path class="cls-59" d="M569.09,184.62c-3.17,10.43-14.43,15.25-29,16.77-32.46,3.39-81.42-9.49-94.7-13.22.54-3.16.94-6.32,1.17-9.46a74.55,74.55,0,0,0-.37-15.62c-.07-.56-.16-1.12-.25-1.68,11.51-1,42.13-3.35,70-2h0C546.84,161,574.41,167.12,569.09,184.62Z"/><path class="cls-60" d="M532.72,272.05c-5.68,5.67-14,6.13-23.57,3.43-27.74-7.85-65.49-42.41-76.63-53,.25-.34.49-.69.73-1.05a65.62,65.62,0,0,0,8.57-18.32c.11-.34.21-.68.31-1,.2-.7.4-1.4.59-2.11,8.32,3.52,31.84,13.8,53.22,26.12h0C522.27,241.23,545.32,259.48,532.72,272.05Z"/><path class="cls-61" d="M468.29,341.51c-18.49,5.82-36.79-22.48-49.64-49.6a0,0,0,0,0,0,0A402.77,402.77,0,0,1,400.81,247l7.34-5.35.4-.18a64.18,64.18,0,0,0,9.48-5.17h0c.84-.55,1.64-1.12,2.44-1.72,3.8,4.55,17.84,21.6,30.91,40.84C470.26,303.24,487.11,335.58,468.29,341.51Z"/><path class="cls-62" d="M514,301.84c-14.68,11.85-41-6.46-62.56-26.38a401,401,0,0,1-34.77-36.9l1.41-2.22h0c.84-.55,1.64-1.12,2.44-1.72a54.36,54.36,0,0,0,12-12.18c.25-.34.49-.69.73-1.05,13.64,7.6,56.83,32.57,75.9,54.09C518.33,285.84,521.93,295.4,514,301.84Z"/><path class="cls-63" d="M405.13,359.56c-6.83-1-11.75-5.91-15.23-13.15-12.76-26.47-6.4-84.3-4.62-98.24l1.14-.19a94.22,94.22,0,0,0,21.73-6.29l.4-.18c.91,3.56,6.49,26,10.09,50.39a0,0,0,0,1,0,0C423.59,325.36,424.82,362.47,405.13,359.56Z"/><path class="cls-64" d="M389.9,346.41c-2.74,15.12-8.49,24.92-19.32,22.24-7.5-1.85-12.29-8.08-15.18-16.81-9.7-29.35,2.18-87,5.47-101.65h0q1.13,0,2.25,0,5.25-.15,10.17-.56h0c4.17-.34,8.15-.83,12-1.46l1.14-.19C388.41,261.67,395.54,315.3,389.9,346.41Z"/><path class="cls-65" d="M359.65,250.14C357,259.82,344,305,328,333.77c-10.18,18.32-21.57,30-32.32,21.64-15.16-11.78-4.11-41.45,10.38-67.73a417.08,417.08,0,0,1,29.84-45.82c1.19.78,2.4,1.51,3.63,2.18a47.49,47.49,0,0,0,19,6C358.9,250.1,359.28,250.12,359.65,250.14Z"/><path class="cls-66" d="M382.41,251.41s-8.84,74.94-27,100.43c-5.26,7.37-11.29,10.61-18.11,6.73-7.62-4.34-10-13.51-9.26-24.8,1.88-29,24.2-72.07,30.5-83.71.37,0,.75.06,1.12.08s.81,0,1.22.05h0q1.13,0,2.25,0,5.25-.15,10.17-.56h0Z"/><path class="cls-67" d="M339.56,244a531.33,531.33,0,0,1-33.47,43.64c-20.59,23.78-44.65,45.16-54.72,29.76-12-18.31,18.79-48.33,43.59-68.32l0,0c12.49-10.07,23.48-17.59,26.71-19.76.4.46.79.9,1.2,1.34h0a67,67,0,0,0,13,11.17C337.12,242.64,338.33,243.37,339.56,244Z"/><path class="cls-68" d="M304.72,166.63a63.5,63.5,0,0,0-1.08,23.07c-19.75-1.74-120.11-12-105.67-40.16,8.39-16.34,38.86-10.59,66-1.43A390.19,390.19,0,0,1,305.13,165C305,165.55,304.85,166.09,304.72,166.63Z"/><path class="cls-69" d="M315,144.54c-.28.38-.55.76-.81,1.15a61.2,61.2,0,0,0-9,19.32c-.15.54-.28,1.08-.41,1.62-7.29-3-23.77-9.86-40.78-18.52-30-15.25-61.7-36-47.87-50.28,10-10.35,29.09-3.76,48.07,7.6h0C285.56,118.24,306.85,137.09,315,144.54Z"/><path class="cls-70" d="M330.71,129c-.42.3-.82.6-1.21.9a71,71,0,0,0-8.38,7.35,69.18,69.18,0,0,0-6.17,7.34c-.28.38-.55.76-.81,1.15-8.45-6-31.47-22.68-50-40.25h0c-19.7-18.71-34.28-38.38-20.72-47.09,21.37-13.74,58.14,30.31,76.72,55.55l0,0C325.33,121,329.09,126.5,330.71,129Z"/><path class="cls-71" d="M351.1,117.61c-.6.23-1.2.48-1.79.73A89.86,89.86,0,0,0,330.71,129c-.42.3-.82.59-1.21.89-1.1-1.8-4.67-7.68-9.33-15.92l0,0c-8.74-15.43-21.29-39.18-28.68-60-7.83-22.1-9.85-40.95,4.65-43.22,13.27-2.07,24.13,11.27,32.59,29.26a216.52,216.52,0,0,1,10.42,27.51A420.49,420.49,0,0,1,351.1,117.61Z"/><path class="cls-72" d="M323.08,231s-12,8.41-28.09,18.12l0,0c-31,18.68-77,42.12-81.86,19.58-4.22-19.65,28.78-35.57,57.69-45.59a406.74,406.74,0,0,1,39.46-11.33c.37.81.77,1.62,1.19,2.41a77.35,77.35,0,0,0,9.71,14.51l.55.64c.4.46.79.9,1.2,1.34h0Z"/><path class="cls-73" d="M311.44,214.19c-2.49.65-19.75,5.12-40.65,8.92-37.45,6.82-86.57,11.53-83.32-11.59,4.67-33.13,96.63-24,116.19-21.68a73.36,73.36,0,0,0,6.59,21.94C310.62,212.59,311,213.4,311.44,214.19Z"/><ellipse class="cls-27" cx="342.49" cy="196.39" rx="6.78" ry="3.54"/><ellipse class="cls-27" cx="423.64" cy="196.39" rx="6.78" ry="3.54"/><path class="cls-74" d="M373.06,112.47c-.72,0-1.44.12-2.15.2q-2.84.31-5.53.82a78.38,78.38,0,0,0-14.28,4.13c-.6.23-1.2.48-1.79.73-1.66-6.61-6.87-28.14-10.19-50.93-4.79-32.85-5.68-68.34,13.6-65.55,13.57,2,19.65,19.24,22,39.81h0C377.79,68.76,374.39,101.51,373.06,112.47Z"/><path class="cls-29" d="M374.71,41.68l.78-4.86s8.69,19.16,0,75.5l-2.43.15S381.08,85.94,374.71,41.68Z"/><path class="cls-29" d="M349.31,118.35l-1.73.75S341.12,103.71,337.37,62l2.23,8.63S345.42,104.12,349.31,118.35Z"/><path class="cls-29" d="M447.86,49.08S440,79.63,419.35,123.5c-1.44-.84-2.38-1.37-2.38-1.37s8.9-11.35,28.18-69.57Z"/><path class="cls-29" d="M413.13,21.24l1.24-2.82s-6.06,62.4-16.27,96.44l-3-.82S403.31,92.38,413.13,21.24Z"/><path class="cls-29" d="M320.14,113.89l-2.06-2.77s2.75,7.57,10.58,19.49l1.55-1.29A70.33,70.33,0,0,1,320.14,113.89Z"/><path class="cls-29" d="M264.16,105.44l-3.07-3s23.37,12.91,54.16,41.45l-1.11,1.76S284.94,119.55,264.16,105.44Z"/><path class="cls-29" d="M263.94,148.11l-5.11-1.67s6.06,5.74,45.6,21.47l.29-1.28S277.91,155.59,263.94,148.11Z"/><path class="cls-29" d="M285.64,188.11s13.9,1.19,18,1.59l.16,1.17a104.75,104.75,0,0,1-21.82-3Z"/><path class="cls-29" d="M270.09,223.24a343,343,0,0,0,41.35-9.05l.73,1.36s-17.63,7.77-46.7,9.45Z"/><path class="cls-29" d="M322.91,230.69a160.35,160.35,0,0,0-28,18.43l-5.48,3.26s10.9-10,31.93-23.37C323.17,231,322.91,230.69,322.91,230.69Z"/><path class="cls-29" d="M306.09,287.68S336,251.6,339.56,244l2.43,1.27s-24.09,32.43-38.18,46.59Z"/><path class="cls-29" d="M359.65,250.14S332.77,297.27,328,333.77c-1.61,2.86-2,3.55-2,3.55s5-41.09,31.93-87.32Z"/><path class="cls-29" d="M355.4,351.84s24.49-40.62,24.66-102.91l1-.13S382.8,304.24,355.75,353A6.24,6.24,0,0,1,355.4,351.84Z"/><path class="cls-29" d="M389.9,346.41s-12.59-34.25-12.15-58.77l-.61,3.47s-1.12,14.31,12.45,56.94Z"/><path class="cls-29" d="M408.55,241.51s5.39,20.79,10.09,50.39l.7,1.45a468.84,468.84,0,0,0-9.87-52.26Z"/><path class="cls-29" d="M451.39,275.46S426.21,251.13,418,236.34l-.95.65s8.25,14.33,37.91,43.87Z"/><path class="cls-29" d="M433.25,221.39s55.59,30,75.9,54.09c1.89.5-13.9-20.23-75-55.38Z"/><path class="cls-29" d="M496,226.06a402.37,402.37,0,0,1-53.24-26.13l-.4,1.44a370.1,370.1,0,0,0,57.19,26.77Z"/><path class="cls-29" d="M446.52,178.71s63.16,5.34,93.53,22.68l2.36-.28S510.87,183.88,446.63,177Z"/><path class="cls-29" d="M448.15,107.74A79.77,79.77,0,0,1,427.28,129c1.21,1,.72.59.72.59s14.93-11.47,23.16-23.83Z"/><path class="cls-29" d="M478,127.24s-23.8,6.14-38.36,16.1l.45.79S459,132.89,473.26,129.2Z"/><path class="cls-29" d="M446.15,163.09s20.48,1.29,69.79-3.64l2.81.16s-20,4.26-72.38,5.29Z"/><path class="cls-5" d="M361.33,176c-2.23-5.6-9.95-6.63-14.59-3.69a10.49,10.49,0,0,0-3.39,3.9,1.38,1.38,0,0,1-2,.55c-1.44-1.09-.15-3.61.64-4.77a11.49,11.49,0,0,1,9.83-4.62c4.75.12,9.64,3.65,10.19,8.46a.38.38,0,0,1-.73.17Z"/><circle class="cls-5" cx="355.4" cy="176.77" r="6.77"/><circle class="cls-30" cx="350.51" cy="173.28" r="1.88"/><circle class="cls-30" cx="352.8" cy="176.35" r="0.71"/><path class="cls-5" d="M400.85,175.8c.56-4.81,5.45-8.34,10.2-8.46,4.79-.28,10.78,3,11.1,8.25a1.37,1.37,0,0,1-2.59.59c-3.11-7-14.89-7.59-18-.21a.38.38,0,0,1-.73-.17Z"/><circle class="cls-5" cx="407.52" cy="176.77" r="6.77"/><circle class="cls-30" cx="412.41" cy="173.28" r="1.88"/><circle class="cls-30" cx="410.11" cy="176.35" r="0.71"/><path class="cls-75" d="M544.06,755.65h0c-190.19.86-544-3.82-544-3.82l25.06-8.18s71.18-43.56,101.25-41.5,36.11-12.94,49.12-8.18,55.16-2.56,63.17-.94c4.6.92,22.38-2.58,41-3.84,13.9-1,28.27-.7,37.84,3.6,22.41,10,45.71-9.32,62.14-4.06s112.67,1.16,114.68,9.32,89.23,28.59,103.25,38.13,56.16,6.79,64.17,15.65C663.86,754.25,615.53,755.33,544.06,755.65Z"/><path class="cls-76" d="M544.06,755.65h0s-27.83-16.08-31.6-17.1-48.51-34.7-56-28.59-77.07-11-82.34-15.87S338,708.42,325.57,699s-46-9.8-46-9.8c13.9-1,28.27-.7,37.84,3.6,22.41,10,45.71-9.32,62.14-4.06s112.67,1.16,114.68,9.32,89.23,28.59,103.25,38.13,56.16,6.79,64.17,15.65C663.86,754.25,615.53,755.33,544.06,755.65Z"/></g></g></svg>