<svg xmlns="http://www.w3.org/2000/svg" xmlns:xlink="http://www.w3.org/1999/xlink" viewBox="0 0 671.87 752.86"><defs><style>.cls-1{fill:#5aba97;}.cls-2{fill:#63c6a0;}.cls-3{fill:#82d16f;}.cls-4{fill:#ffcd50;}.cls-5{fill:#ffc033;}.cls-6{fill:#302826;}.cls-7{fill:#f5ffff;}.cls-8{fill:#ff6e79;opacity:0.35;}.cls-9{fill:#e9f4f4;}.cls-10{fill:url(#Dégradé_sans_nom_19);}.cls-11{fill:url(#Dégradé_sans_nom_19-2);}.cls-12{fill:url(#Dégradé_sans_nom_19-3);}.cls-13{fill:url(#Dégradé_sans_nom_19-4);}.cls-14{fill:url(#Dégradé_sans_nom_19-5);}.cls-15{fill:url(#Dégradé_sans_nom_19-6);}.cls-16{fill:url(#Dégradé_sans_nom_19-7);}.cls-17{fill:url(#Dégradé_sans_nom_19-8);}.cls-18{fill:url(#Dégradé_sans_nom_19-9);}.cls-19{fill:url(#Dégradé_sans_nom_19-10);}.cls-20{fill:url(#Dégradé_sans_nom_19-11);}.cls-21{fill:url(#Dégradé_sans_nom_19-12);}.cls-22{fill:url(#Dégradé_sans_nom_19-13);}.cls-23{fill:url(#Dégradé_sans_nom_19-14);}.cls-24{fill:url(#Dégradé_sans_nom_19-15);}.cls-25{fill:url(#Dégradé_sans_nom_19-16);}.cls-26{fill:url(#Dégradé_sans_nom_19-17);}.cls-27{fill:url(#Dégradé_sans_nom_19-18);}.cls-28{fill:url(#Dégradé_sans_nom_19-19);}.cls-29{fill:url(#Dégradé_sans_nom_19-20);}.cls-30{fill:url(#Dégradé_sans_nom_19-21);}.cls-31{fill:url(#Dégradé_sans_nom_19-22);}.cls-32{opacity:0.03;}.cls-33{fill:#efefef;}.cls-34{fill:#4f2f2f;}.cls-35{fill:#593636;}</style><linearGradient id="Dégradé_sans_nom_19" x1="397.59" y1="-3.51" x2="380.23" y2="117.01" gradientUnits="userSpaceOnUse"><stop offset="0" stop-color="#cc275a"/><stop offset="0.02" stop-color="#cf3968"/><stop offset="0.06" stop-color="#d76287"/><stop offset="0.11" stop-color="#de88a4"/><stop offset="0.17" stop-color="#e5a8bd"/><stop offset="0.23" stop-color="#eac4d2"/><stop offset="0.3" stop-color="#eedae2"/><stop offset="0.38" stop-color="#f1ebef"/><stop offset="0.48" stop-color="#f3f6f8"/><stop offset="0.61" stop-color="#f5fdfe"/><stop offset="1" stop-color="#f5ffff"/></linearGradient><linearGradient id="Dégradé_sans_nom_19-2" x1="492.58" y1="18.1" x2="407.3" y2="129.93" xlink:href="#Dégradé_sans_nom_19"/><linearGradient id="Dégradé_sans_nom_19-3" x1="440.8" y1="-8.17" x2="396.37" y2="128.17" xlink:href="#Dégradé_sans_nom_19"/><linearGradient id="Dégradé_sans_nom_19-4" x1="523.67" y1="83.37" x2="435.84" y2="129.33" xlink:href="#Dégradé_sans_nom_19"/><linearGradient id="Dégradé_sans_nom_19-5" x1="567.96" y1="133.85" x2="414.76" y2="152.24" xlink:href="#Dégradé_sans_nom_19"/><linearGradient id="Dégradé_sans_nom_19-6" x1="558.57" y1="228.9" x2="431.93" y2="183.45" xlink:href="#Dégradé_sans_nom_19"/><linearGradient id="Dégradé_sans_nom_19-7" x1="592.28" y1="187.15" x2="418.67" y2="172.34" xlink:href="#Dégradé_sans_nom_19"/><linearGradient id="Dégradé_sans_nom_19-8" x1="542.39" y1="277.96" x2="431.58" y2="211.58" xlink:href="#Dégradé_sans_nom_19"/><linearGradient id="Dégradé_sans_nom_19-9" x1="469.93" y1="350.22" x2="406.61" y2="238.39" xlink:href="#Dégradé_sans_nom_19"/><linearGradient id="Dégradé_sans_nom_19-10" x1="521.31" y1="312.76" x2="423.78" y2="229.01" xlink:href="#Dégradé_sans_nom_19"/><linearGradient id="Dégradé_sans_nom_19-11" x1="404.12" y1="371.25" x2="392.89" y2="245.64" xlink:href="#Dégradé_sans_nom_19"/><linearGradient id="Dégradé_sans_nom_19-12" x1="366.35" y1="381.68" x2="371.97" y2="244.83" xlink:href="#Dégradé_sans_nom_19"/><linearGradient id="Dégradé_sans_nom_19-13" x1="284.67" y1="370.86" x2="348.5" y2="240.14" xlink:href="#Dégradé_sans_nom_19"/><linearGradient id="Dégradé_sans_nom_19-14" x1="331.38" y1="367.89" x2="368.14" y2="249.94" xlink:href="#Dégradé_sans_nom_19"/><linearGradient id="Dégradé_sans_nom_19-15" x1="238.45" y1="325.89" x2="332.92" y2="233.46" xlink:href="#Dégradé_sans_nom_19"/><linearGradient id="Dégradé_sans_nom_19-16" x1="186.5" y1="143.23" x2="309.06" y2="185.1" xlink:href="#Dégradé_sans_nom_19"/><linearGradient id="Dégradé_sans_nom_19-17" x1="208.34" y1="94.33" x2="306.38" y2="156.12" xlink:href="#Dégradé_sans_nom_19"/><linearGradient id="Dégradé_sans_nom_19-18" x1="236.02" y1="52.32" x2="322.83" y2="142.7" xlink:href="#Dégradé_sans_nom_19"/><linearGradient id="Dégradé_sans_nom_19-19" x1="290.63" y1="6.2" x2="337.95" y2="122.96" xlink:href="#Dégradé_sans_nom_19"/><linearGradient id="Dégradé_sans_nom_19-20" x1="200.12" y1="275.77" x2="315.52" y2="217.56" xlink:href="#Dégradé_sans_nom_19"/><linearGradient id="Dégradé_sans_nom_19-21" x1="175.65" y1="215.85" x2="303.82" y2="197.98" xlink:href="#Dégradé_sans_nom_19"/><linearGradient id="Dégradé_sans_nom_19-22" x1="347.67" y1="-6.82" x2="360.27" y2="120.16" xlink:href="#Dégradé_sans_nom_19"/></defs><g id="Calque_2" data-name="Calque 2"><g id="Calque_1-2" data-name="Calque 1"><path class="cls-1" d="M145.29,593.51c-7.32,27.88-4,82.76-2.17,105.54.51,6.42.91,10.29.91,10.29H132.62s-1.78-72.49,4.56-98.85,9.63-81.61,9.63-81.61l4.34-2.35,1.75-.95A246,246,0,0,1,145.29,593.51Z"/><path class="cls-2" d="M145.29,593.51c-7.32,27.88-4,82.76-2.17,105.54l-2.72,1.54s-5.37-77.13,2.31-102.9c10-38.79,9.17-63,8.44-71.16l1.75-.95A246,246,0,0,1,145.29,593.51Z"/><path class="cls-1" d="M164.94,636.85c-11,9.51-25.27,12.72-25.27,12.72l0-13.17s13.45-22.71,24.34-32.94c6.93-6.49,12.81-8,13.55,4.67C178.36,621.2,172.38,630.45,164.94,636.85Z"/><path class="cls-1" d="M144.36,584.06s-1-.41-2.56-1.23c-5.85-3.06-19.46-11.82-16.32-25.77.59-2.63,1.41-4,2.37-4.57,5.54-3,15.88,23.5,15.88,23.5Z"/><path class="cls-3" d="M161.58,641.35l1-1C162.23,640.7,161.9,641,161.58,641.35Z"/><path class="cls-2" d="M164.94,636.85c7.6-10.2,13.81-23.57,9.88-35.29-1.73-5.16-10.78,1.91-10.78,1.91h0c6.93-6.49,12.81-8,13.55,4.67C178.36,621.2,172.38,630.45,164.94,636.85Z"/><path class="cls-4" d="M193.17,453.69C188.4,470.26,175.29,477,154,477.59c-7.64.22-15.23-4.06-20.83-10.67-10.06-11.85-13.75-31.17,0-45.42a43.49,43.49,0,0,1,22-11.76A36.78,36.78,0,0,1,173.42,411C197,418.64,198,437.12,193.17,453.69Z"/><path class="cls-5" d="M133.13,466.92c-10.06-11.85-13.75-31.17,0-45.42a43.49,43.49,0,0,1,22-11.76C140.88,415.92,119.1,431.55,133.13,466.92Z"/><path class="cls-6" d="M159.54,449c1.27,1.73,3.78,1.9,5.66,1.25a3.51,3.51,0,0,0,1.66-1.26.3.3,0,0,1,.41-.08.31.31,0,0,1,.13.25,2.63,2.63,0,0,1-.45,1.37,4.87,4.87,0,0,1-7.56,0c-.24-.36-.85-1.62-.14-1.72a.33.33,0,0,1,.29.17Z"/><path class="cls-6" d="M169.74,443.21c.38-3.58,3.89-6.15,7.4-6.44a8.73,8.73,0,0,1,7.77,3.2,4.33,4.33,0,0,1,1,2.94,1.74,1.74,0,0,1-3,1,7.32,7.32,0,0,1-1.2-1.7,6.23,6.23,0,0,0-4.54-2.91,6.44,6.44,0,0,0-6.84,4,.28.28,0,0,1-.55-.11Z"/><path class="cls-6" d="M156.12,443.32a6.44,6.44,0,0,0-6.84-4,6.21,6.21,0,0,0-4.54,2.91c-.7,1.34-2,3.15-3.65,1.83-1.16-1.12-.41-3,.41-4.09a8.72,8.72,0,0,1,7.77-3.2c3.51.28,7,2.86,7.39,6.44a.28.28,0,0,1-.54.11Z"/><path class="cls-7" d="M169.84,410h0l-.82-.17a36.44,36.44,0,0,0-10.12-.61c-.36,0-.71.06-1.07.1-.08-5-.16-21.47,1.89-35.23h0c1.89-12.63,5.59-23,12.77-20.23,3.74,1.45,5.62,5.18,6.3,10.09C180.82,378.63,172.08,403.84,169.84,410Z"/><path class="cls-7" d="M196.16,406.88h0c-5.25,5.34-9.69,9.25-10.7,10.13a.46.46,0,0,1-.07.07,31.82,31.82,0,0,0-4.77-3.08h0c-1.11-.58-2.27-1.14-3.51-1.65l-1.71-1s9.23-18.47,19.28-31.84c7.59-10.07,15.64-17.25,20.6-11.46C222.83,376.87,207.56,395.26,196.16,406.88Z"/><path class="cls-7" d="M194.67,379.49c-4.33,16.48-14,34.53-14,34.53h-.1c-1.11-.58-2.27-1.14-3.51-1.65s-2.39-.94-3.68-1.36-2.41-.72-3.58-1h0l-.82-.17c.8-7.36,3.79-31.7,9.77-45.89,3.28-7.79,7.45-12.53,12.66-9.74C198.11,357.79,197.62,368.28,194.67,379.49Z"/><path class="cls-7" d="M208.63,417.53a181.49,181.49,0,0,1-17.35,5.94c-.17-.25-.33-.51-.51-.75a25.44,25.44,0,0,0-5.14-5.43h0l-.17-.26-1.12-1.71s5-3.86,11.82-8.42h0c13.54-9.09,34.22-21,36.89-10.8C235.31,404.69,221.28,412.44,208.63,417.53Z"/><path class="cls-7" d="M248.37,420.33c-.48,6.7-8.62,10.32-18.55,12.22h0c-12.75,2.45-28.43,2.08-34.64,1.8l-.12-.83a26.1,26.1,0,0,0-3.77-10c-.17-.25-.33-.51-.51-.75,2.69-.89,9.66-3.1,17.86-5.19C226.1,413.11,249.17,409.29,248.37,420.33Z"/><path class="cls-7" d="M247.6,463.88c-3.86,7-15.79,5.5-27.71,1.73h0A185.42,185.42,0,0,1,193,454.2l.15-.51.3-1.05c.52-1.93,1-3.88,1.3-5.84.27-1.57.47-3.13.58-4.69,7.93.95,34.05,4.5,46.43,11.25C247.09,456.27,249.87,459.75,247.6,463.88Z"/><path class="cls-7" d="M256.19,445c-1.57,5.18-7.16,7.57-14.41,8.32-16.12,1.69-40.42-4.71-47-6.56.27-1.57.47-3.13.58-4.69a37.14,37.14,0,0,0-.18-7.76l-.12-.83a274.19,274.19,0,0,1,34.76-1h0C245.15,433.32,258.83,436.35,256.19,445Z"/><path class="cls-7" d="M238.14,488.44c-2.82,2.81-7,3-11.7,1.7-13.77-3.9-32.51-21.05-38-26.33.13-.17.25-.34.37-.52A32.45,32.45,0,0,0,193,454.2l.15-.51.3-1.05a261.92,261.92,0,0,1,26.41,13h0C233,473.14,244.39,482.2,238.14,488.44Z"/><path class="cls-7" d="M206.16,522.91c-9.18,2.89-18.26-11.15-24.64-24.62h0A199.78,199.78,0,0,1,172.66,476l3.65-2.65.2-.09a31.58,31.58,0,0,0,4.7-2.57h0c.41-.27.81-.55,1.21-.85,1.88,2.26,8.85,10.72,15.34,20.27C207.14,503.92,215.5,520,206.16,522.91Z"/><path class="cls-7" d="M228.82,503.22c-7.28,5.88-20.34-3.2-31-13.09a198.88,198.88,0,0,1-17.26-18.32l.7-1.1h0c.41-.27.81-.55,1.21-.85a26.78,26.78,0,0,0,6-6.05c.13-.17.25-.34.37-.52,6.77,3.77,28.2,16.17,37.67,26.85C231,495.28,232.78,500,228.82,503.22Z"/><path class="cls-7" d="M174.81,531.87c-3.39-.5-5.83-2.93-7.56-6.52-6.33-13.14-3.18-41.85-2.29-48.77l.56-.09a47,47,0,0,0,10.79-3.12l.2-.09c.45,1.77,3.22,12.9,5,25h0C184,514.9,184.58,533.32,174.81,531.87Z"/><path class="cls-7" d="M167.25,525.35c-1.36,7.5-4.21,12.36-9.59,11-3.72-.91-6.1-4-7.53-8.34-4.82-14.57,1.08-43.17,2.71-50.45h0q.56,0,1.11,0c1.74,0,3.42-.15,5-.28h0q3.09-.26,5.94-.73l.56-.09C166.51,483.28,170.05,509.9,167.25,525.35Z"/><path class="cls-7" d="M152.23,477.56c-1.33,4.81-7.76,27.23-15.69,41.51-5,9.09-10.71,14.89-16,10.74-7.53-5.84-2-20.57,5.15-33.62a208.11,208.11,0,0,1,14.81-22.74q.89.58,1.8,1.08a23.45,23.45,0,0,0,9.42,3Z"/><path class="cls-7" d="M163.53,478.19s-4.39,37.2-13.4,49.85c-2.62,3.66-5.61,5.27-9,3.34-3.79-2.15-5-6.7-4.6-12.31.93-14.39,12-35.77,15.14-41.55l.55,0c.2,0,.41,0,.61,0h0q.56,0,1.11,0c1.74,0,3.42-.15,5-.28h0Z"/><path class="cls-7" d="M142.26,474.53a259.92,259.92,0,0,1-16.61,21.66C115.43,508,103.49,518.61,98.49,511c-5.94-9.09,9.33-24,21.64-33.91h0c6.2-5,11.66-8.74,13.26-9.81l.59.66h0a33.3,33.3,0,0,0,6.46,5.54Q141.35,474,142.26,474.53Z"/><path class="cls-7" d="M125,436.11a31.62,31.62,0,0,0-.54,11.45c-9.8-.86-59.61-6-52.44-19.93,4.16-8.11,19.28-5.26,32.74-.71a192.52,192.52,0,0,1,20.44,8.39C125.1,435.58,125,435.84,125,436.11Z"/><path class="cls-7" d="M130.05,425.15c-.14.19-.27.37-.4.57a30.46,30.46,0,0,0-4.48,9.59c-.07.27-.13.53-.2.8-3.62-1.47-11.8-4.89-20.24-9.19C89.84,419.35,74.1,409.06,81,402c5-5.13,14.44-1.86,23.86,3.78h0C115.46,412.09,126,421.45,130.05,425.15Z"/><path class="cls-7" d="M137.87,417.41l-.6.45a35.28,35.28,0,0,0-4.16,3.64,34,34,0,0,0-3.06,3.65c-.14.19-.27.37-.4.57a241.88,241.88,0,0,1-24.81-20h0c-9.78-9.29-17-19.05-10.29-23.38,10.61-6.82,28.86,15.05,38.08,27.57l0,0C135.2,413.44,137.07,416.19,137.87,417.41Z"/><path class="cls-7" d="M148,411.79c-.3.11-.59.23-.89.36a44.65,44.65,0,0,0-9.23,5.26l-.6.45c-.55-.9-2.32-3.82-4.63-7.91l0,0c-8.93-15.79-25.91-49-11.92-51.24,9.7-1.52,16.8,13.58,21.34,28.18A208.39,208.39,0,0,1,148,411.79Z"/><path class="cls-7" d="M134.08,468.05s-6,4.18-13.94,9h0c-15.37,9.27-38.24,20.9-40.63,9.71-2.1-9.75,14.28-17.65,28.63-22.62a200.86,200.86,0,0,1,19.59-5.63c.18.4.38.81.59,1.2a37.87,37.87,0,0,0,4.82,7.2l.27.32.59.66h0Z"/><path class="cls-7" d="M128.31,459.72c-1.24.32-9.81,2.54-20.18,4.43-18.59,3.38-43,5.72-41.36-5.76,2.32-16.44,48-11.91,57.67-10.76a36.41,36.41,0,0,0,3.28,10.89C127.9,458.92,128.1,459.33,128.31,459.72Z"/><ellipse class="cls-8" cx="143.72" cy="450.88" rx="3.36" ry="1.76"/><ellipse class="cls-8" cx="184" cy="450.88" rx="3.36" ry="1.76"/><path class="cls-7" d="M158.89,409.23c-.36,0-.71.06-1.07.1-.93.1-1.85.24-2.74.41a37.88,37.88,0,0,0-7.09,2.05c-.3.11-.59.23-.89.36-.82-3.28-3.41-14-5.06-25.28-2.37-16.31-2.81-33.92,6.76-32.54,6.73,1,9.75,9.55,10.91,19.76h0C161.24,387.53,159.55,403.79,158.89,409.23Z"/><path class="cls-9" d="M159.71,374.09l.39-2.41s4.31,9.51,0,37.47l-1.21.08S162.87,396.06,159.71,374.09Z"/><path class="cls-9" d="M147.1,412.15l-.86.37s-3.2-7.64-5.07-28.36l1.11,4.29S145.17,405.09,147.1,412.15Z"/><path class="cls-9" d="M196,377.77s-3.91,15.16-14.15,36.94l-1.18-.69s4.41-5.63,14-34.53Z"/><path class="cls-9" d="M178.78,364l.61-1.4s-3,31-8.07,47.87l-1.49-.41S173.9,399.26,178.78,364Z"/><path class="cls-9" d="M132.62,409.93l-1-1.37a52,52,0,0,0,5.25,9.67l.77-.64A34.83,34.83,0,0,1,132.62,409.93Z"/><path class="cls-9" d="M104.84,405.74l-1.53-1.47s11.61,6.41,26.89,20.57l-.55.88S115.15,412.74,104.84,405.74Z"/><path class="cls-9" d="M104.73,426.92l-2.54-.83s3,2.85,22.64,10.66l.14-.64S111.66,430.63,104.73,426.92Z"/><path class="cls-9" d="M115.5,446.77s6.9.59,8.93.79l.09.58a51.53,51.53,0,0,1-10.84-1.5Z"/><path class="cls-9" d="M107.78,464.21a171.34,171.34,0,0,0,20.53-4.49l.36.67s-8.75,3.86-23.18,4.7Z"/><path class="cls-9" d="M134,467.91a79.27,79.27,0,0,0-13.87,9.15l-2.72,1.61a125.57,125.57,0,0,1,15.85-11.6Z"/><path class="cls-9" d="M125.65,496.19s14.87-17.9,16.61-21.66l1.21.63s-12,16.1-19,23.13Z"/><path class="cls-9" d="M152.23,477.56s-13.34,23.4-15.69,41.51c-.8,1.42-1,1.76-1,1.76s2.46-20.39,15.85-43.34Z"/><path class="cls-9" d="M150.13,528s12.15-20.16,12.24-51.08l.48-.06s.88,27.52-12.55,51.73A3.38,3.38,0,0,1,150.13,528Z"/><path class="cls-9" d="M167.25,525.35s-6.25-17-6-29.17l-.31,1.72s-.55,7.1,6.18,28.26Z"/><path class="cls-9" d="M176.51,473.28s2.67,10.32,5,25l.35.72a232.81,232.81,0,0,0-4.9-25.94Z"/><path class="cls-9" d="M197.77,490.13s-12.5-12.07-16.56-19.42l-.47.33s4.09,7.11,18.82,21.77Z"/><path class="cls-9" d="M188.77,463.29s27.59,14.9,37.67,26.85c.94.25-6.9-10-37.25-27.49Z"/><path class="cls-9" d="M219.89,465.61a199.28,199.28,0,0,1-26.42-13l-.2.71a182.78,182.78,0,0,0,28.39,13.29Z"/><path class="cls-9" d="M195.35,442.11s31.35,2.65,46.43,11.25l1.17-.13s-15.66-8.55-47.54-12Z"/><path class="cls-9" d="M196.16,406.88a39.46,39.46,0,0,1-10.36,10.55c.6.5.36.29.36.29s7.41-5.69,11.49-11.83Z"/><path class="cls-9" d="M211,416.56s-11.81,3.05-19,8l.22.39s9.41-5.58,16.48-7.41Z"/><path class="cls-9" d="M195.17,434.35s10.16.64,34.64-1.8l1.39.08s-9.94,2.11-35.92,2.62Z"/><path class="cls-1" d="M560.65,615.86c-7.32,27.88-4,82.76-2.17,105.54.51,6.42.9,10.29.9,10.29H548s-1.77-72.49,4.57-98.85,9.63-81.61,9.63-81.61l4.33-2.34,1.75-.95A246.1,246.1,0,0,1,560.65,615.86Z"/><path class="cls-2" d="M560.65,615.86c-7.32,27.88-4,82.76-2.17,105.54L555.76,723s-5.38-77.14,2.31-102.9c10-38.79,9.17-62.95,8.43-71.16l1.75-.95A246.1,246.1,0,0,1,560.65,615.86Z"/><path class="cls-1" d="M580.3,659.21c-11,9.51-25.28,12.72-25.28,12.72l0-13.18S568.51,636,579.4,625.82c6.92-6.5,12.8-8,13.55,4.67C593.72,643.55,587.73,652.81,580.3,659.21Z"/><path class="cls-1" d="M559.72,606.41s-1-.41-2.56-1.22c-5.85-3.07-19.46-11.83-16.33-25.77.59-2.63,1.41-4.06,2.38-4.58,5.53-3,15.87,23.5,15.87,23.5Z"/><path class="cls-3" d="M576.93,663.7q.5-.51,1-1A11.75,11.75,0,0,1,576.93,663.7Z"/><path class="cls-2" d="M580.3,659.21c7.59-10.21,13.8-23.58,9.87-35.3-1.72-5.16-10.77,1.91-10.77,1.91h0c6.92-6.5,12.8-8,13.55,4.67C593.72,643.55,587.73,652.81,580.3,659.21Z"/><path class="cls-4" d="M608.53,476c-4.78,16.57-17.89,23.26-39.21,23.9-7.64.23-15.23-4.05-20.84-10.66-10.05-11.85-13.75-31.17,0-45.42a43.4,43.4,0,0,1,22-11.77,36.78,36.78,0,0,1,18.34,1.26C612.36,441,613.31,459.47,608.53,476Z"/><path class="cls-5" d="M548.48,489.28c-10.05-11.85-13.75-31.17,0-45.42a43.4,43.4,0,0,1,22-11.77C556.24,438.27,534.46,453.91,548.48,489.28Z"/><path class="cls-6" d="M574.9,471.4c1.26,1.73,3.78,1.89,5.66,1.24a3.36,3.36,0,0,0,1.65-1.25.3.3,0,0,1,.42-.08.31.31,0,0,1,.13.24,2.59,2.59,0,0,1-.46,1.38,4.86,4.86,0,0,1-7.55,0c-.24-.36-.86-1.62-.14-1.71a.34.34,0,0,1,.29.17Z"/><path class="cls-6" d="M585.1,465.56c.37-3.58,3.88-6.15,7.39-6.44a8.75,8.75,0,0,1,7.77,3.21,4.36,4.36,0,0,1,1,2.93,1.75,1.75,0,0,1-3,1,7.64,7.64,0,0,1-1.2-1.7,6.2,6.2,0,0,0-4.53-2.9,6.46,6.46,0,0,0-6.85,4,.28.28,0,0,1-.54-.12Z"/><path class="cls-6" d="M571.48,465.68a6.46,6.46,0,0,0-6.85-4,6.2,6.2,0,0,0-4.53,2.9c-.7,1.34-2,3.15-3.65,1.84-1.16-1.13-.42-3,.41-4.09a8.75,8.75,0,0,1,7.77-3.21c3.51.29,7,2.86,7.39,6.44a.28.28,0,0,1-.54.12Z"/><path class="cls-7" d="M585.19,432.36h0l-.82-.17a36.85,36.85,0,0,0-10.12-.61l-1.07.1c-.09-5-.17-21.47,1.89-35.23h0c1.89-12.64,5.59-23,12.77-20.23,3.73,1.45,5.62,5.17,6.3,10.08C596.18,401,587.44,426.19,585.19,432.36Z"/><path class="cls-7" d="M611.52,429.24h0c-5.25,5.35-9.68,9.26-10.69,10.14l-.07.06a33.6,33.6,0,0,0-4.78-3.08h0c-1.1-.59-2.26-1.14-3.51-1.66l-1.7-1S600,415.22,610,401.85c7.58-10.07,15.64-17.25,20.59-11.46C638.18,399.23,622.92,417.62,611.52,429.24Z"/><path class="cls-7" d="M610,401.85c-4.33,16.48-14,34.53-14,34.53l-.1,0h0c-1.1-.59-2.26-1.14-3.51-1.66s-2.38-.94-3.68-1.35-2.4-.72-3.58-1h0l-.82-.17c.8-7.36,3.79-31.69,9.77-45.89,3.27-7.78,7.45-12.53,12.65-9.73C613.46,380.15,613,390.64,610,401.85Z"/><path class="cls-7" d="M624,439.89a181.49,181.49,0,0,1-17.35,5.94c-.16-.26-.33-.51-.5-.76a26.18,26.18,0,0,0-5.14-5.43h0l-.16-.26-1.13-1.71s5-3.86,11.82-8.43h0c13.54-9.09,34.22-21,36.89-10.81C650.67,427.05,636.63,434.79,624,439.89Z"/><path class="cls-7" d="M663.73,442.68c-.48,6.7-8.62,10.32-18.56,12.22h0c-12.74,2.46-28.42,2.09-34.64,1.81,0-.28-.07-.56-.12-.83a26,26,0,0,0-3.77-10.05c-.16-.26-.33-.51-.5-.76,2.69-.88,9.65-3.1,17.85-5.18C641.45,435.46,664.52,431.65,663.73,442.68Z"/><path class="cls-7" d="M663,486.23c-3.86,7-15.79,5.5-27.7,1.73h0a183.59,183.59,0,0,1-26.86-11.41q.07-.24.15-.51c.1-.34.2-.69.29-1q.79-2.91,1.31-5.84c.27-1.57.46-3.14.58-4.7,7.93,1,34,4.5,46.42,11.26C662.44,478.62,665.22,482.11,663,486.23Z"/><path class="cls-7" d="M671.55,467.4c-1.58,5.17-7.17,7.57-14.42,8.32-16.11,1.68-40.41-4.71-47-6.56.27-1.57.46-3.14.58-4.7a36.39,36.39,0,0,0-.19-7.75c0-.28-.07-.56-.12-.83a273.75,273.75,0,0,1,34.76-1h0C660.5,455.68,674.19,458.71,671.55,467.4Z"/><path class="cls-7" d="M653.49,510.79c-2.82,2.82-7,3-11.7,1.7-13.76-3.89-32.5-21.05-38-26.32l.36-.52a33,33,0,0,0,4.26-9.1q.07-.24.15-.51c.1-.34.2-.69.29-1a257.42,257.42,0,0,1,26.42,13h0C648.31,495.49,659.75,504.55,653.49,510.79Z"/><path class="cls-7" d="M621.51,545.27c-9.17,2.89-18.26-11.16-24.63-24.62h0A200.07,200.07,0,0,1,588,498.38l3.64-2.66.2-.09a32.16,32.16,0,0,0,4.71-2.56h0c.42-.28.82-.56,1.21-.86,1.89,2.26,8.86,10.72,15.35,20.27C622.49,526.27,630.85,542.32,621.51,545.27Z"/><path class="cls-7" d="M644.18,525.58c-7.29,5.88-20.35-3.21-31-13.1a199.53,199.53,0,0,1-17.26-18.31l.7-1.1h0c.42-.28.82-.56,1.21-.86a26.78,26.78,0,0,0,6-6l.36-.52c6.77,3.77,28.21,16.16,37.67,26.84C646.35,517.64,648.14,522.38,644.18,525.58Z"/><path class="cls-7" d="M590.16,554.23c-3.39-.5-5.83-2.94-7.56-6.53-6.33-13.14-3.17-41.84-2.29-48.76l.57-.1a46.52,46.52,0,0,0,10.78-3.12l.2-.09c.45,1.77,3.22,12.91,5,25h0C599.33,537.25,599.94,555.67,590.16,554.23Z"/><path class="cls-7" d="M582.6,547.7c-1.36,7.51-4.21,12.37-9.58,11-3.73-.92-6.1-4-7.54-8.34-4.81-14.57,1.08-43.18,2.72-50.46h1.12c1.73-.05,3.42-.14,5-.28h0q3.11-.26,5.94-.72l.57-.1C581.87,505.64,585.4,532.26,582.6,547.7Z"/><path class="cls-7" d="M567.59,499.92c-1.33,4.8-7.76,27.22-15.69,41.51-5.06,9.09-10.71,14.88-16,10.74-7.52-5.85-2-20.58,5.16-33.62a205.56,205.56,0,0,1,14.81-22.74c.59.38,1.19.75,1.8,1.08a23.72,23.72,0,0,0,9.41,3Z"/><path class="cls-7" d="M578.89,500.55s-4.39,37.19-13.41,49.85c-2.61,3.65-5.6,5.26-9,3.34-3.78-2.16-5-6.71-4.59-12.31.93-14.4,12-35.78,15.13-41.55l.56,0,.61,0h1.12c1.73-.05,3.42-.14,5-.28h0Z"/><path class="cls-7" d="M557.62,496.89A264.64,264.64,0,0,1,541,518.55c-10.22,11.8-22.17,22.41-27.16,14.77-5.94-9.09,9.32-24,21.63-33.91h0c6.2-5,11.65-8.73,13.25-9.81l.6.67h0a33.41,33.41,0,0,0,6.47,5.55C556.41,496.19,557,496.56,557.62,496.89Z"/><path class="cls-7" d="M540.33,458.47a31.4,31.4,0,0,0-.54,11.45c-9.8-.87-59.62-6-52.45-19.94,4.17-8.11,19.29-5.25,32.74-.71a195.05,195.05,0,0,1,20.45,8.39C540.46,457.93,540.39,458.2,540.33,458.47Z"/><path class="cls-7" d="M545.4,447.5l-.4.57a30.41,30.41,0,0,0-4.47,9.59c-.07.27-.14.54-.2.81-3.62-1.47-11.8-4.9-20.25-9.2-14.89-7.56-30.62-17.86-23.76-24.95,5-5.14,14.44-1.87,23.86,3.77h0C530.82,434.45,541.38,443.8,545.4,447.5Z"/><path class="cls-7" d="M553.23,439.76l-.6.45a34.7,34.7,0,0,0-4.16,3.65,35.27,35.27,0,0,0-3.07,3.64l-.4.57a242.56,242.56,0,0,1-24.81-20h0c-9.77-9.29-17-19-10.28-23.37,10.61-6.82,28.86,15,38.08,27.57v0C550.56,435.79,552.42,438.55,553.23,439.76Z"/><path class="cls-7" d="M563.35,434.14c-.3.11-.6.24-.89.36a45.31,45.31,0,0,0-9.23,5.26l-.6.45c-.55-.89-2.32-3.81-4.64-7.9v0c-8.93-15.79-25.91-49.05-11.93-51.24,9.71-1.53,16.81,13.58,21.35,28.17A211,211,0,0,1,563.35,434.14Z"/><path class="cls-7" d="M549.44,490.41s-6,4.17-13.94,9h0c-15.37,9.27-38.23,20.91-40.63,9.72-2.09-9.75,14.29-17.66,28.63-22.63a200.56,200.56,0,0,1,19.59-5.62c.18.4.38.8.59,1.19a38.75,38.75,0,0,0,4.82,7.21l.27.31.6.67h0Z"/><path class="cls-7" d="M543.66,482.07c-1.23.33-9.8,2.54-20.18,4.43-18.58,3.39-43,5.72-41.35-5.75,2.32-16.45,48-11.91,57.67-10.76a36.57,36.57,0,0,0,3.27,10.89C543.25,481.28,543.45,481.68,543.66,482.07Z"/><ellipse class="cls-8" cx="559.07" cy="473.24" rx="3.36" ry="1.76"/><ellipse class="cls-8" cx="599.35" cy="473.24" rx="3.36" ry="1.76"/><path class="cls-7" d="M574.25,431.58l-1.07.1c-.94.11-1.85.24-2.75.41a39.57,39.57,0,0,0-7.08,2.05c-.3.11-.6.24-.89.36-.83-3.28-3.41-14-5.06-25.28-2.38-16.3-2.82-33.92,6.75-32.53,6.74,1,9.75,9.55,10.92,19.76h0C576.59,409.89,574.91,426.14,574.25,431.58Z"/><path class="cls-9" d="M575.07,396.45l.38-2.42s4.32,9.52,0,37.48l-1.2.07S578.23,418.42,575.07,396.45Z"/><path class="cls-9" d="M562.46,434.5l-.86.37s-3.21-7.63-5.07-28.35l1.11,4.29S560.53,427.44,562.46,434.5Z"/><path class="cls-9" d="M611.37,400.12s-3.9,15.16-14.15,36.94c-.71-.42-1.18-.68-1.18-.68s4.42-5.63,14-34.53Z"/><path class="cls-9" d="M594.14,386.3l.61-1.4s-3,31-8.07,47.87l-1.49-.41S589.26,421.61,594.14,386.3Z"/><path class="cls-9" d="M548,432.29l-1-1.37a52.39,52.39,0,0,0,5.25,9.67L553,440A35.16,35.16,0,0,1,548,432.29Z"/><path class="cls-9" d="M520.19,428.1l-1.52-1.47s11.6,6.41,26.88,20.57l-.55.87S530.51,435.1,520.19,428.1Z"/><path class="cls-9" d="M520.08,449.27l-2.53-.82s3,2.85,22.63,10.65l.15-.63S527,453,520.08,449.27Z"/><path class="cls-9" d="M530.86,469.13s6.89.59,8.93.79l.08.58A52.23,52.23,0,0,1,529,469Z"/><path class="cls-9" d="M523.14,486.56a168.76,168.76,0,0,0,20.52-4.49l.36.68s-8.75,3.85-23.17,4.69Z"/><path class="cls-9" d="M549.35,490.26a80.36,80.36,0,0,0-13.87,9.15L532.76,501a125.31,125.31,0,0,1,15.85-11.6Z"/><path class="cls-9" d="M541,518.55s14.86-17.91,16.61-21.66l1.2.63s-12,16.1-18.94,23.12Z"/><path class="cls-9" d="M567.59,499.92s-13.34,23.39-15.69,41.51c-.8,1.41-1,1.76-1,1.76s2.47-20.4,15.85-43.34Z"/><path class="cls-9" d="M565.48,550.4s12.16-20.16,12.24-51.08l.49-.07s.87,27.52-12.55,51.73A3,3,0,0,1,565.48,550.4Z"/><path class="cls-9" d="M582.6,547.7s-6.25-17-6-29.17l-.3,1.72s-.56,7.1,6.18,28.26Z"/><path class="cls-9" d="M591.86,495.63s2.68,10.32,5,25l.35.73a232.36,232.36,0,0,0-4.9-25.94Z"/><path class="cls-9" d="M613.13,512.48s-12.5-12.07-16.56-19.41l-.47.32s4.09,7.11,18.81,21.77Z"/><path class="cls-9" d="M604.12,485.65s27.59,14.9,37.67,26.84c.94.25-6.89-10-37.24-27.48Z"/><path class="cls-9" d="M635.25,488a200.4,200.4,0,0,1-26.43-13l-.2.71A184.45,184.45,0,0,0,637,489Z"/><path class="cls-9" d="M610.71,464.46s31.35,2.66,46.42,11.26l1.17-.14s-15.65-8.55-47.54-12Z"/><path class="cls-9" d="M611.52,429.24a39.69,39.69,0,0,1-10.36,10.54c.6.51.36.29.36.29s7.41-5.69,11.49-11.83Z"/><path class="cls-9" d="M626.33,438.92s-11.82,3-19,8l.22.39s9.4-5.58,16.47-7.41Z"/><path class="cls-9" d="M610.52,456.71s10.17.64,34.64-1.81l1.4.08s-9.94,2.12-35.93,2.63Z"/><path class="cls-1" d="M342.68,483.74c-14.74,56.17-8,166.74-4.37,212.63,1,12.93,1.82,20.73,1.82,20.73h-23s-3.58-146,9.19-199.15,19.4-164.42,19.4-164.42l8.74-4.73,3.52-1.91S361.57,411.74,342.68,483.74Z"/><path class="cls-2" d="M342.68,483.74c-14.74,56.17-8,166.74-4.37,212.63l-5.48,3.11S322,544.08,337.48,492.17C357.55,414,356,365.34,354.48,348.8l3.52-1.91S361.57,411.74,342.68,483.74Z"/><path class="cls-1" d="M344.45,421s-2.66-1.08-6.76-3.23c-15.43-8.08-51.35-31.19-43.07-68,1.56-6.94,3.72-10.7,6.27-12.08,14.6-7.85,41.88,62,41.88,62Z"/><path class="cls-1" d="M362.76,533.53c-13.28,10.5-30,13.53-30,13.53l.68-15.29s16.72-25.71,29.86-37c8.35-7.2,15.25-8.6,15.5,6.08C379.1,516,371.7,526.46,362.76,533.53Z"/><path class="cls-2" d="M362.76,533.53c9.31-11.48,17.17-26.7,13.18-40.5-1.75-6.07-12.6,1.69-12.6,1.69h0c8.35-7.2,15.25-8.6,15.5,6.08C379.1,516,371.7,526.46,362.76,533.53Z"/><path class="cls-4" d="M439.15,202c-9.62,33.38-36,46.86-79,48.15-15.39.46-30.68-8.17-42-21.49-20.25-23.87-27.7-62.79,0-91.5,0,0,17.16-18.63,44.26-23.71a74.18,74.18,0,0,1,37,2.53C446.86,131.43,448.78,168.66,439.15,202Z"/><path class="cls-5" d="M318.17,228.7c-20.25-23.87-27.7-62.79,0-91.5,0,0,17.16-18.63,44.26-23.71C333.8,125.94,289.92,157.44,318.17,228.7Z"/><path class="cls-6" d="M371.39,192.68c2.55,3.49,7.62,3.82,11.41,2.51a6.85,6.85,0,0,0,3.33-2.53.6.6,0,0,1,.84-.16.64.64,0,0,1,.26.49,5.18,5.18,0,0,1-.92,2.77c-3.44,4.85-11.76,4.86-15.22,0-.49-.72-1.72-3.26-.28-3.45a.68.68,0,0,1,.58.34Z"/><path class="cls-10" d="M392.13,114h0l-1.65-.35a73.59,73.59,0,0,0-20.39-1.22c-.72,0-1.44.12-2.15.2-.17-10.15-.34-43.26,3.8-71h0C375.54,16.22,383-4.69,397.46.92c7.53,2.92,11.32,10.43,12.69,20.32C414.27,50.82,396.66,101.61,392.13,114Z"/><path class="cls-11" d="M445.17,107.74h0c-10.58,10.77-19.51,18.65-21.55,20.42l-.14.13a65.78,65.78,0,0,0-9.62-6.2h0c-2.22-1.18-4.56-2.3-7.07-3.34l-3.43-2s18.58-37.21,38.84-64.14c15.28-20.29,31.51-34.76,41.49-23.09C498.89,47.28,468.14,84.33,445.17,107.74Z"/><path class="cls-12" d="M442.17,52.56C433.45,85.76,414,122.13,414,122.13l-.19,0h0c-2.22-1.18-4.56-2.3-7.07-3.34-2.34-1-4.81-1.89-7.41-2.73s-4.85-1.45-7.22-2h0l-1.65-.35c1.61-14.82,7.64-63.85,19.68-92.45,6.6-15.69,15-25.24,25.5-19.61C449.09,8.84,448.11,30,442.17,52.56Z"/><path class="cls-13" d="M470.28,129.2c-15.11,6.1-29.23,10.33-34.95,12q-.49-.78-1-1.53A52.32,52.32,0,0,0,424,128.7h0l-.34-.52-2.26-3.44s10.09-7.78,23.81-17h0C472.45,89.43,514.11,65.51,519.49,86,524.05,103.33,495.77,118.93,470.28,129.2Z"/><path class="cls-14" d="M550.36,134.83c-1,13.5-17.37,20.79-37.38,24.62h0c-25.68,4.94-57.27,4.2-69.79,3.64-.07-.56-.16-1.12-.25-1.68a52.3,52.3,0,0,0-7.59-20.24q-.49-.78-1-1.53c5.42-1.78,19.45-6.24,36-10.44C505.48,120.28,552,112.6,550.36,134.83Z"/><path class="cls-15" d="M548.8,222.57C541,236.72,517,233.65,493,226.06h0c-22.57-7.16-45.12-18.32-54.12-23,.11-.34.21-.68.31-1,.2-.7.4-1.4.59-2.11,1.06-3.89,1.95-7.82,2.63-11.76.54-3.16.94-6.32,1.17-9.46,16,1.91,68.6,9.07,93.53,22.68C547.77,207.24,553.37,214.26,548.8,222.57Z"/><path class="cls-16" d="M566.11,184.62c-3.17,10.43-14.43,15.25-29,16.77-32.46,3.39-81.42-9.49-94.7-13.22.54-3.16.94-6.32,1.17-9.46a74.55,74.55,0,0,0-.37-15.62c-.07-.56-.16-1.12-.25-1.68,11.51-1,42.13-3.35,70-2h0C543.86,161,571.43,167.12,566.11,184.62Z"/><path class="cls-17" d="M529.74,272.05c-5.68,5.67-14,6.13-23.57,3.43-27.74-7.85-65.49-42.41-76.63-53,.25-.34.49-.69.73-1.05a65.62,65.62,0,0,0,8.57-18.32c.11-.34.21-.68.31-1,.2-.7.4-1.4.59-2.11,8.32,3.52,31.84,13.8,53.22,26.12h0C519.29,241.23,542.34,259.48,529.74,272.05Z"/><path class="cls-18" d="M465.31,341.51c-18.49,5.82-36.79-22.48-49.64-49.6a0,0,0,0,0,0,0A402.77,402.77,0,0,1,397.83,247l7.34-5.35.4-.18a64.18,64.18,0,0,0,9.48-5.17h0c.84-.55,1.64-1.12,2.44-1.72,3.8,4.55,17.84,21.6,30.91,40.84C467.28,303.24,484.13,335.58,465.31,341.51Z"/><path class="cls-19" d="M511,301.84c-14.68,11.85-41-6.46-62.56-26.38a401,401,0,0,1-34.77-36.9l1.41-2.22h0c.84-.55,1.64-1.12,2.44-1.72a54.36,54.36,0,0,0,12-12.18c.25-.34.49-.69.73-1.05,13.64,7.6,56.83,32.57,75.9,54.09C515.35,285.84,519,295.4,511,301.84Z"/><path class="cls-20" d="M402.15,359.56c-6.83-1-11.75-5.91-15.23-13.15-12.76-26.47-6.4-84.3-4.62-98.24l1.14-.19a94.22,94.22,0,0,0,21.73-6.29l.4-.18c.91,3.56,6.49,26,10.09,50.39a0,0,0,0,1,0,0C420.61,325.36,421.84,362.47,402.15,359.56Z"/><path class="cls-21" d="M386.92,346.41c-2.74,15.12-8.49,24.92-19.32,22.24-7.5-1.85-12.29-8.08-15.18-16.81-9.7-29.35,2.18-87,5.47-101.65h0q1.13,0,2.25,0,5.25-.15,10.17-.56h0c4.17-.34,8.15-.83,12-1.46l1.14-.19C385.43,261.67,392.56,315.3,386.92,346.41Z"/><path class="cls-22" d="M356.67,250.14C354,259.82,341,305,325.05,333.77c-10.18,18.32-21.57,30-32.32,21.64-15.16-11.78-4.11-41.45,10.38-67.73A417.08,417.08,0,0,1,333,241.86c1.19.78,2.4,1.51,3.63,2.18a47.49,47.49,0,0,0,19,6C355.92,250.1,356.3,250.12,356.67,250.14Z"/><path class="cls-23" d="M379.43,251.41s-8.84,74.94-27,100.43c-5.26,7.37-11.29,10.61-18.11,6.73-7.62-4.34-10-13.51-9.26-24.8,1.88-29,24.2-72.07,30.5-83.71.37,0,.75.06,1.12.08s.81,0,1.22.05h0q1.13,0,2.25,0,5.25-.15,10.17-.56h0Z"/><path class="cls-24" d="M336.58,244a531.33,531.33,0,0,1-33.47,43.64c-20.59,23.78-44.65,45.16-54.72,29.76-12-18.31,18.79-48.33,43.59-68.32l0,0c12.49-10.07,23.48-17.59,26.71-19.76.4.46.79.9,1.2,1.34h0a67,67,0,0,0,13,11.17C334.14,242.64,335.35,243.37,336.58,244Z"/><path class="cls-25" d="M301.74,166.63a63.5,63.5,0,0,0-1.08,23.07c-19.75-1.74-120.11-12-105.67-40.16,8.39-16.34,38.86-10.59,66-1.43A390.19,390.19,0,0,1,302.15,165C302,165.55,301.87,166.09,301.74,166.63Z"/><path class="cls-26" d="M312,144.54c-.28.38-.55.76-.81,1.15a61.2,61.2,0,0,0-9,19.32c-.15.54-.28,1.08-.41,1.62-7.29-3-23.77-9.86-40.78-18.52-30-15.25-61.7-36-47.87-50.28,10-10.35,29.09-3.76,48.07,7.6h0C282.58,118.24,303.87,137.09,312,144.54Z"/><path class="cls-27" d="M327.73,129c-.42.3-.82.6-1.21.9a71,71,0,0,0-8.38,7.35,69.18,69.18,0,0,0-6.17,7.34c-.28.38-.55.76-.81,1.15-8.45-6-31.47-22.68-50-40.25h0c-19.7-18.71-34.28-38.38-20.72-47.09,21.37-13.74,58.14,30.31,76.72,55.55l0,0C322.35,121,326.11,126.5,327.73,129Z"/><path class="cls-28" d="M348.12,117.61c-.6.23-1.2.48-1.79.73A89.86,89.86,0,0,0,327.73,129c-.42.3-.82.59-1.21.89-1.1-1.8-4.67-7.68-9.33-15.92l0,0c-8.74-15.43-21.29-39.18-28.68-60-7.83-22.1-9.85-40.95,4.65-43.22,13.27-2.07,24.13,11.27,32.59,29.26a216.52,216.52,0,0,1,10.42,27.51A420.49,420.49,0,0,1,348.12,117.61Z"/><path class="cls-29" d="M320.1,231s-12,8.41-28.09,18.12l0,0c-31,18.68-77,42.12-81.86,19.58-4.22-19.65,28.78-35.57,57.69-45.59a406.74,406.74,0,0,1,39.46-11.33c.37.81.77,1.62,1.19,2.41a77.35,77.35,0,0,0,9.71,14.51l.55.64c.4.46.79.9,1.2,1.34h0Z"/><path class="cls-30" d="M308.46,214.19c-2.49.65-19.75,5.12-40.65,8.92-37.45,6.82-86.57,11.53-83.32-11.59,4.67-33.13,96.63-24,116.19-21.68a73.36,73.36,0,0,0,6.59,21.94C307.64,212.59,308,213.4,308.46,214.19Z"/><ellipse class="cls-8" cx="339.51" cy="196.39" rx="6.78" ry="3.54"/><ellipse class="cls-8" cx="420.66" cy="196.39" rx="6.78" ry="3.54"/><path class="cls-31" d="M370.08,112.47c-.72,0-1.44.12-2.15.2q-2.83.31-5.53.82a78.38,78.38,0,0,0-14.28,4.13c-.6.23-1.2.48-1.79.73-1.66-6.61-6.87-28.14-10.19-50.93-4.79-32.85-5.68-68.34,13.6-65.55,13.57,2,19.65,19.24,22,39.81h0C374.81,68.76,371.41,101.51,370.08,112.47Z"/><path class="cls-32" d="M371.73,41.68l.79-4.86s8.69,19.16,0,75.5l-2.44.15S378.11,85.94,371.73,41.68Z"/><path class="cls-32" d="M346.33,118.35l-1.73.75S338.14,103.71,334.39,62l2.23,8.63S342.44,104.12,346.33,118.35Z"/><path class="cls-32" d="M444.88,49.08S437,79.63,416.37,123.5c-1.44-.84-2.38-1.37-2.38-1.37s8.9-11.35,28.18-69.57Z"/><path class="cls-32" d="M410.15,21.24l1.24-2.82s-6.05,62.4-16.27,96.44l-3-.82S400.33,92.38,410.15,21.24Z"/><path class="cls-32" d="M317.16,113.89l-2.05-2.77s2.74,7.57,10.57,19.49l1.55-1.29A70.33,70.33,0,0,1,317.16,113.89Z"/><path class="cls-32" d="M261.18,105.44l-3.07-3s23.38,12.91,54.16,41.45l-1.11,1.76S282,119.55,261.18,105.44Z"/><path class="cls-32" d="M261,148.11l-5.11-1.67s6.06,5.74,45.6,21.47l.29-1.28S274.93,155.59,261,148.11Z"/><path class="cls-32" d="M282.67,188.11s13.89,1.19,18,1.59l.17,1.17a104.81,104.81,0,0,1-21.83-3Z"/><path class="cls-32" d="M267.11,223.24a343,343,0,0,0,41.35-9.05l.73,1.36s-17.62,7.77-46.7,9.45Z"/><path class="cls-32" d="M319.93,230.69A160.35,160.35,0,0,0,292,249.12l-5.48,3.26s10.9-10,31.94-23.37Z"/><path class="cls-32" d="M303.11,287.68S333.06,251.6,336.58,244l2.43,1.27s-24.08,32.43-38.18,46.59Z"/><path class="cls-32" d="M356.67,250.14s-26.88,47.13-31.62,83.63c-1.61,2.86-2,3.55-2,3.55S328,296.23,355,250Z"/><path class="cls-32" d="M352.42,351.84s24.49-40.62,24.66-102.91l1-.13s1.76,55.44-25.28,104.22A6,6,0,0,1,352.42,351.84Z"/><path class="cls-32" d="M386.92,346.41s-12.59-34.25-12.15-58.77l-.61,3.47s-1.12,14.31,12.45,56.94Z"/><path class="cls-32" d="M405.57,241.51s5.4,20.79,10.09,50.39l.7,1.45a468.84,468.84,0,0,0-9.87-52.26Z"/><path class="cls-32" d="M448.41,275.46s-25.18-24.33-33.36-39.12l-.95.65s8.25,14.33,37.91,43.87Z"/><path class="cls-32" d="M430.27,221.39s55.59,30,75.9,54.09c1.89.5-13.9-20.23-75-55.38Z"/><path class="cls-32" d="M493,226.06a403,403,0,0,1-53.24-26.13l-.4,1.44a370.52,370.52,0,0,0,57.2,26.77Z"/><path class="cls-32" d="M443.54,178.71s63.16,5.34,93.53,22.68l2.37-.28S507.89,183.88,443.65,177Z"/><path class="cls-32" d="M445.17,107.74A79.77,79.77,0,0,1,424.3,129c1.21,1,.73.59.73.59S440,118.1,448.18,105.74Z"/><path class="cls-32" d="M475,127.24s-23.8,6.14-38.36,16.1l.45.79s18.95-11.24,33.18-14.93Z"/><path class="cls-32" d="M443.17,163.09s20.48,1.29,69.79-3.64l2.81.16s-20,4.26-72.38,5.29Z"/><path class="cls-6" d="M358.35,176c-2.23-5.6-10-6.63-14.58-3.69a10.43,10.43,0,0,0-3.4,3.9,1.38,1.38,0,0,1-1.95.55c-1.44-1.09-.15-3.61.64-4.77a11.49,11.49,0,0,1,9.83-4.62c4.75.12,9.64,3.65,10.19,8.46a.38.38,0,0,1-.73.17Z"/><circle class="cls-6" cx="352.42" cy="176.77" r="6.77"/><circle class="cls-33" cx="347.53" cy="173.28" r="1.88"/><circle class="cls-33" cx="349.83" cy="176.35" r="0.71"/><path class="cls-6" d="M397.88,175.8c.55-4.81,5.44-8.34,10.19-8.46,4.79-.28,10.78,3,11.1,8.25a1.36,1.36,0,0,1-2.58.59c-3.12-7-14.9-7.59-18-.21a.38.38,0,0,1-.73-.17Z"/><circle class="cls-6" cx="404.54" cy="176.77" r="6.77"/><circle class="cls-33" cx="409.43" cy="173.28" r="1.88"/><circle class="cls-33" cx="407.13" cy="176.35" r="0.71"/><path class="cls-34" d="M544.06,752.76h0c-190.19.86-544-3.82-544-3.82l25.06-8.18s71.18-43.56,101.25-41.51,36.11-12.93,49.12-8.17,55.16-2.56,63.17-.94c4.6.92,22.38-2.58,41-3.84,13.9-1,28.27-.7,37.84,3.6,22.41,10,45.71-9.32,62.14-4.06s112.67,1.16,114.68,9.32,89.23,28.59,103.25,38.12,56.16,6.8,64.17,15.66C663.86,751.36,615.53,752.44,544.06,752.76Z"/><path class="cls-35" d="M544.06,752.76h0s-27.83-16.08-31.6-17.1-48.51-34.71-56-28.59-77.07-11-82.34-15.87-36.07,14.33-48.5,4.9-46-9.8-46-9.8c13.9-1,28.27-.7,37.84,3.6,22.41,10,45.71-9.32,62.14-4.06s112.67,1.16,114.68,9.32,89.23,28.59,103.25,38.12,56.16,6.8,64.17,15.66C663.86,751.36,615.53,752.44,544.06,752.76Z"/></g></g></svg>