<svg xmlns="http://www.w3.org/2000/svg" xmlns:xlink="http://www.w3.org/1999/xlink" viewBox="0 0 661.75 755.2"><defs><style>.cls-1{fill:#5aba97;}.cls-2{fill:#63c6a0;}.cls-3{fill:#82d16f;}.cls-4{fill:#f5ffff;}.cls-5{fill:#efedee;}.cls-6{fill:#302826;}.cls-7{fill:#efefef;}.cls-8{fill:#ff6e79;opacity:0.35;}.cls-9{fill:#ffcd50;}.cls-10{fill:#ffc033;}.cls-11{fill:url(#Dégradé_sans_nom_19);}.cls-12{fill:url(#Dégradé_sans_nom_19-2);}.cls-13{fill:url(#Dégradé_sans_nom_19-3);}.cls-14{fill:url(#Dégradé_sans_nom_19-4);}.cls-15{fill:url(#Dégradé_sans_nom_19-5);}.cls-16{fill:url(#Dégradé_sans_nom_19-6);}.cls-17{fill:url(#Dégradé_sans_nom_19-7);}.cls-18{fill:url(#Dégradé_sans_nom_19-8);}.cls-19{fill:url(#Dégradé_sans_nom_19-9);}.cls-20{fill:url(#Dégradé_sans_nom_19-10);}.cls-21{fill:url(#Dégradé_sans_nom_19-11);}.cls-22{fill:url(#Dégradé_sans_nom_19-12);}.cls-23{fill:url(#Dégradé_sans_nom_19-13);}.cls-24{fill:url(#Dégradé_sans_nom_19-14);}.cls-25{fill:url(#Dégradé_sans_nom_19-15);}.cls-26{fill:url(#Dégradé_sans_nom_19-16);}.cls-27{fill:url(#Dégradé_sans_nom_19-17);}.cls-28{fill:url(#Dégradé_sans_nom_19-18);}.cls-29{fill:url(#Dégradé_sans_nom_19-19);}.cls-30{fill:url(#Dégradé_sans_nom_19-20);}.cls-31{fill:url(#Dégradé_sans_nom_19-21);}.cls-32{fill:url(#Dégradé_sans_nom_19-22);}.cls-33{opacity:0.03;}.cls-34{fill:#4f2f2f;}.cls-35{fill:#593636;}</style><linearGradient id="Dégradé_sans_nom_19" x1="400.25" y1="-3.51" x2="382.89" y2="117.01" gradientUnits="userSpaceOnUse"><stop offset="0" stop-color="#cc275a"/><stop offset="0.02" stop-color="#cf3968"/><stop offset="0.06" stop-color="#d76287"/><stop offset="0.11" stop-color="#de88a4"/><stop offset="0.17" stop-color="#e5a8bd"/><stop offset="0.23" stop-color="#eac4d2"/><stop offset="0.3" stop-color="#eedae2"/><stop offset="0.38" stop-color="#f1ebef"/><stop offset="0.48" stop-color="#f3f6f8"/><stop offset="0.61" stop-color="#f5fdfe"/><stop offset="1" stop-color="#f5ffff"/></linearGradient><linearGradient id="Dégradé_sans_nom_19-2" x1="495.24" y1="18.1" x2="409.96" y2="129.93" xlink:href="#Dégradé_sans_nom_19"/><linearGradient id="Dégradé_sans_nom_19-3" x1="443.46" y1="-8.17" x2="399.03" y2="128.17" xlink:href="#Dégradé_sans_nom_19"/><linearGradient id="Dégradé_sans_nom_19-4" x1="526.33" y1="83.37" x2="438.5" y2="129.33" xlink:href="#Dégradé_sans_nom_19"/><linearGradient id="Dégradé_sans_nom_19-5" x1="570.61" y1="133.85" x2="417.42" y2="152.24" xlink:href="#Dégradé_sans_nom_19"/><linearGradient id="Dégradé_sans_nom_19-6" x1="561.23" y1="228.9" x2="434.59" y2="183.45" xlink:href="#Dégradé_sans_nom_19"/><linearGradient id="Dégradé_sans_nom_19-7" x1="594.94" y1="187.15" x2="421.33" y2="172.34" xlink:href="#Dégradé_sans_nom_19"/><linearGradient id="Dégradé_sans_nom_19-8" x1="545.05" y1="277.96" x2="434.24" y2="211.58" xlink:href="#Dégradé_sans_nom_19"/><linearGradient id="Dégradé_sans_nom_19-9" x1="472.59" y1="350.22" x2="409.27" y2="238.39" xlink:href="#Dégradé_sans_nom_19"/><linearGradient id="Dégradé_sans_nom_19-10" x1="523.97" y1="312.76" x2="426.44" y2="229.01" xlink:href="#Dégradé_sans_nom_19"/><linearGradient id="Dégradé_sans_nom_19-11" x1="406.78" y1="371.25" x2="395.54" y2="245.64" xlink:href="#Dégradé_sans_nom_19"/><linearGradient id="Dégradé_sans_nom_19-12" x1="369.01" y1="381.68" x2="374.63" y2="244.83" xlink:href="#Dégradé_sans_nom_19"/><linearGradient id="Dégradé_sans_nom_19-13" x1="287.33" y1="370.86" x2="351.16" y2="240.14" xlink:href="#Dégradé_sans_nom_19"/><linearGradient id="Dégradé_sans_nom_19-14" x1="334.04" y1="367.89" x2="370.8" y2="249.94" xlink:href="#Dégradé_sans_nom_19"/><linearGradient id="Dégradé_sans_nom_19-15" x1="241.11" y1="325.89" x2="335.58" y2="233.46" xlink:href="#Dégradé_sans_nom_19"/><linearGradient id="Dégradé_sans_nom_19-16" x1="189.16" y1="143.23" x2="311.72" y2="185.1" xlink:href="#Dégradé_sans_nom_19"/><linearGradient id="Dégradé_sans_nom_19-17" x1="211" y1="94.33" x2="309.04" y2="156.12" xlink:href="#Dégradé_sans_nom_19"/><linearGradient id="Dégradé_sans_nom_19-18" x1="238.68" y1="52.32" x2="325.49" y2="142.7" xlink:href="#Dégradé_sans_nom_19"/><linearGradient id="Dégradé_sans_nom_19-19" x1="293.29" y1="6.2" x2="340.61" y2="122.96" xlink:href="#Dégradé_sans_nom_19"/><linearGradient id="Dégradé_sans_nom_19-20" x1="202.78" y1="275.77" x2="318.18" y2="217.56" xlink:href="#Dégradé_sans_nom_19"/><linearGradient id="Dégradé_sans_nom_19-21" x1="178.31" y1="215.85" x2="306.48" y2="197.98" xlink:href="#Dégradé_sans_nom_19"/><linearGradient id="Dégradé_sans_nom_19-22" x1="350.33" y1="-6.82" x2="362.93" y2="120.16" xlink:href="#Dégradé_sans_nom_19"/></defs><g id="Calque_2" data-name="Calque 2"><g id="Calque_1-2" data-name="Calque 1"><path class="cls-1" d="M144.34,588.75c-8,30.34-4.34,90.07-2.36,114.86.55,7,1,11.2,1,11.2H130.54s-1.93-78.89,5-107.58S147.9,503.62,147.9,503.62l4.72-2.55,1.9-1S154.54,549.86,144.34,588.75Z"/><path class="cls-2" d="M144.34,588.75c-8,30.34-4.34,90.07-2.36,114.86l-3,1.68s-5.86-83.94,2.51-112c10.84-42.21,11.89-79.92,11.09-88.85l1.9-1S154.54,549.86,144.34,588.75Z"/><path class="cls-1" d="M142.41,574.18s-1-.41-2.55-1.23c-5.83-3.05-19.39-11.77-16.26-25.67.58-2.62,1.4-4,2.36-4.55,5.52-3,15.82,23.41,15.82,23.41Z"/><path class="cls-3" d="M162.06,640.82l1.05-1.11A14,14,0,0,1,162.06,640.82Z"/><path class="cls-1" d="M163.14,573.22a41.46,41.46,0,0,1-17.37,3.72l2.11-8s11.76-11.66,20-16.15c5.23-2.84,9-2.8,7.49,5C173.77,565.83,168.67,570.5,163.14,573.22Z"/><path class="cls-2" d="M163.14,573.22c6.23-5,12.11-12.14,11.58-19.88-.23-3.4-6.84-.54-6.84-.54h0c5.23-2.84,9-2.8,7.49,5C173.77,565.83,168.67,570.5,163.14,573.22Z"/><path class="cls-4" d="M240.7,435.2c-1.43,1.67-4.36,2.79-3.36,3.6s2.95,3.44,2,4.06-3.55,3.14-3.64,3.14a14.36,14.36,0,0,0-1,1.6s4.39,5.3,2.86,5.8-1,3.67-1.83,4.08.95,4.36-1.72,3.65,1.41,3.1-.1,4-2.19,6.35-3.27,5.63c-.53-.36-1.69-.12-2.7.21a2.09,2.09,0,0,0-1.38,2.43c.47,2.28,1,6-.35,6.16a22.83,22.83,0,0,1-2.8.11,2.1,2.1,0,0,0-2.13,2.29c.18,1.93.21,4.28-.7,4a11.26,11.26,0,0,0-3.43-.14,2.09,2.09,0,0,0-1.89,1.57c-.37,1.42-1,3.45-1.45,3.74a14.47,14.47,0,0,1-3.28.82,2.12,2.12,0,0,0-1.72,1.73,6.43,6.43,0,0,1-1,2.87,5.94,5.94,0,0,1-2.6,2,9.12,9.12,0,0,1-3.2.18,2.1,2.1,0,0,0-2.15,1.45c-.15.48-.36.87-.67.87-.76,0-3.72,3.89-4.79,3.51s-5.63,2.12-6.39,1.59a9.16,9.16,0,0,0-2-.9s-5.89,6.94-8,6c-1.51-.63-3.76-1.69-5-2.27a2.1,2.1,0,0,0-1.7,0c-2.42,1-9.12,3.79-8.94,3.12s-1.74.1-2.75-.4a5.65,5.65,0,0,1-1.83-2.34s-5.68,3.65-7.11,2.84-2.53-2.74-3.34-2.84-1.36-1.65-1.36-1.65-1.48,2.15-3.1,1.65-4,.81-5.08,0-3.24-2.34-3.77-3.55-4.15,1.79-5.27.26-8.11-2.6-6.75-4.51.86-3.27.86-3.27-3.39,2-5.42.93c-1.15-.63-1.61-2.42-1.79-3.86a2.09,2.09,0,0,0-2.13-1.81,4.05,4.05,0,0,1-2.32-.48c-1.27-.91-4.46-1.62-4.82-2.53s-2.29-3.05-2.1-4.05a24.49,24.49,0,0,0-.36-4.65s-1.55,2.64-3.08,1.26c-1-.92-1.45-4.24-1.62-6.27a2.09,2.09,0,0,0-1.6-1.86c-.56-.14-1-.34-.81-.62.46-.6-.12-3.22-.12-3.22s-6.2,2.45-6.13-1.34-2.21-6.87-1.74-6.87.22-4.41.84-5a3.64,3.64,0,0,0,.52-2.14s-5.7-2.2-5.17-3.73c.33-1,1.72-3.85,2.66-5.77a2.11,2.11,0,0,0-.83-2.75c-1.37-.8-3-2-2.9-3.07s1.78-2.62,3-3.62a2.08,2.08,0,0,0,.49-2.72A24.8,24.8,0,0,0,84.64,430c-1.88-1.47.55-5.29.74-5.73.83-2,4-2.29,4-2.29s-2.88-2.47-2.21-3.9c.54-1.15.58-5.63,1.72-5.63a6.59,6.59,0,0,0,2.78-1.11s-2.18-3.6-1.51-4.12,1.14-6.54,2.74-7.16,4.6-2.39,5.08-2.53.91-1,.91-1l.25-1.88s-8.31-7-2.68-8a30.12,30.12,0,0,1,5.61-.39,2.09,2.09,0,0,0,2-2.74c-.46-1.45-.56-3,.73-3.54a21.4,21.4,0,0,1,6.71-1.1,2.08,2.08,0,0,0,2-1.91c.19-2.28.76-5.84,2.41-5.84a10.29,10.29,0,0,1,2.89.51,2.12,2.12,0,0,0,2.69-2.09c0-2.92.27-6.63,2.17-5.58,1,.58,2.12,1.24,3.09,1.87a2.1,2.1,0,0,0,3.23-1.7c.09-3.11.63-6.7,2.82-5.35,3.64,2.29,5.79,1.7,7.15,2.29a19.42,19.42,0,0,1,2,1.13,2.11,2.11,0,0,0,2.78-.5c1.25-1.61,3.27-3.79,4.65-3.2a9.5,9.5,0,0,1,2.65,1.84,2.07,2.07,0,0,0,2.57.21c1.68-1.1,4.38-2.72,5.89-2.81a3.67,3.67,0,0,1,2.91,1.73,2.11,2.11,0,0,0,2.81.51c2.11-1.32,5.54-3.17,6.76-2.24a11.53,11.53,0,0,1,2.34,2.66,2,2,0,0,0,2.43.81,4.12,4.12,0,0,1,2.38-.14,7.47,7.47,0,0,1,4.46,3,2,2,0,0,0,1.78.8,50.38,50.38,0,0,1,6.86-.11c1.83.31,4.72-.45,4.89.62.06.51.2,1.81.32,3a2.12,2.12,0,0,0,2.75,1.79c1.8-.58,3.91-1.11,3.91-.41,0,1.21-.45,4,1.08,4s7.15-.62,6.08.31-1.86,4.86.14,4.86,5.34-.62,5,1.08a34.46,34.46,0,0,0,0,5.41,2.1,2.1,0,0,0,1,1.68c1.19.74,3.11,2,3.32,2.64a12.36,12.36,0,0,1,.42,1.82,2.09,2.09,0,0,0,1.34,1.59c1.78.66,5.05,2.06,5.33,3.67a13.33,13.33,0,0,1-.32,4.43,2.1,2.1,0,0,0,.83,2.14c1.58,1.15,4.21,3.28,4,4.62a5.59,5.59,0,0,1-.59,1.89,2.14,2.14,0,0,0,.46,2.61c1.11,1,2.45,2.31,2.5,3.18a10.91,10.91,0,0,1-.89,3.46,2,2,0,0,0,.41,2.2,11.21,11.21,0,0,1,2.6,4.43,3.91,3.91,0,0,1,0,3,2.05,2.05,0,0,0,1.14,2.72c.73.31,1.25.68,1.14,1.08C239.77,433.63,242.11,433.51,240.7,435.2Z"/><path class="cls-5" d="M151.18,512.81a1.62,1.62,0,0,1-.79-.17,9.39,9.39,0,0,1-2-1.74c-.38-.4-.94-1-1.16-1a2.13,2.13,0,0,1-1.43-1.19,3.24,3.24,0,0,1-3.13,1.17,5.25,5.25,0,0,0-2.31.1,3.88,3.88,0,0,1-2.93-.18c-1.63-1.19-3.38-2.52-3.93-3.75a4.89,4.89,0,0,0-1.46.41c-1.3.48-2.92,1.08-3.77-.07a9,9,0,0,0-3-1.52c-2-.75-3.63-1.4-4-2.47a1.28,1.28,0,0,1,.22-1.15,4.12,4.12,0,0,0,.84-2.11c-1.18.57-3.54,1.46-5.21.56-1.1-.6-1.8-2-2.08-4.28a1.54,1.54,0,0,0-1.55-1.33h0a4.5,4.5,0,0,1-2.65-.58,12.16,12.16,0,0,0-2.15-1c-1.38-.55-2.56-1-2.86-1.76a8.78,8.78,0,0,0-.74-1.21c-.76-1.12-1.55-2.28-1.38-3.14a15.76,15.76,0,0,0-.19-3.23,2.77,2.77,0,0,1-1.5.86,1.88,1.88,0,0,1-1.58-.52c-.9-.8-1.51-3-1.8-6.63a1.55,1.55,0,0,0-1.19-1.38c-.73-.18-1.09-.41-1.22-.76a.71.71,0,0,1,.11-.7,5.42,5.42,0,0,0-.1-2.18c-1.21.4-3.84,1.08-5.28.08a2.4,2.4,0,0,1-1-2.15,13.16,13.16,0,0,0-1.42-5.66c-.35-.8-.5-1.13-.28-1.47a.57.57,0,0,1,.15-.16,14.25,14.25,0,0,0,.15-1.66c.13-1.93.23-2.89.66-3.31a2.53,2.53,0,0,0,.36-1.39c-2-.79-5.73-2.54-5.14-4.26.33-1,1.65-3.72,2.69-5.84a1.55,1.55,0,0,0-.63-2c-2.25-1.32-3.29-2.5-3.16-3.6s1.23-2.38,3.24-4a1.54,1.54,0,0,0,.37-2c-2-3.24-2.55-3.85-2.69-4-2-1.57-.17-5,.44-6.12l.13-.25a4.8,4.8,0,0,1,3.32-2.41c-.91-.95-2.15-2.55-1.56-3.8a10.83,10.83,0,0,0,.42-2c.31-2,.6-3.91,1.79-3.91a4.87,4.87,0,0,0,2-.75c-2.08-3.59-1.35-4.17-1.1-4.37a13,13,0,0,0,.57-2.12c.62-2.71,1.14-4.66,2.31-5.11a34.43,34.43,0,0,0,3.51-1.74,13.2,13.2,0,0,1,1.6-.81,2.29,2.29,0,0,0,.55-.68l.2-1.48c-1.11-1-5.18-4.74-4.53-7.09.24-.87,1-1.42,2.33-1.64a30.51,30.51,0,0,1,5.71-.4,1.45,1.45,0,0,0,1.27-.61,1.54,1.54,0,0,0,.24-1.42c-.87-2.72.07-3.79,1-4.21a21.85,21.85,0,0,1,6.91-1.14,1.53,1.53,0,0,0,1.48-1.41c.36-4.21,1.35-6.34,3-6.34a11,11,0,0,1,3,.53,1.52,1.52,0,0,0,1.35-.24,1.61,1.61,0,0,0,.65-1.32c-.06-5.24,1-5.9,1.41-6.12a1.5,1.5,0,0,1,1.56.06c.93.52,2,1.15,3.12,1.88a1.54,1.54,0,0,0,1.58.07,1.52,1.52,0,0,0,.82-1.32c.1-3.45.67-5.4,1.75-6a1.81,1.81,0,0,1,1.89.2,12,12,0,0,0,5.34,1.87,6.36,6.36,0,0,1,1.75.38,20,20,0,0,1,2.09,1.16,1.57,1.57,0,0,0,2.06-.37c2.18-2.8,4-3.94,5.29-3.37a9.53,9.53,0,0,1,2.81,1.95,1.54,1.54,0,0,0,1.91.15c1.93-1.27,4.57-2.81,6.15-2.9,1.13-.09,2.31.58,3.37,1.94a1.59,1.59,0,0,0,2.09.39c5.66-3.53,6.95-2.55,7.37-2.22a11.67,11.67,0,0,1,2.47,2.79,1.49,1.49,0,0,0,1.76.62,4.69,4.69,0,0,1,2.7-.18,8,8,0,0,1,4.79,3.17,1.48,1.48,0,0,0,1.31.58,49,49,0,0,1,7-.1,10.6,10.6,0,0,0,2.2,0c1.52-.06,3-.12,3.14,1,.06.44.17,1.44.33,3.06a1.57,1.57,0,0,0,2,1.33c3.08-1,3.89-.83,4.28-.55a.78.78,0,0,1,.33.66c0,.21,0,.47,0,.75,0,.81-.12,2.15.27,2.56a.36.36,0,0,0,.29.11c.36,0,1,0,1.67-.08,3.72-.23,4.77-.19,5,.47a.74.74,0,0,1-.28.86,4.23,4.23,0,0,0-.79,3.47c.14.4.36.45.58.45.4,0,.85,0,1.33-.05,1.68-.09,3.26-.18,3.95.6A1.33,1.33,0,0,1,218,380a29.12,29.12,0,0,0,0,5.3,1.55,1.55,0,0,0,.74,1.24c3.24,2,3.46,2.67,3.55,2.92a16,16,0,0,1,.44,1.9,1.56,1.56,0,0,0,1,1.19c2.42.88,5.37,2.31,5.67,4.08a13.77,13.77,0,0,1-.32,4.63,1.56,1.56,0,0,0,.61,1.59c3,2.17,4.42,3.89,4.27,5.12a6,6,0,0,1-.65,2.08,1.6,1.6,0,0,0,.33,2c2.62,2.27,2.67,3.24,2.69,3.55a10.56,10.56,0,0,1-.93,3.69,1.52,1.52,0,0,0,.3,1.62,11.79,11.79,0,0,1,2.72,4.64,4.38,4.38,0,0,1-.07,3.39,1.31,1.31,0,0,0,0,1,1.71,1.71,0,0,0,.92.95c.42.19,1.71.75,1.44,1.73,0,.08,0,.11.33.4a1.64,1.64,0,0,1,.76,1.09,1.94,1.94,0,0,1-.57,1.4h0a11.54,11.54,0,0,1-2.15,1.81,7.47,7.47,0,0,0-1.26,1c.91.74,2.5,2.73,2.45,4a1.14,1.14,0,0,1-.49.92c-.52.34-1.77,1.48-2.6,2.23-.57.53-.85.78-1,.9s-.42.63-.7,1.11c1.2,1.48,3.39,4.41,3,5.7a1,1,0,0,1-.65.66c-.58.2-.75,1.21-.9,2.1s-.27,1.58-.78,1.9a5.3,5.3,0,0,0,0,1c.07.94.14,2-.54,2.56a1.75,1.75,0,0,1-1.65.21l-.18,0c.09.23.25.55.37.78.54,1.06,1.28,2.51.13,3.21-.58.34-1.13,1.9-1.54,3-.56,1.57-.9,2.47-1.55,2.68a.81.81,0,0,1-.75-.11c-.08,0-.54-.28-2.24.27a1.55,1.55,0,0,0-1,1.81c1,5,.3,6,.06,6.29a1.26,1.26,0,0,1-.88.52,23.09,23.09,0,0,1-2.86.11,1.54,1.54,0,0,0-1.18.5,1.51,1.51,0,0,0-.41,1.2c.3,3.29-.12,4.08-.52,4.41a.92.92,0,0,1-.88.15,10.58,10.58,0,0,0-3.24-.11,1.57,1.57,0,0,0-1.4,1.16c-.93,3.62-1.45,3.93-1.7,4.08s-.62.39-3.46.89a1.56,1.56,0,0,0-1.28,1.27,6.3,6.3,0,0,1-1.15,3.15l-.22.24a5.87,5.87,0,0,1-2.57,1.88,8.82,8.82,0,0,1-3.44.22,1.55,1.55,0,0,0-1.59,1.08c-.26.8-.64,1.22-1.14,1.24a10.12,10.12,0,0,0-1.49,1.3c-1.61,1.56-2.65,2.49-3.53,2.18a10.18,10.18,0,0,0-2.91.83c-2,.74-3,1.1-3.61.7a7.1,7.1,0,0,0-1.52-.72c-1.43,1.65-6.18,6.84-8.4,5.9-1.51-.64-3.78-1.7-5-2.28a1.54,1.54,0,0,0-1.26,0c-8.8,3.7-9.17,3.38-9.49,3.1a.59.59,0,0,1-.18-.29l-.46,0a3.64,3.64,0,0,1-2-.15,5,5,0,0,1-1.81-2C156,511.05,153,512.81,151.18,512.81Zm11.7-.64v0Zm-16.76-5.66.35,1c.21.59.64,1.26.91,1.29.62.08,1.15.65,1.83,1.37a8.24,8.24,0,0,0,1.72,1.54c.68.39,3.94-1.15,6.55-2.82l.53-.35.25.58a5,5,0,0,0,1.58,2.07,3,3,0,0,0,1.41.05c.61-.07,1.15-.13,1.47.24l.08.12a72.61,72.61,0,0,0,8.28-3.13,2.58,2.58,0,0,1,2.14,0c1.21.58,3.47,1.63,5,2.27,1.09.46,4.68-2.7,7.39-5.89l.23-.27.34.1a9.28,9.28,0,0,1,2.12,1,11,11,0,0,0,2.65-.8c1.82-.68,3-1.08,3.65-.84h0c.41,0,1.76-1.31,2.41-1.94,1.07-1,1.62-1.55,2.12-1.6a1.3,1.3,0,0,0,.23-.49,2.64,2.64,0,0,1,2.69-1.83,7.66,7.66,0,0,0,3-.14,4.87,4.87,0,0,0,2.19-1.62l.22-.23a5.76,5.76,0,0,0,.88-2.59,2.65,2.65,0,0,1,2.15-2.17,11.62,11.62,0,0,0,3.09-.75s.44-.4,1.21-3.41a2.66,2.66,0,0,1,2.38-2,11.58,11.58,0,0,1,3.54.14c.1-.2.32-.95.09-3.41a2.68,2.68,0,0,1,.7-2,2.61,2.61,0,0,1,2-.84,22.86,22.86,0,0,0,2.72-.1.19.19,0,0,0,.14-.09c.32-.45.43-2.11-.25-5.43a2.63,2.63,0,0,1,1.75-3.05,4.25,4.25,0,0,1,3-.23,10.64,10.64,0,0,0,.83-2c.53-1.5,1.08-3.06,2-3.6.28-.17-.25-1.22-.54-1.78-.44-.88-.8-1.57-.38-2.08s1.14-.28,1.43-.21.58.1.69,0,.19-1.08.15-1.65c-.06-.85-.12-1.66.49-2a4.06,4.06,0,0,0,.29-1.16c.18-1.12.42-2.5,1.58-2.93.07-.59-1.33-2.86-3.07-4.95l-.24-.29.19-.33c.83-1.41,1.07-1.76,1.28-1.84s.52-.46.83-.75c.91-.82,2.14-1.94,2.74-2.34.19-.37-1-2.34-2.07-3.18a1,1,0,0,1-.41-.81c0-.68.74-1.2,1.74-1.92a11.22,11.22,0,0,0,2-1.64c.33-.4.33-.57.32-.6s-.2-.24-.35-.35a1.42,1.42,0,0,1-.71-1.49,2.27,2.27,0,0,0-.82-.5,2.76,2.76,0,0,1-1.5-1.57,2.41,2.41,0,0,1,.08-1.88,3.36,3.36,0,0,0,0-2.58,10.6,10.6,0,0,0-2.46-4.22,2.62,2.62,0,0,1-.53-2.78,10.23,10.23,0,0,0,.85-3.24c0-.39-.64-1.33-2.31-2.79a2.69,2.69,0,0,1-.59-3.26,5.29,5.29,0,0,0,.54-1.71c.07-.57-.89-2-3.83-4.12a2.67,2.67,0,0,1-1-2.7,12.51,12.51,0,0,0,.32-4.22c-.17-.94-2.07-2.18-5-3.25a2.6,2.6,0,0,1-1.68-2,12.27,12.27,0,0,0-.4-1.74c-.08-.21-.83-.94-3.09-2.35a2.66,2.66,0,0,1-1.25-2.11,33.11,33.11,0,0,1,0-5.54c0-.18,0-.23,0-.25-.34-.4-2-.3-3.08-.24-.49,0-1,0-1.39,0a1.63,1.63,0,0,1-1.6-1.15,5.43,5.43,0,0,1,.71-4.21c-.9-.05-2.65,0-3.59.11-.73,0-1.35.08-1.74.08a1.42,1.42,0,0,1-1.07-.45c-.71-.74-.63-2.19-.57-3.35,0-.18,0-.34,0-.49a10.3,10.3,0,0,0-3.2.71,2.64,2.64,0,0,1-3.45-2.25c-.17-1.59-.28-2.61-.33-3a5.9,5.9,0,0,0-2-.11,12,12,0,0,1-2.41,0,43.87,43.87,0,0,0-6.74.11,2.55,2.55,0,0,1-2.24-1,6.91,6.91,0,0,0-4.13-2.75,3.6,3.6,0,0,0-2.06.09,2.53,2.53,0,0,1-3.1-1,10.77,10.77,0,0,0-2.22-2.54c-.55-.42-2.44,0-6.15,2.27a2.66,2.66,0,0,1-3.51-.64,3.31,3.31,0,0,0-2.45-1.53c-1,.07-3.09,1.06-5.63,2.73a2.59,2.59,0,0,1-3.24-.27,8.75,8.75,0,0,0-2.5-1.73c-.76-.33-2.3.83-4,3a2.66,2.66,0,0,1-3.49.63,16.93,16.93,0,0,0-2-1.09,5.71,5.71,0,0,0-1.45-.3,12.84,12.84,0,0,1-5.77-2c-.51-.31-.73-.19-.8-.15-.25.13-1.07.89-1.19,5.06a2.63,2.63,0,0,1-4.06,2.13c-1.12-.72-2.15-1.34-3.06-1.85-.32-.17-.44-.1-.49-.07s-.93.78-.88,5.17a2.72,2.72,0,0,1-1.08,2.2,2.56,2.56,0,0,1-2.31.42,9.57,9.57,0,0,0-2.73-.49c-.86,0-1.6,2.1-1.87,5.35a2.62,2.62,0,0,1-2.52,2.4,20.22,20.22,0,0,0-6.51,1.05c-.79.35-.94,1.32-.43,2.88a2.67,2.67,0,0,1-.41,2.41,2.61,2.61,0,0,1-2.16,1,29,29,0,0,0-5.5.39c-.86.14-1.35.43-1.47.86-.4,1.43,2.5,4.55,4.41,6.17l.23.19-.31,2.27,0,.09A3,3,0,0,1,98.12,398c-.18.06-.84.42-1.43.74a35.8,35.8,0,0,1-3.64,1.8c-.71.27-1.31,2.92-1.63,4.34a6.66,6.66,0,0,1-.89,2.67A11,11,0,0,0,92.09,411l.26.44-.42.29a6.88,6.88,0,0,1-3.08,1.2c-.3.21-.59,2.09-.73,3a10.74,10.74,0,0,1-.5,2.32c-.34.72,1,2.37,2.07,3.26l1,.82-1.25.13s-2.81.3-3.51,2c0,.06-.09.18-.18.34-1.34,2.49-1.58,4.09-.73,4.76.19.14.76.59,3,4.26a2.66,2.66,0,0,1-.62,3.43c-1.72,1.36-2.75,2.55-2.84,3.26-.06.45.61,1.36,2.63,2.54a2.62,2.62,0,0,1,1.05,3.45c-1.45,3-2.39,5-2.64,5.71-.16.47,2,1.93,4.86,3l.33.13v.35a4,4,0,0,1-.67,2.55,10.28,10.28,0,0,0-.35,2.6,6.13,6.13,0,0,1-.34,2.27l.23.51a14.28,14.28,0,0,1,1.51,6.13A1.36,1.36,0,0,0,91.6,471c1.14.79,4-.06,4.89-.42l.59-.23.13.62a8,8,0,0,1,.19,3.33l.34.1a2.65,2.65,0,0,1,2,2.35c.25,3.12.79,5.33,1.44,5.91a.82.82,0,0,0,.69.25c.67-.1,1.37-1.06,1.56-1.39l.77-1.29.23,1.48a22.88,22.88,0,0,1,.36,4.85c-.08.42.73,1.61,1.21,2.32a9.21,9.21,0,0,1,.86,1.42,7.11,7.11,0,0,0,2.25,1.16,12.31,12.31,0,0,1,2.38,1.13,3.55,3.55,0,0,0,2,.38h0a2.63,2.63,0,0,1,2.63,2.28c.22,1.82.76,3.05,1.51,3.46,1.44.78,4-.4,4.88-.92l.56-.33.22.6c0,.07.59,1.63-.92,3.77-.09.13-.08.19-.07.22.17.56,2.06,1.29,3.31,1.77,1.59.62,3,1.15,3.51,1.89.36.5,1.55,0,2.51-.3,1.12-.42,2.39-.89,2.82.15s2.55,2.57,3.55,3.3c.44.32,1.27.17,2.14,0a6.11,6.11,0,0,1,2.82-.08c1.2.38,2.48-1.41,2.5-1.43Zm53.06-4.94h0Zm-108.72-94Z"/><path class="cls-5" d="M119.75,399.44a4.65,4.65,0,0,1-3.31-1.37l-2-2a.54.54,0,0,1,0-.76.55.55,0,0,1,.77,0l2,2a3.61,3.61,0,0,0,4.11.7l1.61-.78a.54.54,0,1,1,.47,1l-1.61.78A4.7,4.7,0,0,1,119.75,399.44Z"/><path class="cls-5" d="M115.7,425.21h-.19l-2.88-.12a.54.54,0,0,1,.05-1.08l2.87.12a3.59,3.59,0,0,0,3.49-2.27l.66-1.67a.54.54,0,0,1,1,.4l-.66,1.67A4.68,4.68,0,0,1,115.7,425.21Z"/><path class="cls-5" d="M106.3,461.29a.53.53,0,0,1-.49-.32.53.53,0,0,1,.26-.71l2.62-1.2a3.6,3.6,0,0,0,2.09-3.6l-.17-1.79a.56.56,0,0,1,.49-.59.55.55,0,0,1,.59.49l.17,1.79a4.69,4.69,0,0,1-2.72,4.69l-2.62,1.19A.59.59,0,0,1,106.3,461.29Z"/><path class="cls-5" d="M144.44,383.11a.54.54,0,0,1-.53-.44.55.55,0,0,1,.43-.63l2.83-.52a3.63,3.63,0,0,0,2.9-3l.27-1.77a.52.52,0,0,1,.61-.45.54.54,0,0,1,.46.61l-.28,1.78a4.69,4.69,0,0,1-3.76,3.89l-2.83.53Z"/><path class="cls-5" d="M179.06,371.86a4.75,4.75,0,0,1-2.07-.48l-2.58-1.29a.54.54,0,1,1,.48-1l2.58,1.28a3.59,3.59,0,0,0,4.11-.65l1.29-1.25a.53.53,0,0,1,.76,0,.54.54,0,0,1,0,.76l-1.29,1.25A4.63,4.63,0,0,1,179.06,371.86Z"/><path class="cls-5" d="M194.48,393.14a4.71,4.71,0,0,1-3.58-1.66l-1.85-2.2a.53.53,0,0,1,.06-.76.54.54,0,0,1,.76.07l1.86,2.19a3.59,3.59,0,0,0,4,1l1.68-.64a.54.54,0,0,1,.7.31.55.55,0,0,1-.32.7l-1.67.64A4.66,4.66,0,0,1,194.48,393.14Z"/><path class="cls-5" d="M219.09,421.83a.57.57,0,0,1-.28-.08l-1.54-.92a4.69,4.69,0,0,1-2.17-5l.58-2.81a.54.54,0,0,1,1.06.22l-.58,2.81a3.59,3.59,0,0,0,1.67,3.82l1.53.92a.54.54,0,0,1-.27,1Z"/><path class="cls-5" d="M196.47,435.41a4.68,4.68,0,0,1-3.31-1.37l-2-2a.55.55,0,0,1,0-.77.54.54,0,0,1,.76,0l2,2A3.62,3.62,0,0,0,198,434l1.62-.78a.54.54,0,0,1,.47,1l-1.62.78A4.7,4.7,0,0,1,196.47,435.41Z"/><path class="cls-5" d="M163.62,412a4.61,4.61,0,0,1-1.7-.32l-2.67-1.05a.54.54,0,1,1,.39-1l2.68,1a3.6,3.6,0,0,0,4-1l1.17-1.36a.54.54,0,0,1,.76-.06.55.55,0,0,1,.06.76l-1.17,1.37A4.72,4.72,0,0,1,163.62,412Z"/><path class="cls-5" d="M136.58,441a.51.51,0,0,1-.35-.13.53.53,0,0,1-.06-.76l1.86-2.19a3.61,3.61,0,0,0,.36-4.15l-.91-1.55a.54.54,0,0,1,.93-.55l.91,1.55a4.67,4.67,0,0,1-.47,5.4L137,440.81A.53.53,0,0,1,136.58,441Z"/><path class="cls-5" d="M158.36,450.23a4.69,4.69,0,0,1-4.28-2.78l-1.16-2.63a.55.55,0,0,1,.27-.72.54.54,0,0,1,.71.28l1.17,2.63a3.6,3.6,0,0,0,3.58,2.12l1.79-.14a.54.54,0,0,1,.09,1.08l-1.79.14Z"/><path class="cls-5" d="M152.06,481.22a.53.53,0,0,1-.48-.3l-.78-1.62a4.68,4.68,0,0,1,.9-5.34l2-2a.54.54,0,0,1,.76.76l-2,2a3.6,3.6,0,0,0-.7,4.1l.78,1.62a.54.54,0,0,1-.25.72A.52.52,0,0,1,152.06,481.22Z"/><path class="cls-5" d="M149.19,504a.63.63,0,0,1-.19,0,.54.54,0,0,1-.32-.69l.62-1.69a4.67,4.67,0,0,1,4.39-3.06h.07l2.88,0a.54.54,0,0,1,0,1.08l-2.87,0a3.58,3.58,0,0,0-3.44,2.35l-.62,1.69A.53.53,0,0,1,149.19,504Z"/><path class="cls-5" d="M191.39,496.91a.53.53,0,0,1-.53-.47l-.24-1.78a4.69,4.69,0,0,1,2.54-4.79l2.57-1.29a.54.54,0,1,1,.48,1l-2.57,1.3a3.61,3.61,0,0,0-1.95,3.68l.24,1.78a.54.54,0,0,1-.47.6Z"/><path class="cls-5" d="M184.5,467.94a4.67,4.67,0,0,1-2.41-.67l-2.46-1.48a.54.54,0,1,1,.55-.93l2.47,1.48a3.59,3.59,0,0,0,4.15-.32l1.38-1.15a.54.54,0,1,1,.69.83l-1.38,1.15A4.65,4.65,0,0,1,184.5,467.94Z"/><path class="cls-5" d="M215.6,454.83a4.68,4.68,0,0,1-4.38-3.05l-1-2.7a.54.54,0,0,1,1-.38l1,2.7a3.61,3.61,0,0,0,3.44,2.35l1.79,0h0a.54.54,0,0,1,0,1.08l-1.8,0Z"/><path class="cls-5" d="M212.29,475.07h-.14a.55.55,0,0,1-.39-.66l.43-1.74a4.68,4.68,0,0,1,4.11-3.53l2.86-.27a.54.54,0,1,1,.1,1.08l-2.86.27a3.6,3.6,0,0,0-3.16,2.71l-.43,1.74A.53.53,0,0,1,212.29,475.07Z"/><path class="cls-5" d="M121.63,481.22a.57.57,0,0,1-.35-.12.55.55,0,0,1-.06-.77l1.16-1.36a4.66,4.66,0,0,1,5.25-1.34l2.68,1a.54.54,0,0,1,.31.7.55.55,0,0,1-.7.31l-2.68-1a3.63,3.63,0,0,0-4,1L122,481A.52.52,0,0,1,121.63,481.22Z"/><path class="cls-5" d="M95.75,437.69h-.06a.54.54,0,0,1-.48-.59l.31-2.86a3.6,3.6,0,0,0-2-3.64l-1.62-.77a.54.54,0,1,1,.46-1l1.63.77a4.7,4.7,0,0,1,2.64,4.73l-.31,2.86A.54.54,0,0,1,95.75,437.69Z"/><path class="cls-6" d="M159.82,447.81a11.12,11.12,0,0,0,4,.51,10.88,10.88,0,0,0,4-.5c.26-.21.63-.05.55.3-1.1,2.78-8.05,2.8-9.17,0a.34.34,0,0,1,.49-.39l.13.07Z"/><circle class="cls-6" cx="149.6" cy="436.83" r="4.9"/><circle class="cls-7" cx="146.06" cy="434.3" r="1.36"/><circle class="cls-7" cx="147.72" cy="436.53" r="0.51"/><circle class="cls-6" cx="177.9" cy="436.83" r="4.9"/><circle class="cls-7" cx="181.44" cy="434.3" r="1.36"/><circle class="cls-7" cx="179.77" cy="436.53" r="0.51"/><ellipse class="cls-8" cx="142.62" cy="448.59" rx="3.66" ry="1.91"/><ellipse class="cls-8" cx="186.46" cy="448.59" rx="3.66" ry="1.91"/><path class="cls-1" d="M558.06,620.24c-8,30.35-4.34,90.08-2.36,114.87.55,7,1,11.2,1,11.2H544.26s-1.93-78.9,5-107.59,12.39-103.61,12.39-103.61l4.72-2.55,1.9-1S568.26,581.35,558.06,620.24Z"/><path class="cls-2" d="M558.06,620.24c-8,30.35-4.34,90.08-2.36,114.87l-3,1.68s-5.86-83.95,2.51-112c10.84-42.22,11.89-79.93,11.09-88.86l1.9-1S568.26,581.35,558.06,620.24Z"/><path class="cls-1" d="M556.13,605.67s-1-.41-2.55-1.22c-5.83-3.05-19.39-11.78-16.26-25.67.58-2.62,1.4-4,2.36-4.56,5.52-3,15.82,23.41,15.82,23.41Z"/><path class="cls-3" d="M575.78,672.31c.36-.37.71-.75,1.05-1.11A14,14,0,0,1,575.78,672.31Z"/><path class="cls-1" d="M576.86,604.71a41.28,41.28,0,0,1-17.37,3.72l2.11-8s11.76-11.67,20-16.15c5.23-2.85,9-2.8,7.49,5C587.49,597.32,582.39,602,576.86,604.71Z"/><path class="cls-2" d="M576.86,604.71c6.23-5,12.11-12.13,11.58-19.87-.23-3.41-6.84-.55-6.84-.55h0c5.23-2.85,9-2.8,7.49,5C587.49,597.32,582.39,602,576.86,604.71Z"/><path class="cls-4" d="M654.42,466.69c-1.43,1.67-4.36,2.79-3.36,3.6s3,3.44,2,4.06-3.55,3.15-3.64,3.15a14.36,14.36,0,0,0-1,1.6s4.39,5.29,2.86,5.79-1,3.67-1.83,4.08.95,4.37-1.72,3.65,1.41,3.1-.1,4-2.19,6.34-3.27,5.63c-.53-.37-1.69-.13-2.7.2a2.1,2.1,0,0,0-1.38,2.43c.47,2.28,1,6-.35,6.17a22.91,22.91,0,0,1-2.8.1,2.1,2.1,0,0,0-2.13,2.29c.18,1.93.21,4.29-.7,4a11.27,11.27,0,0,0-3.43-.13,2.08,2.08,0,0,0-1.89,1.56c-.37,1.43-1,3.45-1.45,3.74a14.38,14.38,0,0,1-3.28.83,2.1,2.1,0,0,0-1.72,1.72,6.38,6.38,0,0,1-1,2.87,5.94,5.94,0,0,1-2.6,2,8.88,8.88,0,0,1-3.2.18,2.11,2.11,0,0,0-2.15,1.46c-.15.47-.36.86-.67.86-.76,0-3.72,3.89-4.79,3.51s-5.63,2.12-6.39,1.6a8.9,8.9,0,0,0-2-.91s-5.89,6.94-8,6c-1.51-.64-3.76-1.7-5-2.27a2,2,0,0,0-1.7,0c-2.42,1-9.12,3.78-8.94,3.12.19-.81-1.74.09-2.75-.41a5.65,5.65,0,0,1-1.83-2.34s-5.68,3.65-7.11,2.84-2.53-2.74-3.34-2.84-1.36-1.64-1.36-1.64-1.48,2.14-3.1,1.64-4,.81-5.08,0-3.24-2.33-3.77-3.55-4.15,1.79-5.27.26-8.11-2.6-6.75-4.51.86-3.26.86-3.26-3.39,2-5.42.93c-1.15-.64-1.61-2.43-1.79-3.87a2.08,2.08,0,0,0-2.13-1.8,4.14,4.14,0,0,1-2.32-.49c-1.27-.9-4.46-1.62-4.82-2.53s-2.29-3-2.1-4a24.49,24.49,0,0,0-.36-4.65s-1.55,2.65-3.08,1.26c-1-.92-1.45-4.24-1.62-6.27a2.1,2.1,0,0,0-1.6-1.86c-.56-.14-1-.34-.81-.62.46-.6-.12-3.22-.12-3.22s-6.2,2.46-6.13-1.34-2.21-6.87-1.74-6.87.22-4.41.84-5a3.66,3.66,0,0,0,.52-2.15s-5.7-2.2-5.17-3.72c.33-1,1.72-3.85,2.66-5.77a2.11,2.11,0,0,0-.83-2.75c-1.37-.8-3-2-2.9-3.08s1.78-2.61,3-3.61a2.09,2.09,0,0,0,.49-2.73,24.19,24.19,0,0,0-2.82-4.11c-1.88-1.47.55-5.3.74-5.74.83-2,4-2.29,4-2.29s-2.88-2.47-2.21-3.9c.54-1.15.58-5.63,1.72-5.63a6.59,6.59,0,0,0,2.78-1.11s-2.18-3.59-1.51-4.12,1.14-6.53,2.74-7.15,4.6-2.4,5.08-2.54.91-1,.91-1l.25-1.87s-8.31-7-2.68-8a30.24,30.24,0,0,1,5.61-.4,2.09,2.09,0,0,0,2-2.74c-.46-1.44-.56-3,.73-3.54a21.39,21.39,0,0,1,6.71-1.09,2.09,2.09,0,0,0,2-1.91c.19-2.29.76-5.85,2.41-5.85a10.66,10.66,0,0,1,2.89.51,2.12,2.12,0,0,0,2.69-2.08c0-2.92.27-6.63,2.17-5.59,1,.58,2.12,1.25,3.09,1.87a2.1,2.1,0,0,0,3.23-1.7c.09-3.1.63-6.7,2.82-5.34,3.64,2.29,5.79,1.69,7.15,2.29a17.56,17.56,0,0,1,2,1.12,2.1,2.1,0,0,0,2.78-.5c1.25-1.6,3.27-3.79,4.65-3.2a9.5,9.5,0,0,1,2.65,1.84,2.07,2.07,0,0,0,2.57.22c1.68-1.1,4.38-2.73,5.89-2.82a3.67,3.67,0,0,1,2.91,1.73,2.13,2.13,0,0,0,2.81.52c2.11-1.32,5.54-3.18,6.76-2.25a11.8,11.8,0,0,1,2.34,2.67,2,2,0,0,0,2.43.8,4.14,4.14,0,0,1,2.38-.13,7.43,7.43,0,0,1,4.46,3,2.07,2.07,0,0,0,1.78.8,47.34,47.34,0,0,1,6.86-.11c1.83.31,4.72-.46,4.89.62.06.5.2,1.8.32,3a2.11,2.11,0,0,0,2.75,1.79c1.8-.58,3.91-1.11,3.91-.41,0,1.22-.45,4,1.08,4s7.15-.62,6.08.31-1.86,4.87.14,4.87,5.35-.63,5,1.07a34.59,34.59,0,0,0,0,5.42,2.08,2.08,0,0,0,1,1.67c1.19.74,3.11,2,3.32,2.64a12.67,12.67,0,0,1,.42,1.82,2.11,2.11,0,0,0,1.34,1.6c1.78.65,5,2.06,5.33,3.66a13.33,13.33,0,0,1-.32,4.43,2.1,2.1,0,0,0,.83,2.14c1.58,1.15,4.21,3.28,4,4.62a5.65,5.65,0,0,1-.59,1.9,2.15,2.15,0,0,0,.46,2.61c1.11,1,2.45,2.3,2.5,3.17a10.59,10.59,0,0,1-.89,3.46,2,2,0,0,0,.41,2.2,11.29,11.29,0,0,1,2.6,4.43,3.9,3.9,0,0,1,0,3,2,2,0,0,0,1.14,2.72c.73.31,1.25.69,1.14,1.09C653.49,465.12,655.83,465,654.42,466.69Z"/><path class="cls-5" d="M564.9,544.31a1.62,1.62,0,0,1-.79-.18,9.39,9.39,0,0,1-2-1.74c-.38-.4-.94-1-1.16-1a2.13,2.13,0,0,1-1.43-1.19,3.22,3.22,0,0,1-3.13,1.17,5.41,5.41,0,0,0-2.31.1c-1.06.19-2.15.39-2.93-.18-1.63-1.18-3.38-2.52-3.93-3.75a5.21,5.21,0,0,0-1.46.41c-1.3.49-2.92,1.09-3.76-.07a9.59,9.59,0,0,0-3-1.52c-2-.75-3.63-1.4-4-2.47a1.28,1.28,0,0,1,.22-1.15,4.13,4.13,0,0,0,.84-2.1c-1.18.56-3.54,1.46-5.21.55-1.1-.6-1.8-2-2.08-4.27a1.53,1.53,0,0,0-1.55-1.33h0a4.57,4.57,0,0,1-2.65-.59,12.16,12.16,0,0,0-2.15-1c-1.38-.54-2.56-1-2.86-1.76a9.43,9.43,0,0,0-.74-1.21c-.76-1.12-1.55-2.27-1.38-3.14a15.67,15.67,0,0,0-.19-3.22,2.82,2.82,0,0,1-1.5.85,1.85,1.85,0,0,1-1.58-.52c-.9-.8-1.51-3-1.8-6.62A1.56,1.56,0,0,0,511.2,507c-.73-.18-1.09-.4-1.22-.76a.72.72,0,0,1,.11-.7,5.42,5.42,0,0,0-.1-2.18c-1.21.4-3.84,1.08-5.28.08a2.37,2.37,0,0,1-1-2.15,13.16,13.16,0,0,0-1.42-5.66c-.35-.8-.5-1.13-.28-1.46a.46.46,0,0,1,.15-.16,14.67,14.67,0,0,0,.15-1.67c.13-1.93.23-2.89.66-3.3a2.53,2.53,0,0,0,.36-1.39c-2-.8-5.73-2.55-5.14-4.27.33-1,1.65-3.71,2.69-5.83a1.56,1.56,0,0,0-.63-2.05c-2.25-1.32-3.29-2.5-3.16-3.6s1.23-2.37,3.24-4a1.53,1.53,0,0,0,.37-2c-2-3.25-2.55-3.86-2.69-4-2-1.57-.17-5,.44-6.12.06-.12.11-.2.13-.25a4.8,4.8,0,0,1,3.32-2.41c-.91-1-2.15-2.55-1.56-3.8a10.87,10.87,0,0,0,.42-2c.31-2,.6-3.92,1.79-3.92a4.87,4.87,0,0,0,2-.75c-2.08-3.59-1.35-4.17-1.1-4.36a13.22,13.22,0,0,0,.57-2.13c.62-2.7,1.14-4.66,2.31-5.11a34.43,34.43,0,0,0,3.51-1.74,13.2,13.2,0,0,1,1.6-.81,2.08,2.08,0,0,0,.55-.67l.2-1.49c-1.11-1-5.18-4.74-4.53-7.09.24-.87,1-1.42,2.33-1.64a32.3,32.3,0,0,1,5.71-.4,1.45,1.45,0,0,0,1.27-.61,1.54,1.54,0,0,0,.24-1.42c-.87-2.71.07-3.78,1-4.21a21.57,21.57,0,0,1,6.91-1.13,1.54,1.54,0,0,0,1.48-1.42c.36-4.21,1.35-6.34,3-6.34a10.67,10.67,0,0,1,3,.54,1.49,1.49,0,0,0,1.35-.25,1.6,1.6,0,0,0,.65-1.32c-.06-5.23,1-5.9,1.41-6.11a1.47,1.47,0,0,1,1.56.05c.93.52,2,1.15,3.12,1.89a1.57,1.57,0,0,0,1.58.06,1.51,1.51,0,0,0,.82-1.32c.1-3.44.67-5.4,1.75-6a1.81,1.81,0,0,1,1.89.19,11.89,11.89,0,0,0,5.34,1.87,6.36,6.36,0,0,1,1.75.38A20,20,0,0,1,556,393.2a1.56,1.56,0,0,0,2.06-.37c2.18-2.8,4-3.93,5.29-3.37a9.73,9.73,0,0,1,2.81,2,1.54,1.54,0,0,0,1.91.15c1.93-1.27,4.57-2.8,6.15-2.9,1.13-.09,2.31.59,3.37,1.94a1.58,1.58,0,0,0,2.09.39c5.66-3.53,7-2.55,7.37-2.22a11.67,11.67,0,0,1,2.47,2.79,1.46,1.46,0,0,0,1.76.62A4.61,4.61,0,0,1,594,392a8,8,0,0,1,4.79,3.16,1.52,1.52,0,0,0,1.31.59,49.13,49.13,0,0,1,7-.11,11.3,11.3,0,0,0,2.2.05c1.52-.06,3-.12,3.14,1,.06.44.17,1.44.33,3.06a1.57,1.57,0,0,0,2,1.33c3.08-1,3.89-.83,4.28-.55a.78.78,0,0,1,.33.66c0,.21,0,.47,0,.76-.05.8-.12,2.15.27,2.55a.36.36,0,0,0,.29.11c.36,0,1,0,1.67-.08,3.72-.22,4.77-.19,5,.47a.75.75,0,0,1-.28.87,4.22,4.22,0,0,0-.79,3.47.55.55,0,0,0,.58.44c.4,0,.85,0,1.33-.05,1.68-.09,3.26-.18,3.95.6a1.35,1.35,0,0,1,.29,1.17,29,29,0,0,0,0,5.29,1.57,1.57,0,0,0,.74,1.25c3.24,2,3.46,2.67,3.55,2.91a16.5,16.5,0,0,1,.44,1.9,1.53,1.53,0,0,0,1,1.19c2.42.89,5.37,2.32,5.67,4.08a13.77,13.77,0,0,1-.32,4.63,1.57,1.57,0,0,0,.61,1.6c3,2.16,4.42,3.89,4.27,5.12a6,6,0,0,1-.65,2.07,1.6,1.6,0,0,0,.33,2c2.62,2.28,2.67,3.24,2.69,3.55a10.56,10.56,0,0,1-.93,3.69,1.52,1.52,0,0,0,.3,1.62,11.87,11.87,0,0,1,2.72,4.64,4.41,4.41,0,0,1-.07,3.4,1.28,1.28,0,0,0,0,1,1.68,1.68,0,0,0,.92,1c.42.19,1.71.75,1.44,1.73,0,.08,0,.12.33.4a1.64,1.64,0,0,1,.76,1.09,2,2,0,0,1-.57,1.41h0a11.59,11.59,0,0,1-2.15,1.82,8,8,0,0,0-1.26,1c.91.75,2.5,2.73,2.45,4a1.12,1.12,0,0,1-.49.91c-.52.35-1.77,1.48-2.6,2.24-.57.52-.85.77-1,.89s-.42.64-.7,1.11c1.2,1.48,3.39,4.42,3,5.7a1,1,0,0,1-.65.67c-.58.19-.75,1.2-.9,2.1s-.27,1.58-.78,1.9a5.3,5.3,0,0,0,0,1c.07.93.15,2-.54,2.56a1.78,1.78,0,0,1-1.65.2l-.18,0c.09.23.25.55.37.79.54,1.06,1.28,2.5.13,3.2-.58.34-1.13,1.9-1.54,3-.56,1.57-.9,2.47-1.55,2.69a.87.87,0,0,1-.75-.11c-.08-.06-.54-.29-2.24.27a1.55,1.55,0,0,0-1,1.81c1,5,.3,5.95.06,6.28a1.22,1.22,0,0,1-.88.52,21.27,21.27,0,0,1-2.86.11,1.54,1.54,0,0,0-1.18.5,1.52,1.52,0,0,0-.41,1.2c.3,3.29-.12,4.08-.52,4.41a.9.9,0,0,1-.88.15,11.28,11.28,0,0,0-3.24-.11,1.57,1.57,0,0,0-1.4,1.17c-.93,3.61-1.45,3.92-1.7,4.07s-.62.39-3.46.89a1.56,1.56,0,0,0-1.28,1.28,6.29,6.29,0,0,1-1.15,3.14l-.21.24a5.88,5.88,0,0,1-2.58,1.88,8.82,8.82,0,0,1-3.44.22,1.56,1.56,0,0,0-1.59,1.08c-.26.8-.64,1.22-1.14,1.24a10.26,10.26,0,0,0-1.48,1.3c-1.62,1.56-2.66,2.49-3.54,2.18a10.18,10.18,0,0,0-2.91.83c-2,.74-3,1.11-3.61.7a7.62,7.62,0,0,0-1.52-.72c-1.43,1.65-6.18,6.85-8.4,5.9-1.51-.64-3.78-1.7-5-2.28a1.5,1.5,0,0,0-1.26,0c-8.8,3.7-9.17,3.38-9.49,3.09a.52.52,0,0,1-.18-.29l-.46,0a3.64,3.64,0,0,1-2-.16,5,5,0,0,1-1.81-2C569.75,542.54,566.67,544.31,564.9,544.31Zm11.7-.65v0ZM559.84,538l.35,1c.21.58.64,1.26.91,1.29.62.07,1.15.64,1.83,1.36a8.24,8.24,0,0,0,1.72,1.54c.68.39,3.94-1.14,6.55-2.82l.53-.34.25.58a5,5,0,0,0,1.58,2.07,3,3,0,0,0,1.41,0c.61-.06,1.15-.12,1.47.24a1.05,1.05,0,0,1,.08.13A75.93,75.93,0,0,0,584.8,540a2.58,2.58,0,0,1,2.14,0c1.21.57,3.47,1.63,5,2.26,1.09.46,4.68-2.7,7.39-5.89l.23-.27.34.1a9.78,9.78,0,0,1,2.12,1,10.53,10.53,0,0,0,2.65-.8c1.82-.68,3-1.08,3.65-.84h0c.41,0,1.76-1.31,2.41-1.94,1.07-1,1.62-1.55,2.12-1.59a1.51,1.51,0,0,0,.23-.5,2.64,2.64,0,0,1,2.69-1.83,7.43,7.43,0,0,0,3-.14,4.8,4.8,0,0,0,2.19-1.62l.22-.23a5.76,5.76,0,0,0,.88-2.59,2.65,2.65,0,0,1,2.15-2.17,12.69,12.69,0,0,0,3.09-.74s.44-.41,1.21-3.42a2.64,2.64,0,0,1,2.38-2,11.34,11.34,0,0,1,3.54.13c.1-.2.32-.95.09-3.41a2.66,2.66,0,0,1,2.68-2.88,20.91,20.91,0,0,0,2.72-.1s.08,0,.14-.09c.32-.45.43-2.11-.25-5.43a2.63,2.63,0,0,1,1.75-3.05c1.42-.46,2.42-.54,3-.22a11,11,0,0,0,.83-2c.53-1.51,1.08-3.07,2-3.61.28-.17-.25-1.22-.54-1.78-.44-.87-.8-1.56-.38-2.08s1.14-.28,1.43-.2a.87.87,0,0,0,.69,0c.25-.21.19-1.07.15-1.65-.06-.85-.12-1.65.49-2a4.16,4.16,0,0,0,.29-1.16c.18-1.12.42-2.51,1.58-2.94.07-.59-1.33-2.85-3.07-4.95l-.24-.29.19-.33c.83-1.41,1.07-1.75,1.28-1.84s.52-.45.83-.74a34.07,34.07,0,0,1,2.74-2.34c.19-.38-1-2.35-2.07-3.18a1,1,0,0,1-.41-.81c0-.69.74-1.21,1.74-1.93a10.79,10.79,0,0,0,2-1.64c.33-.39.33-.56.32-.59s-.2-.24-.35-.36a1.41,1.41,0,0,1-.71-1.48,2,2,0,0,0-.82-.5,2.82,2.82,0,0,1-1.5-1.57A2.4,2.4,0,0,1,651,460a3.43,3.43,0,0,0,0-2.59,10.79,10.79,0,0,0-2.47-4.22,2.6,2.6,0,0,1-.53-2.77,10.3,10.3,0,0,0,.85-3.24c0-.4-.64-1.34-2.31-2.79a2.7,2.7,0,0,1-.59-3.27,5.29,5.29,0,0,0,.54-1.71c.07-.57-.89-2-3.83-4.12a2.65,2.65,0,0,1-1-2.69,12.54,12.54,0,0,0,.32-4.22c-.17-.94-2.07-2.19-5-3.26a2.61,2.61,0,0,1-1.68-2,12.49,12.49,0,0,0-.4-1.75c-.08-.2-.83-.94-3.09-2.35a2.65,2.65,0,0,1-1.25-2.11,33.11,33.11,0,0,1,0-5.54c0-.18,0-.23,0-.25-.34-.39-2-.3-3.08-.24-.49,0-1,.06-1.39.06a1.64,1.64,0,0,1-1.6-1.16,5.44,5.44,0,0,1,.71-4.21c-.9,0-2.65.05-3.59.11-.73,0-1.35.08-1.74.08a1.42,1.42,0,0,1-1.07-.44c-.71-.75-.63-2.2-.57-3.36,0-.18,0-.34,0-.49a10.3,10.3,0,0,0-3.2.71,2.64,2.64,0,0,1-3.45-2.25c-.17-1.59-.28-2.6-.33-3a5.71,5.71,0,0,0-2-.1,12.77,12.77,0,0,1-2.41-.06,45.28,45.28,0,0,0-6.74.11,2.55,2.55,0,0,1-2.24-1,7,7,0,0,0-4.13-2.75,3.59,3.59,0,0,0-2.06.1,2.54,2.54,0,0,1-3.1-1,10.77,10.77,0,0,0-2.22-2.54c-.55-.42-2.44,0-6.15,2.28a2.67,2.67,0,0,1-3.51-.64c-.58-.74-1.48-1.61-2.45-1.53s-3.09,1.06-5.63,2.73a2.61,2.61,0,0,1-3.24-.28,8.75,8.75,0,0,0-2.5-1.73c-.76-.33-2.29.84-4,3a2.66,2.66,0,0,1-3.49.62,18.62,18.62,0,0,0-2-1.09,5.71,5.71,0,0,0-1.45-.3,12.79,12.79,0,0,1-5.77-2c-.51-.32-.73-.2-.8-.16-.25.13-1.07.89-1.19,5.06a2.63,2.63,0,0,1-4.06,2.13c-1.12-.72-2.15-1.34-3.06-1.84-.32-.18-.44-.11-.49-.08s-.93.79-.88,5.18a2.69,2.69,0,0,1-1.08,2.19,2.56,2.56,0,0,1-2.31.42,9.57,9.57,0,0,0-2.73-.49c-.86,0-1.6,2.1-1.87,5.35a2.63,2.63,0,0,1-2.52,2.41,20,20,0,0,0-6.51,1c-.79.35-.94,1.32-.43,2.89a2.65,2.65,0,0,1-.41,2.4,2.56,2.56,0,0,1-2.16,1,30.76,30.76,0,0,0-5.5.39c-.86.14-1.35.43-1.47.86-.4,1.44,2.5,4.55,4.41,6.17l.23.2-.31,2.26,0,.09a3,3,0,0,1-1.21,1.27,15.08,15.08,0,0,0-1.43.73,32.93,32.93,0,0,1-3.64,1.8c-.71.28-1.31,2.92-1.63,4.34a6.66,6.66,0,0,1-.89,2.67,11,11,0,0,0,1.56,3.48l.27.44-.43.29a6.88,6.88,0,0,1-3.08,1.2c-.3.21-.59,2.1-.73,3a10.46,10.46,0,0,1-.5,2.32c-.34.72,1,2.37,2.07,3.26l.95.82-1.25.13s-2.81.31-3.51,2l-.18.34c-1.34,2.49-1.58,4.09-.73,4.76.19.15.76.59,3,4.26a2.65,2.65,0,0,1-.62,3.43c-1.72,1.36-2.75,2.55-2.84,3.26-.06.45.61,1.36,2.63,2.54a2.62,2.62,0,0,1,1.05,3.45c-1.45,3-2.39,5-2.64,5.71-.16.47,2,1.93,4.86,3l.33.13v.35a4,4,0,0,1-.67,2.55,10.3,10.3,0,0,0-.35,2.61,6.11,6.11,0,0,1-.34,2.26c.06.15.15.34.23.52a14.27,14.27,0,0,1,1.51,6.12,1.36,1.36,0,0,0,.51,1.24c1.14.79,4-.05,4.89-.41l.59-.24.13.62a8,8,0,0,1,.19,3.33,2.08,2.08,0,0,0,.34.1,2.65,2.65,0,0,1,2,2.35c.25,3.12.79,5.33,1.44,5.91a.76.76,0,0,0,.69.25c.67-.1,1.37-1.06,1.57-1.38l.76-1.3.23,1.48a22.93,22.93,0,0,1,.36,4.85c-.08.42.73,1.61,1.21,2.32a9.23,9.23,0,0,1,.86,1.43c.13.31,1.46.83,2.25,1.15a12.31,12.31,0,0,1,2.38,1.13,3.54,3.54,0,0,0,2,.39h0a2.64,2.64,0,0,1,2.63,2.28c.22,1.82.76,3,1.51,3.46,1.44.78,4-.4,4.88-.92l.56-.33.23.61c0,.06.58,1.62-.93,3.76-.09.14-.08.19-.07.22.17.56,2.06,1.29,3.31,1.78,1.59.61,3,1.14,3.51,1.88.36.5,1.55.06,2.51-.3,1.12-.42,2.39-.89,2.82.15s2.55,2.57,3.55,3.3c.44.32,1.27.17,2.14,0a6.11,6.11,0,0,1,2.82-.07c1.2.37,2.48-1.42,2.5-1.44Zm53.06-5h0Zm-108.72-94Z"/><path class="cls-5" d="M533.47,430.94a4.69,4.69,0,0,1-3.31-1.37l-2-2a.54.54,0,0,1,0-.76.55.55,0,0,1,.77,0l2,2a3.61,3.61,0,0,0,4.11.7l1.61-.78a.54.54,0,1,1,.47,1l-1.61.78A4.57,4.57,0,0,1,533.47,430.94Z"/><path class="cls-5" d="M529.42,456.71h-.19l-2.88-.11a.54.54,0,0,1-.51-.57.52.52,0,0,1,.56-.51l2.87.11a3.58,3.58,0,0,0,3.49-2.27l.66-1.67a.55.55,0,0,1,.71-.3.55.55,0,0,1,.3.7l-.66,1.67A4.69,4.69,0,0,1,529.42,456.71Z"/><path class="cls-5" d="M520,492.78a.54.54,0,0,1-.49-.31.53.53,0,0,1,.26-.72l2.62-1.19A3.62,3.62,0,0,0,524.5,487l-.17-1.78a.55.55,0,0,1,.49-.59.54.54,0,0,1,.59.49l.17,1.78a4.69,4.69,0,0,1-2.72,4.69l-2.62,1.19A.44.44,0,0,1,520,492.78Z"/><path class="cls-5" d="M558.16,414.61a.54.54,0,0,1-.1-1.07l2.83-.53a3.6,3.6,0,0,0,2.9-3l.27-1.78a.53.53,0,0,1,.61-.45.55.55,0,0,1,.46.62l-.28,1.77a4.68,4.68,0,0,1-3.76,3.89l-2.83.53Z"/><path class="cls-5" d="M592.78,403.36a4.63,4.63,0,0,1-2.07-.49l-2.58-1.28a.54.54,0,0,1,.48-1l2.58,1.28a3.59,3.59,0,0,0,4.11-.65l1.29-1.25a.54.54,0,1,1,.75.77L596.05,402A4.67,4.67,0,0,1,592.78,403.36Z"/><path class="cls-5" d="M608.2,424.63a4.67,4.67,0,0,1-3.58-1.66l-1.85-2.19a.54.54,0,0,1,.82-.7l1.86,2.2a3.62,3.62,0,0,0,4,1l1.68-.65a.55.55,0,0,1,.7.32.54.54,0,0,1-.32.69l-1.67.64A4.66,4.66,0,0,1,608.2,424.63Z"/><path class="cls-5" d="M632.81,453.32a.48.48,0,0,1-.28-.08l-1.54-.92a4.68,4.68,0,0,1-2.17-5l.58-2.82a.54.54,0,1,1,1.06.22l-.58,2.82a3.59,3.59,0,0,0,1.67,3.81l1.53.93a.54.54,0,0,1,.19.74A.53.53,0,0,1,632.81,453.32Z"/><path class="cls-5" d="M610.19,466.9a4.68,4.68,0,0,1-3.31-1.37l-2-2a.54.54,0,0,1,0-.76.52.52,0,0,1,.76,0l2,2a3.6,3.6,0,0,0,4.1.7l1.62-.78a.54.54,0,1,1,.47,1l-1.62.78A4.7,4.7,0,0,1,610.19,466.9Z"/><path class="cls-5" d="M577.34,443.53a4.61,4.61,0,0,1-1.7-.32l-2.67-1a.54.54,0,0,1,.39-1l2.68,1a3.63,3.63,0,0,0,4-1l1.17-1.37a.55.55,0,0,1,.76-.06.56.56,0,0,1,.06.77l-1.17,1.36A4.69,4.69,0,0,1,577.34,443.53Z"/><path class="cls-5" d="M550.3,472.49a.57.57,0,0,1-.35-.12.54.54,0,0,1-.06-.77l1.86-2.19a3.6,3.6,0,0,0,.36-4.15l-.91-1.55a.55.55,0,0,1,.19-.74.54.54,0,0,1,.74.2l.91,1.55a4.66,4.66,0,0,1-.47,5.39l-1.86,2.19A.53.53,0,0,1,550.3,472.49Z"/><path class="cls-5" d="M572.08,481.72a4.69,4.69,0,0,1-4.28-2.78l-1.16-2.63a.54.54,0,0,1,.27-.71.55.55,0,0,1,.72.27l1.16,2.63a3.59,3.59,0,0,0,3.58,2.13l1.79-.15a.54.54,0,0,1,.09,1.08l-1.79.14Z"/><path class="cls-5" d="M565.78,512.72a.54.54,0,0,1-.48-.31l-.78-1.62a4.66,4.66,0,0,1,.9-5.33l2-2a.54.54,0,0,1,.76,0,.55.55,0,0,1,0,.77l-2,2a3.61,3.61,0,0,0-.7,4.11l.78,1.61a.55.55,0,0,1-.49.78Z"/><path class="cls-5" d="M562.91,535.45a.43.43,0,0,1-.19,0,.54.54,0,0,1-.32-.69L563,533a4.66,4.66,0,0,1,4.39-3.07h.07l2.88,0a.53.53,0,0,1,.53.54.55.55,0,0,1-.55.54l-2.87-.05a3.57,3.57,0,0,0-3.44,2.36l-.62,1.68A.53.53,0,0,1,562.91,535.45Z"/><path class="cls-5" d="M605.11,528.4a.53.53,0,0,1-.53-.47l-.24-1.78a4.66,4.66,0,0,1,2.54-4.78l2.57-1.3a.54.54,0,0,1,.48,1l-2.57,1.29a3.63,3.63,0,0,0-2,3.68l.24,1.78a.54.54,0,0,1-.47.61Z"/><path class="cls-5" d="M598.22,499.43a4.67,4.67,0,0,1-2.41-.67l-2.46-1.48a.54.54,0,1,1,.55-.92l2.47,1.48a3.62,3.62,0,0,0,4.15-.32l1.38-1.15a.54.54,0,0,1,.69.83l-1.38,1.15A4.7,4.7,0,0,1,598.22,499.43Z"/><path class="cls-5" d="M629.32,486.32a4.68,4.68,0,0,1-4.38-3.05l-1-2.7a.52.52,0,0,1,.31-.69.54.54,0,0,1,.7.32l1,2.69a3.6,3.6,0,0,0,3.44,2.35l1.79,0h0a.54.54,0,0,1,0,1.08l-1.8,0Z"/><path class="cls-5" d="M626,506.57l-.14,0a.55.55,0,0,1-.39-.65l.43-1.75a4.7,4.7,0,0,1,4.11-3.53l2.86-.26a.54.54,0,1,1,.1,1.07l-2.86.27a3.6,3.6,0,0,0-3.16,2.71l-.43,1.75A.54.54,0,0,1,626,506.57Z"/><path class="cls-5" d="M535.35,512.72a.58.58,0,0,1-.35-.13.54.54,0,0,1-.06-.76l1.16-1.37a4.66,4.66,0,0,1,5.25-1.34l2.68,1a.54.54,0,1,1-.39,1l-2.68-1a3.6,3.6,0,0,0-4,1l-1.16,1.37A.55.55,0,0,1,535.35,512.72Z"/><path class="cls-5" d="M509.47,469.19h-.06a.53.53,0,0,1-.48-.59l.31-2.86a3.6,3.6,0,0,0-2-3.64l-1.62-.77a.55.55,0,0,1-.26-.72.54.54,0,0,1,.72-.25l1.63.77a4.69,4.69,0,0,1,2.64,4.73l-.31,2.86A.55.55,0,0,1,509.47,469.19Z"/><path class="cls-6" d="M573.54,479.3a16.25,16.25,0,0,0,8,0c.26-.21.63-.06.55.29-1.1,2.79-8.05,2.8-9.17,0a.34.34,0,0,1,.49-.4l.13.07Z"/><circle class="cls-6" cx="563.32" cy="468.32" r="4.9"/><circle class="cls-7" cx="559.78" cy="465.8" r="1.36"/><circle class="cls-7" cx="561.44" cy="468.02" r="0.51"/><circle class="cls-6" cx="591.62" cy="468.32" r="4.9"/><circle class="cls-7" cx="595.16" cy="465.8" r="1.36"/><circle class="cls-7" cx="593.49" cy="468.02" r="0.51"/><ellipse class="cls-8" cx="556.34" cy="480.08" rx="3.66" ry="1.91"/><ellipse class="cls-8" cx="600.18" cy="480.08" rx="3.66" ry="1.91"/><path class="cls-1" d="M345.34,483.74c-14.74,56.17-8,166.74-4.37,212.63,1,12.93,1.82,20.73,1.82,20.73h-23S316.23,571.06,329,518s19.4-164.42,19.4-164.42l8.74-4.73,3.52-1.91S364.23,411.74,345.34,483.74Z"/><path class="cls-2" d="M345.34,483.74c-14.74,56.17-8,166.74-4.37,212.63l-5.48,3.11s-10.83-155.4,4.65-207.31c20.07-78.15,18.48-126.83,17-143.37l3.52-1.91S364.23,411.74,345.34,483.74Z"/><path class="cls-1" d="M347.11,421s-2.66-1.08-6.76-3.23c-15.43-8.08-51.35-31.19-43.07-68,1.56-6.94,3.72-10.7,6.27-12.08,14.6-7.85,41.88,62,41.88,62Z"/><path class="cls-1" d="M365.42,533.53c-13.28,10.5-30,13.53-30,13.53l.68-15.29s16.72-25.71,29.86-37c8.35-7.2,15.25-8.6,15.5,6.08C381.76,516,374.36,526.46,365.42,533.53Z"/><path class="cls-2" d="M365.42,533.53c9.31-11.48,17.17-26.7,13.18-40.5-1.75-6.07-12.6,1.69-12.6,1.69h0c8.35-7.2,15.25-8.6,15.5,6.08C381.76,516,374.36,526.46,365.42,533.53Z"/><path class="cls-9" d="M441.81,202c-9.62,33.38-36,46.86-79,48.15-15.39.46-30.68-8.17-42-21.49-20.25-23.87-27.7-62.79,0-91.5,0,0,17.16-18.63,44.26-23.71A74.18,74.18,0,0,1,402,116C449.52,131.43,451.44,168.66,441.81,202Z"/><path class="cls-10" d="M320.83,228.7c-20.25-23.87-27.7-62.79,0-91.5,0,0,17.16-18.63,44.26-23.71C336.46,125.94,292.58,157.44,320.83,228.7Z"/><path class="cls-6" d="M374.05,192.68c2.55,3.49,7.62,3.82,11.41,2.51a6.85,6.85,0,0,0,3.33-2.53.6.6,0,0,1,.84-.16.67.67,0,0,1,.26.49,5.18,5.18,0,0,1-.92,2.77c-3.44,4.85-11.76,4.86-15.22,0-.49-.72-1.72-3.26-.28-3.45a.68.68,0,0,1,.58.34Z"/><path class="cls-11" d="M394.79,114h0l-1.65-.35a73.59,73.59,0,0,0-20.39-1.22c-.72,0-1.44.12-2.15.2-.17-10.15-.34-43.26,3.8-71h0C378.2,16.22,385.66-4.69,400.12.92c7.53,2.92,11.32,10.43,12.69,20.32C416.93,50.82,399.32,101.61,394.79,114Z"/><path class="cls-12" d="M447.83,107.74h0c-10.58,10.77-19.51,18.65-21.55,20.42l-.14.13a65.78,65.78,0,0,0-9.62-6.2h0c-2.22-1.18-4.56-2.3-7.07-3.34l-3.43-2s18.58-37.21,38.84-64.14c15.28-20.29,31.51-34.76,41.49-23.09C501.55,47.28,470.8,84.33,447.83,107.74Z"/><path class="cls-13" d="M444.83,52.56c-8.72,33.2-28.13,69.57-28.13,69.57l-.19,0h0c-2.22-1.18-4.56-2.3-7.07-3.34-2.34-1-4.81-1.89-7.41-2.73-2.45-.79-4.85-1.45-7.22-2h0l-1.65-.35c1.61-14.82,7.64-63.85,19.68-92.45,6.6-15.69,15-25.24,25.5-19.61C451.75,8.84,450.77,30,444.83,52.56Z"/><path class="cls-14" d="M472.94,129.2c-15.11,6.1-29.23,10.33-34.95,12q-.5-.78-1-1.53a52.32,52.32,0,0,0-10.35-10.94h0l-.34-.52L424,124.73s10.09-7.78,23.81-17h0C475.11,89.43,516.77,65.51,522.15,86,526.71,103.33,498.43,118.93,472.94,129.2Z"/><path class="cls-15" d="M553,134.83c-1,13.5-17.37,20.79-37.38,24.62h0c-25.68,4.94-57.27,4.2-69.79,3.64-.07-.56-.16-1.12-.25-1.68A52.3,52.3,0,0,0,438,141.17q-.5-.78-1-1.53c5.42-1.78,19.45-6.24,36-10.44C508.14,120.28,554.62,112.6,553,134.83Z"/><path class="cls-16" d="M551.46,222.57c-7.78,14.15-31.81,11.08-55.82,3.49h0c-22.57-7.16-45.12-18.32-54.12-23,.11-.34.21-.68.31-1,.2-.7.4-1.4.59-2.11,1.06-3.89,2-7.82,2.63-11.76.54-3.16.94-6.32,1.17-9.46,16,1.91,68.6,9.07,93.53,22.68C550.43,207.24,556,214.26,551.46,222.57Z"/><path class="cls-17" d="M568.77,184.62c-3.17,10.43-14.43,15.25-29,16.77-32.46,3.39-81.42-9.49-94.7-13.22.54-3.16.94-6.32,1.17-9.46a74.55,74.55,0,0,0-.37-15.62c-.07-.56-.16-1.12-.25-1.68,11.51-1,42.13-3.35,70-2h0C546.52,161,574.09,167.12,568.77,184.62Z"/><path class="cls-18" d="M532.4,272.05c-5.68,5.67-14,6.13-23.57,3.43-27.74-7.85-65.49-42.41-76.63-53,.25-.34.49-.69.73-1.05a65.62,65.62,0,0,0,8.57-18.32c.11-.34.21-.68.31-1,.2-.7.4-1.4.59-2.11,8.32,3.52,31.84,13.8,53.22,26.12h0C522,241.23,545,259.48,532.4,272.05Z"/><path class="cls-19" d="M468,341.51c-18.49,5.82-36.79-22.48-49.64-49.6a0,0,0,0,0,0,0A402.77,402.77,0,0,1,400.49,247l7.34-5.35.4-.18a64.18,64.18,0,0,0,9.48-5.17h0c.84-.55,1.64-1.12,2.44-1.72,3.8,4.55,17.84,21.6,30.91,40.84C469.94,303.24,486.79,335.58,468,341.51Z"/><path class="cls-20" d="M513.63,301.84c-14.68,11.85-41-6.46-62.56-26.38a401,401,0,0,1-34.77-36.9l1.41-2.22h0c.84-.55,1.64-1.12,2.44-1.72a54.36,54.36,0,0,0,12-12.18c.25-.34.49-.69.73-1.05,13.64,7.6,56.83,32.57,75.9,54.09C518,285.84,521.61,295.4,513.63,301.84Z"/><path class="cls-21" d="M404.81,359.56c-6.83-1-11.75-5.91-15.23-13.15-12.76-26.47-6.4-84.3-4.62-98.24l1.14-.19a94.22,94.22,0,0,0,21.73-6.29l.4-.18c.91,3.56,6.49,26,10.09,50.39a0,0,0,0,1,0,0C423.27,325.36,424.5,362.47,404.81,359.56Z"/><path class="cls-22" d="M389.58,346.41c-2.74,15.12-8.49,24.92-19.32,22.24-7.5-1.85-12.29-8.08-15.18-16.81-9.7-29.35,2.18-87,5.47-101.65h0q1.13,0,2.25,0,5.25-.15,10.17-.56h0c4.17-.34,8.15-.83,12-1.46l1.14-.19C388.09,261.67,395.22,315.3,389.58,346.41Z"/><path class="cls-23" d="M359.33,250.14c-2.68,9.68-15.64,54.85-31.62,83.63-10.18,18.32-21.57,30-32.32,21.64-15.16-11.78-4.11-41.45,10.38-67.73a417.08,417.08,0,0,1,29.84-45.82c1.19.78,2.4,1.51,3.63,2.18a47.49,47.49,0,0,0,19,6C358.58,250.1,359,250.12,359.33,250.14Z"/><path class="cls-24" d="M382.09,251.41s-8.84,74.94-27,100.43c-5.26,7.37-11.29,10.61-18.11,6.73-7.62-4.34-10-13.51-9.26-24.8,1.88-29,24.2-72.07,30.5-83.71.37,0,.75.06,1.12.08s.81,0,1.22.05h0q1.13,0,2.25,0,5.25-.15,10.17-.56h0Z"/><path class="cls-25" d="M339.24,244a531.33,531.33,0,0,1-33.47,43.64c-20.59,23.78-44.65,45.16-54.72,29.76-12-18.31,18.79-48.33,43.59-68.32l0,0c12.49-10.07,23.48-17.59,26.71-19.76.4.46.79.9,1.2,1.34h0a67,67,0,0,0,13,11.17C336.8,242.64,338,243.37,339.24,244Z"/><path class="cls-26" d="M304.4,166.63a63.5,63.5,0,0,0-1.08,23.07c-19.75-1.74-120.11-12-105.67-40.16,8.39-16.34,38.86-10.59,66-1.43A390.19,390.19,0,0,1,304.81,165C304.66,165.55,304.53,166.09,304.4,166.63Z"/><path class="cls-27" d="M314.63,144.54c-.28.38-.55.76-.81,1.15a61.2,61.2,0,0,0-9,19.32c-.15.54-.28,1.08-.41,1.62-7.29-3-23.77-9.86-40.78-18.52-30-15.25-61.7-36-47.87-50.28,10-10.35,29.09-3.76,48.07,7.6h0C285.24,118.24,306.53,137.09,314.63,144.54Z"/><path class="cls-28" d="M330.39,129c-.42.3-.82.6-1.21.9a71,71,0,0,0-8.38,7.35,69.18,69.18,0,0,0-6.17,7.34c-.28.38-.55.76-.81,1.15-8.45-6-31.47-22.68-50-40.25h0c-19.7-18.71-34.28-38.38-20.72-47.09,21.37-13.74,58.14,30.31,76.72,55.55l0,0C325,121,328.77,126.5,330.39,129Z"/><path class="cls-29" d="M350.78,117.61c-.6.23-1.2.48-1.79.73A89.86,89.86,0,0,0,330.39,129c-.42.3-.82.59-1.21.89-1.1-1.8-4.67-7.68-9.33-15.92l0,0c-8.74-15.43-21.29-39.18-28.68-60-7.83-22.1-9.85-40.95,4.65-43.22,13.27-2.07,24.13,11.27,32.59,29.26A216.52,216.52,0,0,1,338.8,67.41,420.49,420.49,0,0,1,350.78,117.61Z"/><path class="cls-30" d="M322.76,231s-12,8.41-28.09,18.12l0,0c-31,18.68-77,42.12-81.86,19.58-4.22-19.65,28.78-35.57,57.69-45.59a406.74,406.74,0,0,1,39.46-11.33c.37.81.77,1.62,1.19,2.41a77.35,77.35,0,0,0,9.71,14.51l.55.64c.4.46.79.9,1.2,1.34h0Z"/><path class="cls-31" d="M311.12,214.19c-2.49.65-19.75,5.12-40.65,8.92-37.45,6.82-86.57,11.53-83.32-11.59,4.67-33.13,96.63-24,116.19-21.68a73.36,73.36,0,0,0,6.59,21.94C310.3,212.59,310.7,213.4,311.12,214.19Z"/><ellipse class="cls-8" cx="342.17" cy="196.39" rx="6.78" ry="3.54"/><ellipse class="cls-8" cx="423.32" cy="196.39" rx="6.78" ry="3.54"/><path class="cls-32" d="M372.74,112.47c-.72,0-1.44.12-2.15.2q-2.83.31-5.53.82a78.38,78.38,0,0,0-14.28,4.13c-.6.23-1.2.48-1.79.73-1.66-6.61-6.87-28.14-10.19-50.93C334,34.57,333.12-.92,352.4,1.87c13.57,2,19.65,19.24,22,39.81h0C377.47,68.76,374.07,101.51,372.74,112.47Z"/><path class="cls-33" d="M374.39,41.68l.79-4.86s8.68,19.16,0,75.5l-2.44.15S380.76,85.94,374.39,41.68Z"/><path class="cls-33" d="M349,118.35l-1.73.75S340.8,103.71,337.05,62l2.23,8.63S345.1,104.12,349,118.35Z"/><path class="cls-33" d="M447.54,49.08S439.68,79.63,419,123.5c-1.44-.84-2.38-1.37-2.38-1.37s8.9-11.35,28.18-69.57Z"/><path class="cls-33" d="M412.81,21.24l1.24-2.82s-6.05,62.4-16.27,96.44l-3-.82S403,92.38,412.81,21.24Z"/><path class="cls-33" d="M319.82,113.89l-2.05-2.77s2.74,7.57,10.57,19.49l1.55-1.29A70.33,70.33,0,0,1,319.82,113.89Z"/><path class="cls-33" d="M263.84,105.44l-3.07-3s23.37,12.91,54.16,41.45l-1.11,1.76S284.62,119.55,263.84,105.44Z"/><path class="cls-33" d="M263.62,148.11l-5.11-1.67s6.06,5.74,45.6,21.47l.29-1.28S277.59,155.59,263.62,148.11Z"/><path class="cls-33" d="M285.32,188.11s13.9,1.19,18,1.59l.17,1.17a104.81,104.81,0,0,1-21.83-3Z"/><path class="cls-33" d="M269.77,223.24a343,343,0,0,0,41.35-9.05l.73,1.36s-17.63,7.77-46.7,9.45Z"/><path class="cls-33" d="M322.59,230.69a160.35,160.35,0,0,0-27.95,18.43l-5.48,3.26s10.9-10,31.93-23.37C322.85,231,322.59,230.69,322.59,230.69Z"/><path class="cls-33" d="M305.77,287.68s30-36.08,33.47-43.64l2.43,1.27s-24.09,32.43-38.18,46.59Z"/><path class="cls-33" d="M359.33,250.14s-26.88,47.13-31.62,83.63c-1.61,2.86-2,3.55-2,3.55s5-41.09,31.93-87.32Z"/><path class="cls-33" d="M355.08,351.84s24.49-40.62,24.66-102.91l1-.13s1.76,55.44-25.28,104.22A6,6,0,0,1,355.08,351.84Z"/><path class="cls-33" d="M389.58,346.41S377,312.16,377.43,287.64l-.61,3.47s-1.12,14.31,12.45,56.94Z"/><path class="cls-33" d="M408.23,241.51s5.4,20.79,10.09,50.39l.7,1.45a468.84,468.84,0,0,0-9.87-52.26Z"/><path class="cls-33" d="M451.07,275.46s-25.18-24.33-33.36-39.12l-.95.65s8.25,14.33,37.91,43.87Z"/><path class="cls-33" d="M432.93,221.39s55.59,30,75.9,54.09c1.89.5-13.9-20.23-75-55.38Z"/><path class="cls-33" d="M495.64,226.06a402.37,402.37,0,0,1-53.24-26.13l-.4,1.44a370.67,370.67,0,0,0,57.19,26.77Z"/><path class="cls-33" d="M446.2,178.71s63.16,5.34,93.53,22.68l2.36-.28S510.55,183.88,446.31,177Z"/><path class="cls-33" d="M447.83,107.74A79.77,79.77,0,0,1,427,129c1.21,1,.72.59.72.59s14.93-11.47,23.16-23.83Z"/><path class="cls-33" d="M477.67,127.24s-23.8,6.14-38.36,16.1l.45.79s18.94-11.24,33.18-14.93Z"/><path class="cls-33" d="M445.83,163.09s20.48,1.29,69.79-3.64l2.81.16s-20,4.26-72.38,5.29Z"/><path class="cls-6" d="M361,176c-2.23-5.6-9.95-6.63-14.59-3.69a10.49,10.49,0,0,0-3.39,3.9,1.38,1.38,0,0,1-1.95.55c-1.44-1.09-.15-3.61.64-4.77a11.49,11.49,0,0,1,9.83-4.62c4.75.12,9.64,3.65,10.19,8.46a.38.38,0,0,1-.73.17Z"/><circle class="cls-6" cx="355.08" cy="176.77" r="6.77"/><circle class="cls-7" cx="350.19" cy="173.28" r="1.88"/><circle class="cls-7" cx="352.49" cy="176.35" r="0.71"/><path class="cls-6" d="M400.54,175.8c.55-4.81,5.44-8.34,10.19-8.46,4.79-.28,10.78,3,11.1,8.25a1.36,1.36,0,0,1-2.58.59c-3.12-7-14.9-7.59-18-.21a.38.38,0,0,1-.73-.17Z"/><circle class="cls-6" cx="407.2" cy="176.77" r="6.77"/><circle class="cls-7" cx="412.09" cy="173.28" r="1.88"/><circle class="cls-7" cx="409.79" cy="176.35" r="0.71"/><path class="cls-34" d="M544.06,755.09h0C353.84,756,0,751.27,0,751.27l25.06-8.18s71.18-43.56,101.25-41.5,36.11-12.94,49.12-8.18,55.16-2.56,63.17-.94c4.6.92,22.38-2.58,41-3.84,13.9-1,28.27-.7,37.84,3.6,22.41,10,45.71-9.31,62.14-4.06s112.67,1.16,114.68,9.32,89.23,28.59,103.25,38.13,56.16,6.79,64.17,15.65C663.86,753.69,615.53,754.77,544.06,755.09Z"/><path class="cls-35" d="M544.06,755.09h0S516.2,739,512.43,738s-48.51-34.71-56-28.59-77.07-11-82.34-15.88-36.07,14.34-48.5,4.9-46-9.8-46-9.8c13.9-1,28.27-.7,37.84,3.6,22.41,10,45.71-9.31,62.14-4.06s112.67,1.16,114.68,9.32,89.23,28.59,103.25,38.13,56.16,6.79,64.17,15.65C663.86,753.69,615.53,754.77,544.06,755.09Z"/></g></g></svg>